<svg width="82" height="71" viewBox="0 0 82 71" fill="none" xmlns="http://www.w3.org/2000/svg">
<path d="M3.30536 9.29853C9.41687 9.29853 15.4417 9.29853 21.5532 9.29853C21.5532 10.7939 21.5315 12.2459 21.5532 13.6979C21.5965 15.28 22.4851 16.4503 23.8504 16.8404C25.3025 17.2522 26.8628 16.732 27.578 15.4534C27.8814 14.9116 28.0331 14.2181 28.0765 13.5896C28.1415 12.1809 28.0981 10.7506 28.0981 9.27686C36.2902 9.27686 44.3955 9.27686 52.5875 9.27686C52.5875 10.7506 52.5658 12.2026 52.5875 13.6546C52.6309 16.2336 55.3399 17.794 57.5721 16.537C58.634 15.9302 59.1758 14.9766 59.1758 13.7413C59.1758 12.2893 59.1758 10.8372 59.1758 9.29853C65.7207 9.29853 72.2007 9.29853 78.7673 9.29853C78.7673 14.9549 78.7673 20.633 78.7673 26.3544C53.6278 26.3544 28.4882 26.3544 3.28369 26.3544C3.30536 20.698 3.30536 15.0199 3.30536 9.29853Z" fill="#FFB800"/>
<path d="M59.6969 7.20215H80.943V69.5001H13.9637L1 56.1762V7.20215H20.8057" stroke="white" stroke-width="2"/>
<path d="M27.0579 8.02011C27.0579 9.8839 27.0579 11.7694 27.0579 13.6332C27.0579 15.0418 26.1477 15.9954 24.8257 15.9954C23.5037 15.9954 22.5718 15.0635 22.5718 13.6548C22.5718 9.8839 22.5718 6.11297 22.5718 2.34204C22.5718 0.933361 23.482 0.00146484 24.804 0.00146484C26.126 0.00146484 27.0362 0.933361 27.0579 2.34204C27.0579 4.20583 27.0579 6.11297 27.0579 8.02011Z" fill="white"/>
<path d="M58.1354 7.99839C58.1354 9.88385 58.1354 11.7476 58.1354 13.6331C58.1354 15.0635 57.2468 15.9737 55.9032 15.9954C54.5812 15.9954 53.671 15.0635 53.6493 13.6331C53.6493 9.86218 53.6276 6.06958 53.6493 2.29865C53.6493 0.911643 54.6028 -0.0419248 55.9465 0.00141923C57.2468 0.0230912 58.1137 0.933316 58.1354 2.32032C58.1571 4.18412 58.1354 6.09125 58.1354 7.99839Z" fill="white"/>
<path d="M52.5661 6.41626C52.5661 6.93639 52.5661 7.3915 52.5661 7.9333C44.4391 7.9333 36.3554 7.9333 28.1851 7.9333C28.1851 7.45652 28.1851 6.97973 28.1851 6.41626C36.2687 6.41626 44.3524 6.41626 52.5661 6.41626Z" fill="white"/>
<path d="M13.9466 46.3794C13.9466 47.0729 13.9249 47.7448 13.9466 48.4383C13.9683 48.9584 13.7732 49.1968 13.2314 49.1968C11.8661 49.1751 10.5007 49.1751 9.1354 49.1968C8.63694 49.1968 8.44189 49.0017 8.44189 48.5033C8.46357 47.0729 8.46357 45.6426 8.44189 44.2339C8.44189 43.6921 8.68029 43.5837 9.15707 43.5837C10.5224 43.6054 11.8877 43.6054 13.2531 43.5837C13.7515 43.5837 13.9466 43.7788 13.9466 44.2556C13.9466 44.9491 13.9466 45.6643 13.9466 46.3794Z" fill="white"/>
<path d="M72.0494 35.4785C72.0494 36.2154 72.0928 36.9739 72.0278 37.7107C72.0061 37.9491 71.6593 38.3175 71.4426 38.3175C70.0556 38.3826 68.6469 38.3826 67.2599 38.3175C67.0432 38.3175 66.6531 37.9275 66.6531 37.6891C66.6098 36.237 66.6098 34.785 66.6531 33.3113C66.6531 33.1163 67.0215 32.7478 67.2166 32.7478C68.6469 32.7045 70.0773 32.7045 71.486 32.7478C71.681 32.7478 72.0061 33.1163 72.0278 33.333C72.0928 34.0482 72.0494 34.7633 72.0494 35.4785Z" fill="white"/>
<path d="M27.9029 32.8127C29.745 32.8127 31.4788 32.8127 33.2992 32.8127C33.2992 34.5248 33.3209 36.1719 33.2775 37.8406C33.2775 38.014 32.9308 38.3391 32.7574 38.3391C31.3271 38.3825 29.9184 38.3825 28.488 38.3391C28.293 38.3391 27.9462 38.0357 27.9462 37.8623C27.8812 36.1936 27.9029 34.5248 27.9029 32.8127Z" fill="white"/>
<path d="M52.6532 35.5868C52.6532 36.2153 52.6315 36.8438 52.6532 37.4506C52.6965 38.0791 52.5015 38.3825 51.808 38.3392C50.551 38.2958 49.3157 38.2958 48.0587 38.3392C47.4736 38.3608 47.1918 38.1874 47.2135 37.5373C47.2569 36.1936 47.2352 34.8716 47.2135 33.528C47.1918 32.9645 47.3869 32.7044 47.972 32.7261C49.2724 32.7478 50.5944 32.7478 51.8947 32.7261C52.5015 32.7044 52.6749 32.9862 52.6532 33.528C52.6315 34.2215 52.6532 34.915 52.6532 35.5868Z" fill="white"/>
<path d="M37.6123 38.3392C37.6123 36.432 37.6123 34.6766 37.6123 32.7478C38.7176 32.7478 39.8012 32.7478 40.8848 32.7478C42.9653 32.7478 42.9653 32.7478 42.9653 34.785C42.9653 35.7602 42.987 36.7571 42.9436 37.7324C42.9436 37.9491 42.6619 38.3175 42.5102 38.3175C40.9064 38.3609 39.3027 38.3392 37.6123 38.3392Z" fill="white"/>
<path d="M56.9428 35.5436C56.9428 34.8501 56.9645 34.1782 56.9428 33.4847C56.9212 32.8996 57.1812 32.7045 57.723 32.7262C59.0017 32.7479 60.2803 32.7479 61.559 32.7262C62.0791 32.7262 62.3175 32.8996 62.2958 33.4414C62.2742 34.8284 62.2742 36.2371 62.2958 37.6241C62.2958 38.1659 62.1008 38.3609 61.559 38.3393C60.2803 38.3176 59.0017 38.3176 57.723 38.3393C57.1596 38.3609 56.8995 38.1659 56.9212 37.5807C56.9645 36.9089 56.9428 36.2371 56.9428 35.5436Z" fill="white"/>
<path d="M33.2997 49.1101C31.4792 49.1101 29.7455 49.1101 27.9034 49.1101C27.9034 47.398 27.8817 45.7292 27.925 44.0605C27.925 43.8871 28.2718 43.5837 28.4668 43.562C29.8972 43.5187 31.3275 43.5187 32.7579 43.562C32.9529 43.562 33.278 43.8655 33.2997 44.0388C33.3214 45.7292 33.2997 47.398 33.2997 49.1101Z" fill="white"/>
<path d="M27.9034 60.8346C27.9034 59.1442 27.8817 57.4755 27.925 55.8284C27.925 55.655 28.2284 55.3733 28.4018 55.3733C30.0056 55.3299 31.5876 55.3516 33.2564 55.3516C33.2564 57.2154 33.2564 58.9708 33.2564 60.8346C31.5226 60.8346 29.7888 60.8346 27.9034 60.8346Z" fill="white"/>
<path d="M42.9218 55.4385C42.9218 57.2589 42.9218 59.0144 42.9218 60.9215C41.8166 60.9215 40.733 60.9215 39.6494 60.9215C37.5688 60.9215 37.5688 60.9215 37.5688 58.8193C37.5688 57.8007 37.5688 56.8038 37.5688 55.7852C37.5688 55.6985 37.5905 55.6119 37.6122 55.4385C39.346 55.4385 41.0797 55.4385 42.9218 55.4385Z" fill="white"/>
<path d="M47.235 46.3361C47.235 45.6426 47.2567 44.9708 47.235 44.2773C47.2133 43.7138 47.4301 43.5404 47.9719 43.5621C49.3155 43.5837 50.6592 43.5404 51.9812 43.6054C52.2196 43.6054 52.6097 43.9738 52.6097 44.1689C52.6747 45.6209 52.6747 47.0946 52.6097 48.5466C52.6097 48.7634 52.2196 49.1535 52.0029 49.1535C50.6375 49.2185 49.2722 49.1751 47.9068 49.1751C47.4084 49.1751 47.2133 48.9801 47.235 48.4816C47.2567 47.7664 47.235 47.0513 47.235 46.3361Z" fill="white"/>
<path d="M72.1142 46.4444C72.0492 47.3113 72.2876 48.4816 71.8108 48.98C71.399 49.4351 70.1854 49.1534 69.3402 49.1751C68.6467 49.1967 67.9749 49.1534 67.2814 49.1751C66.7829 49.1967 66.5879 48.98 66.6095 48.4816C66.6312 47.0946 66.6312 45.6859 66.6095 44.2989C66.6095 43.7787 66.7829 43.5403 67.3247 43.562C68.6684 43.5837 69.9904 43.5837 71.334 43.562C71.8758 43.5403 72.0709 43.7571 72.0492 44.2989C72.0275 45.014 72.0492 45.7292 72.0492 46.4444C72.0709 46.4444 72.0925 46.4444 72.1142 46.4444Z" fill="white"/>
<path d="M18.2593 60.9214C18.2593 59.1443 18.2377 57.4755 18.281 55.8284C18.281 55.6767 18.5844 55.3733 18.7578 55.3733C20.1881 55.33 21.6185 55.33 23.0272 55.3733C23.2222 55.3733 23.569 55.7418 23.5906 55.9368C23.634 57.3888 23.634 58.8408 23.5906 60.3145C23.5906 60.5313 23.2439 60.878 23.0488 60.8997C21.4885 60.943 19.9497 60.9214 18.2593 60.9214Z" fill="white"/>
<path d="M47.2352 58.1257C47.2352 57.4321 47.2568 56.7603 47.2352 56.0668C47.2135 55.5467 47.3869 55.3083 47.9503 55.33C49.294 55.3516 50.6377 55.3516 51.9597 55.33C52.4365 55.33 52.6532 55.4817 52.6532 55.9801C52.6315 57.4105 52.6315 58.8408 52.6532 60.2712C52.6532 60.7913 52.4365 60.9213 51.9597 60.9213C50.616 60.8997 49.2723 60.8997 47.9503 60.9213C47.3869 60.943 47.2135 60.7046 47.2568 60.1845C47.2568 59.491 47.2352 58.8192 47.2352 58.1257Z" fill="white"/>
<path d="M18.2373 46.3578C18.2373 45.6643 18.259 44.9925 18.2373 44.299C18.2156 43.7789 18.3673 43.5405 18.9308 43.5621C20.2311 43.5838 21.5531 43.5838 22.8534 43.5621C23.3736 43.5621 23.612 43.7355 23.5903 44.2773C23.5686 45.686 23.5686 47.073 23.5903 48.4817C23.5903 48.9585 23.3952 49.1969 22.8968 49.1752C21.5314 49.1535 20.1661 49.1969 18.8008 49.1535C18.6057 49.1535 18.2806 48.8068 18.259 48.59C18.194 47.8315 18.2373 47.0947 18.2373 46.3578Z" fill="white"/>
<path d="M42.9432 46.401C42.9432 47.1162 42.9215 47.8314 42.9432 48.5466C42.9649 49.0234 42.7482 49.1751 42.3147 49.1751C40.9494 49.1534 39.584 49.1534 38.197 49.1751C37.7853 49.1751 37.5469 49.0667 37.5469 48.5682C37.5685 47.1162 37.5685 45.6425 37.5469 44.1905C37.5469 43.7354 37.7202 43.562 38.1754 43.562C39.5407 43.5837 40.906 43.5837 42.293 43.562C42.8132 43.562 42.9649 43.7787 42.9432 44.2555C42.9215 44.9707 42.9432 45.6859 42.9432 46.401Z" fill="white"/>
<path d="M62.3614 46.3362C62.2963 47.2464 62.5347 48.4384 62.0363 48.9585C61.6028 49.4136 60.3675 49.1536 59.479 49.1536C56.9217 49.1753 56.9217 49.1536 56.9217 46.5963C56.9217 45.8161 56.9434 45.0576 56.9217 44.2774C56.9 43.7573 57.0734 43.5189 57.6369 43.5405C58.9372 43.5622 60.2592 43.5622 61.5595 43.5405C62.1013 43.5189 62.2964 43.7356 62.2747 44.2774C62.253 44.9492 62.2747 45.6427 62.2747 46.3362C62.318 46.3362 62.3397 46.3362 62.3614 46.3362Z" fill="white"/>
<path d="M57.0308 60.9213C57.0308 59.0359 57.0308 57.2371 57.0308 55.3516C58.6778 55.3516 60.2382 55.3299 61.8203 55.3733C61.9936 55.3733 62.2754 55.72 62.2971 55.9151C62.3404 57.3888 62.3404 58.8841 62.2971 60.3795C62.2971 60.5529 62.037 60.8996 61.8853 60.8996C60.2599 60.9213 58.6562 60.9213 57.0308 60.9213Z" fill="white"/>
<path d="M1.35986 56.1763H14.3236V69.5001" stroke="white" stroke-width="2"/>
</svg>
