<svg version="1.1" id="Слой_1" xmlns="http://www.w3.org/2000/svg" xmlns:xlink="http://www.w3.org/1999/xlink" x="0px" y="0px"
	 width="881.84px" height="549.46px" viewBox="0 0 881.84 549.46" enable-background="new 0 0 881.84 549.46" xml:space="preserve">
<path fill="#FFB800" d="M320.27,460.06c-3.55-0.79-6.99-2.3-10.39-2.29c-15,0.15-22.2-5.02-22.48-20.07
	c-0.31-21.85,1.3-43.81,2.2-65.66c0.14-2.81,1.23-5.73,0.78-8.39c-1.76-11.07,5.06-15.62,13.22-21.11
	c12.05-8.04,23.13-17.72,33.98-27.41c10.9-9.82,21.76-19.74,37.43-18.65c24.38,1.61,48.9-6.08,73.01,1.69
	c6.46,2.1,12.95,4.52,18.6,8.21c7.75,4.92,7.88,12.67,1.22,19.02c-7.22,6.82-16.47,9.18-25.98,9.79c-8.25,0.47-16.46-0.17-24.7,0.08
	c-6.54,0.13-13.26,0.34-19.65,1.51c-11.17,2.03-20.05,7.63-25.25,18.36C354.83,390.39,337.31,425.66,320.27,460.06z"/>
<path fill="#FFB800" d="M270.74,354.61c-0.13,5.01-0.13,10.06-0.26,15.07c-0.62,16.45-1.73,33.01-1.9,49.47
	c-0.17,15.03,3.4,29.56,10.68,42.84c2.78,5.11,2.87,8.92-2.02,12.91c-7.46,6.05-8.18,15.06-8.93,23.76
	c-1.3,16.87-1.29,17.63-18.43,17.88c-49.03,0.75-98.07,0.74-147.17,1.09c-2.95,0.03-5.88-0.61-8.87-0.89
	c-0.11-0.72-0.18-1.35-0.29-2.07c4.74-1.18,9.46-3.12,14.3-3.35c28.51-1.38,56.92-2.49,85.45-3.33c18.36-0.48,36.79-0.11,55.15-0.58
	c10.84-0.34,12.81-3,11.44-13.7c-0.81-6.34-2.7-12.4-3.42-18.78c-1.16-10.24-3.08-20.69-2.46-30.87
	c1.46-23.98,4.13-47.96,6.62-71.86c0.72-6.6,1.82-13.58,7.57-18.08C269.19,354.33,269.9,354.45,270.74,354.61z"/>
<path fill="#FFB800" d="M287.62,357.12c-0.79,7.18-1.89,14.39-2.14,21.54c-0.68,20.87-1.77,41.82-1.02,62.7
	c0.45,12.77,6.46,17.5,18.11,18.44c1.61,0.14,3.25,0.38,4.9,0.62c2.23,0.3,4.4,0.74,7.52,1.29c-18.78,6.06-33.36-2.01-34.24-20.3
	c-1.14-23.89-0.03-47.93,0.58-71.85c0.11-4.34,2.5-8.73,3.81-13.07C285.98,356.66,286.77,356.96,287.62,357.12z"/>
<path fill="#00FF8D" d="M436.89,494.6c4.16-8.94,8.11-17.12,11.94-25.36c1.26-2.77,2.61-5.59,3.12-8.57
	c0.29-1.78-1.03-3.71-1.59-5.65c-1.82,0.83-4.29,1.19-5.19,2.59c-2.61,4.16-4.69,8.74-6.86,13.14c-2.79,5.45-5.26,11.09-8.22,16.4
	c-2.96,5.31-7.99,7.06-13.95,6.05c-6.67-1.13-9.58-5.08-7.61-11.59c1.96-6.29,4.72-12.28,7.08-18.41c0.74-1.99,1.97-3.87,2.13-5.92
	c0.15-1.83-0.85-3.79-1.41-5.73c-1.69,0.88-4.12,1.33-4.98,2.83c-4.23,7.1-7.89,14.49-11.99,21.64c-1.95,3.42-4.31,6.7-6.87,9.74
	c-4.86,5.96-10.94,5.66-17.33,2.98c-6-2.54-10.49-7.08-8.56-13.68c3.04-10.19,7.59-19.96,11.6-29.93c1.37-3.26,3.53-6.23,4.54-9.55
	c0.56-1.9-0.3-4.26-0.49-6.37c-1.96,1.01-4.66,1.36-5.7,2.93c-7,10.9-13.43,22.09-20.57,32.93c-4.45,6.87-9.11,13.73-14.61,19.76
	c-4.56,4.94-13.11,5.23-18.26,1.42c-5.54-4.18-7.05-9.64-4-16.2c8.79-18.53,17.45-37.12,26.37-55.6
	c7.81-16.11,16.15-32.01,23.65-48.31c6.49-14.18,17.84-20.14,32.59-20.84c9.9-0.46,19.81,0.29,29.71,0.05
	c11.24-0.19,22.12-1.65,31.58-8.61c11.99-8.89,11.63-21.7-1.59-28.96c-17.08-9.45-35.86-11.09-54.93-9.74
	c-6.82,0.48-13.51,1.23-20.34,1.93c-0.16-0.59-0.32-1.18-0.57-1.72c5.93-1.94,11.83-4.2,17.87-5.64c17.42-4.23,35-7.87,52.33-12.05
	c6.14-1.49,10.15,0.08,14.01,4.92c17.12,21.09,34.89,41.45,58.09,56.35c4.55,2.98,9.06,5.86,13.51,9.11
	c4.1,2.96,4.32,5.83,1.03,10.42c-4.28,6.03-7.48,12.99-10.49,19.86c-3.71,8.73-7.44,16.92-16.21,22.26
	c-4.8,2.96-8.08,8.53-12.25,12.64c-2.55,2.6-5.28,5.27-8.43,7.04c-6.34,3.45-9.08,8.99-11.41,15.44c-1.83,4.9-5.42,9.07-7.34,14.02
	c-2.3,5.78-4.35,11.89-5.06,18.04C469.55,487.15,455.21,498.1,436.89,494.6z"/>
<path fill="#FFB800" d="M534.03,410.28c10.51,9.27,11.83,23.95,3.1,30.36c-5.74,4.28-10.96,3.69-15.42-1.75
	c-4.9-5.9-4.63-9.65,0.57-15.11C526.28,419.54,529.92,415.01,534.03,410.28z"/>
<path fill="#FFB800" d="M507.63,434.55c5.49,5.52,11.58,10.65,16.06,16.85c1.28,1.83-1.38,7.56-3.54,10.53
	c-2.91,3.97-7.19,5.93-12.1,1.9C497.78,455.33,497.66,443.29,507.63,434.55z"/>
<path fill="#FFB800" d="M502,467.69c3.81,7.61,2.76,13.25-2.74,17.09c-2.75,1.92-7.27,3.1-10.14,2.11c-2.08-0.7-3.65-5.59-3.73-8.63
	c-0.13-4.12,1.1-8.42,2.49-12.35c0.8-2.34,3.12-5.93,4.68-5.88c2.55,0.04,5.2,2.46,7.46,4.29
	C501.28,465.39,501.79,467.46,502,467.69z"/>
<path fill="#FFB800" d="M555.21,375.08c5.05,6.71,8.42,13.85,7.96,21.98c-0.14,2.59-2.93,7.06-4.82,7.26
	c-4.09,0.44-8.56-0.93-12.49-2.54c-0.7-0.34,0.11-5.77,1.19-8.46C549.37,387.32,552.26,381.6,555.21,375.08z"/>
<path fill="#00FF8D" d="M449.83,277.35c5.55-2.54,11.1-5.07,15.55-7.11c10.27,12.13,19.68,24.54,30.26,35.65
	c10.4,10.97,22.14,20.77,33.24,31.1c-0.51,0.56-0.93,1.09-1.44,1.65c-11.1-10.1-22.58-19.8-33.26-30.43
	c-7.36-7.19-13.92-15.3-20.21-23.53c-5.35-6.9-11.32-10.33-20.06-7.32c-1.04,0.37-2.3,0.5-3.47,0.6
	C450.48,278.05,450.22,277.72,449.83,277.35z"/>
<path fill="#00FF8D" d="M439.21,280.34c-19.28,4.97-38.6,9.84-57.3,14.65C388.57,288.87,416.9,281.08,439.21,280.34z"/>
<path fill="#00FF8D" d="M569.26,350.74c5.49-4.6,10.94-1.81,15.94,2.17c10.36,8.24,20.68,16.38,31.29,24.18
	c10.78,7.94,12.52,7.91,21.02-2.36c27.85-33.84,55.48-67.7,82.93-101.91c13.19-16.37,25.94-32.97,38.43-49.9
	c8.36-11.3,7.18-19.89-3.42-31.53c-8.52,9.5-16.95,18.96-25.55,28.29c-38.89,42.63-77.92,85.22-116.95,127.8
	c-7.58,8.19-12.07,8.71-20.75,2.23c-20.63-15.31-41.27-30.61-61.62-46.27c-15.56-11.91-30.61-24.38-45.94-36.51
	c-4.48-3.56-9.14-4.84-14.28,0.26c0.87,1.91,1.51,4.26,2.88,6.05c6.29,8.23,12.49,16.5,19.34,24.26
	c18.43,20.82,39.75,38.12,63.36,52.73C560.28,352.98,564.24,354.9,569.26,350.74z"/>
<path fill="#FFB800" d="M117.96,429.52c-0.48-1.76-4.73-1.69-6.48-2.87c0.57,1.72-3.57,1.08-7.87,1.07c0.3,0.41,0.6,0.83,0.44,1.45
	c2.13,0.57,2.21-0.46,3.6-0.55c-0.5,1.55,3.44,0.08,3.82,2.1c0.77-0.24,3.54-2.83,3.6-0.55
	C116.1,430.04,116.92,429.66,117.96,429.52z"/>
<path fill="#FFB800" d="M84.44,416.59c0.93-1.09,1.05-1.8,0.46-3.07c-2.18-0.43-2.61,0.54-4.83,0.01c-0.58,1.37,0.7,1.77,0.93,2.76
	C82.13,416.33,83.28,416.46,84.44,416.59z"/>
<path fill="#FFB800" d="M100.55,416.7c-0.99-1.2-3.2,0.69-3.76,1.39C98.79,418.38,99.02,416.96,100.55,416.7z"/>
<path fill="#FFB800" d="M275.62,347c-35.62-3.84-71.3-7.32-106.86-11.51c-33.69-3.95-67.18-7.44-101.42-4.65
	c-2.11,0.2-4.17,0.26-6.27,0.23c4.16,2.61,13.58,0.61,19.35,1.93c0.55-1.68,2.02-1.36,2.05,0.16c0.79-0.69,0.66-2.17,1.83-2.49
	c1.6,3.01,9.37-0.43,11.4,2.81c3.74-2.15,8.91-0.23,12.74-0.99c0.91,2.22,7.08,2.26,10.08,2.32c0.06,0.85-0.93,0.86-1,1.67
	c2.24-0.15,1.25,1.3,2.49,1.61c3.86,0.99,4.28-0.97,6.75,0.1c-0.65-0.47-0.18-2.56,0.4-1.28c-0.51,2.98,5.9,4.01,9.9,3.61
	c-0.73,1.76,2.51-0.27,3.31,1.23c-0.27,1.33-1.84,1.5-3.07,1.95c-0.25-0.55-0.59-1.05-1.11-1.47c-2.84,0.53-4.5,1.95-7.38,2.38
	c1.83,0.15,4.11,0.1,3.98,1.26c-6.33-0.62-7.7-1.21-13.68-1.77c0.09,1.39-2.09,0.96-2.4,1.98c-2.4-0.44-3.07-1.67-5.2-2.24
	c-2.88,1.87-9.75-0.16-14.25,1.79c-2.7-0.86-6.06-3.16-7.58-0.71c-2.19,0.01-1.61-1.35-3.26-1.59c-1.44,0.22-0.22,2.41-1.83,2.49
	c0-1.21-1.99-0.74-3.15-2.08c-1.44,1.43-5.05,1.21-6.1,3.01c1.95,0.65,6.91,1.9,4.35,3.51c-3.17-5.26-14.25-4.7-16.67-0.63
	c-2.45-0.31,1.7-1.33-0.49-1.32c-2.12,0.42-3.89,1.12-4.05,3.17c0.94,0.12,1.83,0.15,2.76,0.27c-0.11,4.34-4.67,3.01-8.88,3.18
	c1.97,3.83,7.8,2.15,14.33,2.24c0.84,1.6-0.27,1.33-1.68,2.09c4.43,2.7,11.86-1.47,15.71,2.38c-1.75,0.03-3.86,0.22-6.38,0.72
	c12.32,0.74,18.3,0.1,30.51,1.56c-0.07-0.63-1.04-0.84-1.11-1.47c2.85,0.46,3.46,2.04,6.58,2.38c0.2-0.53,0.09-1.25,0.89-1.18
	c0.11,0.72,1.42,0.45,2.05,0.16c0.35,1.49-2.34,0.41-2.38,1.53c3.99,2.24,9.42,0.64,14.89,2.76c1.43-1.2,4.68-0.82,6.54-1.56
	c0.6,2.03-1.17,2.73,1.48,3.72c1.68-1.87,5.09-3.54,0.9-5.25c1.16,0.13,0.58-1.14,1.56-1.15c-0.62,2.26,3.82,2.1,7.3,2.49
	c-0.87,1.94,4.12,2.52,4.7,1.37c0.46,1,1.46,1.75,3.88,1.75c3.02-2.04-1.44-2.42-1.5-3.27c1.86,0.47,5.59-0.03,6.09,1.06
	c-4.21,0.17,3.32,1.01-0.45,2.62c-1.43,0-0.37-1.04-2.49-1.61c-0.68,1.63,0.54,2.39,2.32,2.9c2.51-0.27,2.97-3.12,3.39-3.64
	c1.58,0.82,4.9-0.59,6.75,1.53c-3.21-1.5-8.28-0.07-6.65,2.05c2.81,0.37,1.22-1.66,2.38-1.53c1.28,0.63,6.2,2.01,5-0.86
	c2.83,0.9,2.3,1.92,0.92,3.21c3.2,0.52,3.09-1.19,1.68-2.09c1.86,0.47,1.55-0.71,2.89-0.66c1.29,1.39-1.56,2.36-0.61,3.47
	c1.43,0.01,1.6-1.06,2.38-1.53c2.44,0.53,3.2,1.95,6.64,2.02c1.89-2.84,4.37,0.42,7.36-1.94c-0.26,1.11-1.52,1.24,0.38,1.8
	c1.43,0,0.95-1.53,2.38-1.53c-0.26,1.11-0.47,2.09,0.95,2.32c0.1-0.26,0.2-0.53,0.73-0.33c0.02-0.67-1.68-0.55-1.11-1.47
	c6.57,1.62,9.05,2.24,12.62,1.15l-4.54,3.29c-1.42-0.45-3.51-0.7-3.92-0.41c0.29,0.64,2.04,0.61,3.15,0.87l-1.15,0.85
	c-0.41,0.08-0.59,0.16-0.6,0.38l-1.56,1.15c-5.72-0.24-6.3-0.31-12.8-1.3c-0.53,1.01,1.36,2.02,0.22,2.65
	c-0.81-2.49-5.82,0.02-9.13-0.01c1.07,0.17,2.55,0.04,2.66,0.76c-1.21,1.21-1.91-0.33-2.94,1.02c1.07,0.17,0.02,0.76-0.83,0.82
	c-0.89-1.46-0.25-1.75-0.93-2.76c-6.03-0.21-15.35,0.09-18.17,4.02c3.04-1.06,5.41,1.49,9.13,0.01c-0.44,0.97,1.13,1.02,0.37,2.25
	c-4.35,0.34-7.25,0.02-12.02,0.65c0.65,0.69,0.54,1.18-0.85,1.27c-0.03-0.54-0.05-1.08-1.22-0.98c0.65,0.69,0.54,1.18-0.85,1.27
	c0.48-0.88-2.89-1.76-3.33-0.79c4.05,0.68,0.17,2.78,2.86,3.86c3.21,0.29,2.19-2.43,3.76-1.39c-0.99,0.23,0.4,1.36-1.67,1.64
	c1.02,0.3,3.46,2.05,4.71,0.93c-1.26-1.07,0.13-2.37,1.83-2.49c-1.79,1.37-1.03,2.56-0.61,3.47c3.17,0.2,6.99,1.09,7.76-0.58
	c-0.84-0.39-1.13-1.02-1.1-1.92c2.56-0.4,0.17,1.57,1.78,1.49c0.98,0.21,2.55,0.04,2.62,0.67c-1.55,0.93-2.78-1.04-3.6,0.55
	c2.47-0.14,2.52,0.94,4.71,0.92c0.05-1.34,1.74-1.24,1.83-2.49c-2.15,0.1-0.48-1.76-0.38-1.8c-0.25,0.66,4.85,0.75,1.78,1.49
	c0.01-0.45-1.09-0.71-1.38-0.14c1.16,0.13,0.14,1.26,1.11,1.47c1.13-0.41,2.96-0.26,3.61-0.99c0.11-0.71-1.86-0.47-1.93-1.1
	c0.97-0.77,2.58,0.36,3.99,1.03l-4.96,3.59c-0.08-0.18-0.22-0.23-0.48-0.33c-1.8,0.39-2.68-1.52-3.43-0.3
	c-0.07,0.8,2.22,0.52,1.87,1.45c-2.09-0.25-2.19,1.22-4.98,0.41c-0.81-2.49-10.92-3.92-9.63-0.87c-2.82-1.13-4.66-1.06-1.66-2.43
	c-2.57,0.63-6.57-0.18-6.18-1.24c-0.42,0.52-2.19,0.01-2.22,0.91c0.32,0.95,4.11,0.1,3.16,1.63c-0.31,1.24-4.67-0.83-4.98,0.41
	c1.79,0.06,0.25,1.75,2.49,1.61c-1.43-1.44,1.26-1.34,2.89-0.66c-1.18-0.89,0.19-1.51,2.23-1.13c-2.15,1.31-1.36,1.83,0.93,2.76
	c-4.11-0.32-8.24,0.03-11.85-0.19c1.39-0.09-2.15-1.1-1.77-1.94c-5.11-1.07-6.65,0.84-11.85-0.19c1.81,0.82-1.54,1.69,0.37,2.25
	c0.05-1.34,5.49-0.75,5.65-0.39c-0.85,0.06-0.46,0.43-0.16,0.85c-6.38-1.92-8.3,3.24-1.85,2.93c0.07-0.8,0.36-1.37,1-1.66
	c1.37,0.36,4.93-0.28,3.98,1.26c-5.28-1.21-2.13,2.07-6.1,3.01c-0.79-0.3,0.47-1.86-1.66-2.43c-1.65,0.97,0.18,2.56-1.27,3
	c-2.43-0.76-0.87-1.91-1.6-2.79c-2.64,0-4.96,1.17-1.73,2c-1.65-0.24-2.86-0.01-3.6,0.55c0.93,0.12,0.51,0.87,1.22,0.98
	c6.34,0.4,10.77,0.46,15.2,0.31c-0.68,0.2-0.92,0.64-0.02,0.67c1.88,0.02,3.32-0.2,4.33-0.88c-0.51,1.77,0.14,1.03,1.93,1.1
	c0.06,0.85-0.93,0.86-1,1.67c4.33,0.33,7.54,1.83,9.69,0.52c-2.05-1.37,1.04-2.78,2-3.33c-4.41-1.94-11.41,0.05-14.51-0.95
	c1.42-0.98,4.63-0.46,5.83-1.68c-5.13-0.4-6.96,1.86-10.08,1.75c0.57-2.35,3.76-2.6,6.16-3.36c1.43-2.41-5.69-1.14-7.03-3.83
	c3.56,0.57,7.33,1.6,9.9,3.61c2.71-2.01,5.33-1.34,9.42-1.77c-1.89,1.63-1.8,0.16-1.12,2.6c-1.67,0.43-2.37-1.34-2.76-0.27
	c0.41,1.13,3.32,1.01,3.82,2.1c1.59-0.62,2.18-0.78,4.16-0.03c-0.17,1.07-4.3,1.42-1.85,2.93c1.9-0.65,1.8-0.39,2.19-0.01l-8.95,6.4
	c-0.89-0.03-1.65-0.01-2.07,0.29c-0.24,0.44,0.11,0.72,0.42,0.91l-2.07,1.49c-1.24-0.31-2.94-0.42-3.45-1.06
	c1.37-0.85,4.1-0.66,4.6-2.21c-2.65,0.44-1.37,0.85-2.62-0.67c-0.63,1.28-3.94,1.25-1.16,2.51c-1.83-0.15-4.01-0.59-4.27,0.52
	c1.46,0.54,2.51,1.16,4.65,1.28c-0.88,0.73-0.94,1.31-0.55,1.68l-0.92,0.64c-0.57-0.29-1.04-0.84-1.48-1.3
	c1.48-0.13,1.63-0.53,0.85-1.27c-1.54,0.48-2.3-0.71-3.6,0.54c0.02-0.67,0.5-1.55-0.38-1.8c-0.81,0.15-1.62,0.3-2.22,0.68
	c1.05,2.05,3.11,3.2,5.82,3.83l-1.97,1.45c-0.67-0.02-1.75,0.25-1.94,0.33c0.84-1.04,0.35-0.93,1.12-2.6
	c-3.15,0.56-4.69-1.6-4.93-3.57c-0.88,0.73-2.02,1.36-2.5,2.46c-4.08,0.22-2.29-2.36-6.64-2.02c0.96-0.55,0.91-1.85,3.05-1.51
	c-2.53-1.92-4.4,3.11-7.2,1.09c1.93-1.54,7.76-4.43,11.34-0.68c2.12-0.42,3.54-1.4,4.61-2.66c-4.61,1.23-10.83-1.32-10.57-3.64
	c-1.83,1.06-3.74,1.93-6.65,2.05c1.54-1.69,4.64-2.12,7.48-2.87c-0.14-1.03-3.24-0.61-1.4,0.31c-2.1-0.03-3.31-1.46-4.16,0.03
	c-0.85-0.16-0.51-0.87-0.53-1.41c-2.11,0.19-2.2,0.24-4.15-0.41c-0.37,1.6,0.67,2.66,2.21,3.39c-2.55-0.04-4.53,0.2-7.2,1.09
	c-1.81-0.6,1.16-1.08-0.38-1.8c-2.09-0.25-2.89,0.66-4.33,0.88c2.2,0.97,5.14,2.82,6.76,1.09c1.65,0.24,2.26,2.05,3.44,0.3
	c0.02,1.97,6.31,1.29,4.26,3.55c-1.96-0.2,1.83-1.06-1.22-0.98c0.35,1.49-1.3,1.25-1.73,2c-3.64-0.98-8.73-1.07-11.91,0.17
	c-0.84-0.16-0.41-0.91-0.53-1.4c-7.45,0.55-11.82-1.08-17,1.06c-1.15,2.06,2.35,1.78,2.99,2.92c2.53-0.72-1.6-1.58-2.48-2.06
	c2.11-1.4,6.19,2.01,5.81-1.23c1.65,0.01,1.4,0.9,3.33,0.79c1.78,0.29-1.01,0.68-0.29,1.78c2.51-1.26,3.46-1.58,7.76-0.58
	c-0.54,1.23-2.29,1.49-3.78,1.84c1.32,0.72,4.5,1.9,5.53,0.55c1.42,0.23-1.16,1.08,0.39,1.8c2.48-0.58,5.06-0.23,7.93-1.42
	c1.86,0.69-2.31,0.72-1.73,2c0.51,0.87,1.5-2.01,4.33-0.88c-0.16-0.59-1.14-0.8-1.11-1.47c1.02-1.13,2.02,2.26,4,0.81
	c-1.05-2.05-3.22-2.71-5.75-3.2c2.31-0.73,3.78,0.58,6.93,0.24c-0.72,1.32-2.62,1.97,0.49,1.31c-0.04,1.12-0.25,2.1-1.68,2.09
	c3.28-0.29,6.2,2.01,9.63,0.87c-0.87-1.91-5.55,0.12-6.64-2.02c0.62-1.05,3.21,0.29,3.33,0.79c0.62,0.16,0.72-0.11,0.82-0.37
	c-0.07-0.4,0.37-0.39,0.73-0.33c-0.91-0.79-2.87-0.99-4.7-1.37c0.04-1.12,1.3-1.25,1.73-2c0.6,2.04,3.85,2.64,7.13,3.34
	c0,1.21-3.78-0.8-2.94,1.02c1.9,0.56,1.89-0.43,3.45-0.15c-0.39,0.84-2.69,0.13-2.38,1.53c1.9,0.56,1.9-0.43,3.49-0.06
	c-0.32-0.95-1.49-2.07-0.22-2.65c1.74,0.2,1.15,1.56,0.93,2.76c0.85-0.06,1.25,0.09,1.65,0.24l-6.56,4.65
	c-2.57-0.58-6.03,1-8.44-0.43c1.19,1.88,4.84,1.2,7.71,0.98l-2.48,1.79c-1.29-0.18-2.86-0.23-4.24-0.37
	c0.87,0.7,1.75,1.18,2.77,1.48l-4.96,3.59c-1.15-0.35-1.94-0.87-1.73-1.85c-1.62,1.51-1.19-0.44-4.15-0.41
	c-0.11,0.49-0.65,0.51-0.83,0.82c-0.16,0.85,3.25,1.81,1.04,2.27c-0.18-1.13-4.51-0.25-3.88-1.75c1.06,0.39,3.15-0.56,1.55-0.71
	c-2.53-0.71-3.53,2.38-5.65,0.38c0.76-0.02,1.72-0.57,0.83-0.82c-3.66,1.13-5.59,0.03-9.09,0.09c1.76,0.73,4.71,0.92,5.2,2.24
	c-3.02-0.6-4.74-0.26-5.71,0.74c-0.3-1.62,2.13-2.07-0.22-2.65c-0.44,1.19-3.28,0.29-4.2,1.15c0.85-1.27-2.02-2.26-0.45-2.43
	c1.68,1.76,0.62-1.05,1.55-0.71c-0.47,0.65,3.59,1.11,3.43,0.3c-1.75,0.03-4.79-1.33-3.16-1.63c-0.08,1.03,2.23,0.3,2.11-0.2
	c-1.26-1.07-1.97,0.02-4.15-0.41c-0.51-0.87,2.28-1.26,0.29-1.78c-4.07-0.01-7.42,1.08-12.56-0.3c2.15,1.33-3.85,1.43-1.83,2.49
	c1.94-0.56,5.89-0.82,6.76,1.09c-3.33-0.79-9.21-1.4-11.85-0.19c4.22,0.82,5.22,0.58,8.42-0.11c-0.57,2.35,0.66,2.89,1.15,5.41
	c-2.24,0.15-4.73-1.69-3.88-1.75c1.8-0.38,1.86,1.9,2.71,0.63c-0.14-1.26-1.09-2.14-3.13-2.53c-1.79,1.37-2.96,0.03-5.65,0.39
	c0.83,1.82-1.95,0.78-2.38,1.53c1.18,0.89,1.74,0.19,3.43,0.3c-1.08,2.69-2.72-0.18-4.82-0.44c-0.21,0.75-0.05,1.34,0.39,1.8
	c-1.29-0.18-2.22-0.52-2.6-1.12c3.14-0.34,0.09-3.89-3.55-3.43c-1.2,0.99-1.55,0.71-1.01,2.11c-1.34-0.05-1.41-0.68-2.62-0.67
	c-0.05,1.57-2.89,0.88-3.21,2.35c-2.53-0.71-3.3-0.25-3.88-1.75c0.85-1.27,2.59,0.14,2.89-0.66c-0.07-0.63-3.16-1.85-4-0.81
	c-0.06,0.36-0.02,0.67,0.1,0.94c0.29,0.64,0.58,1.27,0.92,2c0.18-0.08,0.4-0.08,0.63-0.07c-0.14,0.17-0.28,0.35-0.42,0.52
	c4.82,10.55,9.69,21.19,14.47,31.65c0.5-0.12,1.08-0.28,1.63-0.52c0.38,1.8,2.69,1.08,3.88,1.75c1.13-0.18,0.21-2.19,2.38-1.53
	c-0.05,0.13-0.06,0.36-0.02,0.45l-5.78,4.18l-0.13-0.05c6.36,13.92,12.68,27.74,19,41.56c15.65-2.1,29.58-5.06,43.55-5.51
	c36.28-0.97,72.61-0.87,108.96-1.21c18.58-0.25,19.45-0.98,15.29-18.75c-9.68-40.65-1.89-80.61,3.76-120.69
	c0.58-3.78,2.55-7.65,4.85-10.79c1.18-1.75,4.68-3.24,6.54-2.77c1.77,0.51,3.63,3.62,3.96,5.78c0.48,4.18-0.11,8.41-0.22,12.75
	c-0.21,21.43-0.55,42.81-0.45,64.2c0.03,4.16,1.76,8.43,2.67,12.09c-0.09-19.2-0.44-38.72-0.03-58.26
	c0.29-13.33,0.58-26.87,10.71-38.87C282.38,348.08,278.96,347.34,275.62,347z"/>
<path fill="#FFB800" d="M98.1,426.73c-2.48,0.58,1.94,3.29,1.95,0.65C99.15,427.35,98.12,427.26,98.1,426.73z"/>
<path fill="#FFB800" d="M100.25,430.47c1.6-0.84,1.95,0.43,4.15,0.41c0.23-1.42-2.63-1.43-3.13-2.53
	C99.76,428.93,101.67,429.49,100.25,430.47z"/>
<path fill="#FFB800" d="M68.3,425.29c1.89-0.2-1.25-1.52-2.04-0.61c-0.35,0.93-0.1,1.7,1.1,1.92c-0.83,0.6-2.04,0.82-2.78,0.17
	c0.02-0.67,0.09-1.25,0.85-1.27c0.04-1.12-6.46,0.54-2.89,0.66c-0.57,0.92-3.66-0.31-2.49-1.61c-0.59,0.16-1.18,0.32-2.2,0.24
	c-0.58,2.57,1,0.97,0.77,3.61c3.39,0.43,6.19-0.41,9.92-0.91C68.87,426.78,66.72,424.25,68.3,425.29z"/>
<path fill="#FFB800" d="M91.3,417.63c0.93,0.12,1.83,0.15,2.76,0.28c-1.13-1.02,0.13-1.16,0.34-2.14
	C92.27,415.43,91.83,416.62,91.3,417.63z"/>
<path fill="#FFB800" d="M77.42,412.76c-1.56-0.28-2.63-0.23-3.49,0.06c-0.24,1.65,2.67,0.32,2.6,1.12
	C77.33,414.01,77.22,413.29,77.42,412.76z"/>
<path fill="#FFB800" d="M59.86,331.06c-3.44-0.07-6.93-0.24-10.4-0.63c-0.09,0.04-0.18,0.08-0.14,0.17
	C51.68,331.94,57.4,332.41,59.86,331.06z"/>
<path fill="#FFB800" d="M49.49,428.39c0.04,0.09,0.08,0.18,0.12,0.27c-0.04-0.09,0.01-0.22,0.01-0.22S49.58,428.35,49.49,428.39z"/>
<path fill="#FFB800" d="M72.27,426.99c-1.81-0.6,1.16-1.08-0.39-1.8c-1.44,0.22-2.05,1.05-2.4,1.98c1.61,0.15,3.21,0.29,4.82,0.44
	C75.5,426.61,72.07,426.09,72.27,426.99z"/>
<path fill="#FFB800" d="M60.46,430.74c0.34-0.7-0.51-0.87-0.49-1.32c-1.86-0.47-1.55,0.71-2.89,0.66
	C56.82,430.97,59.44,430.44,60.46,430.74z"/>
<path fill="#FFB800" d="M171.9,375.06c-0.06,0.36-0.16,0.84-0.27,1.33c1.43,0.01,2.14,0.34,1.93,1.1c1.37,0.36,1.93-0.11,2.78-0.17
	c-0.03-0.54-1.19-0.45-1.95-0.65C173.11,376.27,174.73,374.54,171.9,375.06z"/>
<path fill="#FFB800" d="M148.44,368.74c-2.24,0.15-5.74-0.78-6.38,0.72c5.87-0.15,3.93,1.61,6.59,2.38
	C149.19,370.6,147.68,370.19,148.44,368.74z"/>
<path fill="#FFB800" d="M138.81,367.87c-1.79-0.06-1.26,1.57-3.05,1.5C136.87,370.84,140.74,368.97,138.81,367.87z"/>
<path fill="#FFB800" d="M125.98,398.25c-4.29,1.19-2.16,1.54-6.67,2.5C123.19,401.29,126.33,401.17,125.98,398.25z"/>
<path fill="#FFB800" d="M176.11,374.9c-0.13,1.16,2.15,1.11,3.98,1.26c-0.6,0.38-1.41,0.53-2.22,0.68c1.6,1.58,3.17-1.01,6.21,0.13
	c-0.89-1.46,2.07-0.29,4.16-0.03c1.63-0.53-0.63-1.14,0.94-1.31c0.54-1.23-3.85,0-3.31-1.23c-1.86-0.47-1.55,0.71-2.93,0.57
	c-1.51-0.41,0.92-0.64-0.4-1.36c-0.59,0.16-1.18,0.32-2.11,0.2c0.43,0.46,0.59,1.05,0.38,1.8
	C178.27,374.57,180.07,374.18,176.11,374.9z"/>
<path fill="#FFB800" d="M195.97,377.69c-0.86-1.15-2.03-2.26-3.7-3.04c-2.42,0-0.68,1.63-0.45,2.62
	C193.2,377.42,194.59,377.55,195.97,377.69z"/>
<path fill="#FFB800" d="M117.34,412.54c-0.94-0.12-1.83-0.15-2.76-0.27C113.67,413.89,117.59,414.29,117.34,412.54z"/>
<path fill="#FFB800" d="M89.31,400.06c3.16,0.42,3.24,0.83,6.2,0.57C94.06,400.09,89.76,397.66,89.31,400.06z"/>
<path fill="#FFB800" d="M107.72,411.22c-0.13,1.16,2.15,1.1,3.98,1.26C112.65,410.95,109.1,411.58,107.72,411.22z"/>
<path fill="#FFB800" d="M102.59,400.48c-1.61-1.35-5.87-1.05-9.36-2.21c0.36,1.27,4.59,0.65,3.8,2.55
	C98.52,400.47,101.14,400.92,102.59,400.48z"/>
<path fill="#FFB800" d="M139.73,411.98c-2.72-1.62-2.13,0.87-3.76,1.39c0.27,1.08,1.3-1.25,3.49-0.06
	C139.17,412.9,138.66,412.03,139.73,411.98z"/>
<path fill="#FFB800" d="M105.85,405.7c1.78,1.49,3.73,0.71,7.42,1.56C113,404.74,109.18,406.48,105.85,405.7z"/>
<path fill="#00FF8D" d="M672.08,132.86c1.77-3.34,3.64-4.3,3.68-6.63C674.22,129.13,670.44,130.97,672.08,132.86z"/>
<path fill="#00FF8D" d="M678.78,115.06c2.13-2.07,1.87-2.4,3.62-5.06C680.17,108.71,679.24,113.64,678.78,115.06z"/>
<path fill="#00FF8D" d="M625.59,126.41c-0.43,2.18,3.52,0.48,3.13-1.32C627.69,126.44,626.67,124.92,625.59,126.41z"/>
<path fill="#00FF8D" d="M678.45,111.69c-1.38,3.49-4.43,6.42-4.46,8.53c1.28-0.81,2.7-2.99,3.99-4.02
	C676.04,115.55,679.27,112.75,678.45,111.69z"/>
<path fill="#00FF8D" d="M656.96,136.59c1.98,2.17,4.12-0.13,6.25-3.41C659.53,135.96,660.63,134.03,656.96,136.59z"/>
<path fill="#00FF8D" d="M702.12,106.7c-0.78,0.46-1.56,1.15-2.33,2.6c0.53,0.2,1,0.75,1.61,0.14
	C700.61,108.93,703.52,107.6,702.12,106.7z"/>
<path fill="#00FF8D" d="M713.05,116.66c0.94-1.31,1.88-2.62,2.82-3.93c-1.02-0.3-2.04-0.38-3.06,0.52
	c-0.46,1.64,1.85-0.29,1.11,1.47C713.28,114.03,711.52,116.92,713.05,116.66z"/>
<path fill="#00FF8D" d="M698.5,111.77c-1.1,2.15-2.12,1.85-3.17,3.65c0.67,1.23,1.15,1.56,2.63,1.66c0.66-0.96,1.36-1.83,2.02-2.79
	C699.42,113.54,699.92,112.22,698.5,111.77z"/>
<path fill="#00FF8D" d="M724.49,108.24c0.34-0.93,2.55-2.6,1.67-3.07c-0.8,1.14-1.52,0.04-2.39,1.75
	C724.25,107.25,723.73,108.04,724.49,108.24z"/>
<path fill="#00FF8D" d="M622.24,136.4c1.16-2.51-1.49-2.29,2.51-6.54c-1.51-0.41-3.14,2.75-4.72,4.36
	C621.63,134.59,620.82,135.95,622.24,136.4z"/>
<path fill="#00FF8D" d="M741.59,141.32c-0.04-0.09-9.15,18.48-9.37,18.47c0.49-1.1,9.99-19.74,10.43-19.51
	c-5.16-11.05-10.29-22.02-15.54-33.03c-0.5,0.34-1.09,0.5-1.57,0.17c-0.75,1-0.41,1.51-1.2,2.42c-0.71-1.32-0.82-0.83-2.26-0.62
	c-2.72,2.46-2.09,7.22,0.18,4.97c0.2,0.68-0.14,1.61-0.85,2.7c-0.07-0.63-0.41-1.13-1.11-1.47c-1.18,1.75-0.08,4.88-2.82,3.93
	c1.03-1.35,1.93-1.32,2.02-2.79c-0.89-0.26-1.92,2.53-2.71,0.8c-2.03,1.81-1.78,3.56-3.99,4.02c-0.96,1.76-1.05,3.01-0.14,4.02
	c1.51,0.19-0.31-1.4,1.29-2.46c0.6-0.6,0.27,2.52-1.22,4.08c-1.59-2.02-1.18-3.31-3.34-4.41c2.62-1.97,3.44-2.57,5.59-6.29
	c-2.64,1.21-6.03,6.06-7.61,9.09c-0.78-1.95,2-4.76,3.6-5.83c0.53-2.22-3.48,2.25-3.08-0.24c-2.32,4.8-5.28,6.48-7.99,9.7
	c-0.91,1.85,1.21,0,1.53,0.95c-1.1,1.93-2.43,1.66-2.4,3.41c0.34,0.5,2.49-0.81,1.53-1.47c1.29-1.03,0.33,2.16-0.84,3.46
	c0.42,0.69,2.82-2.72,2.02-2.79c0.39-0.84,1.68,1.76,1.55-0.71c1.16-1.08,0.03,1.75,1.54,1.93c-1.22,0.23-2.43,2.87-3.62,2.42
	c-1.1,2.15,0.83,0.61,1.86,1.9c-1.39,0.09-2.86,1.2-4.29,3.83c-0.72-1.32,1.11-3.59,1.71-5.4c-2.33,2.6-2.76,4.78-6.01,6.82
	c-0.39,0.84,0.66,0.47,1.17-0.09c0.12,2.91-2.88,1.65-3.99,4.02c-0.94,1.31,1.19,0.44,1.55-0.71c1.46,0.54-1.95,3.2-1.22,4.07
	c-1.88,1.41-0.43-1.89-1.04-2.27c-0.36-0.06-0.73,0.33-1.17,0.09c-1.96,2.21-0.15,3.04-2.4,3.41c1.01,0.53,0.8,1.5,0.27,2.51
	l-5.96,1.4c0.39-0.84,0.69-1.86,0.69-3.06c-0.71,1.09-1.78,2.35-2.49,3.45l-2.98,0.7c2.04-2.03,4.94-4.35,4.3-6.47
	c-0.5,2.76-3.96,4.34-5.2,6.66l-7.81,1.92c0.15-0.4,0.39-0.84,0.9-1.4c-1.05-0.62-2.47-1.07-1.48-2.51c1.27-0.58,1.35,1.03,1.86,1.9
	c0.77-1.45,1.51-0.8,2.33-2.6c-0.9-1.24-1.87,0.96-2.71,0.8c0.77-1.45,1.59-0.84,2.37-2.51c-0.83-1.82-1.87,2.4-2.69,1.56
	c1.62-2.94,3.29-5.79,2.14-7.58c0.84,0.16,1.81-0.61,2.64,0c-0.95,1.53-2.04,3.24-2.03,4.45c0.28-0.35,0.56-0.7,0.73-0.33
	c0.27,0.1,0.53,0.2,0.82-0.37c-0.3-0.41,0.47-3.29,1.58-3.03c0.91,2.22-3.73,4.35-2.82,6.35c3.11-1.86,3.19-5.53,5.64-7.86
	c-0.89,1.18-1.81,0.61-2.68-0.09c2.53-1.93,0.66-0.96-0.67-1.23c2.31-2.16,2.38-4.17,4.35-5.4c-1.29,2.24-2.12,4.27-1.34,6.44
	c2.48-0.59,0.57-3.56,2-3.55c0.43,0.46-0.05,1.34,0.38,1.8c0.99-2.87,3.86-1.66,3.49-2.7c-0.62-1.36-3.33,1.85-2.64,0
	c2.78-1.38,4.24-3.48,6.26-5.06c0.46-1.64-1.87-0.24-1.11-1.47c1.61,0.14,2.92-2.99,3.2-4.54c-1.33,0.94-2.62,1.97-3.86,1.65
	c2.06-3.91,2.93-4.42,5.52-5.49c-0.36-1.26-2.48,0.59-1.53-0.95c1.44-1.43,0.51-1.77,1.58-3.03c2.2,2.4,2.29-2.92,4.73-3.59
	c-0.26,0.89-2.31,4.57-0.07,3.22c-0.45-1.22,2.01-3.78-0.26-4.17c-4.92,2.47-6.64,6.88-11.92,12.16c0.39,0.37,1.14,0.58,0.71,1.32
	c-3.01,1.6-6.28,5.51-7.92,8.9c-0.89-0.25-1.88,1.19-2.64,0c-2.05,2.26,1.08-0.05-0.05,1.56c-3.05,0.07,1.62-4.15,0.1-5.54
	c2.05,0.16,1.12-1.39,2.02-2.79c2.33-0.19,2.86-3.61,3.6-5.83c-1.2,0.99-2.32,0.95-3.49,2.7c-0.46,1.64,1.85-0.29,1.11,1.47
	c-2.42,1.44-3.81,2.73-5.53,4.73c0.46-1.64,0.37-3.03-1.12-3.89c-0.82,1.81-0.87,1.94-2.4,3.41c0.39,0.37,1.14,0.58,0.71,1.32
	c-1.78-0.29-1.4,1.52-2.75,3.13c0.47-1.86-1.84,0.07-1.15,0.85c2.43-1.66,4.78-3.73,7.07-3.78c-2,2.12-3.91,3-5.9,3.69
	c2.01,1.28-0.22,7.69-4.17,10.37c1.7,0.1,3.42-0.46,5.03-1.75c-0.49-5.16,5.5-7.68,7.93-8.14c-0.3,3.43-5.33,1.56-5.53,4.73
	c1.14-1.84,2.09-0.96,3.13-1.32c-3.11,3.07-0.08,3.44-2.82,6.35c-1.15-0.35-2.38,0.1-3.5,0.28c1.24,1.52,1.91,4.18-0.53,6.07
	c1.77,0.51,1.36,0.81,2.7,0.85c-0.23,0.21-1.1,0.72-1.52,1.24l-2.39,0.54c1.29-2.46,1.78-4.77,0.91-6.9
	c-0.68,0.2-1.32,0.72-1.97,1.23c-0.39,0.84,0.59,1.05,1.11,1.47c-1.79,0.16-1.4,1.52-2.77,2.37c0.1,0.94,0.54,1.18,1.52,0.19
	c0.07,0.63,0.04,1.3,0.02,1.97l-1.08,0.28c-0.03-0.54-0.41-0.91-1.63-0.68c1.31-1.7,1.4-2.95,2.08-4.36
	c-1.01-0.53-2.11,1.4-3.19,2.89c0.86-2.92-1.32-0.49-2.66-0.76c0.24,1.98,0.78,0.74-1.2,2.42c1.54,0.73,3.14-1.55,4.68-2.03
	c0.15,0.81-0.88,2.16-1.46,3.3l-2.48,0.59c0.06-0.36-0.02-0.76-0.42-0.91c-0.5,0.12-1.01,0.68-1.57,1.38l-10.7,2.58
	c-0.07-0.63-0.2-0.68,1.45-1.65c0.37-2.81-2.51,0.05-3.43-0.52c0.74-1.99,1.24-2.33,2.75-3.13c-0.59-1.05,1.41-3.17,0.91-4.26
	c-1.1-0.49-0.18,1.29-1.6,2.27c-1.4-2.11-0.23-1.22-2.7-0.85c3.01-2.8,4.16-5.09,7.5-5.96c0.16-3.26,1.85-6.78,3.74-9.85
	c1.11,2.68-4.59,7.27-1.7,7.82c2.19-1.22,4.46-3.47,6.57-2.46c-1.96,2.44-4.83,2.43-7.92,6.48c1.71-0.12,3.41-2.88,5.08-3.31
	c-1.27,3-7.4,6.9-8.77,11.6c1.08-0.28,4.18-1.69,3.83,0.67c2.49-0.81,3.46-4.22,5.95-7.67c-0.66-0.47-1.35,0.18-1.91-0.33
	c1.12-1.39,2.11-1.4,0.43-2.18c1.17-0.32,2.32-1.17,3.49-2.7c0.52-0.79,0.07-0.8-0.52-0.42c2.93-3.21,5.87-6.64,9.71-11.7
	c0.34-0.7-0.51-0.87,0.05-1.56c-0.94,0.1-1.78,0.92-2.77,2.36c1.4-2.95-0.96-2.09-2.64,0c0.18,1.13,2.08,0.7,1.06,3.04
	c-1.28,0.8-1.2-1.65-3.1-1c-1.05,2.02,1.05,2.05,0.75,2.85c-3.31,2.39-3.69-2.05-6.27,2.65c-1.78-0.29,1.03-2.56,1.66-3.84
	c0.68-0.2,1.3-0.04,1.91,0.34c4.46-4.68-0.8-6.56-3.43-0.52c-0.12-0.5-0.18-1.13-0.74-0.43c-0.26-0.32,2.94-4.87,3.99-4.02
	c0.73-1.76-2.02,0.15-1.46-1.75c-2.53,4.57-4.99,4.48-7.61,9.09c0.93,0.35-0.66,3.6,0.31,2.61c-2.2,2.88-5.17,5.77-7.61,9.09
	c0.8-2.34,0.92-3.28-1.48-2.51c1.1-1.93,2.41-2.42,2.32-0.95c0.51-1.77,2.14-3.73,2.39-1.75c1.58-1.6-0.71-1.55,0.42-2.94
	c-1.14-0.58-2.42,4.08-3.57,3.5c-1.78-0.29,1.3-2.68,0.84-3.46c-0.74-0.65-1.42,0.98-2.14,1.09c1.06,0.39-0.85,3.91-3.1,5.49
	c2.87-1.42,1.7-0.12,0.75,2.85c-1.42-2.87-6.96,5.71-5.64,7.86c-1.25,2.55-2.39,1.75-3.57,3.5c-0.93-0.35,0.78-1.9,0.13-2.37
	c-1.42-0.23-0.55,1.68-2.02,2.79c-0.1,0.26-0.15,0.4-0.07,0.58l-5.96,1.4c0.41-1.51,0.61-3.47,1.83-3.69
	c0.43,0.46-1.05,1.8-0.43,2.18c1.03-0.14,2.16-1.53,3.11-2.08c0.48-0.88-0.95-0.88-0.38-1.8c-0.62-0.16-1.15,0.85-0.8,1.14
	c-2.48,1.79,0.79-2.12,0.04-2.33c0.09-0.04,2.64,0,1.11,1.47c1.04,0.84,2.03-0.6,3.08,0.24c1.45-1.65,0.76-2.43,2.38-4.17
	c-1.64-0.46-1.05,1.8-2.77,2.36c-0.43-0.46,0.68-1.63,1.2-2.42c1.07-1.26-1.99-0.74,0.04-2.33c0.65,0.47,0.99,1.2,0.73,2.08
	c1.77,0.51,3.68-3,5.52-5.49c-0.42-0.91-0.86-2.36-3.02-1.81c1.21-1.21,3.09-1.41,3.08,0.24c1.75-0.25,1.95-3.2,2.38-4.17
	c-1.57,1.38-1.51-0.41-2.33,0.19c0.29-1.78,1.67,0.77,3.51-1.94c0.95-2.74-3.18-1.18-1.04-4.69c-1.02-0.3-2.56,2.82-1.58,3.03
	c-1.07,1.04-1.46,0.89-1.51-0.19c-0.79,0.91-0.45,1.19-0.05,1.56c-1.07,1.04-1.46,0.89-1.52-0.19c-3.6,3.19-5.25,5.59-8.36,8.66
	c-1.38-0.14-0.4-1.36-1.46-1.75c3.6-1.75,3.18-5.3,5.97-6.91c-4.82-0.44-11.14,6.41-14.93,11.12c0.32,1.17,0.95,0.88,1.48,2.51
	c-0.6,0.6-1.74,1.01-1.17,0.09c-1.7-0.1-1.08,1.48-2.69,1.56c-0.43-0.46,0.68-1.63,1.16-2.51c-2.05,2.48-7.36,4.58-5.97,6.91
	c-1.22,0.45-0.79-1.73-1.86-1.9c-3.46,5.65-3.74,6-7.39,10.53l-1.89,0.43c-0.17-0.14-0.4-0.15-0.68,0.2l-1.4,0.31
	c0.53-1.01,1.78-2.36,1.4-2.95c-0.5,0.12-1.63,1.73-2.26,3.23l-5.46,1.29c3.16-1.99,4.4-4.32,7.39-10.3
	c1.07,0.17-0.23,1.42,0.38,1.8c0.29-0.57,0.55-0.47,0.73-0.33c0.85-1.27-0.07-1.84-1.13-2.23c0.93-1.09,1.78,0.29,2.71-0.8
	c0.82-1.81-0.1-0.94-1.11-1.47c3.74-0.72,2.89-4.73,6.28-4.3c2.19-2.65,1.75-4.1,2.82-6.35c0.86-0.28,1.78,0.29,2.71-0.8
	c-0.26-1.53-2.82,0.08-3.03-1.81c0.8-1.14,1.52-0.04,2.39-1.75c-0.19,1.51,0.93,2.76,2.68,0.09c-1.98,0.24-3-0.06-1.83-2.79
	c1.43,2.64,3.56-1.85,3.92-3.22c0.7-0.87,1.2,1.65,2.71-0.8c-0.54-2.61-4.89,0.37-5.9,3.69c-0.4-2.79,2.84-4.38,3.26-6.11
	c0.76-0.02,3.12,1.54,4.97-0.18c0.77-1.67,1-3.1-0.68-3.65c-0.96,1.98,0.52,1.85-0.41,2.94c-3.69,1.8,0.6-4.45-2.28-1.38
	c-0.41-1.13,2.41-3.63,3.18-5.3c0.6,0.6-2.12,4.27,1.5,3.27c1.58-1.82,1.76-3.12,1.22-4.07c1.24,0.31,4.07-3.84,2.03-4.45
	c2.02-2.79,5.04-6.04,2.89-7.15c0.65-0.74,1.33,0.49,1.9-0.43c-1.45,4.29,2.05,2.8,4.56,2.75c0.99-2.65-0.7-1.77-1.85-3.56
	c1.78-0.92,3.71-3.67,5.46-3.93c1.98-5.53,6.74-8.58,7.66-13.07c-0.91-0.79-1.82,2.04-2.71,0.8c0.64-0.29,1.65-1.19,1.22-1.66
	c0.56-0.7,1.07-0.05,1.47,0.1c1.79-2.58,0.99-4.08,2.51-6.54c0.34,0.5-0.14,1.38,0.38,1.8c6.98-10.23,11.28-14.28,18.78-24.09
	c-2.12,1.63-3.55,3.05-4.72,4.35c-0.35-5.34,7.67-8.24,8.48-13.44c-1.5,0.57-2.07,1.72-2.68-0.09c4.29-5.04,9.32-8.22,7.68-12.31
	c-2.88,3.08-4.87,7.39-8.22,4.64c0.52-0.79,1.08-1.48,1.6-2.27c-1.66-1.22-3.34-0.34-5.05,0.99c-1.4,1.74,2.08-0.73,0.67,1.23
	c-4.67-0.83-12.33,7.18-10.43,13.02c-2.94,1.02-0.59-3.69,0.2-5.59c-2.04-0.38-4.21,2.58-6.27,2.65c0.25,1.75-1.4,2.95-0.49,3.74
	c-1.11,1.17-1.97-1.19-3.08-0.24c-0.81,1.36,0.52,1.85-0.93,3.5c-2.85-0.46-3.3,3.6-4.42,6.2c-4.42,2.13-7.37,8.65-10.67,9.61
	c-0.96,1.98-0.47,3.29-1.71,5.4c-1.06-0.39-2.16,1.54-3.06,0.52c-3.48,4.89-4.03,6.35-7.61,11.5c-0.96-0.66,0.58-2.35,1.66-3.84
	c-2.26,1.8-4.41,2.13-6.63,4.02c-0.11,0.71,0.04,1.3,0.39,1.8c-1.14,0.63-2.39,1.75-3.48,1.04c-0.57-1.5,3.05-2.71,1.23-3.31
	c2.92-2.76,6.33-8.28,3.74-9.85c-0.62-1.36,1.31-0.27,1.23,0.53c0.76-2.66,2.61-1.74,4.34-5.17c0.67-1.18-1.16-1.34,0.42-2.94
	c-0.66-0.47-1.35,0.18-1.91-0.34c1.92-2.3,5.93-7,4.84-9.14c3.17-2.44,5.01-7.57,9.08-8.99c-1.17-3.75,6.52-7.38,5.33-10.46
	c1.01-0.68,2.04,0.38,3.08,0.24c-1.04-1.07-0.41-2.34,1.22-1.66c2.88-5.49,11.19-11.6,11.32-16.61c2.65-0.44,6.59-5.54,7.19-8.56
	c-0.5,0.12-0.99,0.23-1.61-0.15c3.23-7.85,9.43-11.35,8.22-17.61c-2.67,0.89-0.19,2.95-2.46,4.97c-0.54-6.24,8.45-13.76,12.31-20.69
	c-3.07-1.9-6.11,0.59-10.68,7.19c-21.83,33.29-42.9,67.55-67.06,99.6c-30.54,40.46-63.48,79.05-95.33,118.57
	c-8.84,10.97-17.6,22.12-27.7,34.65c10.98-1.72,16.76,4.43,23.08,9.35c28.18,22.19,56.18,44.47,84.4,66.53
	c5.97,4.64,12.51,8.36,18.81,12.51c4.07,2.65,7.6,1.47,10.71-1.82c16.2-16.75,32.79-33.13,48.43-50.4
	c28.8-31.75,57.1-64.15,85.64-96.22c2.56-2.82,5.16-5.55,7.93-8.14l0.09-0.04c1.02-0.9,1.99-1.9,3.01-2.8
	c0.37-0.39,0.78-0.69,1.24-0.9l7.89-6.8c-6.46-13.65,14.37-27.24-19.24-41.12L741.59,141.32z"/>
<path fill="#00FF8D" d="M716.69,112.35c2.78-2.59,5.29-4.07,7.18-6.91c-2.14-1.55,0.1-1.7-2.22-2.94c-0.52,0.79-1.02,1.13-1.62,1.51
	c1.66,0.01,0.61,3.02-0.42,2.94c2.24-2.79-3.26,1.05-2.39,1.75c0.51-0.56,1.08-0.27,1.51,0.19c-0.08,1.03-1.01,1.89-1.95,1.99
	c0.62-1.05,0.24-1.65-0.73-2.08c-1.21,0-2.26,3.23-0.87,1.94C715.38,108.77,715.85,111.97,716.69,112.35z"/>
<path fill="#00FF8D" d="M691.15,127.44c-0.93-0.12-3.81,0.32-3.51,1.94C688.84,128.39,689.93,129.1,691.15,127.44z"/>
<path fill="#00FF8D" d="M698.16,138.2c-1.71,0.34-0.89-1.46-2.26-0.61c0.5,1.09-1.41,3.17-0.14,4.02
	C697.2,139.96,696.48,138.86,698.16,138.2z"/>
<path fill="#00FF8D" d="M694.65,140.14c-0.57-0.29-0.69-0.78-0.81-1.28c-2.67,3.31-5.03,6.81-5.96,5.25
	c-0.25,2.1-3.09,5.26-2.07,6.77c0.78-0.69,1.6-1.06,2.35-1.84c-1.69-1.54,2.08-1.94,2.77-2.37c-1.33-1.7,2.41-3.63,0.91-4.26
	C692.85,141.51,693.68,142.12,694.65,140.14z"/>
<path fill="#00FF8D" d="M690.82,124.07c1.01,0.53,1.94-0.34,1.84,1.14c0.52-0.79,1.08-1.48,1.6-2.27
	C693.19,122.77,692.09,122.28,690.82,124.07z"/>
<path fill="#00FF8D" d="M696.74,134.12c0.39,0.37-0.26,1.11-0.78,1.9C697.95,137.75,698.8,132.63,696.74,134.12z"/>
<path fill="#00FF8D" d="M595.83,171.24c-0.51,1.77-0.47,3.29-0.12,4.78c0.8-1.14,1.6-2.27,2.4-3.41
	C597.51,171.79,597.42,169.41,595.83,171.24z"/>
<path fill="#00FF8D" d="M610.52,156.72c-0.44-0.24-0.79-0.52-1.18-0.67c-2.12,1.85,0.16,1.79-0.42,2.94
	c-0.43,0.74-1.17,1.52-0.78,1.9c0.65-0.74,1.32-0.71,1.95-1.99C609.29,158.6,609.59,157.8,610.52,156.72z"/>
<path fill="#00FF8D" d="M606.59,159.17c-3.17,2.44-1.66,1.42-2.47,4.21c-0.7-0.34-1.04-0.84-1.11-1.47
	c-0.52,0.79-1.02,1.13-1.53,1.47c-0.37,1.6,1.48-0.13,0.76,1.19c-0.8,1.14-1.52,0.04-2.35,1.84c1.28,0.4-2.52,2.91-1.23,3.31
	c1.11-1.17,0.14,1.03,1.61,0.14c1.18-1.75,2.22-4.75,2.75-3.13c1.14-3.05,4.16-2.67,3.97-4.78c-0.65,0.51-1.29,1.03-1.97,1.23
	C606.01,161.52,607.46,159.87,606.59,159.17z"/>
<path fill="#00FF8D" d="M677.02,135c1.08-1.48,2.62-3.18,1.65-3.83C678.09,132.53,675.33,134.67,677.02,135z"/>
<path fill="#00FF8D" d="M661.85,154.03c-1.5,0.8-2.96-1.18-3.51,1.94c0.74-0.78,1.16,0.13,1.18,0.67
	C660.19,154.24,662.58,154.9,661.85,154.03z"/>
<path fill="#00FF8D" d="M673.47,139.26c1.16,1.34,3.37-1.76,1.6-2.27C674.55,137.78,674.03,138.57,673.47,139.26z"/>
<path fill="#FFFFFF" d="M839.15,193.81c-2.04,0.82-4.26,1.51-6.26,2.42c-10.77,4.82-21.5,9.72-32.28,14.54
	c-12.32,5.52-14.45,4.96-20.38-7.06c-2.47-4.92-4.85-9.88-7.22-14.84l-3.96,0.49c0.13,0.27,0.25,0.54,0.37,0.82l-7.89,6.8
	c-0.41,0.3-0.74,0.56-1.24,0.9c-1.02,0.9-2.03,1.81-3.01,2.8l-0.09,0.04c-2.77,2.59-5.38,5.32-7.94,8.14
	c-28.55,32.07-56.79,64.34-85.65,96.22c-15.64,17.26-32.23,33.65-48.43,50.4c-3.15,3.2-6.64,4.47-10.71,1.82
	c-6.3-4.16-12.84-7.88-18.81-12.51c-28.23-22.06-56.27-44.43-84.4-66.53c-6.36-5.01-12.19-11.03-23.08-9.35
	c10.06-12.63,18.77-23.64,27.7-34.65c31.89-39.43,64.79-78.11,95.33-118.57c24.07-32.01,45.13-66.27,67.81-99.4l0.94,1.33
	l7.97-12.88c-2.09-0.25-4.23,0.61-6.14,2.92c-3.22,3.78-6.48,7.47-9.22,11.58c-20.48,30.25-39.69,61.58-61.61,90.84
	c-27.88,37.15-57.93,72.67-87.02,108.84c-12.26,15.28-25.78,29.71-36.16,46.22c-1.57,2.58-3.34,4.72-5.2,6.66l5.31,13.3
	c6.7,8.15,13.17,16.3,20.06,23.92l56.79,53.75c-0.66-1.45-1.24-2.95-1.9-4.41c5.41,1.49,9.2,4.26,13.36,5.66
	c2.74,0.95,6.95,1,9.1-0.53c6.02-4.4,10.76-3.16,15.94,0.96c10.89,8.66,21.91,17.14,32.9,25.53c8.15,6.28,13.18,5.74,20.19-1.53
	c2.18-2.21,4.23-4.46,6.14-6.77c23.14-28.5,46.38-57.05,69.31-85.78c17.46-21.95,34.7-44.12,51.59-66.58
	c2.53-3.36,4.2-8.85,3.45-12.9c-1.05-5.9-4.62-11.3-7.15-16.85c-0.58-1.27-1.27-2.06-2.06-2.58l5.64-2.58
	c0.58,1.27,1.12,2.46,1.71,3.73c2.42,5.05,5.52,9.9,8.66,14.62c3.16,4.49,7.38,6.52,12.97,4.08c14-6.18,28.13-12.31,42.13-18.49
	c1.27-0.58,2.21-1.89,3.37-2.97C839.83,194.82,839.49,194.32,839.15,193.81z M766.02,231.31c-12.53,16.84-25.24,33.53-38.43,49.9
	c-27.41,34.08-55.09,68.07-82.93,101.91c-8.41,10.22-10.16,10.25-21.02,2.35c-10.6-7.8-20.97-16.03-31.29-24.18
	c-5.01-3.98-10.46-6.76-15.95-2.17c-5.02,4.17-8.94,2.33-13.37-0.38c-23.61-14.61-44.98-32-63.36-52.73
	c-6.85-7.76-13.05-16.03-19.34-24.26c-1.37-1.79-1.96-4.05-2.88-6.05c5.14-5.1,9.8-3.82,14.28-0.26
	c15.33,12.12,30.47,24.55,45.94,36.5c20.35,15.66,40.98,30.96,61.62,46.27c8.77,6.44,13.21,6.05,20.75-2.23
	c39.07-42.49,77.97-85.13,116.95-127.8c8.56-9.41,16.99-18.87,25.55-28.29C773.2,211.43,774.29,220.06,766.02,231.31z"/>
<path fill="#FFFFFF" d="M498.05,308.97c1.55,1.71,3.14,3.51,4.79,5.18c10.4,10.97,22.14,20.77,33.24,31.1
	c-0.51,0.56-0.93,1.09-1.45,1.65c-11.1-10.1-22.58-19.81-33.26-30.42c-7.36-7.19-13.92-15.3-20.21-23.53
	c-5.35-6.9-11.32-10.33-20.06-7.32c-1.04,0.37-2.3,0.5-3.47,0.6c-0.09,0.04-0.35-0.28-0.74-0.65c5.55-2.54,11.1-5.07,15.55-7.11
	c1.85,2.12,3.65,4.38,5.41,6.54l-5.31-13.3c-6.46,6.8-14.39,9.88-23.77,11.75c-13.61,2.7-27.5,4.55-40.92,8.15
	c-8.72,2.34-17.48,6.01-24.78,11.22c-3.95,2.9-7.63,4.48-12.06,5.84c-7.47,2.42-15.08,5.02-21.71,9.04
	c-5.94,3.6-10.49,9.52-16.01,13.81c-12.69,9.76-25.51,19.25-38.36,28.65c-0.97,0.77-2.55,1.16-3.8,1.08
	c-8.28-1.27-16.53-3.22-24.87-4.13c-38.87-4.44-77.83-8.62-116.65-12.97c-23.89-2.71-47.74-5.33-71.97-2.28
	c-9.66,1.23-19.73-0.11-29.54-1.12c-12.71-1.34-25.24-3.74-37.81-5.26c-10.12-1.2-11.51,0.32-7.61,9.09l3.55-1.62
	c-0.67-1.46-1.29-2.82-1.91-4.18c4.46,0.38,8.39,0.56,12.23,1.01c17.78,2.1,35.78,7.06,53.28,5.66c34.19-2.66,67.72,0.7,101.42,4.65
	c35.56,4.19,71.24,7.67,106.86,11.51c3.34,0.34,6.76,1.09,11.3,1.87c-10.13,12-10.42,25.55-10.71,38.87
	c-0.41,19.54,0.03,39.02,0.03,58.26c-0.81-3.7-2.63-7.92-2.67-12.09c-0.1-21.39,0.24-42.77,0.45-64.2c0.06-4.2,0.7-8.57,0.22-12.74
	c-0.24-2.2-2.14-5.4-3.96-5.78c-1.86-0.47-5.36,1.02-6.54,2.77c-2.26,3.23-4.36,7.05-4.85,10.79
	c-5.65,40.08-13.53,80.08-3.76,120.69c4.26,17.74,3.33,18.6-15.29,18.75c-36.31,0.43-72.68,0.24-108.96,1.22
	c-14.02,0.36-27.91,3.41-43.55,5.51c-0.58-1.27-1.21-2.64-1.79-3.91l-3.27,1.5c0.29,0.64,0.62,1.36,0.91,2
	c0.54,1.18,0.81,2.49,1.53,4.8c-12.46,5.7-24.56,11.23-36.74,16.8c0.42,0.91,0.83,1.82,1.16,2.77c4.91-2.24,9.73-4.45,14.64-6.69
	c11.96-5.36,23.43-13.46,37.67-7.32c50.94-0.42,101.91-0.52,152.77-1.35c14.86-0.2,16.28-2.39,17.24-17.12
	c0.69-10.76,2.07-20.96,11.03-28.79c1.94-1.77,1.18-6.8,1.34-10.29c0.08-1.03-0.96-2.09-1.36-3.23c-0.28-0.86-0.38-1.8-1.01-4.38
	c11.22,13.23,24.38,11.72,37.85,9.2c0.01,6.27-1.14,12.18,5.3,16.16c10.86,6.69,20.75,5.47,28.28-5.23
	c6.45-9.22,11.9-19.18,17.87-28.73c3.74-6,7.62-11.95,11.5-17.9c-0.13,3.8-1.97,6.51-3.28,9.42c-3.89,9.04-8.19,17.93-11.1,27.18
	c-2.72,8.72,1.04,15.03,9.32,18.94c10.79,5.07,19.34,2.37,26.35-8.75c3.88-6.17,7.29-12.68,10.87-19.04
	c-0.72,5.39-2.99,10.05-4.64,14.87c-2,5.97-1.98,11.79,3.83,15.84c6.64,4.66,16.63,3.18,21.77-3.13c2.67-3.31,4.77-7.13,7.18-10.76
	c-0.14,2.81-1.16,5.15-2.05,7.53c-3.2,8.39-1.17,11.64,7.7,11.32c14.38-0.53,24.17-7.97,30.78-21.66c4.06,5.51,9.16,6.81,15.1,4.42
	c10.03-4.04,12.02-12.2,10.04-22.29c8.25,3.38,13.35-0.38,17.92-5.77c3.92-4.65,5.44-9.74,0.98-15.18
	c9.89-0.01,15.71-2.67,18.5-9.56c5.14-12.57,0.03-22.78-8.97-31.64c1.73-3.43,3.31-6.46,5.14-10.16
	c0.79,9.42,5.93,13.45,15.52,13.02c7.31-0.37,11.68-5.23,10.5-13.6c-0.82-5.89-3.44-11.62-5.62-17.33
	c-1.97-5.04-4.13-9.99-6.28-14.94L498.05,308.97z M281.93,476.72c2.78,5.11,2.87,8.91-2.02,12.91c-7.46,6.05-8.18,15.06-8.93,23.76
	c-1.3,16.87-1.29,17.63-18.43,17.88c-49.03,0.75-98.07,0.74-147.17,1.09c-2.96,0.03-5.89-0.61-8.87-0.89
	c-0.11-0.72-0.18-1.35-0.29-2.07c4.74-1.18,9.46-3.12,14.3-3.35c28.51-1.38,56.92-2.49,85.45-3.33c18.36-0.48,36.79-0.11,55.15-0.58
	c10.84-0.34,12.81-3,11.35-13.65c-0.81-6.34-2.7-12.4-3.42-18.78c-1.16-10.24-3.08-20.69-2.46-30.87
	c1.46-23.98,4.13-47.96,6.62-71.86c0.72-6.6,1.82-13.58,7.57-18.08c0.85,0.16,1.6,0.37,2.4,0.44c-0.13,5.01-0.13,10.06-0.26,15.07
	c-0.62,16.45-1.73,33.01-1.9,49.47C271.08,448.91,274.61,463.35,281.93,476.72z M446.31,288.64c-19.28,4.97-38.6,9.84-57.3,14.65
	C395.72,297.03,424,289.38,446.31,288.64z M283.45,456.01c-1.14-23.89-0.03-47.93,0.58-71.85c0.11-4.34,2.5-8.73,3.81-13.07
	c0.89,0.25,1.68,0.55,2.53,0.71c-0.79,7.18-1.89,14.39-2.14,21.54c-0.68,20.87-1.77,41.82-1.02,62.7
	c0.45,12.77,6.46,17.5,18.11,18.44c1.61,0.14,3.25,0.38,4.9,0.62c2.23,0.3,4.4,0.74,7.52,1.29
	C298.86,482.5,284.25,474.34,283.45,456.01z M312.55,472.5c-15,0.15-22.2-5.02-22.48-20.07c-0.31-21.85,1.3-43.81,2.2-65.66
	c0.14-2.81,1.23-5.73,0.78-8.39c-1.76-11.07,5.06-15.62,13.22-21.11c12.05-8.04,23.13-17.72,33.98-27.41
	c10.9-9.82,21.76-19.74,37.43-18.65c24.38,1.61,48.9-6.08,73.01,1.69c6.46,2.11,12.95,4.52,18.6,8.21
	c7.75,4.92,7.88,12.67,1.22,19.02c-7.22,6.82-16.47,9.18-25.98,9.79c-8.25,0.47-16.46-0.17-24.7,0.08
	c-6.54,0.13-13.26,0.34-19.65,1.51c-11.17,2.03-20.05,7.63-25.25,18.36c-17.34,35.42-34.9,70.61-51.9,105.1
	C319.34,473.9,315.91,472.4,312.55,472.5z M499.17,484.82c-2.75,1.92-7.27,3.1-10.14,2.11c-2.08-0.7-3.65-5.59-3.73-8.63
	c-0.13-4.12,1.1-8.42,2.49-12.35c0.8-2.34,3.11-5.93,4.68-5.88c2.55,0.04,5.2,2.46,7.46,4.29c1.39,1.12,1.9,3.2,2.12,3.43
	C505.72,475.34,504.67,480.99,499.17,484.82z M520.15,461.93c-2.91,3.97-7.19,5.93-12.1,1.9c-10.27-8.5-10.38-20.54-0.37-29.19
	c5.49,5.52,11.58,10.65,16.06,16.85C524.97,453.24,522.31,458.96,520.15,461.93z M537.13,440.64c-5.74,4.28-10.96,3.69-15.42-1.74
	c-4.9-5.9-4.63-9.65,0.57-15.11c4-4.25,7.64-8.77,11.79-13.42C544.53,419.55,545.86,434.23,537.13,440.64z M563.08,397.11
	c-0.14,2.59-2.93,7.06-4.82,7.26c-4.09,0.44-8.56-0.92-12.49-2.54c-0.7-0.34,0.11-5.77,1.19-8.46c2.31-6.01,5.25-11.85,8.15-18.24
	C560.26,381.79,563.64,388.94,563.08,397.11z M549.63,369.61c-4.28,6.03-7.48,12.98-10.49,19.86c-3.71,8.73-7.44,16.92-16.21,22.26
	c-4.8,2.96-8.08,8.53-12.25,12.64c-2.55,2.6-5.28,5.28-8.43,7.05c-6.34,3.45-9.08,8.99-11.41,15.44c-1.83,4.9-5.42,9.07-7.34,14.02
	c-2.3,5.78-4.35,11.88-5.06,18.04c-1.88,16.58-16.31,27.58-34.62,24.08c4.16-8.94,8.11-17.13,11.94-25.36
	c1.26-2.77,2.61-5.59,3.12-8.57c0.29-1.78-1.03-3.71-1.59-5.65c-1.82,0.83-4.29,1.19-5.19,2.59c-2.61,4.16-4.69,8.74-6.86,13.14
	c-2.79,5.45-5.26,11.09-8.22,16.4c-2.96,5.31-7.99,7.06-13.95,6.05c-6.67-1.13-9.58-5.08-7.61-11.59
	c1.96-6.29,4.72-12.28,7.09-18.41c0.74-1.99,1.97-3.87,2.13-5.92c0.15-1.83-0.85-3.79-1.41-5.73c-1.69,0.88-4.12,1.33-4.98,2.82
	c-4.23,7.1-7.89,14.49-11.99,21.64c-1.95,3.42-4.31,6.7-6.87,9.74c-4.86,5.96-10.94,5.66-17.33,2.98c-6-2.54-10.49-7.08-8.56-13.68
	c3.04-10.19,7.59-19.96,11.6-29.94c1.37-3.26,3.53-6.23,4.54-9.55c0.56-1.9-0.3-4.26-0.49-6.37c-1.96,1.01-4.66,1.36-5.7,2.93
	c-7,10.9-13.43,22.09-20.57,32.93c-4.44,6.87-9.11,13.73-14.6,19.76c-4.56,4.94-13.11,5.23-18.26,1.42c-5.54-4.18-7.05-9.64-4-16.2
	c8.79-18.53,17.45-37.11,26.37-55.6c7.81-16.11,16.15-32.01,23.65-48.31c6.49-14.18,17.84-20.14,32.59-20.84
	c9.91-0.46,19.81,0.29,29.71,0.05c11.24-0.19,22.12-1.65,31.58-8.61c11.99-8.89,11.63-21.7-1.59-28.96
	c-17.08-9.46-35.86-11.1-54.92-9.75c-6.82,0.48-13.51,1.23-20.34,1.93c-0.16-0.59-0.32-1.17-0.57-1.72
	c5.93-1.94,11.83-4.2,17.87-5.64c17.42-4.23,35-7.86,52.33-12.05c6.14-1.49,10.15,0.09,14.01,4.92
	c17.12,21.09,34.89,41.44,58.09,56.35c4.55,2.98,9.06,5.86,13.51,9.11C552.8,362.11,553.01,364.98,549.63,369.61z"/>
</svg>
