<?xml version="1.0" encoding="utf-8"?>
<!-- Generator: Adobe Illustrator 24.2.1, SVG Export Plug-In . SVG Version: 6.00 Build 0)  -->
<svg version="1.1" id="Слой_1" xmlns="http://www.w3.org/2000/svg" xmlns:xlink="http://www.w3.org/1999/xlink" x="0px" y="0px"
	 width="144px" height="447.04px" viewBox="0 0 144 447.04" enable-background="new 0 0 144 447.04" xml:space="preserve">
<path fill="none" stroke="#00FF8D" stroke-width="6" stroke-miterlimit="10" d="M69.65,197.94c-10.85-15.79-21.86-31.49-32.46-47.68
	C26.34,133.74,16.7,116.49,9.26,98.12C4.4,86.78,1.89,74.8,3.91,62.42c4.86-27.61,25.42-49.3,52.86-55.54
	c27.61-6.4,56.02,4.61,71.89,27.61c9.88,13.84,14.33,29.55,11.49,46.55c-2.02,12.63-7.77,23.88-13.68,35.22
	c-12.63,24.04-27.93,46.63-43.96,68.57c-3.64,5.1-7.45,9.79-11.25,15.22C70.38,198.83,69.81,198.5,69.65,197.94z"/>
<path fill="none" stroke="#00FF8D" stroke-width="6" stroke-miterlimit="10" d="M72.16,120.46c26.02,0,47.12-21.09,47.12-47.12
	S98.18,26.23,72.16,26.23S25.04,47.32,25.04,73.35S46.14,120.46,72.16,120.46z"/>
<path fill="#FFB800" d="M97.01,28.82l-14.9-10.69l-7.53,4.21V10.2L59.61,0L43.34,10.2v73.1l-4.53,2.43v17.4
	c7.69,9.07,20.32,14.9,33.27,14.9c11.41,0,23.56-4.94,30.11-11.9V76.02l-5.26-3.64V28.82H97.01z"/>
<path fill="#FEFEFE" d="M50.7,45.82l12.14-8.5l10.77,7.77l-8.26-8.01v-8.34l5.1-3.56V12.47L59.45,4.29v31.98L50.7,45.82z"/>
<path fill="#FEFEFE" d="M81.55,23.23v89.21l11.58-1.13V30.68L81.55,23.23z"/>
<path fill="#FEFEFE" d="M62.44,42.83v72.7l12.14,0.57V49.87l-12.06-8.34L62.44,42.83z"/>
<path fill="#FFAE00" d="M64.22,47.52l8.91,5.75v2.02l-8.91-5.18V47.52z"/>
<path fill="#FFAE00" d="M64.22,53.43l8.91,5.67v2.02l-8.91-5.18V53.43z"/>
<path fill="#FFAE00" d="M64.22,59.1l8.91,5.67v2.02l-8.91-5.18V59.1z"/>
<path fill="#FFAE00" d="M64.22,65.49l8.91,5.75v2.02l-8.91-5.18V65.49z"/>
<path fill="#FFAE00" d="M64.22,70.59l8.91,5.75v2.02l-8.91-5.18V70.59z"/>
<path fill="#FFAE00" d="M82.44,26.39v3.72l2.75,1.62v-3.48L82.44,26.39z"/>
<path fill="#FFAE00" d="M86.08,28.66v3.72L88.83,34v-3.48L86.08,28.66z"/>
<path fill="#FFAE00" d="M89.72,30.92v3.64l2.75,1.7v-3.48L89.72,30.92z"/>
<path fill="#FFAE00" d="M82.44,31.9v3.72l2.75,1.62v-3.48L82.44,31.9z"/>
<path fill="#FFAE00" d="M86.08,34.16v3.72l2.75,1.62v-3.48L86.08,34.16z"/>
<path fill="#FFAE00" d="M89.72,36.43v3.72l2.75,1.62v-3.48L89.72,36.43z"/>
<path fill="#FFAE00" d="M82.44,39.75v3.64l2.75,1.7v-3.48L82.44,39.75z"/>
<path fill="#FFAE00" d="M86.08,42.02v3.64l2.75,1.7v-3.48L86.08,42.02z"/>
<path fill="#FFAE00" d="M89.72,44.28v3.64l2.75,1.7v-3.48L89.72,44.28z"/>
<path fill="#FFAE00" d="M82.44,45.25v3.72l2.75,1.62v-3.48L82.44,45.25z"/>
<path fill="#FFAE00" d="M86.08,47.52v3.72l2.75,1.62v-3.48L86.08,47.52z"/>
<path fill="#FFAE00" d="M89.72,49.79v3.72l2.75,1.62v-3.48L89.72,49.79z"/>
<path fill="none" stroke="#00FF8D" stroke-width="7" stroke-linecap="round" stroke-dasharray="14,14" d="M71.19,200.04v247"/>
</svg>
