<svg width="82" height="82" viewBox="0 0 82 82" fill="none" xmlns="http://www.w3.org/2000/svg">
<path d="M4 78.375C5.09798 75.1634 6.08616 72.2538 7.07435 69.3167C8.06253 66.3796 8.99581 63.415 9.984 60.4779C10.3408 59.38 10.2036 58.3918 9.62715 57.3487C-2.36829 35.4165 10.0663 8.21406 34.5239 2.8614C55.4404 -1.69522 76.0001 12.304 79.5136 33.55C82.8625 53.643 68.5338 73.242 48.3584 76.2614C40.3432 77.4692 32.7122 76.4261 25.493 72.693C24.3126 72.0891 23.2147 72.2538 22.0618 72.6106C16.5444 74.3674 11.0271 76.1242 5.50972 77.9084C5.09798 78.0182 4.71369 78.1554 4 78.375Z" stroke="#FEFEFE" stroke-width="4" stroke-miterlimit="10"/>
<path d="M31.3677 22.2135C32.5206 22.3782 32.8225 23.3115 33.2892 24.1624C34.4146 26.1937 35.3479 28.3073 36.3635 30.3934C36.8576 31.4365 36.8576 32.3698 36.0067 33.2756C35.2655 34.0717 34.6342 34.9775 33.9754 35.8559C33.4539 36.5147 33.4539 37.1735 33.9205 37.8597C36.9399 42.3889 40.728 46.0671 45.8336 48.2356C47.1786 48.8121 48.2217 48.8395 49.1001 47.467C49.7314 46.4789 50.6098 45.6279 51.3235 44.6946C51.9823 43.8162 52.8058 43.679 53.7391 44.1456C56.1821 45.3534 58.6251 46.6161 61.0681 47.8239C61.7818 48.1807 61.9739 48.7297 61.9739 49.4983C61.9739 53.8079 58.4878 57.1293 53.5744 57.3214C48.9903 57.4861 44.8729 55.894 41.0025 53.6432C34.6067 49.9375 29.7207 44.7221 25.9876 38.4087C25.0818 36.8715 24.5053 35.1971 24.0661 33.4403C23.0505 29.2955 24.423 25.9192 27.415 23.0919C27.662 22.8723 28.0738 22.8448 28.211 22.4605C28.4306 22.186 28.7051 22.2135 29.007 22.2409C29.6933 21.8292 29.9678 23.0644 30.654 22.6252C30.3521 22.735 30.105 22.6801 29.8305 22.4056C30.3521 21.939 30.8736 22.1037 31.3677 22.2135Z" fill="#FEFEFE"/>
<path d="M31.3669 22.2132C30.9826 22.2407 30.5983 22.2681 30.1866 22.2956C30.4062 22.6799 30.8728 22.323 31.0375 22.6799C30.2415 23.1191 29.6925 22.4054 29.0337 22.2132C29.8297 21.9113 30.5983 21.9662 31.3669 22.2132Z" fill="#F6FAF4"/>
<path d="M28.2379 22.4329C28.2928 23.0368 27.8811 23.0916 27.4419 23.0642C27.6066 22.7074 27.9085 22.5427 28.2379 22.4329Z" fill="#F6FAF4"/>
</svg>
