<?xml version="1.0" encoding="utf-8"?>
<!-- Generator: Adobe Illustrator 24.2.1, SVG Export Plug-In . SVG Version: 6.00 Build 0)  -->
<svg version="1.1" id="Слой_1" xmlns="http://www.w3.org/2000/svg" xmlns:xlink="http://www.w3.org/1999/xlink" x="0px" y="0px"
	 viewBox="0 0 82.9 83.1" style="enable-background:new 0 0 82.9 83.1;" xml:space="preserve">
<style type="text/css">
	.st0{fill:#00FF8D;stroke:#FFFFFF;stroke-width:4;stroke-miterlimit:10;}
	.st1{fill:#00FF8D;stroke:#000000;stroke-miterlimit:10;}
	.st2{fill:#FFFFFF;stroke:#000000;stroke-width:0.5;stroke-miterlimit:10;}
</style>
<path class="st0" d="M3.3,80c1.1-3.3,2.1-6.2,3.1-9.2c1-3,2-6,3-9c0.4-1.1,0.2-2.1-0.4-3.2C-3.2,36.2,9.5,8.5,34.4,3
	c21.3-4.6,42.3,9.6,45.9,31.3C83.6,54.8,69,74.7,48.5,77.8c-8.2,1.2-15.9,0.2-23.3-3.6c-1.2-0.6-2.3-0.4-3.5-0.1
	c-5.6,1.8-11.2,3.6-16.9,5.4C4.4,79.6,4,79.8,3.3,80z"/>
<path class="st1" d="M4,79.3c1.1-3.2,2.1-6.1,3.1-9.1c1-2.9,1.9-5.9,2.9-8.8c0.4-1.1,0.2-2.1-0.4-3.1c-12-21.9,0.4-49.1,24.9-54.5
	c20.9-4.6,41.5,9.4,45,30.7c3.3,20.1-11,39.7-31.2,42.7c-8,1.2-15.6,0.2-22.9-3.6c-1.2-0.6-2.3-0.4-3.4-0.1
	c-5.5,1.8-11,3.5-16.6,5.3C5.1,78.9,4.7,79.1,4,79.3z"/>
<path class="st2" d="M31.4,23.1c1.2,0.2,1.5,1.1,1.9,1.9c1.1,2,2.1,4.1,3.1,6.2c0.5,1,0.5,2-0.4,2.9c-0.7,0.8-1.4,1.7-2,2.6
	c-0.5,0.7-0.5,1.3-0.1,2c3,4.5,6.8,8.2,11.9,10.4c1.3,0.6,2.4,0.6,3.3-0.8c0.6-1,1.5-1.8,2.2-2.8c0.7-0.9,1.5-1,2.4-0.5
	c2.4,1.2,4.9,2.5,7.3,3.7c0.7,0.4,0.9,0.9,0.9,1.7c0,4.3-3.5,7.6-8.4,7.8c-4.6,0.2-8.7-1.4-12.6-3.7c-6.4-3.7-11.3-8.9-15-15.2
	c-0.9-1.5-1.5-3.2-1.9-5c-1-4.1,0.4-7.5,3.3-10.3c0.2-0.2,1.2-0.8,1.6-0.9C29.8,22.9,30.9,23,31.4,23.1z"/>
</svg>
