<svg version="1.1" id="aboundSVG" xmlns="http://www.w3.org/2000/svg" xmlns:xlink="http://www.w3.org/1999/xlink" x="0px" y="0px"
	 width="1059.64px" height="420.25px" viewBox="0 0 1059.64 420.25" enable-background="new 0 0 1059.64 420.25"
	 xml:space="preserve">
<path d="M0,419.85c1.94-5.89,3.93-11.76,5.82-17.66c15.33-48.12,30.68-96.24,46.05-144.37c17.44-54.67,34.88-109.33,52.31-164
	c9.38-29.38,18.75-58.76,28.1-88.15c0.16-1.18,1.25-2,2.43-1.83c0,0,0.01,0,0.01,0c19.16,0.07,38.32,0.06,57.49,0.08
	c0.57,0,1.14,0.06,1.9,0.1c3.07,132,6.14,263.95,9.21,395.86l-58.44,5.89v-54c-1.37,0.1-2.83,0.18-4.29,0.31
	c-19,1.66-38,3.34-57.07,4.93c-1.37-0.08-2.57,0.92-2.76,2.28c-5,17.4-10.05,34.78-15,52.18c-0.2,1.55-1.55,2.69-3.11,2.62
	c-19.91,1.93-39.81,4-59.71,6c-1,0.1-1.95,0.09-2.93,0.12L0,419.85z M152.32,92.85h-0.46c-18.67,71.33-37.33,142.75-56,214.24
	l49.36-3.69C147.59,233.03,149.96,162.85,152.32,92.85L152.32,92.85z"/>
<path d="M386.39,186.2l2.88,1.43c12.84,6.46,19.76,17,21.61,31.14c1.09,8.32,0.19,16.56-0.93,24.81
	c-2.87,21.24-5.65,42.5-8.49,63.74c-1.32,9.91-2.52,19.83-5.35,29.48c-6.68,22.7-21.54,37.25-43.8,44.64
	c-12.31,4.08-25,6.09-37.84,7.38l-60.89,6.11L229,397.42c-0.7,0.06-1.4,0-2.36,0c18.62-131.18,37.23-262.29,55.83-393.32
	c0.66-0.05,1.11-0.11,1.56-0.11c26.69,0,53.37-0.11,80.06,0.1c12.95,0.11,25.68,2,37.68,7.3c16.81,7.45,25.9,20.51,28,38.65
	c1,8.93,0,17.74-1.24,26.56c-2.89,21.18-5.63,42.38-8.6,63.54c-1.75,12.47-5.93,24-14.75,33.35c-4.63,4.83-10.13,8.74-16.21,11.52
	L386.39,186.2z M307.67,212.66c-6.08,44.68-12.07,88.72-18.08,132.86c0.35,0.05,0.7,0.07,1.05,0.06c5.86-0.5,11.74-0.83,17.57-1.59
	c6.03-0.67,12.01-1.7,17.91-3.08c6.37-1.63,11.64-5.39,14.37-11.54c1.92-4.21,3.26-8.66,4-13.23c3.71-25.54,7.23-51.1,10.58-76.69
	c0.65-4.78,0.79-9.61,0.4-14.42c-0.48-5.77-4-9.67-9.54-11.51c-1.64-0.66-3.38-1.05-5.14-1.18
	C329.82,212.36,318.86,212.55,307.67,212.66L307.67,212.66z M314,167.18c2.37-0.11,4.44-0.17,6.51-0.3
	c8.22-0.54,16.47-0.76,24.64-1.75c7.38-0.9,13.75-4.13,17.84-10.79c2.56-4.43,4.16-9.36,4.69-14.45
	c3.25-23.76,6.47-47.53,9.64-71.31c1.63-12.3-4.33-20-16.7-21.77c-0.45-0.08-0.9-0.13-1.36-0.15c-9-0.05-18-0.12-27.06-0.09
	c-0.46,0-1.22,0.89-1.31,1.44c-1,6.46-1.88,12.94-2.8,19.41l-10.86,76.88L314,167.18z"/>
<path d="M611.77,68.55c-1.08,9.6-2.08,19.22-3.26,28.81c-2.78,22.44-5.61,44.87-8.48,67.3c-3.33,26.52-6.67,53.04-10,79.56
	c-2,15.82-3.9,31.65-6,47.45c-1.9,14-5.15,27.62-11.17,40.48c-8.54,18.24-22.21,30.83-41.4,37.09c-18.13,5.92-36.7,7.73-55.55,4.25
	c-15.62-2.88-28.35-10.43-36.72-24.36c-5.22-8.7-7.61-18.28-8.62-28.27c-1.15-11.49,0.15-22.83,1.69-34.19
	c3.18-23.31,6.25-46.64,9.37-69.95c4.25-31.74,8.51-63.48,12.77-95.21c2.11-15.68,4.07-31.37,6.45-47c2-13.3,5.65-26.18,12-38.18
	c10.64-20.27,27.49-31.69,50-35c14.85-2.2,29.61-1.91,44.12,2.29c16.1,4.65,28.78,13.77,36.72,28.84
	c4.32,8.61,6.81,18.02,7.31,27.64c0.22,2.8,0.28,5.61,0.41,8.42L611.77,68.55z M562.57,69.12c-0.46-3.54-0.67-7.22-1.46-10.76
	c-1.36-6-4.59-10.76-10.52-13.3c-12.53-5.6-27.23,0.02-32.82,12.56c0,0,0,0.01-0.01,0.01c-2.72,6.31-4.48,13-5.23,19.83
	c-2.58,19.24-5.14,38.48-7.67,57.73l-10.35,78.14c-3.33,25.33-6.69,50.67-10.07,76c-0.93,6.93-1.89,13.85-1,20.89
	c1.28,9.63,6.31,15.7,14.77,17.26c2.58,0.44,5.2,0.58,7.81,0.43c10.51-0.5,18-5.53,22.33-15.2c2.73-6.37,4.53-13.11,5.32-20
	c2.49-18.66,4.87-37.33,7.29-56c2.93-22.55,5.85-45.1,8.78-67.66c3.21-24.83,6.43-49.66,9.64-74.48c1.12-8.4,2.13-16.84,3.19-25.42
	V69.12z"/>
<path d="M776.91,4.41c-0.94,8.19-1.85,16.17-2.77,24.15c-2,17.53-4.03,35.06-6.1,52.59l-7.74,66.81c-2,17.4-4,34.8-6,52.2
	c-2.57,22.2-5.19,44.4-7.71,66.61c-1.34,11.83-2.8,23.62-6,35.14c-2.32,9-5.99,17.6-10.89,25.5c-7.29,11.57-18.46,20.18-31.51,24.28
	c-15.08,4.93-30.54,6.6-46.25,3.88c-18.54-3.22-30.21-14.23-35.48-32.16c-2.86-9.82-3.95-20.07-3.24-30.28
	c0.8-12.12,2.12-24.21,3.55-36.28c3.22-27.06,6.64-54.1,10-81.15c3.07-24.84,6.15-49.68,9.24-74.52s6.15-49.68,9.19-74.53
	c0.83-6.75,1.66-13.49,2.5-20.24c0.08-0.7,0.22-1.4,0.34-2.13h46.16c-0.57,4.76-1.11,9.35-1.66,13.94l-7.74,63.65
	c-2.81,23.16-5.62,46.32-8.44,69.48c-2.93,24.2-5.87,48.4-8.8,72.61c-2.29,18.88-4.58,37.76-6.87,56.64
	c-0.74,6.12-1.14,12.27,0.39,18.33c2.1,8.34,7.77,11.86,17,11c8.77-0.83,14.63-5.36,18-13.39c2.57-6.16,3.59-12.67,4.37-19.24
	c3.38-28.36,6.75-56.72,10.12-85.08c2.81-23.63,5.61-47.25,8.4-70.87c3.07-25.77,6.14-51.54,9.22-77.3c1.51-12.67,3-25.33,4.48-38
	c0.14-1.19,0.34-1.87,1.82-1.86c13.73,0.06,27.46,0,41.2,0.06C776.1,4.28,776.51,4.34,776.91,4.41z"/>
<path d="M894.1,4.39h35.19c-0.45,4.2-0.87,8.27-1.31,12.34c-4.1,37.88-8.2,75.77-12.31,113.66c-3.6,33.33-7.19,66.67-10.78,100
	l-9,83.25c-0.47,4.35-0.93,8.71-1.5,13c-0.15,0.67-0.64,1.21-1.28,1.44c-10.34,1.12-20.68,2.14-31,3.17
	c-0.23-0.03-0.45-0.09-0.66-0.17c-11.09-75.56-22.19-151.19-33.3-226.9h-0.4c-0.52,5.43-1.04,10.86-1.55,16.31
	c-2.35,24.93-4.68,49.85-7,74.78c-2.16,23.04-4.31,46.08-6.45,69.11c-2.21,23.63-4.43,47.26-6.64,70.88c-0.09,1-0.2,1.68-1.5,1.8
	c-11.85,1.14-23.68,2.34-35.53,3.52c-0.37,0-0.75,0-1.39,0c12.83-112.13,25.66-224.24,38.47-336.33c0.73,0,1.43-0.12,2.12-0.12
	c10.07,0,20.14,0.05,30.21,0c1.41,0,2,0.3,2.23,1.87c4.88,34.09,9.79,68.18,14.74,102.27c5.16,35.77,10.31,71.55,15.46,107.32
	c0.67,4.77,1.36,9.53,2.08,14.3h0.49C880.34,154.8,887.21,79.64,894.1,4.39z"/>
<path d="M924.44,323.66c11.29-106.48,22.58-212.92,33.88-319.33h2.19c15.69,0,31.39,0,47.09,0c11.3,0,21.95,2.52,31.26,9.25
	c10.1,7.31,15.54,17.61,18.4,29.45c2.69,11.12,2.85,22.4,1.73,33.72c-1.88,19.13-3.79,38.25-5.72,57.37
	c-2.42,24.12-4.85,48.25-7.29,72.38c-1.47,14.63-2.83,29.27-4.45,43.89c-1.47,13.21-4.53,26-11.24,37.68
	c-8.63,15-21.91,23.65-38.42,27.83c-10.33,2.62-20.94,3.08-31.46,4.21c-11.44,1.23-22.9,2.31-34.35,3.45
	C925.63,323.61,925.19,323.62,924.44,323.66z M992.22,40.03c-8.64,80.86-17.2,161-25.8,241.6c5.32-0.57,10.33-0.87,15.27-1.69
	c9.28-1.53,15.53-7,19.13-15.6c2.05-5.1,3.34-10.47,3.83-15.95c1.5-14.1,2.94-28.21,4.42-42.31c2.6-24.76,5.2-49.52,7.81-74.29
	c2-19.33,4.03-38.63,6.08-57.9c0.65-6.27,0.81-12.54-0.69-18.73c-1.72-7.09-5.41-12.78-13-14.12
	C1003.76,40.06,998,40.33,992.22,40.03L992.22,40.03z"/>
</svg>
