<svg version="1.1" id="amazonSVG" xmlns="http://www.w3.org/2000/svg" xmlns:xlink="http://www.w3.org/1999/xlink" x="0px" y="0px"
	 width="177px" height="54px" viewBox="0 0 177 54" enable-background="new 0 0 177 54" xml:space="preserve">
<path fill="#9A9A9A" d="M176.1,30.59c-0.4,0.5-0.9,0.6-1.5,0.6c-1.5,0-3,0-4.5,0c-1.2,0-1.4-0.3-1.4-1.5c0-5.6,0-11.1,0-16.7
	c0-1-0.1-2-0.4-3c-0.3-1.2-1-2.1-2.3-2.3c-1.4-0.2-2.5,0.2-3.3,1.3c-0.9,1.2-1.2,2.6-1.3,4.1c-0.1,3.3-0.1,6.5-0.1,9.8
	c0,2.3,0,4.5,0,6.8c0,1.1-0.3,1.5-1.4,1.5c-1.6,0-3.1,0-4.7,0c-1,0-1.3-0.3-1.3-1.3c0-9.1,0-18.1,0-27.2c0-0.9,0.3-1.3,1.3-1.3
	c1.5,0,3,0,4.5,0c0.9,0,1.2,0.3,1.2,1.2c0,1.2,0,2.3,0.2,3.6c0.2-0.3,0.3-0.7,0.5-1c0.9-1.8,2.2-3.4,4.2-4c1.9-0.6,3.8-0.6,5.7,0.1
	c2.8,1.1,4.1,3.3,4.5,6.1c0.1,0.6,0.2,1.3,0.3,1.9C176.1,16.49,176.1,23.59,176.1,30.59z"/>
<path fill="#9A9A9A" d="M37.4,5.79c2.3-6.4,11.9-6.9,14.3,0c0.2-0.2,0.3-0.5,0.4-0.7c2.3-4.6,8.8-5.7,12.5-2.2
	c1.4,1.3,2.1,3,2.2,4.9c0.1,1.8,0.1,3.6,0.1,5.3c0,5.5,0,11,0,16.5c0,1.3-0.3,1.6-1.6,1.6c-1.5,0-2.9,0-4.4,0
	c-1.2,0-1.5-0.3-1.5-1.5c0-5.4,0-10.7,0-16.1c0-0.9,0-1.8-0.1-2.7c-0.1-1.6-0.8-2.6-2-3c-1.6-0.5-3.2,0-4.1,1.2
	c-0.4,0.7-0.7,1.5-0.9,2.4c-0.2,1-0.2,1.9-0.2,2.9c0,5.1,0,10.1,0,15.2c0,1.2-0.3,1.5-1.5,1.5c-1.5,0-3.1,0-4.6,0
	c-1.1,0-1.4-0.3-1.4-1.4c0-5.5,0-11.1,0-16.6c0-1-0.1-2.1-0.3-3.1c-0.3-1.5-1.3-2.2-2.7-2.3c-1.6-0.1-2.8,0.5-3.4,1.9
	c-0.4,0.9-0.6,2-0.6,3c-0.1,5.6-0.1,11.2-0.1,16.7c0,0.3,0,0.5,0,0.8c0,0.6-0.4,1-1,1c-1.8,0-3.6,0-5.4,0c-0.6,0-1-0.4-1-1
	c0-0.2,0-0.4,0-0.6c0-8.8,0-17.6,0-26.5c0-1.5,0.2-1.7,1.7-1.7c1.3,0,2.7,0,4,0c1.1,0,1.4,0.3,1.4,1.3
	C37.4,3.79,37.4,4.79,37.4,5.79z"/>
<path fill="#9A9A9A" d="M17.4,27.69c-0.7,0.6-1.3,1.2-2,1.7c-3.1,2.4-6.6,2.8-10.2,1.6c-3-0.9-4.8-3.7-4.9-7.2
	c-0.2-5.3,2.8-9.1,8.2-10.3c2.3-0.5,4.7-0.7,7-1c0.6-0.1,0.8-0.3,0.8-0.9c-0.1-0.9,0-1.9-0.3-2.8c-0.1-0.6-0.5-1.3-1-1.7
	c-2.2-1.7-5.9-0.5-6.7,2.1c-0.4,1.3-0.5,1.4-1.9,1.3c-1.3-0.1-2.7-0.3-4-0.4c-1.1-0.1-1.4-0.5-1.1-1.6c0.8-3.5,2.9-5.7,6.2-6.9
	c3.7-1.3,7.4-1.4,11.1-0.1c3.3,1.2,5.1,3.6,5.3,7.2c0.1,3.4,0.1,6.9,0.1,10.3c0,0.7,0,1.3,0,2c0,1.6,0.4,3,1.4,4.3
	c0.2,0.3,0.4,0.5,0.6,0.8c0.5,0.7,0.4,1.1-0.2,1.7c-1.2,1.1-2.5,2.1-3.7,3.2c-0.7,0.6-1.2,0.7-1.9,0c-0.8-0.8-1.4-1.6-2.1-2.4
	C17.8,28.29,17.6,27.99,17.4,27.69z M16.3,16.79c-1-0.2-3.1,0-4.3,0.4c-2.9,0.9-4.2,3.1-3.6,6.1c0.4,2.2,2.4,3.3,4.5,2.5
	c1.1-0.4,1.9-1.3,2.5-2.3C16.6,21.39,16.3,19.09,16.3,16.79z"/>
<path fill="#9A9A9A" d="M88.6,27.79c-0.6,0.5-1.2,1.1-1.9,1.7c-3.1,2.3-6.6,2.7-10.1,1.6c-3-0.9-4.8-3.7-4.9-7.1
	c-0.2-5.1,2.2-8.8,7.2-10.1c2.6-0.7,5.3-0.9,8-1.3c0.6-0.1,0.9-0.3,0.8-0.9c-0.1-0.9,0-1.8-0.2-2.7c-0.2-1.2-1-2-2.2-2.3
	c-2.5-0.8-5,0.5-5.7,3c-0.3,0.9-0.5,1.1-1.5,1c-1.5-0.1-2.9-0.3-4.4-0.5c-1.1-0.1-1.3-0.5-1.1-1.6c0.7-3.1,2.5-5.3,5.4-6.6
	c3.9-1.8,8-1.9,12-0.5c3.4,1.2,5.2,3.7,5.3,7.3c0.1,3.8,0.1,7.7,0.1,11.5c0,2.1,0.5,3.9,1.8,5.5c0.2,0.2,0.4,0.4,0.4,0.7
	c0,0.4,0,0.9-0.2,1.2c-1.3,1.2-2.7,2.4-4,3.5c-0.5,0.5-1.1,0.5-1.6-0.1C90.6,29.99,89.7,28.89,88.6,27.79z M87.6,16.79
	c-1.6,0-3,0.1-4.4,0.5c-2.9,0.9-4.2,3.3-3.5,6.2c0.5,2.1,2.4,3.1,4.4,2.4c1.2-0.4,2-1.3,2.6-2.4C87.9,21.39,87.6,19.09,87.6,16.79z"
	/>
<path fill="#9A9A9A" d="M149.7,16.49c0,3.4-0.7,6.7-2.6,9.7c-3.6,5.8-11.3,7.4-16.6,3.5c-1.9-1.4-3.2-3.3-4.1-5.4
	c-2-5.3-2.1-10.6,0-15.9c2.7-6.7,9.9-9.5,16.2-6.2c3.2,1.6,5,4.4,6.1,7.7C149.4,11.99,149.7,14.19,149.7,16.49z M141.9,15.89
	c-0.1,0-0.1,0-0.2,0c-0.1-2.3-0.1-4.5-0.9-6.7c-0.5-1.7-1.5-2.5-3.2-2.6c-1.7-0.1-2.9,0.6-3.6,2.2c-0.3,0.5-0.5,1.1-0.6,1.7
	c-0.7,3.3-0.5,6.6-0.2,10c0.1,1.4,0.4,2.8,1.2,4c1.3,2.1,4.1,2.2,5.5,0.2c0.5-0.7,0.9-1.4,1-2.2
	C141.4,20.29,141.6,18.09,141.9,15.89z"/>
<path fill="#9A9A9A" d="M70.2,53.39c-16.2-0.2-31.4-5.8-44.4-17.3c-0.5-0.4-1-0.8-0.6-1.5c0.3-0.5,0.8-0.4,1.7,0
	c16.2,9.1,33.5,13,52,11.8c9.7-0.6,19-2.8,28-6.5c0.4-0.2,0.8-0.3,1.2-0.5c0.9-0.3,1.7-0.1,2,0.6c0.3,0.6,0.1,1.4-0.7,1.9
	c-2.1,1.4-4.2,2.8-6.5,4C93,50.99,82.4,53.39,70.2,53.39z"/>
<path fill="#9A9A9A" d="M111.3,21.39c1.3,0.1,2.4,0.1,3.6,0.2c2.2,0.2,4.3,0.8,6.3,1.9c0.8,0.4,1.2,1,1.2,1.9c0,1.3,0,2.5,0,3.8
	c0,1.1-0.6,1.4-1.6,1c-6.1-2.9-12.2-2.9-18.3,0c-0.9,0.4-1.6,0.1-1.6-0.9c0-1.5-0.1-3,0-4.5c0.1-0.8,0.4-1.7,0.9-2.4
	c3.3-4.8,6.6-9.5,9.9-14.2c0.1-0.2,0.3-0.4,0.5-0.8c-0.4,0-0.7,0-0.9,0c-2.7,0-5.3,0-8,0c-1.2,0-1.4-0.3-1.4-1.4s0-2.2,0-3.4
	c0-0.9,0.3-1.2,1.2-1.2c5.8,0,11.7,0,17.5,0c0.9,0,1.2,0.3,1.2,1.2c0,1,0.1,2,0,3c-0.1,0.7-0.5,1.5-0.9,2.1
	c-2.4,3.5-4.8,6.9-7.2,10.3c-0.7,0.9-1.3,1.9-2,2.8C111.6,20.99,111.5,21.19,111.3,21.39z"/>
<path fill="#9A9A9A" d="M108.5,35.99c-2.1,0.2-4.3,0.4-6.4,0.6c-0.4,0-1-0.1-1.1-0.3c-0.3-0.5,0.3-0.9,0.7-1.1
	c2.1-1.4,4.5-2.1,7-2.5c2.5-0.3,5-0.3,7.5,0.2c0.4,0.1,0.7,0.2,1.1,0.3c0.7,0.2,1,0.7,1.1,1.4c0.2,2.2-0.3,4.4-1,6.5
	c-0.9,2.8-2.2,5.3-4.3,7.4c-0.3,0.3-0.5,0.6-0.9,0.8c-0.3,0.2-0.7,0.1-1,0.2c0-0.3-0.2-0.7-0.1-1c0.5-1.4,1.1-2.7,1.5-4.1
	c0.5-1.7,1-3.5,1.4-5.3c0.4-1.9-0.2-2.6-2.1-2.9C110.7,36.09,109.6,36.09,108.5,35.99z"/>
</svg>
