<svg version="1.1" id="Слой_1" xmlns="http://www.w3.org/2000/svg" xmlns:xlink="http://www.w3.org/1999/xlink" x="0px" y="0px"
	 width="1362.12px" height="288px" viewBox="0 0 1362.12 288" enable-background="new 0 0 1362.12 288" xml:space="preserve">
<g id="brands-name">
	<g>
		<path fill="#9A9A9A" d="M1353.92,46.13c-0.3,0.5-0.5,1-0.8,1.5c-4.7,9.2-9.3,18.3-14,27.5c-0.2,0.3-0.3,0.4-0.7,0.4
			c-1.5,0-3,0-4.5,0c-0.1,0-0.3,0-0.5,0c0.1-0.2,0.1-0.3,0.2-0.4c1.3-2.5,2.6-4.9,3.9-7.4c0.1-0.2,0.1-0.4,0-0.6
			c-2.9-5.4-5.8-10.8-8.6-16.2c-0.1-0.1-0.1-0.2-0.2-0.3c0.6,2.1,0.4,4.3,0.4,6.5c0,2.1,0,4.2,0,6.3c0,1.2,0.1,2.4,0.1,3.6
			c0,0.2,0,0.3,0,0.5c-0.2,0-0.3,0-0.4,0c-1.2,0-2.4,0-3.6,0c-0.4,0-0.5-0.1-0.5-0.4c0-0.7,0-1.5-0.1-2.2c0-0.1,0-0.2,0-0.3h-0.1
			c-1.6,2-3.7,3-6.1,3.5c-2.5,0.5-5,0.5-7.4-0.3c-2-0.6-3.6-1.8-4.5-3.7c-0.4-1-0.6-2-0.6-3c0-0.1,0-0.1-0.1-0.2
			c0,0.1-0.1,0.2-0.1,0.3c-1.5,4-4.5,6.3-8.7,7c-2.7,0.4-5.4,0.1-8-1.1c-1.1-0.6-2.1-1.3-3-2.4c0,0.2,0,0.3,0,0.4
			c0,0.7-0.1,1.5-0.2,2.2c0,0.1-0.2,0.3-0.2,0.3c-1.5,0-3,0-4.5,0c0,0,0,0-0.1,0c0-3.1,0-6.3,0-9.4c-6.4,0-12.8,0-19.3,0
			c0,0.1,0,0.3,0,0.4c0.2,3.3,2.4,5.8,5.6,6.4c1.8,0.3,3.6,0.2,5.2-0.5c1.3-0.6,2.2-1.5,2.8-2.8c0.1-0.1,0.2-0.3,0.3-0.3
			c1.5,0,3.1,0,4.6,0c0,0,0.1,0,0.2,0c0,0.2,0,0.3-0.1,0.5c-0.7,2.4-2.2,4-4.4,5.1c-1.7,0.8-3.4,1.1-5.2,1.3c-2.3,0.1-4.6,0-6.8-0.6
			c-4.1-1.2-6.5-3.9-7.2-8.1c-0.3-2.2-0.3-4.3,0.3-6.5c0.9-3.3,2.9-5.6,6.1-6.7c3.5-1.3,7.2-1.4,10.7-0.3c3.8,1.2,6.1,3.8,6.9,7.7
			c0,0.1,0,0.2,0.2,0.4c0-0.1,0-0.3,0-0.4c0-5.4,0-10.9,0-16.3c0-0.2,0-0.4,0-0.6c1.6,0,3.2,0,4.9,0c0,0.2,0.1,0.3,0.1,0.5
			c0,3.7,0,7.4,0,11.1c0,0.1,0,0.3,0,0.5c0.1-0.1,0.1-0.1,0.2-0.2c0.9-1.1,2.1-1.9,3.4-2.5c2.2-0.9,4.4-1.1,6.7-0.9
			c2,0.2,3.9,0.8,5.5,2c2.8,2,4.2,4.9,4.4,8.2c0.1,1,0,2,0,3c0.8-1.6,2.1-2.6,3.6-3.2c2.2-0.9,4.5-1.2,6.8-1.2c2.3,0,4.5,0,6.8,0
			c0.1,0,0.3,0,0.5,0c0-0.4,0-0.7,0-1c0-1.7-0.8-3-2.3-3.8c-0.9-0.5-1.9-0.7-3-0.8c-1.4-0.1-2.7,0-4,0.6c-1.1,0.5-1.8,1.2-2.2,2.3
			c-0.1,0.3-0.2,0.4-0.5,0.4c-1.5,0-2.9,0-4.4,0c-0.1,0-0.2,0-0.4,0c0-0.1,0-0.2,0-0.3c0.1-1,0.5-1.9,1.1-2.7c1-1.3,2.4-2.2,4-2.6
			c3.2-1,6.5-1.1,9.9-0.4c1.9,0.4,3.6,1.2,4.8,2.6c0,0,0.1,0,0.2,0.1c-0.4-0.8-0.8-1.5-1.2-2.3c0.2,0,0.3,0,0.4,0c1.6,0,3.3,0,4.9,0
			c0.3,0,0.5,0.1,0.6,0.4c2.6,5.2,5.2,10.5,7.8,15.7c0.1,0.1,0.1,0.3,0.2,0.5c0.1-0.2,0.2-0.3,0.2-0.5c2.6-5.2,5.2-10.5,7.8-15.8
			c0.1-0.3,0.3-0.4,0.6-0.4C1350.72,46.13,1352.32,46.13,1353.92,46.13z M1301.42,56.73c0-0.3,0-0.5,0-0.8c-0.3-4.1-2.9-7.1-7.1-7.3
			c-3.3-0.2-6.1,1.3-7.4,4.5c-1,2.3-1,4.7-0.1,7.1c2.1,5.4,8.8,5.9,12.1,2.7C1300.62,61.23,1301.32,59.13,1301.42,56.73z
			 M1324.22,57.23c-0.1,0-0.1,0-0.2,0c-2.6,0.1-5.2,0.1-7.8,0.3c-1.2,0.1-2.4,0.3-3.5,1c-0.9,0.5-1.4,1.2-1.5,2.3
			c-0.2,1.9,0.9,3.4,2.9,4c1.6,0.5,3.2,0.4,4.8,0.1C1322.62,64.03,1324.62,61.13,1324.22,57.23z M1276.12,54.73c0-0.2,0-0.3,0-0.4
			c-0.2-2.4-1.3-4.2-3.6-5.2c-2.6-1.1-5.2-0.9-7.7,0.6c-1.2,0.7-2,1.7-2.5,3c-0.2,0.7-0.4,1.3-0.4,2.1
			C1266.72,54.73,1271.32,54.73,1276.12,54.73z"/>
		<rect x="1256.52" y="36.93" opacity="0" fill="#9A9A9A" width="94.82" height="40.2"/>
	</g>
	<g>
		<path fill="#9A9A9A" d="M186.32,55.93c-0.4,0.5-0.9,0.6-1.5,0.6c-1.5,0-3,0-4.5,0c-1.2,0-1.4-0.3-1.4-1.5c0-5.6,0-11.1,0-16.7
			c0-1-0.1-2-0.4-3c-0.3-1.2-1-2.1-2.3-2.3c-1.4-0.2-2.5,0.2-3.3,1.3c-0.9,1.2-1.2,2.6-1.3,4.1c-0.1,3.3-0.1,6.5-0.1,9.8
			c0,2.3,0,4.5,0,6.8c0,1.1-0.3,1.5-1.4,1.5c-1.6,0-3.1,0-4.7,0c-1,0-1.3-0.3-1.3-1.3c0-9.1,0-18.1,0-27.2c0-0.9,0.3-1.3,1.3-1.3
			c1.5,0,3,0,4.5,0c0.9,0,1.2,0.3,1.2,1.2c0,1.2,0,2.3,0.2,3.6c0.2-0.3,0.3-0.7,0.5-1c0.9-1.8,2.2-3.4,4.2-4
			c1.9-0.6,3.8-0.6,5.7,0.1c2.8,1.1,4.1,3.3,4.5,6.1c0.1,0.6,0.2,1.3,0.3,1.9C186.32,41.83,186.32,48.93,186.32,55.93z"/>
		<path fill="#9A9A9A" d="M47.62,31.13c2.3-6.4,11.9-6.9,14.3,0c0.2-0.2,0.3-0.5,0.4-0.7c2.3-4.6,8.8-5.7,12.5-2.2
			c1.4,1.3,2.1,3,2.2,4.9c0.1,1.8,0.1,3.6,0.1,5.3c0,5.5,0,11,0,16.5c0,1.3-0.3,1.6-1.6,1.6c-1.5,0-2.9,0-4.4,0
			c-1.2,0-1.5-0.3-1.5-1.5c0-5.4,0-10.7,0-16.1c0-0.9,0-1.8-0.1-2.7c-0.1-1.6-0.8-2.6-2-3c-1.6-0.5-3.2,0-4.1,1.2
			c-0.4,0.7-0.7,1.5-0.9,2.4c-0.2,1-0.2,1.9-0.2,2.9c0,5.1,0,10.1,0,15.2c0,1.2-0.3,1.5-1.5,1.5c-1.5,0-3.1,0-4.6,0
			c-1.1,0-1.4-0.3-1.4-1.4c0-5.5,0-11.1,0-16.6c0-1-0.1-2.1-0.3-3.1c-0.3-1.5-1.3-2.2-2.7-2.3c-1.6-0.1-2.8,0.5-3.4,1.9
			c-0.4,0.9-0.6,2-0.6,3c-0.1,5.6-0.1,11.2-0.1,16.7c0,0.3,0,0.5,0,0.8c0,0.6-0.4,1-1,1c-1.8,0-3.6,0-5.4,0c-0.6,0-1-0.4-1-1
			c0-0.2,0-0.4,0-0.6c0-8.8,0-17.6,0-26.5c0-1.5,0.2-1.7,1.7-1.7c1.3,0,2.7,0,4,0c1.1,0,1.4,0.3,1.4,1.3
			C47.62,29.13,47.62,30.13,47.62,31.13z"/>
		<path fill="#9A9A9A" d="M27.62,53.03c-0.7,0.6-1.3,1.2-2,1.7c-3.1,2.4-6.6,2.8-10.2,1.6c-3-0.9-4.8-3.7-4.9-7.2
			c-0.2-5.3,2.8-9.1,8.2-10.3c2.3-0.5,4.7-0.7,7-1c0.6-0.1,0.8-0.3,0.8-0.9c-0.1-0.9,0-1.9-0.3-2.8c-0.1-0.6-0.5-1.3-1-1.7
			c-2.2-1.7-5.9-0.5-6.7,2.1c-0.4,1.3-0.5,1.4-1.9,1.3c-1.3-0.1-2.7-0.3-4-0.4c-1.1-0.1-1.4-0.5-1.1-1.6c0.8-3.5,2.9-5.7,6.2-6.9
			c3.7-1.3,7.4-1.4,11.1-0.1c3.3,1.2,5.1,3.6,5.3,7.2c0.1,3.4,0.1,6.9,0.1,10.3c0,0.7,0,1.3,0,2c0,1.6,0.4,3,1.4,4.3
			c0.2,0.3,0.4,0.5,0.6,0.8c0.5,0.7,0.4,1.1-0.2,1.7c-1.2,1.1-2.5,2.1-3.7,3.2c-0.7,0.6-1.2,0.7-1.9,0c-0.8-0.8-1.4-1.6-2.1-2.4
			C28.02,53.63,27.82,53.33,27.62,53.03z M26.52,42.13c-1-0.2-3.1,0-4.3,0.4c-2.9,0.9-4.2,3.1-3.6,6.1c0.4,2.2,2.4,3.3,4.5,2.5
			c1.1-0.4,1.9-1.3,2.5-2.3C26.82,46.73,26.52,44.43,26.52,42.13z"/>
		<path fill="#9A9A9A" d="M98.82,53.13c-0.6,0.5-1.2,1.1-1.9,1.7c-3.1,2.3-6.6,2.7-10.1,1.6c-3-0.9-4.8-3.7-4.9-7.1
			c-0.2-5.1,2.2-8.8,7.2-10.1c2.6-0.7,5.3-0.9,8-1.3c0.6-0.1,0.9-0.3,0.8-0.9c-0.1-0.9,0-1.8-0.2-2.7c-0.2-1.2-1-2-2.2-2.3
			c-2.5-0.8-5,0.5-5.7,3c-0.3,0.9-0.5,1.1-1.5,1c-1.5-0.1-2.9-0.3-4.4-0.5c-1.1-0.1-1.3-0.5-1.1-1.6c0.7-3.1,2.5-5.3,5.4-6.6
			c3.9-1.8,8-1.9,12-0.5c3.4,1.2,5.2,3.7,5.3,7.3c0.1,3.8,0.1,7.7,0.1,11.5c0,2.1,0.5,3.9,1.8,5.5c0.2,0.2,0.4,0.4,0.4,0.7
			c0,0.4,0,0.9-0.2,1.2c-1.3,1.2-2.7,2.4-4,3.5c-0.5,0.5-1.1,0.5-1.6-0.1C100.82,55.33,99.92,54.23,98.82,53.13z M97.82,42.13
			c-1.6,0-3,0.1-4.4,0.5c-2.9,0.9-4.2,3.3-3.5,6.2c0.5,2.1,2.4,3.1,4.4,2.4c1.2-0.4,2-1.3,2.6-2.4
			C98.12,46.73,97.82,44.43,97.82,42.13z"/>
		<path fill="#9A9A9A" d="M159.92,41.83c0,3.4-0.7,6.7-2.6,9.7c-3.6,5.8-11.3,7.4-16.6,3.5c-1.9-1.4-3.2-3.3-4.1-5.4
			c-2-5.3-2.1-10.6,0-15.9c2.7-6.7,9.9-9.5,16.2-6.2c3.2,1.6,5,4.4,6.1,7.7C159.62,37.33,159.92,39.53,159.92,41.83z M152.12,41.23
			c-0.1,0-0.1,0-0.2,0c-0.1-2.3-0.1-4.5-0.9-6.7c-0.5-1.7-1.5-2.5-3.2-2.6c-1.7-0.1-2.9,0.6-3.6,2.2c-0.3,0.5-0.5,1.1-0.6,1.7
			c-0.7,3.3-0.5,6.6-0.2,10c0.1,1.4,0.4,2.8,1.2,4c1.3,2.1,4.1,2.2,5.5,0.2c0.5-0.7,0.9-1.4,1-2.2
			C151.62,45.63,151.82,43.43,152.12,41.23z"/>
		<path fill="#9A9A9A" d="M80.42,78.73c-16.2-0.2-31.4-5.8-44.4-17.3c-0.5-0.4-1-0.8-0.6-1.5c0.3-0.5,0.8-0.4,1.7,0
			c16.2,9.1,33.5,13,52,11.8c9.7-0.6,19-2.8,28-6.5c0.4-0.2,0.8-0.3,1.2-0.5c0.9-0.3,1.7-0.1,2,0.6c0.3,0.6,0.1,1.4-0.7,1.9
			c-2.1,1.4-4.2,2.8-6.5,4C103.22,76.33,92.62,78.73,80.42,78.73z"/>
		<path fill="#9A9A9A" d="M121.52,46.73c1.3,0.1,2.4,0.1,3.6,0.2c2.2,0.2,4.3,0.8,6.3,1.9c0.8,0.4,1.2,1,1.2,1.9c0,1.3,0,2.5,0,3.8
			c0,1.1-0.6,1.4-1.6,1c-6.1-2.9-12.2-2.9-18.3,0c-0.9,0.4-1.6,0.1-1.6-0.9c0-1.5-0.1-3,0-4.5c0.1-0.8,0.4-1.7,0.9-2.4
			c3.3-4.8,6.6-9.5,9.9-14.2c0.1-0.2,0.3-0.4,0.5-0.8c-0.4,0-0.7,0-0.9,0c-2.7,0-5.3,0-8,0c-1.2,0-1.4-0.3-1.4-1.4
			c0-1.1,0-2.2,0-3.4c0-0.9,0.3-1.2,1.2-1.2c5.8,0,11.7,0,17.5,0c0.9,0,1.2,0.3,1.2,1.2c0,1,0.1,2,0,3c-0.1,0.7-0.5,1.5-0.9,2.1
			c-2.4,3.5-4.8,6.9-7.2,10.3c-0.7,0.9-1.3,1.9-2,2.8C121.82,46.33,121.72,46.53,121.52,46.73z"/>
		<path fill="#9A9A9A" d="M118.72,61.33c-2.1,0.2-4.3,0.4-6.4,0.6c-0.4,0-1-0.1-1.1-0.3c-0.3-0.5,0.3-0.9,0.7-1.1
			c2.1-1.4,4.5-2.1,7-2.5c2.5-0.3,5-0.3,7.5,0.2c0.4,0.1,0.7,0.2,1.1,0.3c0.7,0.2,1,0.7,1.1,1.4c0.2,2.2-0.3,4.4-1,6.5
			c-0.9,2.8-2.2,5.3-4.3,7.4c-0.3,0.3-0.5,0.6-0.9,0.8c-0.3,0.2-0.7,0.1-1,0.2c0-0.3-0.2-0.7-0.1-1c0.5-1.4,1.1-2.7,1.5-4.1
			c0.5-1.7,1-3.5,1.4-5.3c0.4-1.9-0.2-2.6-2.1-2.9C120.92,61.43,119.82,61.43,118.72,61.33z"/>
		<rect x="10.51" y="23.34" opacity="0" fill="#9A9A9A" width="176.01" height="56.43"/>
	</g>
	<g>
		<path fill="#9A9A9A" d="M505.77,37.84h12.7l7.4,18.9l7.5-18.9h12.4l-18.6,44.8h-12.5l5.1-11.9L505.77,37.84z"/>
		<path fill="#9A9A9A" d="M558.67,37.14c-9.6,0-15.6,8.6-15.6,17.1c0,9.6,6.6,17.2,15.4,17.2c6.6,0,9-4,9-4v3.1h11.1v-32.7h-11.1v3
			C567.57,40.84,564.77,37.14,558.67,37.14z M561.07,47.64c4.4,0,6.7,3.5,6.7,6.6c0,3.4-2.4,6.7-6.7,6.7c-3.5,0-6.7-2.9-6.7-6.6
			C554.37,50.64,556.87,47.64,561.07,47.64z"/>
		<path fill="#9A9A9A" d="M582.47,70.54v-47.1h11.6v17.5c0,0,2.8-3.8,8.5-3.8c7.1,0,11.2,5.3,11.2,12.8v20.6h-11.5v-17.8
			c0-2.5-1.2-5-4-5s-4.2,2.5-4.2,5v17.8H582.47z"/>
		<path fill="#9A9A9A" d="M633.47,37.14c-10.9,0-17.5,8.3-17.5,17.2c0,10.1,7.9,17.1,17.5,17.1c9.3,0,17.5-6.6,17.5-16.9
			C650.97,43.24,642.47,37.14,633.47,37.14z M633.57,47.74c3.9,0,6.5,3.2,6.5,6.6c0,2.9-2.5,6.5-6.5,6.5c-3.7,0-6.5-3-6.5-6.6
			C627.17,50.84,629.47,47.74,633.57,47.74z"/>
		<path fill="#9A9A9A" d="M670.37,37.14c-10.9,0-17.5,8.3-17.5,17.2c0,10.1,7.9,17.1,17.5,17.1c9.3,0,17.5-6.6,17.5-16.9
			C687.87,43.24,679.27,37.14,670.37,37.14z M670.47,47.74c3.9,0,6.5,3.2,6.5,6.6c0,2.9-2.5,6.5-6.5,6.5c-3.7,0-6.5-3-6.5-6.6
			C663.97,50.84,666.27,47.74,670.47,47.74z"/>
		<path fill="#9A9A9A" d="M696.97,71.24c4.25,0,7.7-3.45,7.7-7.7c0-4.25-3.45-7.7-7.7-7.7c-4.25,0-7.7,3.45-7.7,7.7
			C689.27,67.8,692.72,71.24,696.97,71.24z"/>
		<path fill="#9A9A9A" d="M707.17,52.94h-13.9l12.3-29.6h13.8L707.17,52.94z"/>
		<rect x="498.52" y="23.34" opacity="0" fill="#9A9A9A" width="225.23" height="59.3"/>
	</g>
	<g>
		<path fill="#9A9A9A" d="M929.12,26.73c1.4,0,2.7,0,4,0c6.9,0,13.8,0,20.8,0.1c5.8,0.1,10.7,4,12,9.6c0.9,4,0.3,7.8-2.4,11.1
			c-1.2,1.5-2.8,2.5-4.6,3.2c-0.2,0.1-0.5,0.2-0.9,0.4c0.3,0.1,0.5,0.2,0.7,0.3c5.2,1.8,8.2,5.7,8.5,11.2c0.2,3.1-0.3,6-2,8.6
			c-2.3,3.5-5.6,5.4-9.7,5.8c-2.9,0.3-5.9,0.3-8.9,0.3c-5.6,0-11.2,0-16.8,0c-0.2,0-0.4,0-0.7,0
			C929.12,60.43,929.12,43.63,929.12,26.73z M940.02,56.13c0,0.3-0.1,0.3-0.1,0.4c0,3.6,0,7.2,0,10.7c0,0.5,0.2,0.6,0.6,0.6
			c3.4,0,6.9,0,10.3-0.1c3.2-0.1,5.3-2.2,5.5-5.3c0.2-3.2-1.7-5.6-4.8-5.9C947.72,56.13,943.82,56.23,940.02,56.13z M939.92,36.23
			c0,3.5,0,7,0,10.5c0.1,0,0.1,0.1,0.1,0.1c3.3,0,6.7,0.1,10-0.1c2-0.1,3.7-0.9,4.7-2.8c1.6-3.4-0.3-7.3-4-7.6
			C947.22,36.03,943.62,36.23,939.92,36.23z"/>
		<path fill="#9A9A9A" d="M1075.52,26.83c11.7,0,23.4,0,35.1,0c0,0.8,0,1.6,0,2.4c0,1.9,0,3.8,0,5.6c0,1.1-0.2,1.3-1.3,1.3
			c-2.2,0-4.4,0-6.6,0c-5.3,0-10.6,0-15.9,0c-0.2,0-0.3,0-0.5,0c0,3.5,0,7,0,10.6c0.3,0,0.6,0,0.8,0c5.2,0,10.4,0,15.7,0
			c0.2,0,0.5,0,0.7,0c0.8,0.1,1.1,0.3,1.1,1.1c0,2.7,0,5.3,0,8c0,0.1,0,0.1-0.1,0.3c-6.1,0-12.1,0-18.3,0c0,7,0,14,0,21
			c-3.6,0-7.1,0-10.7,0C1075.52,60.43,1075.52,43.63,1075.52,26.83z"/>
		<path fill="#9A9A9A" d="M1144.22,62.03c-9.1,0-18.1,0-27.3,0c0.2,0.7,0.3,1.4,0.6,2c1.2,3.3,3.7,5,7,5.9c4,1,7.7,0,11.1-2
			c0.4-0.3,0.9-0.6,1.3-0.8c0.2-0.1,0.5-0.1,0.6,0c1.4,2,2.7,4,4.2,6.1c-1.4,0.9-2.8,1.8-4.2,2.5c-2.5,1.3-5.1,1.9-7.9,2.2
			c-1.2,0.1-2.4,0.3-3.6,0.3c-4.3-0.2-8.3-1.3-11.8-3.8c-4.1-3-6.3-7-7.1-11.9c-0.5-3.5-0.2-7,0.9-10.4c1.5-4.7,4.5-8.1,8.9-10.2
			c4.6-2.2,9.3-2.9,14.2-1.5c6.4,1.8,10.3,6.2,12.2,12.5C1144.02,55.43,1144.42,59.53,1144.22,62.03z M1134.92,55.33
			c0-0.4,0-0.7-0.1-1.1c-0.3-1.9-1.2-3.4-2.6-4.5c-2.2-1.7-4.7-2.3-7.3-2.1c-3.1,0.3-5.5,1.7-7,4.4c-0.6,1-0.9,2.1-0.7,3.3
			C1123.02,55.33,1128.92,55.33,1134.92,55.33z"/>
		<path fill="#9A9A9A" d="M1176.62,66.83c1.4,2.1,2.9,4.2,4.4,6.4c-1.2,0.8-2.3,1.6-3.5,2.2c-2.6,1.5-5.5,2.2-8.5,2.5
			c-1.3,0.1-2.5,0.3-3.8,0.3c-4.5-0.3-8.8-1.4-12.4-4.3c-4.1-3.4-6.2-7.7-6.6-13c-0.3-3.5,0.1-7,1.6-10.2c2.9-6.2,7.8-9.8,14.6-10.8
			c4.4-0.7,8.6,0,12.4,2.3c4.3,2.6,6.8,6.5,8,11.3c0.7,2.8,0.8,5.6,0.7,8.5c-9,0-18,0-27.1,0c0.1,1.4,0.5,2.6,1.2,3.6
			c2.4,3.5,5.7,4.9,9.8,4.6c3.3-0.2,6.4-1.2,9-3.3C1176.52,66.93,1176.52,66.93,1176.62,66.83z M1156.42,55.33c6,0,11.9,0,17.8,0
			c0.1-1.7-0.4-3.1-1.4-4.4c-3.3-4.2-10.4-4.5-14.3-0.7C1157.12,51.63,1156.32,53.33,1156.42,55.33z"/>
		<path fill="#9A9A9A" d="M1186.02,59.03c0-5.6,0-11.1,0-16.7c0-0.3,0-0.5,0-0.8c0-0.8,0.2-1,1-1c2.3,0,4.6-0.1,6.9,0
			c3.4,0.1,6.9,0.1,10.3,0.3c8.9,0.6,15.5,6.8,16.4,15.8c0.7,6.1-1,11.4-5.5,15.7c-3.1,3-6.9,4.6-11.2,4.8
			c-5.8,0.2-11.6,0.1-17.4,0.2c-0.6,0-0.6-0.3-0.6-0.8C1186.02,70.73,1186.02,64.93,1186.02,59.03z M1195.22,48.33
			c0,7.1,0,14.1,0,21.1c2.8-0.1,5.7,0.3,8.4-0.4c3-0.7,5.3-2.4,6.6-5.3c1.1-2.3,1.4-4.7,1-7.2c-0.7-4.1-3.7-7.3-7.8-7.9
			C1200.82,48.33,1198.02,48.43,1195.22,48.33z"/>
		<path fill="#9A9A9A" d="M969.32,40.83c3.2,0,6.4,0,9.6,0c0,0.3,0,0.6,0,0.9c0,6.7,0,13.3,0,20c0,0.9,0.1,1.7,0.2,2.6
			c0.4,2.4,1.8,4,4,4.9c2.3,0.9,4.6,1.1,6.9,0.1c3-1.2,4.4-3.5,4.4-6.7c0-7,0-14,0-20.9c0-0.3,0-0.5,0-0.9c3.2,0,6.3,0,9.5,0
			c0,0.1,0.1,0.2,0.1,0.3c0,7.7,0.1,15.3-0.1,23c-0.1,7.2-5.2,12.6-12.3,13.8c-2.4,0.4-4.9,0.6-7.3,0.3c-5.3-0.6-10-2.2-13-7
			c-1.5-2.4-2.1-5-2.1-7.8c0-7.4,0-14.7,0-22.1C969.32,41.23,969.32,41.03,969.32,40.83z"/>
		<path fill="#9A9A9A" d="M1020.12,68.73c5.7,0,11.3,0,16.9,0c0,2.8,0,5.6,0,8.4c-9.9,0-19.8,0-29.9,0c0-1.2,0.1-2.5,0-3.7
			c-0.2-2.4,0.5-4.3,2.1-6.1c4.6-5.6,9-11.3,13.4-16.9c0.3-0.4,0.6-0.8,1-1.4c-5.5,0-10.9,0-16.3,0c0-2.8,0-5.5,0-8.2
			c9.8,0,19.7,0,29.6,0c0,0.3,0,0.5,0,0.7c0,1.2,0,2.4,0,3.5c0.1,1.6-0.4,3-1.4,4.2c-3,3.7-6,7.5-8.9,11.2c-2,2.5-4,5.1-6,7.6
			C1020.52,68.23,1020.42,68.43,1020.12,68.73z"/>
		<path fill="#9A9A9A" d="M1052.62,68.83c4.6,0,8.9,0,13.3,0c1,0,1.9,0,2.9,0c0.6,0,0.9,0.3,0.9,0.9c0,2.5,0,4.9,0,7.5
			c-10,0-19.9,0-29.9,0c0-0.6,0-1.2,0-1.8c0-1.5,0-3.1,0-4.6c0-0.6,0.2-1,0.5-1.4c5.1-6.4,10.2-12.9,15.2-19.3
			c0.2-0.3,0.4-0.5,0.7-0.9c-5.5,0-11,0-16.4,0c0-2.8,0-5.5,0-8.2c9.9,0,19.7,0,29.5,0c0,2.2,0,4.3,0,6.5c0,0.3-0.3,0.7-0.5,1
			c-4.9,6.3-9.9,12.5-14.8,18.8C1053.52,67.63,1053.12,68.13,1052.62,68.83z"/>
		<rect x="929.12" y="23.44" opacity="0" fill="#9A9A9A" width="291.65" height="55.31"/>
	</g>
	<g>
		<path fill="#9A9A9A" d="M807.32,58.83c-1,3-2.7,5.2-5.2,6.7c-2.7,1.6-5.7,2.1-8.7,2.2c-2.6,0.1-5.2-0.1-7.7-1
			c-4.2-1.6-6.7-4.6-7.3-9c-0.6-4.2,0-8.2,2.2-11.9c2.2-3.7,5.6-6,9.8-7.1c4.3-1.1,8.4-0.9,12.4,1.2c4,2.1,6.1,5.4,6.3,9.9
			c0.1,1.6-0.2,3.3-0.4,5c0,0.5-0.3,0.6-0.8,0.6c-6.3,0-12.5,0-18.8,0c-0.2,0-0.5,0-0.7,0c-0.6,2.8,1.3,5.3,4,5.5
			c1.7,0.1,3.3-0.3,4.4-1.7c0.1-0.1,0.3-0.2,0.4-0.2c1.5,0,3,0,4.7,0c-0.5,0.7-0.9,1.4-1.3,2c-2.6,3.2-8.3,4.4-12,2.7
			c-2.6-1.2-4.1-3.4-4.9-6.2c-1.5-5.2,1.1-11.8,5.8-14.4c3.5-1.9,7.2-1.7,10.6,0.3c2.4,1.4,3.4,3.8,3.7,6.5c0.1,0.6,0,1.2,0.1,1.8
			c0,0.4-0.2,0.6-0.6,0.6c-2.1,0-4.1,0-6.2,0c-2.6,0-5.3,0-7.9,0c-0.4,0-0.7,0-0.6,0.6c0.2,0,0.4,0,0.6,0c4.8,0,9.7,0,14.5,0
			c0.6,0,0.8-0.2,0.8-0.8c0.1-2.4-0.2-4.8-1.5-6.9c-1.6-2.5-3.9-3.5-6.7-3.9c-7.1-1-11.3,3.9-12.8,9c-1,3.5-0.9,6.9,1,10.1
			c2,3.5,5.6,5.1,9.7,4.5c3.8-0.5,6.6-2.3,8.5-5.6c0.1-0.1,0.3-0.3,0.4-0.3C804.42,58.83,805.82,58.83,807.32,58.83z M789.32,49.63
			c0.1,0,0.2,0,0.2,0c3,0,5.9,0,8.9,0c0.4,0,0.5-0.2,0.5-0.5c0.3-1.9-0.9-3.6-2.8-4.1c-0.6-0.1-1.3-0.2-2-0.1
			C791.82,45.13,789.62,47.33,789.32,49.63z"/>
		<path fill="#9A9A9A" d="M869.22,79.53c-1.2-0.2-2.6-0.5-3.9-0.8c-5.2-1-10.4-1.7-15.7-2.2c-6.4-0.6-12.9-0.8-19.4-0.6
			c-14.3,0.4-28.3,2.8-41.7,7.9c-2.4,0.9-4.8,2-7.2,3c-0.3,0.1-0.7,0.4-1,0c-0.3-0.4-0.5-0.9-0.1-1.4c0.3-0.3,0.7-0.6,1.1-0.8
			c7.1-3.9,14.5-6.8,22.2-9c6.8-1.9,13.7-3.3,20.7-4.1c7.6-0.9,15.2-1.2,22.9-1c8.1,0.2,16.2,0.9,24.2,2.5c0.2,0,0.4,0.1,0.6,0.1
			c1.4,0.3,1.9,1.1,1.5,2.5c-0.2,0.7-0.5,1.4-0.8,2C871.92,78.83,870.72,79.43,869.22,79.53z"/>
		<path fill="#9A9A9A" d="M774.22,39.23c-1.8,0-3.6,0-5.4,0c0-0.4-0.1-0.7-0.1-1c-0.2-1.2-0.8-2.2-2-2.6c-2.1-0.8-4.2-0.8-6.2,0
			c-1.1,0.4-1.8,1.2-1.9,2.5c-0.1,1.1,0.3,1.9,1.3,2.4c1.2,0.5,2.5,0.9,3.7,1.3c2.7,0.7,5.3,1.4,7.7,2.8c3.4,1.9,5.7,4.6,6,8.6
			c0.5,5.1-1.7,8.8-5.9,11.5c-2.5,1.6-5.2,2.3-8.1,2.7c-3.3,0.4-6.7,0.3-10-0.5c-6.3-1.7-10-6.7-9.9-13.2c0-0.1,0-0.2,0-0.4
			c1.7,0,3.3,0,5.1,0c0,0.2,0,0.5,0,0.8c0.1,4.3,2.4,7.5,6.5,8.9c3.7,1.2,7.4,1.2,11-0.1c4.2-1.6,6.3-5.2,5.7-9.5
			c-0.3-1.9-1.4-3.3-3-4.3c-1.7-1.1-3.6-1.6-5.4-2.2c-2.1-0.7-4.2-1.3-6.2-2.3c-2.9-1.3-3.9-3.6-3.4-6.7c0.5-2.9,2.2-4.8,4.8-5.9
			c3.6-1.5,7.2-1.5,10.8-0.2C772.62,32.63,774.62,35.93,774.22,39.23z"/>
		<path fill="#9A9A9A" d="M749.12,53.03c1.6,0,3.2,0,4.9,0c0.1,0.6,0.1,1.2,0.2,1.7c0.3,1.7,1.2,2.8,2.8,3.3
			c2.3,0.7,4.6,0.8,6.9,0.2c1.8-0.5,2.8-1.7,2.8-3.4c0-1.3-0.7-2.3-1.8-2.8c-1.4-0.7-2.9-1.2-4.4-1.7c-2.5-0.7-5-1.4-7.3-2.7
			c-4.3-2.4-6.1-6.2-5.2-11c0.9-4.7,3.9-7.5,8.1-9.2c3.2-1.3,6.6-1.6,10.1-1.3c2.2,0.2,4.3,0.5,6.3,1.4c4.3,1.8,6.6,5.1,6.9,9.7
			c0,0.6,0,1.2,0,1.9c-1.5,0-3,0-4.5,0c-0.1-0.6-0.1-1.3-0.2-1.9c-0.5-3.3-2.3-5.5-5.5-6.4c-4-1.2-8-1.1-11.7,0.8
			c-3.3,1.7-4.9,5.3-4.2,8.9c0.4,2,1.7,3.4,3.5,4.3c2.1,1.2,4.5,1.7,6.8,2.4c1.4,0.5,2.8,0.9,4.1,1.6c3.1,1.5,4.2,4,3.5,7.3
			c-0.5,2.7-2.2,4.6-4.7,5.7c-4.2,1.8-8.4,1.8-12.5-0.2c-3.2-1.6-4.8-4.3-4.9-7.9c0-0.2,0-0.3,0-0.5
			C749.12,53.23,749.12,53.13,749.12,53.03z"/>
		<path fill="#9A9A9A" d="M834.12,49.03c-0.3,1.3-0.5,2.5-0.7,3.7c-0.7,3.6-1.4,7.2-2.1,10.8c-0.3,1.6-0.2,1.9,0.7,3.4
			c-1.8,0-3.5,0-5.3,0c0-0.4-0.1-0.7-0.1-1.1c-0.1,0.1-0.3,0.1-0.4,0.1c-4.1,2-8.4,2.2-12.8,1.1c-3.5-0.9-5.2-3.5-5.2-7.1
			c0-2.5,0.6-4.8,2.5-6.5c1.6-1.5,3.6-2.2,5.7-2.7c2.6-0.6,5.2-0.7,7.8-0.9c1.2-0.1,2.4-0.2,3.6-0.5c1.5-0.4,2.2-1.6,2-3
			c-0.2-1-0.8-1.7-2-1.9c-0.9-0.1-1.9-0.1-2.9,0c-1.3,0.2-2.2,1-2.6,2.2c-0.1,0.4-0.3,0.5-0.7,0.5c-1.5,0-3.1,0-4.8,0
			c0.4-0.9,0.8-1.6,1.2-2.3c0.9-1.3,2.3-2.1,3.7-2.6c3.2-1,6.4-1.1,9.6-0.2c0.8,0.2,1.7,0.7,2.4,1.2c0.9,0.7,1.1,1.6,1,2.8
			c-0.1,1.4-0.9,2.4-1.9,3.2c-2,1.6-4.4,2.2-6.8,2.7c-2.4,0.4-4.8,0.8-7.1,1.4c-1.9,0.4-3.5,1.4-4.8,2.9c-1.2,1.4-1.6,3.1-1.4,4.9
			c0.2,1.4,1,2.4,2.2,3.1c1.1,0.6,2.3,0.8,3.5,0.9c2.7,0.1,5.2-0.2,7.6-1.6c0.5-0.3,0.8-0.7,1.2-1.1c0-0.1-0.1-0.1-0.1-0.2
			c-0.1,0-0.2,0-0.2,0.1c-1.6,1.3-3.6,1.8-5.6,2c-1.6,0.2-3.2,0.2-4.8-0.3c-1.6-0.4-2.9-1.2-3.2-3c-0.3-1.5-0.1-3.1,1-4.3
			c0.7-0.8,1.6-1.5,2.5-2c2.1-1.2,4.5-1.6,6.8-1.9c2.3-0.3,4.7-0.6,6.9-1.6c1.1-0.5,2.2-1.3,3.2-2
			C833.82,49.33,833.92,49.23,834.12,49.03z M828.22,54.53c-0.9,0.2-1.6,0.4-2.4,0.5c-1.4,0.4-2.9,0.6-4.3,1.1
			c-0.8,0.3-1.5,0.8-2,1.4c-1,1.1-0.6,2.7,0.7,3.3c1.8,0.9,4.6,0.4,5.9-1.1C827.52,58.43,827.92,56.53,828.22,54.53z"/>
		<path fill="#9A9A9A" d="M886.32,47.23c-1.5,0-3,0-4.5,0c0-0.1-0.1-0.2-0.1-0.4c-0.1-1.7-0.8-2.5-2.5-2.9c-1.3-0.3-2.6-0.2-3.9,0.3
			c-0.3,0.1-0.5,0.2-0.7,0.4c-1.3,1-1.2,2.6,0.2,3.3c1,0.5,2.2,0.8,3.3,1.1c2.1,0.6,4.2,1,6.3,1.7c2.9,1,4.3,3.1,4.5,6.2
			c0.2,4.6-1.9,7.8-6.2,9.3c-4.9,1.7-9.9,1.9-14.8,0.6c-4.3-1.2-6.9-4.9-6.7-9.1c1.2,0,2.5,0,3.8,0c0,0.3,0.1,0.5,0.1,0.8
			c0.6,2.8,2.2,4.7,5,5.5c3.5,1.1,7.1,0.9,10.5-0.4c1.3-0.5,2.5-1.4,3.3-2.6c1.4-2.1,1.3-5.9-2-7.4c-1.6-0.7-3.3-1.1-5-1.6
			s-3.3-1-5-1.6c-0.7-0.2-1.3-0.7-1.8-1.1c-1.2-0.9-1.5-2.1-1.2-3.6c0.5-1.9,1.7-3.2,3.5-3.9c3.3-1.3,6.7-1.3,10.1-0.2
			c2.2,0.8,3.5,2.3,3.8,4.7C886.32,46.73,886.32,46.93,886.32,47.23z"/>
		<path fill="#9A9A9A" d="M890.42,47.23c-1.3,0-2.4,0-3.5,0c-0.2-0.8-0.3-1.6-0.5-2.3c-0.7-1.8-2-3-3.8-3.5c-3.5-1.2-7-1.1-10.4,0.2
			c-2.1,0.8-3.4,2.3-3.9,4.6c-0.3,1.5,0.2,2.7,1.3,3.6c1.4,1.2,3.1,1.8,4.8,2.3c1.8,0.5,3.6,1,5.4,1.5c0.5,0.1,1,0.3,1.4,0.5
			c3.5,1.5,3.6,5.7,1.2,7.9c-1.3,1.2-2.9,1.8-4.6,2.1c-2.7,0.5-5.4,0.5-8.1-0.4c-2.4-0.9-3.8-2.6-4.3-5.1c0-0.1,0-0.3-0.1-0.4
			c0-0.1,0-0.2,0-0.3c1.5,0,2.9,0,4.4,0c0.6,3.1,2.4,4.4,5.6,4c0.7-0.1,1.5-0.3,2.2-0.6c1-0.4,1.5-1.2,1.5-2.3s-0.7-1.8-1.7-2.1
			c-1.6-0.5-3.2-0.8-4.8-1.3c-1.3-0.4-2.7-0.6-4-1.1c-3.7-1.4-5.1-4-4.6-8.1c0.4-2.7,1.9-4.6,4.3-5.9c2.3-1.3,4.9-1.8,7.5-2
			c3-0.2,5.9-0.2,8.8,0.8c1.2,0.4,2.3,1,3.3,1.8C890.02,42.43,890.62,44.63,890.42,47.23z"/>
		<path fill="#9A9A9A" d="M837.02,67.03c-1.2,0-2.6,0-4,0c-0.5,0-1.3-1.2-1.3-1.9c0-0.6,0.1-1.1,0.2-1.7c1.1-5.7,2.2-11.3,3.4-17
			c0.3-1.7-0.3-3.1-1.9-4.1c-1.3-0.8-2.8-1.1-4.3-1.2c-2.6-0.2-5.2-0.1-7.7,0.8c-2.5,0.9-4.3,2.4-5,5c0,0.2-0.2,0.4-0.4,0.4
			c-1.3,0-2.6,0-4,0c0.1-0.3,0.1-0.6,0.2-0.8c1.1-4.1,3.8-6.8,8-7.7c4.8-1.1,9.6-1,14.3,0.2c0.9,0.2,1.8,0.6,2.6,1.1
			c2.2,1.2,3.3,3.2,3.2,5.7c-0.2,2.1-0.5,4.2-0.9,6.3c-0.8,3.9-1.7,7.8-2.4,11.7C836.72,64.83,837.02,65.93,837.02,67.03z"/>
		<path fill="#9A9A9A" d="M864.02,44.23c-0.3,1.5-0.6,2.9-0.9,4.4c-1.1-0.2-2.1-0.5-3.1-0.5c-1.1-0.1-2.3,0-3.4,0.1
			c-1.5,0.2-2.6,1-3.1,2.4c-0.6,1.8-1.1,3.7-1.6,5.5c-0.8,3.4-1.4,6.9-2.1,10.3c-0.1,0.5-0.3,0.6-0.8,0.6c-1.4,0-2.8,0-4.1,0
			c-0.2,0-0.4,0-0.6,0c0.4-1.9,0.7-3.7,1.1-5.5c0.5-2.3,0.9-4.7,1.4-7c0.4-1.8,1-3.5,1.9-5c1.4-2.5,3.7-4,6.3-4.9
			c2.7-0.9,5.5-1.1,8.3-0.6C863.42,44.03,863.72,44.13,864.02,44.23z"/>
		<path fill="#9A9A9A" d="M849.42,38.73c-0.4,1.9-0.8,3.7-1.1,5.6c-1.5,7.4-3,14.8-4.5,22.2c-0.1,0.5-0.3,0.6-0.7,0.6
			c-1.4,0-2.8,0-4.2,0c0.3-1.6,0.6-3,0.9-4.5c1.6-7.7,3.2-15.4,4.8-23.1c0.1-0.5,0.3-0.8,0.9-0.8
			C846.62,38.83,847.92,38.73,849.42,38.73z"/>
		<path fill="#9A9A9A" d="M855.12,38.73c-0.1,0.6-0.2,1-0.2,1.5c3.2-2.2,6.7-1.7,10.2-1.2c-0.4,1.6-0.7,3.1-1,4.6
			c-6.6-1-12.3,0.1-16.3,6.2c0-0.2,0-0.3,0-0.5c0.7-3.3,1.4-6.7,2-10c0.1-0.4,0.2-0.6,0.7-0.6
			C852.02,38.73,853.52,38.73,855.12,38.73z"/>
		<rect x="743.42" y="23.34" opacity="0" fill="#9A9A9A" width="147.04" height="63.69"/>
	</g>
	<g>
		<path fill="#9A9A9A" d="M291.12,79.73c-1.7,0-3.5,0.1-5.2,0c-1.9-0.2-3.9-0.6-5.8-0.9c-0.9-0.2-1.8-0.3-2.7-0.5
			c-1.7-0.5-3.4-1-5-1.6c-2-0.8-3.9-1.6-5.8-2.6c-2.5-1.3-4.5-3.1-6.5-5.1c-1.9-1.9-3.3-4.1-4.5-6.5c-0.6-1.3-1-2.7-1.2-4.2
			c-0.3-2.4-0.5-4.8-0.4-7.2c0-2.2,0.9-4.3,1.9-6.3c1.3-2.7,3.2-4.9,5.4-6.7c1.5-1.3,3.2-2.4,4.9-3.5c1.5-0.9,3.1-1.8,4.7-2.5
			c1.2-0.5,2.4-0.9,3.6-1.2c2.3-0.7,4.7-1.3,7-2c0.1,0,0.1,0,0.2,0c5.2-0.7,10.4-0.9,15.6-0.5c2,0.2,4.1,0.5,6.1,1
			c2.8,0.7,5.6,1.5,8.3,2.6c2.7,1.2,5.3,2.6,7.7,4.4c2.5,1.9,4.7,4,6.4,6.6c1.1,1.7,1.9,3.6,2.4,5.7c0.5,2,0.4,3.9,0.5,5.8
			c0,2.4-0.7,4.7-1.5,7c-1.8,4.8-5.2,8.3-9.2,11.2c-1.6,1.2-3.6,2-5.4,2.8c-1.5,0.7-3,1.5-4.6,1.9c-1.7,0.5-3.6,0.8-5.4,1.2
			c-1.5,0.3-3.1,0.6-4.6,0.9c-0.5,0.1-1,0.1-1.6,0.1C294.62,79.73,292.82,79.73,291.12,79.73z M281.62,40.93
			c-0.1-0.1-0.1-0.2-0.2-0.3c-0.7,0.2-1.4,0.5-2.1,0.6c-1,0.2-2,0.4-2.9,0.4c-2.3-0.1-4.6-0.5-6.8-1.2c-0.6-0.2-1.1-0.4-1.7-0.6
			c-0.9-0.3-1.8-0.7-2.7-0.9c-0.9-0.2-1.8-1.1-2.8-0.2c-0.4,0.4-0.8,0.7-1.2,1.1c-2.1,2.1-3.8,4.6-5,7.3c-0.3,0.7-0.4,1.6-0.6,2.4
			c1.1,0.3,2.1,0.5,3.1,0.7c0.8,0.2,1.6,0.3,2.4,0.6c1.6,0.5,3.1,0.9,4.6,1.5c1.5,0.6,3,1.3,4.4,1.9c0.6,0.3,1.2,1,2,0.5
			c1-0.6,1.9-1.1,3.1-0.4c0.6,0.4,1.3,0.6,2,0.9c1.2-0.8,3.8-0.9,4.8,0.3c0.9,0.9,1.7,1,2.8,1c0.2,0,0.3,0,0.5,0
			c1,0.1,2.7,1.3,2.6,2.1c0,1.7,1,2.1,2.3,2.6c1.9,0.7,3.3,3.4,2.2,5.5c0.9,0.8,3,1.2,4.1,0.7c0.2-0.1,0.4-0.7,0.2-0.9
			c-0.3-0.5-0.8-0.8-1.2-1.2c-0.7-0.8-1.3-1.6-1.9-2.4c0.1-0.1,0.2-0.2,0.2-0.3c0.3,0.1,0.7,0.1,1,0.3c1.1,0.9,2.1,1.9,3.2,2.9
			c0.8,0.8,2.1,0.7,3-0.2c0.8-0.8,0.7-1.3-0.3-2.4c-1.2-1.3-2.3-2.6-3.5-3.9c0.1-0.1,0.1-0.2,0.2-0.4c0.4,0.1,0.8,0.1,1.1,0.3
			c1.2,1.1,2.4,2.2,3.6,3.3c0.9,0.8,1.8,1.1,2.9,0.6c1.5-0.6,1.9-2.2,0.8-3.4s-2.3-2.3-3.4-3.5c-0.5-0.6-1.6-0.9-1.4-2.2
			c0.4,0.2,0.8,0.3,1.1,0.5c1.4,1.2,2.8,2.4,4.1,3.6c0.8,0.7,1.6,1.5,2.8,1.3c0.8-0.1,1.5-0.4,1.8-1.1c0.3-0.8,0.3-1.7-0.5-2.4
			c-1.7-1.5-3.4-2.9-5.1-4.4c-1.9-1.6-3.8-3.2-5.7-4.8c-1.3-1.1-2.6-2.2-4-3.3c-0.5-0.4-1.2-0.7-1.8-0.9c-1.9-0.6-3.4,0.3-4.9,1.3
			s-2.8,2.3-4.4,3.1c-1,0.5-2.2,0.6-3.4,0.7c-0.7,0-1.3-0.2-2-0.4c-1.5-0.4-2-2.1-1-3.3C279.52,43.23,280.52,42.13,281.62,40.93z
			 M279.22,45.73c0.6,0.4,0.9,0.7,1.4,0.8c1.8,0.3,3.4-0.1,4.9-1.3c1.6-1.3,3.4-2.5,5.3-3.5c1.7-0.9,3.6-0.7,5.2,0.4
			c2.3,1.6,4.5,3.5,6.7,5.3c2.7,2.3,5.4,4.6,8.1,6.9c0.2,0.2,0.7,0.5,0.9,0.4c1.2-0.4,2.5-0.9,3.7-1.4c1.8-0.7,3.6-1.4,5.5-2
			c2-0.6,4.1-1.1,6.4-1.7c-0.6-1.5-1.2-2.9-1.8-4.3c-1.2-2.5-2.9-4.7-5.1-6.4c-0.3-0.2-0.8-0.2-1.2-0.1c-2,0.6-3.9,1.6-6,1.8
			c-2.4,0.3-4.8,0.1-7.3,0c-0.9,0-1.8-0.4-2.7-0.7c-1.1-0.4-2.2-1-3.4-1.3c-1.3-0.4-2.7-0.7-4.1-1.2c-2.4-0.8-4.8-0.4-7.1,0.3
			c-1.5,0.4-2.9,1.5-4,2.5C282.72,42.03,281.02,43.93,279.22,45.73z M285.32,64.93c1.2,2.7,2.5,3.7,4,3.1c1.7-0.6,2.5-1.8,1.9-3.9
			c-0.1-0.5-0.6-0.9-1-1.2c-0.9-0.7-2-0.6-3.2-0.2c0-0.7,0-1.3,0.1-1.9c0.2-1.1-0.3-2-1.2-2.4c-0.9-0.5-1.9-0.5-2.9,0.1
			c-0.2,0.1-0.4,0.1-0.6,0.2c-0.1-0.4-0.2-0.7-0.4-1c-1.3-2.2-3.3-1.8-4.8-0.4c-0.7,0.7-0.5,0.3-0.8-0.2c-0.3-0.6-1-1.2-1.6-1.5
			c-0.7-0.3-2,0.4-2.4,1.1c-0.5,0.9-0.5,1.8,0.2,2.5c0.7,0.7,1.5,1.4,2.6,0.6c0.2-0.1,0.6-0.1,0.9-0.1c-0.1,0.1-0.2,0.2-0.2,0.3
			c0.6,1,1,2,1.7,2.9c0.9,1,2.1,0.7,3.2-0.1C281.22,65.13,282.62,66.43,285.32,64.93z"/>
		<path fill="#9A9A9A" d="M351.52,37.73c1.7-2.4,4.3-2.4,6.7-2c1.9,0.4,3.3,1.7,4.1,3.6c0.6,1.4,0.5,2.8,0.5,4.3c0,2.5,0,5,0,7.5
			c0,0.7-0.2,1-1,0.9c-0.9-0.1-1.8,0-2.8,0c0-0.5,0-0.9,0-1.3c0-2.9,0-5.7,0-8.6c0-1.6-1.5-2.9-3-2.7s-2.7,1.4-2.7,2.9
			c0,2.9,0,5.8,0,8.7c0,0.8-0.2,1.1-1,1c-0.6-0.1-1.3-0.1-1.9,0c-0.7,0.1-1-0.2-0.9-1c0-2.9,0.1-5.7,0-8.6c-0.1-2-1.1-3.1-2.9-3
			c-1.3,0-2.8,1.3-2.8,2.8c0.1,2.9,0,5.9,0,8.8c0,0.8-0.2,1-1,1c-2.8,0-2.8,0-2.8-2.8c0-2.6,0.1-5.1,0-7.7c-0.1-2.9,3-6,6-6
			C349.12,35.63,350.02,36.13,351.52,37.73z"/>
		<path fill="#9A9A9A" d="M436.42,37.63c0-1.2,0-2.4,0-3.6c0-2.1,1.4-3.6,3.6-3.6c0.8,0,0.7,0.6,0.7,1.1c0,2.8,0,5.7,0,8.5
			c0,1.9,0,3.9,0,5.8c0,3.3-1.7,5.5-4.5,6.4c-1.3,0.4-2.8,0.7-4.4,0.3c-1.5-0.4-3.1-0.6-4.2-1.7c-0.7-0.7-1.2-1.6-1.6-2.5
			c-0.9-1.8-0.8-3.8-0.6-5.8c0.3-2.7,1.4-5,3.8-6.5c2.1-1.2,5.7-0.6,6.9,1.4C436.22,37.63,436.32,37.63,436.42,37.63z M429.62,44.23
			c-0.1,1.4,0.1,2.8,1.1,3.9c1.4,1.7,4.2,1.2,5.1-0.5c1.1-2.1,1.1-4.5,0-6.6c-1-2-3.4-2.5-5.1-0.7
			C429.82,41.43,429.62,42.83,429.62,44.23z"/>
		<path fill="#9A9A9A" d="M358.62,62.33c1.9-1.8,3.7-2.5,6.1-1.7c2.5,0.8,3.9,2.5,4.4,5c0.3,1.3,0.5,2.5,0.5,3.8
			c0.1,2-0.5,3.9-1.7,5.5c-1,1.3-2.5,1.9-4.1,2.1c-1.3,0.2-2.7,0.2-4,0c-2.3-0.3-4.2-1.5-5-3.8c-0.3-1-0.6-2.1-0.6-3.2
			c-0.1-3.9,0-7.9,0-11.8c0-1.9,1.5-3.4,3.4-3.2c0.7,0,0.8,0.5,0.8,1.1c0,1.6,0,3.3,0,4.9C358.52,61.43,358.52,61.83,358.62,62.33z
			 M365.52,69.03c-0.2-0.9-0.4-1.7-0.6-2.6c-0.3-1.2-1.4-2.3-2.7-2.4c-1.1-0.1-2.6,0.6-3.1,1.7c-1,2.1-1.1,4.2-0.1,6.3
			c0.9,1.9,3.5,2.4,5,0.9C365.12,71.83,365.32,70.53,365.52,69.03z"/>
		<path fill="#9A9A9A" d="M380.02,47.73c0.5,1.6-0.7,2.3-1.5,3.1c-1.4,1.5-3.4,2-5.4,2c-2.7,0-5.2-0.7-6.9-3c-0.8-1-1.4-2.1-1.4-3.5
			c0-1.3,0-2.6,0-3.9c0-2.7,2.2-5.6,4.8-6.4c2.3-0.7,4.6-0.7,6.8,0.2c1.8,0.8,3,2.2,3.7,4.2c0.5,1.3,0.4,2.5,0.5,3.8
			c0.1,0.8-0.3,1-1,1c-3.2,0-6.3,0-9.5,0c-0.3,0-0.7,0-1,0c-0.4,1.4,0.5,3.1,1.8,3.6c1.8,0.8,3.4,0.6,4.9-0.8
			c0.1-0.1,0.3-0.2,0.4-0.2C377.62,47.73,378.82,47.73,380.02,47.73z M376.32,42.33c-0.1-1.3-0.7-2.3-1.7-2.9
			c-1.3-0.7-2.7-0.8-3.9,0.1c-0.9,0.7-1.5,1.6-1.6,2.8C371.62,42.33,373.92,42.33,376.32,42.33z"/>
		<path fill="#9A9A9A" d="M449.72,35.43c3.1-0.1,5.5,1,7.1,3.7c1.5,2.5,1.6,5.2,0.9,8c-0.5,1.9-1.5,3.5-3.3,4.5c-1.9,1-3.8,1.4-6,1
			c-1.3-0.2-2.5-0.4-3.6-1.2c-1.6-1.1-2.5-2.6-3-4.4c-0.6-1.9-0.6-3.8,0-5.7c0.8-2.4,2-4.5,4.7-5.3
			C447.42,35.73,448.62,35.63,449.72,35.43z M445.72,44.03c0.1,2.3,0.6,4.1,2.9,4.9c2,0.7,4.1-0.5,4.6-2.5c0.4-1.4,0.4-2.8,0.1-4.3
			c-0.5-2.3-2.1-3.2-4-3c-1.3,0.1-2.5,0.6-2.9,2.1C446.12,42.13,445.92,43.13,445.72,44.03z"/>
		<path fill="#9A9A9A" d="M409.52,40.63c0.6-1.1,1-2.2,1.6-3.2c0.8-1.2,2.1-1.7,3.5-1.8c1.3-0.1,2.7-0.2,4,0
			c1.8,0.2,3.5,0.8,4.4,2.6c0.1,0.3,0.2,0.6,0.2,1c0,2.9,0.1,5.9,0,8.8c-0.1,1.8-1.3,3.1-2.9,3.7c-1.7,0.6-3.6,0.9-5.4,1
			c-1.5,0-3.1-0.2-4.4-1.4c-1-1-1.8-3.4-1.3-4.9s1.3-2.7,2.8-3.3c0.8-0.3,1.6-0.6,2.4-0.7c1.1-0.2,2.3-0.4,3.5-0.6
			c0.6-0.1,1.1-0.4,1.1-1.1c0-0.7,0.1-1.2-0.8-1.6c-1.2-0.5-2.2-0.6-3.3,0.1c-0.4,0.3-0.7,0.9-1.1,1.3c-0.3,0.3-0.6,0.6-0.9,0.6
			C411.92,41.13,410.72,41.53,409.52,40.63z M419.12,44.53c-1.6,0.4-2.9,0.8-4.3,1.1c-0.1,0-0.2,0-0.3,0c-1.2,0.6-1.4,2.8-0.4,3.5
			c1.1,0.8,3.5,0.3,4.4-0.8C419.32,47.13,419.02,45.93,419.12,44.53z"/>
		<path fill="#9A9A9A" d="M384.82,70.33c0.4,0.8,0.7,1.5,1,2.1c0.9,1.8,4.2,1.8,5.6,0.8c0.4-0.3,1-0.5,1.5-0.5c0.9-0.1,1.9,0,2.8,0
			c0.6,0,0.9,0.1,0.5,0.8c-1.4,2.5-3.6,3.6-6.3,3.7c-2.3,0.1-4.5-0.2-6.3-1.7c-1.3-1-2.2-2.2-2.4-3.8c-0.1-1.1-0.5-2.3-0.4-3.3
			c0.2-2.4,0.8-4.7,3.1-6.2c1.1-0.7,2.3-1.4,3.7-1.4c0.7,0,1.4,0,2.1,0c2.7-0.1,4.8,1.2,6.2,3.4c1,1.6,1.4,3.5,1.3,5.4
			c-0.1,0.8-0.7,0.7-1.2,0.7c-3.1,0-6.2,0-9.4,0C386.02,70.23,385.52,70.23,384.82,70.33z M388.82,67.53c0.8,0,1.7,0,2.5,0
			c0.8,0,1.1-0.3,0.9-1.1c-0.2-1.2-1.1-1.6-2.1-2.1c-1.4-0.7-4,0.1-4.6,2c-0.3,0.8,0,1.2,0.9,1.3
			C387.22,67.53,388.02,67.53,388.82,67.53z"/>
		<path fill="#9A9A9A" d="M408.12,41.83c-1.5,0-2.7,0.1-3.9,0c-0.3,0-0.8-0.4-0.9-0.7c-0.6-1.7-2.6-2.4-4.3-1.5
			c-1.2,0.6-1.3,1.9-1.7,2.9c-0.6,1.4-0.1,5,1.3,6c1.7,1.3,4.3,0.8,4.8-1.5c0.1-0.3,0.5-0.7,0.8-0.8c1.3-0.1,2.6,0,4.1,0
			c-0.2,0.9-0.3,1.7-0.7,2.3c-1.2,2.2-2.8,3.7-5.6,4.1c-1.5,0.2-3,0.1-4.4-0.3c-2.1-0.5-3.5-2-4.3-4.2c-0.8-2.3-0.8-4.6-0.3-6.9
			c0.5-2.5,1.9-4.4,4.4-5.3c2.4-0.8,4.8-0.7,7.2,0.1c1.7,0.6,2.8,1.8,3.2,3.6C407.72,40.43,407.92,41.03,408.12,41.83z"/>
		<path fill="#9A9A9A" d="M391.82,35.63c0,1.4,0,2.7,0,4.2c-0.6,0-1.1,0-1.7,0c-1.7,0-3.1,1.4-3.1,3.1c0,3,0,5.9,0,9.1
			c-1.3,0-2.6,0-3.8,0c-0.2,0-0.5-0.4-0.5-0.6c0-3.2-0.2-6.4,0.1-9.6c0.2-2.6,2-4.8,4.8-5.7c0.4-0.1,0.9-0.4,1.4-0.4
			C389.92,35.53,390.82,35.63,391.82,35.63z"/>
		<path fill="#9A9A9A" d="M380.12,60.23c0,1.4,0,2.7,0,4.2c-0.6,0-1.2,0-1.8,0c-1.7,0-2.8,0.9-2.9,2.6c-0.2,2.7-0.3,5.5-0.4,8.2
			c0,0.4,0,0.7,0,1.2c-1.2,0-2.4,0-3.5,0c-0.2,0-0.6-0.4-0.6-0.7c0-2.7-0.1-5.3,0-8c0.1-2,0.6-3.9,2-5.4
			C374.72,60.63,377.22,59.83,380.12,60.23z"/>
		<path fill="#9A9A9A" d="M343.82,76.53c-1.2,0-2.4,0-3.6,0c0-0.3-0.1-0.5-0.1-0.8c0-5.9,0-11.7,0-17.6c0-1.7,1.2-3,2.9-3
			c0.6,0,0.8,0.3,0.8,0.9c0,1.3,0,2.6,0,3.8c0,5.3,0,10.5,0,15.8C343.82,75.83,343.82,76.13,343.82,76.53z"/>
		<path fill="#9A9A9A" d="M351.12,60.83c0,5.3,0,10.5,0,15.7c-1.4,0-2.8,0-4.2,0c0-5.2,0-10.4,0-15.7
			C348.42,60.83,349.72,60.83,351.12,60.83z"/>
		<path fill="#9A9A9A" d="M346.92,55.13c1.5,0,2.8,0,4.3,0c0,1.3,0,2.5,0,3.8c0,0.2-0.4,0.5-0.7,0.5c-1,0.1-1.9,0.1-2.9,0
			c-0.2,0-0.6-0.4-0.6-0.6C346.92,57.63,346.92,56.43,346.92,55.13z"/>
		<rect x="253.99" y="25.87" opacity="0" fill="#9A9A9A" width="204.82" height="56.77"/>
	</g>
	<g>
		<path fill="#9A9A9A" d="M645.52,159.8c-0.6,3.1-1.2,6.3-1.8,9.4c-2.2,0-4.2,0-6.4,0c0.4-2,0.8-4,1.1-6c1.3-7.2,2.7-14.4,4-21.7
			c0.2-1.2,0.3-2.5,0.5-3.7c0-0.2,0.3-0.5,0.5-0.6c1.7,0,3.3,0,5,0c0.1,0,0.1,0.1,0.2,0.1c-0.1,1-0.2,2-0.3,3.1l0.1,0.1
			c0.1-0.2,0.3-0.3,0.4-0.5c1.5-1.7,3.2-2.8,5.5-3.1c3-0.4,5.6,1.1,6.7,4c1.1,2.7,0.9,5.5,0.3,8.3c-0.8,3.7-2.4,6.9-5.5,9.2
			c-3.1,2.3-6.5,3-10.2,1.5C645.72,159.8,645.62,159.8,645.52,159.8z M655.22,145.6c-0.1-0.4-0.1-1.1-0.4-1.7c-0.5-1.4-1.7-2-3-1.5
			c-0.8,0.3-1.6,0.9-2.1,1.5c-1.1,1.1-1.6,2.6-2,4.1c-0.4,1.9-0.7,3.8-1.1,5.8c-0.2,1.3-0.1,1.4,1.1,1.8c1.8,0.6,3.5-0.1,4.9-1.9
			C654.32,151.3,655.02,148.7,655.22,145.6z"/>
		<path fill="#9A9A9A" d="M605.92,127.3c-0.8,4.3-1.6,8.5-2.4,12.7c0.1,0.1,0.2,0.1,0.3,0.2c0.1-0.2,0.3-0.5,0.4-0.7
			c1.8-1.8,3.9-2.8,6.4-2.7c2.7,0.1,4.5,1.7,4.9,4.4c0.3,1.8,0,3.6-0.3,5.3c-0.8,4.3-1.6,8.6-2.4,13c0,0.2-0.1,0.3-0.1,0.5
			c-2.1,0-4.2,0-6.4,0c0.3-1.6,0.6-3.1,0.8-4.6c0.6-3.3,1.2-6.7,1.8-10c0.1-0.6,0.1-1.2,0-1.8c-0.2-1.2-1.1-1.8-2.3-1.5
			c-1.2,0.2-2,1-2.7,1.9c-1.2,1.7-1.8,3.6-2.1,5.6c-0.6,3.2-1.2,6.5-1.8,9.7c-0.1,0.6-0.3,0.8-0.9,0.8c-1.6,0-3.2,0-4.8,0
			c-0.2,0-0.5,0-0.8,0c0.2-1.3,0.5-2.5,0.7-3.7c1.8-9.3,3.6-18.7,5.3-28c0.1-0.8,0.4-1.1,1.2-1c1.5,0.1,3.1,0,4.6,0
			C605.32,127.3,605.62,127.3,605.92,127.3z"/>
		<path fill="#9A9A9A" d="M698.92,152.8c0.4-1.1,0.8-2.2,1.2-3.3c1.4-3.8,2.9-7.6,4.3-11.4c0.2-0.5,0.4-0.7,1-0.7c1.7,0,3.5,0,5.2,0
			c0.2,0,0.4,0,0.7,0.1c-0.1,0.2-0.1,0.3-0.1,0.5c-3.1,6.6-6.2,13.2-9.5,19.8c-1.5,3-3.3,5.7-5.6,8.2c-1.8,1.9-3.8,3.3-6.3,4.2
			c-0.2,0.1-0.4,0.1-0.6,0.2c-0.1,0-0.2,0-0.4,0c-0.6-1.8-1.1-3.5-1.7-5.3c0.5-0.2,0.9-0.4,1.3-0.6c2.3-1,4.2-2.5,5.5-4.7
			c0.4-0.6,0.5-1.3,0.3-2c-1.2-6.6-2.5-13.3-3.7-19.9c0-0.1,0-0.3-0.1-0.5c0.6,0,1.1,0,1.6,0c1.4,0,2.8,0,4.2,0c0.7,0,0.9,0.2,1,0.9
			c0.4,4.8,1,9.5,1.4,14.2c0,0.1,0,0.2,0,0.3C698.82,152.8,698.92,152.8,698.92,152.8z"/>
		<path fill="#9A9A9A" d="M638.82,145.9c-0.2,4.6-1.5,8.6-4.9,11.7c-2.8,2.5-6,3.4-9.7,2.8c-3.6-0.6-6-3-6.8-6.6
			c-0.9-4.2,0.6-11.4,6.1-15c2.6-1.7,5.4-2.3,8.4-1.8c3.6,0.6,6.2,3.2,6.7,7C638.82,144.7,638.82,145.4,638.82,145.9z M632.32,145.5
			c-0.1-0.4-0.2-1.2-0.5-2c-0.5-1.3-1.6-1.9-3-1.7c-1.1,0.1-1.9,0.8-2.5,1.6c-1.3,1.6-1.9,3.6-2.3,5.6c-0.3,1.5-0.4,2.9,0,4.4
			c0.7,2.3,3.1,3,4.9,1.4c0.7-0.6,1.2-1.4,1.6-2.2C631.72,150.5,632.12,148.2,632.32,145.5z"/>
		<path fill="#9A9A9A" d="M684.82,137.3c1.5,0,2.9,0,4.4,0c-0.3,1.7-0.6,3.2-0.9,4.8c-1.2,0-2.4,0-3.6,0c-0.7,0-0.9,0.2-1,0.8
			c-1,5.5-2.1,11-3.1,16.5c-0.1,0.4-0.1,0.7-0.6,0.7c-1.9,0-3.7,0-5.6,0c-0.1,0-0.2,0-0.4-0.1c1.1-5.9,2.2-11.8,3.4-17.8
			c-1,0-1.9,0-3,0c0.3-1.6,0.6-3,0.9-4.5c0-0.2,0.3-0.4,0.5-0.4c0.6,0,1.2-0.1,1.8,0c0.6,0,0.8-0.1,0.9-0.7c0.4-1.5,0.7-2.9,1.3-4.3
			c2-4.4,7.2-6.6,11.8-5c0.1,0,0.3,0.1,0.4,0.2c-0.4,1.6-0.8,3.3-1.2,4.9c-1.5-0.3-2.9-0.6-4.1,0.5
			C685.42,134,685.12,135.6,684.82,137.3z"/>
		<path fill="#9A9A9A" d="M577.22,154.6c1.7,0.4,3.2,0.8,4.8,1.1c0.5,0.1,1,0,1.5-0.1c1.8-0.4,2.4-2.3,1.1-3.7
			c-0.4-0.5-1-0.8-1.5-1.2c-0.6-0.4-1.3-0.8-1.9-1.3c-4.6-3.4-2.8-8.5,0.1-10.6c1.4-1,2.9-1.6,4.6-1.8c2.3-0.3,4.6-0.2,6.8,0.5
			c0.5,0.2,0.7,0.4,0.5,1c-0.5,1.3-0.9,2.6-1.3,3.7c-1.3-0.2-2.5-0.5-3.7-0.7c-0.7-0.1-1.4,0.1-2,0.3c-1.4,0.5-1.7,2.1-0.6,3.2
			c0.4,0.4,0.9,0.7,1.4,1c0.9,0.6,1.8,1.1,2.6,1.8c3.2,2.7,3.2,7.4,0,10.2c-1.5,1.3-3.3,1.9-5.3,2.2c-2.7,0.4-5.4,0.1-7.9-1.1
			c-0.5-0.2-0.6-0.5-0.4-1C576.42,157,576.82,155.8,577.22,154.6z"/>
		<path fill="#9A9A9A" d="M662.12,160.1c0.4-1.9,0.7-3.7,1-5.5c1-5.4,2-10.8,3.1-16.2c0.2-1.2,0-1,1.3-1c1.5,0,3,0,4.5,0
			c0.3,0,0.5,0,0.9,0c-0.5,2.5-0.9,4.9-1.4,7.2c-0.9,4.8-1.8,9.6-2.8,14.4c-0.2,1.2,0,1.1-1.3,1.1
			C665.72,160.1,663.92,160.1,662.12,160.1z"/>
		<path fill="#9A9A9A" d="M674.32,130.9c0,2.2-1.6,3.7-3.8,3.7c-1.9,0-3.1-1.3-3.1-3.2c0-2.1,1.7-3.7,3.7-3.7
			C673.02,127.7,674.32,129,674.32,130.9z"/>
		<path fill="#9A9A9A" d="M568.52,165.1c-0.5-3.2-0.9-6.4-1.4-9.6c-0.5-3.5-1-7-1.6-10.5c-0.6-3.8-1.1-7.7-1.7-11.5
			c-0.3-2.1-0.6-4.2-0.9-6.4c-0.1-0.6-0.4-0.8-1-0.8c-0.9,0-1.9-0.1-2.8-0.1c-0.5,0-0.9-0.1-1.2-0.5c-0.9-0.9-1.8-1.7-2.7-2.6
			c-0.4-0.5-0.9-0.6-1.5-0.4c-0.5,0.2-1,0.3-1.5,0.5c-0.3-0.6-0.4-1.1-0.7-1.6c-1-2.1-2.5-3.5-5-3.5c-0.1,0-0.3,0-0.4-0.1
			c-0.7-0.8-1.6-1.2-2.6-1.4c-0.4,0-0.8,0-1.2,0c-2.3,0.5-4.1,1.7-5.5,3.5c-2,2.5-3.3,5.4-4,8.5c-0.1,0.5-0.3,0.8-0.8,0.9
			c-1.5,0.4-3,1-4.6,1.4c-1,0.3-1.5,0.8-1.6,1.9c-0.2,2-0.5,4-0.8,6c-0.8,6.3-1.6,12.6-2.5,18.9c-0.3,2.1-0.5,4.1-0.8,6.2
			c0.2,0.1,0.4,0.1,0.6,0.2c10.6,1.8,21.1,3.7,31.7,5.5c0.3,0.1,0.6,0,0.9,0c3-0.7,5.9-1.4,8.9-2.2c1.6-0.4,3.1-0.8,4.7-1.2
			C568.62,165.7,568.62,165.4,568.52,165.1z M546.22,124.8c0,0.1-0.1,0.3-0.2,0.3c-1.7,0.5-3.3,1-5.2,1.6c0.9-2.8,2-5.2,4.6-6.7
			C546.12,121.6,546.22,123.2,546.22,124.8z M534.52,128.2c0.9-3.1,2.2-5.9,4.5-8.1c0.9-0.9,2-1.7,3.3-1.8c0.6,0,1.1,0.1,1.7,0.1
			c0,0.1,0,0.2,0,0.2c-2.9,2-4.3,4.9-5.1,8.1c0,0.2-0.2,0.5-0.3,0.5c-1.4,0.5-2.7,0.9-4.1,1.3
			C534.52,128.4,534.52,128.3,534.52,128.2z M537.62,141.9c0,0-0.6,0.9,3.3,3.1s5.9,7,3.6,11.6c-2.3,4.6-9.7,5.5-14.3,1.1l1.1-4.7
			c0,0,4.1,2.9,6.1,1.7c1.9-1.1,0.5-3.6-0.5-4.4c-1.1-0.8-5.5-2.8-4.8-8s3.4-7.6,7.7-8.9c0,0,3.5-0.7,6.5,0.2l-1.8,6.1
			C544.52,139.7,537.12,137.7,537.62,141.9z M548.12,124.4c-0.2-1.5-0.5-3-0.7-4.5c1.3,0.2,2.7,1.9,3,3.8
			C549.72,124,548.92,124.2,548.12,124.4z"/>
		<rect x="519.43" y="116.5" opacity="0" fill="#9A9A9A" width="191.88" height="55.1"/>
	</g>
	<g>
		<path fill="#9A9A9A" d="M817.22,132.5v4.3h-8.8v24.5h-5.1v-24.5h-8.7v-4.3H817.22z M833.22,139.9v21.6h-4.6v-2.2
			c-0.6,0.6-2.7,2.6-6.5,2.6c-2.9,0-5.7-1-7.7-2.8c-2.2-2-3.3-4.8-3.3-8.2c0-8.4,6.6-11.4,11-11.4c3.5,0,5.3,1.3,6.3,2.3
			c0.1,0.1,0.2,0.2,0.3,0.2c0,0,0.1,0,0.1-0.4l0.1-0.7l0.1-0.6c0.1-0.4,0.3-0.5,0.8-0.5C829.92,139.9,833.22,139.9,833.22,139.9z
			 M821.92,157.8c4.3,0,6.9-2.8,6.9-7.4c0-1.8-0.6-3.6-1.7-4.8c-1.2-1.3-2.8-2-4.6-2c-4.2,0-6.9,2.8-6.9,7.1
			C815.52,154.2,817.22,157.8,821.92,157.8z M849.02,140c-0.2-0.2-1.1-0.5-2.1-0.5c-1.6,0-4.5,0.3-6.4,2.5c-0.1,0.1-0.2,0.2-0.3,0.2
			c0,0-0.1,0-0.1-0.2l-0.2-0.9l-0.2-0.8c-0.1-0.4-0.3-0.5-0.8-0.5h-3.1v21.6h4.6v-11.9c0-4,1.9-5.9,5.9-5.9c0.2,0,0.4,0,0.5,0h0.1
			L849.02,140z M857.02,160c6.9,0,10,1.9,10,6c0,4.4-4.4,7.2-11.2,7.2c-5.9,0-9.6-2.3-9.6-5.9c0-2.1,1-3.7,3.1-4.7
			c-1.5-0.8-2.2-1.9-2.2-3.4c0-1.6,0.8-2.9,2.5-4c-1.7-1.7-2.6-3.9-2.6-6.1c0-2.8,1-5.2,2.9-6.9c1.8-1.6,4.2-2.5,6.7-2.5
			c1.6,0,3.1,0.3,4.4,1c1.3-0.7,2.8-1.1,4.7-1.1c1,0,1.9,0.2,2.6,0.4l-2.1,3.8c-0.1,0-0.6-0.1-1.1-0.1h-0.6c1,1.5,1.5,3.3,1.5,5.1
			c0,2.4-0.9,4.7-2.5,6.4c-1.8,1.8-4.2,2.8-7,2.8c-1.4,0-2.8-0.3-4.1-0.9c-0.5,0.4-0.8,0.8-0.8,1.4
			C851.72,159.8,853.72,160,857.02,160z M862.12,166.3c0-1.5-1.2-2-5.5-2.4h-0.7c-1-0.1-2-0.2-3-0.3c-0.8,0.6-1.8,1.6-1.8,2.9
			c0,2,1.8,3,5.4,3C859.92,169.5,862.12,168.3,862.12,166.3z M856.62,143.6c-2.4,0-4.9,2-4.9,5.2c0,3.1,1.9,5.3,4.6,5.3
			c1.5,0,4.9-0.6,4.9-5.6C861.22,146,859.62,143.6,856.62,143.6z M900.92,144.1v-4.2h-5.2v-6.1h-4.7v6.1h-2.6v4.2h2.5v11.2
			c0,4.4,2.3,6.6,7.1,6.6c1.3,0,2.3-0.1,2.7-0.3v-4.3h-0.1c-0.5,0.2-1.1,0.3-2.2,0.3c-2.1,0-2.9-1.1-2.9-3.8v-9.7H900.92z
			 M878.22,139.5c5.1,0,10.8,4.2,9.9,12.2h-15.8c0.3,4.4,3,6.2,6.1,6.2c3.4,0,4.7-2.1,5.3-3.3h4.5c-0.3,2.8-3.7,7.2-10.4,7.2
			c-6.1,0-10.3-5-10.3-11C867.42,142.4,873.72,139.5,878.22,139.5z M883.22,148c-0.2-2.2-1.9-4.6-5-4.6c-2.5,0-4.9,1.1-5.7,4.6
			H883.22z"/>
		<path fill="#9A9A9A" d="M767.52,124.6c-12.4,0-22.4,10-22.4,22.4s10,22.4,22.4,22.4c12.4,0,22.4-10,22.4-22.4
			S779.92,124.6,767.52,124.6z M767.52,161.6c-8,0-14.6-6.5-14.6-14.6c0-8,6.5-14.6,14.6-14.6c8.1,0,14.6,6.5,14.6,14.6
			C782.12,155.1,775.52,161.6,767.52,161.6z M767.52,139.7c4,0,7.3,3.3,7.3,7.3s-3.3,7.3-7.3,7.3s-7.3-3.3-7.3-7.3
			S763.52,139.7,767.52,139.7z"/>
		<rect x="743.42" y="124.6" opacity="0" fill="#9A9A9A" width="163.15" height="47.78"/>
	</g>
	<g>
		<path fill="#9A9A9A" d="M29.92,134.5c-0.3,1.5-0.6,2.9-0.9,4.2c-1.3,5.5-2.6,11.1-3.9,16.6c-0.1,0.3-0.5,0.6-0.8,0.7
			c-0.4,0.2-0.8,0.2-1.2,0.2c-3.4,0.2-4.9-1-5.8-4.5c-1.9-7.6-3.7-15.1-5.5-22.7c-0.1-0.6-0.3-1.1-0.4-1.8c2.2,0,4.3,0,6.5,0
			c1.4,7.3,2.8,14.6,4.2,22.2c0.4-1.9,0.8-3.6,1.1-5.4c1.2-5.3,2.5-10.7,3.6-16c0.1-0.6,0.4-0.8,1-0.8c1.6,0,3.3,0,4.9,0
			c0.6,0,0.8,0.1,0.9,0.7c1.3,6.7,2.7,13.5,4,20.2c0.1,0.3,0.1,0.6,0.3,0.9c0.6-2.9,1.1-5.9,1.7-8.8c0.8-4.1,1.7-8.2,2.6-12.3
			c0-0.2,0.4-0.6,0.6-0.6c1.8,0,3.7,0,5.6,0c-0.1,0.3-0.1,0.6-0.2,0.9c-2.4,9-4.8,18-7.1,27c-0.2,0.6-0.5,1-1.1,1
			c-0.9,0-1.9,0.1-2.8,0c-2.1-0.4-3.2-1.9-3.6-3.8c-0.7-2.8-1.3-5.6-1.9-8.3C31.12,140.9,30.52,137.8,29.92,134.5z"/>
		<path fill="#9A9A9A" d="M85.72,155.9c-2,0-3.9,0-5.8,0c0-7.2,0-14.3,0-21.5c1.8,0,3.6,0,5.5,0c0,0.8,0,1.7,0,2.5
			c1.7-2.1,3.8-3.2,6.4-3.1c2.7,0,4.7,1.2,5.9,3.8c0.3-0.3,0.5-0.5,0.7-0.8c1.4-1.6,3-2.7,5.1-2.9c3.8-0.5,6.7,1.3,7.8,4.9
			c0.3,1.1,0.6,2.3,0.6,3.5c0.1,4.3,0,8.7,0,13c0,0.2,0,0.4-0.1,0.6c-1.9,0-3.8,0-5.8,0c0-0.4,0-0.7,0-1c0-3.5,0-6.9,0-10.4
			c0-0.8,0-1.6-0.2-2.4c-0.4-2.3-1.7-3.5-3.6-3.3c-2,0.2-3.4,1.8-3.4,4c0,3.8,0,7.7,0,11.5c0,0.5,0,1,0,1.6c-2,0-3.9,0-5.9,0
			c0-0.3,0-0.6,0-1c0-3.7,0-7.3,0-11c0-1-0.1-2-0.4-3c-0.7-2.2-3.2-2.9-5.1-1.4c-1.2,1-1.7,2.3-1.7,3.8c0,3.8,0,7.6,0,11.4
			C85.72,155.1,85.72,155.5,85.72,155.9z"/>
		<path fill="#9A9A9A" d="M66.42,155.9c-2.8,0.9-4.5,0.2-5.9-2.3c-1.1,1.2-2.4,2.2-4.1,2.5c-1.4,0.2-2.9,0.3-4.3,0
			c-2.6-0.5-4.2-2.3-4.7-4.9c-0.5-2.9,0.3-5.3,2.7-7.1c2.6-1.9,5.6-2.3,8.6-2.4c0.4,0,0.8,0,1.2,0c0.2-1.9-0.8-3.2-2.7-3.5
			c-2.2-0.3-4.2,0.1-6.2,1c-0.3,0.1-0.6,0.3-1,0.5c-0.4-1.2-0.7-2.4-1-3.6c0-0.1,0.2-0.5,0.4-0.6c3.8-1.7,7.7-2.3,11.7-1
			c3,1,4.4,3.3,4.8,6.3c0.3,2.2,0.3,4.5,0.4,6.7c0.1,2.6,0.2,5.1,0.2,7.7C66.42,155.5,66.42,155.7,66.42,155.9z M60.12,145.6
			c-0.4,0-0.7,0-1,0c-1.6,0.1-3.3,0.3-4.6,1.3c-1,0.7-1.3,1.7-1.2,2.9c0.1,1,0.6,1.7,1.5,2.1c2.1,0.9,4.9-0.6,5.3-2.8
			C60.22,148,60.12,146.8,60.12,145.6z"/>
		<path fill="#9A9A9A" d="M133.22,156c-2.7,0.7-4.3,0.1-5.6-2.3c-0.2,0.2-0.4,0.3-0.5,0.5c-2.5,2.2-5.3,2.8-8.5,1.8
			c-2.5-0.8-3.9-2.7-4.2-5.3c-0.3-2.7,0.6-4.9,2.8-6.5c2.6-1.9,5.6-2.3,8.6-2.4c0.4,0,0.8,0,1.2,0c0.2-2-0.8-3.2-2.7-3.5
			c-2.2-0.3-4.3,0.1-6.2,1.1c-0.3,0.1-0.5,0.3-0.9,0.5c-0.4-1.2-0.7-2.4-1-3.6c0-0.2,0.3-0.5,0.6-0.6c1.9-0.9,4-1.4,6.1-1.5
			c1.4,0,2.8,0,4.2,0.3c3.4,0.7,5.6,3.1,5.9,6.6c0.3,3.4,0.3,6.9,0.4,10.4C133.32,152.8,133.22,154.3,133.22,156z M127.12,145.5
			c-1,0.1-1.9,0.1-2.8,0.3c-1,0.3-2.2,0.6-3,1.2c-1.7,1.2-1.4,4,0.4,4.8c2.1,0.9,5-0.5,5.3-2.7
			C127.32,148,127.12,146.8,127.12,145.5z"/>
		<path fill="#9A9A9A" d="M152.02,127.2c1.9,0,3.7,0,5.6,0c0,2.2,0,4.4,0,6.7c1.7,0,3.3,0,5,0c0,1.9,0,3.7,0,5.6c-1.6,0-3.2,0-5,0
			c0,1,0,2,0,2.9c0,1.8,0,3.7,0,5.5c0.1,3,1.2,4,4.2,3.5c0.2,0,0.4-0.1,0.8-0.2c0,1.5,0,2.9,0,4.2c0,0.2-0.3,0.4-0.5,0.4
			c-2.1,0.5-4.3,0.8-6.4,0c-2.2-0.8-3.2-2.5-3.5-4.6c-0.2-1-0.2-2-0.2-2.9c0-6.8,0-13.6,0-20.3
			C152.02,127.8,152.02,127.5,152.02,127.2z"/>
		<path fill="#9A9A9A" d="M149.52,139.6c-0.9,0-1.8-0.1-2.7,0c-2.1,0.3-3.4,1.6-3.8,3.7c-0.1,0.6-0.2,1.2-0.2,1.8c0,3.2,0,6.4,0,9.7
			c0,0.3,0,0.7,0,1.1c-2,0-3.9,0-5.9,0c0-7.2,0-14.3,0-21.5c1.7,0,3.4,0,5.2,0c0,1.2,0,2.4,0,3.6c1.6-2.9,3.8-4.6,7.3-4
			C149.52,135.9,149.52,137.7,149.52,139.6z"/>
		<path fill="#9A9A9A" d="M69.92,127.3c1.9,0,3.7,0,5.7,0c0,9.5,0,19,0,28.6c-1.9,0-3.7,0-5.7,0
			C69.92,146.4,69.92,136.9,69.92,127.3z"/>
		<path fill="#9A9A9A" d="M220.72,129c0,1.7-0.5,2.5-1.6,3.1c-4.3,2-8.7,4-13,6.1c-1.3,0.6-2.4,0.2-3.3-1.2
			c-0.8-1.4-0.6-2.6,0.6-3.5c3.9-2.7,7.9-5.5,11.8-8.2c1-0.7,1.9-0.7,2.9-0.1C219.82,126.1,220.62,127.6,220.72,129z"/>
		<path fill="#9A9A9A" d="M186.62,135.1c-0.2,1.5-0.7,2.6-1.7,3.1c-0.5,0.3-1.4,0.4-1.9,0.1c-4.5-2-9-4.1-13.4-6.2
			c-0.8-0.4-1.2-0.9-1.3-1.8c-0.4-2.2,1.1-4.7,3.1-5.4c0.8-0.3,1.4-0.2,2.1,0.3c4.1,2.8,8.2,5.7,12.2,8.6
			C186.12,134.1,186.42,134.8,186.62,135.1z"/>
		<path fill="#9A9A9A" d="M220.72,154.4c-0.2,1.6-1,3.1-2.7,4c-1,0.5-1.9,0.5-2.8-0.2c-3.9-2.8-7.9-5.5-11.8-8.3
			c-1.2-0.8-1.3-1.9-0.5-3.3s1.9-1.9,3.2-1.3c4.4,2,8.8,4.1,13.3,6.1C220.42,152,220.82,152.9,220.72,154.4z"/>
		<path fill="#9A9A9A" d="M190.52,168.2c0.5-5.1,0.9-10,1.4-14.9c0.1-0.5,0.5-1.1,1-1.4c1-0.6,2.1-0.6,3.2,0c0.7,0.3,1,0.8,1.1,1.6
			c0.4,4.7,0.8,9.3,1.2,14c0.2,2.2-0.7,3.3-2.9,3.7c-1.2,0.2-2.3,0.1-3.4-0.5C191.02,170.1,190.32,169.3,190.52,168.2z"/>
		<path fill="#9A9A9A" d="M198.52,115.1c-0.5,5.2-0.9,10.2-1.4,15.2c-0.1,0.5-0.6,1.1-1,1.4c-1,0.6-2.1,0.5-3.2,0
			c-0.7-0.3-1-0.8-1.1-1.6c-0.4-4.6-0.8-9.3-1.2-13.9c-0.2-2.3,0.7-3.5,3-3.8c1.3-0.2,2.5,0,3.5,0.6
			C198.02,113.5,198.62,114.3,198.52,115.1z"/>
		<path fill="#9A9A9A" d="M186.72,148.4c-0.4,0.5-0.6,1.2-1.1,1.5c-4,2.9-8.1,5.7-12.1,8.5c-0.8,0.5-1.5,0.5-2.4,0.2
			c-1.9-0.8-3.3-3.3-2.9-5.4c0.1-0.8,0.5-1.3,1.3-1.7c4.5-2.1,9-4.1,13.4-6.2C184.62,144.6,186.52,146.1,186.72,148.4z"/>
		<rect x="11.42" y="112.33" opacity="0" fill="#9A9A9A" width="209.31" height="62.92"/>
	</g>
	<g>
		<path fill="#9A9A9A" d="M263.42,134c0.5,0,0.8,0,1.1,0c6,0,12,0,18,0c0.6,0,0.9-0.2,1.1-0.8c1.8-5.7,3.7-11.4,5.5-17
			c0.1-0.3,0.2-0.5,0.3-0.9c0.2,0.4,0.3,0.6,0.3,0.9c1.9,5.7,3.7,11.3,5.5,17c0.2,0.7,0.5,0.9,1.2,0.9c6,0,11.9,0,17.9,0
			c0.3,0,0.6,0,1.1,0c-0.3,0.3-0.5,0.5-0.7,0.6c-4.9,3.5-9.8,7.1-14.7,10.6c-0.5,0.4-0.6,0.7-0.4,1.3c1.9,5.7,3.7,11.3,5.6,17
			c0.1,0.3,0.2,0.6,0.3,1.2c-5.5-4-10.8-7.8-16.1-11.7c-5.3,3.9-10.6,7.7-16.1,11.7c0.4-1.1,0.6-2,0.9-2.9c1.6-5.1,3.3-10.1,5-15.2
			c0.2-0.7,0.1-1-0.5-1.4c-4.9-3.5-9.8-7.1-14.7-10.7C263.92,134.4,263.82,134.2,263.42,134z"/>
		<path fill="#9A9A9A" d="M323.12,164.7c-1.3,0-2.4,0-3.6,0c0-10.2,0-20.4,0-30.7c1.2,0,2.3,0,3.6,0c0,1,0,2,0,3.2
			c2.8-2.6,5.9-3.6,9.4-3.2c3.5,0.4,6.4,1.9,8.4,5c0.3-0.3,0.5-0.6,0.7-0.8c2.7-3.3,6.3-4.6,10.4-4.2c6.1,0.6,9.7,4.3,10.2,10.6
			c0.1,1.3,0.2,2.6,0.2,3.9c0,5.3,0,10.6,0,15.9c0,0.1,0,0.1-0.1,0.2c-1.2,0-2.4,0-3.6,0c0-0.4,0-0.7,0-1c0-5.2,0.1-10.4,0-15.7
			c0-1.8-0.2-3.7-0.7-5.4c-0.8-3.1-3.1-4.8-6.3-5c-1.1-0.1-2.3,0-3.3,0.3c-3.2,0.8-5.3,3.4-5.5,6.9c-0.1,1.7-0.1,3.5-0.1,5.2
			c0,4.5,0,9,0,13.5c0,0.3,0,0.7,0,1.1c-1.2,0-2.4,0-3.7,0c0-0.3,0-0.7,0-1c0-5.4,0-10.8,0-16.2c0-1.2-0.1-2.5-0.3-3.7
			c-0.6-3.5-3.2-5.7-6.7-6.1c-5-0.6-8.2,2.9-8.8,7.3c-0.1,1-0.2,2-0.2,2.9c0,5.3,0,10.5,0,15.8
			C323.12,164,323.12,164.3,323.12,164.7z"/>
		<path fill="#9A9A9A" d="M396.62,164.7c-1.2,0-2.3,0-3.6,0c0-1.6,0-3.2,0-5c-4.3,4.5-9.4,5.8-15.1,4.7c-3.6-0.7-6.5-2.6-8.8-5.5
			c-4.8-6.3-4-15.4,1.8-20.9c5.3-5.1,15.6-5.7,22,1c0-1.7,0-3.3,0-4.9c1.3,0,2.5,0,3.7,0C396.62,144.3,396.62,154.5,396.62,164.7z
			 M393.22,149.3c-0.1-6.9-5.1-11.9-11.9-11.8c-6.7,0.1-11.6,5.2-11.6,11.8c0.1,6.8,5.1,11.8,11.9,11.8
			C388.22,161.1,393.22,155.9,393.22,149.3z"/>
		<path fill="#9A9A9A" d="M430.82,145.7c-1.1,0-2,0-3,0c-0.6,0-0.9-0.2-1.1-0.8c-2.7-7.5-11.3-9-16.7-5.9c-4.4,2.6-6.6,7.4-5.7,12.6
			c0.8,4.8,4.5,8.5,9.6,9.3c6.1,1,11.4-2.5,12.9-7.2c0.1-0.2,0.3-0.5,0.5-0.5c1.1,0,2.3,0,3.5,0c-1.3,6.2-6.9,11.5-14.7,11.5
			c-8.6,0-15.1-6-15.6-14.4c-0.5-8.2,5.3-15.2,13.1-16.2C420.72,133.2,428.72,137,430.82,145.7z"/>
		<path fill="#9A9A9A" d="M430.32,134c1.3,0,2.4,0,3.6,0c0.2,0,0.5,0.4,0.6,0.6c1.6,4.1,3.3,8.2,4.9,12.3c1.4,3.4,2.7,6.8,4.1,10.2
			c0.1,0.3,0.2,0.6,0.4,1c0.2-0.4,0.3-0.6,0.4-0.9c3.2-7.5,6.3-14.9,9.5-22.4c0.3-0.6,0.6-0.9,1.3-0.8c1,0.1,2,0,3.2,0
			c-0.1,0.4-0.2,0.6-0.3,0.9c-5.7,13.3-11.4,26.5-17.1,39.8c-0.1,0.2-0.4,0.5-0.7,0.5c-1.1,0.1-2.3,0-3.6,0c0.1-0.3,0.2-0.6,0.3-0.9
			c1.5-3.5,3.1-7,4.6-10.5c0.2-0.5,0.2-0.9,0-1.4c-3.6-9.1-7.2-18.2-10.8-27.3C430.62,134.7,430.52,134.4,430.32,134z"/>
		<path fill="#9A9A9A" d="M476.42,143.3c-1.1,0-2.1,0-3.1,0c-0.2,0-0.4-0.3-0.4-0.5c-0.1-0.6-0.1-1.1-0.1-1.7
			c-0.3-1.7-1.2-2.9-2.9-3.3c-1.3-0.3-2.6-0.3-3.9,0.3c-1.5,0.7-2.4,1.9-2.5,3.6c-0.1,1.8,0.5,3.2,2.3,4c1.3,0.5,2.6,0.9,3.9,1.3
			c0.7,0.2,1.4,0.4,2.1,0.7c6.7,2.2,6.9,10.5,3.5,14.1c-2.6,2.8-5.8,3.6-9.4,2.7c-3.4-0.8-5.8-2.9-6.7-6.4c-0.3-1.1-0.2-2.4-0.4-3.6
			c1.4,0,2.5,0,3.7,0c0.1,0.8,0.1,1.6,0.2,2.4c0.4,2.2,1.8,3.7,4,4.2c2.3,0.5,4.4,0.2,5.9-1.8c1.4-1.8,1.4-3.9,0.5-6
			c-0.6-1.3-1.9-1.9-3.2-2.4c-1.8-0.6-3.6-1-5.3-1.7c-4.8-2-6.3-7.5-3.3-11.7c1.8-2.5,4.4-3.5,7.4-3.3
			C473.72,134.2,477.02,138.1,476.42,143.3z"/>
		<path fill="#9A9A9A" d="M456.12,126.6c0.4-1.2,0.7-2.3,1.1-3.5c0.2-0.6,0.1-0.9-0.4-1.2c-1-0.7-2-1.4-2.9-2.3c1.2,0,2.5,0,3.7,0
			c0.5,0,0.8-0.2,0.9-0.7c0.3-1.2,0.8-2.4,1.4-3.6c0.3,1,0.6,2,1,3c0.5,1.5,0.1,1.2,1.7,1.3c1.1,0,2.1,0,3.2,0.2
			c-1.2,0.9-2.4,1.7-3.6,2.6c0.5,1.4,0.9,2.8,1.3,4.2l-0.1,0.1c-1.2-0.9-2.4-1.7-3.6-2.6c-1.2,0.9-2.4,1.7-3.6,2.6
			C456.22,126.7,456.22,126.7,456.12,126.6z"/>
		<rect x="263.42" y="115.3" opacity="0" fill="#9A9A9A" width="219.3" height="59.94"/>
	</g>
	<g>
		<path fill="#9A9A9A" d="M1143.92,162.3c-1,1.8-2.3,3.4-3.8,4.8c-2.9,2.6-6.1,4.4-9.9,5c-3.7,0.6-7.2,0-10.6-1.7
			c-4-2-6.9-5.1-8.8-9.2c-3-6.5-3.1-13.2-0.3-19.7c2.5-5.8,7-9.6,13.3-10.7c3.8-0.7,7.5-0.4,10.9,1.3c3.1,1.6,5.2,4,6.6,7.1
			c1.7,3.7,2.3,7.6,2,11.7c0,0.4-0.2,0.4-0.5,0.4c-7.8,0-15.6,0-23.4,0c-0.2,0-0.3,0-0.6,0c0.1,1,0.2,2,0.3,3
			c0.4,2.7,1.2,5.3,2.8,7.5c1.7,2.5,4,4.2,7.1,4.8c2.6,0.5,5,0,7.4-1.1c2.3-1,4.2-2.6,6-4.4c0.1-0.1,0.2-0.3,0.3-0.4
			C1143.22,161.4,1143.52,161.8,1143.92,162.3C1143.92,162.2,1143.92,162.3,1143.92,162.3z M1118.82,148c4.8,0,9.5,0,14.2,0
			c-0.1-0.8-0.1-1.5-0.2-2.3c-0.2-2.1-0.5-4.2-1.2-6.3c-0.5-1.4-1.1-2.8-2.3-3.8c-1.6-1.5-3.9-1.7-5.7-0.3c-1,0.7-1.7,1.6-2.3,2.6
			c-1.1,1.9-1.7,3.9-2.1,6C1119.22,145.2,1119.02,146.6,1118.82,148z"/>
		<path fill="#9A9A9A" d="M1103.02,116.5c0,16.4,0,32.8,0,49.3c0,0.5,0,1,0.1,1.5c0.1,0.9,0.5,1.4,1.4,1.6c0.7,0.2,1.5,0.3,2.3,0.5
			c0,0.7,0,1.4,0,2.2c-6.1,0-12.2,0-18.3,0c0-0.7,0-1.4,0-2.1c0-0.1,0.2-0.2,0.3-0.2c0.6-0.1,1.3-0.2,1.9-0.3
			c1.1-0.3,1.5-0.7,1.6-1.8c0-0.4,0.1-0.8,0.1-1.2c0-13.3,0-26.6,0-40c0-0.5,0-1-0.1-1.5c-0.1-0.8-0.5-1.5-1.3-1.7
			c-1-0.2-2-0.4-3-0.5c-0.4-0.1-0.9-0.1-1.3-0.1c-0.3,0-0.3-0.1-0.3-0.4c0-0.5,0-1,0-1.5c0-0.3,0.1-0.5,0.4-0.5
			c2.4-0.5,4.7-1,7.1-1.5c2.5-0.5,5-1.1,7.5-1.6c0.1,0,0.3-0.1,0.4-0.1C1102.02,116.5,1102.52,116.5,1103.02,116.5z"/>
		<path fill="#9A9A9A" d="M937.72,171.6c0-0.9,0-1.6,0-2.5c0.8-0.1,1.6-0.1,2.4-0.2c0.6-0.1,1.1-0.2,1.7-0.3
			c0.8-0.2,1.2-0.8,1.3-1.6c0-0.4,0.1-0.8,0.1-1.2c0-14.2,0-28.4,0-42.5c0-0.5,0-1.1-0.1-1.6c-0.1-0.7-0.5-1.1-1.2-1.3
			c-0.9-0.2-1.8-0.3-2.7-0.5c-0.4-0.1-0.8-0.1-1.3-0.1c0-0.8,0-1.6,0-2.5c0.1,0,0.2,0,0.3,0c8.2,0,16.4,0,24.5,0
			c3.3,0,6.6,0.6,9.7,2c2.8,1.3,5,3.2,6.3,6.1c2,4.4,1.1,9.7-2.3,13.3c-2,2.2-4.4,3.6-7.2,4.4c-0.2,0.1-0.4,0.1-0.5,0.2v0.1
			c0.1,0,0.3,0.1,0.4,0.1c2.6,0.6,5.1,1.5,7.3,3.1c3.9,2.8,5.7,6.6,5.7,11.3c0,3.1-1,6-3,8.4c-1.8,2-4,3.3-6.6,4.2
			c-2.7,0.9-5.5,1.2-8.4,1.2c-8.6,0-17.2,0-25.9,0C938.02,171.6,937.82,171.6,937.72,171.6z M954.32,145.2c0,7.8,0,15.5,0,23.2
			c0.2,0,0.3,0,0.5,0c1.8,0,3.5,0,5.3,0c0.8,0,1.6,0,2.4-0.1c3.3-0.5,5.6-2.2,6.7-5.4c0.5-1.4,0.7-2.8,0.7-4.2
			c0.1-2.1,0-4.3-0.6-6.3c-1.1-3.9-3.6-6.4-7.7-6.9C959.22,145.2,956.82,145.3,954.32,145.2z M954.32,141.5c2.1,0,4.1,0.1,6.1,0
			c2.7-0.2,4.9-1.5,6.2-3.9c0.9-1.5,1.2-3.2,1.4-4.9c0.2-2.3,0.1-4.5-0.6-6.7c-0.9-2.9-2.8-4.8-5.8-5.3c-2.4-0.4-4.9-0.2-7.3-0.2
			C954.32,127.5,954.32,134.5,954.32,141.5z"/>
		<path fill="#9A9A9A" d="M982.92,135.5c0-0.7,0-1.4,0-2.2c1-0.2,2-0.5,3-0.7c3.6-0.9,7.2-1.8,10.8-2.6c0.4-0.1,0.9-0.1,1.4-0.1
			c0,0.2,0,0.4,0,0.6c0,9.6,0,19.3,0,28.9c0,0.9,0.1,1.9,0.2,2.8c0.4,2,1.6,3,3.7,3.1c2.3,0.1,4.4-0.6,6.4-1.6
			c1.1-0.6,2.2-1.4,3.2-2.1c0.1-0.1,0.2-0.3,0.2-0.5c0-7.5,0-15,0-22.5c0-1.8-0.6-2.5-2.4-2.7c-1-0.2-2.1-0.2-3.1-0.3
			c-0.2,0-0.3,0-0.5,0c0-0.8,0-1.5,0-2.3c1.2-0.3,2.4-0.5,3.6-0.8c3.9-0.9,7.8-1.7,11.7-2.5c0.5-0.1,1-0.1,1.5-0.1
			c0,0.2,0,0.4,0,0.6c0,10.7,0,21.5,0,32.2c0,0.7,0.1,1.5,0.3,2.2c0.4,1.4,1.5,2.1,2.9,2c0.1,0,0.1,0,0.2,0c0.1,0.7,0.2,1.4,0.3,2.1
			c-1.2,0.3-2.3,0.6-3.5,0.9c-3,0.8-6,1.5-9,2.3c-0.5,0.1-1.1,0.1-1.7,0.1c0-2.7,0-5.3,0-7.9c-0.4-0.2-0.5,0.1-0.7,0.3
			c-2,2.6-4.5,4.7-7.5,6.1c-2.8,1.3-5.7,1.9-8.8,1.4c-3.9-0.7-6.3-3.1-7.4-6.8c-0.4-1.4-0.6-2.8-0.6-4.2c0-7.5,0-14.9,0-22.4
			c0-0.5-0.1-1-0.1-1.4c-0.1-0.7-0.5-1.2-1.2-1.4c-0.9-0.2-1.8-0.3-2.6-0.5C983.22,135.5,983.12,135.5,982.92,135.5z"/>
		<path fill="#9A9A9A" d="M1029.22,157.2c0.8,0,1.6,0,2.4,0c0.2,0.7,0.3,1.3,0.5,2c0.6,2.2,1.5,4.3,3,6c2.8,3.3,7.5,4.5,11.3,2.9
			c1.8-0.8,3.1-2,3.4-4c0.3-1.8-0.2-3.3-1.4-4.7c-1.2-1.3-2.6-2.2-4.1-3.1c-2.1-1.2-4.2-2.4-6.3-3.6c-2.2-1.4-4.3-2.9-5.9-5.1
			c-2.5-3.5-3.3-7.3-1.9-11.5c0.9-2.6,2.8-4.4,5.2-5.6c2.1-1,4.3-1.5,6.5-1.7c4.8-0.4,9.4,0.3,13.9,1.9c0.7,0.2,0.9,0.6,1,1.3
			c0.1,2.9,0.4,5.8,0.6,8.7c0,0.2,0,0.3,0,0.5c-0.8,0-1.7,0-2.5,0c-0.3-0.9-0.5-1.9-0.8-2.8c-1.1-2.8-3-4.9-6-5.7
			c-2-0.6-3.9-0.4-5.8,0.5c-3.7,1.8-4.4,6-1.6,9c1.2,1.2,2.6,2.2,4.1,3c2,1.1,4.1,2.2,6.2,3.4c2.2,1.3,4.3,2.7,6,4.7
			c3.3,3.9,3.5,9.6,0.6,13.6c-1.4,1.9-3.4,3.2-5.6,4c-3.1,1.2-6.3,1.5-9.5,1.4c-3.5-0.1-7-0.7-10.3-1.8c-0.6-0.2-1.2-0.5-1.9-0.8
			c-0.1-0.1-0.3-0.2-0.3-0.3c-0.3-3.9-0.6-7.9-0.9-11.8C1029.22,157.5,1029.22,157.3,1029.22,157.2z"/>
		<path fill="#9A9A9A" d="M1086.02,135.2c-3.1,0-6.2,0-9.3,0c0,0.1,0,0.2,0,0.3c0,8.6,0,17.2,0,25.8c0,1.2,0.2,2.3,0.6,3.4
			c1,3,4.3,3.4,6.2,1.6c0.5-0.5,1.1-1,1.7-1.5c0.4,0.4,0.9,1,1.5,1.5c-2.2,3.4-5.1,5.7-9.3,6c-1.9,0.1-3.8,0.1-5.6-0.4
			c-3.2-0.8-5.1-3-5.6-6.2c-0.2-0.9-0.2-1.9-0.2-2.9c0-9,0-17.9,0-26.9c0-0.2,0-0.4,0-0.6c-1.8,0-3.5,0-5.3,0c0-1,0-2,0-2.9
			c0.8-0.2,1.6-0.4,2.4-0.7c5.4-1.8,8.8-5.6,10.6-11c0-0.1,0-0.2,0.1-0.2c0.1-0.3,0.1-0.8,0.3-0.9c0.2-0.2,0.7-0.1,1-0.1
			c0.6,0,1.1,0,1.7,0c0,3.9,0,7.8,0,11.7c3.2,0,6.2,0,9.4,0C1086.02,132.5,1086.02,133.8,1086.02,135.2z"/>
		<rect x="937.72" y="113.5" opacity="0" fill="#9A9A9A" width="206.2" height="72.7"/>
	</g>
	<g>
		<path fill="#9A9A9A" d="M1296.22,113.5c0.2,0.1,0.4,0.2,0.5,0.2c1.4,0,2.8,0,4.2,0c1,0,2,0.2,3,0.3c0.7,0,1.4,0,2,0
			c1.9,0.2,3.9,0.4,5.8,0.6c0.8,0.1,1.6,0.1,2.4,0.2c1.2,0.2,2.4,0.4,3.7,0.6c0.2,0,0.5,0,0.7,0c1.3,0.2,2.6,0.4,3.8,0.6
			c1,0.2,2.1,0.3,3.1,0.6c1.2,0.3,2.4,0.6,3.6,0.9c1.1,0.3,2.1,0.6,3.2,0.9c1.7,0.6,3.5,1.2,5.2,1.8c0.3,0.1,0.6,0.2,1,0.4
			c0,0.1,0,0.1-0.1,0.2c-0.3-0.1-0.6-0.1-0.9-0.2c-1.1-0.3-2.1-0.5-3.2-0.8c-0.3-0.1-0.6-0.1-0.8-0.3c-1.1-1-2.6-0.8-3.9-1.2
			c-1.4-0.4-2.9-0.5-4.4-0.7c-0.7-0.1-1.4-0.1-2.1-0.2c-1-0.1-1.9-0.2-2.9-0.3c-0.9-0.1-1.8-0.2-2.6-0.3c-0.9-0.1-1.9-0.2-2.8-0.2
			c-0.5,0-1-0.1-1.5-0.1c-0.9,0-1.9,0.1-2.8,0.1c-0.1,0-0.1,0-0.2,0c-1-0.7-2.1-0.2-3.2-0.4c-1-0.2-2-0.1-3-0.1
			c-1.1,0-2.2-0.1-3.4-0.1c-0.4,0-0.7,0-1.1,0c-1,0-2,0-3.1,0c-0.9,0-1.9,0.1-2.8,0.1c-0.1,0-0.2,0.1-0.2,0.1
			c-0.9-0.4-1.7-0.1-2.6,0c-1.2,0.1-2.5,0-3.7,0.1c-1.5,0-3.1,0-4.6,0.2c-2.2,0.2-4.3,0.5-6.5,0.7c-1,0.1-2.1,0.1-3.2,0.3
			c-0.9,0.1-1.7,0.4-2.6,0.5c-0.7,0.1-1.4,0.2-2.1,0.3c-0.7,0.2-1.5,0.5-2.2,0.7c-1.8,0.5-3.6,0.8-5.3,1.4c-1.6,0.5-3.1,1.2-4.7,2
			c-0.6,0.3-1.1,0.8-1.6,1.2c-0.3,0.3,0,1.1,0.5,1.5c1.7,1.2,3.7,1.9,5.6,2.6c0.8,0.3,1.6,0.3,2.4,0.4c0.7,0.1,1.3,0.4,1.9,0.5
			c1.1,0.2,2.1,0.3,3.2,0.5c1.9,0.3,3.9,0.7,5.9,0.9c1,0.1,2.1,0,3.1,0.1c0.8,0.1,1.6,0.3,2.4,0.4c0.4,0.1,0.7,0.1,1.1,0.1
			c1.1,0,2.2,0,3.3,0c1.4,0,2.7,0.1,4.1,0.2c1.1,0,2.2,0.1,3.3,0.2c1.2,0.1,2.4,0.1,3.6,0.2c0.9,0,1.8-0.1,2.6-0.1
			c1.6,0,3.3,0.1,4.9,0.1c0.9,0,1.8-0.1,2.8-0.1c0.8,0,1.7,0,2.5,0c0.5,0,1,0,1.5,0c1.8,0.1,3.7-0.1,5.5-0.3c1-0.1,2-0.1,3-0.2
			c1.9-0.1,3.7-0.3,5.6-0.4c1.4-0.1,2.8-0.2,4.1-0.9c0.2-0.1,0.5-0.2,0.8-0.2c1.2,0.2,2-0.7,2.9-1.1c0.5-0.2,0.5-1.1,0-1.4
			c-0.8-0.5-1.7-1-2.5-1.3c-1.4-0.5-3-0.8-4.4-1.2c-0.5-0.1-1-0.3-1.6-0.4c-1.9-0.3-3.8-0.6-5.8-0.9c-1-0.2-1.9-0.4-2.9-0.6
			c-0.1,0-0.2-0.1-0.3-0.1c-1.6-0.1-3.3-0.2-4.9-0.3s-3.1-0.3-4.7-0.3c-0.8,0-1.6,0.1-2.3,0.1c-0.5,0-1.1-0.1-1.6-0.1
			c-1.5,0-3,0.1-4.5,0.1c-0.9,0-1.8-0.1-2.7-0.1c-1,0-1.9,0.1-2.9,0.2c-1.4,0.1-2.8,0.2-4.2,0.3c-1,0.1-2,0.3-3,0.3
			c1.1-0.3,2.1-0.5,3.2-0.8c1.2-0.3,2.5-0.5,3.8-0.7c0.6-0.1,1.1-0.1,1.7-0.1c1.6-0.2,3.1-0.3,4.7-0.5c0.4,0,0.7,0,1.1,0
			c1.5-0.1,2.9-0.3,4.4-0.3c1.1,0,2.1,0.1,3.2,0.2c0.8,0,1.7,0,2.5,0.1c1.5,0.1,3,0.2,4.4,0.3c0.7,0,1.4,0.1,2,0.1
			c0.2,0,0.4,0,0.6,0c1.5,0.2,3,0.4,4.6,0.7c2.2,0.4,4.3,0.7,6.5,1.2c1.5,0.3,3,0.8,4.4,1.4c0.9,0.3,1.8,0.8,2.4,1.5
			c0.6,0.5,1.3,1.2,1,2.2c-0.1,0.3-0.2,0.5-0.4,0.7c-1.1,1-2.3,2.1-3.9,2.3c-0.3,0-0.7,0.3-1,0.4c-1.3,0.4-2.7,0.7-4,1.1
			c-1.5,0.4-3,0.6-4.6,0.7c-1,0.1-2,0.4-3.1,0.6c-0.2,0-0.4,0-0.7,0.1c-0.9,0.1-1.9,0.2-2.8,0.3c-0.5,0-1,0-1.5,0
			c-1.5,0.1-2.9,0.3-4.4,0.3c-1.5,0.1-3,0-4.5,0c-0.7,0-1.5,0.2-2.2,0.3c-0.1,0-0.3,0.1-0.4,0.1c-1,0-1.9-0.1-2.9-0.2
			c-0.2,0-0.5-0.1-0.7,0c-1,0.4-2,0-3,0c-0.5,0-0.9,0-1.4,0c-1.3,0-2.5,0-3.8,0c-1.1,0-2.1-0.1-3.2-0.2c-1.5-0.1-3.1-0.3-4.6-0.4
			c-0.6,0-1.2,0.1-1.8,0c-2-0.2-4-0.5-6-0.8c-2.1-0.3-4.3-0.7-6.4-1c-0.1,0-0.3-0.1-0.4-0.1c-0.9-0.4-1.7-0.7-2.8-0.8
			c-0.8,0-1.6-0.6-2.4-0.9c-2-0.6-3.9-1.6-5.7-2.6c-0.8-0.4-1.2-1.1-1.9-1.6c-0.7-0.5-0.7-2.3,0-3c0.4-0.4,0.8-0.7,1.3-1
			c0.5-0.4,1-0.7,1.6-1c0.6-0.3,1.2-0.7,1.8-0.9c1.1-0.4,2.2-0.8,3.3-1.1c1.3-0.5,2.6-1,3.9-1.4c1.7-0.5,3.5-0.9,5.3-1.3
			c1.2-0.2,2.5-0.2,3.7-0.4c0.4,0,0.7-0.2,1.1-0.3c0.1,0,0.2-0.1,0.4-0.1c1.4-0.1,2.8-0.3,4.2-0.4c1-0.1,2.1-0.1,3.1-0.2
			c0.5,0,1-0.1,1.5-0.2c2.3-0.1,4.7-0.2,7-0.3c0.1,0,0.2-0.1,0.3-0.2C1292.92,113.5,1294.52,113.5,1296.22,113.5z"/>
		<path fill="#9A9A9A" d="M1193.02,169.2c0.7,0,1.4,0,2.1,0c0.8,0.1,1.2-0.4,1.4-1.1c0.1-0.5,0.2-1,0.2-1.6c0-5.5,0-11.1,0-16.6
			c0-0.2,0-0.3,0-0.6c-1,0.1-1.9,0.1-2.9,0.2c-0.2-0.8-0.2-1.4,0.7-1.6l0.1-0.1c1.8-0.6,2.2-1.8,2.1-3.6c-0.1-2.3,0.1-4.6,1.3-6.7
			c1.5-2.5,3.3-4.8,5.5-6.7c1.1-0.9,2.5-0.8,3.9-0.5c0.1,0,0.3,0.3,0.3,0.5c0.1,1.2,0.2,2.3,0.2,3.5c0,0.3-0.3,0.6-0.4,0.9
			c-0.3-0.1-0.5-0.2-0.8-0.4c-1.2-0.9-2.4-1.2-3.8-0.7s-1.9,1.7-2,3c-0.2,3-0.1,5.9-0.2,8.9c0,0.1,0,0.2,0.1,0.3c2,0,4,0,6.2,0
			c-0.1,1-0.3,1.9-0.4,2.9c-2,0-3.8,0-5.8,0c0,0.4,0,0.7,0,1c0,3.3,0,6.6,0,9.8c0,2.3,0.1,4.6,0.2,6.9c0,1.4,0.5,1.9,2.2,2
			c0.7,0.1,1.4,0.1,2.2,0.2c0,0.5,0,1,0,1.6c-4.1,0-8.2,0-12.4,0C1193.02,170.3,1193.02,169.8,1193.02,169.2z"/>
		<path fill="#9A9A9A" d="M1268.02,170.2c0,0.4,0,0.7,0,1c0,3.5,0,7,0,10.4c0,0.6,0.1,1.3,0.2,1.9c0.1,0.8,0.7,1.1,1.5,1.1
			c0.7,0,1.3,0,2.1,0c0,0.6,0,1.1,0,1.6c-3.8,0-7.6,0-11.5,0c0-0.3,0-0.6,0-0.9c0-0.5,0.2-0.7,0.7-0.7c0.4,0,0.7,0,1.1,0
			c1.3,0,1.5-0.1,1.8-1.4c0.1-0.2,0.1-0.4,0.1-0.6c0.1-8.1,0.1-16.2,0.2-24.3c0-2.4-0.1-4.9-0.2-7.3c0-0.5-0.1-1-0.2-1.6
			c-0.1-0.6-0.5-0.9-1.2-0.9c-0.8,0-1.6,0-2.4,0c0-0.6,0-1.1,0-1.6c1.3-0.3,2.6-0.5,3.8-0.9c1.1-0.3,2.1-0.8,3.1-1.3
			c0.7-0.3,0.8-0.3,0.8,0.5c0,1.3,0,2.6,0,3.9c0,0.2,0,0.4,0.1,0.7c0.4-0.4,0.7-0.7,1-1c0.6-0.6,1.1-1.2,1.6-1.8
			c3.3-3.3,7.6-3.5,11.3-0.6c1.9,1.5,2.7,3.7,3.2,6c0.7,3.4,0.1,6.6-1.1,9.9c-1.4,3.6-4.1,5.8-7.2,7.8c-1.9,1.3-4,1.5-6.2,1.1
			C1269.82,171,1269.02,170.6,1268.02,170.2z M1268.02,159c0,1.9,0,3.7,0,5.6c0,0.4,0.2,0.9,0.5,1.2c1,0.8,2,1.6,3.1,2.1
			c2.9,1.4,6.4-0.1,7.9-2.6s2-5.3,1.9-8.2c-0.1-2.3-0.6-4.5-2-6.4c-1.3-1.6-3.1-2.6-5.1-2.6s-3.7,1.1-5.1,2.7
			c-0.9,1.1-1.3,2.4-1.2,3.8C1268.12,156.1,1268.02,157.5,1268.02,159z"/>
		<path fill="#9A9A9A" d="M1351.32,146.1c0-0.4,0-0.7,0-0.9c0-3,0-6.1,0-9.1c0-0.3-0.1-0.7-0.1-1c-0.2-1.1-0.4-1.2-1.6-1.2
			c-0.6,0-1.1,0-1.7,0c-0.1,0-0.1,0-0.3-0.1c0-0.4-0.1-0.8,0-1.2c0-0.2,0.3-0.4,0.5-0.5c2.2-0.5,4.4-1,6.6-1.6
			c0.8-0.2,1-0.1,0.8,0.8c0,0.2-0.1,0.4-0.1,0.7c-0.1,6.6-0.1,13.1-0.2,19.7c0,3.7,0,7.4,0,11.1c0,1.5,0.1,3.1,0.2,4.6
			c0.1,1.2,0.8,1.8,2.3,1.9c0.1,0,0.2,0,0.3,0c1.4,0,1.5,0.2,1.2,1.6c-2.6,0-5.2,0-7.9,0c0-1.5,0-3,0-4.5c-0.1,0-0.1-0.1-0.2-0.1
			c-0.7,0.7-1.5,1.4-2.2,2.2s-1.4,1.6-2.1,2.3c-0.3,0.3-0.9,0.4-1.4,0.5c-3.4,0.7-6.4-0.2-8.7-3.2c-1.8-2.3-2.5-5.1-2.6-8
			c-0.1-2,0-4,0.5-6c0.7-2.8,2.2-5,4.7-6.5c1.4-0.9,2.8-1.8,4.3-2.6c2.1-1,4.2-0.5,6.3,0.4
			C1350.32,145.6,1350.72,145.8,1351.32,146.1z M1351.32,156c0-1.5,0-3,0-4.5c0-0.4-0.1-0.8-0.3-1.1c-1-1.1-2-2.1-3.4-2.8
			c-3.5-1.7-6.6,0.1-8,2.8c-1.6,3.3-1.5,6.7-1.1,10.2c0.3,2.2,1.3,4.1,2.9,5.7c1.6,1.6,5,1.9,6.6,0.6c2.2-1.7,3.1-3.9,3.2-6.5
			C1351.42,159,1351.32,157.5,1351.32,156z"/>
		<path fill="#9A9A9A" d="M1247.12,169.2c0,0.6,0,1.1,0,1.6c-3.8,0-7.6,0-11.4,0c0-0.5,0-1,0-1.6c0.6,0,1.1,0,1.7,0
			c1.3,0,1.8-0.5,1.9-1.8c0-0.1,0-0.1,0-0.2c0.1-9,0.1-18,0.2-27c0-2.3-0.1-4.6-0.2-6.9c0-0.5-0.1-1-0.2-1.5c-0.1-0.6-0.5-0.7-1-0.7
			c-0.9,0-1.7-0.1-2.6-0.2c0-0.4-0.1-0.8,0-1.1c0.1-0.2,0.4-0.6,0.6-0.6c2.3-0.4,4.7-0.7,6.8-1.9c0.4-0.2,0.8,0,0.8,0.6
			c-0.1,1.6-0.1,3.3-0.1,4.9c0,2.5,0,5,0,7.4c0,2.8-0.1,5.6-0.2,8.4c0,0.3,0,0.5,0,1.1c0.9-1,1.9-1.7,2.5-2.6c2.3-3.5,7-3.2,9.7-1.2
			c1.9,1.4,2.7,3.3,2.8,5.5c0.1,4.4,0.1,8.8,0.2,13.2c0,1,0.1,2.1,0.2,3.1c0.1,0.9,0.5,1.3,1.5,1.3c0.4,0,0.8,0,1.3,0
			c0.6,0,0.8,0.2,0.8,0.8c0,0.7-0.2,0.9-0.9,0.9c-1.5-0.1-3-0.2-4.5-0.2c-0.8,0-1.7,0.1-2.7,0.2c0.1-0.8,0.2-1.5,0.2-2.2
			c0.1-4.4,0.2-8.7,0.1-13.1c0-1.5-0.3-3-0.6-4.5c-0.4-1.7-2.6-3.4-5.2-3.1c-2.8,0.3-5.3,3.6-5.2,6.2c0.2,3.6,0,7.2,0.1,10.8
			c0,1,0.2,2.1,0.3,3.1c0.1,0.7,0.5,1,1.2,1C1245.72,169.2,1246.32,169.2,1247.12,169.2z"/>
		<path fill="#9A9A9A" d="M1319.62,169.2c0,0.6,0,1.1,0,1.6c-3.8,0-7.5,0-11.3,0c0-0.5,0-1,0-1.6c0.7,0,1.4,0,2.2,0
			c0.8,0,1.2-0.4,1.3-1.2c0.1-1,0.1-1.9,0.2-2.9c0.1-3.3,0.2-6.6,0.2-9.9c0-1.9-0.2-3.9-0.3-5.8c0-0.7-0.4-0.9-1-0.9s-1.2,0-1.8,0
			c-0.5,0-0.8-0.1-0.7-0.6c0-0.5-0.2-1.1,0.6-1.2c1.1-0.2,2.1-0.4,3.1-0.7s2-0.7,3-1.2c0.8-0.4,0.9-0.3,0.9,0.6c0,1.1,0,2.1,0,3.2
			c0,0.3,0,0.5,0,0.6c1-0.9,2.1-1.8,3-2.8c1.8-1.9,4.1-2.2,6.5-1.6c3.7,1,5.2,3.4,5.3,7.2c0.1,5.1,0.1,10.2,0.2,15.2
			c0,1.6,0.7,2.1,2.1,2c0.5,0,1,0,1.5,0c0,0.6,0,1,0,1.6c-2.6,0-5.3,0-8.1,0c0.1-1.2,0.1-2.3,0.2-3.5c0-0.2,0.1-0.4,0.1-0.6
			c0.1-3.2,0.2-6.4,0.1-9.7c0-1.8-0.2-3.6-0.5-5.3c-0.3-1.9-2.1-3.3-4-3.5c-2.5-0.3-4.3,0.7-5.6,2.7c-0.5,0.8-0.8,1.9-0.8,2.8
			c-0.1,4.3,0,8.6,0,12.9c0,0.5,0.1,1,0.2,1.6c0.2,0.8,0.6,1.1,1.4,1.1C1318.32,169.2,1318.92,169.2,1319.62,169.2z"/>
		<path fill="#9A9A9A" d="M1295.92,171.8c-1.7,0.1-3.9-0.9-5.7-2.7c-1.5-1.6-2.4-3.5-3-5.6c-0.5-2-0.8-4.1-0.7-6.1
			c0.3-4,1.5-7.7,4.6-10.4c1.5-1.3,3.2-2,5.2-2.3c2-0.3,3.9-0.1,5.8,0.6c1.7,0.7,3,1.9,4.1,3.3c1.6,2,2.2,4.3,2.5,6.8
			c0.4,3.6,0,7-1.7,10.1C1305.02,169.4,1301.62,171.7,1295.92,171.8z M1304.72,159.1c0-0.4-0.1-1.2-0.2-1.9
			c-0.1-2.2-0.5-4.3-1.4-6.3c-0.9-2.1-2.1-3.9-4.5-4.5c-2-0.5-3.7,0-5.1,1.4c-1.7,1.6-2.2,3.7-2.4,5.8c-0.2,2.9-0.2,5.9,0.6,8.8
			c0.6,2.2,1.3,4.3,3,5.9c1.4,1.3,4,1.8,5.8,0.9c1.5-0.8,2.4-2.1,3-3.6C1304.42,163.7,1304.62,161.6,1304.72,159.1z"/>
		<path fill="#9A9A9A" d="M1234.02,152.2c-0.1-1-0.2-2-0.5-2.9c-0.5-1.7-1.9-2.5-3.5-3c-1.5-0.5-3-0.2-4.3,0.8
			c-1.3,1-1.8,3.1-1.7,4.5c0.3,2.4,2.2,3,4.1,3.6c2,0.6,3.9,1.2,5.8,1.9c2,0.8,2.8,2.5,3.1,4.5c0.3,3.1-0.6,5.7-2.8,7.9
			c-1.4,1.3-3.1,2-5,2.3c-2.7,0.4-5.3-0.4-8-0.9c-0.9-0.2-0.7-0.8-0.7-1.4c0.1-1.9,0.2-3.7,0.3-5.6c0-1.1,0-1.1,1.3-1
			c0.1,0.4,0.1,0.9,0.2,1.3c0.1,1,0.2,1.9,0.4,2.9c0.5,1.9,1.9,2.9,3.7,3.1c1.5,0.1,3.2,0.3,4.6-0.6c1.5-0.9,2.3-2.2,2.5-4
			c0.1-1.1,0-2.1-0.5-3.1c-0.8-1.3-2.3-1.6-3.6-2c-1.6-0.5-3.2-0.9-4.8-1.5c-2-0.7-3.2-2.1-3.7-4.1c-0.6-2.5-0.3-4.9,1.2-7
			c1.2-1.7,3-2.6,5-3.1c2.7-0.6,5.3,0.1,7.7,1.1c0.2,0.1,0.5,0.4,0.5,0.6c0,1.9-0.1,3.9-0.1,5.8
			C1234.82,152.2,1234.42,152.2,1234.02,152.2z"/>
		<path fill="#9A9A9A" d="M1268.22,135.4c23,2.5,45.9,2.4,68.7-2.1c-1.9,0.7-3.7,1.4-5.6,2c-1.1,0.4-2.3,0.5-3.4,0.8
			c-1.2,0.3-2.5,0.8-3.7,1c-2.9,0.5-5.8,0.9-8.7,1.3c-1.3,0.2-2.7,0.4-4,0.6c-1.2,0.1-2.5,0.1-3.7,0.1c-1,0-2.1,0.1-3.1,0.2
			c-1.1,0.1-2.1,0.2-3.2,0.2c-1.7,0-3.4-0.1-5-0.1c-1.9,0-3.8,0-5.7,0c-0.7,0-1.4-0.2-2-0.3c-1.6-0.2-3.2-0.3-4.8-0.5
			c-1.8-0.2-3.6-0.3-5.3-0.6c-1-0.1-2-0.4-2.9-0.6c-1.2-0.3-2.4-0.5-3.5-0.8C1270.82,136.1,1269.52,135.7,1268.22,135.4z"/>
		<path fill="#9A9A9A" d="M1208.72,170.8c0-0.4,0-0.9,0-1.5c0.6,0,1.1,0,1.7,0c1.4,0,1.8-0.4,1.8-1.8c0.1-3.4,0.1-6.8,0.2-10.2
			c0-2.1,0-4.2,0-6.3c0-0.5,0-1.1-0.2-1.5c-0.1-0.3-0.6-0.7-0.9-0.8c-0.8-0.2-1.6-0.1-2.5-0.2c0-0.6,0-1.1,0-1.4
			c2.5-0.8,4.9-1.5,7.6-2.3c0.1,0.2,0.2,0.6,0.2,1c0,4.1-0.1,8.1-0.1,12.2c0,3,0.1,6,0.2,9c0,0.5,0,1.1,0.2,1.5
			c0.3,0.5,0.8,0.8,1.2,1.2c0.1,0,0.1-0.1,0.2-0.1c0,0.4,0,0.9,0,1.4C1215.02,170.8,1211.92,170.8,1208.72,170.8z"/>
		<path fill="#9A9A9A" d="M1309.82,125.9c-0.5,0.2-0.9,0.4-1.4,0.5c-1.3,0.2-2.7,0.4-4,0.4c-1,0.1-2.1,0-3.1-0.1c-0.8,0-1.6,0-2.4,0
			c-1.5-0.1-3-0.3-4.5-0.5c-0.2,0-0.4-0.3-0.6-0.4c0.2-0.1,0.3-0.4,0.5-0.4c1.2-0.2,2.4-0.6,3.5-0.6c2.4-0.1,4.7,0,7.1,0.1
			c1.3,0.1,2.6,0.2,3.9,0.3c0.3,0,0.7,0.2,1,0.3C1309.82,125.6,1309.82,125.7,1309.82,125.9z"/>
		<path fill="#9A9A9A" d="M1214.32,138.6c-1,0-1.6-0.5-2.1-1.2c-1-1.5-0.7-3.7,0.8-4.7c1.1-0.7,2.4-0.4,3.3,0.8
			c1,1.5,0.7,3.9-0.9,4.7C1215.02,138.4,1214.62,138.5,1214.32,138.6z"/>
		<path fill="#9A9A9A" d="M1364.32,133.6c0.2,1.5-1.3,3-2.8,2.9c-1.8-0.1-2.9-1.2-2.9-2.8c0-1.9,1.2-2.9,3-3
			C1363.12,130.7,1364.42,132,1364.32,133.6z M1361.52,136c1.4,0,2.5-1,2.5-2.4c0-1.3-1.3-2.6-2.5-2.6c-1.3,0-2.5,1.2-2.5,2.6
			S1360.02,136,1361.52,136z"/>
		<path fill="#9A9A9A" d="M1360.42,131.8c0.4,0,0.9,0,1.5,0s1.1,0.7,0.7,1.1c-0.6,0.7-0.1,1.2,0.2,1.8c0,0.1,0.1,0.1,0.1,0.2
			c-1.2,0.5-0.8-1.1-1.7-1.2c0,0.4,0,0.8,0,1.3c-0.2,0-0.6,0-0.9,0C1360.42,134,1360.42,132.9,1360.42,131.8z M1361.22,133.3
			c0.5,0.1,0.8,0,0.8-0.6c0-0.5-0.3-0.6-0.8-0.5C1361.22,132.6,1361.22,132.9,1361.22,133.3z"/>
		<rect x="1193.02" y="113.5" opacity="0" fill="#9A9A9A" width="165.6" height="72.7"/>
	</g>
	<g>
		<path fill="#9A9A9A" d="M793.02,227.5c2.9,1.7,5.7,1.6,8.8-0.1c-0.8,3.4-1.5,6.6-2.2,9.7c-0.8,3.2-1.6,6.5-2.3,9.7
			c-0.2,1.2-0.8,2.6,0.6,3.4c1.4,0.7,2.6-0.1,3.7-1c0.6-0.5,1.2-1,0.9-2.1c-2.3-8.1,2.5-16.5,10.8-18.9c2.6-0.8,5.4-1.2,8-0.3
			c1.7,0.5,3.2,1.6,4.8,2.5c4.2-4.8,11.7-4.1,12.8,3c1.1-1.2,2.1-2.6,3.3-3.7c1.7-1.6,3.7-2.5,6.1-2.3c4,0.2,6.5,3.4,5.9,8
			c-0.3,2.7-1.2,5.4-1.9,8c-0.5,1.8-1.1,3.6-1.4,5.4c-0.1,0.5,0.3,1.2,0.5,1.8c0.5-0.3,1.2-0.4,1.5-0.8c0.4-0.5,0.7-1.1,0.8-1.8
			c0.3-2.1,1.7-3.5,3.7-3.5c1.8-0.1,2.7,0.8,3.1,3.2c0.1,0.4,0.2,0.7,0.2,1.1c0.3,1.7,0.8,3.4,2.7,3.8c2.2,0.4,4.4,0.2,6.1-1.5
			c1.1-1.1,1.2-2.5,0.2-3.5c-1-1.1-2.3-2.1-3.6-2.9c-1.6-1-3.4-1.6-4.9-2.7c-5.2-3.6-4.6-10.5,1.2-13.2c4.1-1.9,8.3-1.7,12.2,0.3
			c1.3,0.7,2.4,2.1,3.2,3.5c0.6,1,0.5,2.4-0.6,3.3c-1.1,0.9-2.4,1.3-3.8,0.8c-1.3-0.5-1.7-1.6-1.7-2.9c-0.1-4.2-1.3-5.1-5.3-4.3
			c-1.4,0.3-2.8,0.8-3.2,2.3c-0.5,1.5,0.4,2.7,1.5,3.5c1.1,0.9,2.5,1.5,3.7,2.2s2.5,1.2,3.7,2c2.9,2,3.9,4.9,3.4,8.3
			c-0.6,3.4-2.7,5.4-6,6.3c-3.8,1-7.7,0.8-11.4-0.4c-1.4-0.5-2.5-1.5-3.9-2.4c-0.2,0.2-0.6,0.7-1,1.1c-1.9,2.1-4.9,2.9-7.2,1.8
			c-2.1-0.9-3.4-3.4-3-6.2c0.4-2.9,1.2-5.7,1.8-8.5c0.4-2,0.9-4.1,1.2-6.1c0.1-0.8-0.4-2-1-2.3c-0.6-0.3-1.9,0.1-2.5,0.6
			c-1,1.1-2.1,2.3-2.5,3.7c-1.9,5.9-3.6,11.8-5.2,17.8c-0.3,1.2-0.8,1.6-2,1.5c-2.3-0.1-4.7,0-7.3,0c0.3-1.4,0.6-2.6,0.8-3.9
			c1.2-5.5,2.5-10.9,3.7-16.4c0.2-0.7,0-1.7-0.4-2.3c-0.9-1.2-3-0.2-3.4,1.5c-1.3,4.9-5.1,8.1-10.5,8.6c-1.8,0.2-3.6,0.3-5.9,0.5
			c0.7,2,1.2,4,2.1,5.6c1.2,2.1,3.6,2.9,6.2,1.9c1.8-0.7,3.3-2,5-3c0.6-0.3,1.2-0.4,1.8-0.7c0,0.7,0.2,1.6-0.2,2.1
			c-5,7.8-16.6,8.2-21.1,1.6c-0.1-0.1-0.2-0.1-0.4-0.3c-0.4,0.4-0.8,0.8-1.2,1.1c-2,1.9-4.4,3.2-7.1,3.6c-3.1,0.5-4.9-0.7-5.7-3.7
			c-0.2-0.9-0.4-1.8-0.6-2.8c-0.9,1.2-1.6,2.4-2.5,3.4c-1.8,2.1-4.1,3.3-7,3.3s-4.8-1.3-5.8-4.1c-0.1-0.3-0.2-0.7-0.4-1.2
			c-1.3,1-2.4,1.9-3.6,2.8c-1.1,0.8-2.3,1.5-3.5,2c-3.7,1.4-7.1-0.4-7.8-4.3c-0.3-2-0.4-4.1,0-6c2.4-10.9,5-21.7,7.5-32.7
			c3,1.8,6,1.4,9.2,0c-0.7,3.2-1.3,6.2-2,9.1c-2,9-4,18-6,27c-0.3,1.2-0.9,2.8,0.4,3.4c0.7,0.3,2.2-0.6,3.1-1.2
			c1.8-1.1,2.7-2.6,3.2-4.7c0.9-4.8,2.1-9.6,3.2-14.3c0.6-2.6,2.5-3.9,4.7-3.5c2.4,0.5,3.6,2.6,3,5.3c-1,4.7-2.1,9.3-3.1,14
			c-0.2,1.2-0.3,2.4-0.2,3.6c0.1,1.5,1.4,2.2,2.6,1.3c1.3-1,2.6-2.3,3.3-3.8c1.5-3.7,2.7-7.5,3.8-11.4
			C791.82,233.1,792.32,230.4,793.02,227.5z M810.32,240.6c0.5,0.1,0.7,0.2,0.9,0.2c4.5,0.3,7.7-3.2,7.7-8.2c0-1.3-0.1-2.6-1.5-3.1
			c-1.4-0.5-2.6,0.1-3.4,1.2c-0.8,1-1.5,2.1-1.9,3.3C811.32,236.1,810.92,238.3,810.32,240.6z"/>
		<path fill="#9A9A9A" d="M709.72,254.5c1-4.2,1.9-8.1,2.8-12.1c0.6-2.8,1.3-5.7,1.9-8.5c0.1-0.7-0.2-1.8-0.7-2.1s-1.5,0.1-2.2,0.3
			c-0.2,0-0.4,0.4-0.6,0.4c-0.4,0.1-0.8,0.1-1.2,0.1c0-0.4-0.1-0.8,0-1.1c1.1-2.3,4.9-4.2,7.7-3.9c3,0.4,4.7,2.1,5.3,5.4
			c0,0.1,0.1,0.3,0.2,0.7c0.4-0.5,0.6-0.9,0.9-1.3c1.7-2.3,3.7-4.2,6.7-4.8c3.9-0.9,7.2,1.4,7.8,5.4c0.4,2.9-0.3,5.7-1.1,8.4
			c-0.7,2.4-1.5,4.8-2.1,7.2c-0.1,0.6,0.3,1.3,0.5,1.9c0.6-0.3,1.3-0.4,1.7-0.9c0.6-0.6,1-1.3,1.4-2.1c2.4-4.5,4.1-9.3,5.2-14.3
			c0.1-0.4,0.1-0.8,0.1-1.4c-1.2,0-2.3,0-3.4,0c0-0.3,0-0.5,0.1-0.6c3.2-4.5,6.5-9.1,9.7-13.6c0.9-1.3,1.8-2.7,2.8-3.9
			c1.3-1.7,3.2-2.5,5.3-2.7c2.3-0.3,4.3,1.1,4.8,3.3c0.5,2.1-0.8,4.2-2.9,4.9c-2.1,0.7-4.3-0.3-5.3-2.4c-0.1-0.3-0.3-0.7-0.4-1
			c-0.1,0-0.3,0-0.4,0c-0.2,3.8-0.4,7.7-0.7,11.7c1.5,0,2.8,0.1,4.1,0c1.2-0.1,1.4,0.5,1.2,1.5c-0.6,2.7-0.6,2.8-3.3,2.7
			c-1.7-0.1-2.2,0.5-2.5,2c-1.6,6.4-3,12.8-5.1,19c-2.4,7-6.7,12.9-13.9,15.8c-1.9,0.8-4.1,1.2-6.2,1.4c-2.4,0.3-4.4-1.2-4.8-3.3
			c-0.5-2.4,0.7-4.6,2.9-5.2c2.3-0.7,4.4,0.3,5.5,2.6c0.6,1.3,1.3,2.5,3.1,2.3c1.7-0.3,2.4-1.4,2.7-3c1.1-5,2.2-10,3.1-15.2
			c-0.3,0.4-0.5,0.8-0.8,1.2c-0.8,1-1.5,2.2-2.4,3.1c-1.9,2-4.9,2.5-7,1.4c-2.5-1.3-3.1-3.6-2.9-6.1c0.1-1.9,0.6-3.7,1-5.5
			c0.6-2.9,1.4-5.8,2-8.7c0.2-1.1,0.3-2.3-1-2.9c-1.2-0.5-2.3,0.2-3,1.1c-0.9,1.2-1.8,2.5-2.3,3.9c-1.8,5.7-3.4,11.5-5,17.2
			c-0.3,1.1-0.6,1.6-1.8,1.5C714.82,254.4,712.42,254.5,709.72,254.5z"/>
		<path fill="#9A9A9A" d="M881.92,231.8c-0.9,0-1.8,0.1-2.6,0c-0.3,0-0.6-0.4-1-0.6c0.2-0.3,0.4-0.7,0.7-0.8c4.7-2,8.1-5.4,10.8-9.6
			c0.9-1.4,2.4-0.5,3.9-0.6c-0.5,2.6-1,4.9-1.5,7.4c1,0,1.9,0,2.8,0c0.8,0,1.2,0.4,0.9,1.2c-0.1,0.5-0.3,1-0.4,1.5
			c-0.1,1.2-0.8,1.8-2,1.6c-1.7-0.3-2.4,0.4-2.7,2.1c-0.9,4.3-1.9,8.6-2.9,12.9c-0.1,0.5-0.2,1-0.2,1.5c-0.1,2.5,1.6,3.7,3.9,2.6
			c0.4-0.2,0.8-0.4,1.2-0.7c2.2-1.5,2.2-1.5,1.5-3.9c-2-7.3,3.1-16,11-18.1c2.4-0.6,5.1-0.6,7.7-0.5c2,0.1,3.7,1.4,4.9,3.2
			c2-2.6,4.6-3.8,7.8-3.4c3.4,0.4,5,2.6,5.5,6.3c0.5-1,0.9-1.7,1.3-2.4c1.2-2.3,3.1-3.7,5.8-4c2.6-0.3,4.7,1.2,5.1,3.6
			c0.4,2.2-1,4.3-3.3,4.8c-2.3,0.6-4.4-0.7-5.1-3.1c-0.1-0.2-0.2-0.5-0.4-1.2c-0.7,1.2-1.3,2-1.5,2.8c-1.9,6.3-3.7,12.5-5.5,18.9
			c-0.3,1-0.6,1.4-1.6,1.3c-2.5-0.1-5.1,0-7.8,0c0.8-3.5,1.6-6.9,2.4-10.3c0.7-3,1.5-6,2.1-9c0.2-1,0.3-2,0.2-2.9
			c-0.2-1.6-1.6-2.3-2.8-1.2c-0.7,0.7-1.3,1.7-1.5,2.7c-0.4,2-1.3,3.5-2.8,4.7c-2.9,2.4-6.4,3.5-10.1,3.6c-1,0-2,0-3.1,0
			c0,2.8,0.5,5.3,2.7,7c1.9,1.6,4.1,1.3,6.2,0.3c1.4-0.7,2.6-1.7,3.9-2.5c0.6-0.4,1.3-0.5,1.9-0.7c-0.1,0.7,0.1,1.7-0.3,2.2
			c-5,7.6-16.2,7.9-20.7,1.8c-0.1-0.1-0.2-0.1-0.4-0.2c-2.3,2-4.9,3.6-8,4.2c-0.3,0.1-0.5,0.1-0.8,0.2c-6,0.9-9.4-2.5-8.2-8.5
			c0.8-4.1,1.9-8.1,2.8-12.2C881.72,233.2,881.82,232.6,881.92,231.8z M902.32,240.6c2.8,0.5,5-0.3,6.6-2.4c1.7-2.1,2.3-4.7,1.6-7.3
			c-0.4-1.5-2-2.1-3.4-1.2c-0.8,0.5-1.6,1.2-2.1,2C903.22,234.3,902.72,237.4,902.32,240.6z"/>
		<path fill="#9A9A9A" d="M693.52,254.6c1.2-5.7,2.2-11.1,3.3-16.5c0.5-2.2,0.9-4.5,1.4-6.7c0.6-2.8,3.1-4.5,5.8-3.9
			c2.7,0.6,4.4,3,3.8,5.8c-1.3,6.7-2.7,13.4-4.1,20.2c-0.1,0.4-0.6,1-0.9,1C699.92,254.6,696.82,254.6,693.52,254.6z"/>
		<path fill="#9A9A9A" d="M703.72,223.6c0.4-0.7,0.8-1.2,1.2-1.9c-1.9-0.9-3.4-2.1-3.8-4.2c-0.5-2.3,0.2-4.3,2.1-5.6
			c1.9-1.4,4-1.5,6-0.3c2,1.2,2.9,3.1,2.7,5.4C711.62,220.9,708.62,223.4,703.72,223.6z"/>
		<rect x="692.02" y="211.6" opacity="0" fill="#9A9A9A" width="251.47" height="58.34"/>
	</g>
	<g>
		<path fill="#9A9A9A" d="M127.22,234.8c-0.9,1.7-1.5,2.8-2,3.9c-2.9,6.2-5.8,12.5-8.8,18.6c-0.9,1.8-2.1,3.4-3.5,4.8
			c-3.8,3.6-8.7,2.7-10.8-2.1c-1.1-2.4-1.4-5.1-2.1-7.7c-0.4,0.4-0.9,1-1.4,1.5c-2.4,2.5-5.3,4.2-8.7,4.9c-7,1.5-12.6-3.5-11.5-10.5
			c0.7-4.7,2.6-9.1,5.7-12.8c2-2.4,4.6-3.2,7.6-2.9c3.3,0.3,5.2,4.2,2.9,6.6c-1.9,2-4.3,3.5-6.7,4.9c-1.4,0.8-2.4,1.7-2.6,3.4
			c-0.3,2.1-0.8,4.2-0.9,6.3c-0.1,2.4,0.7,3.1,3.2,2.7c3.7-0.5,6.6-2.6,9.5-4.7c2.2-1.7,3.5-3.7,4.1-6.6
			c2.4-12.4,6.5-24.4,11.2-36.2c0.3-0.7,0.5-1.4,0.7-2.1c0.3-1,0.2-2.4,2-1.9c1.8,0.4,2.8,1.8,2.4,3.2c-1.5,5.1-3.1,10.3-4.6,15.4
			c-2.4,8.8-4.8,17.7-5.4,26.8c-0.1,2.2-0.1,4.5,0.3,6.8c0.4,2.5,2.2,3,3.7,1.1c2.2-2.9,4.4-6,6-9.3c3.9-8,7.4-16.1,11.1-24.1
			c1-2.3,2.3-2.8,3.7-1.3c0.5,0.5,0.7,1.3,0.8,2.1c1.1,7.7,2.2,15.4,3.3,23.1c0.2,1.5,0.8,2.9,1.5,4.2c1.2,2.1,3.4,2.5,4.9,0.7
			c1.7-1.9,3.3-4.1,4.2-6.5c4.1-10.2,5-20.8,2.2-31.5c-0.2-0.6,0.2-1.4,0.3-2.1c0.5,0.6,1.2,1.1,1.3,1.7c3.4,13.3,2.4,26.2-4.5,38.3
			c-1.7,3-3.8,5.7-7.7,5.3c-4.2-0.5-7-3-8.2-6.9c-1.3-4.3-2-8.8-2.9-13.3C127.52,237.3,127.42,236.4,127.22,234.8z M86.92,239.4
			c0.3,0.2,0.5,0.5,0.8,0.7c1-1,2-2,2.9-3c-0.3-0.2-0.5-0.5-0.8-0.7C88.82,237.4,87.82,238.4,86.92,239.4z"/>
		<path fill="#9A9A9A" d="M163.32,237c1.4-0.4,2.5-0.7,3.6-0.9c2-0.3,3.1,0.4,3.3,2.4c0.2,2,0.3,4.1,0.4,6.5c2.7-1.4,5.2-2.6,7.7-4
			c0.4-0.2,0.5-0.9,0.6-1.5c0.4-1.5,0.7-2.9,1-4.4c0.3-1.2,0.5-2.4,2.2-2.1c1.8,0.3,2.8,1.7,2.5,3.3c-0.7,4.3-1.5,8.7-2.2,13
			c-0.1,0.7-0.1,1.3,0.2,2.3c0.5-0.5,1-0.9,1.4-1.5c4.2-5.2,8.1-10.6,10.8-16.8c0.4-0.8,1.4-2,1.9-1.9c1.5,0.2,3,1,3.1,2.8
			c0.1,1.5-0.2,3-0.3,4.5c-0.4,5.6-0.8,11.2-1,16.8c0,1.3,0.9,2.5,1.4,3.8c1-0.9,2.6-1.6,3-2.7c2.4-5.8,4.5-11.8,6.6-17.7
			c1.1-3.2,1.8-6.5,2.8-9.7c0.2-0.6,0.8-1,1.3-1.5c0.3,0.2,0.6,0.4,0.9,0.6c-3.2,9.6-6.3,19.1-9.6,28.6c-0.4,1.1-1.1,2.2-1.8,3.2
			c-1.9,2.6-4.5,3.1-6.9,0.9c-1.2-1.1-2.4-2.8-2.7-4.4c-0.6-3.3-0.7-6.7-1-10c-0.1-1.5,0-3-0.4-4.6c-1.9,3-3.8,5.9-5.7,8.9
			c-0.6,1-1.3,2-2.1,2.8c-1.1,1.2-2.3,2.2-4.2,1.5c-1.9-0.7-3.6-2.9-3.4-4.7c0.2-2.4,0.7-4.8,1.1-7.5c-2.4,1.3-4.6,2.4-6.8,3.7
			c-0.4,0.2-0.7,1-0.7,1.5c-0.7,4.6-3.6,7.6-7.4,9.6c-3.7,1.9-8.2-0.1-9.2-4.2c-0.5-2.3-0.4-4.9-0.1-7.3c0.5-4.6,2.2-8.8,4.7-12.6
			c0.8-1.2,1.5-2.6,3.4-1.7c1.8,0.8,2.5,2,1.5,3.9C163.32,236.2,163.42,236.5,163.32,237z M163.22,238.3c-0.2,0.2-0.3,0.3-0.3,0.4
			c-0.4,1.5-0.8,3.1-1.3,4.6c-1.1,3-0.1,3.6,2.8,3.8c1.4,0.1,3.8-0.5,4.1-1.4c0.6-1.6,0.1-3.7-0.4-5.4c-0.2-0.6-1.8-0.8-2.7-1.2
			C164.72,238.8,164.02,238.5,163.22,238.3z M160.42,248.6c-0.2,2.3-0.5,4.8-0.8,7.6c4.8-1.3,7.1-4.2,8.7-7.6
			C165.72,248.6,163.32,248.6,160.42,248.6z"/>
		<path fill="#9A9A9A" d="M23.22,235.4c2.7-1.6,5-2.7,6.9-4.2c5.1-3.9,9.3-8.6,12.4-14.3c3.1-5.7,1.2-10.2-5-12.2
			c-3.1-1-6.1-1.1-9.2-0.1c-6.7,2.1-11.9,6.2-15.2,12.5c-0.2,0.3-0.3,0.6-0.5,0.9c0,0-0.1,0-0.3,0.1c-1.4-0.5-1.1-1.4-0.5-2.4
			c4-7.2,10.2-11.4,18.2-12.9c4.2-0.8,8.4-0.5,12.4,1c6.9,2.6,9.4,8.6,6.4,15.3c-1.5,3.5-4.1,6.2-7.1,8.5c-5.3,4.1-11,7.6-17.2,10.2
			c-0.7,0.3-1.3,1.3-1.5,2c-0.3,1.1-0.1,2.3-0.1,3.5c0,6.4,0.1,12.8,0.1,19.2c0,1.8-0.8,2.3-2.3,1.3c-2.3-1.5-4.1-3-4-6.3
			c0.5-13.3,0.7-26.7,1.1-40c0.1-2.3,0.5-4.6,2.8-5.9c0.7-0.4,1.7-0.7,2.4-0.5c0.4,0.1,0.7,1.4,0.7,2.1c-0.2,5.6-0.4,11.3-0.6,16.9
			C23.12,231.7,23.22,233.2,23.22,235.4z"/>
		<path fill="#9A9A9A" d="M67.62,241.6c1.5-2.1,3-4.3,4.7-6.4c1.9-2.4,3.6-2.4,5.5,0.1c0.5,0.6,0.9,1.3,1.5,2.2
			c-0.5-0.1-0.7-0.1-0.8-0.2c-3.1-2.5-3-2.4-5.7,0.8c-3.8,4.6-4.6,10.2-5.6,15.7c-0.4,1.9-0.3,3.8-0.5,5.7c-0.1,0.6-0.3,1.6-0.6,1.7
			c-0.6,0.2-1.5-0.1-2-0.4c-2.4-1.6-4-3.6-3.4-6.7c0.2-0.8,0.1-1.7,0.2-3.1c-1.3,2.4-2.3,4.3-3.4,6.1c-0.7,1.2-1.5,2.3-2.3,3.4
			c-1.1,1.4-2,3.4-4.1,2.9c-2.2-0.5-3.7-2.4-4-4.6c-0.4-2.7-0.3-5.5-0.3-8.2c0-1.7,0.2-3.5-0.1-5.3c-1.6,2.7-3.1,5.4-4.8,8.1
			c-0.8,1.3-1.7,2.5-2.8,3.5c-0.6,0.5-2,0.9-2.5,0.6c-2.3-1.2-4.7-2.9-4.6-5.7c0.1-4.8,0.9-9.7,1.4-14.5c4,0.9,5.5,2.7,5.4,6.1
			c-0.1,2.5-0.3,4.9-0.3,7.4c0,0.8,0.1,1.6,0.2,3c1.2-1.5,2.3-2.5,2.9-3.7c2.7-5.1,5.2-10.3,7.8-15.4c0.3-0.6,1.3-1.7,1.5-1.6
			c0.8,0.4,1.7,1,2,1.8c0.4,1,0.4,2.2,0.4,3.2c-0.3,6.5-0.6,12.9-0.9,19.4c0,0.5,0,1.1,0,2c0.6-0.4,1-0.6,1.2-1
			c2.3-3.6,4.9-7,6.6-10.9c1.3-3,1.2-6.5,1.8-9.8c0.5-3,0.8-6,1.3-9c0.4-2.2,1.1-2.3,2.8-0.9c1.3,1.1,1.9,2.3,1.8,4.1
			C67.52,235.4,67.62,238.4,67.62,241.6z"/>
		<rect x="5.79" y="202.37" opacity="0" fill="#9A9A9A" width="208.73" height="62.73"/>
	</g>
	<g>
		<path fill="#9A9A9A" d="M966.82,216.7c0.3,0,0.6-0.1,0.9-0.1c6.3,0,12.5,0,18.8,0c1.6,0,3.3,0.2,4.9,0.6
			c9.9,2.4,11.8,12.3,8.1,18.8c-0.6,1-1.2,1.9-2,2.7c-0.7,0.8-1.6,1.5-2.5,2.3c1.2,2.9,2.4,5.9,3.7,8.9c1.2,3,2.5,6,3.8,9.1
			c-0.4,0-0.6,0.1-0.9,0.1c-2.8,0-5.5,0-8.3,0c-0.6,0-0.9-0.2-1.1-0.7c-2-4.8-4.1-9.7-6.1-14.5c-0.3-0.6-0.6-0.8-1.3-0.8
			c-2.5,0-5,0-7.4,0c-0.3,0-0.6,0-1,0c0,5.4,0,10.6,0,16.1c-3.2,0-6.4,0-9.5,0C966.82,245,966.82,230.9,966.82,216.7z M976.32,225.5
			c0,3,0,5.7,0,8.4c3.9,0,7.6,0.1,11.4,0c0.9,0,1.9-0.5,2.8-0.9c1.5-0.8,2-2.1,1.7-3.7c-0.3-2-1.7-3.1-3.5-3.2
			C984.62,225.6,980.52,225.6,976.32,225.5z"/>
		<path fill="#9A9A9A" d="M1152.62,259.5c-1.1-0.2-2.2-0.3-3.3-0.5c-4.1-0.8-7.7-2.5-10.7-5.5c-1.3-1.3-2.7-2.6-4.2-4
			c2.6-1.7,5.1-3.3,7.5-4.9c1.4,1.4,2.7,2.8,4.1,3.9c3.4,2.8,7.4,3.1,11.5,1.7c1.5-0.5,2.8-1.5,3.2-3.2c0.4-1.5,0-2.9-1.4-3.6
			c-1.1-0.7-2.4-1.2-3.7-1.6c-2.7-0.8-5.4-1.4-8-2.2c-2.4-0.7-4.6-1.9-6.3-3.9c-4.2-5.1-3.3-12.8,2.1-16.7c3.3-2.4,7.1-3.1,11-2.8
			c5.8,0.5,10.6,2.9,14.4,7.2c0.2,0.2,0.4,0.5,0.6,0.7c0,0.1,0.1,0.2,0.1,0.3c-2.1,1.8-4.3,3.6-6.4,5.3c-1.2-0.9-2.3-1.9-3.5-2.7
			c-2.5-1.9-5.4-2.5-8.5-2c-0.9,0.1-1.8,0.4-2.5,0.9c-1.7,1.1-1.7,3.4,0.1,4.5c0.8,0.5,1.7,0.8,2.7,1.1c3.4,1,6.9,2,10.3,3.1
			c4.5,1.4,7.8,5.7,8,10.4c0.2,5.8-2.5,9.9-7.6,12.5c-1.9,1-4,1.5-6.1,1.7c-0.4,0-0.8,0.1-1.2,0.2
			C1154.12,259.5,1153.42,259.5,1152.62,259.5z"/>
		<path fill="#9A9A9A" d="M1193.72,259c0-14.1,0-28.1,0-42.3c0.3,0,0.6,0,1,0c2.2,0,4.4,0,6.6,0c0.8,0,1.1,0.3,1.4,0.9
			c3.3,7,6.7,13.9,10,20.9c0.1,0.3,0.3,0.5,0.5,0.9c0.2-0.4,0.4-0.6,0.5-0.9c3.4-7,6.9-14,10.3-21c0.3-0.5,0.6-0.8,1.2-0.8
			c2.7,0,5.4,0,8.2,0c0,0.4,0,0.7,0,1c0,13.5-0.1,26.9-0.1,40.4c0,0.8-0.2,1.1-1.1,1.1c-2.6-0.1-5.2,0-8,0c0-7,0-14,0-21
			c-0.1,0-0.2-0.1-0.3-0.1c-3.6,7-7.2,14-10.9,21.1c-3.4-7.1-6.8-14-10.2-20.9c-0.1,0-0.1,0-0.2,0c0,6.9,0,13.8,0,20.8
			C1199.72,259,1196.82,259,1193.72,259z"/>
		<path fill="#9A9A9A" d="M1018.92,225.3c0,2.3,0,4.4,0,6.6c4.1,0,8.2,0,12.3,0c0,2.9,0,5.8,0,8.7c-4.1,0-8.1,0-12.3,0
			c0,3.2,0,6.4,0,9.7c7.7,0,15.5,0,23.2,0c0,3,0,5.9,0,8.8c-10.9,0-21.8,0-32.7,0c0-14.1,0-28.2,0-42.4c10.7,0,21.4,0,32.2,0
			c0,2.9,0,5.7,0,8.6C1034.02,225.3,1026.52,225.3,1018.92,225.3z"/>
		<path fill="#9A9A9A" d="M1352.62,216.7c0,2.9,0,5.7,0,8.6c-7.5,0-14.9,0-22.4,0c0,2.2,0,4.3,0,6.6c4,0,8,0,12,0c0,3,0,5.8,0,8.8
			c-4,0-8,0-12,0c0,3.2,0,6.4,0,9.6c7.6,0,15.2,0,22.9,0c0,3,0,5.8,0,8.7c-0.3,0-0.7,0-1,0c-10.1,0-20.2,0-30.3,0
			c-0.8,0-1.1-0.2-1.1-1.1c0-13.5,0-26.9,0-40.4c0-0.3,0-0.6,0-0.9C1331.42,216.7,1341.92,216.7,1352.62,216.7z"/>
		<path fill="#9A9A9A" d="M1046.12,259c0.1-0.4,0.2-0.6,0.4-0.9c6-13.6,12-27.2,17.9-40.8c0.3-0.6,0.6-0.8,1.2-0.8c2,0,4.1,0,6.1,0
			c0.4,0,0.7,0.1,0.9,0.5c6,13.9,12,27.7,18,41.6c0,0.1,0,0.1,0,0.3c-0.2,0-0.4,0.1-0.6,0.1c-2.8,0-5.5,0-8.3,0
			c-0.6,0-0.8-0.2-1-0.7c-1.2-2.7-2.4-5.3-3.6-8c-0.2-0.6-0.5-0.8-1.2-0.8c-5,0-10.1,0-15.1,0c-0.6,0-0.9,0.2-1.1,0.7
			c-1.2,2.7-2.4,5.4-3.6,8.1c-0.2,0.4-0.3,0.7-0.8,0.7c-2.9,0-5.8,0-8.7,0C1046.42,259.1,1046.32,259.1,1046.12,259z M1068.42,230.4
			c-1.6,3.6-3.1,7-4.6,10.4c3.1,0,6.1,0,9.1,0C1071.52,237.3,1070.02,234,1068.42,230.4z"/>
		<path fill="#9A9A9A" d="M1241.32,216.7c0.3,0,0.6,0,0.9,0c6.4,0,12.8,0,19.2,0c3.5,0,6.8,0.8,9.7,3c7,5.3,6.4,16.4-1.1,21.1
			c-2.5,1.6-5.3,2.3-8.3,2.3c-3.3,0-6.7,0-10,0c-0.3,0-0.7,0-1.1,0c0,5.4,0,10.6,0,16c-3.1,0-6.1,0-9.2,0
			C1241.32,244.9,1241.32,230.8,1241.32,216.7z M1250.42,234c0.2,0,0.3,0.1,0.4,0.1c3.6,0,7.2,0,10.8,0c1,0,2.1-0.3,3-0.7
			c1.6-0.7,2.4-2,2.4-3.7c0-1.7-0.9-3-2.5-3.5c-1.1-0.4-2.3-0.6-3.4-0.6c-3.3-0.1-6.5,0-9.8,0c-0.3,0-0.6,0-0.9,0.1
			C1250.42,228.4,1250.42,231.2,1250.42,234z"/>
		<path fill="#9A9A9A" d="M1128.82,250.4c0,3,0,5.8,0,8.7c-10.9,0-21.7,0-32.7,0c0-14.1,0-28.2,0-42.4c3.1,0,6.1,0,9.3,0
			c0,11.2,0,22.4,0,33.7C1113.32,250.4,1121.02,250.4,1128.82,250.4z"/>
		<path fill="#9A9A9A" d="M1282.12,216.7c3.1,0,6.1,0,9.2,0c0,11.2,0,22.4,0,33.7c0.4,0,0.8,0,1.2,0c6.9,0,13.8,0,20.7,0
			c1.1,0,1.1,0,1.1,1.1c0,2.2,0,4.4,0,6.5c0,0.3,0,0.6,0,1c-10.8,0-21.4,0-32.2,0C1282.12,244.9,1282.12,230.8,1282.12,216.7z"/>
		<path fill="#9A9A9A" d="M1185.92,259c-3,0-6,0-9,0c0-14.1,0-28.2,0-42.3c3,0,6,0,9,0C1185.92,230.8,1185.92,244.8,1185.92,259z"/>
		<rect x="962.13" y="214.8" opacity="0" fill="#9A9A9A" width="390.99" height="44.2"/>
	</g>
	<g>
		<path fill="#9A9A9A" d="M379.92,265.1c0-0.2,0-0.4,0-0.6c0-12.4,0-24.9,0-37.3c0-0.2,0-0.4,0-0.6c1.1,0,2.2,0,3.4,0
			c0,1.6,0,3.1,0,4.7c0,0,0,0,0.1,0c0-0.1,0.1-0.1,0.1-0.2c1.6-3.1,4.2-4.7,7.6-5.1c2.5-0.3,4.9,0.2,7,1.5c2.4,1.5,3.9,3.7,4.8,6.3
			c0.9,2.8,1.1,5.6,0.9,8.5c-0.1,2.1-0.5,4.1-1.4,6c-1.5,3.3-3.9,5.6-7.6,6.3c-3.1,0.6-6.1,0.2-8.8-1.8c-1.1-0.8-1.9-1.9-2.6-3.1
			c0-0.1-0.1-0.2-0.1-0.3c0,0,0,0-0.1,0c0,0.2,0,0.3,0,0.4c0,4.9,0,9.9,0,14.8c0,0.2,0,0.3,0,0.5
			C382.22,265.1,381.12,265.1,379.92,265.1z M383.32,240.4c0,1.8,0.2,3.6,0.7,5.3c1.2,3.9,3.9,6.1,7.7,6.1c3.4,0.1,6.1-1.6,7.5-4.7
			c0.8-1.8,1.1-3.7,1.2-5.7c0.1-2.4-0.1-4.7-0.9-6.9c-1.5-4.1-4.9-6.2-9.2-5.5c-2.8,0.4-4.6,2.1-5.7,4.6
			C383.62,235.8,383.32,238.1,383.32,240.4z"/>
		<path fill="#9A9A9A" d="M666.92,225.2c-0.2,0-0.4,0-0.6,0c0-1.5,0-2.9,0-4.4h-0.1c-0.6,0.9-1.3,1.9-1.9,2.9c-0.7-1-1.3-1.9-2.1-3
			c0,1.5,0,3,0,4.5c-0.2,0-0.4,0-0.6,0c0-1.8,0-3.7,0-5.5c0.4-0.1,0.7,0,0.9,0.4c0.5,0.9,1.1,1.7,1.7,2.7c0.6-0.9,1.2-1.7,1.7-2.6
			c0.2-0.4,0.5-0.6,1-0.5C666.92,221.5,666.92,223.4,666.92,225.2z"/>
		<path fill="#9A9A9A" d="M287.92,244.2c0,3.2,0,6.5,0,9.8c-4.5,0-8.9,0-13.4,0c0-10.3,0-20.6,0-30.9c-1.9,0-3.7,0-5.5,0
			c0-3.5,0-7,0-10.5c6.3,0,12.5,0,18.8,0c0,3.2,0,6.4,0,9.7c4.6-7,10.9-10.8,19.2-10.7c6,0.1,11,2.4,15.2,6.7c8.5,8.8,8,22.9-1.1,31
			c-3.3,2.9-7.1,4.7-11.4,5.3c-4.3,0.6-8.5,0-12.4-1.9C293.42,250.8,290.32,248,287.92,244.2z M315.22,244.9
			c-0.1-0.2-0.1-0.3-0.1-0.4c-1-3.1-2-6.2-3.1-9.3c-0.1-0.3-0.1-0.5,0.2-0.7c2.6-1.9,5.2-3.8,7.9-5.7c0.1-0.1,0.2-0.2,0.3-0.2v-0.1
			c-0.1,0-0.3,0-0.4,0c-3.2,0-6.4,0-9.7,0c-0.3,0-0.5-0.1-0.6-0.4c-0.9-2.8-1.8-5.6-2.7-8.4c-0.1-0.4-0.3-0.8-0.4-1.3
			c-0.1,0.2-0.1,0.3-0.1,0.4c-1,3.1-2,6.2-3,9.3c-0.1,0.3-0.2,0.4-0.5,0.4c-3.2,0-6.5,0-9.7,0c-0.1,0-0.3,0-0.5,0
			c0.2,0.2,0.3,0.3,0.5,0.3c2.6,1.9,5.2,3.8,7.8,5.7c0.3,0.2,0.3,0.4,0.2,0.7c-1,3.1-2,6.1-3,9.2c0,0.1-0.1,0.3-0.1,0.5
			c2.9-2.1,5.7-4.2,8.6-6.3C309.52,240.7,312.32,242.7,315.22,244.9z"/>
		<path fill="#9A9A9A" d="M497.42,237.7c3.3,5.5,6.5,10.9,9.8,16.4c-0.2,0-0.3,0-0.4,0c-2.5,0-5,0-7.4,0c-0.3,0-0.4-0.1-0.6-0.3
			c-2.9-5-5.8-10-8.7-15c-0.2-0.3-0.3-0.4-0.7-0.4c-2.1,0-4.1,0-6.2,0c-0.1,0-0.3,0-0.5,0c0,5.2,0,10.5,0,15.7c-2.3,0-4.6,0-6.9,0
			c0-13.1,0-26.2,0-39.3c0.1,0,0.2,0,0.3,0c5.5,0,10.9,0,16.4,0c2.1,0,4.3,0.2,6.3,1.1c4.2,1.8,6.5,5,6.9,9.5
			c0.2,2.3-0.1,4.5-1.2,6.5c-1.4,2.5-3.4,4.4-6.1,5.4C498.02,237.5,497.72,237.6,497.42,237.7z M482.72,220.9c0,3.8,0,7.5,0,11.2
			c0.1,0,0.2,0,0.3,0c2.6,0,5.1,0,7.7,0c1,0,2.1-0.1,3.1-0.2c1.4-0.2,2.7-0.7,3.6-1.9c0.8-1.1,1.1-2.4,1.1-3.8
			c-0.1-2.6-1.6-4.4-4.1-4.9c-1.1-0.2-2.3-0.3-3.5-0.3c-2.2,0-4.3,0-6.5,0C483.82,220.9,483.32,220.9,482.72,220.9z"/>
		<path fill="#9A9A9A" d="M598.22,226.7c0.1,0,0.3,0,0.4,0c2,0,4,0,6,0c0.3,0,0.4,0.1,0.4,0.3c1.5,5.8,3,11.6,4.6,17.4
			c0.2,0.7,0.3,1.4,0.5,2.2c0.2-0.9,0.3-1.8,0.6-2.6c1.1-4.2,2.2-8.5,3.3-12.7c0.4-1.4,0.8-2.9,1.1-4.3c0.1-0.3,0.2-0.4,0.4-0.4
			c1.7,0,3.4,0,5.2,0c0.2,0,0.4,0,0.4,0.3c1.5,5.9,3.1,11.9,4.6,17.8c0.1,0.6,0.2,1.2,0.4,1.8c0-0.1,0.1-0.2,0.1-0.3
			c0.9-3.7,1.8-7.3,2.8-11c0.7-2.8,1.5-5.5,2.2-8.2c0.1-0.3,0.2-0.4,0.5-0.4c1.9,0,3.8,0,5.7,0c0.1,0,0.3,0,0.4,0
			c-0.1,0.2-0.1,0.3-0.1,0.5c-2.7,8.9-5.4,17.7-8.1,26.6c-0.1,0.3-0.2,0.5-0.6,0.5c-1.9,0-3.7,0-5.6,0c-0.2,0-0.4,0-0.4-0.3
			c-1.3-4.9-2.6-9.8-3.9-14.7c-0.4-1.5-0.7-3.1-1-4.7c-1.2,6.7-3.4,13.1-5.3,19.6c-0.1,0-0.2,0-0.4,0c-1.9,0-3.9,0-5.8,0
			c-0.3,0-0.4-0.1-0.5-0.3c-2.6-8.9-5.2-17.9-7.8-26.8C598.32,226.9,598.22,226.8,598.22,226.7z"/>
		<path fill="#9A9A9A" d="M598.12,242.2c-6.8,0-13.4,0-20.1,0c0,3.3,2.6,6.3,5.8,6.8c4,0.7,7.2-0.7,9.5-4c0.1-0.2,0.2-0.3,0.3-0.5
			c1.5,1.2,3,2.3,4.6,3.5c-0.5,0.6-1,1.3-1.5,1.9c-2.7,3-6,4.6-10,4.9c-2.7,0.2-5.3-0.1-7.7-1.3c-3.1-1.5-5.3-4-6.4-7.2
			c-1.4-3.9-1.5-7.9,0-11.8c1.8-4.6,5.2-7.4,10-8.2c2.6-0.5,5.3-0.3,7.8,0.7c3.4,1.3,5.6,3.8,6.8,7.2c0.7,2.1,1,4.3,1,6.6
			C598.12,241.1,598.12,241.6,598.12,242.2z M591.52,237.2c0-0.2,0-0.3,0-0.4c-0.2-1.5-0.8-2.9-1.9-3.9c-1.7-1.5-3.7-1.9-5.9-1.5
			c-2.7,0.5-4.5,2-5.4,4.7c-0.1,0.4-0.2,0.8-0.2,1.2C582.62,237.2,587.02,237.2,591.52,237.2z"/>
		<path fill="#9A9A9A" d="M532.72,242.2c-6.7,0-13.4,0-20.1,0c0.2,1.5,0.6,2.9,1.5,4.2c1.4,1.9,3.4,2.7,5.7,2.8
			c3.5,0.1,6.2-1.3,8.1-4.2c0.1-0.2,0.2-0.3,0.3-0.5c1.5,1.1,3,2.3,4.6,3.5c-0.7,0.9-1.3,1.7-2.1,2.5c-2.6,2.6-5.7,4-9.3,4.3
			c-2.3,0.2-4.5,0-6.7-0.8c-3.6-1.3-6-3.7-7.4-7.2c-1.6-4.3-1.8-8.6,0-12.8c1.8-4.3,5.2-6.8,9.8-7.7c2.4-0.4,4.8-0.3,7.1,0.4
			c3.2,1,5.5,3,6.9,6.1C532.62,235.7,532.92,238.8,532.72,242.2z M512.82,237.2c4.5,0,8.9,0,13.4,0c-0.1-1.9-0.8-3.4-2.3-4.6
			s-3.2-1.5-5-1.3c-2.6,0.3-4.5,1.6-5.6,4C513.02,235.9,512.82,236.5,512.82,237.2z"/>
		<path fill="#9A9A9A" d="M636.62,249.3c1.5-1.3,3-2.6,4.4-3.9c1,1.3,2.2,2.3,3.6,3c2.4,1.2,5,1.4,7.6,0.7c0.6-0.2,1.1-0.5,1.6-0.8
			c1.4-1.2,1.1-3.4-0.7-4c-1.2-0.4-2.6-0.7-3.8-1c-2.1-0.5-4.2-0.8-6.2-1.6c-1.2-0.5-2.2-1-3.2-1.9c-1.8-1.6-2.3-3.7-2.1-6
			c0.3-3.4,2.4-5.5,5.4-6.7c3.5-1.4,7.1-1.4,10.7-0.4c2.2,0.6,4.3,1.7,6,3.2c0.1,0.1,0.3,0.3,0.5,0.4c-1.3,1.4-2.5,2.7-3.7,4
			c-0.1-0.1-0.2-0.2-0.3-0.3c-2.7-2.4-5.8-3.2-9.4-2.6c-0.6,0.1-1.2,0.4-1.7,0.8c-1.1,0.7-1.4,2.9,0.3,3.6c1,0.4,2.1,0.7,3.1,1
			c2.2,0.6,4.5,1,6.7,1.6c1.6,0.4,3,1.1,4.2,2.2c1.2,1.2,1.8,2.7,1.8,4.4c0.1,4.1-2,7.2-6,8.7c-3.1,1.2-6.4,1.3-9.7,0.7
			c-2.9-0.6-5.5-1.8-7.7-3.7c-0.3-0.3-0.7-0.7-1-1C636.92,249.6,636.82,249.5,636.62,249.3z"/>
		<path fill="#9A9A9A" d="M532.92,226.6c0.4,0,0.8,0,1.1,0c1.8,0,3.6,0,5.3,0c0.2,0,0.4,0,0.4,0.3c1.8,6,3.5,12,5.3,18
			c0.1,0.5,0.2,0.9,0.4,1.5c0.1-0.3,0.1-0.4,0.2-0.6c1.4-4.8,2.7-9.7,4.1-14.5c0.4-1.5,0.9-3,1.3-4.5c0.1-0.2,0.1-0.3,0.3-0.3
			c2.1,0,4.2,0,6.4,0c0,0,0.1,0,0.2,0c0,0.2-0.1,0.3-0.1,0.4c-2.9,8.9-5.9,17.8-8.8,26.7c-0.1,0.3-0.2,0.4-0.5,0.4c-2,0-4.1,0-6.1,0
			c-0.3,0-0.4-0.1-0.5-0.4c-2.9-8.9-5.8-17.8-8.7-26.7C533.02,226.9,532.92,226.8,532.92,226.6z"/>
		<path fill="#9A9A9A" d="M442.42,240.7c-7,0-13.9,0-21,0c0,0.7,0,1.4,0.1,2c0.2,1.9,0.7,3.8,1.8,5.4c1.7,2.5,4.1,3.6,7.1,3.7
			c4.4,0.1,7.4-2,9.4-5.7c0.1-0.1,0.1-0.3,0.2-0.4c0.9,0.6,1.7,1.1,2.7,1.7c-0.4,0.6-0.7,1.3-1.1,1.9c-2.7,3.9-6.5,5.6-11.1,5.6
			c-2.2,0-4.3-0.5-6.2-1.6c-2.4-1.4-4.1-3.4-5.1-6c-1.7-4.6-1.8-9.3,0.1-13.9c1.4-3.5,4-6,7.7-7c3.8-1,7.4-0.6,10.6,1.8
			c1.9,1.5,3.1,3.5,3.9,5.7c0.7,2.1,1,4.3,1,6.6C442.52,240.6,442.52,240.6,442.42,240.7z M438.92,237.9c-0.2-0.9-0.3-1.9-0.5-2.8
			c-1.2-4.2-4.6-6.7-8.9-6.3c-5.5,0.5-7.6,5.3-7.8,9.1C427.42,237.9,433.12,237.9,438.92,237.9z"/>
		<path fill="#9A9A9A" d="M374.72,240.5c0,2.8-0.4,5.5-1.8,8.1c-1.9,3.6-4.9,5.7-9,6.2c-2.5,0.3-4.8,0.1-7.1-1
			c-2.9-1.3-4.9-3.6-6-6.6c-1.7-4.8-1.7-9.6,0.4-14.3c1.9-4.2,5.2-6.5,9.8-6.9c2.7-0.2,5.2,0.2,7.5,1.6c2.7,1.6,4.4,4.1,5.3,7.1
			C374.52,236.6,374.72,238.4,374.72,240.5z M371.12,240.4c0-1.9-0.2-3.9-0.9-5.7c-1.6-4.4-5.3-6.6-9.9-5.7c-2.9,0.6-4.8,2.5-6,5.1
			c-1.1,2.5-1.2,5.1-1.1,7.7c0.1,1.7,0.5,3.3,1.1,4.8c1.7,3.9,5.4,5.8,9.6,4.9c2.5-0.5,4.3-2,5.5-4.2
			C370.72,245.3,371.12,242.9,371.12,240.4z"/>
		<path fill="#9A9A9A" d="M448.02,226.6c1.1,0,2.2,0,3.4,0c0,1.5,0,2.9,0,4.4c0.1,0,0.1-0.1,0.1-0.1c1.2-2.5,3.3-4,6-4.6
			c2.5-0.6,5-0.5,7.4,0.8c2.3,1.2,3.7,3.2,4.1,5.8c0.2,1.6,0.4,3.2,0.4,4.7c0,5.4,0,10.8,0,16.2c0,0.1,0,0.2,0,0.3
			c-1.1,0-2.2,0-3.4,0c0-0.2,0-0.3,0-0.5c0-5.2,0-10.5,0-15.7c0-1.5-0.1-3-0.5-4.5c-0.6-2.4-2.2-3.8-4.6-4.2
			c-1.6-0.2-3.3-0.2-4.8,0.5c-2.4,1-3.7,2.9-4.3,5.4c-0.2,0.9-0.3,1.9-0.3,2.9c0,5.2,0,10.4,0,15.7c0,0.2,0,0.3,0,0.5
			c-1.1,0-2.3,0-3.4,0C448.02,245,448.02,235.8,448.02,226.6z"/>
		<path fill="#9A9A9A" d="M413.22,254.4c-1.1,0-2.2,0-3.3,0c0-11.6,0-23.2,0-34.8c-4.4,0-8.8,0-13.3,0c0-1.1,0-2.2,0-3.3
			c9.7,0,19.3,0,29,0c0,1.1,0,2.2,0,3.3c-4.1,0-8.2,0-12.4,0C413.22,231.2,413.22,242.8,413.22,254.4z"/>
		<path fill="#9A9A9A" d="M344.22,219.6c0,11.6,0,23.2,0,34.8c-1.1,0-2.2,0-3.3,0c0-11.6,0-23.2,0-34.8c-4.2,0-8.3,0-12.4,0
			c0-1.1,0-2.2,0-3.3c9.5,0,19.1,0,28.6,0c0,1.1,0,2.2,0,3.3C352.82,219.6,348.52,219.6,344.22,219.6z"/>
		<path fill="#9A9A9A" d="M561.12,226.6c2.2,0,4.4,0,6.5,0c0,9.2,0,18.3,0,27.5c-2.2,0-4.4,0-6.5,0
			C561.12,245,561.12,235.8,561.12,226.6z"/>
		<path fill="#9A9A9A" d="M564.32,223.7c-2,0-3.7-1.6-3.7-3.6s1.6-3.6,3.6-3.6s3.7,1.6,3.7,3.6
			C568.02,222,566.42,223.7,564.32,223.7z"/>
		<path fill="#9A9A9A" d="M657.92,220.2c-0.6,0-1.2,0-1.9,0c0-0.2,0-0.4,0-0.6c1.4,0,2.9,0,4.3,0c0,0.2,0,0.3,0,0.5
			c-0.6,0-1.2,0-1.8,0c0,1.7,0,3.3,0,5c-0.2,0-0.4,0-0.6,0C657.92,223.6,657.92,221.9,657.92,220.2z"/>
		<rect x="263.42" y="204.8" opacity="0" fill="#9A9A9A" width="407.06" height="60.3"/>
	</g>
</g>
</svg>
