<svg version="1.1" id="BuzzFeedSVG" xmlns="http://www.w3.org/2000/svg" xmlns:xlink="http://www.w3.org/1999/xlink" x="0px"
	 y="0px" width="293px" height="71.7px" viewBox="0 0 293 71.7" enable-background="new 0 0 293 71.7" xml:space="preserve">
<path fill="#9A9A9A" d="M0.9,10.22c1.4,0,2.7,0,4,0c6.9,0,13.8,0,20.8,0.1c5.8,0.1,10.7,4,12,9.6c0.9,4,0.3,7.8-2.4,11.1
	c-1.2,1.5-2.8,2.5-4.6,3.2c-0.2,0.1-0.5,0.2-0.9,0.4c0.3,0.1,0.5,0.2,0.7,0.3c5.2,1.8,8.2,5.7,8.5,11.2c0.2,3.1-0.3,6-2,8.6
	c-2.3,3.5-5.6,5.4-9.7,5.8c-2.9,0.3-5.9,0.3-8.9,0.3c-5.6,0-11.2,0-16.8,0c-0.2,0-0.4,0-0.7,0C0.9,43.92,0.9,27.12,0.9,10.22z
	 M11.8,39.62c0,0.3-0.1,0.3-0.1,0.4c0,3.6,0,7.2,0,10.7c0,0.5,0.2,0.6,0.6,0.6c3.4,0,6.9,0,10.3-0.1c3.2-0.1,5.3-2.2,5.5-5.3
	c0.2-3.2-1.7-5.6-4.8-5.9C19.5,39.62,15.6,39.72,11.8,39.62z M11.7,19.72c0,3.5,0,7,0,10.5c0.1,0,0.1,0.1,0.1,0.1
	c3.3,0,6.7,0.1,10-0.1c2-0.1,3.7-0.9,4.7-2.8c1.6-3.4-0.3-7.3-4-7.6C19,19.52,15.4,19.72,11.7,19.72z"/>
<path fill="#9A9A9A" d="M147.3,10.32c11.7,0,23.4,0,35.1,0c0,0.8,0,1.6,0,2.4c0,1.9,0,3.8,0,5.6c0,1.1-0.2,1.3-1.3,1.3
	c-2.2,0-4.4,0-6.6,0c-5.3,0-10.6,0-15.9,0c-0.2,0-0.3,0-0.5,0c0,3.5,0,7,0,10.6c0.3,0,0.6,0,0.8,0c5.2,0,10.4,0,15.7,0
	c0.2,0,0.5,0,0.7,0c0.8,0.1,1.1,0.3,1.1,1.1c0,2.7,0,5.3,0,8c0,0.1,0,0.1-0.1,0.3c-6.1,0-12.1,0-18.3,0c0,7,0,14,0,21
	c-3.6,0-7.1,0-10.7,0C147.3,43.92,147.3,27.12,147.3,10.32z"/>
<path fill="#9A9A9A" d="M216,45.52c-9.1,0-18.1,0-27.3,0c0.2,0.7,0.3,1.4,0.6,2c1.2,3.3,3.7,5,7,5.9c4,1,7.7,0,11.1-2
	c0.4-0.3,0.9-0.6,1.3-0.8c0.2-0.1,0.5-0.1,0.6,0c1.4,2,2.7,4,4.2,6.1c-1.4,0.9-2.8,1.8-4.2,2.5c-2.5,1.3-5.1,1.9-7.9,2.2
	c-1.2,0.1-2.4,0.3-3.6,0.3c-4.3-0.2-8.3-1.3-11.8-3.8c-4.1-3-6.3-7-7.1-11.9c-0.5-3.5-0.2-7,0.9-10.4c1.5-4.7,4.5-8.1,8.9-10.2
	c4.6-2.2,9.3-2.9,14.2-1.5c6.4,1.8,10.3,6.2,12.2,12.5C215.8,38.92,216.2,43.02,216,45.52z M206.7,38.82c0-0.4,0-0.7-0.1-1.1
	c-0.3-1.9-1.2-3.4-2.6-4.5c-2.2-1.7-4.7-2.3-7.3-2.1c-3.1,0.3-5.5,1.7-7,4.4c-0.6,1-0.9,2.1-0.7,3.3
	C194.8,38.82,200.7,38.82,206.7,38.82z"/>
<path fill="#9A9A9A" d="M248.4,50.32c1.4,2.1,2.9,4.2,4.4,6.4c-1.2,0.8-2.3,1.6-3.5,2.2c-2.6,1.5-5.5,2.2-8.5,2.5
	c-1.3,0.1-2.5,0.3-3.8,0.3c-4.5-0.3-8.8-1.4-12.4-4.3c-4.1-3.4-6.2-7.7-6.6-13c-0.3-3.5,0.1-7,1.6-10.2c2.9-6.2,7.8-9.8,14.6-10.8
	c4.4-0.7,8.6,0,12.4,2.3c4.3,2.6,6.8,6.5,8,11.3c0.7,2.8,0.8,5.6,0.7,8.5c-9,0-18,0-27.1,0c0.1,1.4,0.5,2.6,1.2,3.6
	c2.4,3.5,5.7,4.9,9.8,4.6c3.3-0.2,6.4-1.2,9-3.3C248.3,50.42,248.3,50.42,248.4,50.32z M228.2,38.82c6,0,11.9,0,17.8,0
	c0.1-1.7-0.4-3.1-1.4-4.4c-3.3-4.2-10.4-4.5-14.3-0.7C228.9,35.12,228.1,36.82,228.2,38.82z"/>
<path fill="#9A9A9A" d="M257.8,42.52c0-5.6,0-11.1,0-16.7c0-0.3,0-0.5,0-0.8c0-0.8,0.2-1,1-1c2.3,0,4.6-0.1,6.9,0
	c3.4,0.1,6.9,0.1,10.3,0.3c8.9,0.6,15.5,6.8,16.4,15.8c0.7,6.1-1,11.4-5.5,15.7c-3.1,3-6.9,4.6-11.2,4.8c-5.8,0.2-11.6,0.1-17.4,0.2
	c-0.6,0-0.6-0.3-0.6-0.8C257.8,54.22,257.8,48.42,257.8,42.52z M267,31.82c0,7.1,0,14.1,0,21.1c2.8-0.1,5.7,0.3,8.4-0.4
	c3-0.7,5.3-2.4,6.6-5.3c1.1-2.3,1.4-4.7,1-7.2c-0.7-4.1-3.7-7.3-7.8-7.9C272.6,31.82,269.8,31.92,267,31.82z"/>
<path fill="#9A9A9A" d="M41.1,24.32c3.2,0,6.4,0,9.6,0c0,0.3,0,0.6,0,0.9c0,6.7,0,13.3,0,20c0,0.9,0.1,1.7,0.2,2.6
	c0.4,2.4,1.8,4,4,4.9c2.3,0.9,4.6,1.1,6.9,0.1c3-1.2,4.4-3.5,4.4-6.7c0-7,0-14,0-20.9c0-0.3,0-0.5,0-0.9c3.2,0,6.3,0,9.5,0
	c0,0.1,0.1,0.2,0.1,0.3c0,7.7,0.1,15.3-0.1,23c-0.1,7.2-5.2,12.6-12.3,13.8c-2.4,0.4-4.9,0.6-7.3,0.3c-5.3-0.6-10-2.2-13-7
	c-1.5-2.4-2.1-5-2.1-7.8c0-7.4,0-14.7,0-22.1C41.1,24.72,41.1,24.52,41.1,24.32z"/>
<path fill="#9A9A9A" d="M91.9,52.22c5.7,0,11.3,0,16.9,0c0,2.8,0,5.6,0,8.4c-9.9,0-19.8,0-29.9,0c0-1.2,0.1-2.5,0-3.7
	c-0.2-2.4,0.5-4.3,2.1-6.1c4.6-5.6,9-11.3,13.4-16.9c0.3-0.4,0.6-0.8,1-1.4c-5.5,0-10.9,0-16.3,0c0-2.8,0-5.5,0-8.2
	c9.8,0,19.7,0,29.6,0c0,0.3,0,0.5,0,0.7c0,1.2,0,2.4,0,3.5c0.1,1.6-0.4,3-1.4,4.2c-3,3.7-6,7.5-8.9,11.2c-2,2.5-4,5.1-6,7.6
	C92.3,51.72,92.2,51.92,91.9,52.22z"/>
<path fill="#9A9A9A" d="M124.4,52.32c4.6,0,8.9,0,13.3,0c1,0,1.9,0,2.9,0c0.6,0,0.9,0.3,0.9,0.9c0,2.5,0,4.9,0,7.5
	c-10,0-19.9,0-29.9,0c0-0.6,0-1.2,0-1.8c0-1.5,0-3.1,0-4.6c0-0.6,0.2-1,0.5-1.4c5.1-6.4,10.2-12.9,15.2-19.3
	c0.2-0.3,0.4-0.5,0.7-0.9c-5.5,0-11,0-16.4,0c0-2.8,0-5.5,0-8.2c9.9,0,19.7,0,29.5,0c0,2.2,0,4.3,0,6.5c0,0.3-0.3,0.7-0.5,1
	c-4.9,6.3-9.9,12.5-14.8,18.8C125.3,51.12,124.9,51.62,124.4,52.32z"/>
</svg>
