				<svg version="1.1" id="ebaySVG" xmlns="http://www.w3.org/2000/svg" xmlns:xlink="http://www.w3.org/1999/xlink" x="0px" y="0px"
					width="98px" height="40px" viewBox="0 0 98 40" enable-background="new 0 0 98 40" xml:space="preserve">
				<path fill="#9A9A9A" d="M97.7,9.79c-0.3,0.5-0.5,1-0.8,1.5c-4.7,9.2-9.3,18.3-14,27.5c-0.2,0.3-0.3,0.4-0.7,0.4c-1.5,0-3,0-4.5,0
					c-0.1,0-0.3,0-0.5,0c0.1-0.2,0.1-0.3,0.2-0.4c1.3-2.5,2.6-4.9,3.9-7.4c0.1-0.2,0.1-0.4,0-0.6c-2.9-5.4-5.8-10.8-8.6-16.2
					c-0.1-0.1-0.1-0.2-0.2-0.3c0.6,2.1,0.4,4.3,0.4,6.5c0,2.1,0,4.2,0,6.3c0,1.2,0.1,2.4,0.1,3.6c0,0.2,0,0.3,0,0.5c-0.2,0-0.3,0-0.4,0
					c-1.2,0-2.4,0-3.6,0c-0.4,0-0.5-0.1-0.5-0.4c0-0.7,0-1.5-0.1-2.2c0-0.1,0-0.2,0-0.3h-0.1c-1.6,2-3.7,3-6.1,3.5
					c-2.5,0.5-5,0.5-7.4-0.3c-2-0.6-3.6-1.8-4.5-3.7c-0.4-1-0.6-2-0.6-3c0-0.1,0-0.1-0.1-0.2c0,0.1-0.1,0.2-0.1,0.3
					c-1.5,4-4.5,6.3-8.7,7c-2.7,0.4-5.4,0.1-8-1.1c-1.1-0.6-2.1-1.3-3-2.4c0,0.2,0,0.3,0,0.4c0,0.7-0.1,1.5-0.2,2.2
					c0,0.1-0.2,0.3-0.2,0.3c-1.5,0-3,0-4.5,0c0,0,0,0-0.1,0c0-3.1,0-6.3,0-9.4c-6.4,0-12.8,0-19.3,0c0,0.1,0,0.3,0,0.4
					c0.2,3.3,2.4,5.8,5.6,6.4c1.8,0.3,3.6,0.2,5.2-0.5c1.3-0.6,2.2-1.5,2.8-2.8c0.1-0.1,0.2-0.3,0.3-0.3c1.5,0,3.1,0,4.6,0
					c0,0,0.1,0,0.2,0c0,0.2,0,0.3-0.1,0.5c-0.7,2.4-2.2,4-4.4,5.1c-1.7,0.8-3.4,1.1-5.2,1.3c-2.3,0.1-4.6,0-6.8-0.6
					c-4.1-1.2-6.5-3.9-7.2-8.1c-0.3-2.2-0.3-4.3,0.3-6.5c0.9-3.3,2.9-5.6,6.1-6.7c3.5-1.3,7.2-1.4,10.7-0.3c3.8,1.2,6.1,3.8,6.9,7.7
					c0,0.1,0,0.2,0.2,0.4c0-0.1,0-0.3,0-0.4c0-5.4,0-10.9,0-16.3c0-0.2,0-0.4,0-0.6c1.6,0,3.2,0,4.9,0c0,0.2,0.1,0.3,0.1,0.5
					c0,3.7,0,7.4,0,11.1c0,0.1,0,0.3,0,0.5c0.1-0.1,0.1-0.1,0.2-0.2c0.9-1.1,2.1-1.9,3.4-2.5c2.2-0.9,4.4-1.1,6.7-0.9
					c2,0.2,3.9,0.8,5.5,2c2.8,2,4.2,4.9,4.4,8.2c0.1,1,0,2,0,3c0.8-1.6,2.1-2.6,3.6-3.2c2.2-0.9,4.5-1.2,6.8-1.2c2.3,0,4.5,0,6.8,0
					c0.1,0,0.3,0,0.5,0c0-0.4,0-0.7,0-1c0-1.7-0.8-3-2.3-3.8c-0.9-0.5-1.9-0.7-3-0.8c-1.4-0.1-2.7,0-4,0.6c-1.1,0.5-1.8,1.2-2.2,2.3
					c-0.1,0.3-0.2,0.4-0.5,0.4c-1.5,0-2.9,0-4.4,0c-0.1,0-0.2,0-0.4,0c0-0.1,0-0.2,0-0.3c0.1-1,0.5-1.9,1.1-2.7c1-1.3,2.4-2.2,4-2.6
					c3.2-1,6.5-1.1,9.9-0.4c1.9,0.4,3.6,1.2,4.8,2.6c0,0,0.1,0,0.2,0.1c-0.4-0.8-0.8-1.5-1.2-2.3c0.2,0,0.3,0,0.4,0c1.6,0,3.3,0,4.9,0
					c0.3,0,0.5,0.1,0.6,0.4c2.6,5.2,5.2,10.5,7.8,15.7c0.1,0.1,0.1,0.3,0.2,0.5c0.1-0.2,0.2-0.3,0.2-0.5c2.6-5.2,5.2-10.5,7.8-15.8
					c0.1-0.3,0.3-0.4,0.6-0.4C94.5,9.79,96.1,9.79,97.7,9.79z M45.2,20.39c0-0.3,0-0.5,0-0.8c-0.3-4.1-2.9-7.1-7.1-7.3
					c-3.3-0.2-6.1,1.3-7.4,4.5c-1,2.3-1,4.7-0.1,7.1c2.1,5.4,8.8,5.9,12.1,2.7C44.4,24.89,45.1,22.79,45.2,20.39z M68,20.89
					c-0.1,0-0.1,0-0.2,0c-2.6,0.1-5.2,0.1-7.8,0.3c-1.2,0.1-2.4,0.3-3.5,1c-0.9,0.5-1.4,1.2-1.5,2.3c-0.2,1.9,0.9,3.4,2.9,4
					c1.6,0.5,3.2,0.4,4.8,0.1C66.4,27.69,68.4,24.79,68,20.89z M19.9,18.39c0-0.2,0-0.3,0-0.4c-0.2-2.4-1.3-4.2-3.6-5.2
					c-2.6-1.1-5.2-0.9-7.7,0.6c-1.2,0.7-2,1.7-2.5,3c-0.2,0.7-0.4,1.3-0.4,2.1C10.5,18.39,15.1,18.39,19.9,18.39z"/>
				</svg>
