<svg version="1.1" id="etsySVG" xmlns="http://www.w3.org/2000/svg" xmlns:xlink="http://www.w3.org/1999/xlink" x="0px" y="0px"
	 width="46.55px" height="23.21px" viewBox="0 0 46.55 23.21" enable-background="new 0 0 46.55 23.21" xml:space="preserve">
<path fill="#949494" d="M5.72,3.13v6.01c0,0,2.12,0,3.25-0.09c0.89-0.16,1.06-0.24,1.22-1.13l0.33-1.3h0.97l-0.16,2.85l0.09,2.92
	h-0.98l-0.24-1.14c-0.24-0.81-0.57-0.98-1.22-1.06C8.16,10.1,5.72,10.1,5.72,10.1v5.04c0,0.97,0.49,1.38,1.63,1.38h3.41
	c1.06,0,2.11-0.09,2.77-1.63l0.88-1.95h0.82c-0.09,0.41-0.49,3.98-0.57,4.79c0,0-3.09-0.08-4.38-0.08H4.42l-3.49,0.08v-0.88
	l1.13-0.25c0.82-0.16,1.06-0.41,1.06-1.06c0,0,0.09-2.19,0.09-5.85c0-3.65-0.09-5.84-0.09-5.84c0-0.73-0.24-0.89-1.06-1.05
	L0.93,2.56V1.66l3.41,0.07h6.5c1.3,0,3.48-0.23,3.48-0.23s-0.08,1.38-0.16,4.63h-0.89l-0.33-1.14c-0.32-1.46-0.81-2.19-1.7-2.19
	H6.13C5.72,2.8,5.72,2.88,5.72,3.13z M18.87,3.77h0.98v3.41l3.34-0.16l-0.16,1.55l-3.25-0.25v6.02c0,1.7,0.57,2.36,1.55,2.36
	c0.88,0,1.54-0.49,1.78-0.9l0.48,0.57c-0.48,1.13-1.86,1.7-3.16,1.7c-1.62,0-2.93-0.97-2.93-2.84V8.4h-1.94V7.59
	C17.18,7.42,18.39,6.45,18.87,3.77z M25.87,14.24l0.65,1.55c0.24,0.65,0.81,1.31,2.11,1.31c1.38,0,1.95-0.73,1.95-1.63
	c0-2.77-5.44-1.95-5.44-5.69c0-2.11,1.7-3.09,3.9-3.09c0.98,0,2.44,0.16,3.17,0.49c-0.16,0.81-0.25,1.87-0.25,2.68l-0.81,0.08
	l-0.57-1.63c-0.16-0.4-0.82-0.73-1.63-0.73C27.97,7.59,27,7.99,27,9.05c0,2.52,5.61,1.95,5.61,5.69c0,2.12-1.87,3.25-4.15,3.25
	c-1.7,0-3.41-0.66-3.41-0.66c0.16-0.97,0.09-2.02,0-3.09C25.04,14.24,25.87,14.24,25.87,14.24z M32.2,22.04
	c0.24-0.89,0.41-2.02,0.57-3.09l0.89-0.08l0.33,1.7c0.08,0.41,0.32,0.73,0.97,0.73c1.06,0,2.44-0.65,3.74-2.92
	c-0.58-1.38-2.28-5.84-3.83-9.26c-0.41-0.9-0.48-0.98-1.05-1.14l-0.41-0.16V7.02l2.44,0.09l3-0.16v0.81l-0.73,0.16
	c-0.57,0.08-0.81,0.4-0.81,0.73c0,0.09,0,0.16,0.08,0.33c0.16,0.49,1.46,4.14,2.44,6.58c0.81-1.7,2.35-5.52,2.59-6.17
	c0.09-0.33,0.16-0.41,0.16-0.65c0-0.41-0.24-0.66-0.81-0.81l-0.58-0.17V6.94l2.28,0.08l2.11-0.08v0.81l-0.41,0.32
	c-0.81,0.33-0.9,0.41-1.22,1.06l-3.57,8.36c-2.12,4.8-4.31,5.2-5.85,5.2C33.58,22.7,32.84,22.45,32.2,22.04z"/>
</svg>
