<svg width="57" height="57" viewBox="0 0 57 57" fill="none" xmlns="http://www.w3.org/2000/svg">
<path d="M23.9464 56.5676C12.26 55.1985 -0.501784 43.8851 0.430257 26.879C1.21891 12.467 13.7656 0.64917 28.3915 0.64917C43.0891 0.64917 55.6358 12.6832 56.3527 27.0231C57.1414 43.9572 44.4513 55.1264 32.8366 56.5676C32.8366 50.1543 32.8366 43.6689 32.8366 37.0394C34.9158 37.0394 37.0666 37.0394 39.3609 37.0394C39.7911 34.2291 40.2212 31.6349 40.6514 28.8966C37.9987 28.8966 35.561 28.8966 32.6932 28.8966C32.8366 26.4466 32.8366 23.9966 33.2668 21.7627C33.6253 20.0333 35.2026 19.3127 36.9232 19.2406C38.2138 19.1686 39.5043 19.2406 40.9382 19.2406C40.9382 17.0068 40.9382 14.917 40.9382 12.8273C40.9382 12.539 40.508 12.1067 40.2212 12.1067C37.5685 11.9626 34.9158 11.6023 32.3347 11.8905C27.3161 12.539 24.2332 16.4303 24.1615 21.6186C24.0898 23.9966 24.1615 26.3025 24.1615 28.8246C21.7955 28.8246 19.4296 28.8246 17.0636 28.8246C17.0636 31.5629 17.0636 34.157 17.0636 36.9673C19.3579 36.9673 21.6521 36.9673 24.0181 36.9673C23.9464 43.5969 23.9464 50.0822 23.9464 56.5676Z" stroke="white" stroke-miterlimit="10"/>
</svg>
