<svg version="1.1" id="fishpondSVG" xmlns="http://www.w3.org/2000/svg" xmlns:xlink="http://www.w3.org/1999/xlink" x="0px"
	 y="0px" width="172px" height="73px" viewBox="0 0 172 73" enable-background="new 0 0 172 73" xml:space="preserve">
<path fill="#9A9A9A" d="M103.8,0.18c0.2,0.1,0.4,0.2,0.5,0.2c1.4,0,2.8,0,4.2,0c1,0,2,0.2,3,0.3c0.7,0,1.4,0,2,0
	c1.9,0.2,3.9,0.4,5.8,0.6c0.8,0.1,1.6,0.1,2.4,0.2c1.2,0.2,2.4,0.4,3.7,0.6c0.2,0,0.5,0,0.7,0c1.3,0.2,2.6,0.4,3.8,0.6
	c1,0.2,2.1,0.3,3.1,0.6c1.2,0.3,2.4,0.6,3.6,0.9c1.1,0.3,2.1,0.6,3.2,0.9c1.7,0.6,3.5,1.2,5.2,1.8c0.3,0.1,0.6,0.2,1,0.4
	c0,0.1,0,0.1-0.1,0.2c-0.3-0.1-0.6-0.1-0.9-0.2c-1.1-0.3-2.1-0.5-3.2-0.8c-0.3-0.1-0.6-0.1-0.8-0.3c-1.1-1-2.6-0.8-3.9-1.2
	c-1.4-0.4-2.9-0.5-4.4-0.7c-0.7-0.1-1.4-0.1-2.1-0.2c-1-0.1-1.9-0.2-2.9-0.3c-0.9-0.1-1.8-0.2-2.6-0.3c-0.9-0.1-1.9-0.2-2.8-0.2
	c-0.5,0-1-0.1-1.5-0.1c-0.9,0-1.9,0.1-2.8,0.1c-0.1,0-0.1,0-0.2,0c-1-0.7-2.1-0.2-3.2-0.4c-1-0.2-2-0.1-3-0.1
	c-1.1,0-2.2-0.1-3.4-0.1c-0.4,0-0.7,0-1.1,0c-1,0-2,0-3.1,0c-0.9,0-1.9,0.1-2.8,0.1c-0.1,0-0.2,0.1-0.2,0.1c-0.9-0.4-1.7-0.1-2.6,0
	c-1.2,0.1-2.5,0-3.7,0.1c-1.5,0-3.1,0-4.6,0.2c-2.2,0.2-4.3,0.5-6.5,0.7c-1,0.1-2.1,0.1-3.2,0.3c-0.9,0.1-1.7,0.4-2.6,0.5
	c-0.7,0.1-1.4,0.2-2.1,0.3c-0.7,0.2-1.5,0.5-2.2,0.7c-1.8,0.5-3.6,0.8-5.3,1.4c-1.6,0.5-3.1,1.2-4.7,2c-0.6,0.3-1.1,0.8-1.6,1.2
	c-0.3,0.3,0,1.1,0.5,1.5c1.7,1.2,3.7,1.9,5.6,2.6c0.8,0.3,1.6,0.3,2.4,0.4c0.7,0.1,1.3,0.4,1.9,0.5c1.1,0.2,2.1,0.3,3.2,0.5
	c1.9,0.3,3.9,0.7,5.9,0.9c1,0.1,2.1,0,3.1,0.1c0.8,0.1,1.6,0.3,2.4,0.4c0.4,0.1,0.7,0.1,1.1,0.1c1.1,0,2.2,0,3.3,0
	c1.4,0,2.7,0.1,4.1,0.2c1.1,0,2.2,0.1,3.3,0.2c1.2,0.1,2.4,0.1,3.6,0.2c0.9,0,1.8-0.1,2.6-0.1c1.6,0,3.3,0.1,4.9,0.1
	c0.9,0,1.8-0.1,2.8-0.1c0.8,0,1.7,0,2.5,0c0.5,0,1,0,1.5,0c1.8,0.1,3.7-0.1,5.5-0.3c1-0.1,2-0.1,3-0.2c1.9-0.1,3.7-0.3,5.6-0.4
	c1.4-0.1,2.8-0.2,4.1-0.9c0.2-0.1,0.5-0.2,0.8-0.2c1.2,0.2,2-0.7,2.9-1.1c0.5-0.2,0.5-1.1,0-1.4c-0.8-0.5-1.7-1-2.5-1.3
	c-1.4-0.5-3-0.8-4.4-1.2c-0.5-0.1-1-0.3-1.6-0.4c-1.9-0.3-3.8-0.6-5.8-0.9c-1-0.2-1.9-0.4-2.9-0.6c-0.1,0-0.2-0.1-0.3-0.1
	c-1.6-0.1-3.3-0.2-4.9-0.3c-1.6-0.1-3.1-0.3-4.7-0.3c-0.8,0-1.6,0.1-2.3,0.1c-0.5,0-1.1-0.1-1.6-0.1c-1.5,0-3,0.1-4.5,0.1
	c-0.9,0-1.8-0.1-2.7-0.1c-1,0-1.9,0.1-2.9,0.2c-1.4,0.1-2.8,0.2-4.2,0.3c-1,0.1-2,0.3-3,0.3c1.1-0.3,2.1-0.5,3.2-0.8
	c1.2-0.3,2.5-0.5,3.8-0.7c0.6-0.1,1.1-0.1,1.7-0.1c1.6-0.2,3.1-0.3,4.7-0.5c0.4,0,0.7,0,1.1,0c1.5-0.1,2.9-0.3,4.4-0.3
	c1.1,0,2.1,0.1,3.2,0.2c0.8,0,1.7,0,2.5,0.1c1.5,0.1,3,0.2,4.4,0.3c0.7,0,1.4,0.1,2,0.1c0.2,0,0.4,0,0.6,0c1.5,0.2,3,0.4,4.6,0.7
	c2.2,0.4,4.3,0.7,6.5,1.2c1.5,0.3,3,0.8,4.4,1.4c0.9,0.3,1.8,0.8,2.4,1.5c0.6,0.5,1.3,1.2,1,2.2c-0.1,0.3-0.2,0.5-0.4,0.7
	c-1.1,1-2.3,2.1-3.9,2.3c-0.3,0-0.7,0.3-1,0.4c-1.3,0.4-2.7,0.7-4,1.1c-1.5,0.4-3,0.6-4.6,0.7c-1,0.1-2,0.4-3.1,0.6
	c-0.2,0-0.4,0-0.7,0.1c-0.9,0.1-1.9,0.2-2.8,0.3c-0.5,0-1,0-1.5,0c-1.5,0.1-2.9,0.3-4.4,0.3c-1.5,0.1-3,0-4.5,0
	c-0.7,0-1.5,0.2-2.2,0.3c-0.1,0-0.3,0.1-0.4,0.1c-1,0-1.9-0.1-2.9-0.2c-0.2,0-0.5-0.1-0.7,0c-1,0.4-2,0-3,0c-0.5,0-0.9,0-1.4,0
	c-1.3,0-2.5,0-3.8,0c-1.1,0-2.1-0.1-3.2-0.2c-1.5-0.1-3.1-0.3-4.6-0.4c-0.6,0-1.2,0.1-1.8,0c-2-0.2-4-0.5-6-0.8
	c-2.1-0.3-4.3-0.7-6.4-1c-0.1,0-0.3-0.1-0.4-0.1c-0.9-0.4-1.7-0.7-2.8-0.8c-0.8,0-1.6-0.6-2.4-0.9c-2-0.6-3.9-1.6-5.7-2.6
	c-0.8-0.4-1.2-1.1-1.9-1.6s-0.7-2.3,0-3c0.4-0.4,0.8-0.7,1.3-1c0.5-0.4,1-0.7,1.6-1c0.6-0.3,1.2-0.7,1.8-0.9
	c1.1-0.4,2.2-0.8,3.3-1.1c1.3-0.5,2.6-1,3.9-1.4c1.7-0.5,3.5-0.9,5.3-1.3c1.2-0.2,2.5-0.2,3.7-0.4c0.4,0,0.7-0.2,1.1-0.3
	c0.1,0,0.2-0.1,0.4-0.1c1.4-0.1,2.8-0.3,4.2-0.4c1-0.1,2.1-0.1,3.1-0.2c0.5,0,1-0.1,1.5-0.2c2.3-0.1,4.7-0.2,7-0.3
	c0.1,0,0.2-0.1,0.3-0.2C100.5,0.18,102.1,0.18,103.8,0.18z"/>
<path fill="#9A9A9A" d="M0.6,55.88c0.7,0,1.4,0,2.1,0c0.8,0.1,1.2-0.4,1.4-1.1c0.1-0.5,0.2-1,0.2-1.6c0-5.5,0-11.1,0-16.6
	c0-0.2,0-0.3,0-0.6c-1,0.1-1.9,0.1-2.9,0.2c-0.2-0.8-0.2-1.4,0.7-1.6l0.1-0.1c1.8-0.6,2.2-1.8,2.1-3.6c-0.1-2.3,0.1-4.6,1.3-6.7
	c1.5-2.5,3.3-4.8,5.5-6.7c1.1-0.9,2.5-0.8,3.9-0.5c0.1,0,0.3,0.3,0.3,0.5c0.1,1.2,0.2,2.3,0.2,3.5c0,0.3-0.3,0.6-0.4,0.9
	c-0.3-0.1-0.5-0.2-0.8-0.4c-1.2-0.9-2.4-1.2-3.8-0.7c-1.4,0.5-1.9,1.7-2,3c-0.2,3-0.1,5.9-0.2,8.9c0,0.1,0,0.2,0.1,0.3
	c2,0,4,0,6.2,0c-0.1,1-0.3,1.9-0.4,2.9c-2,0-3.8,0-5.8,0c0,0.4,0,0.7,0,1c0,3.3,0,6.6,0,9.8c0,2.3,0.1,4.6,0.2,6.9
	c0,1.4,0.5,1.9,2.2,2c0.7,0.1,1.4,0.1,2.2,0.2c0,0.5,0,1,0,1.6c-4.1,0-8.2,0-12.4,0C0.6,56.98,0.6,56.48,0.6,55.88z"/>
<path fill="#9A9A9A" d="M75.6,56.88c0,0.4,0,0.7,0,1c0,3.5,0,7,0,10.4c0,0.6,0.1,1.3,0.2,1.9c0.1,0.8,0.7,1.1,1.5,1.1
	c0.7,0,1.3,0,2.1,0c0,0.6,0,1.1,0,1.6c-3.8,0-7.6,0-11.5,0c0-0.3,0-0.6,0-0.9c0-0.5,0.2-0.7,0.7-0.7c0.4,0,0.7,0,1.1,0
	c1.3,0,1.5-0.1,1.8-1.4c0.1-0.2,0.1-0.4,0.1-0.6c0.1-8.1,0.1-16.2,0.2-24.3c0-2.4-0.1-4.9-0.2-7.3c0-0.5-0.1-1-0.2-1.6
	c-0.1-0.6-0.5-0.9-1.2-0.9c-0.8,0-1.6,0-2.4,0c0-0.6,0-1.1,0-1.6c1.3-0.3,2.6-0.5,3.8-0.9c1.1-0.3,2.1-0.8,3.1-1.3
	c0.7-0.3,0.8-0.3,0.8,0.5c0,1.3,0,2.6,0,3.9c0,0.2,0,0.4,0.1,0.7c0.4-0.4,0.7-0.7,1-1c0.6-0.6,1.1-1.2,1.6-1.8
	c3.3-3.3,7.6-3.5,11.3-0.6c1.9,1.5,2.7,3.7,3.2,6c0.7,3.4,0.1,6.6-1.1,9.9c-1.4,3.6-4.1,5.8-7.2,7.8c-1.9,1.3-4,1.5-6.2,1.1
	C77.4,57.68,76.6,57.28,75.6,56.88z M75.6,45.68c0,1.9,0,3.7,0,5.6c0,0.4,0.2,0.9,0.5,1.2c1,0.8,2,1.6,3.1,2.1
	c2.9,1.4,6.4-0.1,7.9-2.6s2-5.3,1.9-8.2c-0.1-2.3-0.6-4.5-2-6.4c-1.3-1.6-3.1-2.6-5.1-2.6s-3.7,1.1-5.1,2.7
	c-0.9,1.1-1.3,2.4-1.2,3.8C75.7,42.78,75.6,44.18,75.6,45.68z"/>
<path fill="#9A9A9A" d="M158.9,32.77c0-0.4,0-0.7,0-0.9c0-3,0-6.1,0-9.1c0-0.3-0.1-0.7-0.1-1c-0.2-1.1-0.4-1.2-1.6-1.2
	c-0.6,0-1.1,0-1.7,0c-0.1,0-0.1,0-0.3-0.1c0-0.4-0.1-0.8,0-1.2c0-0.2,0.3-0.4,0.5-0.5c2.2-0.5,4.4-1,6.6-1.6c0.8-0.2,1-0.1,0.8,0.8
	c0,0.2-0.1,0.4-0.1,0.7c-0.1,6.6-0.1,13.1-0.2,19.7c0,3.7,0,7.4,0,11.1c0,1.5,0.1,3.1,0.2,4.6c0.1,1.2,0.8,1.8,2.3,1.9
	c0.1,0,0.2,0,0.3,0c1.4,0,1.5,0.2,1.2,1.6c-2.6,0-5.2,0-7.9,0c0-1.5,0-3,0-4.5c-0.1,0-0.1-0.1-0.2-0.1c-0.7,0.7-1.5,1.4-2.2,2.2
	s-1.4,1.6-2.1,2.3c-0.3,0.3-0.9,0.4-1.4,0.5c-3.4,0.7-6.4-0.2-8.7-3.2c-1.8-2.3-2.5-5.1-2.6-8c-0.1-2,0-4,0.5-6
	c0.7-2.8,2.2-5,4.7-6.5c1.4-0.9,2.8-1.8,4.3-2.6c2.1-1,4.2-0.5,6.3,0.4C157.9,32.27,158.3,32.47,158.9,32.77z M158.9,42.67
	c0-1.5,0-3,0-4.5c0-0.4-0.1-0.8-0.3-1.1c-1-1.1-2-2.1-3.4-2.8c-3.5-1.7-6.6,0.1-8,2.8c-1.6,3.3-1.5,6.7-1.1,10.2
	c0.3,2.2,1.3,4.1,2.9,5.7c1.6,1.6,5,1.9,6.6,0.6c2.2-1.7,3.1-3.9,3.2-6.5C159,45.67,158.9,44.17,158.9,42.67z"/>
<path fill="#9A9A9A" d="M54.7,55.88c0,0.6,0,1.1,0,1.6c-3.8,0-7.6,0-11.4,0c0-0.5,0-1,0-1.6c0.6,0,1.1,0,1.7,0
	c1.3,0,1.8-0.5,1.9-1.8c0-0.1,0-0.1,0-0.2c0.1-9,0.1-18,0.2-27c0-2.3-0.1-4.6-0.2-6.9c0-0.5-0.1-1-0.2-1.5c-0.1-0.6-0.5-0.7-1-0.7
	c-0.9,0-1.7-0.1-2.6-0.2c0-0.4-0.1-0.8,0-1.1c0.1-0.2,0.4-0.6,0.6-0.6c2.3-0.4,4.7-0.7,6.8-1.9c0.4-0.2,0.8,0,0.8,0.6
	c-0.1,1.6-0.1,3.3-0.1,4.9c0,2.5,0,5,0,7.4c0,2.8-0.1,5.6-0.2,8.4c0,0.3,0,0.5,0,1.1c0.9-1,1.9-1.7,2.5-2.6c2.3-3.5,7-3.2,9.7-1.2
	c1.9,1.4,2.7,3.3,2.8,5.5c0.1,4.4,0.1,8.8,0.2,13.2c0,1,0.1,2.1,0.2,3.1c0.1,0.9,0.5,1.3,1.5,1.3c0.4,0,0.8,0,1.3,0
	c0.6,0,0.8,0.2,0.8,0.8c0,0.7-0.2,0.9-0.9,0.9c-1.5-0.1-3-0.2-4.5-0.2c-0.8,0-1.7,0.1-2.7,0.2c0.1-0.8,0.2-1.5,0.2-2.2
	c0.1-4.4,0.2-8.7,0.1-13.1c0-1.5-0.3-3-0.6-4.5c-0.4-1.7-2.6-3.4-5.2-3.1c-2.8,0.3-5.3,3.6-5.2,6.2c0.2,3.6,0,7.2,0.1,10.8
	c0,1,0.2,2.1,0.3,3.1c0.1,0.7,0.5,1,1.2,1C53.3,55.88,53.9,55.88,54.7,55.88z"/>
<path fill="#9A9A9A" d="M127.2,55.88c0,0.6,0,1.1,0,1.6c-3.8,0-7.5,0-11.3,0c0-0.5,0-1,0-1.6c0.7,0,1.4,0,2.2,0
	c0.8,0,1.2-0.4,1.3-1.2c0.1-1,0.1-1.9,0.2-2.9c0.1-3.3,0.2-6.6,0.2-9.9c0-1.9-0.2-3.9-0.3-5.8c0-0.7-0.4-0.9-1-0.9s-1.2,0-1.8,0
	c-0.5,0-0.8-0.1-0.7-0.6c0-0.5-0.2-1.1,0.6-1.2c1.1-0.2,2.1-0.4,3.1-0.7c1-0.3,2-0.7,3-1.2c0.8-0.4,0.9-0.3,0.9,0.6
	c0,1.1,0,2.1,0,3.2c0,0.3,0,0.5,0,0.6c1-0.9,2.1-1.8,3-2.8c1.8-1.9,4.1-2.2,6.5-1.6c3.7,1,5.2,3.4,5.3,7.2
	c0.1,5.1,0.1,10.2,0.2,15.2c0,1.6,0.7,2.1,2.1,2c0.5,0,1,0,1.5,0c0,0.6,0,1,0,1.6c-2.6,0-5.3,0-8.1,0c0.1-1.2,0.1-2.3,0.2-3.5
	c0-0.2,0.1-0.4,0.1-0.6c0.1-3.2,0.2-6.4,0.1-9.7c0-1.8-0.2-3.6-0.5-5.3c-0.3-1.9-2.1-3.3-4-3.5c-2.5-0.3-4.3,0.7-5.6,2.7
	c-0.5,0.8-0.8,1.9-0.8,2.8c-0.1,4.3,0,8.6,0,12.9c0,0.5,0.1,1,0.2,1.6c0.2,0.8,0.6,1.1,1.4,1.1C125.9,55.88,126.5,55.88,127.2,55.88
	z"/>
<path fill="#9A9A9A" d="M103.5,58.48c-1.7,0.1-3.9-0.9-5.7-2.7c-1.5-1.6-2.4-3.5-3-5.6c-0.5-2-0.8-4.1-0.7-6.1
	c0.3-4,1.5-7.7,4.6-10.4c1.5-1.3,3.2-2,5.2-2.3s3.9-0.1,5.8,0.6c1.7,0.7,3,1.9,4.1,3.3c1.6,2,2.2,4.3,2.5,6.8c0.4,3.6,0,7-1.7,10.1
	C112.6,56.08,109.2,58.38,103.5,58.48z M112.3,45.78c0-0.4-0.1-1.2-0.2-1.9c-0.1-2.2-0.5-4.3-1.4-6.3c-0.9-2.1-2.1-3.9-4.5-4.5
	c-2-0.5-3.7,0-5.1,1.4c-1.7,1.6-2.2,3.7-2.4,5.8c-0.2,2.9-0.2,5.9,0.6,8.8c0.6,2.2,1.3,4.3,3,5.9c1.4,1.3,4,1.8,5.8,0.9
	c1.5-0.8,2.4-2.1,3-3.6C112,50.38,112.2,48.28,112.3,45.78z"/>
<path fill="#9A9A9A" d="M41.6,38.88c-0.1-1-0.2-2-0.5-2.9c-0.5-1.7-1.9-2.5-3.5-3c-1.5-0.5-3-0.2-4.3,0.8s-1.8,3.1-1.7,4.5
	c0.3,2.4,2.2,3,4.1,3.6c2,0.6,3.9,1.2,5.8,1.9c2,0.8,2.8,2.5,3.1,4.5c0.3,3.1-0.6,5.7-2.8,7.9c-1.4,1.3-3.1,2-5,2.3
	c-2.7,0.4-5.3-0.4-8-0.9c-0.9-0.2-0.7-0.8-0.7-1.4c0.1-1.9,0.2-3.7,0.3-5.6c0-1.1,0-1.1,1.3-1c0.1,0.4,0.1,0.9,0.2,1.3
	c0.1,1,0.2,1.9,0.4,2.9c0.5,1.9,1.9,2.9,3.7,3.1c1.5,0.1,3.2,0.3,4.6-0.6c1.5-0.9,2.3-2.2,2.5-4c0.1-1.1,0-2.1-0.5-3.1
	c-0.8-1.3-2.3-1.6-3.6-2c-1.6-0.5-3.2-0.9-4.8-1.5c-2-0.7-3.2-2.1-3.7-4.1c-0.6-2.5-0.3-4.9,1.2-7c1.2-1.7,3-2.6,5-3.1
	c2.7-0.6,5.3,0.1,7.7,1.1c0.2,0.1,0.5,0.4,0.5,0.6c0,1.9-0.1,3.9-0.1,5.8C42.4,38.88,42,38.88,41.6,38.88z"/>
<path fill="#9A9A9A" d="M75.8,22.08c23,2.5,45.9,2.4,68.7-2.1c-1.9,0.7-3.7,1.4-5.6,2c-1.1,0.4-2.3,0.5-3.4,0.8
	c-1.2,0.3-2.5,0.8-3.7,1c-2.9,0.5-5.8,0.9-8.7,1.3c-1.3,0.2-2.7,0.4-4,0.6c-1.2,0.1-2.5,0.1-3.7,0.1c-1,0-2.1,0.1-3.1,0.2
	c-1.1,0.1-2.1,0.2-3.2,0.2c-1.7,0-3.4-0.1-5-0.1c-1.9,0-3.8,0-5.7,0c-0.7,0-1.4-0.2-2-0.3c-1.6-0.2-3.2-0.3-4.8-0.5
	c-1.8-0.2-3.6-0.3-5.3-0.6c-1-0.1-2-0.4-2.9-0.6c-1.2-0.3-2.4-0.5-3.5-0.8C78.4,22.78,77.1,22.38,75.8,22.08z"/>
<path fill="#9A9A9A" d="M16.3,57.48c0-0.4,0-0.9,0-1.5c0.6,0,1.1,0,1.7,0c1.4,0,1.8-0.4,1.8-1.8c0.1-3.4,0.1-6.8,0.2-10.2
	c0-2.1,0-4.2,0-6.3c0-0.5,0-1.1-0.2-1.5c-0.1-0.3-0.6-0.7-0.9-0.8c-0.8-0.2-1.6-0.1-2.5-0.2c0-0.6,0-1.1,0-1.4
	c2.5-0.8,4.9-1.5,7.6-2.3c0.1,0.2,0.2,0.6,0.2,1c0,4.1-0.1,8.1-0.1,12.2c0,3,0.1,6,0.2,9c0,0.5,0,1.1,0.2,1.5
	c0.3,0.5,0.8,0.8,1.2,1.2c0.1,0,0.1-0.1,0.2-0.1c0,0.4,0,0.9,0,1.4C22.6,57.48,19.5,57.48,16.3,57.48z"/>
<path fill="#9A9A9A" d="M117.4,12.58c-0.5,0.2-0.9,0.4-1.4,0.5c-1.3,0.2-2.7,0.4-4,0.4c-1,0.1-2.1,0-3.1-0.1c-0.8,0-1.6,0-2.4,0
	c-1.5-0.1-3-0.3-4.5-0.5c-0.2,0-0.4-0.3-0.6-0.4c0.2-0.1,0.3-0.4,0.5-0.4c1.2-0.2,2.4-0.6,3.5-0.6c2.4-0.1,4.7,0,7.1,0.1
	c1.3,0.1,2.6,0.2,3.9,0.3c0.3,0,0.7,0.2,1,0.3C117.4,12.28,117.4,12.38,117.4,12.58z"/>
<path fill="#9A9A9A" d="M21.9,25.28c-1,0-1.6-0.5-2.1-1.2c-1-1.5-0.7-3.7,0.8-4.7c1.1-0.7,2.4-0.4,3.3,0.8c1,1.5,0.7,3.9-0.9,4.7
	C22.6,25.08,22.2,25.18,21.9,25.28z"/>
<path fill="#9A9A9A" d="M171.9,20.28c0.2,1.5-1.3,3-2.8,2.9c-1.8-0.1-2.9-1.2-2.9-2.8c0-1.9,1.2-2.9,3-3
	C170.7,17.38,172,18.68,171.9,20.28z M169.1,22.68c1.4,0,2.5-1,2.5-2.4c0-1.3-1.3-2.6-2.5-2.6c-1.3,0-2.5,1.2-2.5,2.6
	S167.6,22.68,169.1,22.68z"/>
<path fill="#9A9A9A" d="M168,18.48c0.4,0,0.9,0,1.5,0s1.1,0.7,0.7,1.1c-0.6,0.7-0.1,1.2,0.2,1.8c0,0.1,0.1,0.1,0.1,0.2
	c-1.2,0.5-0.8-1.1-1.7-1.2c0,0.4,0,0.8,0,1.3c-0.2,0-0.6,0-0.9,0C168,20.68,168,19.58,168,18.48z M168.8,19.98
	c0.5,0.1,0.8,0,0.8-0.6c0-0.5-0.3-0.6-0.8-0.5C168.8,19.28,168.8,19.58,168.8,19.98z"/>
</svg>
