<svg width="58" height="57" viewBox="0 0 58 57" fill="none" xmlns="http://www.w3.org/2000/svg">
<path d="M56.9973 26.6707C56.9973 27.7461 56.9973 28.8216 56.9973 29.9687C56.9973 30.1121 56.9256 30.2555 56.9256 30.4706C56.5671 34.3421 55.5634 38.0703 53.6993 41.44C48.5372 50.617 40.6507 55.564 30.1832 56.2092C25.1645 56.496 20.3609 55.4206 15.9158 52.983C6.73876 47.8926 1.72008 40.0061 1.07482 29.5385C0.788041 24.5199 1.86347 19.6446 4.30112 15.2711C8.67454 7.38464 15.2705 2.58104 24.0891 0.860349C25.1645 0.645262 26.2399 0.573567 27.3154 0.430176C28.3908 0.430176 29.4662 0.430176 30.6134 0.430176C30.7567 0.430176 30.9001 0.501871 31.0435 0.501871C34.4849 0.716958 37.7112 1.50561 40.7941 3.01121C49.3976 7.24124 54.703 14.0523 56.4954 23.5161C56.7105 24.5199 56.8539 25.5953 56.9973 26.6707ZM47.9637 47.2473C47.9637 47.0322 47.9637 46.8888 47.9637 46.7454C47.9637 42.372 48.0354 37.9269 47.9637 33.5535C47.9637 31.6894 47.7486 29.8253 47.4618 27.9612C47.0316 25.5236 45.8845 23.5878 43.5902 22.369C42.0129 21.5803 40.2922 21.2936 38.5716 21.3653C35.4886 21.4369 32.9793 22.5841 31.2586 25.2368C31.1869 25.3085 31.1152 25.3085 30.9718 25.4519C30.9718 24.2331 30.9718 23.1576 30.9718 22.0105C28.4625 22.0105 25.9531 22.0105 23.4438 22.0105C23.4438 30.3989 23.4438 38.7873 23.4438 47.2473C26.0248 47.2473 28.6776 47.2473 31.2586 47.2473C31.2586 47.0322 31.2586 46.8171 31.2586 46.6021C31.2586 42.8739 31.2586 39.1457 31.2586 35.4893C31.2586 34.6289 31.3303 33.7686 31.402 32.8365C31.6171 29.897 33.051 28.4631 35.7754 28.248C37.7829 28.1046 39.2168 29.0367 39.7187 31.0441C40.0055 32.0479 40.0772 33.195 40.0772 34.1987C40.1489 38.2854 40.0772 42.4437 40.0772 46.5304C40.0772 46.7454 40.0772 46.9605 40.0772 47.1756C42.7299 47.2473 45.3109 47.2473 47.9637 47.2473ZM18.4968 47.2473C18.4968 38.7873 18.4968 30.3989 18.4968 22.0105C15.8441 22.0105 13.2631 22.0105 10.682 22.0105C10.682 30.4706 10.682 38.8589 10.682 47.2473C13.2631 47.2473 15.8441 47.2473 18.4968 47.2473ZM10.0368 13.6221C9.82167 15.9881 11.6858 18.2107 14.1234 18.4257C16.4893 18.6408 18.927 16.9918 19.0704 14.124C19.2138 11.7581 17.4931 9.75059 15.1271 9.39211C12.4744 9.10533 10.1801 11.1128 10.0368 13.6221Z" stroke="white" stroke-miterlimit="10"/>
</svg>
