				<svg version="1.1" id="macysSVG" xmlns="http://www.w3.org/2000/svg" xmlns:xlink="http://www.w3.org/1999/xlink" x="0px" y="0px"
					width="215px" height="61px" viewBox="0 0 215 61" enable-background="new 0 0 215 61" xml:space="preserve">
				<path fill="#9A9A9A" d="M0,19.68c0.5,0,0.8,0,1.1,0c6,0,12,0,18,0c0.6,0,0.9-0.2,1.1-0.8c1.8-5.7,3.7-11.4,5.5-17
					c0.1-0.3,0.2-0.5,0.3-0.9c0.2,0.4,0.3,0.6,0.3,0.9c1.9,5.7,3.7,11.3,5.5,17c0.2,0.7,0.5,0.9,1.2,0.9c6,0,11.9,0,17.9,0
					c0.3,0,0.6,0,1.1,0c-0.3,0.3-0.5,0.5-0.7,0.6c-4.9,3.5-9.8,7.1-14.7,10.6c-0.5,0.4-0.6,0.7-0.4,1.3c1.9,5.7,3.7,11.3,5.6,17
					c0.1,0.3,0.2,0.6,0.3,1.2c-5.5-4-10.8-7.8-16.1-11.7c-5.3,3.9-10.6,7.7-16.1,11.7c0.4-1.1,0.6-2,0.9-2.9c1.6-5.1,3.3-10.1,5-15.2
					c0.2-0.7,0.1-1-0.5-1.4c-4.9-3.5-9.8-7.1-14.7-10.7C0.5,20.08,0.4,19.88,0,19.68z"/>
				<path fill="#9A9A9A" d="M59.7,50.38c-1.3,0-2.4,0-3.6,0c0-10.2,0-20.4,0-30.7c1.2,0,2.3,0,3.6,0c0,1,0,2,0,3.2
					c2.8-2.6,5.9-3.6,9.4-3.2c3.5,0.4,6.4,1.9,8.4,5c0.3-0.3,0.5-0.6,0.7-0.8c2.7-3.3,6.3-4.6,10.4-4.2c6.1,0.6,9.7,4.3,10.2,10.6
					c0.1,1.3,0.2,2.6,0.2,3.9c0,5.3,0,10.6,0,15.9c0,0.1,0,0.1-0.1,0.2c-1.2,0-2.4,0-3.6,0c0-0.4,0-0.7,0-1c0-5.2,0.1-10.4,0-15.7
					c0-1.8-0.2-3.7-0.7-5.4c-0.8-3.1-3.1-4.8-6.3-5c-1.1-0.1-2.3,0-3.3,0.3c-3.2,0.8-5.3,3.4-5.5,6.9c-0.1,1.7-0.1,3.5-0.1,5.2
					c0,4.5,0,9,0,13.5c0,0.3,0,0.7,0,1.1c-1.2,0-2.4,0-3.7,0c0-0.3,0-0.7,0-1c0-5.4,0-10.8,0-16.2c0-1.2-0.1-2.5-0.3-3.7
					c-0.6-3.5-3.2-5.7-6.7-6.1c-5-0.6-8.2,2.9-8.8,7.3c-0.1,1-0.2,2-0.2,2.9c0,5.3,0,10.5,0,15.8C59.7,49.68,59.7,49.98,59.7,50.38z"/>
				<path fill="#9A9A9A" d="M133.2,50.38c-1.2,0-2.3,0-3.6,0c0-1.6,0-3.2,0-5c-4.3,4.5-9.4,5.8-15.1,4.7c-3.6-0.7-6.5-2.6-8.8-5.5
					c-4.8-6.3-4-15.4,1.8-20.9c5.3-5.1,15.6-5.7,22,1c0-1.7,0-3.3,0-4.9c1.3,0,2.5,0,3.7,0C133.2,29.98,133.2,40.18,133.2,50.38z
					M129.8,34.98c-0.1-6.9-5.1-11.9-11.9-11.8c-6.7,0.1-11.6,5.2-11.6,11.8c0.1,6.8,5.1,11.8,11.9,11.8
					C124.8,46.78,129.8,41.58,129.8,34.98z"/>
				<path fill="#9A9A9A" d="M167.4,31.38c-1.1,0-2,0-3,0c-0.6,0-0.9-0.2-1.1-0.8c-2.7-7.5-11.3-9-16.7-5.9c-4.4,2.6-6.6,7.4-5.7,12.6
					c0.8,4.8,4.5,8.5,9.6,9.3c6.1,1,11.4-2.5,12.9-7.2c0.1-0.2,0.3-0.5,0.5-0.5c1.1,0,2.3,0,3.5,0c-1.3,6.2-6.9,11.5-14.7,11.5
					c-8.6,0-15.1-6-15.6-14.4c-0.5-8.2,5.3-15.2,13.1-16.2C157.3,18.88,165.3,22.68,167.4,31.38z"/>
				<path fill="#9A9A9A" d="M166.9,19.68c1.3,0,2.4,0,3.6,0c0.2,0,0.5,0.4,0.6,0.6c1.6,4.1,3.3,8.2,4.9,12.3c1.4,3.4,2.7,6.8,4.1,10.2
					c0.1,0.3,0.2,0.6,0.4,1c0.2-0.4,0.3-0.6,0.4-0.9c3.2-7.5,6.3-14.9,9.5-22.4c0.3-0.6,0.6-0.9,1.3-0.8c1,0.1,2,0,3.2,0
					c-0.1,0.4-0.2,0.6-0.3,0.9c-5.7,13.3-11.4,26.5-17.1,39.8c-0.1,0.2-0.4,0.5-0.7,0.5c-1.1,0.1-2.3,0-3.6,0c0.1-0.3,0.2-0.6,0.3-0.9
					c1.5-3.5,3.1-7,4.6-10.5c0.2-0.5,0.2-0.9,0-1.4c-3.6-9.1-7.2-18.2-10.8-27.3C167.2,20.38,167.1,20.08,166.9,19.68z"/>
				<path fill="#9A9A9A" d="M213,28.98c-1.1,0-2.1,0-3.1,0c-0.2,0-0.4-0.3-0.4-0.5c-0.1-0.6-0.1-1.1-0.1-1.7c-0.3-1.7-1.2-2.9-2.9-3.3
					c-1.3-0.3-2.6-0.3-3.9,0.3c-1.5,0.7-2.4,1.9-2.5,3.6c-0.1,1.8,0.5,3.2,2.3,4c1.3,0.5,2.6,0.9,3.9,1.3c0.7,0.2,1.4,0.4,2.1,0.7
					c6.7,2.2,6.9,10.5,3.5,14.1c-2.6,2.8-5.8,3.6-9.4,2.7c-3.4-0.8-5.8-2.9-6.7-6.4c-0.3-1.1-0.2-2.4-0.4-3.6c1.4,0,2.5,0,3.7,0
					c0.1,0.8,0.1,1.6,0.2,2.4c0.4,2.2,1.8,3.7,4,4.2c2.3,0.5,4.4,0.2,5.9-1.8c1.4-1.8,1.4-3.9,0.5-6c-0.6-1.3-1.9-1.9-3.2-2.4
					c-1.8-0.6-3.6-1-5.3-1.7c-4.8-2-6.3-7.5-3.3-11.7c1.8-2.5,4.4-3.5,7.4-3.3C210.3,19.88,213.6,23.78,213,28.98z"/>
				<path fill="#9A9A9A" d="M192.7,12.28c0.4-1.2,0.7-2.3,1.1-3.5c0.2-0.6,0.1-0.9-0.4-1.2c-1-0.7-2-1.4-2.9-2.3c1.2,0,2.5,0,3.7,0
					c0.5,0,0.8-0.2,0.9-0.7c0.3-1.2,0.8-2.4,1.4-3.6c0.3,1,0.6,2,1,3c0.5,1.5,0.1,1.2,1.7,1.3c1.1,0,2.1,0,3.2,0.2
					c-1.2,0.9-2.4,1.7-3.6,2.6c0.5,1.4,0.9,2.8,1.3,4.2l-0.1,0.1c-1.2-0.9-2.4-1.7-3.6-2.6c-1.2,0.9-2.4,1.7-3.6,2.6
					C192.8,12.38,192.8,12.38,192.7,12.28z"/>
				</svg>
