<svg version="1.1" id="mercadoSVG" xmlns="http://www.w3.org/2000/svg" xmlns:xlink="http://www.w3.org/1999/xlink" x="0px" y="0px"
	 width="205px" height="53px" viewBox="0 0 205 53" enable-background="new 0 0 205 53" xml:space="preserve">
<path fill="#9A9A9A" d="M37.9,52.39c-1.7,0-3.5,0.1-5.2,0c-1.9-0.2-3.9-0.6-5.8-0.9c-0.9-0.2-1.8-0.3-2.7-0.5c-1.7-0.5-3.4-1-5-1.6
	c-2-0.8-3.9-1.6-5.8-2.6c-2.5-1.3-4.5-3.1-6.5-5.1c-1.9-1.9-3.3-4.1-4.5-6.5c-0.6-1.3-1-2.7-1.2-4.2c-0.3-2.4-0.5-4.8-0.4-7.2
	c0-2.2,0.9-4.3,1.9-6.3c1.3-2.7,3.2-4.9,5.4-6.7c1.5-1.3,3.2-2.4,4.9-3.5c1.5-0.9,3.1-1.8,4.7-2.5c1.2-0.5,2.4-0.9,3.6-1.2
	c2.3-0.7,4.7-1.3,7-2c0.1,0,0.1,0,0.2,0c5.2-0.7,10.4-0.9,15.6-0.5c2,0.2,4.1,0.5,6.1,1c2.8,0.7,5.6,1.5,8.3,2.6
	c2.7,1.2,5.3,2.6,7.7,4.4c2.5,1.9,4.7,4,6.4,6.6c1.1,1.7,1.9,3.6,2.4,5.7c0.5,2,0.4,3.9,0.5,5.8c0,2.4-0.7,4.7-1.5,7
	c-1.8,4.8-5.2,8.3-9.2,11.2c-1.6,1.2-3.6,2-5.4,2.8c-1.5,0.7-3,1.5-4.6,1.9c-1.7,0.5-3.6,0.8-5.4,1.2c-1.5,0.3-3.1,0.6-4.6,0.9
	c-0.5,0.1-1,0.1-1.6,0.1C41.4,52.39,39.6,52.39,37.9,52.39z M28.4,13.59c-0.1-0.1-0.1-0.2-0.2-0.3c-0.7,0.2-1.4,0.5-2.1,0.6
	c-1,0.2-2,0.4-2.9,0.4c-2.3-0.1-4.6-0.5-6.8-1.2c-0.6-0.2-1.1-0.4-1.7-0.6c-0.9-0.3-1.8-0.7-2.7-0.9c-0.9-0.2-1.8-1.1-2.8-0.2
	c-0.4,0.4-0.8,0.7-1.2,1.1c-2.1,2.1-3.8,4.6-5,7.3c-0.3,0.7-0.4,1.6-0.6,2.4c1.1,0.3,2.1,0.5,3.1,0.7c0.8,0.2,1.6,0.3,2.4,0.6
	c1.6,0.5,3.1,0.9,4.6,1.5s3,1.3,4.4,1.9c0.6,0.3,1.2,1,2,0.5c1-0.6,1.9-1.1,3.1-0.4c0.6,0.4,1.3,0.6,2,0.9c1.2-0.8,3.8-0.9,4.8,0.3
	c0.9,0.9,1.7,1,2.8,1c0.2,0,0.3,0,0.5,0c1,0.1,2.7,1.3,2.6,2.1c0,1.7,1,2.1,2.3,2.6c1.9,0.7,3.3,3.4,2.2,5.5c0.9,0.8,3,1.2,4.1,0.7
	c0.2-0.1,0.4-0.7,0.2-0.9c-0.3-0.5-0.8-0.8-1.2-1.2c-0.7-0.8-1.3-1.6-1.9-2.4c0.1-0.1,0.2-0.2,0.2-0.3c0.3,0.1,0.7,0.1,1,0.3
	c1.1,0.9,2.1,1.9,3.2,2.9c0.8,0.8,2.1,0.7,3-0.2c0.8-0.8,0.7-1.3-0.3-2.4c-1.2-1.3-2.3-2.6-3.5-3.9c0.1-0.1,0.1-0.2,0.2-0.4
	c0.4,0.1,0.8,0.1,1.1,0.3c1.2,1.1,2.4,2.2,3.6,3.3c0.9,0.8,1.8,1.1,2.9,0.6c1.5-0.6,1.9-2.2,0.8-3.4c-1.1-1.2-2.3-2.3-3.4-3.5
	c-0.5-0.6-1.6-0.9-1.4-2.2c0.4,0.2,0.8,0.3,1.1,0.5c1.4,1.2,2.8,2.4,4.1,3.6c0.8,0.7,1.6,1.5,2.8,1.3c0.8-0.1,1.5-0.4,1.8-1.1
	c0.3-0.8,0.3-1.7-0.5-2.4c-1.7-1.5-3.4-2.9-5.1-4.4c-1.9-1.6-3.8-3.2-5.7-4.8c-1.3-1.1-2.6-2.2-4-3.3c-0.5-0.4-1.2-0.7-1.8-0.9
	c-1.9-0.6-3.4,0.3-4.9,1.3s-2.8,2.3-4.4,3.1c-1,0.5-2.2,0.6-3.4,0.7c-0.7,0-1.3-0.2-2-0.4c-1.5-0.4-2-2.1-1-3.3
	C26.3,15.89,27.3,14.79,28.4,13.59z M26,18.39c0.6,0.4,0.9,0.7,1.4,0.8c1.8,0.3,3.4-0.1,4.9-1.3c1.6-1.3,3.4-2.5,5.3-3.5
	c1.7-0.9,3.6-0.7,5.2,0.4c2.3,1.6,4.5,3.5,6.7,5.3c2.7,2.3,5.4,4.6,8.1,6.9c0.2,0.2,0.7,0.5,0.9,0.4c1.2-0.4,2.5-0.9,3.7-1.4
	c1.8-0.7,3.6-1.4,5.5-2c2-0.6,4.1-1.1,6.4-1.7c-0.6-1.5-1.2-2.9-1.8-4.3c-1.2-2.5-2.9-4.7-5.1-6.4c-0.3-0.2-0.8-0.2-1.2-0.1
	c-2,0.6-3.9,1.6-6,1.8c-2.4,0.3-4.8,0.1-7.3,0c-0.9,0-1.8-0.4-2.7-0.7c-1.1-0.4-2.2-1-3.4-1.3c-1.3-0.4-2.7-0.7-4.1-1.2
	c-2.4-0.8-4.8-0.4-7.1,0.3c-1.5,0.4-2.9,1.5-4,2.5C29.5,14.69,27.8,16.59,26,18.39z M32.1,37.59c1.2,2.7,2.5,3.7,4,3.1
	c1.7-0.6,2.5-1.8,1.9-3.9c-0.1-0.5-0.6-0.9-1-1.2c-0.9-0.7-2-0.6-3.2-0.2c0-0.7,0-1.3,0.1-1.9c0.2-1.1-0.3-2-1.2-2.4
	c-0.9-0.5-1.9-0.5-2.9,0.1c-0.2,0.1-0.4,0.1-0.6,0.2c-0.1-0.4-0.2-0.7-0.4-1c-1.3-2.2-3.3-1.8-4.8-0.4c-0.7,0.7-0.5,0.3-0.8-0.2
	c-0.3-0.6-1-1.2-1.6-1.5c-0.7-0.3-2,0.4-2.4,1.1c-0.5,0.9-0.5,1.8,0.2,2.5c0.7,0.7,1.5,1.4,2.6,0.6c0.2-0.1,0.6-0.1,0.9-0.1
	c-0.1,0.1-0.2,0.2-0.2,0.3c0.6,1,1,2,1.7,2.9c0.9,1,2.1,0.7,3.2-0.1C28,37.79,29.4,39.09,32.1,37.59z"/>
<path fill="#9A9A9A" d="M98.3,10.39c1.7-2.4,4.3-2.4,6.7-2c1.9,0.4,3.3,1.7,4.1,3.6c0.6,1.4,0.5,2.8,0.5,4.3c0,2.5,0,5,0,7.5
	c0,0.7-0.2,1-1,0.9c-0.9-0.1-1.8,0-2.8,0c0-0.5,0-0.9,0-1.3c0-2.9,0-5.7,0-8.6c0-1.6-1.5-2.9-3-2.7s-2.7,1.4-2.7,2.9
	c0,2.9,0,5.8,0,8.7c0,0.8-0.2,1.1-1,1c-0.6-0.1-1.3-0.1-1.9,0c-0.7,0.1-1-0.2-0.9-1c0-2.9,0.1-5.7,0-8.6c-0.1-2-1.1-3.1-2.9-3
	c-1.3,0-2.8,1.3-2.8,2.8c0.1,2.9,0,5.9,0,8.8c0,0.8-0.2,1-1,1c-2.8,0-2.8,0-2.8-2.8c0-2.6,0.1-5.1,0-7.7c-0.1-2.9,3-6,6-6
	C95.9,8.29,96.8,8.79,98.3,10.39z"/>
<path fill="#9A9A9A" d="M183.2,10.29c0-1.2,0-2.4,0-3.6c0-2.1,1.4-3.6,3.6-3.6c0.8,0,0.7,0.6,0.7,1.1c0,2.8,0,5.7,0,8.5
	c0,1.9,0,3.9,0,5.8c0,3.3-1.7,5.5-4.5,6.4c-1.3,0.4-2.8,0.7-4.4,0.3c-1.5-0.4-3.1-0.6-4.2-1.7c-0.7-0.7-1.2-1.6-1.6-2.5
	c-0.9-1.8-0.8-3.8-0.6-5.8c0.3-2.7,1.4-5,3.8-6.5c2.1-1.2,5.7-0.6,6.9,1.4C183,10.29,183.1,10.29,183.2,10.29z M176.4,16.89
	c-0.1,1.4,0.1,2.8,1.1,3.9c1.4,1.7,4.2,1.2,5.1-0.5c1.1-2.1,1.1-4.5,0-6.6c-1-2-3.4-2.5-5.1-0.7
	C176.6,14.09,176.4,15.49,176.4,16.89z"/>
<path fill="#9A9A9A" d="M105.4,34.99c1.9-1.8,3.7-2.5,6.1-1.7c2.5,0.8,3.9,2.5,4.4,5c0.3,1.3,0.5,2.5,0.5,3.8c0.1,2-0.5,3.9-1.7,5.5
	c-1,1.3-2.5,1.9-4.1,2.1c-1.3,0.2-2.7,0.2-4,0c-2.3-0.3-4.2-1.5-5-3.8c-0.3-1-0.6-2.1-0.6-3.2c-0.1-3.9,0-7.9,0-11.8
	c0-1.9,1.5-3.4,3.4-3.2c0.7,0,0.8,0.5,0.8,1.1c0,1.6,0,3.3,0,4.9C105.3,34.09,105.3,34.49,105.4,34.99z M112.3,41.69
	c-0.2-0.9-0.4-1.7-0.6-2.6c-0.3-1.2-1.4-2.3-2.7-2.4c-1.1-0.1-2.6,0.6-3.1,1.7c-1,2.1-1.1,4.2-0.1,6.3c0.9,1.9,3.5,2.4,5,0.9
	C111.9,44.49,112.1,43.19,112.3,41.69z"/>
<path fill="#9A9A9A" d="M126.8,20.39c0.5,1.6-0.7,2.3-1.5,3.1c-1.4,1.5-3.4,2-5.4,2c-2.7,0-5.2-0.7-6.9-3c-0.8-1-1.4-2.1-1.4-3.5
	c0-1.3,0-2.6,0-3.9c0-2.7,2.2-5.6,4.8-6.4c2.3-0.7,4.6-0.7,6.8,0.2c1.8,0.8,3,2.2,3.7,4.2c0.5,1.3,0.4,2.5,0.5,3.8
	c0.1,0.8-0.3,1-1,1c-3.2,0-6.3,0-9.5,0c-0.3,0-0.7,0-1,0c-0.4,1.4,0.5,3.1,1.8,3.6c1.8,0.8,3.4,0.6,4.9-0.8c0.1-0.1,0.3-0.2,0.4-0.2
	C124.4,20.39,125.6,20.39,126.8,20.39z M123.1,14.99c-0.1-1.3-0.7-2.3-1.7-2.9c-1.3-0.7-2.7-0.8-3.9,0.1c-0.9,0.7-1.5,1.6-1.6,2.8
	C118.4,14.99,120.7,14.99,123.1,14.99z"/>
<path fill="#9A9A9A" d="M196.5,8.09c3.1-0.1,5.5,1,7.1,3.7c1.5,2.5,1.6,5.2,0.9,8c-0.5,1.9-1.5,3.5-3.3,4.5c-1.9,1-3.8,1.4-6,1
	c-1.3-0.2-2.5-0.4-3.6-1.2c-1.6-1.1-2.5-2.6-3-4.4c-0.6-1.9-0.6-3.8,0-5.7c0.8-2.4,2-4.5,4.7-5.3C194.2,8.39,195.4,8.29,196.5,8.09z
	 M192.5,16.69c0.1,2.3,0.6,4.1,2.9,4.9c2,0.7,4.1-0.5,4.6-2.5c0.4-1.4,0.4-2.8,0.1-4.3c-0.5-2.3-2.1-3.2-4-3
	c-1.3,0.1-2.5,0.6-2.9,2.1C192.9,14.79,192.7,15.79,192.5,16.69z"/>
<path fill="#9A9A9A" d="M156.3,13.29c0.6-1.1,1-2.2,1.6-3.2c0.8-1.2,2.1-1.7,3.5-1.8c1.3-0.1,2.7-0.2,4,0c1.8,0.2,3.5,0.8,4.4,2.6
	c0.1,0.3,0.2,0.6,0.2,1c0,2.9,0.1,5.9,0,8.8c-0.1,1.8-1.3,3.1-2.9,3.7c-1.7,0.6-3.6,0.9-5.4,1c-1.5,0-3.1-0.2-4.4-1.4
	c-1-1-1.8-3.4-1.3-4.9s1.3-2.7,2.8-3.3c0.8-0.3,1.6-0.6,2.4-0.7c1.1-0.2,2.3-0.4,3.5-0.6c0.6-0.1,1.1-0.4,1.1-1.1s0.1-1.2-0.8-1.6
	c-1.2-0.5-2.2-0.6-3.3,0.1c-0.4,0.3-0.7,0.9-1.1,1.3c-0.3,0.3-0.6,0.6-0.9,0.6C158.7,13.79,157.5,14.19,156.3,13.29z M165.9,17.19
	c-1.6,0.4-2.9,0.8-4.3,1.1c-0.1,0-0.2,0-0.3,0c-1.2,0.6-1.4,2.8-0.4,3.5c1.1,0.8,3.5,0.3,4.4-0.8
	C166.1,19.79,165.8,18.59,165.9,17.19z"/>
<path fill="#9A9A9A" d="M131.6,42.99c0.4,0.8,0.7,1.5,1,2.1c0.9,1.8,4.2,1.8,5.6,0.8c0.4-0.3,1-0.5,1.5-0.5c0.9-0.1,1.9,0,2.8,0
	c0.6,0,0.9,0.1,0.5,0.8c-1.4,2.5-3.6,3.6-6.3,3.7c-2.3,0.1-4.5-0.2-6.3-1.7c-1.3-1-2.2-2.2-2.4-3.8c-0.1-1.1-0.5-2.3-0.4-3.3
	c0.2-2.4,0.8-4.7,3.1-6.2c1.1-0.7,2.3-1.4,3.7-1.4c0.7,0,1.4,0,2.1,0c2.7-0.1,4.8,1.2,6.2,3.4c1,1.6,1.4,3.5,1.3,5.4
	c-0.1,0.8-0.7,0.7-1.2,0.7c-3.1,0-6.2,0-9.4,0C132.8,42.89,132.3,42.89,131.6,42.99z M135.6,40.19c0.8,0,1.7,0,2.5,0
	c0.8,0,1.1-0.3,0.9-1.1c-0.2-1.2-1.1-1.6-2.1-2.1c-1.4-0.7-4,0.1-4.6,2c-0.3,0.8,0,1.2,0.9,1.3C134,40.19,134.8,40.19,135.6,40.19z"
	/>
<path fill="#9A9A9A" d="M154.9,14.49c-1.5,0-2.7,0.1-3.9,0c-0.3,0-0.8-0.4-0.9-0.7c-0.6-1.7-2.6-2.4-4.3-1.5
	c-1.2,0.6-1.3,1.9-1.7,2.9c-0.6,1.4-0.1,5,1.3,6c1.7,1.3,4.3,0.8,4.8-1.5c0.1-0.3,0.5-0.7,0.8-0.8c1.3-0.1,2.6,0,4.1,0
	c-0.2,0.9-0.3,1.7-0.7,2.3c-1.2,2.2-2.8,3.7-5.6,4.1c-1.5,0.2-3,0.1-4.4-0.3c-2.1-0.5-3.5-2-4.3-4.2c-0.8-2.3-0.8-4.6-0.3-6.9
	c0.5-2.5,1.9-4.4,4.4-5.3c2.4-0.8,4.8-0.7,7.2,0.1c1.7,0.6,2.8,1.8,3.2,3.6C154.5,13.09,154.7,13.69,154.9,14.49z"/>
<path fill="#9A9A9A" d="M138.6,8.29c0,1.4,0,2.7,0,4.2c-0.6,0-1.1,0-1.7,0c-1.7,0-3.1,1.4-3.1,3.1c0,3,0,5.9,0,9.1
	c-1.3,0-2.6,0-3.8,0c-0.2,0-0.5-0.4-0.5-0.6c0-3.2-0.2-6.4,0.1-9.6c0.2-2.6,2-4.8,4.8-5.7c0.4-0.1,0.9-0.4,1.4-0.4
	C136.7,8.19,137.6,8.29,138.6,8.29z"/>
<path fill="#9A9A9A" d="M126.9,32.89c0,1.4,0,2.7,0,4.2c-0.6,0-1.2,0-1.8,0c-1.7,0-2.8,0.9-2.9,2.6c-0.2,2.7-0.3,5.5-0.4,8.2
	c0,0.4,0,0.7,0,1.2c-1.2,0-2.4,0-3.5,0c-0.2,0-0.6-0.4-0.6-0.7c0-2.7-0.1-5.3,0-8c0.1-2,0.6-3.9,2-5.4
	C121.5,33.29,124,32.49,126.9,32.89z"/>
<path fill="#9A9A9A" d="M90.6,49.19c-1.2,0-2.4,0-3.6,0c0-0.3-0.1-0.5-0.1-0.8c0-5.9,0-11.7,0-17.6c0-1.7,1.2-3,2.9-3
	c0.6,0,0.8,0.3,0.8,0.9c0,1.3,0,2.6,0,3.8c0,5.3,0,10.5,0,15.8C90.6,48.49,90.6,48.79,90.6,49.19z"/>
<path fill="#9A9A9A" d="M97.9,33.49c0,5.3,0,10.5,0,15.7c-1.4,0-2.8,0-4.2,0c0-5.2,0-10.4,0-15.7C95.2,33.49,96.5,33.49,97.9,33.49z
	"/>
<path fill="#9A9A9A" d="M93.7,27.79c1.5,0,2.8,0,4.3,0c0,1.3,0,2.5,0,3.8c0,0.2-0.4,0.5-0.7,0.5c-1,0.1-1.9,0.1-2.9,0
	c-0.2,0-0.6-0.4-0.6-0.6C93.7,30.29,93.7,29.09,93.7,27.79z"/>
</svg>
