<svg version="1.1" id="pureWonSVG" xmlns="http://www.w3.org/2000/svg" xmlns:xlink="http://www.w3.org/1999/xlink" x="0px" y="0px"
	 width="204px" height="62px" viewBox="0 0 204 62" enable-background="new 0 0 204 62" xml:space="preserve">
<path fill="#9A9A9A" d="M116.1,32.49c-0.9,1.7-1.5,2.8-2,3.9c-2.9,6.2-5.8,12.5-8.8,18.6c-0.9,1.8-2.1,3.4-3.5,4.8
	c-3.8,3.6-8.7,2.7-10.8-2.1c-1.1-2.4-1.4-5.1-2.1-7.7c-0.4,0.4-0.9,1-1.4,1.5c-2.4,2.5-5.3,4.2-8.7,4.9c-7,1.5-12.6-3.5-11.5-10.5
	c0.7-4.7,2.6-9.1,5.7-12.8c2-2.4,4.6-3.2,7.6-2.9c3.3,0.3,5.2,4.2,2.9,6.6c-1.9,2-4.3,3.5-6.7,4.9c-1.4,0.8-2.4,1.7-2.6,3.4
	c-0.3,2.1-0.8,4.2-0.9,6.3c-0.1,2.4,0.7,3.1,3.2,2.7c3.7-0.5,6.6-2.6,9.5-4.7c2.2-1.7,3.5-3.7,4.1-6.6c2.4-12.4,6.5-24.4,11.2-36.2
	c0.3-0.7,0.5-1.4,0.7-2.1c0.3-1,0.2-2.4,2-1.9c1.8,0.4,2.8,1.8,2.4,3.2c-1.5,5.1-3.1,10.3-4.6,15.4c-2.4,8.8-4.8,17.7-5.4,26.8
	c-0.1,2.2-0.1,4.5,0.3,6.8c0.4,2.5,2.2,3,3.7,1.1c2.2-2.9,4.4-6,6-9.3c3.9-8,7.4-16.1,11.1-24.1c1-2.3,2.3-2.8,3.7-1.3
	c0.5,0.5,0.7,1.3,0.8,2.1c1.1,7.7,2.2,15.4,3.3,23.1c0.2,1.5,0.8,2.9,1.5,4.2c1.2,2.1,3.4,2.5,4.9,0.7c1.7-1.9,3.3-4.1,4.2-6.5
	c4.1-10.2,5-20.8,2.2-31.5c-0.2-0.6,0.2-1.4,0.3-2.1c0.5,0.6,1.2,1.1,1.3,1.7c3.4,13.3,2.4,26.2-4.5,38.3c-1.7,3-3.8,5.7-7.7,5.3
	c-4.2-0.5-7-3-8.2-6.9c-1.3-4.3-2-8.8-2.9-13.3C116.4,34.99,116.3,34.09,116.1,32.49z M75.8,37.09c0.3,0.2,0.5,0.5,0.8,0.7
	c1-1,2-2,2.9-3c-0.3-0.2-0.5-0.5-0.8-0.7C77.7,35.09,76.7,36.09,75.8,37.09z"/>
<path fill="#9A9A9A" d="M152.2,34.69c1.4-0.4,2.5-0.7,3.6-0.9c2-0.3,3.1,0.4,3.3,2.4c0.2,2,0.3,4.1,0.4,6.5c2.7-1.4,5.2-2.6,7.7-4
	c0.4-0.2,0.5-0.9,0.6-1.5c0.4-1.5,0.7-2.9,1-4.4c0.3-1.2,0.5-2.4,2.2-2.1c1.8,0.3,2.8,1.7,2.5,3.3c-0.7,4.3-1.5,8.7-2.2,13
	c-0.1,0.7-0.1,1.3,0.2,2.3c0.5-0.5,1-0.9,1.4-1.5c4.2-5.2,8.1-10.6,10.8-16.8c0.4-0.8,1.4-2,1.9-1.9c1.5,0.2,3,1,3.1,2.8
	c0.1,1.5-0.2,3-0.3,4.5c-0.4,5.6-0.8,11.2-1,16.8c0,1.3,0.9,2.5,1.4,3.8c1-0.9,2.6-1.6,3-2.7c2.4-5.8,4.5-11.8,6.6-17.7
	c1.1-3.2,1.8-6.5,2.8-9.7c0.2-0.6,0.8-1,1.3-1.5c0.3,0.2,0.6,0.4,0.9,0.6c-3.2,9.6-6.3,19.1-9.6,28.6c-0.4,1.1-1.1,2.2-1.8,3.2
	c-1.9,2.6-4.5,3.1-6.9,0.9c-1.2-1.1-2.4-2.8-2.7-4.4c-0.6-3.3-0.7-6.7-1-10c-0.1-1.5,0-3-0.4-4.6c-1.9,3-3.8,5.9-5.7,8.9
	c-0.6,1-1.3,2-2.1,2.8c-1.1,1.2-2.3,2.2-4.2,1.5s-3.6-2.9-3.4-4.7c0.2-2.4,0.7-4.8,1.1-7.5c-2.4,1.3-4.6,2.4-6.8,3.7
	c-0.4,0.2-0.7,1-0.7,1.5c-0.7,4.6-3.6,7.6-7.4,9.6c-3.7,1.9-8.2-0.1-9.2-4.2c-0.5-2.3-0.4-4.9-0.1-7.3c0.5-4.6,2.2-8.8,4.7-12.6
	c0.8-1.2,1.5-2.6,3.4-1.7c1.8,0.8,2.5,2,1.5,3.9C152.2,33.89,152.3,34.19,152.2,34.69z M152.1,35.99c-0.2,0.2-0.3,0.3-0.3,0.4
	c-0.4,1.5-0.8,3.1-1.3,4.6c-1.1,3-0.1,3.6,2.8,3.8c1.4,0.1,3.8-0.5,4.1-1.4c0.6-1.6,0.1-3.7-0.4-5.4c-0.2-0.6-1.8-0.8-2.7-1.2
	C153.6,36.49,152.9,36.19,152.1,35.99z M149.3,46.29c-0.2,2.3-0.5,4.8-0.8,7.6c4.8-1.3,7.1-4.2,8.7-7.6
	C154.6,46.29,152.2,46.29,149.3,46.29z"/>
<path fill="#9A9A9A" d="M12.1,33.09c2.7-1.6,5-2.7,6.9-4.2c5.1-3.9,9.3-8.6,12.4-14.3c3.1-5.7,1.2-10.2-5-12.2
	c-3.1-1-6.1-1.1-9.2-0.1C10.5,4.39,5.3,8.49,2,14.79c-0.2,0.3-0.3,0.6-0.5,0.9c0,0-0.1,0-0.3,0.1c-1.4-0.5-1.1-1.4-0.5-2.4
	c4-7.2,10.2-11.4,18.2-12.9c4.2-0.8,8.4-0.5,12.4,1c6.9,2.6,9.4,8.6,6.4,15.3c-1.5,3.5-4.1,6.2-7.1,8.5c-5.3,4.1-11,7.6-17.2,10.2
	c-0.7,0.3-1.3,1.3-1.5,2c-0.3,1.1-0.1,2.3-0.1,3.5c0,6.4,0.1,12.8,0.1,19.2c0,1.8-0.8,2.3-2.3,1.3c-2.3-1.5-4.1-3-4-6.3
	c0.5-13.3,0.7-26.7,1.1-40c0.1-2.3,0.5-4.6,2.8-5.9c0.7-0.4,1.7-0.7,2.4-0.5c0.4,0.1,0.7,1.4,0.7,2.1c-0.2,5.6-0.4,11.3-0.6,16.9
	C12,29.39,12.1,30.89,12.1,33.09z"/>
<path fill="#9A9A9A" d="M56.5,39.29c1.5-2.1,3-4.3,4.7-6.4c1.9-2.4,3.6-2.4,5.5,0.1c0.5,0.6,0.9,1.3,1.5,2.2
	c-0.5-0.1-0.7-0.1-0.8-0.2c-3.1-2.5-3-2.4-5.7,0.8c-3.8,4.6-4.6,10.2-5.6,15.7c-0.4,1.9-0.3,3.8-0.5,5.7c-0.1,0.6-0.3,1.6-0.6,1.7
	c-0.6,0.2-1.5-0.1-2-0.4c-2.4-1.6-4-3.6-3.4-6.7c0.2-0.8,0.1-1.7,0.2-3.1c-1.3,2.4-2.3,4.3-3.4,6.1c-0.7,1.2-1.5,2.3-2.3,3.4
	c-1.1,1.4-2,3.4-4.1,2.9c-2.2-0.5-3.7-2.4-4-4.6c-0.4-2.7-0.3-5.5-0.3-8.2c0-1.7,0.2-3.5-0.1-5.3c-1.6,2.7-3.1,5.4-4.8,8.1
	c-0.8,1.3-1.7,2.5-2.8,3.5c-0.6,0.5-2,0.9-2.5,0.6c-2.3-1.2-4.7-2.9-4.6-5.7c0.1-4.8,0.9-9.7,1.4-14.5c4,0.9,5.5,2.7,5.4,6.1
	c-0.1,2.5-0.3,4.9-0.3,7.4c0,0.8,0.1,1.6,0.2,3c1.2-1.5,2.3-2.5,2.9-3.7c2.7-5.1,5.2-10.3,7.8-15.4c0.3-0.6,1.3-1.7,1.5-1.6
	c0.8,0.4,1.7,1,2,1.8c0.4,1,0.4,2.2,0.4,3.2c-0.3,6.5-0.6,12.9-0.9,19.4c0,0.5,0,1.1,0,2c0.6-0.4,1-0.6,1.2-1
	c2.3-3.6,4.9-7,6.6-10.9c1.3-3,1.2-6.5,1.8-9.8c0.5-3,0.8-6,1.3-9c0.4-2.2,1.1-2.3,2.8-0.9c1.3,1.1,1.9,2.3,1.8,4.1
	C56.4,33.09,56.5,36.09,56.5,39.29z"/>
</svg>
