<svg version="1.1" id="rangeSVG" xmlns="http://www.w3.org/2000/svg" xmlns:xlink="http://www.w3.org/1999/xlink" x="0px" y="0px"
	 width="754px" height="138px" viewBox="0 0 754 138" enable-background="new 0 0 754 138" xml:space="preserve">
<path id="Shape" fill="#949494" d="M9,27.94h36.2c10.2,0,18.2,3,23.5,8.1c4.5,4.7,6.9,11,6.7,17.5v0.2c0,13.4-8,21.4-19.3,24.6
	l21.9,30.8H61.1l-20-28.3H23.3v28.3H9V27.94z M44.2,68.24c10.2,0,16.7-5.3,16.7-13.6v-0.2c0-8.7-6.3-13.5-16.8-13.5H23.3v27.3H44.2z
	"/>
<path id="Shape-2" fill="#949494" d="M139.9,27.34h13.2l35.8,81.8h-15.1l-8.2-19.6h-38.4l-8.4,19.6h-14.6L139.9,27.34z M160.4,76.84
	l-14-32.5l-13.9,32.5H160.4z"/>
<polygon id="Path" fill="#949494" points="217,27.94 230.2,27.94 273.8,84.14 273.8,27.94 287.8,27.94 287.8,109.24 275.9,109.24 
	231,51.44 231,109.24 217,109.24 "/>
<path id="Path-2" fill="#949494" d="M316.5,68.84v-0.2c0-22.8,17.4-42,41.9-42c14.1,0,22.9,3.9,31.2,11l-9.1,10.8
	c-6.3-5.3-12.4-8.7-22.7-8.7c-15,0-26.4,13.1-26.4,28.7v0.2c0,16.7,11,29,27.6,29c7,0.1,13.9-2.1,19.6-6.1v-15.2h-20.8v-12.4h34.6
	v34.1c-9.4,8.1-21.4,12.6-33.9,12.6C333.2,110.64,316.5,92.44,316.5,68.84z"/>
<polygon id="Path-3" fill="#949494" points="424.5,27.94 484.7,27.94 484.7,40.74 438.8,40.74 438.8,61.84 479.5,61.84 479.5,74.64 
	438.8,74.64 438.8,96.44 485.3,96.44 485.3,109.24 424.5,109.24 "/>
<path fill="#949494" d="M707.2,63.94h-31.4c1.3-9.5,7.3-16.1,15.9-16.1C700.9,47.84,706.3,54.94,707.2,63.94z M745,24.44v87.8
	c0,9.4-7.6,17-17,17H552.6c-5.2,0-10.1-2.3-13.3-6.4l-35-44c-5-6.2-5-15,0-21.2l35-43.8c3.2-4.1,8.1-6.4,13.3-6.4H728
	C737.4,7.44,745,15.04,745,24.44z M532,68.44c0.2-4.6-3.3-8.4-7.9-8.6s-8.4,3.3-8.6,7.9c0,0.1,0,0.1,0,0.4s0,0.6,0,0.8
	c0.4,4.2,4,7.4,8.2,7.4C528.2,76.34,531.8,72.84,532,68.44z M647.1,59.84c0-15-8.2-23.5-21.5-23.5c-9.3,0-15.8,4.3-20.7,10.8
	c-3.2-6.5-9.5-10.8-18.3-10.8c-9.4,0-14.8,5.1-18.7,10.6v-9.3h-14l0.2,61.3h14v-34.6c0-9.4,5.3-15.2,13.1-15.2s12.4,5.4,12.4,14.9
	v34.9h14v-34.6c0-9.9,5.4-15.2,13.1-15.2c7.9,0,12.4,5.2,12.4,15v34.8h14V59.84z M721.2,69.44c0-17.7-9.9-33-29.4-33
	c-17.5,0-29.9,14.4-29.9,31.9v0.2c0,18.9,13.6,31.8,31.4,31.9c11.3,0,19.3-4.5,25.1-11.5l-8.2-7.3c-4.9,4.7-9.8,7.3-16.6,7.3
	c-9,0-16.1-5.5-17.6-15.5h45C721.1,71.94,721.2,70.74,721.2,69.44z"/>
</svg>
