<svg version="1.1" id="realsimpleSVG" xmlns="http://www.w3.org/2000/svg" xmlns:xlink="http://www.w3.org/1999/xlink" x="0px"
	 y="0px" width="387px" height="66.63px" viewBox="0 0 387 66.63" enable-background="new 0 0 387 66.63" xml:space="preserve">
<path fill="#9A9A9A" d="M0.7,11.55c0.3,0,0.6-0.1,0.9-0.1c6.3,0,12.5,0,18.8,0c1.6,0,3.3,0.2,4.9,0.6c9.9,2.4,11.8,12.3,8.1,18.8
	c-0.6,1-1.2,1.9-2,2.7c-0.7,0.8-1.6,1.5-2.5,2.3c1.2,2.9,2.4,5.9,3.7,8.9c1.2,3,2.5,6,3.8,9.1c-0.4,0-0.6,0.1-0.9,0.1
	c-2.8,0-5.5,0-8.3,0c-0.6,0-0.9-0.2-1.1-0.7c-2-4.8-4.1-9.7-6.1-14.5c-0.3-0.6-0.6-0.8-1.3-0.8c-2.5,0-5,0-7.4,0c-0.3,0-0.6,0-1,0
	c0,5.4,0,10.6,0,16.1c-3.2,0-6.4,0-9.5,0C0.7,39.85,0.7,25.75,0.7,11.55z M10.2,20.35c0,3,0,5.7,0,8.4c3.9,0,7.6,0.1,11.4,0
	c0.9,0,1.9-0.5,2.8-0.9c1.5-0.8,2-2.1,1.7-3.7c-0.3-2-1.7-3.1-3.5-3.2C18.5,20.45,14.4,20.45,10.2,20.35z"/>
<path fill="#9A9A9A" d="M186.5,54.35c-1.1-0.2-2.2-0.3-3.3-0.5c-4.1-0.8-7.7-2.5-10.7-5.5c-1.3-1.3-2.7-2.6-4.2-4
	c2.6-1.7,5.1-3.3,7.5-4.9c1.4,1.4,2.7,2.8,4.1,3.9c3.4,2.8,7.4,3.1,11.5,1.7c1.5-0.5,2.8-1.5,3.2-3.2c0.4-1.5,0-2.9-1.4-3.6
	c-1.1-0.7-2.4-1.2-3.7-1.6c-2.7-0.8-5.4-1.4-8-2.2c-2.4-0.7-4.6-1.9-6.3-3.9c-4.2-5.1-3.3-12.8,2.1-16.7c3.3-2.4,7.1-3.1,11-2.8
	c5.8,0.5,10.6,2.9,14.4,7.2c0.2,0.2,0.4,0.5,0.6,0.7c0,0.1,0.1,0.2,0.1,0.3c-2.1,1.8-4.3,3.6-6.4,5.3c-1.2-0.9-2.3-1.9-3.5-2.7
	c-2.5-1.9-5.4-2.5-8.5-2c-0.9,0.1-1.8,0.4-2.5,0.9c-1.7,1.1-1.7,3.4,0.1,4.5c0.8,0.5,1.7,0.8,2.7,1.1c3.4,1,6.9,2,10.3,3.1
	c4.5,1.4,7.8,5.7,8,10.4c0.2,5.8-2.5,9.9-7.6,12.5c-1.9,1-4,1.5-6.1,1.7c-0.4,0-0.8,0.1-1.2,0.2C188,54.35,187.3,54.35,186.5,54.35z
	"/>
<path fill="#9A9A9A" d="M227.6,53.85c0-14.1,0-28.1,0-42.3c0.3,0,0.6,0,1,0c2.2,0,4.4,0,6.6,0c0.8,0,1.1,0.3,1.4,0.9
	c3.3,7,6.7,13.9,10,20.9c0.1,0.3,0.3,0.5,0.5,0.9c0.2-0.4,0.4-0.6,0.5-0.9c3.4-7,6.9-14,10.3-21c0.3-0.5,0.6-0.8,1.2-0.8
	c2.7,0,5.4,0,8.2,0c0,0.4,0,0.7,0,1c0,13.5-0.1,26.9-0.1,40.4c0,0.8-0.2,1.1-1.1,1.1c-2.6-0.1-5.2,0-8,0c0-7,0-14,0-21
	c-0.1,0-0.2-0.1-0.3-0.1c-3.6,7-7.2,14-10.9,21.1c-3.4-7.1-6.8-14-10.2-20.9c-0.1,0-0.1,0-0.2,0c0,6.9,0,13.8,0,20.8
	C233.6,53.85,230.7,53.85,227.6,53.85z"/>
<path fill="#9A9A9A" d="M52.8,20.15c0,2.3,0,4.4,0,6.6c4.1,0,8.2,0,12.3,0c0,2.9,0,5.8,0,8.7c-4.1,0-8.1,0-12.3,0c0,3.2,0,6.4,0,9.7
	c7.7,0,15.5,0,23.2,0c0,3,0,5.9,0,8.8c-10.9,0-21.8,0-32.7,0c0-14.1,0-28.2,0-42.4c10.7,0,21.4,0,32.2,0c0,2.9,0,5.7,0,8.6
	C67.9,20.15,60.4,20.15,52.8,20.15z"/>
<path fill="#9A9A9A" d="M386.5,11.55c0,2.9,0,5.7,0,8.6c-7.5,0-14.9,0-22.4,0c0,2.2,0,4.3,0,6.6c4,0,8,0,12,0c0,3,0,5.8,0,8.8
	c-4,0-8,0-12,0c0,3.2,0,6.4,0,9.6c7.6,0,15.2,0,22.9,0c0,3,0,5.8,0,8.7c-0.3,0-0.7,0-1,0c-10.1,0-20.2,0-30.3,0
	c-0.8,0-1.1-0.2-1.1-1.1c0-13.5,0-26.9,0-40.4c0-0.3,0-0.6,0-0.9C365.3,11.55,375.8,11.55,386.5,11.55z"/>
<path fill="#9A9A9A" d="M80,53.85c0.1-0.4,0.2-0.6,0.4-0.9c6-13.6,12-27.2,17.9-40.8c0.3-0.6,0.6-0.8,1.2-0.8c2,0,4.1,0,6.1,0
	c0.4,0,0.7,0.1,0.9,0.5c6,13.9,12,27.7,18,41.6c0,0.1,0,0.1,0,0.3c-0.2,0-0.4,0.1-0.6,0.1c-2.8,0-5.5,0-8.3,0c-0.6,0-0.8-0.2-1-0.7
	c-1.2-2.7-2.4-5.3-3.6-8c-0.2-0.6-0.5-0.8-1.2-0.8c-5,0-10.1,0-15.1,0c-0.6,0-0.9,0.2-1.1,0.7c-1.2,2.7-2.4,5.4-3.6,8.1
	c-0.2,0.4-0.3,0.7-0.8,0.7c-2.9,0-5.8,0-8.7,0C80.3,53.95,80.2,53.95,80,53.85z M102.3,25.25c-1.6,3.6-3.1,7-4.6,10.4
	c3.1,0,6.1,0,9.1,0C105.4,32.15,103.9,28.85,102.3,25.25z"/>
<path fill="#9A9A9A" d="M275.2,11.55c0.3,0,0.6,0,0.9,0c6.4,0,12.8,0,19.2,0c3.5,0,6.8,0.8,9.7,3c7,5.3,6.4,16.4-1.1,21.1
	c-2.5,1.6-5.3,2.3-8.3,2.3c-3.3,0-6.7,0-10,0c-0.3,0-0.7,0-1.1,0c0,5.4,0,10.6,0,16c-3.1,0-6.1,0-9.2,0
	C275.2,39.75,275.2,25.65,275.2,11.55z M284.3,28.85c0.2,0,0.3,0.1,0.4,0.1c3.6,0,7.2,0,10.8,0c1,0,2.1-0.3,3-0.7
	c1.6-0.7,2.4-2,2.4-3.7c0-1.7-0.9-3-2.5-3.5c-1.1-0.4-2.3-0.6-3.4-0.6c-3.3-0.1-6.5,0-9.8,0c-0.3,0-0.6,0-0.9,0.1
	C284.3,23.25,284.3,26.05,284.3,28.85z"/>
<path fill="#9A9A9A" d="M162.7,45.25c0,3,0,5.8,0,8.7c-10.9,0-21.7,0-32.7,0c0-14.1,0-28.2,0-42.4c3.1,0,6.1,0,9.3,0
	c0,11.2,0,22.4,0,33.7C147.2,45.25,154.9,45.25,162.7,45.25z"/>
<path fill="#9A9A9A" d="M316,11.55c3.1,0,6.1,0,9.2,0c0,11.2,0,22.4,0,33.7c0.4,0,0.8,0,1.2,0c6.9,0,13.8,0,20.7,0
	c1.1,0,1.1,0,1.1,1.1c0,2.2,0,4.4,0,6.5c0,0.3,0,0.6,0,1c-10.8,0-21.4,0-32.2,0C316,39.75,316,25.65,316,11.55z"/>
<path fill="#9A9A9A" d="M219.8,53.85c-3,0-6,0-9,0c0-14.1,0-28.2,0-42.3c3,0,6,0,9,0C219.8,25.65,219.8,39.65,219.8,53.85z"/>
</svg>
