				<svg version="1.1" id="searsSVG" xmlns="http://www.w3.org/2000/svg" xmlns:xlink="http://www.w3.org/1999/xlink" x="0px" y="0px"
					width="148px" height="62px" viewBox="0 0 148 62" enable-background="new 0 0 148 62" xml:space="preserve">
				<path fill="#9A9A9A" d="M64.1,33.49c-1,3-2.7,5.2-5.2,6.7c-2.7,1.6-5.7,2.1-8.7,2.2c-2.6,0.1-5.2-0.1-7.7-1c-4.2-1.6-6.7-4.6-7.3-9
					c-0.6-4.2,0-8.2,2.2-11.9s5.6-6,9.8-7.1c4.3-1.1,8.4-0.9,12.4,1.2s6.1,5.4,6.3,9.9c0.1,1.6-0.2,3.3-0.4,5c0,0.5-0.3,0.6-0.8,0.6
					c-6.3,0-12.5,0-18.8,0c-0.2,0-0.5,0-0.7,0c-0.6,2.8,1.3,5.3,4,5.5c1.7,0.1,3.3-0.3,4.4-1.7c0.1-0.1,0.3-0.2,0.4-0.2c1.5,0,3,0,4.7,0
					c-0.5,0.7-0.9,1.4-1.3,2c-2.6,3.2-8.3,4.4-12,2.7c-2.6-1.2-4.1-3.4-4.9-6.2c-1.5-5.2,1.1-11.8,5.8-14.4c3.5-1.9,7.2-1.7,10.6,0.3
					c2.4,1.4,3.4,3.8,3.7,6.5c0.1,0.6,0,1.2,0.1,1.8c0,0.4-0.2,0.6-0.6,0.6c-2.1,0-4.1,0-6.2,0c-2.6,0-5.3,0-7.9,0c-0.4,0-0.7,0-0.6,0.6
					c0.2,0,0.4,0,0.6,0c4.8,0,9.7,0,14.5,0c0.6,0,0.8-0.2,0.8-0.8c0.1-2.4-0.2-4.8-1.5-6.9c-1.6-2.5-3.9-3.5-6.7-3.9
					c-7.1-1-11.3,3.9-12.8,9c-1,3.5-0.9,6.9,1,10.1c2,3.5,5.6,5.1,9.7,4.5c3.8-0.5,6.6-2.3,8.5-5.6c0.1-0.1,0.3-0.3,0.4-0.3
					C61.2,33.49,62.6,33.49,64.1,33.49z M46.1,24.29c0.1,0,0.2,0,0.2,0c3,0,5.9,0,8.9,0c0.4,0,0.5-0.2,0.5-0.5c0.3-1.9-0.9-3.6-2.8-4.1
					c-0.6-0.1-1.3-0.2-2-0.1C48.6,19.79,46.4,21.99,46.1,24.29z"/>
				<path fill="#9A9A9A" d="M126,54.19c-1.2-0.2-2.6-0.5-3.9-0.8c-5.2-1-10.4-1.7-15.7-2.2c-6.4-0.6-12.9-0.8-19.4-0.6
					c-14.3,0.4-28.3,2.8-41.7,7.9c-2.4,0.9-4.8,2-7.2,3c-0.3,0.1-0.7,0.4-1,0c-0.3-0.4-0.5-0.9-0.1-1.4c0.3-0.3,0.7-0.6,1.1-0.8
					c7.1-3.9,14.5-6.8,22.2-9c6.8-1.9,13.7-3.3,20.7-4.1c7.6-0.9,15.2-1.2,22.9-1c8.1,0.2,16.2,0.9,24.2,2.5c0.2,0,0.4,0.1,0.6,0.1
					c1.4,0.3,1.9,1.1,1.5,2.5c-0.2,0.7-0.5,1.4-0.8,2C128.7,53.49,127.5,54.09,126,54.19z"/>
				<path fill="#9A9A9A" d="M31,13.89c-1.8,0-3.6,0-5.4,0c0-0.4-0.1-0.7-0.1-1c-0.2-1.2-0.8-2.2-2-2.6c-2.1-0.8-4.2-0.8-6.2,0
					c-1.1,0.4-1.8,1.2-1.9,2.5c-0.1,1.1,0.3,1.9,1.3,2.4c1.2,0.5,2.5,0.9,3.7,1.3c2.7,0.7,5.3,1.4,7.7,2.8c3.4,1.9,5.7,4.6,6,8.6
					c0.5,5.1-1.7,8.8-5.9,11.5c-2.5,1.6-5.2,2.3-8.1,2.7c-3.3,0.4-6.7,0.3-10-0.5c-6.3-1.7-10-6.7-9.9-13.2c0-0.1,0-0.2,0-0.4
					c1.7,0,3.3,0,5.1,0c0,0.2,0,0.5,0,0.8c0.1,4.3,2.4,7.5,6.5,8.9c3.7,1.2,7.4,1.2,11-0.1c4.2-1.6,6.3-5.2,5.7-9.5
					c-0.3-1.9-1.4-3.3-3-4.3c-1.7-1.1-3.6-1.6-5.4-2.2c-2.1-0.7-4.2-1.3-6.2-2.3c-2.9-1.3-3.9-3.6-3.4-6.7c0.5-2.9,2.2-4.8,4.8-5.9
					c3.6-1.5,7.2-1.5,10.8-0.2C29.4,7.29,31.4,10.59,31,13.89z"/>
				<path fill="#9A9A9A" d="M5.9,27.69c1.6,0,3.2,0,4.9,0c0.1,0.6,0.1,1.2,0.2,1.7c0.3,1.7,1.2,2.8,2.8,3.3c2.3,0.7,4.6,0.8,6.9,0.2
					c1.8-0.5,2.8-1.7,2.8-3.4c0-1.3-0.7-2.3-1.8-2.8c-1.4-0.7-2.9-1.2-4.4-1.7c-2.5-0.7-5-1.4-7.3-2.7c-4.3-2.4-6.1-6.2-5.2-11
					c0.9-4.7,3.9-7.5,8.1-9.2c3.2-1.3,6.6-1.6,10.1-1.3c2.2,0.2,4.3,0.5,6.3,1.4c4.3,1.8,6.6,5.1,6.9,9.7c0,0.6,0,1.2,0,1.9
					c-1.5,0-3,0-4.5,0c-0.1-0.6-0.1-1.3-0.2-1.9c-0.5-3.3-2.3-5.5-5.5-6.4c-4-1.2-8-1.1-11.7,0.8c-3.3,1.7-4.9,5.3-4.2,8.9
					c0.4,2,1.7,3.4,3.5,4.3c2.1,1.2,4.5,1.7,6.8,2.4c1.4,0.5,2.8,0.9,4.1,1.6c3.1,1.5,4.2,4,3.5,7.3c-0.5,2.7-2.2,4.6-4.7,5.7
					c-4.2,1.8-8.4,1.8-12.5-0.2c-3.2-1.6-4.8-4.3-4.9-7.9c0-0.2,0-0.3,0-0.5C5.9,27.89,5.9,27.79,5.9,27.69z"/>
				<path fill="#9A9A9A" d="M90.9,23.69c-0.3,1.3-0.5,2.5-0.7,3.7c-0.7,3.6-1.4,7.2-2.1,10.8c-0.3,1.6-0.2,1.9,0.7,3.4
					c-1.8,0-3.5,0-5.3,0c0-0.4-0.1-0.7-0.1-1.1c-0.1,0.1-0.3,0.1-0.4,0.1c-4.1,2-8.4,2.2-12.8,1.1c-3.5-0.9-5.2-3.5-5.2-7.1
					c0-2.5,0.6-4.8,2.5-6.5c1.6-1.5,3.6-2.2,5.7-2.7c2.6-0.6,5.2-0.7,7.8-0.9c1.2-0.1,2.4-0.2,3.6-0.5c1.5-0.4,2.2-1.6,2-3
					c-0.2-1-0.8-1.7-2-1.9c-0.9-0.1-1.9-0.1-2.9,0c-1.3,0.2-2.2,1-2.6,2.2c-0.1,0.4-0.3,0.5-0.7,0.5c-1.5,0-3.1,0-4.8,0
					c0.4-0.9,0.8-1.6,1.2-2.3c0.9-1.3,2.3-2.1,3.7-2.6c3.2-1,6.4-1.1,9.6-0.2c0.8,0.2,1.7,0.7,2.4,1.2c0.9,0.7,1.1,1.6,1,2.8
					c-0.1,1.4-0.9,2.4-1.9,3.2c-2,1.6-4.4,2.2-6.8,2.7c-2.4,0.4-4.8,0.8-7.1,1.4c-1.9,0.4-3.5,1.4-4.8,2.9c-1.2,1.4-1.6,3.1-1.4,4.9
					c0.2,1.4,1,2.4,2.2,3.1c1.1,0.6,2.3,0.8,3.5,0.9c2.7,0.1,5.2-0.2,7.6-1.6c0.5-0.3,0.8-0.7,1.2-1.1c0-0.1-0.1-0.1-0.1-0.2
					c-0.1,0-0.2,0-0.2,0.1c-1.6,1.3-3.6,1.8-5.6,2c-1.6,0.2-3.2,0.2-4.8-0.3c-1.6-0.4-2.9-1.2-3.2-3c-0.3-1.5-0.1-3.1,1-4.3
					c0.7-0.8,1.6-1.5,2.5-2c2.1-1.2,4.5-1.6,6.8-1.9c2.3-0.3,4.7-0.6,6.9-1.6c1.1-0.5,2.2-1.3,3.2-2C90.6,23.99,90.7,23.89,90.9,23.69z
					M85,29.19c-0.9,0.2-1.6,0.4-2.4,0.5c-1.4,0.4-2.9,0.6-4.3,1.1c-0.8,0.3-1.5,0.8-2,1.4c-1,1.1-0.6,2.7,0.7,3.3
					c1.8,0.9,4.6,0.4,5.9-1.1C84.3,33.09,84.7,31.19,85,29.19z"/>
				<path fill="#9A9A9A" d="M143.1,21.89c-1.5,0-3,0-4.5,0c0-0.1-0.1-0.2-0.1-0.4c-0.1-1.7-0.8-2.5-2.5-2.9c-1.3-0.3-2.6-0.2-3.9,0.3
					c-0.3,0.1-0.5,0.2-0.7,0.4c-1.3,1-1.2,2.6,0.2,3.3c1,0.5,2.2,0.8,3.3,1.1c2.1,0.6,4.2,1,6.3,1.7c2.9,1,4.3,3.1,4.5,6.2
					c0.2,4.6-1.9,7.8-6.2,9.3c-4.9,1.7-9.9,1.9-14.8,0.6c-4.3-1.2-6.9-4.9-6.7-9.1c1.2,0,2.5,0,3.8,0c0,0.3,0.1,0.5,0.1,0.8
					c0.6,2.8,2.2,4.7,5,5.5c3.5,1.1,7.1,0.9,10.5-0.4c1.3-0.5,2.5-1.4,3.3-2.6c1.4-2.1,1.3-5.9-2-7.4c-1.6-0.7-3.3-1.1-5-1.6
					s-3.3-1-5-1.6c-0.7-0.2-1.3-0.7-1.8-1.1c-1.2-0.9-1.5-2.1-1.2-3.6c0.5-1.9,1.7-3.2,3.5-3.9c3.3-1.3,6.7-1.3,10.1-0.2
					c2.2,0.8,3.5,2.3,3.8,4.7C143.1,21.39,143.1,21.59,143.1,21.89z"/>
				<path fill="#9A9A9A" d="M147.2,21.89c-1.3,0-2.4,0-3.5,0c-0.2-0.8-0.3-1.6-0.5-2.3c-0.7-1.8-2-3-3.8-3.5c-3.5-1.2-7-1.1-10.4,0.2
					c-2.1,0.8-3.4,2.3-3.9,4.6c-0.3,1.5,0.2,2.7,1.3,3.6c1.4,1.2,3.1,1.8,4.8,2.3c1.8,0.5,3.6,1,5.4,1.5c0.5,0.1,1,0.3,1.4,0.5
					c3.5,1.5,3.6,5.7,1.2,7.9c-1.3,1.2-2.9,1.8-4.6,2.1c-2.7,0.5-5.4,0.5-8.1-0.4c-2.4-0.9-3.8-2.6-4.3-5.1c0-0.1,0-0.3-0.1-0.4
					c0-0.1,0-0.2,0-0.3c1.5,0,2.9,0,4.4,0c0.6,3.1,2.4,4.4,5.6,4c0.7-0.1,1.5-0.3,2.2-0.6c1-0.4,1.5-1.2,1.5-2.3s-0.7-1.8-1.7-2.1
					c-1.6-0.5-3.2-0.8-4.8-1.3c-1.3-0.4-2.7-0.6-4-1.1c-3.7-1.4-5.1-4-4.6-8.1c0.4-2.7,1.9-4.6,4.3-5.9c2.3-1.3,4.9-1.8,7.5-2
					c3-0.2,5.9-0.2,8.8,0.8c1.2,0.4,2.3,1,3.3,1.8C146.8,17.09,147.4,19.29,147.2,21.89z"/>
				<path fill="#9A9A9A" d="M93.8,41.69c-1.2,0-2.6,0-4,0c-0.5,0-1.3-1.2-1.3-1.9c0-0.6,0.1-1.1,0.2-1.7c1.1-5.7,2.2-11.3,3.4-17
					c0.3-1.7-0.3-3.1-1.9-4.1c-1.3-0.8-2.8-1.1-4.3-1.2c-2.6-0.2-5.2-0.1-7.7,0.8s-4.3,2.4-5,5c0,0.2-0.2,0.4-0.4,0.4c-1.3,0-2.6,0-4,0
					c0.1-0.3,0.1-0.6,0.2-0.8c1.1-4.1,3.8-6.8,8-7.7c4.8-1.1,9.6-1,14.3,0.2c0.9,0.2,1.8,0.6,2.6,1.1c2.2,1.2,3.3,3.2,3.2,5.7
					c-0.2,2.1-0.5,4.2-0.9,6.3c-0.8,3.9-1.7,7.8-2.4,11.7C93.5,39.49,93.8,40.59,93.8,41.69z"/>
				<path fill="#9A9A9A" d="M120.8,18.89c-0.3,1.5-0.6,2.9-0.9,4.4c-1.1-0.2-2.1-0.5-3.1-0.5c-1.1-0.1-2.3,0-3.4,0.1
					c-1.5,0.2-2.6,1-3.1,2.4c-0.6,1.8-1.1,3.7-1.6,5.5c-0.8,3.4-1.4,6.9-2.1,10.3c-0.1,0.5-0.3,0.6-0.8,0.6c-1.4,0-2.8,0-4.1,0
					c-0.2,0-0.4,0-0.6,0c0.4-1.9,0.7-3.7,1.1-5.5c0.5-2.3,0.9-4.7,1.4-7c0.4-1.8,1-3.5,1.9-5c1.4-2.5,3.7-4,6.3-4.9
					c2.7-0.9,5.5-1.1,8.3-0.6C120.2,18.69,120.5,18.79,120.8,18.89z"/>
				<path fill="#9A9A9A" d="M106.2,13.39c-0.4,1.9-0.8,3.7-1.1,5.6c-1.5,7.4-3,14.8-4.5,22.2c-0.1,0.5-0.3,0.6-0.7,0.6
					c-1.4,0-2.8,0-4.2,0c0.3-1.6,0.6-3,0.9-4.5c1.6-7.7,3.2-15.4,4.8-23.1c0.1-0.5,0.3-0.8,0.9-0.8C103.4,13.49,104.7,13.39,106.2,13.39
					z"/>
				<path fill="#9A9A9A" d="M111.9,13.39c-0.1,0.6-0.2,1-0.2,1.5c3.2-2.2,6.7-1.7,10.2-1.2c-0.4,1.6-0.7,3.1-1,4.6
					c-6.6-1-12.3,0.1-16.3,6.2c0-0.2,0-0.3,0-0.5c0.7-3.3,1.4-6.7,2-10c0.1-0.4,0.2-0.6,0.7-0.6C108.8,13.39,110.3,13.39,111.9,13.39z"
					/>
				</svg>
