				<svg version="1.1" id="shopifySVG" xmlns="http://www.w3.org/2000/svg" xmlns:xlink="http://www.w3.org/1999/xlink" x="0px" y="0px"
					width="190px" height="55px" viewBox="0 0 190 55" enable-background="new 0 0 190 55" xml:space="preserve">
				<path fill="#00FF8D" d="M124.1,43.48c-0.6,3.1-1.2,6.3-1.8,9.4c-2.2,0-4.2,0-6.4,0c0.4-2,0.8-4,1.1-6c1.3-7.2,2.7-14.4,4-21.7
					c0.2-1.2,0.3-2.5,0.5-3.7c0-0.2,0.3-0.5,0.5-0.6c1.7,0,3.3,0,5,0c0.1,0,0.1,0.1,0.2,0.1c-0.1,1-0.2,2-0.3,3.1l0.1,0.1
					c0.1-0.2,0.3-0.3,0.4-0.5c1.5-1.7,3.2-2.8,5.5-3.1c3-0.4,5.6,1.1,6.7,4c1.1,2.7,0.9,5.5,0.3,8.3c-0.8,3.7-2.4,6.9-5.5,9.2
					c-3.1,2.3-6.5,3-10.2,1.5C124.3,43.48,124.2,43.48,124.1,43.48z M133.8,29.28c-0.1-0.4-0.1-1.1-0.4-1.7c-0.5-1.4-1.7-2-3-1.5
					c-0.8,0.3-1.6,0.9-2.1,1.5c-1.1,1.1-1.6,2.6-2,4.1c-0.4,1.9-0.7,3.8-1.1,5.8c-0.2,1.3-0.1,1.4,1.1,1.8c1.8,0.6,3.5-0.1,4.9-1.9
					C132.9,34.98,133.6,32.38,133.8,29.28z"/>
				<path fill="#00FF8D" d="M84.5,10.97c-0.8,4.3-1.6,8.5-2.4,12.7c0.1,0.1,0.2,0.1,0.3,0.2c0.1-0.2,0.3-0.5,0.4-0.7
					c1.8-1.8,3.9-2.8,6.4-2.7c2.7,0.1,4.5,1.7,4.9,4.4c0.3,1.8,0,3.6-0.3,5.3c-0.8,4.3-1.6,8.6-2.4,13c0,0.2-0.1,0.3-0.1,0.5
					c-2.1,0-4.2,0-6.4,0c0.3-1.6,0.6-3.1,0.8-4.6c0.6-3.3,1.2-6.7,1.8-10c0.1-0.6,0.1-1.2,0-1.8c-0.2-1.2-1.1-1.8-2.3-1.5
					c-1.2,0.2-2,1-2.7,1.9c-1.2,1.7-1.8,3.6-2.1,5.6c-0.6,3.2-1.2,6.5-1.8,9.7c-0.1,0.6-0.3,0.8-0.9,0.8c-1.6,0-3.2,0-4.8,0
					c-0.2,0-0.5,0-0.8,0c0.2-1.3,0.5-2.5,0.7-3.7c1.8-9.3,3.6-18.7,5.3-28c0.1-0.8,0.4-1.1,1.2-1c1.5,0.1,3.1,0,4.6,0
					C83.9,10.97,84.2,10.97,84.5,10.97z"/>
				<path fill="#00FF8D" d="M177.5,36.47c0.4-1.1,0.8-2.2,1.2-3.3c1.4-3.8,2.9-7.6,4.3-11.4c0.2-0.5,0.4-0.7,1-0.7c1.7,0,3.5,0,5.2,0
					c0.2,0,0.4,0,0.7,0.1c-0.1,0.2-0.1,0.3-0.1,0.5c-3.1,6.6-6.2,13.2-9.5,19.8c-1.5,3-3.3,5.7-5.6,8.2c-1.8,1.9-3.8,3.3-6.3,4.2
					c-0.2,0.1-0.4,0.1-0.6,0.2c-0.1,0-0.2,0-0.4,0c-0.6-1.8-1.1-3.5-1.7-5.3c0.5-0.2,0.9-0.4,1.3-0.6c2.3-1,4.2-2.5,5.5-4.7
					c0.4-0.6,0.5-1.3,0.3-2c-1.2-6.6-2.5-13.3-3.7-19.9c0-0.1,0-0.3-0.1-0.5c0.6,0,1.1,0,1.6,0c1.4,0,2.8,0,4.2,0c0.7,0,0.9,0.2,1,0.9
					c0.4,4.8,1,9.5,1.4,14.2c0,0.1,0,0.2,0,0.3C177.4,36.47,177.5,36.47,177.5,36.47z"/>
				<path fill="#00FF8D" d="M117.4,29.57c-0.2,4.6-1.5,8.6-4.9,11.7c-2.8,2.5-6,3.4-9.7,2.8c-3.6-0.6-6-3-6.8-6.6
					c-0.9-4.2,0.6-11.4,6.1-15c2.6-1.7,5.4-2.3,8.4-1.8c3.6,0.6,6.2,3.2,6.7,7C117.4,28.37,117.4,29.07,117.4,29.57z M110.9,29.17
					c-0.1-0.4-0.2-1.2-0.5-2c-0.5-1.3-1.6-1.9-3-1.7c-1.1,0.1-1.9,0.8-2.5,1.6c-1.3,1.6-1.9,3.6-2.3,5.6c-0.3,1.5-0.4,2.9,0,4.4
					c0.7,2.3,3.1,3,4.9,1.4c0.7-0.6,1.2-1.4,1.6-2.2C110.3,34.17,110.7,31.87,110.9,29.17z"/>
				<path fill="#00FF8D" d="M163.4,20.97c1.5,0,2.9,0,4.4,0c-0.3,1.7-0.6,3.2-0.9,4.8c-1.2,0-2.4,0-3.6,0c-0.7,0-0.9,0.2-1,0.8
					c-1,5.5-2.1,11-3.1,16.5c-0.1,0.4-0.1,0.7-0.6,0.7c-1.9,0-3.7,0-5.6,0c-0.1,0-0.2,0-0.4-0.1c1.1-5.9,2.2-11.8,3.4-17.8
					c-1,0-1.9,0-3,0c0.3-1.6,0.6-3,0.9-4.5c0-0.2,0.3-0.4,0.5-0.4c0.6,0,1.2-0.1,1.8,0c0.6,0,0.8-0.1,0.9-0.7c0.4-1.5,0.7-2.9,1.3-4.3
					c2-4.4,7.2-6.6,11.8-5c0.1,0,0.3,0.1,0.4,0.2c-0.4,1.6-0.8,3.3-1.2,4.9c-1.5-0.3-2.9-0.6-4.1,0.5C164,17.67,163.7,19.27,163.4,20.97
					z"/>
				<path fill="#00FF8D" d="M55.8,38.27c1.7,0.4,3.2,0.8,4.8,1.1c0.5,0.1,1,0,1.5-0.1c1.8-0.4,2.4-2.3,1.1-3.7c-0.4-0.5-1-0.8-1.5-1.2
					c-0.6-0.4-1.3-0.8-1.9-1.3c-4.6-3.4-2.8-8.5,0.1-10.6c1.4-1,2.9-1.6,4.6-1.8c2.3-0.3,4.6-0.2,6.8,0.5c0.5,0.2,0.7,0.4,0.5,1
					c-0.5,1.3-0.9,2.6-1.3,3.7c-1.3-0.2-2.5-0.5-3.7-0.7c-0.7-0.1-1.4,0.1-2,0.3c-1.4,0.5-1.7,2.1-0.6,3.2c0.4,0.4,0.9,0.7,1.4,1
					c0.9,0.6,1.8,1.1,2.6,1.8c3.2,2.7,3.2,7.4,0,10.2c-1.5,1.3-3.3,1.9-5.3,2.2c-2.7,0.4-5.4,0.1-7.9-1.1c-0.5-0.2-0.6-0.5-0.4-1
					C55,40.67,55.4,39.47,55.8,38.27z"/>
				<path fill="#00FF8D" d="M140.7,43.78c0.4-1.9,0.7-3.7,1-5.5c1-5.4,2-10.8,3.1-16.2c0.2-1.2,0-1,1.3-1c1.5,0,3,0,4.5,0
					c0.3,0,0.5,0,0.9,0c-0.5,2.5-0.9,4.9-1.4,7.2c-0.9,4.8-1.8,9.6-2.8,14.4c-0.2,1.2,0,1.1-1.3,1.1
					C144.3,43.78,142.5,43.78,140.7,43.78z"/>
				<path fill="#00FF8D" d="M152.9,14.58c0,2.2-1.6,3.7-3.8,3.7c-1.9,0-3.1-1.3-3.1-3.2c0-2.1,1.7-3.7,3.7-3.7
					C151.6,11.38,152.9,12.68,152.9,14.58z"/>
				<path fill="#00FF8D" d="M47.1,48.77c-0.5-3.2-0.9-6.4-1.4-9.6c-0.5-3.5-1-7-1.6-10.5c-0.6-3.8-1.1-7.7-1.7-11.5
					c-0.3-2.1-0.6-4.2-0.9-6.4c-0.1-0.6-0.4-0.8-1-0.8c-0.9,0-1.9-0.1-2.8-0.1c-0.5,0-0.9-0.1-1.2-0.5c-0.9-0.9-1.8-1.7-2.7-2.6
					c-0.4-0.5-0.9-0.6-1.5-0.4c-0.5,0.2-1,0.3-1.5,0.5c-0.3-0.6-0.4-1.1-0.7-1.6c-1-2.1-2.5-3.5-5-3.5c-0.1,0-0.3,0-0.4-0.1
					c-0.7-0.8-1.6-1.2-2.6-1.4c-0.4,0-0.8,0-1.2,0c-2.3,0.5-4.1,1.7-5.5,3.5c-2,2.5-3.3,5.4-4,8.5c-0.1,0.5-0.3,0.8-0.8,0.9
					c-1.5,0.4-3,1-4.6,1.4c-1,0.3-1.5,0.8-1.6,1.9c-0.2,2-0.5,4-0.8,6c-0.8,6.3-1.6,12.6-2.5,18.9c-0.3,2.1-0.5,4.1-0.8,6.2
					c0.2,0.1,0.4,0.1,0.6,0.2c10.6,1.8,21.1,3.7,31.7,5.5c0.3,0.1,0.6,0,0.9,0c3-0.7,5.9-1.4,8.9-2.2c1.6-0.4,3.1-0.8,4.7-1.2
					C47.2,49.37,47.2,49.07,47.1,48.77z M24.8,8.47c0,0.1-0.1,0.3-0.2,0.3c-1.7,0.5-3.3,1-5.2,1.6c0.9-2.8,2-5.2,4.6-6.7
					C24.7,5.27,24.8,6.87,24.8,8.47z M13.1,11.87c0.9-3.1,2.2-5.9,4.5-8.1c0.9-0.9,2-1.7,3.3-1.8c0.6,0,1.1,0.1,1.7,0.1
					c0,0.1,0,0.2,0,0.2c-2.9,2-4.3,4.9-5.1,8.1c0,0.2-0.2,0.5-0.3,0.5c-1.4,0.5-2.7,0.9-4.1,1.3C13.1,12.07,13.1,11.97,13.1,11.87z
					M16.2,25.57c0,0-0.6,0.9,3.3,3.1s5.9,7,3.6,11.6s-9.7,5.5-14.3,1.1l1.1-4.7c0,0,4.1,2.9,6.1,1.7c1.9-1.1,0.5-3.6-0.5-4.4
					c-1.1-0.8-5.5-2.8-4.8-8s3.4-7.6,7.7-8.9c0,0,3.5-0.7,6.5,0.2l-1.8,6.1C23.1,23.37,15.7,21.37,16.2,25.57z M26.7,8.07
					c-0.2-1.5-0.5-3-0.7-4.5c1.3,0.2,2.7,1.9,3,3.8C28.3,7.67,27.5,7.87,26.7,8.07z"/>
				</svg>
