				<svg version="1.1" id="targetSVG" xmlns="http://www.w3.org/2000/svg" xmlns:xlink="http://www.w3.org/1999/xlink" x="0px" y="0px"
					width="157px" height="49px" viewBox="0 0 157 49" enable-background="new 0 0 157 49" xml:space="preserve">
				<path fill="#9A9A9A" d="M72.8,8.17v4.3H64v24.5h-5.1v-24.5h-8.7v-4.3H72.8z M88.8,15.57v21.6h-4.6v-2.2c-0.6,0.6-2.7,2.6-6.5,2.6
					c-2.9,0-5.7-1-7.7-2.8c-2.2-2-3.3-4.8-3.3-8.2c0-8.4,6.6-11.4,11-11.4c3.5,0,5.3,1.3,6.3,2.3c0.1,0.1,0.2,0.2,0.3,0.2
					c0,0,0.1,0,0.1-0.4l0.1-0.7l0.1-0.6c0.1-0.4,0.3-0.5,0.8-0.5C85.5,15.57,88.8,15.57,88.8,15.57z M77.5,33.47c4.3,0,6.9-2.8,6.9-7.4
					c0-1.8-0.6-3.6-1.7-4.8c-1.2-1.3-2.8-2-4.6-2c-4.2,0-6.9,2.8-6.9,7.1C71.1,29.87,72.8,33.47,77.5,33.47z M104.6,15.67
					c-0.2-0.2-1.1-0.5-2.1-0.5c-1.6,0-4.5,0.3-6.4,2.5c-0.1,0.1-0.2,0.2-0.3,0.2c0,0-0.1,0-0.1-0.2l-0.2-0.9l-0.2-0.8
					c-0.1-0.4-0.3-0.5-0.8-0.5h-3.1v21.6H96v-11.9c0-4,1.9-5.9,5.9-5.9c0.2,0,0.4,0,0.5,0h0.1L104.6,15.67z M112.6,35.67
					c6.9,0,10,1.9,10,6c0,4.4-4.4,7.2-11.2,7.2c-5.9,0-9.6-2.3-9.6-5.9c0-2.1,1-3.7,3.1-4.7c-1.5-0.8-2.2-1.9-2.2-3.4
					c0-1.6,0.8-2.9,2.5-4c-1.7-1.7-2.6-3.9-2.6-6.1c0-2.8,1-5.2,2.9-6.9c1.8-1.6,4.2-2.5,6.7-2.5c1.6,0,3.1,0.3,4.4,1
					c1.3-0.7,2.8-1.1,4.7-1.1c1,0,1.9,0.2,2.6,0.4l-2.1,3.8c-0.1,0-0.6-0.1-1.1-0.1h-0.6c1,1.5,1.5,3.3,1.5,5.1c0,2.4-0.9,4.7-2.5,6.4
					c-1.8,1.8-4.2,2.8-7,2.8c-1.4,0-2.8-0.3-4.1-0.9c-0.5,0.4-0.8,0.8-0.8,1.4C107.3,35.47,109.3,35.67,112.6,35.67z M117.7,41.97
					c0-1.5-1.2-2-5.5-2.4h-0.7c-1-0.1-2-0.2-3-0.3c-0.8,0.6-1.8,1.6-1.8,2.9c0,2,1.8,3,5.4,3C115.5,45.17,117.7,43.97,117.7,41.97z
					M112.2,19.27c-2.4,0-4.9,2-4.9,5.2c0,3.1,1.9,5.3,4.6,5.3c1.5,0,4.9-0.6,4.9-5.6C116.8,21.67,115.2,19.27,112.2,19.27z
					M156.5,19.77v-4.2h-5.2v-6.1h-4.7v6.1H144v4.2h2.5v11.2c0,4.4,2.3,6.6,7.1,6.6c1.3,0,2.3-0.1,2.7-0.3v-4.3h-0.1
					c-0.5,0.2-1.1,0.3-2.2,0.3c-2.1,0-2.9-1.1-2.9-3.8v-9.7H156.5z M133.8,15.17c5.1,0,10.8,4.2,9.9,12.2h-15.8c0.3,4.4,3,6.2,6.1,6.2
					c3.4,0,4.7-2.1,5.3-3.3h4.5c-0.3,2.8-3.7,7.2-10.4,7.2c-6.1,0-10.3-5-10.3-11C123,18.07,129.3,15.17,133.8,15.17z M138.8,23.67
					c-0.2-2.2-1.9-4.6-5-4.6c-2.5,0-4.9,1.1-5.7,4.6H138.8z"/>
				<path fill="#9A9A9A" d="M23.1,0.27c-12.4,0-22.4,10-22.4,22.4s10,22.4,22.4,22.4s22.4-10,22.4-22.4S35.5,0.27,23.1,0.27z
					M23.1,37.27c-8,0-14.6-6.5-14.6-14.6c0-8,6.5-14.6,14.6-14.6s14.6,6.5,14.6,14.6S31.1,37.27,23.1,37.27z M23.1,15.37
					c4,0,7.3,3.3,7.3,7.3s-3.3,7.3-7.3,7.3s-7.3-3.3-7.3-7.3S19.1,15.37,23.1,15.37z"/>
				</svg>
