<svg version="1.1" id="TopTenSVG" xmlns="http://www.w3.org/2000/svg" xmlns:xlink="http://www.w3.org/1999/xlink" x="0px" y="0px"
	 width="399px" height="54px" viewBox="0 0 399 54" enable-background="new 0 0 399 54" xml:space="preserve">
<path fill="#9A9A9A" d="M111.8,53.79c0-0.2,0-0.4,0-0.6c0-12.4,0-24.9,0-37.3c0-0.2,0-0.4,0-0.6c1.1,0,2.2,0,3.4,0
	c0,1.6,0,3.1,0,4.7c0,0,0,0,0.1,0c0-0.1,0.1-0.1,0.1-0.2c1.6-3.1,4.2-4.7,7.6-5.1c2.5-0.3,4.9,0.2,7,1.5c2.4,1.5,3.9,3.7,4.8,6.3
	c0.9,2.8,1.1,5.6,0.9,8.5c-0.1,2.1-0.5,4.1-1.4,6c-1.5,3.3-3.9,5.6-7.6,6.3c-3.1,0.6-6.1,0.2-8.8-1.8c-1.1-0.8-1.9-1.9-2.6-3.1
	c0-0.1-0.1-0.2-0.1-0.3c0,0,0,0-0.1,0c0,0.2,0,0.3,0,0.4c0,4.9,0,9.9,0,14.8c0,0.2,0,0.3,0,0.5C114.1,53.79,113,53.79,111.8,53.79z
	 M115.2,29.09c0,1.8,0.2,3.6,0.7,5.3c1.2,3.9,3.9,6.1,7.7,6.1c3.4,0.1,6.1-1.6,7.5-4.7c0.8-1.8,1.1-3.7,1.2-5.7
	c0.1-2.4-0.1-4.7-0.9-6.9c-1.5-4.1-4.9-6.2-9.2-5.5c-2.8,0.4-4.6,2.1-5.7,4.6C115.5,24.49,115.2,26.79,115.2,29.09z"/>
<path fill="#9A9A9A" d="M398.8,13.89c-0.2,0-0.4,0-0.6,0c0-1.5,0-2.9,0-4.4h-0.1c-0.6,0.9-1.3,1.9-1.9,2.9c-0.7-1-1.3-1.9-2.1-3
	c0,1.5,0,3,0,4.5c-0.2,0-0.4,0-0.6,0c0-1.8,0-3.7,0-5.5c0.4-0.1,0.7,0,0.9,0.4c0.5,0.9,1.1,1.7,1.7,2.7c0.6-0.9,1.2-1.7,1.7-2.6
	c0.2-0.4,0.5-0.6,1-0.5C398.8,10.19,398.8,12.09,398.8,13.89z"/>
<path fill="#9A9A9A" d="M19.8,32.89c0,3.2,0,6.5,0,9.8c-4.5,0-8.9,0-13.4,0c0-10.3,0-20.6,0-30.9c-1.9,0-3.7,0-5.5,0
	c0-3.5,0-7,0-10.5c6.3,0,12.5,0,18.8,0c0,3.2,0,6.4,0,9.7c4.6-7,10.9-10.8,19.2-10.7c6,0.1,11,2.4,15.2,6.7c8.5,8.8,8,22.9-1.1,31
	c-3.3,2.9-7.1,4.7-11.4,5.3c-4.3,0.6-8.5,0-12.4-1.9C25.3,39.49,22.2,36.69,19.8,32.89z M47.1,33.59c-0.1-0.2-0.1-0.3-0.1-0.4
	c-1-3.1-2-6.2-3.1-9.3c-0.1-0.3-0.1-0.5,0.2-0.7c2.6-1.9,5.2-3.8,7.9-5.7c0.1-0.1,0.2-0.2,0.3-0.2v-0.1c-0.1,0-0.3,0-0.4,0
	c-3.2,0-6.4,0-9.7,0c-0.3,0-0.5-0.1-0.6-0.4c-0.9-2.8-1.8-5.6-2.7-8.4c-0.1-0.4-0.3-0.8-0.4-1.3c-0.1,0.2-0.1,0.3-0.1,0.4
	c-1,3.1-2,6.2-3,9.3c-0.1,0.3-0.2,0.4-0.5,0.4c-3.2,0-6.5,0-9.7,0c-0.1,0-0.3,0-0.5,0c0.2,0.2,0.3,0.3,0.5,0.3
	c2.6,1.9,5.2,3.8,7.8,5.7c0.3,0.2,0.3,0.4,0.2,0.7c-1,3.1-2,6.1-3,9.2c0,0.1-0.1,0.3-0.1,0.5c2.9-2.1,5.7-4.2,8.6-6.3
	C41.4,29.39,44.2,31.39,47.1,33.59z"/>
<path fill="#9A9A9A" d="M229.3,26.39c3.3,5.5,6.5,10.9,9.8,16.4c-0.2,0-0.3,0-0.4,0c-2.5,0-5,0-7.4,0c-0.3,0-0.4-0.1-0.6-0.3
	c-2.9-5-5.8-10-8.7-15c-0.2-0.3-0.3-0.4-0.7-0.4c-2.1,0-4.1,0-6.2,0c-0.1,0-0.3,0-0.5,0c0,5.2,0,10.5,0,15.7c-2.3,0-4.6,0-6.9,0
	c0-13.1,0-26.2,0-39.3c0.1,0,0.2,0,0.3,0c5.5,0,10.9,0,16.4,0c2.1,0,4.3,0.2,6.3,1.1c4.2,1.8,6.5,5,6.9,9.5c0.2,2.3-0.1,4.5-1.2,6.5
	c-1.4,2.5-3.4,4.4-6.1,5.4C229.9,26.19,229.6,26.29,229.3,26.39z M214.6,9.59c0,3.8,0,7.5,0,11.2c0.1,0,0.2,0,0.3,0
	c2.6,0,5.1,0,7.7,0c1,0,2.1-0.1,3.1-0.2c1.4-0.2,2.7-0.7,3.6-1.9c0.8-1.1,1.1-2.4,1.1-3.8c-0.1-2.6-1.6-4.4-4.1-4.9
	c-1.1-0.2-2.3-0.3-3.5-0.3c-2.2,0-4.3,0-6.5,0C215.7,9.59,215.2,9.59,214.6,9.59z"/>
<path fill="#9A9A9A" d="M330.1,15.39c0.1,0,0.3,0,0.4,0c2,0,4,0,6,0c0.3,0,0.4,0.1,0.4,0.3c1.5,5.8,3,11.6,4.6,17.4
	c0.2,0.7,0.3,1.4,0.5,2.2c0.2-0.9,0.3-1.8,0.6-2.6c1.1-4.2,2.2-8.5,3.3-12.7c0.4-1.4,0.8-2.9,1.1-4.3c0.1-0.3,0.2-0.4,0.4-0.4
	c1.7,0,3.4,0,5.2,0c0.2,0,0.4,0,0.4,0.3c1.5,5.9,3.1,11.9,4.6,17.8c0.1,0.6,0.2,1.2,0.4,1.8c0-0.1,0.1-0.2,0.1-0.3
	c0.9-3.7,1.8-7.3,2.8-11c0.7-2.8,1.5-5.5,2.2-8.2c0.1-0.3,0.2-0.4,0.5-0.4c1.9,0,3.8,0,5.7,0c0.1,0,0.3,0,0.4,0
	c-0.1,0.2-0.1,0.3-0.1,0.5c-2.7,8.9-5.4,17.7-8.1,26.6c-0.1,0.3-0.2,0.5-0.6,0.5c-1.9,0-3.7,0-5.6,0c-0.2,0-0.4,0-0.4-0.3
	c-1.3-4.9-2.6-9.8-3.9-14.7c-0.4-1.5-0.7-3.1-1-4.7c-1.2,6.7-3.4,13.1-5.3,19.6c-0.1,0-0.2,0-0.4,0c-1.9,0-3.9,0-5.8,0
	c-0.3,0-0.4-0.1-0.5-0.3c-2.6-8.9-5.2-17.9-7.8-26.8C330.2,15.59,330.1,15.49,330.1,15.39z"/>
<path fill="#9A9A9A" d="M330,30.89c-6.8,0-13.4,0-20.1,0c0,3.3,2.6,6.3,5.8,6.8c4,0.7,7.2-0.7,9.5-4c0.1-0.2,0.2-0.3,0.3-0.5
	c1.5,1.2,3,2.3,4.6,3.5c-0.5,0.6-1,1.3-1.5,1.9c-2.7,3-6,4.6-10,4.9c-2.7,0.2-5.3-0.1-7.7-1.3c-3.1-1.5-5.3-4-6.4-7.2
	c-1.4-3.9-1.5-7.9,0-11.8c1.8-4.6,5.2-7.4,10-8.2c2.6-0.5,5.3-0.3,7.8,0.7c3.4,1.3,5.6,3.8,6.8,7.2c0.7,2.1,1,4.3,1,6.6
	C330,29.79,330,30.29,330,30.89z M323.4,25.89c0-0.2,0-0.3,0-0.4c-0.2-1.5-0.8-2.9-1.9-3.9c-1.7-1.5-3.7-1.9-5.9-1.5
	c-2.7,0.5-4.5,2-5.4,4.7c-0.1,0.4-0.2,0.8-0.2,1.2C314.5,25.89,318.9,25.89,323.4,25.89z"/>
<path fill="#9A9A9A" d="M264.6,30.89c-6.7,0-13.4,0-20.1,0c0.2,1.5,0.6,2.9,1.5,4.2c1.4,1.9,3.4,2.7,5.7,2.8
	c3.5,0.1,6.2-1.3,8.1-4.2c0.1-0.2,0.2-0.3,0.3-0.5c1.5,1.1,3,2.3,4.6,3.5c-0.7,0.9-1.3,1.7-2.1,2.5c-2.6,2.6-5.7,4-9.3,4.3
	c-2.3,0.2-4.5,0-6.7-0.8c-3.6-1.3-6-3.7-7.4-7.2c-1.6-4.3-1.8-8.6,0-12.8c1.8-4.3,5.2-6.8,9.8-7.7c2.4-0.4,4.8-0.3,7.1,0.4
	c3.2,1,5.5,3,6.9,6.1C264.5,24.39,264.8,27.49,264.6,30.89z M244.7,25.89c4.5,0,8.9,0,13.4,0c-0.1-1.9-0.8-3.4-2.3-4.6
	c-1.5-1.2-3.2-1.5-5-1.3c-2.6,0.3-4.5,1.6-5.6,4C244.9,24.59,244.7,25.19,244.7,25.89z"/>
<path fill="#9A9A9A" d="M368.5,37.99c1.5-1.3,3-2.6,4.4-3.9c1,1.3,2.2,2.3,3.6,3c2.4,1.2,5,1.4,7.6,0.7c0.6-0.2,1.1-0.5,1.6-0.8
	c1.4-1.2,1.1-3.4-0.7-4c-1.2-0.4-2.6-0.7-3.8-1c-2.1-0.5-4.2-0.8-6.2-1.6c-1.2-0.5-2.2-1-3.2-1.9c-1.8-1.6-2.3-3.7-2.1-6
	c0.3-3.4,2.4-5.5,5.4-6.7c3.5-1.4,7.1-1.4,10.7-0.4c2.2,0.6,4.3,1.7,6,3.2c0.1,0.1,0.3,0.3,0.5,0.4c-1.3,1.4-2.5,2.7-3.7,4
	c-0.1-0.1-0.2-0.2-0.3-0.3c-2.7-2.4-5.8-3.2-9.4-2.6c-0.6,0.1-1.2,0.4-1.7,0.8c-1.1,0.7-1.4,2.9,0.3,3.6c1,0.4,2.1,0.7,3.1,1
	c2.2,0.6,4.5,1,6.7,1.6c1.6,0.4,3,1.1,4.2,2.2c1.2,1.2,1.8,2.7,1.8,4.4c0.1,4.1-2,7.2-6,8.7c-3.1,1.2-6.4,1.3-9.7,0.7
	c-2.9-0.6-5.5-1.8-7.7-3.7c-0.3-0.3-0.7-0.7-1-1C368.8,38.29,368.7,38.19,368.5,37.99z"/>
<path fill="#9A9A9A" d="M264.8,15.29c0.4,0,0.8,0,1.1,0c1.8,0,3.6,0,5.3,0c0.2,0,0.4,0,0.4,0.3c1.8,6,3.5,12,5.3,18
	c0.1,0.5,0.2,0.9,0.4,1.5c0.1-0.3,0.1-0.4,0.2-0.6c1.4-4.8,2.7-9.7,4.1-14.5c0.4-1.5,0.9-3,1.3-4.5c0.1-0.2,0.1-0.3,0.3-0.3
	c2.1,0,4.2,0,6.4,0c0,0,0.1,0,0.2,0c0,0.2-0.1,0.3-0.1,0.4c-2.9,8.9-5.9,17.8-8.8,26.7c-0.1,0.3-0.2,0.4-0.5,0.4c-2,0-4.1,0-6.1,0
	c-0.3,0-0.4-0.1-0.5-0.4c-2.9-8.9-5.8-17.8-8.7-26.7C264.9,15.59,264.8,15.49,264.8,15.29z"/>
<path fill="#9A9A9A" d="M174.3,29.39c-7,0-13.9,0-21,0c0,0.7,0,1.4,0.1,2c0.2,1.9,0.7,3.8,1.8,5.4c1.7,2.5,4.1,3.6,7.1,3.7
	c4.4,0.1,7.4-2,9.4-5.7c0.1-0.1,0.1-0.3,0.2-0.4c0.9,0.6,1.7,1.1,2.7,1.7c-0.4,0.6-0.7,1.3-1.1,1.9c-2.7,3.9-6.5,5.6-11.1,5.6
	c-2.2,0-4.3-0.5-6.2-1.6c-2.4-1.4-4.1-3.4-5.1-6c-1.7-4.6-1.8-9.3,0.1-13.9c1.4-3.5,4-6,7.7-7c3.8-1,7.4-0.6,10.6,1.8
	c1.9,1.5,3.1,3.5,3.9,5.7c0.7,2.1,1,4.3,1,6.6C174.4,29.29,174.4,29.29,174.3,29.39z M170.8,26.59c-0.2-0.9-0.3-1.9-0.5-2.8
	c-1.2-4.2-4.6-6.7-8.9-6.3c-5.5,0.5-7.6,5.3-7.8,9.1C159.3,26.59,165,26.59,170.8,26.59z"/>
<path fill="#9A9A9A" d="M106.6,29.19c0,2.8-0.4,5.5-1.8,8.1c-1.9,3.6-4.9,5.7-9,6.2c-2.5,0.3-4.8,0.1-7.1-1c-2.9-1.3-4.9-3.6-6-6.6
	c-1.7-4.8-1.7-9.6,0.4-14.3c1.9-4.2,5.2-6.5,9.8-6.9c2.7-0.2,5.2,0.2,7.5,1.6c2.7,1.6,4.4,4.1,5.3,7.1
	C106.4,25.29,106.6,27.09,106.6,29.19z M103,29.09c0-1.9-0.2-3.9-0.9-5.7c-1.6-4.4-5.3-6.6-9.9-5.7c-2.9,0.6-4.8,2.5-6,5.1
	c-1.1,2.5-1.2,5.1-1.1,7.7c0.1,1.7,0.5,3.3,1.1,4.8c1.7,3.9,5.4,5.8,9.6,4.9c2.5-0.5,4.3-2,5.5-4.2C102.6,33.99,103,31.59,103,29.09
	z"/>
<path fill="#9A9A9A" d="M179.9,15.29c1.1,0,2.2,0,3.4,0c0,1.5,0,2.9,0,4.4c0.1,0,0.1-0.1,0.1-0.1c1.2-2.5,3.3-4,6-4.6
	c2.5-0.6,5-0.5,7.4,0.8c2.3,1.2,3.7,3.2,4.1,5.8c0.2,1.6,0.4,3.2,0.4,4.7c0,5.4,0,10.8,0,16.2c0,0.1,0,0.2,0,0.3c-1.1,0-2.2,0-3.4,0
	c0-0.2,0-0.3,0-0.5c0-5.2,0-10.5,0-15.7c0-1.5-0.1-3-0.5-4.5c-0.6-2.4-2.2-3.8-4.6-4.2c-1.6-0.2-3.3-0.2-4.8,0.5
	c-2.4,1-3.7,2.9-4.3,5.4c-0.2,0.9-0.3,1.9-0.3,2.9c0,5.2,0,10.4,0,15.7c0,0.2,0,0.3,0,0.5c-1.1,0-2.3,0-3.4,0
	C179.9,33.69,179.9,24.49,179.9,15.29z"/>
<path fill="#9A9A9A" d="M145.1,43.09c-1.1,0-2.2,0-3.3,0c0-11.6,0-23.2,0-34.8c-4.4,0-8.8,0-13.3,0c0-1.1,0-2.2,0-3.3
	c9.7,0,19.3,0,29,0c0,1.1,0,2.2,0,3.3c-4.1,0-8.2,0-12.4,0C145.1,19.89,145.1,31.49,145.1,43.09z"/>
<path fill="#9A9A9A" d="M76.1,8.29c0,11.6,0,23.2,0,34.8c-1.1,0-2.2,0-3.3,0c0-11.6,0-23.2,0-34.8c-4.2,0-8.3,0-12.4,0
	c0-1.1,0-2.2,0-3.3c9.5,0,19.1,0,28.6,0c0,1.1,0,2.2,0,3.3C84.7,8.29,80.4,8.29,76.1,8.29z"/>
<path fill="#9A9A9A" d="M293,15.29c2.2,0,4.4,0,6.5,0c0,9.2,0,18.3,0,27.5c-2.2,0-4.4,0-6.5,0C293,33.69,293,24.49,293,15.29z"/>
<path fill="#9A9A9A" d="M296.2,12.39c-2,0-3.7-1.6-3.7-3.6c0-2,1.6-3.6,3.6-3.6s3.7,1.6,3.7,3.6
	C299.9,10.69,298.3,12.39,296.2,12.39z"/>
<path fill="#9A9A9A" d="M389.8,8.89c-0.6,0-1.2,0-1.9,0c0-0.2,0-0.4,0-0.6c1.4,0,2.9,0,4.3,0c0,0.2,0,0.3,0,0.5c-0.6,0-1.2,0-1.8,0
	c0,1.7,0,3.3,0,5c-0.2,0-0.4,0-0.6,0C389.8,12.29,389.8,10.59,389.8,8.89z"/>
</svg>
