<svg version="1.1" id="tundraSVG" xmlns="http://www.w3.org/2000/svg" xmlns:xlink="http://www.w3.org/1999/xlink" x="0px" y="0px"
	 width="1002.41px" height="191.7px" viewBox="0 0 1002.41 191.7" enable-background="new 0 0 1002.41 191.7" xml:space="preserve">
<path fill="#3D3D3F" d="M733.1,66.38v-13c0-10.07-0.09-20.15,0-30.22c0.08-5.81,1.78-7.49,7.62-7.59c8.2-0.14,16.4-0.2,24.59,0.07
	c2.52,0.08,5,1.36,7.45,2.09v153.75c-2,0.86-4.21,2.35-6.52,2.65c-11.71,1.54-26.45,0.22-31.17-2.65c-0.53-1.92-1.14-4.1-1.78-6.4
	c-20,16-49.91,14.67-66.48-2.79c-7.78-7.99-12.4-18.52-13-29.65c-0.66-12.56-1.12-25.46,1-37.77c5.86-34.37,37.47-43.76,60.57-37.48
	C721.43,58.99,726.76,63.08,733.1,66.38z M733.61,115.38c-0.23-3.36-0.67-6.7-1.34-10c-2.47-9.75-9.42-15-19.3-15
	c-10.27,0-17.11,4.76-18.79,15.14c-1.01,7.35-0.94,14.8,0.22,22.13c0.82,5.91,4.45,11.08,10.75,12.71
	c13.22,3.42,24.85-0.52,27.77-16.22c0.51-2.53,0.42-5.15,0.69-8.79V115.38z"/>
<path fill="#3E3E40" d="M1001.43,172.67c-12.74,2.64-25.33,2.35-37.93,0.21l-2.4-9.06c-6.52,5.85-13.23,10.36-21.6,11.59
	c-10.82,1.59-21.49,1.56-31.7-3c-11.71-5.27-18.14-14.49-19.56-27.11c-1.47-13,3.18-23.47,14-30.93
	c9.46-6.53,20.35-9.32,31.44-11.39c9.18-1.71,18.39-3.23,27.5-4.82c0.23-7.74-2.72-11.32-9.64-12c-4.69-0.41-9.38,0.67-13.42,3.08
	c-3.39,1.89-7.14,3.03-11,3.36c-7.7,0.5-15.45,0.24-23.18,0.09c-2.33-0.16-4.64-0.5-6.92-1c-2.27-5-0.3-8.57,1.59-12
	c3.48-6.36,8.86-10.88,15-14.42c19.47-11.12,40-12.59,61-5.5c16.91,5.74,26.94,18,27.4,36.14c0.62,24.12,0.21,48.27,0.22,72.41
	C1002.05,169.79,1001.79,171.24,1001.43,172.67z M929.32,142.59c13.16,8.85,30.75-0.4,32.47-17.39c-9.1,0.87-18.12,1.4-26.58,4.8
	C929.18,132.43,928.17,135.12,929.32,142.59z"/>
<path fill="#3E3E40" d="M592.67,172.16c0-13.79,0-26,0-38.14c0-8.2,0.32-16.43-0.18-24.61c-0.85-13.84-10-21-23.19-18.75
	c-9,1.55-14.34,7.7-14.77,17.79c-0.32,7.72-0.11,15.47-0.11,23.21c0,11,0.06,22,0,33.07c-0.06,7.65-1.91,9.44-9.66,9.53
	c-7.5,0.08-15,0.13-22.5,0c-6.49-0.14-8.31-2-8.32-8.5c-0.05-33.07-0.05-66.14,0-99.2c0-7.2,1.47-8.57,8.74-8.65
	c6.8-0.08,13.6,0,20.39,0c8.34,0,9.06,0.63,10.77,9.64c7-7.22,15.33-10.74,24.82-11.67c9.82-1.12,19.76,0.3,28.87,4.11
	c14.49,6.22,21.5,18.22,24.34,33.06c0.72,3.92,1.08,7.9,1.07,11.89c0.1,19.94,0.07,39.87,0,59.8c0,7.72-1.74,9.44-9.53,9.53
	c-7.26,0.09-14.54,0.2-21.79-0.07C598.83,174.08,596.05,172.99,592.67,172.16z"/>
<path fill="#3E3E3F" d="M451.31,172.73c-0.79-3.07-1.3-5.06-1.93-7.47c-3.31,2.26-6.2,5-9.64,6.46
	c-18.11,7.68-35.73,6.51-52.06-4.69c-10.17-7-14.2-17.78-15.59-29.55c-0.62-6.29-0.9-12.62-0.82-18.94
	c-0.1-16.87-0.06-33.75,0-50.63c0-8.78,1.32-10,10.28-10c7.26,0,14.53-0.22,21.78,0.11c2.71,0.12,5.37,1.49,8.17,2.32
	c0,19.46-0.07,37.73,0.06,56c-0.04,4.21,0.37,8.4,1.24,12.52c2,8.74,7.43,12.53,16.91,12.55c9.71,0,14.72-3.53,16.92-12.45
	c0.75-3.19,1.12-6.45,1.12-9.72c0.11-16.87,0-33.75,0.06-50.63c0-9.84,0.89-10.68,11-10.69c6.79,0,13.59-0.05,20.38,0
	c7.38,0.07,9.08,1.69,9.1,9.14c0.06,21.1,0,42.2,0,63.29c0,11.49,0,23,0,34.46c0,7.41-1.82,9.33-8.94,9.47
	c-6.79,0.13-13.59,0.15-20.38,0C456.49,174.13,454.06,173.29,451.31,172.73z"/>
<path fill="#3D3D3F" d="M281.19,93.26c-5.74,0-10.61,0-15.48,0c-3.79,0-7.66,0.34-9.58-4s0.77-7.1,3.17-10
	c11.43-14,22.85-27.97,34.27-41.92c4.75-5.81,9.55-11.57,14.25-17.42c2.52-3.14,5.34-5.48,9.6-3.74c3.95,1.62,4.23,5.17,4.21,8.84
	c-0.05,10.74,0,21.47,0,33.05c6.87,0,13.11-0.06,19.36,0c7.3,0.07,8.74,1.44,8.85,8.58c0.09,6.33,0.23,12.67-0.09,19
	c-0.13,2.52-1.45,5-2.28,7.67h-25.16c-0.32,1.71-0.54,3.43-0.66,5.16c-0.06,9.38-0.13,18.76,0,28.14
	c0.14,9.81,4.54,14.16,14.2,14.35c2.57,0,5.16-0.12,7.73,0.05c4.77,0.31,6.84,2.19,7,7c0.22,7.26,0.15,14.54,0,21.8
	c-0.08,3.75-2.07,6.49-6,6.43c-11-0.16-22.15,0.49-32.9-1.28c-17.51-2.88-28.57-15.75-29.76-33.42c-0.84-12.61-0.52-25.29-0.7-38
	C281.16,100.5,281.19,97.47,281.19,93.26z"/>
<path fill="#35CCB8" d="M195.99,81.99c-1.17-3.64-4.27-3-7-3c-11,0-22,0-33,0c-8.58,0-10.58-2.12-10.67-10.89
	c-0.14-14.18,0.23-14.55,14.51-14.55c11,0,22,0.42,33-0.09c20.46-0.95,36.83,22.86,24.78,43.72c-3.47,6-8.4,11.22-12.83,16.66
	c-17.88,22-35.86,43.85-53.74,65.83c-6.1,7.5-13.65,12-23.47,12.11c-16.28,0.21-28.92-11.36-29.4-27.61
	c-0.42-14.05-0.21-28.12,0-42.17c0.08-6.35,2.84-9,9.06-9.08c11.79-0.06,17.6-2.69,17,16.15c-0.35,10.06-0.16,20.15,0,30.22
	c0,2.27,1,4.53,1.61,7C131.77,163.3,193.31,88.8,195.99,81.99z"/>
<path fill="#33CCB8" d="M122.72,75.11c-4.64,3.8-16.7,5.32-20.8,2.8c-3.39-2.09-4.11-5.42-4.09-9.13c0-11.95,0.08-23.9-0.05-35.85
	c0-2.33-0.85-4.65-1.3-7l-1.79-0.67c-2.34,2.03-4.56,4.19-6.65,6.47c-18,21.88-35.94,43.81-53.81,65.78
	c-3.06,3.75-6,7.57-8.55,10.74c1,5.11,4.13,4.6,6.89,4.6c11,0,22,0,33,0c8.9,0,11,2.2,11,11.32c0.08,13.1-0.9,14.11-13.74,14.11
	c-11,0-22-0.17-33,0c-12.33,0.24-21.29-5.2-26.56-16c-5.39-11.06-4.17-22.05,3.46-31.69C19.11,74.99,31.9,59.78,44.5,44.38
	c7.71-9.43,15.41-18.86,23.1-28.3c5.36-6.6,10.9-12.71,19.68-15c18.2-4.85,35.8,8,36,26.77c0.15,14.76,0,29.52,0,44.29
	C123.17,73.14,122.98,74.14,122.72,75.11z"/>
<path fill="#3E3E40" d="M835.69,67.04c5.17-2.49,10.15-6.25,15.62-7.23c8.89-1.59,18.1-1.59,27.18-1.77
	c3.9-0.09,5.61,2.86,5.61,6.68v23.14c-1.87,4.38-5,4.88-8.44,4.86c-6.55,0-13.12-0.17-19.66,0.14
	c-12.23,0.58-18.38,6.84-18.53,19.15c-0.2,17.57,0,35.14-0.08,52.71c0,7.74-1.72,9.45-9.49,9.53c-7.49,0.08-15,0.13-22.47,0
	c-6.38-0.12-8.53-2.17-8.55-8.44c-0.07-33.26-0.07-66.52,0-99.78c0-6.13,2-8,8-8.12c6.32-0.13,12.64,0,19,0
	C833.74,57.87,833.99,58.07,835.69,67.04z"/>
</svg>
