				<svg version="1.1" id="walmartSVG" xmlns="http://www.w3.org/2000/svg" xmlns:xlink="http://www.w3.org/1999/xlink" x="0px" y="0px"
					width="210px" height="59px" viewBox="0 0 210 59" enable-background="new 0 0 210 59" xml:space="preserve">
				<path fill="#9A9A9A" d="M18.5,22.18c-0.3,1.5-0.6,2.9-0.9,4.2c-1.3,5.5-2.6,11.1-3.9,16.6c-0.1,0.3-0.5,0.6-0.8,0.7
					c-0.4,0.2-0.8,0.2-1.2,0.2c-3.4,0.2-4.9-1-5.8-4.5c-1.9-7.6-3.7-15.1-5.5-22.7c-0.1-0.6-0.3-1.1-0.4-1.8c2.2,0,4.3,0,6.5,0
					c1.4,7.3,2.8,14.6,4.2,22.2c0.4-1.9,0.8-3.6,1.1-5.4c1.2-5.3,2.5-10.7,3.6-16c0.1-0.6,0.4-0.8,1-0.8c1.6,0,3.3,0,4.9,0
					c0.6,0,0.8,0.1,0.9,0.7c1.3,6.7,2.7,13.5,4,20.2c0.1,0.3,0.1,0.6,0.3,0.9c0.6-2.9,1.1-5.9,1.7-8.8c0.8-4.1,1.7-8.2,2.6-12.3
					c0-0.2,0.4-0.6,0.6-0.6c1.8,0,3.7,0,5.6,0c-0.1,0.3-0.1,0.6-0.2,0.9c-2.4,9-4.8,18-7.1,27c-0.2,0.6-0.5,1-1.1,1
					c-0.9,0-1.9,0.1-2.8,0c-2.1-0.4-3.2-1.9-3.6-3.8c-0.7-2.8-1.3-5.6-1.9-8.3C19.7,28.58,19.1,25.48,18.5,22.18z"/>
				<path fill="#9A9A9A" d="M74.3,43.58c-2,0-3.9,0-5.8,0c0-7.2,0-14.3,0-21.5c1.8,0,3.6,0,5.5,0c0,0.8,0,1.7,0,2.5
					c1.7-2.1,3.8-3.2,6.4-3.1c2.7,0,4.7,1.2,5.9,3.8c0.3-0.3,0.5-0.5,0.7-0.8c1.4-1.6,3-2.7,5.1-2.9c3.8-0.5,6.7,1.3,7.8,4.9
					c0.3,1.1,0.6,2.3,0.6,3.5c0.1,4.3,0,8.7,0,13c0,0.2,0,0.4-0.1,0.6c-1.9,0-3.8,0-5.8,0c0-0.4,0-0.7,0-1c0-3.5,0-6.9,0-10.4
					c0-0.8,0-1.6-0.2-2.4c-0.4-2.3-1.7-3.5-3.6-3.3c-2,0.2-3.4,1.8-3.4,4c0,3.8,0,7.7,0,11.5c0,0.5,0,1,0,1.6c-2,0-3.9,0-5.9,0
					c0-0.3,0-0.6,0-1c0-3.7,0-7.3,0-11c0-1-0.1-2-0.4-3c-0.7-2.2-3.2-2.9-5.1-1.4c-1.2,1-1.7,2.3-1.7,3.8c0,3.8,0,7.6,0,11.4
					C74.3,42.78,74.3,43.18,74.3,43.58z"/>
				<path fill="#9A9A9A" d="M55,43.57c-2.8,0.9-4.5,0.2-5.9-2.3c-1.1,1.2-2.4,2.2-4.1,2.5c-1.4,0.2-2.9,0.3-4.3,0
					c-2.6-0.5-4.2-2.3-4.7-4.9c-0.5-2.9,0.3-5.3,2.7-7.1c2.6-1.9,5.6-2.3,8.6-2.4c0.4,0,0.8,0,1.2,0c0.2-1.9-0.8-3.2-2.7-3.5
					c-2.2-0.3-4.2,0.1-6.2,1c-0.3,0.1-0.6,0.3-1,0.5c-0.4-1.2-0.7-2.4-1-3.6c0-0.1,0.2-0.5,0.4-0.6c3.8-1.7,7.7-2.3,11.7-1
					c3,1,4.4,3.3,4.8,6.3c0.3,2.2,0.3,4.5,0.4,6.7c0.1,2.6,0.2,5.1,0.2,7.7C55,43.17,55,43.37,55,43.57z M48.7,33.27c-0.4,0-0.7,0-1,0
					c-1.6,0.1-3.3,0.3-4.6,1.3c-1,0.7-1.3,1.7-1.2,2.9c0.1,1,0.6,1.7,1.5,2.1c2.1,0.9,4.9-0.6,5.3-2.8C48.8,35.67,48.7,34.47,48.7,33.27
					z"/>
				<path fill="#9A9A9A" d="M121.8,43.68c-2.7,0.7-4.3,0.1-5.6-2.3c-0.2,0.2-0.4,0.3-0.5,0.5c-2.5,2.2-5.3,2.8-8.5,1.8
					c-2.5-0.8-3.9-2.7-4.2-5.3c-0.3-2.7,0.6-4.9,2.8-6.5c2.6-1.9,5.6-2.3,8.6-2.4c0.4,0,0.8,0,1.2,0c0.2-2-0.8-3.2-2.7-3.5
					c-2.2-0.3-4.3,0.1-6.2,1.1c-0.3,0.1-0.5,0.3-0.9,0.5c-0.4-1.2-0.7-2.4-1-3.6c0-0.2,0.3-0.5,0.6-0.6c1.9-0.9,4-1.4,6.1-1.5
					c1.4,0,2.8,0,4.2,0.3c3.4,0.7,5.6,3.1,5.9,6.6c0.3,3.4,0.3,6.9,0.4,10.4C121.9,40.48,121.8,41.98,121.8,43.68z M115.7,33.18
					c-1,0.1-1.9,0.1-2.8,0.3c-1,0.3-2.2,0.6-3,1.2c-1.7,1.2-1.4,4,0.4,4.8c2.1,0.9,5-0.5,5.3-2.7C115.9,35.68,115.7,34.48,115.7,33.18z"
					/>
				<path fill="#9A9A9A" d="M140.6,14.88c1.9,0,3.7,0,5.6,0c0,2.2,0,4.4,0,6.7c1.7,0,3.3,0,5,0c0,1.9,0,3.7,0,5.6c-1.6,0-3.2,0-5,0
					c0,1,0,2,0,2.9c0,1.8,0,3.7,0,5.5c0.1,3,1.2,4,4.2,3.5c0.2,0,0.4-0.1,0.8-0.2c0,1.5,0,2.9,0,4.2c0,0.2-0.3,0.4-0.5,0.4
					c-2.1,0.5-4.3,0.8-6.4,0c-2.2-0.8-3.2-2.5-3.5-4.6c-0.2-1-0.2-2-0.2-2.9c0-6.8,0-13.6,0-20.3C140.6,15.48,140.6,15.18,140.6,14.88z"
					/>
				<path fill="#9A9A9A" d="M138.1,27.27c-0.9,0-1.8-0.1-2.7,0c-2.1,0.3-3.4,1.6-3.8,3.7c-0.1,0.6-0.2,1.2-0.2,1.8c0,3.2,0,6.4,0,9.7
					c0,0.3,0,0.7,0,1.1c-2,0-3.9,0-5.9,0c0-7.2,0-14.3,0-21.5c1.7,0,3.4,0,5.2,0c0,1.2,0,2.4,0,3.6c1.6-2.9,3.8-4.6,7.3-4
					C138.1,23.57,138.1,25.37,138.1,27.27z"/>
				<path fill="#9A9A9A" d="M58.5,14.98c1.9,0,3.7,0,5.7,0c0,9.5,0,19,0,28.6c-1.9,0-3.7,0-5.7,0C58.5,34.08,58.5,24.58,58.5,14.98z"/>
				<path fill="#9A9A9A" d="M209.3,16.68c0,1.7-0.5,2.5-1.6,3.1c-4.3,2-8.7,4-13,6.1c-1.3,0.6-2.4,0.2-3.3-1.2c-0.8-1.4-0.6-2.6,0.6-3.5
					c3.9-2.7,7.9-5.5,11.8-8.2c1-0.7,1.9-0.7,2.9-0.1C208.4,13.78,209.2,15.28,209.3,16.68z"/>
				<path fill="#9A9A9A" d="M175.2,22.78c-0.2,1.5-0.7,2.6-1.7,3.1c-0.5,0.3-1.4,0.4-1.9,0.1c-4.5-2-9-4.1-13.4-6.2
					c-0.8-0.4-1.2-0.9-1.3-1.8c-0.4-2.2,1.1-4.7,3.1-5.4c0.8-0.3,1.4-0.2,2.1,0.3c4.1,2.8,8.2,5.7,12.2,8.6
					C174.7,21.78,175,22.48,175.2,22.78z"/>
				<path fill="#9A9A9A" d="M209.3,42.08c-0.2,1.6-1,3.1-2.7,4c-1,0.5-1.9,0.5-2.8-0.2c-3.9-2.8-7.9-5.5-11.8-8.3
					c-1.2-0.8-1.3-1.9-0.5-3.3c0.8-1.4,1.9-1.9,3.2-1.3c4.4,2,8.8,4.1,13.3,6.1C209,39.68,209.4,40.58,209.3,42.08z"/>
				<path fill="#9A9A9A" d="M179.1,55.88c0.5-5.1,0.9-10,1.4-14.9c0.1-0.5,0.5-1.1,1-1.4c1-0.6,2.1-0.6,3.2,0c0.7,0.3,1,0.8,1.1,1.6
					c0.4,4.7,0.8,9.3,1.2,14c0.2,2.2-0.7,3.3-2.9,3.7c-1.2,0.2-2.3,0.1-3.4-0.5C179.6,57.78,178.9,56.98,179.1,55.88z"/>
				<path fill="#9A9A9A" d="M187.1,2.78c-0.5,5.2-0.9,10.2-1.4,15.2c-0.1,0.5-0.6,1.1-1,1.4c-1,0.6-2.1,0.5-3.2,0
					c-0.7-0.3-1-0.8-1.1-1.6c-0.4-4.6-0.8-9.3-1.2-13.9c-0.2-2.3,0.7-3.5,3-3.8c1.3-0.2,2.5,0,3.5,0.6C186.6,1.18,187.2,1.98,187.1,2.78
					z"/>
				<path fill="#9A9A9A" d="M175.3,36.07c-0.4,0.5-0.6,1.2-1.1,1.5c-4,2.9-8.1,5.7-12.1,8.5c-0.8,0.5-1.5,0.5-2.4,0.2
					c-1.9-0.8-3.3-3.3-2.9-5.4c0.1-0.8,0.5-1.3,1.3-1.7c4.5-2.1,9-4.1,13.4-6.2C173.2,32.27,175.1,33.77,175.3,36.07z"/>
				</svg>
