		<svg version="1.1" id="yahooSVG" xmlns="http://www.w3.org/2000/svg" xmlns:xlink="http://www.w3.org/1999/xlink" x="0px" y="0px"
			width="215px" height="60px" viewBox="0 0 215 60" enable-background="new 0 0 215 60" xml:space="preserve">
		<path fill="#9A9A9A" d="M0.56,14.5h12.7l7.4,18.9l7.5-18.9h12.4l-18.6,44.8H9.46l5.1-11.9L0.56,14.5z"/>
		<path fill="#9A9A9A" d="M53.46,13.8c-9.6,0-15.6,8.6-15.6,17.1c0,9.6,6.6,17.2,15.4,17.2c6.6,0,9-4,9-4v3.1h11.1V14.5h-11.1v3
			C62.36,17.5,59.56,13.8,53.46,13.8z M55.86,24.3c4.4,0,6.7,3.5,6.7,6.6c0,3.4-2.4,6.7-6.7,6.7c-3.5,0-6.7-2.9-6.7-6.6
			C49.16,27.3,51.66,24.3,55.86,24.3z"/>
		<path fill="#9A9A9A" d="M77.26,47.2V0.1h11.6v17.5c0,0,2.8-3.8,8.5-3.8c7.1,0,11.2,5.3,11.2,12.8v20.6h-11.5V29.4c0-2.5-1.2-5-4-5
			c-2.8,0-4.2,2.5-4.2,5v17.8H77.26z"/>
		<path fill="#9A9A9A" d="M128.26,13.8c-10.9,0-17.5,8.3-17.5,17.2c0,10.1,7.9,17.1,17.5,17.1c9.3,0,17.5-6.6,17.5-16.9
			C145.76,19.9,137.26,13.8,128.26,13.8z M128.35,24.4c3.9,0,6.5,3.2,6.5,6.6c0,2.9-2.5,6.5-6.5,6.5c-3.7,0-6.5-3-6.5-6.6
			C121.96,27.5,124.25,24.4,128.35,24.4z"/>
		<path fill="#9A9A9A" d="M165.16,13.8c-10.9,0-17.5,8.3-17.5,17.2c0,10.1,7.9,17.1,17.5,17.1c9.3,0,17.5-6.6,17.5-16.9
			C182.66,19.9,174.06,13.8,165.16,13.8z M165.26,24.4c3.9,0,6.5,3.2,6.5,6.6c0,2.9-2.5,6.5-6.5,6.5c-3.7,0-6.5-3-6.5-6.6
			C158.76,27.5,161.05,24.4,165.26,24.4z"/>
		<path fill="#9A9A9A" d="M191.76,47.9c4.25,0,7.7-3.45,7.7-7.7s-3.45-7.7-7.7-7.7c-4.25,0-7.7,3.45-7.7,7.7S187.5,47.9,191.76,47.9z"
			/>
		<path fill="#9A9A9A" d="M201.96,29.6h-13.9L200.35,0h13.8L201.96,29.6z"/>
		</svg>
