<svg version="1.1" id="Слой_1" xmlns="http://www.w3.org/2000/svg" xmlns:xlink="http://www.w3.org/1999/xlink" x="0px" y="0px"
	 width="1040px" height="148px" viewBox="0 0 1040 148" enable-background="new 0 0 1040 148" xml:space="preserve">
<g id="traks">
	<path fill="#00FF8D" d="M78.57,94.14c-0.55,0.01-0.96-0.04-1.05-0.18c-1.93-3.69-3.16-7.73-4.57-11.77
		c0.68-0.51,1.36-1.19,1.88-1.71c0.01-0.01,0.03-0.03,0.05-0.05l0,0l0,0c0.34,0.04,0.7,0.07,1.09,0.1c3.03,0.23,7.22,0.19,7.69,1.13
		c0.88,3.69,0.18,7.73-0.53,11.42C83.01,93.62,80.09,94.16,78.57,94.14z M76.47,119.43c-0.18-0.53-5.44-0.7-5.97,0.18
		c-1.39,2.94-2.78,6.29-2.73,9.33c0,0.47,0.03,0.93,0.1,1.38c0.35,1.58,5.62,2.28,8.6,3.34c0.39-0.29,0.72-0.53,1.06-0.77
		c0.28-0.16,0.58-0.31,0.87-0.46c-0.01-0.05-0.01-0.11-0.02-0.16c0.01,0,0.01-0.01,0.02-0.01
		C77.87,128.03,77.52,123.64,76.47,119.43z M88.59,121.94c-0.68-0.58-1.73-0.94-3.34-0.94c-2.05,0-3.13,0.68-3.72,1.7
		c-1.1,1.72-0.51,4.53-0.85,6.56l0,0l0,0c-0.9,3.26,0.08,4.36,1.77,4.77c0.99,0.3,2.23,0.36,3.5,0.49c3.86,0.35,4.39-1.76,4.04-4.57
		C89.59,127.3,90.69,123.54,88.59,121.94z M91.92,93.43c1.21-0.06,2.15-0.42,2.83-1.21c1.25-1.38,1.64-4.28,1.3-9.38
		c-0.06-0.96-0.15-1.99-0.27-3.11c-2.5,0.92-5.88-1.21-7.72,0.54c-0.01,0.01-0.02,0.03-0.04,0.04c-0.6,0.59-1.03,1.6-1.2,3.29
		C86.12,90.45,87.88,93.43,91.92,93.43z M65.23,94.66c0.34,0.51,0.81,0.9,1.33,1.18c2.14,1.31,5.66,0.43,5.52-1.88
		c-0.35-3.86-2.11-7.73-3.86-11.24c-0.05-0.08-0.2-0.1-0.4-0.1c-0.89-0.06-4.17,1.08-6.75,1.86c-0.2,0.06-0.39,0.12-0.57,0.17
		c1.11,2.56,2.01,4.76,3.01,6.75C64.04,92.55,64.59,93.63,65.23,94.66z M110.59,95.29c0.87,1.16,3.66,3.2,3.8,3.06l0,0
		c2.81-2.63,5.27-5.62,8.96-9.84l0,0l0,0l0,0c-3.86-1.58-7.72-3.69-8.25-3.16c-2.28,2.46-3.86,5.8-4.92,9.13
		C110.14,94.67,110.31,94.96,110.59,95.29z M29.76,105.55c-0.7,4.39-1.4,8.08-1.23,11.94c0,0.43,3.87,1.45,5.57,1.42
		c0.4,0,0.68-0.05,0.75-0.19c0-0.01,0.01-0.01,0.01-0.02c1.92-3.16,2.8-6.84,4.2-10.87C35.56,106.96,33.45,106.43,29.76,105.55z
		 M108.43,119.55c-0.13,0.01-0.26,0.01-0.36,0.05c-1.4,0.53-2.98,2.63-2.98,4.04c0,2.81,1.05,5.62,1.76,8.96
		c3.34-0.88,5.97-1.58,9.13-2.46c-1.23-3.34-1.93-6.15-3.51-8.61C111.8,120.37,109.56,119.22,108.43,119.55z M101.4,127.15
		c-0.18-0.7,0-1.58-0.35-1.93c-1.23-1.41-2.63-2.63-3.86-3.86c-0.02,0.03-0.05,0.06-0.08,0.09c-0.03-0.03-0.07-0.06-0.1-0.09
		c-1.23,1.4-3.34,2.81-3.51,4.57c-0.22,1.74-0.03,3.48,0.23,5.21c0.15,1.1,0.34,2.19,0.48,3.22l0,0c4.77,0.4,6.95,0.4,7.63-1.01
		C102.42,132.3,102.1,130.42,101.4,127.15z M33.98,80.44c-0.18-1.41-1.76-2.81-2.63-4.04c-1.23,1.23-3.16,2.46-3.51,3.86
		c-0.53,2.28,0,4.92,0.18,7.9C32.75,87.81,34.33,85.71,33.98,80.44z M17.65,100.81L17.65,100.81L17.65,100.81
		c-3.16,3.51-5.09,5.62-6.85,8.08c-0.53,0.88-0.53,2.63,0,3.69c0.34,0.85,2.65,1.53,2.95,1.25c0.11,0.01,0.19,0.01,0.21-0.02
		c1.76-2.28,3.51-4.57,4.74-7.2C19.05,105.38,18.17,103.62,17.65,100.81z M85.26,96.24h-0.01l0,0l0,0l0,0
		c0.18,2.63,0.18,4.92,0.35,7.9c2.28-0.17,4.04-0.17,6.67-0.35C90.16,100.64,92.27,94.67,85.26,96.24z M125.98,89.39
		c-3.16,5.44-8.78,9.13-4.22,16.51c1.84,3.03,1.32,6.45-0.99,9.09c-0.77,0.88-1.73,1.67-2.88,2.33c-0.84,0.47-1.43,0.97-1.84,1.5
		c-1.87,2.34-0.08,5.01,0.79,7.46c0.74,2.33,2.16,3.29,4.02,3.3c0.82,0.02,1.71-0.15,2.65-0.49c8.45-2.77,13.81-9.57,14.31-18.05
		c0.07-1.21,0.04-2.46-0.09-3.73C136.87,99.76,132.48,94.49,125.98,89.39z M14.97,96.37c0.02-0.66-0.02-1.34-0.14-2.06
		c-0.09-0.7-0.04-1.54,0.11-2.33c0.18-0.68,0.45-1.33,0.77-1.88c1.16-1.72,1.59-3.38,1.62-5.03c0.09-3.55-1.73-7.08-1.97-10.95l0,0
		l0,0c-0.12,0.03-0.24,0.06-0.36,0.09c-3.98,1-7.07,2.68-9.35,5.07c-1.87,1.95-3.24,4.37-4.16,7.3c-2.11,7.03-2.46,14.05,2.11,20.55
		c1.76,2.28,3.69,2.11,5.62,0C12.01,104.03,14.93,100.93,14.97,96.37z M68.39,118.9c-2.63-1.58-4.04-2.81-5.62-3.16
		c-2.11-0.53-8.08,6.5-7.2,9.13c0.32,1.18,1.55,2.03,2.87,2.83c0.81,0.52,1.67,1.03,2.4,1.56C63.12,126.1,65.41,123.12,68.39,118.9z
		 M41.53,79.21c-3.34-1.4-4.92-0.88-5.79,2.81c-0.55,2.44-0.93,4.14-0.93,5.38c-0.03,2.75,1.73,3.13,7.43,4.1
		c2.03-4.85,3.04-7.44,2.94-9.07C45.12,80.73,43.95,80.1,41.53,79.21z M109.13,83.25c-0.47-0.47-0.94-0.94-1.4-1.4l0,0
		c-0.06-0.06-0.11-0.11-0.18-0.18c-2.28,0.35-6.32,0.18-6.67,1.05c-0.88,3.34-0.7,6.85-0.53,10.36c0,0.07,0.07,0.14,0.2,0.22
		c0.21,0.53,4.2,1.35,4.37,1.01c1.58-3.51,2.99-7.2,4.39-10.89l0,0l0,0C109.24,83.36,109.18,83.31,109.13,83.25z M24.14,104.5
		c-0.33,0.56-0.67,1.13-1.02,1.7c-1.55,2.38-3.08,4.93-4.95,7.96c2.11,1.05,4.57,2.46,4.57,2.28c0.83-1.32,1.61-2.68,2.34-4.06
		c0.7-1.25,1.34-2.53,1.86-3.87c0.12-0.28,0.26-0.56,0.37-0.84c0.01-0.04,0.01-0.09-0.01-0.15c0-0.01,0.01-0.02,0.01-0.03
		C27.48,106.96,25.2,105.55,24.14,104.5z M19.11,79.52c0.86,2.36,1.97,4.66,3.1,7.06c1.23-2.46,2.46-4.92,4.04-8.25
		c-1.93-1.58-3.34-3.16-4.74-3.34c-0.88-0.18-3.16,2.11-2.98,2.81C18.69,78.38,18.89,78.95,19.11,79.52z M75.06,100.11
		c0.48,2.9,1.63,4.64,3.97,4.58c1.04-0.02,2.33-0.41,3.93-1.24c-2.11-2.64,0.18-7.9-5.62-7.9c-2.06,0-2.53,1.17-2.51,2.59
		C74.84,98.76,74.95,99.44,75.06,100.11z M82.09,110.47c-0.01-0.01-0.02-0.01-0.03-0.01c-4.37-2.44-7-1.73-7.7,2.82
		c-0.26,1.04,0.06,2.84,0.45,3.78c0.13,0.37,0.28,0.61,0.43,0.61l0,0c0.73,0.15,1.35,0.21,1.88,0.17c3.85-0.2,3.27-4.56,4.94-7.33
		C82.07,110.5,82.08,110.48,82.09,110.47z M85.25,110.12L85.25,110.12L85.25,110.12c-0.5,1.7-0.88,3.27-1.22,4.77
		c-0.3,1.11-0.59,2.19-0.89,3.31c1.58,0.32,2.75,0.53,3.66,0.56c2.63,0.1,2.93-1.47,3.72-7.41C88.93,111,87.53,110.65,85.25,110.12
		L85.25,110.12z M107.72,114.68c0-1.23-1.23-3.69-1.93-3.69c-5.27-0.17-3.16,4.74-5.44,7.55
		C104.74,119.25,107.55,118.9,107.72,114.68z M102.45,98.88c1.58,2.81-1.58,8.78,5.44,7.2C109.3,99.23,108.25,97.82,102.45,98.88z
		 M98.48,97.35c-0.74-0.84-2.06-0.67-4.62-0.22h-0.01l0,0l0,0l0,0c0,5.3,0.1,6.7,2.57,6.69c0.79,0.01,1.83-0.14,3.22-0.37l0,0l0,0
		C99.38,99.86,99.24,98.11,98.48,97.35z M98.06,112.23c-5.79-1.23-5.44,2.81-5.62,6.67C97.89,119.43,98.59,118.55,98.06,112.23z
		 M111.58,101.34c1.05,2.98-0.88,7.38,5.09,6.32C116.68,104.5,117.38,101.16,111.58,101.34z M111.06,116.62
		c0.64,0.11,1.18,0.15,1.65,0.13c3.32-0.16,2.98-3.35,3.44-6.27C110.18,109.59,111.41,113.46,111.06,116.62z M142.79,27.25
		c1.16-0.04,2.66-0.37,4.19-0.51c0.14-0.01,0.28-0.03,0.42-0.04l0,0l0,0v-0.01c-2.27-4.71-2.81-9.42-8.51-8.09l0,0l0,0
		c-0.59,1.04-0.82,2.01-0.78,2.93c0.08,2.11,1.53,3.89,2.98,5.34C141.41,27.2,142.02,27.28,142.79,27.25z M138.89,18.6
		c0.01-0.02,0.02-0.03,0.03-0.05l0,0c0.02-0.04,0.04-0.07,0.06-0.11l0,0c-0.02,0.04-0.04,0.07-0.06,0.11
		c2.75-1.42,3.55-3.27,3.52-5.27c0.03-2.02-0.82-4.21-1.36-6.26c-0.35-1.23-2.28-3.16-3.16-2.99c-2.46,0.53-5.44,1.05-6.67,2.81
		c-0.23,0.35-0.36,0.76-0.44,1.19c-1.01,3.75,3.88,10.07,8.02,10.38l-0.02,0.02c0.01-0.01,0.02-0.01,0.03-0.02
		c0.03,0,0.05,0.01,0.08,0.01c-0.05,0.06-0.11,0.18-0.11,0.18l0,0l0,0C138.83,18.61,138.86,18.61,138.89,18.6L138.89,18.6
		L138.89,18.6z M203.04,24.44c0.19-1.77,0.16-3.49-0.16-5.12c-1.93-8.78-8.08-13.52-16.33-15.98c-2.55-0.67-4.49-0.31-5.57,1.39
		c-0.05,0.07-0.09,0.16-0.14,0.24c-0.03,0.05-0.05,0.1-0.08,0.14c-0.28,0.49-0.53,1.06-0.71,1.74c-0.7,2.99-3.16,6.32,1.58,8.96
		c6.15,3.16,7.2,7.03,4.39,13.7c-0.53,1.23-0.7,2.99-0.18,4.04c0.94,1.36,1.91,2.72,2.93,4.14c1.07,1.57,2.2,3.17,3.39,4.81
		c0.03-0.02,0.05-0.04,0.08-0.06C198.69,37.34,202.53,30.64,203.04,24.44z M134.76,41.1c-0.05-0.01-0.1,0.01-0.15,0.01
		c-0.01,0-0.02,0-0.02-0.01c-2.28-0.35-6.5,6.67-5.62,10.19c0.53,1.58,3.34,2.46,5.09,3.69c0.02-0.03,0.04-0.05,0.05-0.08
		c0.04,0.03,0.08,0.05,0.12,0.08c1.93-3.16,3.86-6.32,6.5-10.54c-2.07-1.24-3.49-2.37-4.94-2.97
		C135.44,41.3,135.1,41.17,134.76,41.1z M102.14,60.62c0-0.07-0.01-0.14-0.04-0.21c-0.88-2.81,0-7.55-4.92-7.55
		c-0.88,0-1.93,2.28-3.51,4.21c2.11,2.99,3.69,5.27,5.44,7.73C100.11,63.49,102.18,61.71,102.14,60.62z M89.46,37.76L89.46,37.76
		L89.46,37.76c5.79-3.34,2.81-6.85,1.23-9.84c-0.7-1.23-3.16-1.58-4.74-2.46c0,0.02-0.01,0.05-0.02,0.07
		c-0.05-0.02-0.11-0.05-0.16-0.07c-0.18,1.76-1.23,3.69-0.7,5.27C86.12,33.02,87.88,35.13,89.46,37.76z M151.23,16.82
		c-0.77,0-1.73,0.22-2.95,0.75c0.24,5.33,0.82,7.4,3.12,7.31c1.04-0.02,2.42-0.5,4.26-1.34C154.37,21.11,154.6,16.82,151.23,16.82z
		 M154.42,31.4c-4.02-0.01-3.9,0.86-2.98,7.94c5.79,0,6.5-1.05,4.92-7.9C155.62,31.41,154.98,31.4,154.42,31.4z M172.86,22.13
		c-1.93-7.73-1.93-7.73-7.2-6.15C167.07,23.53,167.6,23.89,172.86,22.13z M163.73,21.95c-1.14-2.58-1.01-6.55-4.44-6.51
		c-0.77,0-1.72,0.21-2.93,0.71C157.41,19.85,157.06,24.41,163.73,21.95z M165.14,31.09c-1.58,0-2.98,0-5.09,0.18
		c0.18,2.46,0.18,4.57,0.35,6.67c4.14,0,4.92,0,4.87-3.69C165.26,33.4,165.21,32.37,165.14,31.09z M83.17,43.46
		c-0.29,0.06-0.59,0.1-0.91,0.1c1.05,2.81,2.11,5.62,3.16,8.43c0.03-0.01,0.06-0.02,0.1-0.04c0.03,0.07,0.05,0.14,0.08,0.21
		c0.88-0.35,1.58-0.53,2.46-0.88c-1.05-2.8-2.1-5.6-3.15-8.41c0-0.01-0.01-0.02-0.01-0.02l0,0l0,0
		C84.28,43.1,83.74,43.26,83.17,43.46z M83.84,67.62c0.26-1.64,0.57-3.26,0.79-4.87c0.56-3.96,0.6-7.84-2.02-11.46
		c-0.88-1.23-1.4-2.99-1.23-4.39c0.7-5.62-3.51-8.08-6.67-11.24c-0.93-0.93-1.79-1.31-2.6-1.25c-1.11-0.04-2.06,0.75-3.02,2.13
		C63.12,45.31,68.57,67.27,83.84,67.62z M151.79,49.53c-0.33-3.13,0.27-7.35-4.6-7.56c-0.31-0.02-0.65-0.01-1.01,0.01
		c-6.14,0.53-4.21,5.62-4.74,9.13c-0.7,5.8,3.69,4.74,6.85,4.92c1.87,0.13,2.8-0.35,3.24-1.15
		C152.35,53.57,151.79,51.41,151.79,49.53z M158.82,41.97c-2.91-0.24-4.39,1.19-4.8,3.71c-0.03,0.17-0.05,0.35-0.07,0.53
		c-0.01,0.05-0.01,0.1-0.02,0.16c-0.08,0.97-0.03,2.09,0.15,3.33c0.01,0.01,0.01,0.03,0.02,0.04c0.15,0.29,0.21,0.68,0.25,1.13
		c0.07,0.94,0.01,2.11,0.39,3.04c0.03,0.07,0.07,0.14,0.1,0.2c0.03,0.07,0.06,0.14,0.1,0.21c0.52,0.88,1.56,1.44,3.71,1.17
		c0.05-0.01,0.1-0.01,0.15-0.02c1.34-0.07,3.04-0.06,4.11-0.72c1-0.51,1.57-1.48,1.01-3.48C162.86,47.95,164.61,42.33,158.82,41.97z
		 M143.54,5.8c0.18,6.67,2.11,9.66,6.15,9.13c2.52-0.33,3.68-1.41,3.67-4.71c0-1.58-0.28-3.68-0.79-6.45
		c-0.13-0.69-0.27-1.41-0.42-2.19c-5.01-0.22-7.19-0.09-8.08,1.07c-0.43,0.52-0.56,1.28-0.55,2.35
		C143.52,5.25,143.53,5.51,143.54,5.8z M126.86,24.59L126.86,24.59L126.86,24.59c1.28-1.81,2.62-3.36,3.4-4.42
		c0.55-0.69,0.88-1.16,0.81-1.37c-2.11-3.51-4.57-6.67-7.02-9.84c-0.03,0.03-0.07,0.06-0.11,0.09c-0.02-0.03-0.04-0.06-0.07-0.09
		c-0.33,0.33-0.75,0.7-1.19,1.07c-0.89,0.7-1.85,1.46-2.52,2.09c-0.66,0.57-1.1,1.03-1.03,1.23c1.65,3,3.82,5.75,6.38,9.33
		C125.95,23.29,126.4,23.92,126.86,24.59z M179.18,35.3c-3.17,1.68-3.37,3.56-2.65,5.37c0.08,0.21,0.18,0.43,0.29,0.64
		s0.22,0.42,0.35,0.63c0.67,1.14,1.53,2.23,2.01,3.2c2.81,5.97,5.97,0.18,9.48-0.18C184.98,35.83,182.52,33.37,179.18,35.3z
		 M100.52,49.88c2.28,4.92,3.69,8.43,5.79,11.59c0.18,0.35,5.79-1.58,5.79-2.46c0-3.16-0.7-6.85-2.46-9.31
		c-0.23-0.4-0.81-0.54-1.63-0.54C106.26,49.13,103.44,49.76,100.52,49.88z M172.51,14.58c6.67-0.53,4.21-7.2,5.79-11.59l0,0l0,0
		c0,0,0,0-0.01,0c-2.91,0.13-6.92-3.01-8.65-0.17c-0.46,0.71-0.76,1.82-0.83,3.51c-0.07,1.34-0.31,2.88-0.3,4.26
		C168.52,12.9,169.17,14.8,172.51,14.58z M102.98,30.38c-0.7-2.99,0.7-8.25-4.57-8.25c-0.49,0-1.14-0.06-1.84-0.05
		c-2.1-0.01-4.57,0.47-4.83,4.44c1.93,2.81,3.86,5.62,5.79,8.25C99.29,33.19,104.21,34.6,102.98,30.38z M156.71,6.5
		c0.35,1.99-0.07,4.6,1.06,5.91c0.54,0.72,1.47,1.12,3.15,0.94c3.74-0.6,4-3.12,3.97-5.71c-0.01-0.5-0.02-1-0.03-1.5
		c-0.01-0.67,0.01-1.32,0.1-1.91c0.02-0.18,0.03-0.34,0.05-0.5C165.5,0.34,163.12,0,160.22,0C154.6,0,157.59,4.39,156.71,6.5z
		 M170.58,39.69c-0.35-0.35-4.21,1.23-4.21,1.76c0,0.05,0.01,0.09,0.01,0.14c0,0.01-0.01,0.03-0.01,0.04
		c0.35,3.51,0.7,7.2,2.28,10.19c0.53,0.7,4.74-0.18,7.2-0.35c0.35-0.7,0.7-1.41,1.05-1.93c-0.02-0.03-0.03-0.05-0.05-0.08
		c0.02-0.03,0.03-0.07,0.05-0.1C174.79,46.01,172.86,42.68,170.58,39.69z M78.44,36.05c0.05,0.05,0.1,0.1,0.15,0.15
		c1.29,1.3,2.65,2.57,4.02,3.84l0,0l0,0l0,0c0.25-0.32,0.43-0.69,0.58-1.09c1.36-3.59-0.91-10.01-3.92-10.33
		c-0.04,0-0.08,0.01-0.13,0.01c-0.02,0-0.03-0.01-0.05-0.01c-1.05,0-2.63,0.88-3.34,1.76c-0.35,0.7-0.18,2.46,0.35,3.16
		C76.84,34.41,77.63,35.23,78.44,36.05z M92.45,59.36c-0.35-1.58-1.93-3.16-2.81-4.74l0,0l0,0c-0.01,0-0.01,0.01-0.02,0.01
		c-0.69,0.35-1.22,0.7-1.91,1.04c-0.35,2.81-0.88,5.8-0.7,8.61c0,0.02,0,0.03,0.01,0.05c0,0.04-0.01,0.09-0.01,0.13
		c0.18,3.16,2.81,3.86,4.57,1.93c0.79-1.01,1.07-2.61,1.08-4.22C92.66,61.21,92.58,60.23,92.45,59.36z M143.37,40.92
		c5.97-0.35,3.69-5.27,4.92-8.61l0,0l0,0h-0.01c-6.13-2.27-7.01,1.41-7.01,5.62c0,0,0,0,0,0.01l0,0l0,0
		C141.26,38.99,142.66,40.92,143.37,40.92z M169.35,35.83c2.69,0.08,3.98-0.7,4.57-1.96c0.82-1.55,0.47-3.83,0.17-6.12
		C168.3,27.4,167.42,28.98,169.35,35.83z M179.71,32.49c0.88-2.11,1.76-4.39,2.63-6.5c-0.69-0.07-1.29-0.09-1.8-0.08
		c-4.98,0.12-2.27,3.64-2.59,5.87C178.48,31.96,179.18,32.32,179.71,32.49z M179.11,17.05c-0.74-0.68-1.97-0.3-4.3,0.68h-0.01l0,0
		l0,0l0,0c1.28,1.57,0.83,4.88,3.35,5.02c0.57,0.04,1.31-0.1,2.26-0.46l0,0l0,0C180.06,19.22,179.84,17.64,179.11,17.05z"/>
	<path fill="#00FF8D" d="M328.69,96.24c-3.16,5.44-8.6,9.13-4.21,16.51c2.46,4.04,0.7,8.78-3.86,11.42
		c-0.84,0.47-1.43,0.97-1.84,1.5c-1.88,2.34-0.08,5.01,0.78,7.46c0.73,2.33,2.16,3.29,4.02,3.3c0.82,0.02,1.71-0.15,2.65-0.49
		c9.66-3.16,15.28-11.59,14.22-21.78C339.57,106.61,335.36,101.34,328.69,96.24z M286.37,88.52c-0.35-1.05-5.79-0.88-8.78-1.23
		c-0.39,0.39-0.89,0.89-1.33,1.33c-0.18,0.15-0.38,0.29-0.6,0.43c1.41,4.04,2.63,8.08,4.57,11.77c0.09,0.14,0.5,0.19,1.05,0.18
		c1.51,0.02,4.43-0.52,4.57-1.06C286.55,96.24,287.25,92.2,286.37,88.52z M279.17,126.28c-0.18-0.53-5.44-0.7-5.97,0.18
		c-1.39,2.94-2.78,6.29-2.73,9.33c0,0.47,0.03,0.93,0.1,1.38c0.35,1.58,5.62,2.28,8.6,3.34c0.7-0.53,1.23-0.88,1.93-1.23
		c-0.01-0.05-0.01-0.11-0.02-0.16c0.01,0,0.01-0.01,0.02-0.01C280.58,134.88,280.23,130.49,279.17,126.28z M291.29,128.79
		c-0.68-0.58-1.73-0.94-3.34-0.94c-5.27,0-4.21,4.48-4.49,7.64c-0.02,0.21-0.04,0.42-0.08,0.61c-0.98,4.05,0.71,4.88,3.12,5.05
		c0.68,0.09,1.4,0.14,2.15,0.22c3.86,0.35,4.39-1.76,4.04-4.57C292.29,134.15,293.4,130.39,291.29,128.79z M294.62,100.28
		c1.21-0.05,2.14-0.42,2.82-1.21c1.46-1.61,1.76-5.29,1.07-12.14c-0.01-0.12-0.02-0.23-0.03-0.35c-3.34,1.23-8.25-2.99-8.95,3.86
		C288.83,97.3,290.59,100.28,294.62,100.28z M267.94,101.51c0.34,0.51,0.8,0.9,1.33,1.18c2.14,1.31,5.66,0.43,5.52-1.88
		c-0.35-3.86-2.11-7.73-3.86-11.24c-0.35-0.53-4.74,1.05-7.73,1.93l0,0l0,0C265.13,95.54,266.18,98.7,267.94,101.51z M313.94,102.67
		c1.13,1.16,3.21,2.65,3.33,2.53c2.63-2.63,5.26-5.61,8.94-9.82l0.01-0.01l0,0l0,0l0,0c-3.86-1.58-7.72-3.69-8.25-3.16
		c-2.28,2.46-3.86,5.8-4.92,9.13C313,101.62,313.39,102.13,313.94,102.67z M271.1,125.75c-2.63-1.58-4.04-2.81-5.62-3.16
		c-2.11-0.53-8.08,6.5-7.2,9.13c0.32,1.18,1.55,2.03,2.86,2.83c0.81,0.52,1.67,1.03,2.4,1.56
		C265.83,133.13,268.11,129.96,271.1,125.75z M311.14,126.4c-0.13,0.01-0.26,0.01-0.36,0.05c-1.4,0.53-2.98,2.63-2.98,4.04
		c0,2.81,1.05,5.62,1.76,8.96c3.34-0.88,5.97-1.58,9.13-2.46c-1.23-3.34-1.93-6.15-3.51-8.61
		C314.5,127.22,312.27,126.07,311.14,126.4z M304.11,134c-0.18-0.7,0-1.58-0.35-1.93c-1.23-1.4-2.63-2.64-3.86-3.86
		c-0.02,0.03-0.05,0.06-0.08,0.09c-0.03-0.03-0.07-0.06-0.1-0.09c-1.23,1.41-3.34,2.81-3.51,4.57c-0.35,2.81,0.35,5.62,0.7,8.43
		c4.77,0.4,6.95,0.4,7.63-1.01C305.12,139.15,304.8,137.27,304.11,134z M236.72,88.24c-0.01-0.3-0.02-0.62-0.04-0.95
		c-0.18-1.41-1.76-2.81-2.63-4.04c-1.23,1.23-3.16,2.46-3.51,3.86c-0.53,2.28,0,4.92,0.17,7.9
		C235.16,94.69,236.82,92.81,236.72,88.24z M220.35,107.66c-2.98,3.51-5.09,5.62-6.85,8.08c-0.53,0.88-0.53,2.63,0,3.69
		c0.34,0.85,2.65,1.53,2.95,1.25c0.11,0.01,0.19,0.01,0.21-0.02c1.76-2.28,3.51-4.57,4.74-7.2
		C221.76,112.23,220.88,110.47,220.35,107.66z M217.86,103.22c0.02-0.65-0.02-1.34-0.14-2.06c-0.09-0.7-0.04-1.54,0.11-2.34
		c0.18-0.68,0.45-1.33,0.77-1.88c3.69-5.44,0-10.36-0.35-15.98c-4.62,1.1-8.07,3.1-10.47,6.03c-0.9,1.08-1.64,2.29-2.24,3.64
		c-0.06,0.14-0.12,0.27-0.18,0.41c-0.01,0.02-0.01,0.03-0.02,0.05c-0.29,0.69-0.55,1.41-0.78,2.16c-1.79,5.98-2.43,12.09,0.35,17.68
		c0.48,1.03,1.06,2.04,1.76,3.05c1.58,2.28,3.51,2.11,5.44,0C214.89,110.73,217.81,107.74,217.86,103.22z M231.24,124.35
		c0,0.43,3.87,1.45,5.57,1.42c0.4,0,0.68-0.05,0.75-0.19c1.93-3.16,2.81-6.85,4.21-10.89c-3.34-0.88-5.62-1.4-9.31-2.28
		C231.94,116.79,231.06,120.48,231.24,124.35z M244.23,86.06c-3.34-1.41-4.92-0.88-5.79,2.81c-1.76,7.9-1.76,8.08,6.5,9.48
		C249.15,88.69,248.97,87.81,244.23,86.06z M310.25,88.52c-2.28,0.35-6.32,0.18-6.67,1.05c-0.88,3.34-0.7,6.85-0.53,10.36
		c0,0.07,0.07,0.14,0.19,0.22c0.2,0.53,4.2,1.35,4.37,1.01c1.58-3.51,2.98-7.2,4.39-10.89l0,0l0,0
		C311.48,89.75,310.95,89.22,310.25,88.52z M226.85,111.35c-1.76,2.98-3.69,5.97-5.97,9.66c2.11,1.05,4.57,2.46,4.57,2.28
		c0.82-1.31,1.6-2.66,2.32-4.03c0.7-1.26,1.35-2.55,1.87-3.9c0.12-0.28,0.26-0.56,0.37-0.85c0.01-0.04,0.01-0.09-0.01-0.15
		c0-0.01,0.01-0.02,0.01-0.03C230.18,113.81,227.9,112.4,226.85,111.35z M221.81,86.37c0.86,2.36,1.97,4.66,3.11,7.06
		c1.23-2.46,2.46-4.92,4.04-8.25c-1.93-1.58-3.16-3.16-4.74-3.34c-0.88-0.18-3.16,2.11-2.99,2.81
		C221.4,85.23,221.6,85.8,221.81,86.37z M277.94,106.96c0.7,4.21,2.81,5.97,7.9,3.34c-2.28-2.63,0.18-7.9-5.62-7.9
		c-2.06,0-2.53,1.17-2.51,2.59C277.72,105.61,277.83,106.29,277.94,106.96z M277.24,120.31c-0.26,1.04,0.06,2.83,0.45,3.77
		c0.13,0.37,0.28,0.62,0.43,0.62c0.01,0,0.02,0,0.03,0c5.75,1.2,4.89-4.05,6.81-7.21C280.58,114.86,277.77,115.74,277.24,120.31z
		 M287.04,120.79c-0.4,1.5-0.79,2.95-1.19,4.43c1.58,0.32,2.75,0.53,3.66,0.56c2.63,0.1,2.93-1.47,3.72-7.41
		c-1.58-0.35-2.99-0.7-5.27-1.23C287.64,118.39,287.33,119.6,287.04,120.79z M310.43,121.53c0-1.23-1.23-3.69-1.93-3.69
		c-5.27-0.18-3.16,4.74-5.44,7.55c1.1,0.18,2.1,0.29,2.99,0.28C308.74,125.69,310.43,124.7,310.43,121.53z M295.14,110.63
		c-2.09-3.16-0.01-9.09-6.97-7.55c-0.02,0-0.03,0-0.04,0.01l0,0l0,0c0,2.46,0.18,4.92,0.35,7.9c2.28-0.18,4.04-0.18,6.67-0.35l0,0
		l0,0C295.15,110.64,295.15,110.64,295.14,110.63z M305.16,105.9c1.58,2.64-1.58,8.61,5.44,7.2c0.35-1.72,0.55-3.1,0.56-4.18
		C311.19,105.64,309.51,104.98,305.16,105.9z M302.35,110.29c-0.53-7.02-0.53-7.02-5.79-6.32
		C296.73,111,296.91,111.17,302.35,110.29z M297.15,125.87c3.78,0.1,4.26-1.26,3.8-6.8c-2.56-0.54-3.92-0.06-4.65,0.99
		c-1.02,1.29-0.96,3.49-0.96,5.68C296.01,125.82,296.61,125.86,297.15,125.87z M314.29,108.19c1.05,3.16-0.88,7.38,5.09,6.32
		C319.38,111.35,320.08,108.01,314.29,108.19z M313.76,123.47c5.09,0.88,4.57-2.81,5.09-6.15
		C312.89,116.44,314.11,120.31,313.76,123.47z M345.49,34.1c1.21-0.04,2.77-0.4,4.37-0.53c0.08-0.01,0.17-0.02,0.25-0.02l0,0l0,0
		c0-0.01-0.01-0.02-0.01-0.03c-2.26-4.53-2.63-9.39-8.5-8.07l0,0l0,0c-0.59,1.04-0.82,2.01-0.78,2.93c0.08,2.11,1.53,3.89,2.98,5.34
		C344.12,34.05,344.72,34.13,345.49,34.1z M341.6,25.45L341.6,25.45c-0.03,0.01-0.06,0.01-0.09,0.02l0,0l0,0l0,0l0,0l0,0l0,0
		l0.17-0.17c-4.57-0.18-10.18-7.9-7.73-11.42c1.23-1.76,4.39-2.46,6.67-2.81l0,0l0,0h0.01c1.05-0.17,2.8,1.76,3.15,2.99
		c0.26,1.01,0.6,2.05,0.88,3.09c0.81,3.09,1.04,6.15-3.04,8.26C341.61,25.42,341.61,25.43,341.6,25.45L341.6,25.45z M341.68,25.29
		L341.68,25.29L341.68,25.29L341.68,25.29z M399.89,44.48c4.8-5.76,6.92-12.5,5.7-18.32c-1.93-8.78-8.08-13.52-16.33-15.98
		c-2.55-0.67-4.49-0.31-5.57,1.39c-0.05,0.07-0.09,0.16-0.14,0.24c-0.03,0.05-0.05,0.1-0.08,0.14c-0.28,0.49-0.53,1.06-0.71,1.74
		c-0.7,2.99-3.16,6.32,1.58,8.96c6.15,3.16,7.2,7.03,4.39,13.7c-0.53,1.23-0.7,2.99-0.18,4.04c0.74,1.07,1.53,2.16,2.35,3.26
		c1.24,1.86,2.57,3.74,3.98,5.7l0,0l0,0C396.79,47.85,398.46,46.21,399.89,44.48z M273.83,67.13c0.17,0.25,0.34,0.5,0.53,0.75
		c2.86,3.85,6.95,6.53,12.19,6.59c0,0,0,0,0.01,0l0,0l0,0c0.02-0.15,0.05-0.3,0.07-0.46c0.62-3.76,1.54-7.45,0.77-11.05
		c-0.31-1.65-0.94-3.26-2.08-4.83c-0.88-1.23-1.4-2.99-1.23-4.39c0.7-5.62-3.51-8.08-6.67-11.24c-0.93-0.93-1.79-1.31-2.6-1.25
		c-1.11-0.04-2.06,0.75-3.02,2.13c-3.75,5.52-2.99,16.24,1.88,23.53C273.73,66.98,273.78,67.05,273.83,67.13z M337.64,47.95
		c-0.05-0.01-0.1,0.01-0.15,0.01c-0.01,0-0.01,0-0.02-0.01c-2.28-0.35-6.5,6.67-5.62,10.19c0.53,1.58,3.34,2.46,5.09,3.69
		c0.02-0.03,0.04-0.05,0.05-0.08c0.04,0.03,0.08,0.05,0.12,0.08c0.44-0.8,0.91-1.59,1.39-2.4c1.55-2.42,3.13-4.98,5.1-8.14
		c-0.4-0.22-0.77-0.44-1.12-0.66C340.36,49.33,339,48.25,337.64,47.95z M305.02,67.47c0-0.07-0.01-0.14-0.04-0.21
		c-0.88-2.81,0-7.55-4.92-7.55c-1.05,0-1.93,2.28-3.51,4.21c1.93,2.99,3.69,5.27,5.44,7.73C302.99,70.34,305.06,68.56,305.02,67.47z
		 M292.34,44.61c4.22-2.5,3.69-5.11,2.42-7.51c-0.39-0.8-0.84-1.58-1.19-2.32c-0.7-1.23-3.16-1.58-4.74-2.46
		c0,0.02-0.01,0.05-0.02,0.07c-0.05-0.02-0.11-0.05-0.16-0.07c-0.18,1.76-1.23,3.69-0.7,5.27
		C288.83,39.87,290.59,41.97,292.34,44.61z M353.94,23.66c-0.77,0-1.73,0.22-2.95,0.75c0.35,7.73,1.58,8.78,7.38,5.97
		C357.08,27.96,357.3,23.67,353.94,23.66z M354.32,46.19c5.79,0,6.32-1.05,4.92-7.88c0-0.01,0-0.01,0-0.02
		c-4.15-0.12-5.41-0.15-5.44,2.55C353.77,42,353.99,43.7,354.32,46.19z M368.37,23.01c0.97,5.09,1.52,6.83,3.5,6.9
		c0.87,0.04,2.04-0.26,3.69-0.76l0,0l0,0C373.64,21.25,373.64,21.25,368.37,23.01L368.37,23.01L368.37,23.01L368.37,23.01z
		 M366.44,28.8c-1.41-3.16-0.88-8.43-7.38-5.8C360.12,26.7,359.77,31.26,366.44,28.8z M368.02,37.94c-1.58,0-3.16,0.18-5.09,0.18
		c0.17,2.46,0.17,4.57,0.35,6.67c4.14,0,4.92,0,4.87-3.69C368.14,40.25,368.09,39.22,368.02,37.94z M383.29,29.32
		c-0.7-6.28-1.05-6.49-5.54-4.59c-0.03,0.01-0.05,0.02-0.08,0.03l0,0l0,0c0.44,0.54,0.68,1.29,0.9,2.05
		c0.16,0.56,0.32,1.13,0.56,1.62C379.7,29.61,380.7,30.31,383.29,29.32C383.3,29.33,383.3,29.33,383.29,29.32L383.29,29.32
		C383.29,29.33,383.29,29.33,383.29,29.32z M354.5,56.38c-0.35-3.34,0.35-7.9-5.62-7.55c-6.15,0.53-4.21,5.62-4.74,9.13
		c-0.7,5.8,3.69,4.74,6.85,4.92c1.87,0.13,2.8-0.35,3.24-1.15C355.06,60.42,354.5,58.26,354.5,56.38z M361.52,49
		c-0.27-0.02-0.53-0.03-0.78-0.02c-2.87,0-4.12,1.92-4.14,5.21c-0.01,0.78,0.05,1.63,0.18,2.54v0.01c0.82,1.5-0.84,5.8,3.57,5.82
		c0.3,0.01,0.63,0,0.99-0.03c0.05-0.01,0.1-0.01,0.15-0.02c1.34-0.07,3.03-0.07,4.1-0.72c1-0.51,1.57-1.48,1.01-3.48
		C365.56,54.97,367.32,49.35,361.52,49z M346.25,12.65c0.18,6.67,2.11,9.66,6.15,9.13c2.52-0.33,3.68-1.41,3.67-4.71
		c0-1.38-0.21-3.17-0.61-5.44c-0.17-0.97-0.37-2.03-0.6-3.19c-0.91-0.02-1.71-0.03-2.44-0.03c-5.28-0.01-6.21,0.57-6.18,3.45
		C346.23,12.1,346.23,12.36,346.25,12.65z M330.26,30.72c1.42-1.92,2.81-3.48,3.34-4.38c0.23-0.33,0.36-0.57,0.36-0.7
		c-2.11-3.51-4.57-6.67-7.02-9.84c-0.03,0.03-0.07,0.06-0.11,0.09c-0.02-0.03-0.04-0.06-0.07-0.09c-0.34,0.34-0.76,0.71-1.2,1.09
		c-0.88,0.69-1.83,1.45-2.49,2.07c-0.66,0.58-1.11,1.04-1.04,1.24c1.76,3.51,4.39,6.67,7.73,11.24
		C329.92,31.19,330.09,30.96,330.26,30.72z M383.75,41.61c-0.6,0.02-1.21,0.2-1.86,0.54c-5.97,3.16-1.41,7.03,0,9.84
		c2.81,5.97,5.97,0.18,9.48-0.18C388.51,44.37,386.35,41.48,383.75,41.61z M309.2,68.32c0.18,0.35,5.79-1.58,5.79-2.46
		c0-3.16-0.7-6.85-2.46-9.31c-0.88-1.23-4.92,0-9.13,0.18C305.69,61.65,307.09,65.16,309.2,68.32z M375.22,21.43
		c6.67-0.53,4.21-7.2,5.79-11.59l0,0l0,0c0,0,0,0-0.01,0c-2.92,0.13-6.92-3.01-8.65-0.17c-0.46,0.71-0.76,1.82-0.83,3.51
		c-0.07,1.34-0.31,2.88-0.3,4.26C371.22,19.75,371.87,21.65,375.22,21.43z M294.45,33.55c1.92,2.8,3.85,5.43,5.78,8.23
		c0,0.01,0.01,0.01,0.01,0.02c1.54-1.38,5.49-0.48,5.63-3.06c0.02-0.37-0.04-0.81-0.19-1.33l0,0c-0.66-2.8,0.54-7.6-3.65-8.19
		c-0.28-0.04-0.58-0.06-0.91-0.06C299.19,28.98,294.8,28.1,294.45,33.55L294.45,33.55L294.45,33.55L294.45,33.55z M359.76,12.58
		c0,0.11-0.02,0.22-0.03,0.33c-0.02,0.22-0.06,0.42-0.14,0.61l0,0l0,0c0.04,0.22,0.07,0.44,0.09,0.67c0.26,2.78-0.58,6.51,4.13,6.18
		c3.74-0.6,4-3.12,3.96-5.71c-0.01-0.5-0.02-1-0.03-1.5c-0.01-0.67,0.01-1.32,0.1-1.91c0.04-0.3,0.06-0.57,0.06-0.83
		c0.16-3.1-2.17-3.56-4.81-3.56c-2.91,0-3.56,1.11-3.6,2.5C359.47,10.37,359.78,11.57,359.76,12.58z M373.46,46.54
		c-0.35-0.35-4.21,1.23-4.21,1.76c0,0.05,0.01,0.09,0.01,0.14c0,0.01-0.01,0.03-0.01,0.04c0.35,3.51,0.7,7.2,2.28,10.19
		c0.33,0.44,2.06,0.26,3.95,0.02c1.13-0.13,2.3-0.3,3.23-0.37c0.01,0,0.02,0,0.03,0c0.35-0.7,0.7-1.41,1.05-1.93
		c-0.02-0.03-0.04-0.06-0.06-0.09c0.02-0.03,0.04-0.06,0.06-0.09C377.68,52.86,375.74,49.53,373.46,46.54z M285.31,47.06
		C285.31,47.06,285.32,47.06,285.31,47.06C285.32,47.07,285.32,47.07,285.31,47.06c0.01,0.01,0.01,0.01,0.01,0.01
		c2.2-2.78,0.73-8.73-1.86-10.73c-0.46-0.38-0.96-0.63-1.48-0.69c-0.04,0-0.08,0.01-0.12,0.01c-0.02,0-0.04-0.01-0.06-0.01
		c-1.05,0-2.63,0.88-3.34,1.76c-0.35,0.7-0.18,2.46,0.35,3.16C280.75,42.85,283.03,44.95,285.31,47.06z M295.15,66.21
		c-0.02-0.1-0.06-0.2-0.09-0.3c-0.38-1.57-1.76-3.01-2.72-4.45c-0.38,0.19-0.71,0.38-1.04,0.6c-0.29,0.15-0.59,0.3-0.89,0.45
		c-0.35,2.81-0.88,5.8-0.7,8.61c0,0.02,0,0.03,0.01,0.05c0,0.04-0.01,0.09-0.01,0.13c0.18,3.16,2.81,3.86,4.57,1.93
		c0.79-1.01,1.07-2.6,1.08-4.22C295.37,68.06,295.29,67.08,295.15,66.21z M346.07,47.77c0.04,0,0.08-0.01,0.12-0.01
		c5.98-0.42,3.75-5.45,4.79-8.59l0,0l0,0l0,0h-0.01c-3.07-1.14-4.78-0.74-5.74,0.45c-1.04,1.16-1.27,3.12-1.27,5.18l0,0l0,0
		C343.96,45.84,345.37,47.77,346.07,47.77z M372.23,42.68c5.97,0.18,5.09-3.86,4.74-8.08C371.18,34.25,370.3,35.83,372.23,42.68z
		 M382.59,39.34c0.88-2.11,1.76-4.22,2.63-6.5c-7.37-0.7-4.04,3.34-4.39,5.8C381.36,38.81,382.07,39.17,382.59,39.34z M285.14,50.58
		c1.05,2.81,2.11,5.62,3.16,8.43c0.03-0.01,0.06-0.02,0.1-0.04c0.03,0.07,0.05,0.14,0.08,0.21c0.88-0.35,1.58-0.53,2.46-0.88
		c-0.59-1.44-1.14-2.83-1.65-4.18c-0.48-1.38-0.97-2.79-1.49-4.19c-0.01-0.02-0.01-0.04-0.02-0.06l0,0l0,0
		C286.9,50.05,286.02,50.41,285.14,50.58z"/>
	<path fill="#00FF8D" d="M521.82,94.84c-3.16,5.44-8.6,9.13-4.21,16.51c2.46,4.04,0.7,8.78-3.86,11.42
		c-0.84,0.47-1.43,0.97-1.84,1.5c-1.87,2.34-0.08,5.01,0.79,7.45c0.73,2.33,2.16,3.29,4.02,3.29c0.82,0.02,1.71-0.15,2.65-0.48
		c9.66-3.16,15.28-11.59,14.22-21.78C532.71,105.2,528.49,99.93,521.82,94.84z M479.5,87.11c-0.35-1.05-5.79-0.88-8.78-1.23l0,0l0,0
		c0,0,0,0,0,0.01c-0.42,0.42-0.94,0.94-1.4,1.4c-0.16,0.12-0.33,0.23-0.53,0.35c1.41,4.04,2.63,8.08,4.57,11.77
		c0.09,0.14,0.5,0.19,1.05,0.18c1.51,0.02,4.43-0.52,4.57-1.06C479.68,94.84,480.38,90.8,479.5,87.11z M472.3,124.87
		c-0.18-0.53-5.44-0.7-5.97,0.18c-1.39,2.94-2.78,6.29-2.73,9.33c0,0.47,0.03,0.93,0.1,1.38c0.35,1.58,5.62,2.28,8.6,3.34
		c0.7-0.35,1.23-0.88,1.93-1.23c-0.01-0.05-0.01-0.11-0.02-0.16c0.01,0,0.01-0.01,0.02-0.01
		C473.71,133.48,473.36,129.09,472.3,124.87z M484.42,127.56c-0.68-0.58-1.73-0.94-3.34-0.94c-4.92,0-4.32,3.91-4.45,7.01
		c-0.02,0.44-0.05,0.86-0.12,1.25c-0.39,1.58-0.35,2.65-0.01,3.38c0.04,0.08,0.08,0.15,0.13,0.22c0.03,0.04,0.05,0.09,0.08,0.14
		c0.9,1.29,2.94,1.3,5.06,1.53c3.86,0.35,4.39-1.76,4.04-4.57C485.42,132.92,486.53,129.16,484.42,127.56z M487.76,99.05
		c0.57-0.05,1.07-0.18,1.53-0.37c2.02-0.66,2.87-3.05,2.7-8.3c-0.04-1.45-0.17-3.12-0.37-5.03c-0.08,0.03-0.17,0.06-0.25,0.08
		c-0.02,0.01-0.04,0.01-0.07,0.02c-0.01,0-0.01,0-0.02,0c-0.53,0.14-1.1,0.16-1.68,0.12c-0.02,0-0.05,0-0.07-0.01
		c-0.09-0.01-0.19-0.01-0.28-0.02c-0.06-0.01-0.11-0.01-0.17-0.02c-0.06-0.01-0.12-0.01-0.19-0.02c-0.04-0.01-0.09-0.01-0.13-0.02
		c-2.24-0.29-4.51-0.99-5.47,1.23c-0.3,0.6-0.52,1.4-0.63,2.5C481.96,96.07,483.72,99.05,487.76,99.05z M507.08,101.45
		c1.14,1.16,3.21,2.64,3.33,2.52c2.63-2.64,5.27-5.62,8.96-9.84l0,0l0,0c-3.86-1.58-7.73-3.69-8.25-3.16
		c-2.28,2.46-3.86,5.8-4.92,9.13C506.13,100.39,506.52,100.9,507.08,101.45z M424.35,121.54c-0.01,0.47,0,0.94,0.02,1.4
		c0,0.43,3.87,1.45,5.57,1.42c0.4,0,0.68-0.05,0.75-0.19c1.93-3.16,2.81-6.85,4.21-10.89c-3.34-0.7-5.62-1.41-9.31-2.28
		C425.14,114.85,424.4,118.17,424.35,121.54z M504.27,125.17c-0.13,0.01-0.26,0.01-0.36,0.05c-1.4,0.53-2.98,2.64-2.98,4.04
		c0,2.81,1.05,5.62,1.76,8.96c3.34-0.88,5.97-1.58,9.13-2.46c-1.23-3.34-1.93-6.15-3.51-8.61
		C507.63,125.99,505.4,124.84,504.27,125.17z M496.89,130.84c-1.23-1.41-2.63-2.63-3.86-3.86c-0.02,0.03-0.05,0.06-0.08,0.09
		c-0.03-0.03-0.07-0.06-0.1-0.09c-1.23,1.41-3.34,2.81-3.51,4.57c-0.35,2.81,0.35,5.62,0.7,8.43c1.58,0.1,2.88,0.17,3.93,0.16
		c4.56-0.01,4.55-1.37,3.27-7.36C497.06,132.07,497.24,131.19,496.89,130.84z M413.48,106.25c-2.99,3.69-5.09,5.62-6.85,8.08
		c-0.53,0.88-0.53,2.64,0,3.69c0.34,0.85,2.65,1.53,2.95,1.25c0.11,0.01,0.19,0.01,0.21-0.02c1.76-2.28,3.51-4.57,4.74-7.2
		C414.89,110.82,414.01,109.06,413.48,106.25z M478.98,123.82c1.58,0.32,2.75,0.53,3.66,0.56c2.63,0.1,2.93-1.47,3.72-7.41
		c-1.58-0.35-2.98-0.7-5.27-1.23C480.38,118.72,479.68,121.18,478.98,123.82z M481.26,101.69c0,2.63,0.17,4.91,0.35,7.89v0.01
		c2.28,0,4.04-0.18,6.67-0.35C486.17,106.08,488.28,100.11,481.26,101.69z M507.42,106.96c1.05,2.99-0.88,7.38,5.09,6.32
		c0-0.6,0.03-1.21,0.03-1.8C512.55,108.89,512.15,106.81,507.42,106.96z M410.99,101.99c0.02-0.65-0.02-1.34-0.14-2.06
		c-0.09-0.7-0.04-1.54,0.11-2.33c0.18-0.68,0.45-1.34,0.77-1.89c3.69-5.44,0-10.36-0.35-15.98c-6.36,1.52-10.63,4.73-12.81,9.87
		c-0.02,0.05-0.04,0.1-0.06,0.14c-0.03,0.07-0.06,0.14-0.08,0.21c-0.28,0.66-0.53,1.35-0.74,2.07c-1.79,5.98-2.43,12.09,0.35,17.68
		c0.48,1.03,1.06,2.04,1.76,3.04c1.58,2.28,3.51,2.11,5.44,0C408.02,109.5,410.94,106.51,410.99,101.99z M456.49,90.44
		c1.83,3.87,2.88,6.94,4.58,9.67c0.34,0.51,0.81,0.9,1.33,1.18c2.14,1.31,5.66,0.43,5.52-1.88c-0.35-3.86-2.11-7.73-3.86-11.24
		c-0.35-0.53-4.74,1.05-7.72,1.93l0,0l0,0l0,0C456.38,90.21,456.43,90.32,456.49,90.44z M464.23,124.52
		c-2.63-1.58-3.86-2.99-5.62-3.16c-2.11-0.53-8.08,6.5-7.2,9.13c0.32,1.17,1.55,2.02,2.86,2.83c0.81,0.52,1.68,1.03,2.41,1.57
		C458.96,131.72,461.24,128.74,464.23,124.52z M437.36,84.65c-1.04-0.44-1.91-0.69-2.65-0.71c-1.61-0.05-2.55,0.99-3.15,3.52
		c-1.76,7.9-1.76,8.08,6.5,9.48C442.28,87.29,442.1,86.58,437.36,84.65z M503.83,87.73c-0.09-0.09-0.18-0.18-0.27-0.27l0,0
		c-0.06-0.06-0.11-0.11-0.18-0.18c-2.28,0.35-6.32,0.18-6.67,1.05c-0.88,3.34-0.7,6.85-0.53,10.36c0,0.07,0.07,0.14,0.2,0.22
		c0.21,0.53,4.2,1.35,4.37,1.01c0.84-1.96,1.63-3.91,2.39-5.84c0.69-1.65,1.34-3.32,1.99-5.04v-0.01l0,0l0,0
		C504.73,88.63,504.32,88.22,503.83,87.73z M419.98,109.94c-1.76,2.99-3.69,5.97-5.97,9.66c0.13,0.07,0.26,0.13,0.4,0.2
		c2.01,1.02,4.17,2.25,4.17,2.08c0.82-1.31,1.59-2.66,2.32-4.03c0.71-1.26,1.35-2.56,1.88-3.91c0.12-0.28,0.26-0.56,0.37-0.84
		c0.01-0.04,0.01-0.09-0.01-0.15c0-0.01,0.01-0.02,0.01-0.03C423.32,112.4,421.03,111,419.98,109.94z M429.81,85.88
		c-0.18-1.4-1.76-2.81-2.63-4.04c-1.23,1.23-3.16,2.46-3.51,3.86c-0.2,0.86-0.25,1.77-0.22,2.72c0.03,1.65,0.29,3.38,0.4,5.18
		C428.58,93.26,430.16,91.15,429.81,85.88z M414.94,84.96c0.86,2.36,1.97,4.66,3.11,7.06c1.23-2.46,2.46-4.92,4.04-8.25
		c-1.93-1.41-3.16-2.99-4.74-3.34c-0.88-0.18-3.16,2.11-2.98,2.81C414.53,83.82,414.73,84.39,414.94,84.96z M471.08,105.73
		c0.7,4.22,2.81,5.97,7.9,3.34c-2.28-2.63,0.17-7.9-5.62-7.9c-2.06,0-2.53,1.17-2.51,2.59
		C470.85,104.38,470.96,105.06,471.08,105.73z M470.37,118.9c-0.26,1.04,0.06,2.84,0.45,3.79c0.13,0.36,0.28,0.6,0.42,0.6l0,0
		c5.8,1.23,4.92-4.04,6.85-7.2C473.71,113.46,470.9,114.33,470.37,118.9z M503.56,120.13c0-1.23-1.23-3.69-1.93-3.69
		c-5.27-0.18-3.16,4.74-5.44,7.55C500.57,124.87,503.56,124.34,503.56,120.13z M498.29,104.5c1.58,2.64-1.58,8.61,5.44,7.2
		c0.35-1.72,0.55-3.1,0.56-4.18C504.32,104.24,502.64,103.58,498.29,104.5z M495.48,108.89c-0.53-7.03-0.53-7.03-5.79-6.32
		C489.86,109.59,490.04,109.94,495.48,108.89z M490.28,124.64c3.78,0.1,4.26-1.26,3.8-6.8c-5.79-1.23-5.62,2.63-5.62,6.67
		C489.14,124.59,489.74,124.63,490.28,124.64z M506.89,122.06c5.09,0.88,4.57-2.63,5.09-6.15
		C506.02,115.04,507.24,118.9,506.89,122.06z M538.62,32.69c1.26-0.05,2.91-0.43,4.57-0.55c0.01,0,0.03,0,0.04,0l0,0l0,0
		c-0.07-0.14-0.14-0.28-0.2-0.43c-1.84-3.87-2.46-7.72-6.45-7.84c-0.55-0.02-1.17,0.04-1.86,0.18l0,0l0,0
		c-1.95,3.44,0.12,6.19,2.19,8.27C537.25,32.65,537.85,32.73,538.62,32.69z M530.77,46.72c-0.05-0.01-0.1,0.01-0.14,0.01
		c-0.01,0-0.02,0-0.03-0.01c-2.28-0.35-6.5,6.67-5.62,10.19c0.53,1.58,3.34,2.46,5.09,3.69c0.02-0.03,0.04-0.05,0.05-0.08
		c0.04,0.03,0.08,0.05,0.12,0.08c0.44-0.79,0.9-1.58,1.38-2.38c1.56-2.42,3.14-4.99,5.12-8.16c-2.56-1.6-4.1-2.9-5.69-3.25
		C530.96,46.77,530.87,46.74,530.77,46.72z M584.5,50.4c-2.44-6.23-4.38-9.31-6.51-10.01c-0.95-0.34-1.91-0.19-2.97,0.36
		c-2.24,1.19-3,2.47-2.99,3.76c0,2.15,2.12,4.32,2.99,6.08C577.83,56.55,580.99,50.76,584.5,50.4C584.5,50.41,584.5,50.4,584.5,50.4
		L584.5,50.4L584.5,50.4z M498.15,66.07c0-0.07-0.01-0.14-0.04-0.21c-0.88-2.81,0-7.55-4.92-7.55c-1.05,0-1.93,2.28-3.51,4.22
		c1.93,2.99,3.69,5.44,5.44,7.73C496.12,68.93,498.19,67.15,498.15,66.07z M485.47,43.2c1.78-1,2.69-2.05,3.07-3.12
		c0.62-1.57,0.04-3.13-0.77-4.62c-0.36-0.73-0.75-1.43-1.07-2.1c-0.7-1.23-3.16-1.58-4.74-2.46c0,0.02-0.01,0.05-0.02,0.07
		c-0.05-0.02-0.11-0.05-0.16-0.07c-0.18,1.76-1.23,3.69-0.7,5.27C481.96,38.64,483.72,40.57,485.47,43.2z M559.57,27.57
		L559.57,27.57L559.57,27.57c-1.4-3.34-0.88-8.61-7.38-5.8l0,0l0,0C553.25,25.29,552.9,29.86,559.57,27.57z M598.72,24.76
		c-1.93-8.78-8.08-13.52-16.33-15.98c-2.55-0.67-4.49-0.31-5.57,1.39c-0.05,0.07-0.09,0.16-0.14,0.24c-0.03,0.05-0.05,0.1-0.08,0.15
		c-0.28,0.49-0.53,1.05-0.71,1.74c-0.7,2.99-3.16,6.32,1.58,8.96c6.15,3.16,7.2,7.03,4.39,13.7c-0.53,1.23-0.7,2.99-0.17,4.04
		c0.85,1.24,1.78,2.52,2.73,3.83c1.13,1.67,2.33,3.37,3.6,5.12C596.27,41.45,600.3,32.32,598.72,24.76z M479.68,73.24
		c0.13-0.81,0.27-1.61,0.4-2.41c0.86-4.9,1.69-9.54-1.63-13.92c-0.88-1.23-1.41-2.99-1.23-4.39c0.7-5.62-3.34-8.08-6.67-11.24
		c-0.92-0.92-1.78-1.31-2.59-1.25c-1.04,0.04-1.95,0.82-2.86,2.13C458.96,50.93,464.58,72.89,479.68,73.24z M547.63,55.15
		L547.63,55.15c0-0.03,0-0.06-0.01-0.08c-0.33-3.33,0.31-7.99-5.6-7.47h-0.01c-4.22,0.36-4.63,2.88-4.65,5.56
		c0,0.49,0.01,0.98,0.01,1.47c0,0.73-0.01,1.44-0.11,2.1c-0.04,0.36-0.07,0.7-0.07,1.01c-0.09,4.66,3.96,3.74,6.92,3.91
		C549.03,61.82,547.63,58.13,547.63,55.15L547.63,55.15z M554.65,47.59c-0.28-0.02-0.55-0.03-0.8-0.02
		c-3.54,0.02-4.61,3.1-3.94,7.75c0.83,1.49-0.84,5.81,3.57,5.83c0.3,0.01,0.63,0,0.99-0.03c0.05-0.01,0.1-0.01,0.15-0.02
		c1.34-0.07,3.03-0.07,4.1-0.72c1-0.51,1.57-1.48,1.01-3.48C558.69,53.57,560.45,47.95,554.65,47.59z M539.38,11.24
		c0.17,6.67,2.11,9.66,6.14,9.13c2.53-0.33,3.68-1.41,3.67-4.71c0-1.38-0.21-3.17-0.61-5.44c-0.17-0.97-0.37-2.03-0.6-3.19
		C547.07,7.01,546.27,7,545.54,7c-5.28-0.01-6.21,0.57-6.18,3.45C539.36,10.69,539.36,10.96,539.38,11.24z M523.58,29.06
		c0.08-0.11,0.16-0.22,0.24-0.32c0.13-0.17,0.26-0.34,0.39-0.5c0.19-0.24,0.38-0.48,0.56-0.71c1.31-1.65,2.32-2.81,2.32-3.29
		c-2.11-3.51-4.57-6.67-7.02-9.84c-0.03,0.03-0.07,0.06-0.11,0.09c-0.02-0.03-0.04-0.06-0.07-0.09c-0.34,0.34-0.76,0.71-1.2,1.08
		c-0.88,0.69-1.83,1.45-2.49,2.07c-0.67,0.58-1.11,1.04-1.05,1.24c1.76,3.69,4.39,6.67,7.73,11.24
		C523.11,29.7,523.35,29.38,523.58,29.06z M496.53,55.5L496.53,55.5L496.53,55.5c2.28,4.92,3.69,8.43,5.79,11.59
		c0.18,0.35,5.79-1.58,5.79-2.46l0,0l0,0c0-3.16-0.7-6.85-2.46-9.31c-0.01-0.01-0.01-0.01-0.02-0.02
		C504.74,54.11,500.72,55.15,496.53,55.5C496.54,55.5,496.53,55.5,496.53,55.5z M568.35,20.02c6.26-0.49,4.49-6.39,5.54-10.74
		c0.07-0.29,0.15-0.57,0.25-0.85l0,0l0,0c-0.23,0.02-0.47,0.02-0.71,0.01c-3.64-0.24-8.44-4.24-8.77,3.33
		c-0.07,1.34-0.31,2.88-0.3,4.26C564.35,18.34,565,20.24,568.35,20.02z M498.82,36c-0.7-2.99,0.7-8.25-4.57-8.25
		c-1.93,0-6.32-0.88-6.67,4.39c1.93,2.81,3.86,5.44,5.79,8.25C495.13,38.81,500.05,40.22,498.82,36z M552.89,11.18
		c0,0.14-0.02,0.26-0.04,0.39c-0.03,0.19-0.06,0.38-0.13,0.55l0,0l0,0c0,0,0,0,0,0.01c0.52,2.99-0.88,7.37,4.21,6.84
		c3.74-0.6,4-3.12,3.96-5.71c-0.01-0.5-0.02-1-0.03-1.5c-0.01-0.67,0.01-1.32,0.1-1.91c0.04-0.3,0.06-0.57,0.06-0.83
		c0.16-3.1-2.17-3.56-4.8-3.56c-2.91,0-3.56,1.11-3.6,2.5C552.6,8.97,552.91,10.16,552.89,11.18z M566.59,45.14
		c-0.35-0.35-4.21,1.23-4.21,1.76c0,0.05,0.01,0.09,0.01,0.14c0,0.01-0.01,0.03-0.01,0.04c0.35,3.51,0.7,7.2,2.28,10.19
		c0.48,0.81,3.94-0.02,6.54-0.29c0.2-0.02,0.4-0.04,0.59-0.05c0.02,0,0.05,0,0.07-0.01c0.35-0.7,0.7-1.4,1.05-1.93
		c-0.02-0.03-0.04-0.06-0.05-0.08c0.02-0.03,0.03-0.06,0.05-0.09C570.81,51.46,568.88,48.12,566.59,45.14z M478.45,45.66
		c2.05-2.46,0.9-7.89-1.36-10.26c-0.1-0.11-0.19-0.21-0.3-0.31l-0.01-0.01c-0.51-0.47-1.08-0.78-1.67-0.84
		c-0.04,0-0.08,0.01-0.12,0.01c-0.02,0-0.04-0.01-0.06-0.01c-1.05,0-2.63,0.88-3.34,1.76c-0.35,0.7-0.17,2.46,0.35,3.16
		C473.88,41.45,476.17,43.56,478.45,45.66z M488.28,64.81c-0.02-0.1-0.06-0.2-0.09-0.3c-0.38-1.57-1.76-3.01-2.72-4.44
		c-0.53,0.27-0.97,0.54-1.46,0.88c-0.16,0.07-0.32,0.13-0.47,0.17c-0.35,2.81-0.88,5.8-0.7,8.61c0,0.01,0,0.03,0,0.04
		c0,0.04-0.01,0.09-0.01,0.14c0.18,3.16,2.81,3.86,4.57,1.93c0.79-1.02,1.07-2.61,1.08-4.23C488.5,66.65,488.42,65.68,488.28,64.81z
		 M539.2,46.37c6.15-0.35,3.86-5.27,4.92-8.61c-1.16-0.4-2.12-0.59-2.93-0.61c-3.52-0.1-4.1,2.95-4.1,6.23
		C537.09,44.43,538.5,46.37,539.2,46.37z M534.73,24.05c0.01-0.02,0.02-0.03,0.03-0.05c5.46-2.82,3.21-7.34,2.16-11.35
		c-0.01-0.02-0.02-0.04-0.03-0.07c-0.39-1.23-2.1-3.09-3.13-2.92c-2,0.31-4.67,0.89-6.13,2.21c-0.2,0.18-0.39,0.38-0.54,0.6
		c-2.46,3.51,3.16,11.24,7.72,11.42l0,0l-0.17,0.17l0,0l0,0C534.67,24.05,534.69,24.05,534.73,24.05
		C534.72,24.05,534.72,24.05,534.73,24.05L534.73,24.05z M544.12,23.18L544.12,23.18L544.12,23.18c0.35,7.73,1.58,8.61,7.37,5.97
		l0,0l0,0C549.91,25.99,550.61,20.2,544.12,23.18z M547.45,44.96c5.79,0,6.32-1.05,4.92-7.9C546.4,36.88,546.4,36.88,547.45,44.96z
		 M565.36,41.27c5.97,0.18,5.09-3.86,4.74-8.08C564.31,32.84,563.43,34.42,565.36,41.27z M565.01,28.51
		c0.87,0.04,2.04-0.26,3.69-0.76c-1.93-7.73-1.93-7.73-7.2-6.15C562.47,26.7,563.02,28.44,565.01,28.51z M556.06,36.71
		c0.18,2.46,0.18,4.57,0.35,6.67c5.09,0,5.09,0,4.74-6.85C559.57,36.53,557.99,36.71,556.06,36.71z M575.72,38.11
		c0.88-2.11,1.76-4.39,2.63-6.5c-7.37-0.7-4.04,3.34-4.39,5.8C574.49,37.58,575.2,37.94,575.72,38.11z M570.81,23.36
		c0.37,0.45,0.59,1.05,0.79,1.67c0.35,1.2,0.59,2.53,1.59,3.08c0.01,0.01,0.02,0.01,0.03,0.01c0.11,0.06,0.23,0.12,0.36,0.16
		c0.65,0.21,1.54,0.14,2.85-0.35C575.72,21.78,575.37,21.43,570.81,23.36z M481.43,57.61c0.03-0.01,0.06-0.02,0.1-0.04
		c0.03,0.07,0.05,0.14,0.08,0.21c0.88-0.35,1.58-0.53,2.46-0.88c-0.5-1.21-0.96-2.36-1.4-3.5c-0.57-1.62-1.13-3.27-1.76-4.93
		c-0.88,0.18-1.76,0.53-2.63,0.7C479.33,51.99,480.38,54.8,481.43,57.61z"/>
	<path fill="#00FF8D" d="M724.86,101.86c-3.34,5.27-8.78,8.96-4.21,16.51c0.46,0.76,0.77,1.54,0.95,2.33
		c0.75,3.42-1.1,6.95-4.81,9.09c-0.01,0.01-0.02,0.02-0.04,0.02c-0.82,0.46-1.4,0.96-1.8,1.47c-1.88,2.34-0.08,5.02,0.78,7.46
		c0.74,2.33,2.16,3.29,4.02,3.3c0.82,0.02,1.71-0.15,2.65-0.49c9.66-3.16,15.28-11.59,14.22-21.78
		C735.75,112.05,731.36,106.78,724.86,101.86z M682.02,105.38c0.7-3.69,1.4-7.73,0.53-11.42c-0.12-0.25-0.51-0.41-1.06-0.53
		c-1.69-0.46-5.39-0.42-7.72-0.69c-0.7,0.7-1.23,1.23-1.93,1.76c1.41,4.04,2.63,8.08,4.57,11.77c0.09,0.14,0.5,0.19,1.05,0.18
		C678.97,106.45,681.89,105.92,682.02,105.38z M675.17,131.72c-0.18-0.53-5.44-0.7-5.97,0.17c-1.39,2.94-2.78,6.29-2.73,9.33
		c0,0.47,0.03,0.93,0.1,1.38c0.3,1.35,4.18,2.06,7.17,2.9c0.51,0.14,1,0.29,1.43,0.44c0,0,0,0,0.01,0c0.7-0.35,1.4-0.88,1.93-1.23
		c-0.01-0.05-0.01-0.11-0.02-0.16c0.01,0,0.01-0.01,0.02-0.01C676.58,140.33,676.23,135.94,675.17,131.72z M687.29,134.41
		c-0.68-0.58-1.73-0.94-3.34-0.94c-5.62,0-4.04,5.09-4.56,8.25l0,0c-0.09,0.35-0.14,0.67-0.19,0.98c-0.24,1.62,0.08,2.58,0.73,3.16
		c1.01,0.9,2.84,0.94,4.72,1.13c3.86,0.35,4.39-1.76,4.04-4.57C688.29,139.77,689.4,136.01,687.29,134.41z M690.62,105.9
		c1-0.09,1.8-0.35,2.43-0.84c0.16-0.12,0.31-0.26,0.45-0.42c1.52-1.72,1.71-5.41,0.98-12.44c-0.29,0.11-0.59,0.17-0.9,0.21
		c-2.39,0.27-5.25-1.26-6.8,0.31c-0.63,0.58-1.08,1.61-1.26,3.35C684.83,102.92,686.59,105.9,690.62,105.9z M664.11,107.13
		c0.34,0.51,0.8,0.9,1.33,1.18c2.14,1.31,5.66,0.43,5.52-1.88c-0.35-3.86-2.11-7.73-3.86-11.24c-0.05-0.08-0.2-0.1-0.41-0.1
		c-0.96-0.07-4.68,1.26-7.32,2.03c0.98,2.16,1.8,4.14,2.66,5.97C662.68,104.54,663.32,105.87,664.11,107.13z M709.94,108.29
		c1.13,1.16,3.21,2.65,3.34,2.53c2.63-2.63,5.27-5.62,8.95-9.84c-3.86-1.58-7.73-3.69-8.25-3.16c-2.28,2.46-3.86,5.8-4.92,9.13
		C709,107.24,709.39,107.74,709.94,108.29z M627.24,129.79c0,0.43,3.87,1.45,5.57,1.42c0.4,0,0.68-0.05,0.75-0.19
		c1.93-3.16,2.81-6.85,4.21-10.89c-3.34-0.7-5.62-1.41-9.31-2.28C627.94,122.24,627.06,125.93,627.24,129.79z M640.41,91.5
		c-3.34-1.41-4.92-0.88-5.79,2.81c-1.76,7.9-1.76,8.08,6.5,9.48C645.15,94.14,645.15,93.43,640.41,91.5z M707.14,132.02
		c-0.13,0.01-0.26,0.01-0.36,0.05c-1.4,0.53-2.98,2.63-2.98,4.04c0,2.81,1.05,5.62,1.76,8.96c3.34-0.88,5.97-1.58,9.13-2.46
		c-1.23-3.34-1.93-6.15-3.51-8.61C710.5,132.84,708.27,131.69,707.14,132.02z M699.93,137.69c-1.23-1.4-2.63-2.63-3.86-3.86
		c-0.02,0.03-0.05,0.06-0.08,0.09c-0.03-0.03-0.07-0.06-0.1-0.09c-1.23,1.41-3.34,2.81-3.51,4.57c-0.35,2.81,0.35,5.62,0.7,8.43
		c1.56,0.1,2.84,0.17,3.88,0.16c4.61-0.01,4.61-1.35,3.32-7.36C700.11,138.92,700.28,138.04,699.93,137.69z M617.24,116.87
		c-0.21-1-0.6-2.22-0.89-3.77c-2.13,2.63-3.8,4.36-5.17,6.04c-0.6,0.7-1.16,1.36-1.68,2.04c-0.53,0.88-0.53,2.63,0,3.69
		c0.34,0.85,2.65,1.53,2.95,1.25c0.11,0.01,0.19,0.01,0.21-0.02c1.76-2.28,3.51-4.57,4.74-7.2
		C617.57,118.4,617.46,117.74,617.24,116.87z M683.95,122.59c-0.7,2.99-1.4,5.44-2.11,8.08c1.58,0.32,2.75,0.53,3.66,0.56
		c2.63,0.1,2.93-1.47,3.72-7.41c-0.34-0.08-0.67-0.15-1-0.23C687.16,123.31,685.88,123,683.95,122.59z M684.13,108.54
		c0.18,2.63,0.18,4.92,0.35,7.9c2.28,0,4.04-0.17,6.67-0.35C689.04,112.93,691.15,106.96,684.13,108.54z M704.08,111.04
		c-0.76,0-1.67,0.11-2.74,0.31c1.58,2.64-1.58,8.61,5.44,7.2C707.92,112.97,707.43,111,704.08,111.04z M613.86,108.84
		c0.02-0.65-0.02-1.34-0.14-2.06c-0.09-0.71-0.04-1.54,0.11-2.34c0.18-0.68,0.45-1.33,0.77-1.88c1.16-1.72,1.59-3.38,1.62-5.04
		c0.07-2.9-1.13-5.79-1.71-8.87c-0.04-0.19-0.06-0.38-0.09-0.57c-0.08-0.5-0.14-1-0.18-1.5c-7.38,1.76-11.76,5.8-13.7,12.29
		c-1.79,5.98-2.43,12.09,0.35,17.68c0.48,1.03,1.06,2.04,1.76,3.05c1.58,2.28,3.51,2.11,5.44,0
		C610.89,116.35,613.81,113.36,613.86,108.84z M667.1,131.37c-2.46-1.58-3.86-2.81-5.62-3.16c-2.11-0.53-8.08,6.5-7.2,9.13
		c0.32,1.18,1.55,2.03,2.86,2.83c0.81,0.52,1.67,1.03,2.4,1.56C661.83,138.57,664.11,135.59,667.1,131.37z M706.89,94.6
		c-0.09-0.09-0.19-0.19-0.28-0.28l0,0c-0.06-0.06-0.11-0.11-0.18-0.18c-2.28,0.35-6.32,0.18-6.67,1.05
		c-0.88,3.34-0.7,6.85-0.53,10.36c0,0.07,0.07,0.14,0.2,0.22c0.21,0.53,4.2,1.35,4.37,1.01c0.6-1.41,1.15-2.82,1.7-4.22
		c0.95-2.18,1.83-4.39,2.69-6.67l0,0l0,0l0,0C707.78,95.49,707.37,95.08,706.89,94.6z M623.02,116.79c-0.33,0.56-0.67,1.13-1.02,1.7
		c-1.55,2.37-3.07,4.93-4.95,7.96c0.26,0.13,0.53,0.27,0.8,0.41c1.88,0.97,3.76,2.03,3.76,1.88c0.83-1.32,1.61-2.69,2.34-4.07
		c0.7-1.25,1.33-2.53,1.85-3.86c0.12-0.28,0.26-0.56,0.37-0.85c0.01-0.04,0.01-0.09-0.01-0.15c0-0.01,0.01-0.02,0.01-0.03
		C626.36,119.25,624.08,117.85,623.02,116.79z M632.72,93.71c-0.01-0.31-0.02-0.64-0.04-0.98c-0.18-1.4-1.76-2.81-2.63-4.04
		c-1.23,1.23-3.16,2.46-3.51,3.86c-0.53,2.28,0,4.92,0.17,7.9C631.16,100.13,632.82,98.41,632.72,93.71z M617.81,91.81
		c0.86,2.36,1.97,4.66,3.11,7.06c1.23-2.46,2.46-4.92,4.04-8.25c-1.93-1.41-3.16-2.99-4.74-3.34c-0.88-0.18-3.16,2.11-2.99,2.81
		C617.4,90.67,617.6,91.24,617.81,91.81z M673.94,112.58c0.7,4.22,2.81,5.97,7.9,3.34c-2.28-2.63,0.18-7.9-5.62-7.9
		c-2.06,0-2.53,1.17-2.51,2.59C673.72,111.23,673.83,111.91,673.94,112.58z M673.24,125.75c-0.26,1.04,0.06,2.84,0.45,3.78
		c0.13,0.37,0.28,0.61,0.43,0.61c5.79,1.23,4.92-4.04,6.85-7.2C676.58,120.48,673.94,121.18,673.24,125.75z M706.6,127.15
		c0-1.23-1.23-3.69-1.93-3.69c-5.44-0.35-3.16,4.74-5.44,7.55C703.62,131.72,706.43,131.37,706.6,127.15z M698.35,115.74
		c-0.53-7.02-0.53-7.02-5.79-6.32C692.73,116.62,692.91,116.79,698.35,115.74z M696.95,124.7c-5.79-1.23-5.44,2.64-5.62,6.67
		C696.77,131.9,697.47,131.02,696.95,124.7z M710.29,113.81c0.92,2.61-0.44,6.3,3.21,6.48c0.52,0.03,1.14-0.02,1.88-0.15
		C715.38,116.97,716.08,113.63,710.29,113.81z M710.44,124.02c-0.7,1.11-0.53,2.82-0.63,4.45c-0.01,0.21-0.03,0.41-0.05,0.61
		c5.09,0.88,4.57-2.81,5.09-6.15C712.24,122.46,711.02,123,710.44,124.02z M739.96,39.17c-1.45-1.45-2.9-3.23-2.98-5.34
		c-0.03-0.91,0.2-1.89,0.78-2.93c-0.03,0.01-0.06,0.01-0.09,0.01l0,0l0,0l0,0l0,0l0.17-0.17c-4.56-0.18-10.18-7.9-7.73-11.42
		c0.15-0.22,0.34-0.42,0.54-0.6c1.46-1.32,4.13-1.9,6.13-2.21l0,0l0,0h0.01c1.05-0.16,2.8,1.76,3.15,2.99
		c1.05,4.01,3.29,8.53-2.17,11.35c-0.01,0.02-0.02,0.03-0.03,0.05c5.71-1.16,6.24,3.55,8.51,8.09l0,0l0,0
		c-0.03,0-0.06,0.01-0.09,0.01c-1.65,0.12-3.28,0.5-4.53,0.54C740.9,39.58,740.29,39.5,739.96,39.17z M737.86,30.74L737.86,30.74
		L737.86,30.74L737.86,30.74z M778.07,47.6c-2.24,1.19-3,2.47-2.99,3.76c0,2.15,2.12,4.32,2.99,6.08c2.81,5.97,5.97,0.18,9.48-0.18
		l0,0l0,0C783.86,48.12,781.4,45.84,778.07,47.6z M705.2,73.94c0.18,0.35,5.79-1.58,5.79-2.46c0-3.16-0.7-6.85-2.46-9.31
		c-0.88-1.23-4.92,0-9.13,0.18C701.69,67.27,703.09,70.78,705.2,73.94z M701.02,73.09c0-0.06-0.01-0.12-0.03-0.18
		c0-0.01,0-0.02,0-0.03c-0.88-2.81,0-7.55-4.92-7.55c-0.88-0.18-1.93,2.11-3.51,4.22l0,0l0,0c0,0,0,0,0,0.01
		c2.1,2.98,3.68,5.26,5.43,7.71l0.01,0.01l0,0C698.99,75.96,701.06,74.18,701.02,73.09z M688.34,50.05
		c5.62-3.16,2.81-6.85,1.23-9.84c-0.7-1.23-3.16-1.58-4.74-2.46c0,0.02-0.01,0.05-0.02,0.07c-0.05-0.02-0.11-0.05-0.16-0.07
		c-0.18,1.76-1.23,3.69-0.7,5.27C685.01,45.49,686.76,47.42,688.34,50.05z M753.3,43.87c-4.01-0.01-3.9,0.86-2.99,7.9
		c0,0.02,0,0.03,0,0.04l0,0l0,0c4.35,0,5.73-0.59,5.56-3.78c-0.06-1.06-0.29-2.41-0.64-4.12C754.5,43.88,753.86,43.87,753.3,43.87z
		 M768.01,35.36c0.89,0.04,2.08-0.26,3.74-0.76c-1.34-5.37-1.76-7-3.65-6.97c-0.82-0.02-1.93,0.32-3.55,0.83
		C765.52,33.57,765.99,35.3,768.01,35.36z M758.93,43.56c0.18,2.46,0.18,4.57,0.35,6.67c5.09,0,5.09,0,4.74-6.85
		C762.44,43.38,760.86,43.56,758.93,43.56z M785.27,15.63c-2.55-0.67-4.49-0.31-5.57,1.39c-0.05,0.08-0.1,0.17-0.15,0.25
		c-0.02,0.04-0.05,0.08-0.07,0.13c-0.28,0.49-0.53,1.06-0.71,1.74c-0.7,2.99-3.16,6.32,1.58,8.96c6.15,3.16,7.2,7.03,4.39,13.7
		c-0.53,1.23-0.7,2.99-0.18,4.04c0.84,1.19,1.67,2.34,2.51,3.51c1.19,1.78,2.46,3.58,3.81,5.45c8.25-6.5,12.29-15.63,10.71-23.18
		C799.66,22.83,793.52,18.09,785.27,15.63z M682.72,80.09c0.88-5.62,2.46-11.24-1.23-16.33c-0.88-1.23-1.4-2.99-1.23-4.39
		c0.7-5.62-3.51-8.08-6.67-11.24c-0.93-0.93-1.79-1.31-2.6-1.25c-1.11-0.04-2.06,0.75-3.02,2.13
		C662,57.78,667.45,79.73,682.72,80.09z M744.88,54.44c-6.15,0.53-4.21,5.62-4.74,9.13c-0.7,5.8,3.69,4.74,6.85,4.92
		c4.92,0.18,3.51-3.51,3.51-6.5C750.15,58.66,750.85,54.09,744.88,54.44z M757.7,54.44c-0.28-0.02-0.55-0.03-0.81-0.02
		c-3.68,0.01-4.6,3.09-3.93,7.75c0.45,1-0.09,3.27,0.88,4.67c0.44,0.68,1.23,1.15,2.67,1.16c0.31,0.01,0.64,0,1.01-0.04
		c0.05-0.01,0.1-0.01,0.15-0.02c1.34-0.07,3.03-0.07,4.11-0.72c1-0.51,1.57-1.48,1.01-3.48C761.74,60.42,763.49,54.8,757.7,54.44z
		 M742.42,18.09c0.18,6.67,2.11,9.66,6.15,9.13c4.04-0.53,4.57-2.99,2.46-13.35c-7.46-0.17-8.66,0.14-8.62,3.44
		C742.4,17.55,742.41,17.81,742.42,18.09z M733.92,53.65c-0.09-0.03-0.18-0.06-0.27-0.08c-0.05-0.01-0.1,0.01-0.14,0.01
		c-0.01,0-0.02,0-0.03-0.01c-2.28-0.35-6.5,6.67-5.62,10.19c0.53,1.58,3.34,2.46,5.09,3.69c0.02-0.03,0.04-0.05,0.05-0.08
		c0.04,0.03,0.08,0.05,0.12,0.08c1.66-2.72,3.33-5.44,5.44-8.84c0.34-0.55,0.69-1.11,1.06-1.7
		C737.03,55.45,735.63,54.01,733.92,53.65z M729.96,31.09c-2.11-3.51-4.57-6.67-7.02-9.84c-0.03,0.03-0.07,0.06-0.11,0.09
		c-0.02-0.03-0.04-0.06-0.07-0.09c-0.34,0.34-0.76,0.71-1.2,1.09c-0.88,0.69-1.82,1.44-2.49,2.06c-0.67,0.58-1.12,1.04-1.05,1.24
		c1.93,3.69,4.39,6.67,7.73,11.24C727.85,33.9,730.13,31.79,729.96,31.09z M771.39,26.87c6.67-0.53,4.21-7.2,5.79-11.59l0,0l0,0l0,0
		c-0.12,0.01-0.24,0.02-0.36,0.02c-3.67,0.02-8.78-4.5-9.12,3.32c-0.07,1.34-0.31,2.88-0.3,4.26
		C767.4,25.19,768.05,27.09,771.39,26.87z M701.69,42.85c-0.7-2.99,0.7-8.25-4.57-8.25c-0.49,0-1.11-0.06-1.79-0.05
		c-2.07,0-4.61,0.48-4.88,4.45c1.93,2.81,3.86,5.44,5.8,8.25C698,45.66,702.92,47.07,701.69,42.85z M755.76,18.03
		c0,0.14-0.02,0.26-0.04,0.39c-0.03,0.19-0.06,0.38-0.13,0.55l0,0l0,0c0.05,0.26,0.08,0.54,0.1,0.81c0.26,2.9-0.37,6.52,4.11,6.04
		c3.74-0.6,4-3.12,3.96-5.71c-0.01-0.5-0.02-1-0.03-1.5c-0.01-0.67,0.01-1.32,0.1-1.91c0.04-0.3,0.06-0.57,0.06-0.83
		c0.16-3.1-2.17-3.56-4.8-3.56c-2.91,0-3.56,1.11-3.6,2.5C755.47,15.81,755.78,17.01,755.76,18.03z M769.46,51.99
		c-0.35-0.35-4.21,1.23-4.21,1.76c0,0.05,0.01,0.09,0.01,0.14c0,0.01-0.01,0.03-0.01,0.04c0.35,3.51,0.7,7.2,2.28,10.19
		c0.53,0.88,4.74-0.18,7.2-0.35l0,0c0.27-0.41,0.55-0.93,0.82-1.56c0.08-0.13,0.15-0.26,0.23-0.37c-0.02-0.02-0.03-0.05-0.04-0.07
		c0.01-0.04,0.03-0.07,0.04-0.11C773.68,58.31,771.74,54.97,769.46,51.99z M681.49,52.51c2.46-3.16,0-11.06-3.34-11.42
		c-0.04,0-0.09,0.01-0.13,0.01c-0.02,0-0.03-0.01-0.05-0.01c-1.05,0-2.63,0.88-3.34,1.76c-0.35,0.7-0.18,2.46,0.35,3.16
		C676.93,48.3,679.21,50.4,681.49,52.51z M691.33,71.66c-0.3-1.33-1.47-2.67-2.35-4c-0.16-0.25-0.32-0.49-0.46-0.74l0,0l0,0l0,0
		c-0.5,0.25-0.92,0.51-1.37,0.82c-0.2,0.09-0.39,0.17-0.56,0.23c-0.35,2.81-0.88,5.8-0.7,8.61c0,0.02,0,0.03,0.01,0.05
		c0,0.04-0.01,0.09-0.01,0.13c0.18,3.16,2.81,3.86,4.57,1.93c0.79-1.02,1.07-2.61,1.08-4.23C691.54,73.5,691.46,72.53,691.33,71.66z
		 M740.14,50.23c0,1.05,1.4,2.99,2.11,2.99c5.97-0.18,3.69-5.27,4.92-8.61C741.02,42.5,740.14,46.19,740.14,50.23z M746.99,30.03
		c0.24,5.32,0.9,7.39,3.18,7.31c1.02-0.03,2.37-0.51,4.2-1.34C752.78,32.84,753.48,27.22,746.99,30.03z M772.97,40.04h-0.01
		c-3.98-0.24-5.64,0.44-5.65,3.12c-0.01,1.14,0.29,2.68,0.85,4.68c0.03,0.09,0.05,0.18,0.07,0.28c4.1,0.12,4.97-1.75,5-4.3
		C773.24,42.66,773.08,41.36,772.97,40.04z M759.41,35.03c0.81,0.01,1.8-0.18,3.03-0.61c-1.41-3.16-0.88-8.43-7.38-5.8
		C755.92,31.49,755.85,35.05,759.41,35.03z M778.59,44.96c0.88-2.11,1.76-4.39,2.63-6.5c-7.38-0.7-4.04,3.34-4.39,5.8
		C777.36,44.43,778.07,44.78,778.59,44.96z M773.68,30.21c1.29,1.58,0.71,4.92,3.33,5.03c0.58,0.04,1.32-0.09,2.29-0.46
		C778.59,28.63,778.24,28.28,773.68,30.21z M684.3,64.46c0.03-0.01,0.06-0.02,0.1-0.04c0.03,0.07,0.05,0.14,0.08,0.21
		c0.88-0.35,1.58-0.53,2.46-0.88c-1.23-2.81-2.11-5.62-3.16-8.43c-0.88,0.35-1.58,0.53-2.63,0.7
		C682.2,58.84,683.25,61.65,684.3,64.46z"/>
	<path fill="#00FF8D" d="M962.86,97.12c-3.34,5.27-8.78,8.96-4.21,16.51c0.46,0.76,0.77,1.54,0.95,2.33
		c0.75,3.42-1.1,6.95-4.81,9.09c-0.01,0.01-0.02,0.02-0.04,0.02c-0.82,0.46-1.4,0.96-1.8,1.47c-1.88,2.34-0.08,5.02,0.78,7.46
		c0.74,2.33,2.16,3.29,4.02,3.3c0.82,0.02,1.71-0.15,2.65-0.49c9.66-3.16,15.28-11.59,14.22-21.78
		C973.75,107.48,969.36,102.04,962.86,97.12z M920.02,100.63c0.7-3.69,1.41-7.73,0.53-11.42c-0.12-0.25-0.51-0.41-1.06-0.54
		c-1.69-0.46-5.39-0.42-7.71-0.69l0,0l0,0l0,0c-0.7,0.7-1.23,1.23-1.93,1.76c1.41,4.04,2.63,8.08,4.57,11.77
		c0.09,0.14,0.5,0.19,1.05,0.18C916.97,101.71,919.89,101.17,920.02,100.63z M913.17,126.98c-0.18-0.53-5.44-0.7-5.97,0.18
		c-1.39,2.94-2.78,6.29-2.73,9.33c0,0.47,0.03,0.93,0.1,1.38c0.31,1.42,4.57,2.13,7.6,3.02c0.35,0.1,0.69,0.21,1,0.32
		c0.7-0.35,1.4-0.88,1.93-1.23c-0.01-0.05-0.01-0.11-0.02-0.16c0.01,0,0.01-0.01,0.02-0.01
		C914.58,135.58,914.23,131.19,913.17,126.98z M925.29,129.67c-0.68-0.58-1.73-0.94-3.34-0.94c-5.62,0-4.04,5.09-4.57,8.25
		c-0.54,2.23-0.23,3.45,0.55,4.13c1.01,0.9,2.84,0.94,4.72,1.13c3.86,0.35,4.39-1.76,4.04-4.57
		C926.29,135.03,927.4,131.27,925.29,129.67z M928.62,101.16c4.04-0.17,4.92-3.51,3.86-13.7c-0.27,0.1-0.56,0.16-0.85,0.2
		c-2.4,0.3-5.29-1.26-6.85,0.32c-0.63,0.58-1.08,1.61-1.26,3.35C922.83,98.18,924.59,101.16,928.62,101.16z M902.11,102.39
		c0.34,0.51,0.81,0.9,1.33,1.18c2.14,1.31,5.66,0.43,5.52-1.88c-0.35-3.86-2.11-7.73-3.86-11.24c-0.05-0.08-0.2-0.1-0.41-0.1
		c-0.96-0.07-4.68,1.26-7.32,2.03c0.98,2.15,1.79,4.13,2.66,5.96C900.68,99.79,901.32,101.13,902.11,102.39z M947.94,103.55
		c1.13,1.16,3.21,2.65,3.33,2.53c2.63-2.63,5.27-5.62,8.95-9.84l0,0l0,0c-3.86-1.58-7.73-3.69-8.25-3.16
		c-2.28,2.46-3.86,5.8-4.92,9.13C947,102.5,947.39,103,947.94,103.55z M865.24,125.05c0,0.43,3.87,1.45,5.57,1.42
		c0.4,0,0.68-0.05,0.75-0.19c1.93-3.16,2.81-6.85,4.21-10.89c-3.34-0.7-5.62-1.4-9.31-2.28
		C865.94,117.5,865.06,121.18,865.24,125.05z M878.41,86.76c-3.34-1.41-4.92-0.88-5.79,2.81c-1.76,7.9-1.76,8.08,6.5,9.48
		C883.15,89.39,883.15,88.69,878.41,86.76z M945.14,127.28c-0.13,0.01-0.26,0.01-0.36,0.05c-1.4,0.53-2.98,2.63-2.98,4.04
		c0,2.81,1.05,5.62,1.76,8.96c3.34-0.88,5.97-1.58,9.13-2.46c-1.23-3.34-1.93-6.15-3.51-8.6
		C948.5,128.09,946.27,126.95,945.14,127.28z M937.93,132.95c-1.23-1.4-2.63-2.64-3.86-3.86c-0.02,0.03-0.05,0.06-0.08,0.09
		c-0.03-0.03-0.07-0.06-0.1-0.09c-1.23,1.41-3.34,2.81-3.51,4.57c-0.35,2.81,0.35,5.62,0.7,8.43c1.56,0.1,2.84,0.17,3.88,0.16
		c4.61-0.01,4.61-1.35,3.32-7.36C938.11,134.18,938.28,133.3,937.93,132.95z M855.24,112.13c-0.21-1-0.6-2.22-0.89-3.77
		c-2.13,2.63-3.8,4.36-5.17,6.04c-0.6,0.7-1.16,1.36-1.68,2.04c-0.53,0.88-0.53,2.63,0,3.69c0.34,0.85,2.65,1.53,2.95,1.25
		c0.11,0.01,0.19,0.01,0.21-0.02c1.76-2.28,3.51-4.57,4.74-7.2C855.57,113.66,855.46,113,855.24,112.13z M921.95,117.85
		c-0.7,2.99-1.4,5.44-2.11,8.08c1.58,0.31,2.75,0.53,3.66,0.56c2.63,0.1,2.93-1.47,3.72-7.41c-0.34-0.08-0.67-0.15-1-0.23
		C925.16,118.57,923.88,118.26,921.95,117.85z M922.13,103.8c0.18,2.63,0.18,4.92,0.35,7.9c2.28,0,4.04-0.18,6.67-0.35
		C927.04,108.19,929.15,102.22,922.13,103.8z M942.08,106.29c-0.76,0-1.67,0.11-2.74,0.31c1.58,2.81-1.58,8.61,5.44,7.2
		C945.92,108.23,945.43,106.26,942.08,106.29z M936.35,110.96c-0.52-6.98-0.53-6.98-5.79-6.28c0.17,7.2,0.35,7.38,5.79,6.32l0,0l0,0
		C936.35,110.98,936.35,110.97,936.35,110.96z M851.86,104.1c0.02-0.65-0.02-1.34-0.14-2.06c-0.09-0.7-0.04-1.54,0.11-2.33
		c0.18-0.68,0.45-1.33,0.77-1.88c1.16-1.72,1.59-3.38,1.62-5.03c0.09-3.55-1.73-7.08-1.97-10.95c-7.38,1.76-11.76,5.8-13.7,12.29
		c-1.79,5.98-2.43,12.09,0.35,17.68c0.48,1.03,1.06,2.04,1.76,3.05c1.58,2.28,3.51,2.11,5.44,0
		C848.89,111.6,851.81,108.62,851.86,104.1z M905.1,126.63c-2.46-1.58-3.86-2.81-5.62-3.16c-2.11-0.53-8.08,6.5-7.2,9.13
		c0.32,1.18,1.56,2.03,2.87,2.83c0.81,0.52,1.67,1.03,2.4,1.56C899.83,133.83,902.11,130.84,905.1,126.63z M944.89,89.85
		c-0.09-0.09-0.19-0.19-0.28-0.28l0,0c-0.06-0.06-0.11-0.11-0.18-0.18c-2.28,0.35-6.32,0.18-6.67,1.05
		c-0.88,3.34-0.7,6.85-0.53,10.36c0,0.07,0.07,0.14,0.2,0.22c0.21,0.53,4.2,1.35,4.37,1.01c0.6-1.41,1.15-2.81,1.69-4.21
		c0.95-2.19,1.83-4.4,2.7-6.67l0,0l0,0l0,0C945.78,90.75,945.37,90.34,944.89,89.85z M861.02,112.05c-0.65,1.1-1.32,2.2-2.02,3.34
		c-1.22,1.93-2.47,3.94-3.95,6.32l0,0l0,0c0.37,0.19,0.76,0.39,1.14,0.58c1.76,0.92,3.42,1.84,3.42,1.7
		c0.82-1.32,1.6-2.68,2.33-4.05c0.7-1.26,1.34-2.54,1.86-3.89c0.12-0.28,0.26-0.56,0.37-0.84c0.01-0.04,0.01-0.09-0.01-0.15
		c0-0.01,0.01-0.02,0.01-0.03C864.36,114.51,862.08,113.1,861.02,112.05z M870.72,88.97c-0.01-0.31-0.02-0.64-0.04-0.98
		c-0.18-1.41-1.76-2.81-2.63-4.04c-1.23,1.23-3.16,2.46-3.51,3.86c-0.53,2.28,0,4.92,0.17,7.9
		C869.16,95.39,870.82,93.67,870.72,88.97z M855.81,87.07c0.86,2.36,1.97,4.66,3.11,7.06c1.23-2.46,2.46-4.92,4.04-8.25
		c-1.93-1.4-3.16-2.99-4.74-3.34c-0.88-0.18-3.16,2.11-2.99,2.81C855.4,85.93,855.6,86.5,855.81,87.07z M911.94,107.84
		c0.7,4.22,2.81,5.97,7.9,3.34c-2.28-2.63,0.18-7.9-5.62-7.9c-2.06,0-2.53,1.17-2.51,2.59
		C911.72,106.48,911.83,107.17,911.94,107.84z M911.24,121.01c-0.26,1.04,0.06,2.84,0.45,3.78c0.13,0.37,0.28,0.61,0.43,0.61
		c5.79,1.23,4.92-4.04,6.85-7.2C914.58,115.74,911.94,116.44,911.24,121.01z M944.6,122.41c0-1.23-1.23-3.69-1.93-3.69
		c-5.44-0.35-3.16,4.74-5.44,7.55C941.62,126.98,944.43,126.63,944.6,122.41z M934.95,119.95c-5.79-1.23-5.44,2.64-5.62,6.67
		C934.77,127.15,935.47,126.28,934.95,119.95z M948.29,109.06c0.92,2.61-0.44,6.3,3.21,6.48c0.52,0.03,1.14-0.02,1.88-0.15
		C953.38,112.23,954.08,108.89,948.29,109.06z M948.44,119.28c-0.7,1.11-0.53,2.82-0.63,4.45c-0.01,0.21-0.03,0.41-0.05,0.61
		c5.09,0.88,4.57-2.81,5.09-6.15C950.24,117.72,949.02,118.25,948.44,119.28z M977.96,34.42c-1.45-1.45-2.9-3.23-2.98-5.34
		c-0.03-0.91,0.2-1.89,0.78-2.93c-0.03,0.01-0.06,0.01-0.09,0.01l0,0l0,0l0,0l0,0l0.17-0.17c-4.56-0.18-10.18-7.9-7.73-11.42
		c0.15-0.22,0.34-0.42,0.54-0.6c1.46-1.32,4.13-1.9,6.13-2.21l0,0l0,0h0.01c1.05-0.16,2.8,1.76,3.15,2.99
		c1.05,4.01,3.29,8.53-2.17,11.35c-0.01,0.02-0.02,0.03-0.03,0.05c5.71-1.16,6.24,3.55,8.51,8.09l0,0l0,0
		c-0.03,0-0.06,0.01-0.09,0.01c-1.65,0.12-3.28,0.5-4.53,0.54C978.9,34.84,978.29,34.75,977.96,34.42z M975.86,25.99L975.86,25.99
		L975.86,25.99L975.86,25.99z M971.64,48.82c-0.05-0.01-0.1,0.01-0.14,0.01c-0.01,0-0.02,0-0.03-0.01
		c-2.28-0.35-6.5,6.67-5.62,10.19c0.53,1.58,3.34,2.46,5.09,3.69c0.02-0.03,0.04-0.05,0.05-0.08c0.04,0.03,0.08,0.05,0.12,0.08
		c1.93-3.16,3.86-6.32,6.5-10.54c-2.59-1.45-3.99-2.9-5.7-3.25C971.83,48.88,971.73,48.84,971.64,48.82z M1016.07,42.85
		c-2.24,1.19-3,2.47-3,3.76c0,2.15,2.11,4.32,3,6.07c2.81,5.97,5.97,0.18,9.48-0.18l0,0l0,0
		C1021.86,43.38,1019.4,41.1,1016.07,42.85z M943.2,69.2c0.18,0.35,5.79-1.58,5.79-2.46c0-3.16-0.7-6.85-2.46-9.31
		c-0.88-1.23-4.92,0-9.13,0.18C939.69,62.52,941.09,66.04,943.2,69.2z M939.02,68.35c0-0.06-0.01-0.12-0.03-0.17
		c0-0.01,0-0.02-0.01-0.03c-0.88-2.81,0-7.55-4.92-7.55c-0.88-0.18-1.93,2.11-3.51,4.22l0,0l0,0c0,0,0,0,0.01,0.01
		c2.1,2.98,3.68,5.25,5.43,7.71c0,0.01,0.01,0.01,0.01,0.02l0,0C936.99,71.21,939.06,69.44,939.02,68.35z M926.34,45.31
		c5.62-3.16,2.81-6.85,1.23-9.84c-0.7-1.23-3.16-1.58-4.74-2.46c0,0.02-0.01,0.05-0.02,0.07c-0.05-0.02-0.11-0.05-0.16-0.07
		c-0.18,1.76-1.23,3.69-0.7,5.27C923.01,40.75,924.76,42.68,926.34,45.31z M991.3,39.12c-4.01-0.01-3.9,0.86-2.99,7.9
		c0,0.02,0,0.03,0,0.04l0,0l0,0c4.35,0,5.73-0.59,5.56-3.78c-0.06-1.06-0.29-2.41-0.64-4.12C992.5,39.14,991.86,39.12,991.3,39.12z
		 M1009.74,29.86c-1.34-5.37-1.75-7-3.64-6.97c-0.82-0.02-1.92,0.32-3.55,0.83C1003.95,31.09,1004.3,31.61,1009.74,29.86z
		 M996.93,38.81c0.18,2.46,0.18,4.57,0.35,6.67c5.09,0,5.09,0,4.74-6.85C1000.44,38.64,998.86,38.81,996.93,38.81z M1011.68,25.47
		L1011.68,25.47L1011.68,25.47L1011.68,25.47c1.29,1.59,0.71,4.91,3.33,5.03c0.58,0.04,1.32-0.09,2.28-0.46l0,0l0,0
		C1016.59,23.89,1016.24,23.53,1011.68,25.47z M1039.59,26.87c-1.93-8.78-8.07-13.52-16.32-15.98c-2.56-0.67-4.49-0.31-5.58,1.4
		c-0.04,0.06-0.08,0.14-0.12,0.2c-0.04,0.07-0.08,0.14-0.11,0.21c-0.27,0.49-0.51,1.04-0.69,1.71c-0.7,2.99-3.16,6.32,1.58,8.96
		c6.14,3.16,7.2,7.03,4.39,13.7c-0.53,1.23-0.7,2.99-0.18,4.04c0.83,1.17,1.66,2.32,2.49,3.47c1.2,1.79,2.48,3.61,3.83,5.49
		C1037.14,43.73,1041.17,34.42,1039.59,26.87z M920.72,75.34c0.88-5.62,2.46-11.24-1.23-16.33c-0.88-1.23-1.4-2.99-1.23-4.39
		c0.7-5.62-3.51-8.08-6.67-11.24c-0.93-0.93-1.79-1.31-2.6-1.25c-1.11-0.04-2.06,0.75-3.02,2.13
		C900,53.04,905.45,74.99,920.72,75.34z M982.88,49.7c-6.15,0.53-4.21,5.62-4.74,9.13c-0.7,5.8,3.69,4.74,6.85,4.92
		c4.92,0.18,3.51-3.51,3.51-6.5C988.15,53.92,988.85,49.35,982.88,49.7z M995.7,49.7c-0.28-0.02-0.55-0.03-0.81-0.02
		c-3.68,0.01-4.6,3.09-3.93,7.75c0.45,1-0.09,3.27,0.88,4.67c0.44,0.68,1.23,1.15,2.67,1.16c0.31,0.01,0.64,0,1.01-0.04
		c0.05-0.01,0.1-0.01,0.15-0.02c1.34-0.07,3.02-0.07,4.09-0.71c1.01-0.51,1.59-1.48,1.02-3.48
		C999.74,55.67,1001.49,50.05,995.7,49.7z M980.42,13.35c0.18,6.67,2.11,9.66,6.15,9.13c4.04-0.53,4.56-2.99,2.46-13.35l0,0
		c-7.47-0.17-8.66,0.14-8.62,3.43C980.4,12.81,980.41,13.07,980.42,13.35z M963.74,32.14L963.74,32.14L963.74,32.14
		c0.09-0.12,0.18-0.24,0.26-0.37c2.03-2.79,4.12-4.76,3.95-5.43c-2.11-3.51-4.57-6.67-7.02-9.84c-0.03,0.03-0.07,0.06-0.11,0.09
		c-0.02-0.03-0.04-0.06-0.07-0.09c-0.34,0.34-0.75,0.7-1.2,1.08c-0.89,0.7-1.83,1.45-2.5,2.08c-0.66,0.58-1.11,1.03-1.04,1.23
		c1.93,3.68,4.38,6.84,7.71,11.22C963.73,32.13,963.74,32.13,963.74,32.14z M1009.39,22.13c6.68-0.53,4.22-7.2,5.8-11.59l0,0l0,0
		l0,0c-0.12,0.01-0.24,0.02-0.36,0.02c-3.67,0.02-8.78-4.5-9.12,3.32c-0.07,1.34-0.31,2.88-0.3,4.26
		C1005.4,20.45,1006.05,22.35,1009.39,22.13z M939.69,38.11c-0.7-2.99,0.7-8.25-4.57-8.25c-0.49,0-1.11-0.06-1.79-0.05
		c-2.07,0-4.61,0.48-4.88,4.45c1.93,2.81,3.86,5.44,5.8,8.25C936,40.92,940.92,42.33,939.69,38.11z M993.76,13.28
		c0,0.14-0.02,0.26-0.04,0.39c-0.03,0.19-0.06,0.38-0.13,0.55l0,0l0,0c0.04,0.22,0.07,0.46,0.09,0.69c0.28,2.92-0.42,6.64,4.12,6.16
		c3.43-0.55,3.93-2.71,3.97-5.06c0.02-0.91-0.04-1.85-0.03-2.76c0.01-0.45,0.03-0.9,0.1-1.31c0.04-0.3,0.06-0.57,0.06-0.83
		c0.16-3.1-2.17-3.56-4.8-3.56c-2.91,0-3.56,1.11-3.6,2.5C993.47,11.07,993.78,12.27,993.76,13.28z M1007.46,47.42
		c-0.35-0.35-4.21,1.23-4.21,1.76c0,0.05,0.01,0.09,0.01,0.14c0,0.01-0.01,0.03-0.01,0.04c0.35,3.51,0.7,7.2,2.28,10.19
		c0.19,0.26,0.89,0.28,1.8,0.2c1.58-0.05,3.84-0.44,5.39-0.55l0,0c0.35-0.7,0.7-1.4,1.05-1.93c-0.02-0.03-0.03-0.05-0.05-0.08
		c0.02-0.03,0.03-0.07,0.05-0.1C1011.68,53.74,1009.74,50.4,1007.46,47.42z M919.49,47.77c2.46-3.16,0-11.06-3.34-11.42
		c-0.04,0-0.09,0.01-0.13,0.01c-0.02,0-0.03-0.01-0.05-0.01c-1.05,0-2.63,0.88-3.34,1.76c-0.35,0.7-0.18,2.46,0.35,3.16
		C914.93,43.56,917.21,45.66,919.49,47.77z M929.33,66.91c-0.35-1.57-1.92-3.15-2.8-4.72c0-0.01-0.01-0.01-0.01-0.02l0,0l0,0l0,0
		c-0.5,0.25-0.92,0.51-1.37,0.82c-0.2,0.09-0.39,0.17-0.56,0.23c-0.35,2.81-0.88,5.8-0.7,8.61c0,0.02,0,0.03,0.01,0.05
		c0,0.04-0.01,0.09-0.01,0.13c0.18,3.16,2.81,3.86,4.57,1.93c0.79-1.02,1.07-2.61,1.08-4.23C929.54,68.76,929.46,67.78,929.33,66.91
		z M978.14,45.49c0,1.05,1.4,2.99,2.11,2.99c5.97-0.18,3.69-5.27,4.92-8.61C979.02,37.76,978.14,41.45,978.14,45.49z M984.99,25.29
		c0.24,5.32,0.9,7.39,3.18,7.31c1.02-0.03,2.37-0.51,4.2-1.34C990.78,28.1,991.48,22.48,984.99,25.29z M1010.97,35.3h-0.01
		c-3.98-0.24-5.64,0.44-5.65,3.12c-0.01,1.14,0.29,2.68,0.85,4.69c0.03,0.09,0.05,0.17,0.07,0.27c4.1,0.12,4.98-1.75,5-4.3
		C1011.24,37.92,1011.08,36.62,1010.97,35.3z M997.41,30.29c0.81,0.01,1.8-0.18,3.03-0.61c-1.41-3.16-0.88-8.43-7.38-5.8
		C993.92,26.75,993.85,30.31,997.41,30.29z M1016.59,40.22c0.88-2.11,1.76-4.39,2.64-6.5c-7.38-0.7-4.04,3.34-4.39,5.8
		C1015.36,39.69,1016.07,40.04,1016.59,40.22z M922.3,59.71c0.03-0.01,0.06-0.02,0.1-0.04c0.03,0.07,0.05,0.14,0.08,0.21
		c0.88-0.35,1.58-0.53,2.46-0.88c-1.23-2.81-2.11-5.62-3.16-8.43c-0.88,0.35-1.58,0.53-2.63,0.7
		C920.2,54.09,921.25,56.9,922.3,59.71z"/>
</g>
</svg>
