<?xml version="1.0" encoding="utf-8"?>
<!-- Generator: Adobe Illustrator 24.2.1, SVG Export Plug-In . SVG Version: 6.00 Build 0)  -->
<svg version="1.1" id="Слой_1" xmlns="http://www.w3.org/2000/svg" xmlns:xlink="http://www.w3.org/1999/xlink" x="0px" y="0px"
	 width="870.81px" height="893.62px" viewBox="0 0 870.81 893.62" enable-background="new 0 0 870.81 893.62" xml:space="preserve">
<g>
	<g>
		<path d="M609.98,735.53c2.86-4.27,5.87-8.47,9.15-13.25c-3.99-3.09-7.98-6.17-12.12-9.33c0.2-0.43,0.48-0.65,0.68-1.08
			c5.91,0.48,11.05,4.1,16.92,5.79c3.92-5.01,7.89-10.16,11.94-15.46c0.29,0.13,0.43,0.2,0.72,0.34c-1.68,3.6-3.21,7.26-5.24,10.87
			c-4.59,8.72-4.65,9.22,2.3,16.49c0.73,0.69,1.24,1.46,1.76,2.23c-0.13,0.29-0.27,0.58-0.4,0.86c-1.94-0.73-4.02-1.52-5.89-2.4
			c-2.59-1.21-5.36-3.9-7.77-3.62c-2.26,0.35-4.16,3.66-6.1,5.57c-1.46,1.25-3.06,2.43-4.58,3.82
			C610.71,736.22,610.34,735.88,609.98,735.53z M631.65,730.75c0.07-0.14,0.35-0.37,0.41-0.51c-0.96-1.32-2.06-2.71-3.09-3.89
			c-2.41-2.35-2.33-4.77-0.84-7.58c1.55-2.95,3.1-5.91,4.92-9.44c-3.02,3.85-5.63,7.19-8.02,10.45c-4.24-1.8-8.91-3.8-13.37-5.88
			c-0.14,0.29-0.27,0.58-0.41,0.86c2.69,2.13,5.23,4.19,7.99,6.17c1.81,1.37,1.91,2.29,0.39,4.04c-2.14,2.33-3.91,5.01-5.97,7.55
			c0.29,0.14,0.36,0.35,0.65,0.48c2.48-2.7,4.82-5.46,7.17-7.87C625.01,726.95,628.33,728.85,631.65,730.75z"/>
		<path d="M519.52,43.16c-2.27-2.28-4.53-4.56-6.79-6.85c0.2-0.43,0.33-0.72,0.68-1.08c2.65,1.06,5.23,1.92,7.82,3.12
			c2.74,1.27,4.37,1.16,6.5-1.53c2.88-3.56,6.35-6.5,9.6-9.71c0.63-0.58,0.96-1.3,2.23-1.76c-0.47,1.01-0.65,2.15-1.27,3.09
			c-3.42,4.71-6.99,9.35-10.55,14c-1.31,1.67-1.28,2.73-0.1,4.33c1.7,2.37,2.98,4.89,4.32,7.27c-0.34,0.37-0.62,0.59-0.96,0.95
			c-2.25-1.57-4.7-2.71-6.66-4.5c-2.11-1.86-3.81-1.6-5.82,0.09c-2.15,1.98-4.3,3.95-7,6.37C512.64,51.16,517.02,47.77,519.52,43.16
			z M521.77,47.36c2.53,1.71,4.49,3.14,6.51,4.44c0.28-0.22,0.41-0.51,0.69-0.73c-1.7-2.37-3.46-4.59-4.87-6.47
			c2.27-2.97,4.53-5.95,6.72-8.78c-0.14-0.07-0.14-0.07-0.22-0.28c-1.58,1.89-3.24,3.57-5.1,5.68c-3.09-1.26-6.39-2.45-9.47-3.72
			c-0.07,0.14-0.14,0.29-0.21,0.43c1.83,1.73,3.65,3.45,5.69,5.46c-1.85,2.46-3.63,4.79-5.34,6.96c0.14,0.07,0.22,0.28,0.36,0.35
			C518.34,49.44,520.15,48.19,521.77,47.36z"/>
		<path d="M441.43,199.79c-3.31,3.71-6.47,7.49-9.5,10.99c-4.33-2.37-8.29-4.39-12.19-6.56c-0.13,0.29-0.41,0.51-0.54,0.8
			c1.68,1.66,3.29,3.46,5.18,5.04c2.25,1.93,2.72,3.55,0.59,5.88c-1.38,1.46-2.48,3.05-3.98,5.15c1.04-0.74,1.68-0.97,2.09-1.48
			c3.94-3.94,3.94-3.94,8.58-0.38c1.16,0.89,2.32,1.78,3.48,2.67c1.02,0.82,2.32,1.43,3.89,1.81c-2.43-3.06-4.86-6.12-7.35-9.03
			c0.21-0.08,0.34-0.37,0.56-0.44c3.15,3.75,6.45,7.57,9.61,11.31c-0.13,0.29-0.41,0.51-0.55,0.8c-5.5-1.34-9.39-5.78-14.23-8.91
			c-3.82,3.3-7.42,6.52-11.17,9.68c-0.15-0.07-0.37-0.35-0.51-0.41c3.22-4.28,6.65-8.64,10.08-12.99c-2.86-3.26-5.56-6.1-8.2-9.08
			c0.2-0.43,0.48-0.65,0.68-1.08c5.39-0.29,8.92,4.16,13.79,5.73c2.76-3.27,5.78-6.76,8.81-10.26
			C440.84,199.16,441.21,199.51,441.43,199.79z"/>
		<path d="M711.53,610.86c2.37,0.93,4.24,1.8,6.31,2.24c4.65,0.94,7.97-2.07,7.56-6.81c-0.48-4.6-2.29-8.25-7.6-10.37
			c5.92,0.83,9.74,5.41,10.06,9.6c0.33,4.18-1.22,7.14-4.87,8.59C718.99,615.92,714.34,614.62,711.53,610.86z"/>
		<path d="M542.63,763.52c-0.2,0.43-0.27,0.58-0.27,0.58c-2.18,0.91-4.5,1.76-4.56,4.53c-0.09,2.06,3.27,5.38,5.98,5.59
			c1.35,0.1,3.11-0.3,3.87-1.17c0.48-0.65,0.14-2.56-0.45-3.54c-0.67-1.19-1.91-2.29-2.59-3.84c1.52,1.24,3.33,2.25,4.72,3.78
			c1.83,2.08,0.91,4.8-1.83,5.8c-4.08,1.6-9.55-0.95-11.15-5.02C534.77,766.86,537.59,763.8,542.63,763.52z"/>
		<path d="M90.02,397.87c-3.93,1.67-9.06,1.03-9.62,6.37c-0.21,2.7,6.13,6.01,9.09,5.29c3.6-0.95,4.6-3.11,3.58-6.92
			c2.84,2.55,2.82,4.47-0.11,6.61c-4.1,3.17-12.47,0.84-14.17-4.16c-0.24-0.99,0.07-2.42,0.69-3.36
			C80.83,399.18,86.1,397.26,90.02,397.87z"/>
		<path d="M851.55,350.33c1.09,1.04,2.75,1.99,3,3.33c0.24,0.99-0.92,2.72-1.82,3.53c-2.99,2.28-8.97,1.6-11.33-1.61
			c-0.67-0.83-0.8-3.17-0.04-4.05C843.53,347.99,847.5,347.74,851.55,350.33c-0.27,0.58-0.33,1.08-0.66,1.79
			c-3.13-2.68-5.06-3.06-7.2-1.08c-0.69,0.73-1.37,2.17-1.27,3.09c0.48,1.98,4.86,3.49,7.25,2.86
			C853.2,356.18,853.91,353.53,851.55,350.33z"/>
		<path d="M708.73,607.11c-1.02-0.82-1.95-1.08-2.32-1.78c-1.58-3.37,0.01-7.53,3.84-10.12c4.33-2.89,9.44-2.96,12.07-0.33
			c0.14,0.07,0.01,0.35,0.08,0.57C713.51,592.34,708.02,596.61,708.73,607.11z"/>
		<path d="M151.54,315.49c1.46,4.01,2.56,7.67-3.57,6.92c-1-0.11-2.75-1.98-2.56-2.77C146.02,316.07,148.93,315.85,151.54,315.49z"
			/>
		<path d="M279.77,88.52c-0.79-0.19-1.43-0.32-2.86-0.63c2.05,2.36,4.3,3.93,1.74,6.42c-2.28,2.26-7.46,2.48-9.36,0.54
			c-0.44-0.56-0.97-1.68-0.85-2.32c0.84-3.29,7.65-6.25,11.09-4.99C279.75,87.81,279.76,88.17,279.77,88.52z M269.81,92.98
			c2.62,2.27,4.68,2.36,6.7,1.02c0.98-0.6,1.44-1.96,2.05-2.9c-1.5-0.53-2.96-1.91-4.16-1.59
			C272.63,89.92,271.47,91.66,269.81,92.98z"/>
		<path d="M839.27,265.08c2.56,0.14,4.47-0.19,5.9,0.48c0.58,0.27,0.36,2.62,0.47,3.89c-1.78,0.05-3.83,0.32-5.61,0.01
			C839.67,269.47,839.61,267.34,839.27,265.08z"/>
		<path d="M781.53,467.1c-0.65-0.13-1.37-0.46-1.85-0.16c-1.13,0.53-2.25,1.06-2.72,2.06c-0.27,0.57,0.69,1.9,1.36,2.73
			c0.51,0.77,1.24,1.46,2.03,1.65c1.79,0.66,4.03,1.88,5.36,1.27c1.48-0.54,2.12-3.04,3.35-4.92c0.03,1.07,0.72,2.96,0.09,3.55
			c-1.31,1.31-3.96,3.23-5.11,2.7c-2.94-1.2-5.91-3.1-7.89-5.61c-1.84-2.08,1.16-4.36,5.49-4.27
			C781.44,466.54,781.52,466.75,781.53,467.1z"/>
		<path d="M449.86,85.13c0.18,1.49,0.65,3.11,0.77,4.74c0.22,2.91-1.37,4.44-3.99,4.8c-1.13,0.17-2.93-0.49-3.73-1.39
			c-0.44-0.56,0.14-2.56,0.9-3.43c0.82-1.02,2.36-1.7,3.41-2.44C448.05,86.74,448.74,86.01,449.86,85.13z M448.88,88.35
			c-2.7,0.15-4.22,1.54-4.65,3.96c-0.13,0.29,1.6,1.45,2.02,1.29C448.43,92.7,449.88,91.1,448.88,88.35z"/>
		<path d="M428.37,267.62c0.22,2.55,0.91,4.45,0.23,5.53c-0.34,0.72-2.89,0.93-4.04,0.39c-0.72-0.33-1.35-2.73-0.81-3.53
			C424.36,269.08,426.13,268.68,428.37,267.62z"/>
		<path d="M145.65,405.93c0.82,1.61,1.48,2.45,1.58,3.37c0.25,1.34,0.87,3.39,0.11,3.9c-1.39,1.1-3.29,1.79-5.07,1.84
			c-1.2-0.04-2.6-1.56-3.76-2.45c-0.22-0.28-0.04-1.42,0.31-1.78C141.19,409.1,143.49,407.55,145.65,405.93z M140.14,409.84
			c0.33,1.55,0.08,2.84,0.73,3.32c1.75,1.51,4.02,1.52,5.25-0.36c0.55-0.8-0.15-2.7-0.4-4.04
			C144.17,409.09,142.47,409.35,140.14,409.84z"/>
		<path d="M196.77,477.75c-0.02-0.71-0.43-2.83-0.01-2.98c1.82-0.9,3.87-1.17,6.06-1.73c0.4,1.76,1.52,3.51,0.99,5.02
			C203.29,479.92,199.45,479.88,196.77,477.75z M202.18,478.17c0.13-0.29,0.41-0.51,0.61-0.94c-0.38-1.05-0.57-2.54-1.29-2.88
			c-0.86-0.4-2.19,0.2-3.17,0.8c-0.21,0.08-0.02,1.92,0.41,2.12C199.89,477.81,201.1,477.85,202.18,478.17z"/>
		<path d="M720.55,328.85c0.21,2.2,0.47,3.89,0.4,4.04c-1.83,0.55-3.67,0.74-5.51,0.93c-0.15-0.07-0.84-1.97-0.56-2.19
			C716.56,330.67,718.1,329.98,720.55,328.85z"/>
		<path d="M763.95,253.79c2.4-0.63,4.23-1.18,6.06-1.73c0.19,1.49,0.9,4.1,0.41,4.39c-1.61,0.83-3.74,0.88-5.8,1.15
			C764.55,257.4,764.21,255.49,763.95,253.79z M768.46,252.39c-1.38,1.46-2.27,2.62-3.65,4.08
			C769.08,257.06,769.84,256.19,768.46,252.39z"/>
		<path d="M702.85,511.88c0.91,2.18,2.1,4.13-0.8,4.71c-1.13,0.17-3.78-0.89-3.66-1.53C698.1,512.29,700.81,512.5,702.85,511.88z"/>
		<path d="M321.64,234.68c0.02-1.92-0.38-3.33,0.05-3.48c1.4-0.75,3.09-1.01,4.71-1.48c0.24,0.99,0.86,2.67,0.65,2.75
			C325.58,233.37,323.96,233.84,321.64,234.68z"/>
		<path d="M684.35,676.32c2.97-0.37,5.17-0.57,7.37-0.77c-0.18,1.5,0.3,3.47-0.52,4.49c-1.65,2.03-4.14,1.75-6.03,0.17
			C684.73,679.64,684.9,678.15,684.35,676.32z M685.46,678.06c2.41,2.35,3.9,2.17,5.28,0.71c0.34-0.36-0.18-1.49-0.2-2.2
			C689.13,676.97,687.51,677.44,685.46,678.06z"/>
		<path d="M381.13,143.13c-1.28,2.38-2.1,3.75-2.91,5.12c1.22,0.39,2.65,0.71,3.86,1.1c0.32-1.43,0.85-2.93,1.29-5.01
			c0.4,1.76,1.53,4.22,0.98,4.66c-1.33,0.96-3.37,1.58-5.01,1.35c-1-0.11-2.77-2.69-2.57-3.13
			C377.65,145.71,379.19,144.67,381.13,143.13z"/>
		<path d="M225.28,230.58c2.09-1.48,3.91-2.74,5.58-4.06c0.22,0.28,0.44,0.56,0.66,0.83c-1.33,0.96-2.65,1.92-3.9,3.09
			c0.16,0.42,0.46,0.91,0.61,1.33c1.69-0.62,3.52-1.16,5.13-1.99c0.42-0.15,0.24-1.64,0.92-2.72c0.03,1.07,0.63,2.4,0.09,3.19
			C232.94,232.57,228.69,233.04,225.28,230.58z"/>
		<path d="M708.26,452.92c-0.33,3.35-2.43,4.47-4.79,3.9c-1.14-0.18-2.61-1.92-2.78-3.05c-0.21-2.2,2.96-3.35,7.03-2.68
			c-1.56,0.33-2.83,0.43-3.46,1.02c-0.83,0.66-1.16,1.74-1.77,2.68c1.14,0.18,2.23,0.86,3.21,0.62
			C706.48,455.24,707.23,454.01,708.26,452.92z"/>
		<path d="M572.14,635.22c0.25,1.34,0.35,2.62,0.74,3.67c0.29,0.49,2.14,0.65,2.28,0.36c0.61-0.94,0.72-2.29,1.75-3.39
			c-0.17,1.5,0.23,3.26-0.38,4.2c-1.24,1.53-4.88,0.7-5.85-0.97C569.5,637.49,570.04,636.34,572.14,635.22z"/>
		<path d="M533.06,156.15c0.71-0.02,2.26-0.35,2.34-0.14c0.39,1.06,0.92,2.53,0.38,3.33c-0.47,1.01-2.07,2.19-3.14,2.22
			c-1.71-0.1-3.43-0.9-5.08-1.49c1.03-1.09,1.85-2.47,3.03-3.49C531.35,156.05,532.5,156.23,533.06,156.15
			c-1.32,0.96-2.71,2.06-4.18,2.96c0.15,0.42,0.31,0.84,0.39,1.41c1.49-0.18,3.13,0.06,4.4-0.4c0.7-0.37,1.16-1.74,1.27-2.73
			C534.93,157.02,533.78,156.48,533.06,156.15z"/>
		<path d="M606.08,803.26c-1.11,0.88-2.16,1.62-3.48,2.58c1.77,2.22,3.22,3.25,5.12,0.29c0.23,2.91-1.46,3.52-3.18,3.07
			c-1.36-0.46-2.47-1.85-3.63-2.74c1.46-1.25,2.84-2.71,4.3-3.95C605.71,802.56,605.86,802.98,606.08,803.26z"/>
		<path d="M274.35,478.54c0.06,2.13,0.67,3.82,0.05,4.4s-2.33,0.49-3.4,0.16c-0.44-0.2-0.92-2.18-0.57-2.54
			C271.12,479.83,272.53,479.44,274.35,478.54z"/>
		<path fill="#00FF8D" d="M572.84,888.48c-0.59-0.63-1.38-1.17-1.76-1.87c-12.46-27.01-28.55-51.85-45.63-76.1
			c-27.2-38.6-57.24-74.85-89.92-108.83c-13.09-13.63-26.94-26.39-40.37-39.66c-0.58-0.62-0.97-1.68-1.49-2.44
			c0.28-0.22,0.56-0.44,1.05-0.74c2.11,1.86,4.43,3.64,6.54,5.5c51.11,48.17,96.68,101.12,136.2,159.13
			c12.8,18.75,24.2,38.26,34.14,58.66c0.82,1.61,1.44,3.3,2.05,4.98C573.32,887.82,573.18,888.11,572.84,888.48z"/>
		<path fill="#00FF8D" d="M263.6,560.23c-1.01-0.47-2.09-0.8-2.88-1.34c-13.07-7.67-25.87-15.91-39.13-23.15
			c-34.33-18.8-69.92-34.52-106.39-48.72c-31.88-12.41-64.35-23.16-98.5-28.05c-2.78-0.42-5.56-0.84-8.28-1.41
			c-0.14-0.07-0.22-0.28-0.88-1.11c4.13,0.53,7.98,0.92,11.61,1.39c35.72,4.91,69.43,16.78,102.74,29.85
			c37.48,14.67,73.95,31.14,109.01,50.99c10.53,5.96,20.8,12.5,31.2,18.75c0.65,0.48,1.24,1.1,1.89,1.58
			C264.07,559.58,263.8,559.8,263.6,560.23z"/>
		<path fill="#00FF8D" d="M383.26,722.51c3.22,0.98,6.64,1.52,9.81,3c23.9,11.49,43.73,27.57,57.29,50.7
			c2.61,4.54,4.32,9.9,5.39,15.12c1.61,7.06-1.78,12.83-8.98,14.74c-4.79,1.27-9.96,1.84-14.94,1.62
			c-16.85-0.67-32.07-6.72-46.78-14.63c-16.94-9.12-31.83-21.14-46.44-33.39c-20.08-17.06-37.51-36.4-51.75-58.46
			c-0.6-0.98-1.05-1.89-1.02-3.45c0.44,0.56,1.09,1.04,1.32,1.67c20.04,31.41,46.24,56.76,76.24,78.45
			c14.64,10.68,30.08,19.63,47.42,24.91c9.67,2.93,19.66,4.79,29.86,3.58c1.84-0.19,3.6-0.6,5.29-1.21
			c6.47-2.24,9.46-7.15,8.28-14.01c-1.78-10.46-6.99-19.2-13.67-27.04c-13.43-15.9-29-29.11-48.12-37.67
			c-3.17-1.48-6.53-2.17-9.68-3.29C383.13,723.15,383.27,722.86,383.26,722.51z"/>
		<path fill="#00FF8D" d="M92.16,506.76c1.02,0.82,1.75,1.52,2.48,2.21c-0.07,0.14-0.21,0.43-0.42,0.51
			c-1.29-0.6-2.66-1.42-3.96-2.02c2.61-5.97,6.68-7.57,12.02-4.73c7.42,3.99,11.58,10.48,13.71,18.3c0.86,3.03-0.5,5.2-3.67,6
			c-0.57,0.09-1.13,0.17-1.7,0.26c-17.05-0.24-33.73-2.41-46.79-14.98c-2.99-2.97-5.37-6.88-7.04-10.82
			c-2.14-5.2-0.4-9.29,4.72-11.64c2.88-1.29,6.17-2.73,9.3-2.67c10.8,0.13,21.59-0.09,32.22,1.53c15.9,2.33,28.66,11.79,40.59,21.9
			c0.22,0.28,0.37,0.7,0.18,1.49c-1.02-0.82-2.1-1.51-2.97-2.26c-8.87-7.29-18.28-13.78-29.25-17.66
			c-5.1-1.85-10.67-3.05-16.08-3.47c-7.55-0.72-15.29-0.65-22.82-0.65c-4.54-0.02-9.14,0.82-12.81,4.19
			c-1.94,1.9-2.87,4.27-2.37,6.96c0.84,4.59,3.08,8.44,6.36,11.54c7.94,7.38,17.31,12.1,27.93,13.72c5.57,0.84,11.26,1.39,17.1,1.66
			c4.83,0.15,6.33-1.95,4.64-6.59c-2.08-6.05-5.49-11.14-10.98-14.76C97.91,501.56,96.49,501.6,92.16,506.76z"/>
		<path fill="#00FF8D" d="M538.72,843.68c-2.9-4.68-5.65-9.29-8.55-13.97c-19.78-32.34-43.67-61.52-70.82-88.19
			c-10.58-10.36-22.35-19.7-33.55-29.48c-0.59-0.62-1.45-1.03-2.25-1.57c-3.39-2.11-4.17-1.95-7.05,1.97
			c-5.04-5.33-9.87-10.38-14.77-15.65c0.28-0.22,0.62-0.58,0.9-0.81c4.46,4.71,8.92,9.41,13.32,14.27c3.89-3.09,5.6-2.99,10.16,0.36
			c14.43,10.76,27.63,23.04,40.2,35.9c20.67,21.02,39.06,43.96,55.7,68.01c6.36,9.27,11.82,18.99,17.69,28.57
			C539.35,843.44,539,843.45,538.72,843.68z"/>
		<path fill="#00FF8D" d="M51.75,537.85c1.01,0.82,2.17,1.72,3.19,2.54c13.52,11.21,28.95,17.17,46.75,18.46
			c15.08,1.08,29.89-0.25,44.61-2.15c4.11-0.54,8.09-3.06,11.72-5.22c2.59-1.42,2.87-4.27,2.29-7.17
			c-1.97-9.68-4.01-19.21-11.24-26.61c-0.22-0.28-0.23-0.63-0.54-1.48c1.09,0.68,1.66,0.95,2.1,1.51
			c4.84,5.41,8.34,11.42,9.53,18.63c0.44,2.83,1.22,5.65,1.8,8.54c0.65,3.11-0.04,6.11-2.84,7.61c-4.35,2.18-8.89,4.79-13.42,5.48
			c-17.83,2.55-35.71,3.32-53.6,0.76c-15.48-2.13-28.19-9.81-40.03-19.36c-0.22-0.28-0.37-0.7-0.59-0.98
			C51.4,538.21,51.68,537.99,51.75,537.85z"/>
		<path fill="#00FF8D" d="M334.24,610.85c-1.01-0.47-1.94-0.73-2.88-1.34c-12.4-9.11-24.66-18.5-37.12-27.46
			c-7.03-5.21-14.41-10.05-21.58-14.96c-1.3-0.96-2.46-1.85-3.77-2.81c0.14-0.29,0.13-0.64,0.26-0.93c1.07,0.33,2.07,0.44,3.01,1.05
			c5.64,3.68,11.28,7.36,16.79,11.33c14.64,10.68,29.07,21.43,43.5,32.19c0.8,0.55,1.53,1.24,2.11,1.86
			C334.57,610.13,334.37,610.56,334.24,610.85z"/>
		<path fill="#00FF8D" d="M343.99,616.97c0.94,0.61,1.81,1.02,2.68,1.77c13.66,11.27,27.39,22.4,41.05,33.68
			c1.17,0.89,1.71,2.72,2.53,3.98c-1.37-0.82-2.88-1.34-4.04-2.23c-13.52-11.21-27.04-22.41-40.56-33.62
			c-0.87-0.76-1.68-1.66-2.48-2.56C343.37,617.56,343.72,617.2,343.99,616.97z"/>
		<path fill="#00FF8D" d="M137,572.16c3.08,0.91,6.09,1.96,9.16,2.52c7.36,1.5,14.94,3.64,22.34,3.93
			c13.58,0.55,21.35-8.61,20.27-22.08c-0.72-8.22-3.13-15.82-6.95-23.04c-0.53-1.12-1.12-2.1-1.02-3.45
			c0.44,0.56,1.03,1.18,1.4,1.88c4.64,8.47,7.65,17.4,7.78,27.27c0.17,11.29-6.78,19.43-18.11,20.46
			C159.61,580.77,148,577.11,137,572.16z"/>
		<path fill="#00FF8D" d="M446.34,751.39c12.14,12.66,21.97,26.88,23.82,45.09c1,10.27-4.26,18.16-13.15,20.32
			c2.03-1.33,4.34-2.53,6-4.21c7.2-6.8,6.75-15.24,4.45-23.84c-3.18-12.34-9.71-22.75-17.58-32.54c-1.1-1.39-2.06-2.71-3.02-4.04
			C446.57,752.02,446.42,751.6,446.34,751.39z"/>
		<path fill="#00FF8D" d="M36.96,524.47c-3.9-2.17-5.83-5.52-4.81-9.6c1.42-5.29,0.23-9.88-2.38-14.42c-1.56-2.66-3-5.6-4.07-8.55
			c-3.91-10.4,0.8-17.49,10.16-20.66c5.63-1.93,11.82-1.67,17.77-2.4c0.15,0.42,0.09,0.92,0.25,1.34c-0.43,0.15-0.85,0.31-1.2,0.32
			c-0.36,0.01-0.86-0.05-1.35-0.1c-4.19,0.33-8.52,0.23-12.76,1.06c-10.24,2.06-15.18,11.14-11.22,20.69
			c1.75,4.14,4.13,8.05,5.73,12.13c0.85,2.32,1.49,5.07,0.91,7.43C32.55,516.64,33.45,520.73,36.96,524.47z"/>
		<path fill="#00FF8D" d="M202.31,607.16c10.09-5.11,17.07-12.19,18.74-23.67c1.07-7.56-0.55-14.97-3.59-21.99
			c-1.36-3.09-2.93-6.1-4.02-9.41c5.54,7.66,8.97,16.09,9.44,25.6c0.63,12.55-6.46,23.62-18.04,28.55
			C204.07,606.75,203.15,606.85,202.31,607.16z"/>
		<path fill="#00FF8D" d="M479.61,785.99c16.19,15.61,29.32,33.29,39.6,53.32C508.03,820.08,494.41,802.7,479.61,785.99z"/>
		<path fill="#00FF8D" d="M247.09,626.45c10.34-16.55,22.57-31.52,34.44-46.83c0.36,0.35,0.65,0.48,1.02,0.83
			C270.75,595.62,259.02,611,247.09,626.45z"/>
		<path fill="#00FF8D" d="M327.22,637.18c15.43,3.34,46.77,24.78,51.23,34.39c-7.78-6.6-15.99-13.06-23.71-20.16
			C346.94,644.1,336.03,642.69,327.22,637.18z"/>
		<path fill="#00FF8D" d="M376.49,732.14c3.75,4.73,7.15,9.46,11.03,13.9c5.29,6.32,11.27,11.91,19.03,15.17
			c0.86,0.4,1.87,0.87,2.87,0.99c1.7,0.1,3.34-0.02,5.11-0.07c-0.47-1.62-0.6-3.61-1.41-4.86c-2.14-2.92-4.69-5.34-6.62-8.34
			c2.77,2.69,5.82,5.17,8.1,8.16c1.11,1.39,1.03,3.81,1.3,5.86c-1.84,0.19-3.95,0.96-5.73,0.65c-2.57-0.5-5.3-1.42-7.47-2.78
			c-11.19-6.8-18.99-16.74-25.89-27.49C376.51,732.85,376.64,732.56,376.49,732.14z"/>
		<path fill="#00FF8D" d="M268.37,638.3c-0.04,1.21,0.28,2.41-0.05,3.48c-2.13,7.94-0.36,15.42,2.19,22.74
			c2.39,6.9,5.48,13.42,8.29,20.16c0.45,0.91,0.69,1.9,0.51,3.04C271.43,672.31,263.05,656.84,268.37,638.3z"/>
		<path fill="#00FF8D" d="M326.48,618.09c-8.22-4.53-16.23-9.14-24.65-13.25c-8.43-4.1-17.19-7.48-25.52-11.02
			C283.33,593.43,319.82,610.96,326.48,618.09z"/>
		<path fill="#00FF8D" d="M270.6,624.1c5.11-7.95,11.78-10.98,20.49-9.37c11.28,2.1,20.06,8.83,28.83,15.54
			c-0.13,0.29-0.2,0.43-0.33,0.72c-1.45-1.03-3.11-1.97-4.56-3c-5.92-3.46-11.71-7.56-17.9-10.45c-10.43-4.69-17.48-2.72-25.27,5.74
			C271.3,623.73,271.09,623.81,270.6,624.1z"/>
		<path fill="#00FF8D" d="M378.13,701.55c-9.44-0.02-16.51,3.86-21.71,10.9c-5.34,7.32-4.49,15.25-1.84,23.84
			c-5.26-7.88-4.35-18.85,1.7-26.18C361.72,703.71,372.6,699.15,378.13,701.55z"/>
		<path fill="#00FF8D" d="M296.14,664.38c-4.67-9.89-2.75-20.03,3.94-22.34c-3.4,3.15-5.51,6.54-5.25,10.87
			C295.3,656.81,295.76,660.7,296.14,664.38z"/>
		<path fill="#00FF8D" d="M488.45,846.69c7.34,3.78,10.6,11.07,14.69,17.7C498.15,858.57,493.37,852.66,488.45,846.69z"/>
		<path fill="#00FF8D" d="M382.95,675.07c5.12,5.54,10.46,11.01,15.58,16.55c-0.28,0.22-0.62,0.59-0.9,0.81
			c-5.12-5.54-10.32-10.94-15.58-16.55C382.47,675.72,382.67,675.29,382.95,675.07z"/>
		<path fill="#00FF8D" d="M311.01,691.11c-4.13-5.78-8.19-11.35-12.33-17.13c0.28-0.22,0.56-0.44,0.98-0.6
			c3.92,5.86,8.06,11.64,11.98,17.5C311.64,690.88,311.29,690.89,311.01,691.11z"/>
		<path fill="#00FF8D" d="M476.63,837.85c3.82-2.95,7.86-5.97,11.75-9.06C485.96,833.62,481.78,836.57,476.63,837.85z"/>
		<path fill="#00FF8D" d="M468.66,839.92c-5.26,0-10.52,0-15.77,0.01c-0.01-0.35,0.06-0.5,0.05-0.85c5.25,0,10.51-0.01,15.83-0.15
			C468.57,839.35,468.58,839.71,468.66,839.92z"/>
		<path fill="#00FF8D" d="M267.73,591.94c-4.13-0.53-8.2-1.2-12.48-1.79c-0.01-0.35,0.13-0.64,0.05-0.85
			c4.14,0.53,8.27,1.05,12.55,1.64C267.86,591.29,267.72,591.58,267.73,591.94z"/>
		<path fill="#00FF8D" d="M338.21,626.37c4.5,3.5,9.15,7.07,13.65,10.56c-0.07,0.14-0.14,0.29-0.35,0.36
			c-4.5-3.5-9.14-7.07-13.64-10.56C338,626.44,338.15,626.51,338.21,626.37z"/>
		<path fill="#00FF8D" d="M136.85,572.09c-4.23-1.45-8.46-2.89-12.75-4.2c0.13-0.29,0.33-0.72,0.47-1.01
			C128.66,568.62,132.76,570.35,136.85,572.09C137,572.16,136.85,572.09,136.85,572.09z"/>
		<path fill="#FFFFFF" d="M631.65,730.75c-3.32-1.9-6.64-3.8-10.24-5.83c-2.28,2.62-4.76,5.32-7.18,7.87
			c-0.28-0.13-0.36-0.34-0.65-0.48c1.92-2.61,3.84-5.22,5.97-7.55c1.52-1.75,1.42-2.67-0.39-4.04c-2.75-1.99-5.3-4.05-7.98-6.17
			c0.13-0.29,0.26-0.58,0.4-0.86c4.67,2,9.2,3.94,13.37,5.88c2.33-3.12,4.94-6.46,8.02-10.45c-1.82,3.53-3.37,6.49-4.92,9.44
			c-1.49,2.81-1.56,5.23,0.85,7.58c1.23,1.1,2.13,2.57,3.09,3.89C632,730.38,631.79,730.46,631.65,730.75z"/>
		<path fill="#FFFFFF" d="M521.77,47.36c-1.54,1.04-3.49,2.23-5.45,3.42c-0.14-0.07-0.22-0.28-0.37-0.35
			c1.79-2.32,3.5-4.5,5.35-6.97c-2.04-2-3.86-3.73-5.69-5.46c0.07-0.14,0.14-0.29,0.21-0.43c3.23,1.33,6.53,2.52,9.47,3.72
			c1.86-2.11,3.38-3.86,5.1-5.68c0.15,0.07,0.15,0.07,0.22,0.28c-2.19,2.83-4.45,5.8-6.72,8.78c1.55,1.95,3.1,4.25,4.87,6.47
			c-0.28,0.22-0.41,0.51-0.69,0.73C526.32,50.36,524.3,49.07,521.77,47.36z"/>
		<path d="M697.12,401.66c-2.26-2.28-4.52-4.56-6.79-6.84c0.2-0.43,0.34-0.72,0.68-1.08c2.66,1.06,5.24,1.92,7.83,3.12
			c2.73,1.27,4.36,1.16,6.49-1.53c2.89-3.56,6.36-6.5,9.61-9.71c0.62-0.58,0.96-1.3,2.22-1.77c-0.47,1.01-0.65,2.15-1.26,3.09
			c-3.42,4.71-6.99,9.35-10.56,14c-1.3,1.67-1.27,2.73-0.09,4.33c1.7,2.37,2.98,4.89,4.32,7.27c-0.35,0.37-0.62,0.59-0.97,0.95
			c-2.24-1.57-4.69-2.71-6.66-4.51c-2.11-1.86-3.81-1.6-5.82,0.09c-2.15,1.98-4.29,3.95-7,6.37
			C690.31,409.52,694.77,406.34,697.12,401.66z M699.44,405.71c2.53,1.71,4.49,3.14,6.51,4.44c0.28-0.22,0.41-0.51,0.69-0.73
			c-1.7-2.37-3.46-4.59-4.86-6.47c2.26-2.97,4.52-5.95,6.72-8.78c-0.15-0.07-0.15-0.07-0.22-0.28c-1.59,1.89-3.24,3.57-5.1,5.68
			c-3.09-1.26-6.39-2.45-9.48-3.72c-0.07,0.14-0.14,0.29-0.2,0.43c1.82,1.73,3.64,3.45,5.69,5.46c-1.85,2.47-3.64,4.79-5.35,6.97
			c0.14,0.07,0.22,0.28,0.36,0.34C695.95,407.94,697.9,406.75,699.44,405.71z"/>
		<path fill="#FFFFFF" d="M699.44,405.71c-1.54,1.04-3.49,2.23-5.45,3.42c-0.14-0.07-0.22-0.28-0.36-0.35
			c1.78-2.32,3.5-4.5,5.35-6.96c-2.05-2-3.87-3.73-5.69-5.46c0.06-0.14,0.13-0.29,0.2-0.43c3.23,1.33,6.53,2.52,9.48,3.72
			c1.86-2.11,3.37-3.86,5.1-5.68c0.14,0.07,0.14,0.07,0.22,0.28c-2.2,2.83-4.46,5.8-6.72,8.78c1.54,1.95,3.1,4.25,4.86,6.47
			c-0.28,0.22-0.41,0.51-0.69,0.73C703.93,408.86,701.9,407.56,699.44,405.71z"/>
		<path d="M384.54,238.78c-2.27-2.28-4.53-4.56-6.79-6.85c0.2-0.43,0.33-0.72,0.68-1.08c2.65,1.06,5.23,1.92,7.82,3.12
			c2.74,1.27,4.37,1.16,6.5-1.53c2.88-3.56,6.35-6.5,9.6-9.71c0.63-0.59,0.96-1.3,2.23-1.77c-0.47,1.01-0.65,2.15-1.27,3.09
			c-3.42,4.71-6.99,9.35-10.55,14c-1.31,1.67-1.28,2.73-0.1,4.33c1.7,2.37,2.98,4.89,4.32,7.27c-0.34,0.36-0.62,0.58-0.96,0.95
			c-2.25-1.57-4.7-2.71-6.66-4.51c-2.11-1.86-3.81-1.6-5.82,0.09c-2.15,1.98-4.3,3.95-7,6.37
			C377.66,246.78,382.18,243.46,384.54,238.78z M386.79,242.98c2.53,1.71,4.49,3.14,6.51,4.44c0.28-0.22,0.41-0.51,0.69-0.73
			c-1.7-2.37-3.46-4.59-4.87-6.47c2.27-2.97,4.53-5.95,6.72-8.78c-0.14-0.07-0.14-0.07-0.22-0.28c-1.58,1.89-3.24,3.57-5.1,5.68
			c-3.09-1.26-6.39-2.45-9.47-3.72c-0.07,0.14-0.14,0.29-0.21,0.43c1.83,1.72,3.65,3.45,5.69,5.45c-1.85,2.46-3.63,4.79-5.34,6.96
			c0.14,0.07,0.22,0.28,0.36,0.35C383.36,245.06,385.32,243.87,386.79,242.98z"/>
		<path fill="#FFFFFF" d="M386.79,242.98c-1.54,1.04-3.49,2.23-5.45,3.42c-0.14-0.07-0.22-0.28-0.37-0.35
			c1.79-2.32,3.5-4.5,5.35-6.97c-2.04-2-3.86-3.73-5.69-5.45c0.07-0.14,0.14-0.29,0.21-0.43c3.23,1.33,6.53,2.52,9.47,3.72
			c1.86-2.11,3.38-3.86,5.1-5.68c0.15,0.07,0.15,0.07,0.22,0.28c-2.19,2.83-4.45,5.8-6.72,8.78c1.55,1.95,3.1,4.25,4.87,6.47
			c-0.28,0.22-0.41,0.51-0.69,0.73C391.34,245.98,389.32,244.69,386.79,242.98z"/>
		<path fill="#FFFFFF" d="M851.55,350.33c2.36,3.2,1.65,5.85-1.67,6.58c-2.54,0.57-6.91-0.95-7.25-2.86
			c-0.24-0.99,0.43-2.43,1.27-3.09c2.14-1.98,4.07-1.6,7.2,1.08C851.22,351.4,851.35,350.76,851.55,350.33z"/>
		<path fill="#FFFFFF" d="M269.81,92.98c1.66-1.32,2.97-2.99,4.59-3.46c1.2-0.32,2.87,0.99,4.16,1.59c-0.68,1.08-1.07,2.3-2.05,2.9
			C274.49,95.34,272.28,95.19,269.81,92.98z"/>
		<path fill="#FFFFFF" d="M448.88,88.35c0.86,2.68-0.45,4.35-2.62,5.26c-0.43,0.15-2.16-1.01-2.03-1.29
			C444.81,89.96,446.33,88.57,448.88,88.35z"/>
		<path fill="#FFFFFF" d="M140.14,409.84c2.27-0.35,3.96-0.6,5.58-1.08c0.11,1.28,0.95,3.24,0.4,4.04c-1.37,1.81-3.5,1.87-5.25,0.36
			C140.22,412.68,140.47,411.4,140.14,409.84z"/>
		<path fill="#FFFFFF" d="M202.18,478.17c-1.14-0.18-2.43-0.43-3.44-0.9c-0.43-0.2-0.62-2.04-0.41-2.12
			c1.06-0.38,2.46-1.13,3.18-0.8c0.71,0.34,0.9,1.82,1.28,2.88C202.66,477.52,202.46,477.95,202.18,478.17z"/>
		<path fill="#FFFFFF" d="M768.46,252.39c1.17,3.88,0.48,4.6-3.65,4.08C766.19,255.01,767.22,253.92,768.46,252.39z"/>
		<path fill="#FFFFFF" d="M685.46,678.06c2.05-0.62,3.67-1.09,5.08-1.49c0.16,0.78,0.54,1.83,0.2,2.2
			C689.36,680.23,687.87,680.41,685.46,678.06z"/>
		<path fill="#FFFFFF" d="M533.06,156.15c0.65,0.48,1.87,0.87,1.88,1.23c-0.26,0.93-0.57,2.36-1.27,2.73
			c-1.27,0.46-2.98,0.37-4.4,0.4c-0.15-0.42-0.3-0.84-0.39-1.41C530.42,158.07,531.74,157.11,533.06,156.15
			C533.27,156.07,533.06,156.15,533.06,156.15z"/>
		<path d="M174.88,182.39c-2.26-2.28-4.53-4.56-6.79-6.85c0.2-0.43,0.33-0.72,0.68-1.08c2.66,1.06,5.24,1.92,7.83,3.12
			c2.73,1.27,4.36,1.16,6.49-1.53c2.88-3.56,6.36-6.5,9.61-9.71c0.62-0.59,0.95-1.31,2.22-1.77c-0.47,1.01-0.65,2.15-1.26,3.09
			c-3.43,4.71-6.99,9.35-10.56,14c-1.3,1.67-1.27,2.73-0.09,4.34c1.7,2.37,2.97,4.89,4.32,7.27c-0.35,0.37-0.63,0.59-0.97,0.95
			c-2.25-1.57-4.69-2.71-6.66-4.51c-2.11-1.86-3.81-1.6-5.82,0.09c-2.15,1.98-4.3,3.95-7,6.37
			C168.14,190.45,172.52,187.07,174.88,182.39z M177.13,186.59c2.53,1.71,4.49,3.14,6.51,4.44c0.28-0.22,0.41-0.51,0.69-0.73
			c-1.7-2.37-3.46-4.59-4.86-6.47c2.26-2.97,4.52-5.95,6.72-8.78c-0.15-0.07-0.15-0.07-0.22-0.28c-1.59,1.89-3.24,3.57-5.1,5.68
			c-3.09-1.27-6.39-2.45-9.48-3.72c-0.07,0.14-0.14,0.29-0.2,0.43c1.82,1.73,3.64,3.45,5.69,5.45c-1.85,2.47-3.64,4.79-5.35,6.96
			c0.14,0.07,0.22,0.28,0.36,0.35C173.71,188.67,175.66,187.48,177.13,186.59z"/>
		<path d="M105.36,224.42c0.19,1.49,0.66,3.11,0.77,4.74c0.23,2.91-1.37,4.44-3.98,4.8c-1.14,0.17-2.93-0.49-3.74-1.39
			c-0.44-0.56,0.15-2.56,0.9-3.43c0.83-1.02,2.37-1.7,3.42-2.44C103.42,225.97,104.25,225.31,105.36,224.42z M104.39,227.65
			c-2.7,0.14-4.22,1.54-4.65,3.96c-0.14,0.29,1.6,1.45,2.02,1.29C103.94,231.99,105.24,230.32,104.39,227.65z"/>
		<path d="M194.01,105.65c1.56,2.3,1.26,4.44-0.83,5.92c-1.81,1.26-4,1.82-5.75-0.05c-1.69-2.01-0.61-3.96,1.06-5.29
			c1.67-1.32,3.63-2.16,5.75-2.57c-1.67,1.32-3.7,2.3-5.15,3.91c-0.69,0.73-0.22,2.35-0.4,3.49c1.2-0.32,2.84-0.08,3.53-0.81
			C193.26,109.15,193.42,107.3,194.01,105.65z"/>
		<path d="M188.57,295.44c0.71-0.02,2.26-0.35,2.34-0.14c0.38,1.06,0.92,2.53,0.37,3.33c-0.47,1.01-2.07,2.19-3.13,2.22
			c-1.71-0.1-3.44-0.9-5.09-1.49c1.04-1.09,1.85-2.47,3.03-3.49C186.86,295.34,187.86,295.46,188.57,295.44
			c-1.33,0.96-2.72,2.06-4.18,2.96c0.15,0.42,0.3,0.84,0.39,1.41c1.49-0.18,3.13,0.06,4.39-0.4c0.7-0.37,1.16-1.74,1.28-2.73
			C190.44,296.31,189.14,295.71,188.57,295.44z"/>
		<path fill="#FFFFFF" d="M177.13,186.59c-1.54,1.04-3.49,2.23-5.45,3.42c-0.14-0.07-0.22-0.28-0.36-0.35
			c1.78-2.32,3.5-4.5,5.35-6.97c-2.05-2-3.87-3.73-5.69-5.46c0.06-0.14,0.13-0.29,0.2-0.43c3.23,1.33,6.53,2.52,9.47,3.72
			c1.86-2.11,3.38-3.86,5.11-5.68c0.14,0.07,0.14,0.07,0.22,0.28c-2.2,2.83-4.46,5.8-6.72,8.78c1.54,1.95,3.1,4.25,4.86,6.47
			c-0.28,0.22-0.41,0.51-0.69,0.73C181.69,189.59,179.66,188.29,177.13,186.59z"/>
		<path fill="#FFFFFF" d="M104.39,227.65c0.85,2.68-0.45,4.35-2.63,5.26c-0.42,0.15-2.16-1.01-2.02-1.29
			C100.17,229.18,101.69,227.79,104.39,227.65z"/>
		<path fill="#FFFFFF" d="M188.57,295.44c0.65,0.48,1.87,0.87,1.88,1.23c-0.26,0.93-0.58,2.36-1.28,2.73
			c-1.26,0.46-2.97,0.36-4.39,0.4c-0.15-0.42-0.31-0.84-0.39-1.41C185.78,297.29,187.24,296.4,188.57,295.44
			C188.78,295.36,188.57,295.44,188.57,295.44z"/>
		<path d="M717.22,587.77c-0.44-3.18-0.95-6.22-1.54-9.48c0.42-0.15,0.7-0.38,1.12-0.53c1.56,2.3,3.11,4.6,4.46,6.98
			c1.42,2.59,2.93,3.47,6.11,2.67c4.44-1.26,9.05-1.39,13.5-2.29c0.78-0.16,1.62-0.47,2.84-0.08c-0.98,0.59-1.88,1.4-2.87,1.64
			c-5.56,1.79-11.2,3.36-16.84,4.94c-1.97,0.48-2.59,1.42-2.53,3.55c-0.06,2.77-0.55,5.7-0.83,8.55c-0.35,0.01-0.78,0.16-1.27,0.11
			c-0.93-2.53-2.06-4.99-2.77-7.59c-0.64-2.75-2.16-3.63-4.78-3.28c-2.83,0.43-5.73,0.65-9.56,0.97
			C707.05,590.03,712.67,590.02,717.22,587.77z M716.64,592.4c1.07,2.95,1.77,5.21,2.62,7.53c0.35-0.01,0.63-0.23,0.99-0.24
			c-0.08-2.84-0.02-5.61-0.08-8.09c3.66-1.1,7.11-2.11,10.56-3.13c0.07-0.14-0.07-0.21-0.01-0.35c-2.33,0.49-4.66,0.98-7.41,1.62
			c-1.85-2.79-3.64-5.73-5.42-8.66c-0.21,0.08-0.21,0.08-0.42,0.15c0.42,2.47,0.84,4.95,1.28,7.78c-3.03,0.86-5.71,1.72-8.53,2.51
			c0.08,0.21,0.01,0.35,0.09,0.57C712.58,592.08,714.79,592.24,716.64,592.4z"/>
		<path d="M702.16,468.64c-0.7-2.25-0.62-4.32,2.14-4.96c4.16-1.04,7.91,1.06,8.8,5.16c0.56,2.19,0.12,4.26-2.63,4.9
			C706.87,474.69,703.33,472.52,702.16,468.64z M711.2,471.8c0.19-0.79,1.15-2.09,0.97-3.22c-0.64-2.75-4.16-4.22-6.63-3.44
			c-2.04,0.62-2,2.04-1.38,3.73C704.88,471.83,707.11,473.05,711.2,471.8z"/>
		<path d="M825.18,463.63c0.42-0.51,1.09-1.95,2-2.4c3.8-1.38,8.82,0.61,9.25,3.44c0.42,2.12-0.31,4.06-2.71,4.69
			C830.62,470.37,826.37,467.86,825.18,463.63z M834.39,467.92c0.34-0.72,1.15-2.09,0.98-3.22c-0.2-2.2-3.65-3.45-6.74-2.44
			c-0.78,0.16-1.66,1.68-1.64,2.39C827.49,467.33,830.65,468.81,834.39,467.92z"/>
		<path d="M636.26,580.33c-0.61,1.3-1.34,2.88-2.16,4.25c-1.49,2.46-3.76,2.8-6.14,1.52c-1.15-0.54-1.97-2.15-2.15-3.28
			c-0.01-0.71,1.59-1.89,2.64-2.27c1.27-0.46,2.77,0.07,4.19,0.03C633.85,580.61,634.84,580.37,636.26,580.33z M633.69,582.46
			c-2.17-1.36-4.3-1.3-6.1,0.31c-0.28,0.22,0.41,2.12,0.84,2.32C630.79,585.66,632.77,585.18,633.69,582.46z"/>
		<path d="M778.12,537.16c-0.06,2.77-1.51,4.37-4.28,4.31c-2.28-0.01-4.29-0.95-4.5-3.5c-0.15-2.7,1.96-3.46,3.95-3.59
			c2.13-0.06,4.2,0.38,6.15,1.46c-2.13,0.06-4.27-0.24-6.39,0.18c-0.92,0.1-1.52,1.75-2.27,2.62c1.15,0.54,2.38,1.64,3.37,1.4
			C775.49,539.43,776.59,538.19,778.12,537.16z"/>
		<path d="M661.41,686.82c0.65,0.48,1.95,1.08,2.03,1.29c-0.33,1.07-0.86,2.58-1.56,2.96c-1.12,0.53-2.89,0.58-3.69,0.03
			c-1.3-0.96-2.06-2.71-3.17-4.1c1.56-0.33,3.03-0.86,4.52-1.05c0.71-0.02,1.44,0.67,2.3,1.07c-1.7-0.1-3.62-0.11-5.33-0.21
			c-0.2,0.43-0.4,0.86-0.46,1.36c1.23,0.75,2.47,1.85,3.75,2.1c0.79,0.19,1.9-0.69,2.74-1.35
			C662.46,688.71,661.79,687.52,661.41,686.82z"/>
		<path fill="#FFFFFF" d="M716.64,592.4c-1.85-0.16-4.06-0.31-6.41-0.53c-0.08-0.21-0.01-0.35-0.09-0.57
			c2.82-0.79,5.5-1.64,8.53-2.51c-0.5-2.68-0.86-5.3-1.28-7.78c0.21-0.08,0.21-0.08,0.42-0.15c1.79,2.93,3.72,5.93,5.42,8.66
			c2.76-0.64,5.09-1.13,7.42-1.62c-0.07,0.14,0.07,0.21,0.01,0.35c-3.46,1.02-6.91,2.04-10.57,3.13c0.07,2.48,0,5.26,0.08,8.1
			c-0.36,0.01-0.63,0.23-0.99,0.24C718.41,597.61,717.71,595.35,716.64,592.4z"/>
		<path fill="#FFFFFF" d="M711.2,471.8c-4.09,1.25-6.32,0.03-7.26-2.85c-0.61-1.69-0.51-3.04,1.39-3.73
			c2.68-0.85,6.13,0.76,6.63,3.44C712.35,469.71,711.39,471.02,711.2,471.8z"/>
		<path fill="#FFFFFF" d="M834.39,467.92c-3.74,0.88-6.84-0.74-7.26-3.21c-0.16-0.78,0.86-2.23,1.64-2.39
			c3.1-1.01,6.54,0.25,6.74,2.44C835.48,465.98,834.66,467.35,834.39,467.92z"/>
		<path fill="#FFFFFF" d="M633.69,582.46c-0.92,2.72-2.9,3.2-5.26,2.63c-0.5-0.06-1.12-2.1-0.84-2.32
			C629.39,581.16,631.38,581.03,633.69,582.46z"/>
		<path fill="#FFFFFF" d="M661.41,686.82c0.38,0.7,1.05,1.89,0.77,2.11c-0.69,0.73-1.95,1.54-2.73,1.35
			c-1.43-0.32-2.53-1.35-3.75-2.1c0.2-0.43,0.4-0.86,0.46-1.36c1.7,0.1,3.62,0.11,5.33,0.21
			C661.56,686.89,661.41,686.82,661.41,686.82z"/>
		<path fill="#FFFFFF" d="M224.86,432.52c-21.06-16.82-30.62-39.15-29.43-65.74c0.94-22.68,17.23-39.61,40.59-42.74
			c7.64-0.99,15.45-1.21,23.21-0.57c22.7,1.65,39.43,13.48,51.04,32.55c6.47,10.55,7.22,22.46,5.78,34.57
			c-1.91,16.1-6.9,30.94-18.35,43.12c-10.42,11.08-23.24,15.27-38.13,13.4C246.52,445.42,235.17,440.48,224.86,432.52z
			 M287.43,339.25c-0.13,0.29-0.27,0.58-0.4,0.86c1.23,0.75,2.52,1.35,3.82,1.95c0.14,0.07,1.04-0.74,0.97-0.95
			c-0.54-1.48-0.94-3.24-2.11-4.13c-2.11-1.86-4.56-3.36-6.81-4.93c-5.57-3.83-12-5.07-18.36-6.46
			c-10.93-2.47-22.07-1.88-33.08,0.69c-26.11,6.04-38.51,30.39-32.82,56.51c0.62-0.58,1.24-1.17,1.45-1.25c0.4,1.41,1,2.74,1.4,4.15
			c0.42-0.15,0.77-0.16,1.2-0.32c-0.12-1.63-0.09-3.19-0.21-4.82c0.36-0.01,0.71-0.02,1.07-0.03c-0.09,2.06-0.03,4.19-0.05,6.11
			c-1.35-0.11-2.7-0.21-4.06-0.32c2.78,28.62,39.22,62.42,63.55,58.7c-1.55-2.3-3.11-4.6-4.74-7.11c1.69-0.62,2.74-1,4.08-1.6
			c-0.47-1.27-1.2-2.31-1.09-3.31c0.24-1.64,0.47-3.63,1.44-4.58c3.05-2.78,12.29-2.33,15.85,0.56c-1.57-0.38-2.79-0.78-4-0.81
			c-3.12-0.06-6.26-0.47-9.3,0.04c-2.62,0.36-3.99,2.17-2.7,5.05c1.21,2.66,1.98,5.13-2.71,5.05c1.4,1.88,2.72,3.19,3.4,4.74
			c0.85,2.32,2.35,2.85,4.69,2.71c11.07-0.45,20.18-4.96,27.48-13.11c14.55-16.17,19.06-35.61,18.26-56.83
			c-0.1-0.92-0.34-1.91-0.58-2.9c-2.94,1.43-2.59,3.69-2.39,5.89c0.07,5.11,0,10.51-4.9,13.13c-5.17,2.84-6.34,6.85-6.2,12.17
			c0.19,6.74-3.59,11.46-9.93,13.41c-6.97,2.18-13.86-2.96-12.78-10.16c0.3-2.14,1.73-4.45,3.46-5.92
			c4.03-3.38,5.14-6.89,3.09-11.88c-1.37-3.09-0.24-5.89,2.48-7.95c1.67-1.33,3.48-2.58,5-3.97c3.61-3.22,4.04-5.65,1.37-9.7
			c-1.71-2.72-3.84-5.29-5.55-8.02c-0.52-0.77-0.69-1.9-0.93-2.89c3.15,3.39,5.73,6.88,8.1,10.43c2.82,4.47,2.53,6.61-1.28,10.26
			c-0.9,0.81-1.74,1.47-2.57,2.13c-5.98,4.57-6.05,4.71-4.08,11.76c0.94,3.24,0.38,5.96-2.26,8.23c-0.9,0.81-1.73,1.82-2.63,2.63
			c-2.63,2.63-3.48,7.84-1.78,10.21c2.3,3.35,7.52,4.91,11.1,3.25c5.4-2.56,8.72-5.92,8.09-13.22c-0.42-5.1,1.46-8.78,5.86-11.45
			c1.96-1.19,3.52-3.79,4.39-6.02c0.78-2.44,0.35-5.27,0.56-7.97c0.17-1.5,0.48-3.28,1.44-4.23c2.15-1.98,1.61-3.45-0.13-4.97
			c-2.26-1.93-4.79-3.63-7.7-6.04c3.53,1.82,6.56,3.23,9.8,4.92c-3.44-11.41-9.94-20.4-18.23-27.41c-0.96,1.3-1.89,3.32-2.54,3.2
			c-1.78-0.31-3.52-1.47-5.18-2.42c-0.29-0.13-0.26-1.7,0.09-2.06c0.76-0.52,1.83-0.55,2.82-0.79c0.01,0.35,0.23,0.63,0.24,0.99
			C288.78,339,288.14,339.23,287.43,339.25z"/>
		<path d="M287.43,339.25c0.57-0.09,1.2-0.32,1.77-0.4c-0.01-0.36-0.23-0.63-0.24-0.99c-0.99,0.24-2.05,0.27-2.82,0.79
			c-0.28,0.22-0.45,1.72-0.09,2.06c1.66,0.95,3.4,2.11,5.18,2.42c0.65,0.12,1.65-2.03,2.54-3.2c8.29,7.02,14.86,15.86,18.23,27.41
			c-3.24-1.69-6.27-3.1-9.8-4.92c2.98,2.26,5.44,4.11,7.7,6.04c1.74,1.51,2.28,2.99,0.13,4.97c-0.96,0.95-1.27,2.73-1.44,4.23
			c-0.36,2.64,0.22,5.53-0.56,7.97c-0.72,2.29-2.43,4.83-4.38,6.02c-4.47,2.82-6.44,6.29-5.87,11.45
			c0.77,7.37-2.69,10.66-8.09,13.22c-3.58,1.66-8.8,0.1-11.1-3.25c-1.7-2.37-0.7-7.51,1.78-10.21c0.9-0.81,1.73-1.82,2.63-2.63
			c2.78-2.21,3.13-4.85,2.26-8.23c-1.97-7.05-1.84-7.34,4.08-11.76c0.83-0.66,1.81-1.26,2.57-2.13c3.81-3.66,4.17-5.94,1.28-10.26
			c-2.37-3.56-4.95-7.04-8.1-10.43c0.24,0.99,0.48,1.98,0.93,2.89c1.71,2.72,3.84,5.29,5.55,8.02c2.67,4.05,2.45,6.4-1.37,9.7
			c-1.52,1.39-3.33,2.65-5,3.97c-2.72,2.06-3.85,4.86-2.48,7.95c2.12,4.84,0.94,8.5-3.09,11.88c-1.67,1.32-3.16,3.78-3.46,5.92
			c-0.87,7.13,5.95,12.41,12.78,10.16c6.41-2.09,10.19-6.81,9.93-13.41c-0.14-5.32,1.03-9.33,6.2-12.17
			c4.97-2.77,5.04-8.16,4.9-13.13c0.01-2.27-0.34-4.54,2.39-5.89c0.25,0.99,0.49,1.98,0.58,2.9c0.86,21.07-3.71,40.66-18.26,56.82
			c-7.3,8.16-16.41,12.67-27.48,13.11c-2.27-0.01-3.7-0.32-4.69-2.71c-0.61-1.69-2-2.86-3.4-4.74c4.69,0.09,3.92-2.38,2.71-5.05
			c-1.21-2.67,0.22-4.62,2.7-5.05c2.97-0.36,6.18-0.1,9.3-0.04c1.21,0.04,2.36,0.57,4,0.81c-3.49-3.03-12.95-3.41-15.85-0.56
			c-0.97,0.95-1.27,3.09-1.44,4.59c-0.11,1,0.63,2.04,1.09,3.31c-1.27,0.46-2.32,0.84-4.08,1.6c1.63,2.51,3.19,4.81,4.74,7.11
			c-24.19,3.79-60.77-30.08-63.55-58.7c1.36,0.1,2.71,0.21,4.06,0.32c0.09-2.06,0.03-4.19,0.05-6.11c-0.36,0.01-0.71,0.02-1.07,0.03
			c0.12,1.63,0.09,3.19,0.21,4.82c-0.43,0.15-0.78,0.16-1.2,0.32c-0.4-1.41-0.93-2.89-1.4-4.15c-0.21,0.08-0.83,0.66-1.45,1.25
			c-5.69-26.12,6.71-50.47,32.82-56.51c11.01-2.57,22.15-3.16,33.08-0.69c6.3,1.53,12.79,2.63,18.36,6.46
			c2.25,1.57,4.7,3.07,6.81,4.93c1.1,1.03,1.5,2.8,2.11,4.13c0.07,0.21-0.83,1.02-0.97,0.95c-1.3-0.6-2.52-1.35-3.82-1.96
			C287.16,339.82,287.3,339.54,287.43,339.25z M219.13,397.09c-1.67-1.3-3.4-2.11-4.36-3.43c-1.03-1.53-2.38-3.91-1.77-5.21
			c2.31-6.46,2.2-12.99,2.16-19.66c-0.05-4.4,2.72-6.96,7.25-5.03c3.74,1.74,4.78,1.01,6.53-2.74c1.82-3.53,3.71-4.58,7.64-3.62
			c1.43,0.32,2.88,1.34,4.24,1.8c0.93,0.26,2.06,0.09,3.62,0.11c-1.87-0.87-2.87-1.34-3.81-1.95c-5.2-3.13-10.71-1.84-13.11,3.7
			c-1.2,2.94-3.14,2.22-5.14,1.63c-5.52-1.7-8.17,0.22-8.22,5.98c0.04,1.42,0.08,2.84,0.05,4.4c-0.39,3.85-0.21,7.96-1.39,11.61
			c-1.5,4.73-1.26,8.34,2.8,11.29c0.65,0.48,1.09,1.04,1.68,1.66c-1.54,3.31-1.54,3.31,1.5,5.43c0.51,0.41,1.08,0.68,1.8,1.02
			c3.74,1.74,5.07,0.78,6.52-3.09c1-2.51,2.55-5.47,4.78-6.88c6.42-4.37,10.95-9.96,13.52-17.35c-0.77,0.52-1.74,1.11-2.15,1.98
			c-2.52,6.53-7.37,10.93-12.94,14.99c-2.3,1.55-3.42,4.71-4.98,7.31c-0.55,0.8-0.66,1.79-0.98,3.22c-2.38-1.28-4.33-2.37-6.42-3.52
			C218.12,399.25,218.53,398.39,219.13,397.09z M237.37,342.19c-3.02,3.85-2.37,6.95,1.65,8.48c4.45,1.73,8.91,1.18,12.89-1.35
			c2.73-1.71,2.73-3.98,0.19-6.04c-0.87-0.76-2.6-1.56-2.62-2.27c-0.08-2.84-1.92-2.65-3.69-2.6
			C242.24,338.5,239.22,339.72,237.37,342.19z M248.14,387.84c-4.36,1.47-7.53,5.25-7.23,8.37c0.15,2.7,2.85,5.53,6.06,5.8
			c1.99,0.23,4.19,0.03,6.23-0.6c2.61-0.71,5.05-2.2,5.18-5.47c0.12-3.27-2.41-4.98-4.94-6.33c3.69,4.87,4.04,7.14,0.91,9.71
			c-3.19,2.72-8.31,2.43-10.95-0.55C241.05,395.92,242.04,393.41,248.14,387.84z M251.8,358.2c3.08,0.91,6.01,1.75,9.03,2.81
			c1.07,0.33,2.44,1.14,2.61,1.92c0.82,4.24,2.5,8.53-0.01,12.79c-2.03,3.61-4.79,6.52-9.73,5.1c3.11,1.98,5.86,1.33,8.14-0.93
			c4.71-4.46,6.32-10.54,2.73-17.12C262.17,358.13,256.43,358.78,251.8,358.2z M277.19,351.46c1.29,0.6,3.53,1.82,5.82,2.54
			c1.72,0.45,3.18-0.44,2.63-2.63c-0.58-2.9-7.35-8.68-10.33-8.67c-1.06,0.03-2.68,0.5-3.23,1.3c-0.4,0.86,0.07,2.48,0.59,3.25
			C273.77,348.64,275.22,349.67,277.19,351.46z M227.33,418.96c-0.63,0.23-1.05,0.38-1.69,0.61c-0.97-1.68-1.79-3.29-2.55-5.04
			c-0.08-0.21,1.47-0.89,2.38-1.34c-0.88-0.76-2.24-1.22-3.01-0.7c-1.95,1.19-1.81,3.88-0.12,5.9c1.91,2.29,4.85,3.13,6.15,1.46
			c1.78-2.32,0.38-4.2-1.31-6.21C227.31,415.62,227.21,417.33,227.33,418.96z M238.29,424.77c-0.14,0.29-0.21,0.43-0.48,0.65
			c0.94,0.61,1.73,1.16,2.67,1.77c0.8,0.55,1.46,1.38,2.62,2.27c-4.69-0.08-7.1-2.43-6.83-5.64c-0.76,0.87-1.77,2.68-1.55,2.95
			c2.45,1.5,4.83,2.78,7.42,3.99c0.44,0.2,1.62-0.47,1.89-1.05c0.2-0.43-0.11-1.63-0.62-2.04
			C241.75,426.73,239.95,425.71,238.29,424.77z M288.53,402.65c0.12,1.63,0.23,2.91,0.4,4.04c1.41-0.39,3.4-0.16,4.02-1.1
			c0.61-0.94-0.08-2.84-0.12-4.26C291.56,401.78,290.37,402.1,288.53,402.65z M262.97,330.47c3.69,2.24,6.09,1.96,7.51-0.7
			C267.58,327.72,265.39,327.92,262.97,330.47z M228.73,350.95c-0.35,0.01-0.57,0.09-0.92,0.1c-1.61-1.8-3.17-1.48-3.97,0.25
			c-0.47,1.01-0.34,2.99,0.46,3.89c1.39,1.52,3.67,1.53,4.83-0.2C229.67,354.19,228.91,352.43,228.73,350.95z M225.38,368.65
			c-1.71,2.18-5.17,3.2-3.58,6.56c0.37,0.7,2.66,1.42,3.57,0.97C230.22,374.06,225.75,371.63,225.38,368.65z M278.88,426
			c3.85,3.37,11.38,0.75,10.97,9.15c1.07-2.66,1.42-5.29-1.53-6.49C285.45,427.31,282.17,426.83,278.88,426z M298.79,354.35
			c0.99,0.11,1.64,0.24,2.35,0.22c0,0,0.19-0.79,0.04-0.85c-0.72-0.34-1.37-0.82-2.08-0.8c-1.77,0.05-2.92,2.14-1.68,3.24
			c1.38,1.17,3.31,1.9,5.24,2.27c0.65,0.13,1.53-1.39,2.43-2.2c-0.22-0.28-0.51-0.41-0.73-0.69
			C302.31,358.44,300.45,357.93,298.79,354.35z M206.68,355.03c-0.43-0.2-0.79-0.55-1.23-0.75c1.02-1.8,1.96-3.82,2.98-5.62
			c-1.46,1.25-2.78,2.56-3.58,4.29c-0.34,0.72,0.13,1.99,0.15,3.05c0.99-0.24,2.49-0.07,2.97-0.72c0.96-1.3,1.62-3.1,2.36-4.68
			c-0.15-0.07-0.44-0.2-0.58-0.27C208.66,351.92,207.71,353.58,206.68,355.03z M230.67,331.01c-0.49,0.3-0.63,0.23-0.7,0.37
			c-0.98,0.6-2.1,1.12-3.08,1.72c-0.08-0.21-0.15-0.42-0.3-0.49c0.63-0.59,1.39-1.1,2.02-1.69c-0.22-0.28-0.3-0.49-0.59-0.62
			c-1.47,0.89-2.79,1.85-4.6,3.11C227.29,334.86,228.98,334.25,230.67,331.01z M300.97,418.43c-2.41,0.28-4.07,1.6-4.15,4.02
			c0.02,0.71,1.18,1.6,1.77,2.22c0.27-0.22,0.63-0.23,0.91-0.45C296.65,421.32,299.46,420.17,300.97,418.43z"/>
		<path fill="#FFFFFF" d="M219.13,397.09c-0.6,1.29-1.01,2.16-1.61,3.45c2.09,1.15,4.04,2.23,6.42,3.52
			c0.46-1.36,0.57-2.36,0.97-3.22c1.5-2.46,2.69-5.76,4.99-7.31c5.71-3.99,10.42-8.45,12.94-14.99c0.4-0.86,1.24-1.53,2.15-1.98
			c-2.57,7.39-7.1,12.98-13.52,17.35c-2.23,1.41-3.78,4.37-4.78,6.88c-1.52,4.02-2.78,4.83-6.52,3.09
			c-0.58-0.27-1.09-0.68-1.81-1.02c-2.89-2.05-3.04-2.12-1.49-5.43c-0.51-0.41-1.03-1.18-1.68-1.66c-4.06-2.94-4.45-6.63-2.8-11.29
			c1.18-3.66,1-7.77,1.39-11.61c0.17-1.5-0.01-2.98-0.05-4.4c0.2-5.69,2.84-7.61,8.21-5.98c2.15,0.65,3.88,1.46,5.14-1.63
			c2.41-5.54,7.77-6.89,13.11-3.7c0.94,0.61,2.02,0.94,3.82,1.96c-1.56-0.03-2.69,0.14-3.62-0.11c-1.51-0.53-2.81-1.48-4.24-1.8
			c-3.94-0.96-5.82,0.09-7.65,3.62c-1.88,3.67-2.93,4.41-6.53,2.74c-4.46-2.08-7.29,0.63-7.24,5.03c0.25,6.6,0.29,13.27-2.16,19.66
			c-0.46,1.36,0.74,3.67,1.77,5.21C215.73,394.98,217.46,395.79,219.13,397.09z"/>
		<path fill="#FFFFFF" d="M237.37,342.19c1.85-2.47,4.87-3.68,8.42-3.78c1.63-0.12,3.61-0.24,3.69,2.6
			c0.02,0.71,1.75,1.51,2.62,2.27c2.54,2.06,2.54,4.33-0.19,6.04c-3.98,2.52-8.44,3.07-12.89,1.35
			C235.07,349,234.42,345.89,237.37,342.19z M242.66,340.97c-2.52,1.28-5.75,2.57-4.67,5.88c0.8,3.17,4,3.09,6.77,3.15
			c0.85,0.05,1.92,0.02,2.62-0.36c1.53-1.04,2.99-2.28,4.44-3.53c-1.32-1.67-2.51-3.62-4.25-4.78c-0.79-0.55-2.77-0.07-3.89,0.46
			c-1.27,0.46-2.16,1.62-3.27,2.5c-0.14-0.07-0.08-0.21-0.22-0.28C240.95,343.15,241.84,341.99,242.66,340.97z"/>
		<path fill="#FFFFFF" d="M248.14,387.84c-6.03,5.42-7.09,8.08-4.46,11.06c2.64,2.98,7.76,3.27,10.96,0.55
			c2.91-2.49,2.71-4.69-0.91-9.71c2.46,1.49,4.85,3.13,4.93,6.33c-0.05,3.13-2.5,4.61-5.17,5.47c-2.05,0.62-4.24,0.83-6.24,0.6
			c-3.2-0.27-5.84-3.25-6.05-5.8C240.76,393.16,243.78,389.31,248.14,387.84z"/>
		<path fill="#FFFFFF" d="M251.8,358.2c4.57,0.73,10.37-0.07,12.77,4.55c3.59,6.58,2.12,12.73-2.73,17.12
			c-2.42,2.2-5.03,2.91-8.14,0.93c5.01,1.28,7.56-1.56,9.73-5.1c2.45-4.12,0.83-8.55,0.01-12.79c-0.17-0.78-1.54-1.59-2.61-1.92
			C257.96,360.02,254.88,359.11,251.8,358.2z"/>
		<path fill="#FFFFFF" d="M277.19,351.46c-1.97-1.79-3.42-2.82-4.38-4.14c-0.66-0.83-1.07-2.6-0.59-3.25
			c0.41-0.86,2.03-1.33,3.23-1.3c2.99-0.01,9.75,5.77,10.33,8.67c0.41,2.12-0.91,3.08-2.63,2.63
			C280.72,353.28,278.62,352.13,277.19,351.46z M274.77,343.86c-0.27,0.22-0.62,0.59-0.75,0.87c2.33,2.14,4.73,4.13,7.57,6.68
			c-2.02-0.94-3.46-1.61-4.96-2.14c-0.07,0.14-0.14,0.29-0.27,0.57c2.59,1.21,5.18,2.42,8.13,3.97
			C283.48,348.09,279.19,344.16,274.77,343.86z"/>
		<path fill="#FFFFFF" d="M227.33,418.96c-0.05-1.77-0.02-3.34-0.08-5.47c1.69,2.01,3.02,4.04,1.31,6.21
			c-1.24,1.53-4.32,0.61-6.15-1.46c-1.83-2.08-1.83-4.71,0.12-5.9c0.77-0.52,2.13-0.06,3,0.7c-0.76,0.52-2.37,1.34-2.37,1.34
			c0.75,1.76,1.72,3.43,2.55,5.04C226.28,419.34,226.84,419.26,227.33,418.96z"/>
		<path fill="#FFFFFF" d="M238.29,424.77c1.8,1.02,3.46,1.97,4.98,3.2c0.51,0.41,0.9,1.47,0.63,2.04s-1.46,1.25-1.89,1.05
			c-2.59-1.21-5.11-2.56-7.43-3.99c-0.14-0.07,0.73-1.94,1.56-2.95c-0.41,3.14,2.14,5.55,6.83,5.64c-1.1-1.03-1.82-1.72-2.62-2.27
			c-0.94-0.61-1.74-1.16-2.68-1.77C237.94,425.13,238.07,424.84,238.29,424.77z"/>
		<path fill="#FFFFFF" d="M288.53,402.65c1.84-0.55,3.03-0.86,4.23-1.18c0.04,1.42,0.73,3.32,0.12,4.26
			c-0.61,0.94-2.68,0.85-4.02,1.1C288.76,405.55,288.65,404.28,288.53,402.65z"/>
		<path fill="#FFFFFF" d="M262.97,330.47c2.48-2.7,4.68-2.9,7.51-0.7C269.06,332.44,266.66,332.72,262.97,330.47z"/>
		<path fill="#FFFFFF" d="M228.73,350.95c0.18,1.49,0.94,3.24,0.33,4.18c-1.16,1.74-3.5,1.87-4.83,0.2
			c-0.66-0.83-0.93-2.89-0.46-3.89c0.81-1.73,2.57-2.13,3.97-0.25C228.1,351.18,228.45,351.17,228.73,350.95z M228.78,355.35
			c-0.61-1.69-0.64-2.75-1.3-3.23c-0.5-0.41-1.49-0.17-2.35-0.22c-0.04,0.85-0.29,2.14,0.15,2.7
			C225.79,355,226.85,354.97,228.78,355.35z"/>
		<path fill="#FFFFFF" d="M225.38,368.65c0.43,2.83,4.84,5.41,0.14,7.6c-0.91,0.45-3.27-0.12-3.58-0.97
			C220.36,371.92,223.6,370.97,225.38,368.65z M225.88,371.34c-0.64-0.12-1.28-0.25-1.93-0.37c-0.31,1.43-0.63,2.86-0.95,4.29
			c0.86,0.05,2.21,0.15,2.28,0.01C225.67,374.04,225.63,372.62,225.88,371.34z"/>
		<path fill="#FFFFFF" d="M278.88,425.99c3.14,0.77,6.5,1.46,9.44,2.65c2.95,1.2,2.6,3.83,1.53,6.49
			C290.26,426.75,282.8,429.23,278.88,425.99z"/>
		<path fill="#FFFFFF" d="M298.79,354.35c1.59,3.72,3.37,4.03,5.5,1.34c0.22,0.28,0.51,0.41,0.73,0.69
			c-0.69,0.73-1.78,2.32-2.42,2.2c-1.93-0.37-3.87-1.1-5.25-2.27c-1.24-1.1-0.09-3.19,1.68-3.24c0.71-0.02,1.37,0.46,2.09,0.8
			c0.14,0.07-0.05,0.85-0.05,0.85C300.43,354.59,299.78,354.46,298.79,354.35z"/>
		<path fill="#FFFFFF" d="M206.68,355.03c0.95-1.66,1.83-3.18,2.78-4.84c0.15,0.07,0.43,0.2,0.58,0.27
			c-0.74,1.58-1.33,3.23-2.36,4.68c-0.48,0.65-1.98,0.48-2.96,0.72c-0.03-1.07-0.56-2.19-0.16-3.05c0.95-1.66,2.26-2.97,3.58-4.29
			c-1.02,1.8-1.96,3.82-2.97,5.62C205.82,354.63,206.25,354.83,206.68,355.03z"/>
		<path fill="#FFFFFF" d="M230.67,331.01c-1.69,3.24-3.44,4-7.18,2.26c1.81-1.26,3.28-2.15,4.6-3.11c0.22,0.28,0.3,0.49,0.58,0.62
			c-0.62,0.59-1.39,1.1-2.01,1.69c0.08,0.21,0.15,0.42,0.3,0.49c0.98-0.6,2.1-1.12,3.08-1.72
			C230.04,331.24,230.04,331.24,230.67,331.01z"/>
		<path fill="#FFFFFF" d="M300.97,418.43c-1.51,1.75-4.32,2.89-1.54,5.94c-0.28,0.22-0.63,0.23-0.91,0.45
			c-0.66-0.83-1.75-1.51-1.77-2.22C296.89,420.03,298.56,418.71,300.97,418.43z"/>
		<path fill="#FFFFFF" d="M242.66,340.97c-0.89,1.16-1.71,2.18-2.61,3.34c0.15,0.07,0.08,0.21,0.23,0.28c1.11-0.88,2-2.04,3.27-2.51
			c1.12-0.53,3.09-1.01,3.89-0.46c1.74,1.16,2.78,3.05,4.25,4.79c-1.46,1.25-2.91,2.49-4.45,3.53c-0.7,0.37-1.76,0.4-2.62,0.36
			c-2.77-0.07-5.9-0.12-6.76-3.15C236.91,343.55,240.14,342.25,242.66,340.97z"/>
		<path fill="#FFFFFF" d="M274.77,343.86c4.27,0.24,8.71,4.23,9.79,9.82c-3.16-1.48-5.75-2.68-8.13-3.97
			c0.06-0.14,0.13-0.29,0.26-0.58c1.44,0.67,2.88,1.34,4.96,2.14c-2.84-2.55-5.17-4.69-7.57-6.68
			C274.3,344.51,274.5,344.08,274.77,343.86z"/>
		<path fill="#FFFFFF" d="M228.78,355.35c-1.78-0.31-2.99-0.34-3.43-0.9c-0.45-0.56-0.05-1.77-0.15-2.7
			c0.86,0.05,1.84-0.19,2.35,0.22C227.99,352.53,228.17,353.66,228.78,355.35z"/>
		<path fill="#FFFFFF" d="M225.88,371.34c-0.1,1.35-0.21,2.71-0.46,3.99c-0.06,0.14-1.56-0.03-2.27-0.01
			c0.32-1.43,0.63-2.86,0.95-4.29C224.6,371.09,225.24,371.21,225.88,371.34z"/>
		<path fill="#FFFFFF" d="M420.49,445.01l-89.26,43.23l32.24,27.02l11.55-4.67l15.65-10.05l0.07-4.26l30.95-50.06L420.49,445.01z"/>
		<path fill="#FFB800" d="M360.94,557.15c0,0-23.63,9.22-23.28,28.11c0,0,0.54-7.82,8.61-12.27
			C354.35,568.53,361.39,560.61,360.94,557.15z"/>
		<path fill="#FFB800" d="M394.53,572.69c0,0,3.39,15.49-20.9,21.68c0,0,8.43-5.21,13.41-13.43
			C392.03,572.71,394.38,570.16,394.53,572.69z"/>
		<path fill="#FFB800" d="M349.66,611.63c0,0-1.28,8.78-9.61,12.2c-8.34,3.43-14.26,5.76-15.66,12.27
			c-1.35,6.4-3.63,11.33-5.79,11.89c0,0,3.28-5.51,2.7-10.59c-0.53-5.19,3.66-12.35,9.82-14.57
			C337.29,620.6,347.93,609.66,349.66,611.63z"/>
		<path d="M609.69,203.64c-0.95,0.47-1.92,0.67-2.68,1.36c-0.71,0.58-1.03,1.6-1.43,2.46c1.11,0.13,2.54,0.53,3.44,0.16
			c0.78-0.42,1.04-1.6,1.65-2.62c1.4,1.43,1.14,2.61-0.54,3.39c-1.9,0.94-4.07,1.5-5.62-0.52c-0.46-0.6,0.26-2.48,1.02-3.17
			c0.81-0.8,2.37-0.99,3.61-1.45C609.38,203.36,609.45,203.53,609.69,203.64z"/>
		<path fill="#FFB800" d="M641.57,237.13c-0.97,11.91-2.56,23.27-5.87,34.23c-5.12,16.75-13.3,32.21-21.32,47.63
			c-23.15,44.3-50.76,85.89-83.4,124.38c-13.13,15.38-27.09,29.99-40.54,45.1c-1.49,1.65-2.65,3.84-3.18,5.94
			c-7.91,34.19-15.53,68.39-23.32,102.64c-0.56,2.47-1.31,4.73-2.01,7.52c-1.16-0.67-1.96-1.17-2.75-1.66
			c-9.02-6.51-17.98-13.14-26.99-19.65c-1.86-1.38-3.25-2.8-2.84-4.96c0.1-0.21,0.03-0.38-0.05-0.54
			c-3.63-12.74,0.84-23.68,5.32-34.61c0.57-1.56,2.57-2.71,4.11-3.82c2.15-1.48,2.57-2.06,1.46-5.05c-3.27,2-6.54,3.99-9.98,6.04
			c-0.89-0.93-1.71-1.7-2.48-2.58c4.92,1.1,6.42-3.4,10.43-4.15c-0.46-0.6-0.72-0.98-0.96-1.1c-0.31-0.28-0.68-0.44-0.99-0.72
			c0.03-0.38,0.13-0.59,0.16-0.97c0.94,0.18,2.11,0.2,2.73,0.75c1.91,1.27,3,1.13,4.57-0.36c13.06-12.68,26.48-25.2,39.35-38.11
			c8.41-8.33,16.43-17.11,24.52-25.72c-22.05-16.06-43.78-31.85-65.71-47.85c-0.91,1.01-1.65,1.97-2.65,3.2
			c8.89,6.46,17.78,12.92,26.99,19.65c-0.62,1.02-1.14,1.82-1.78,2.56c-3.49,4.37-6.97,8.74-10.63,13.16
			c-2.98,3.57-2.98,3.57-7.24,0.42c-6.17-4.42-12.17-8.89-18.34-13.3c-0.87-0.66-1.73-1.32-2.84-2.1c-1.36,1.97-2.73,3.68-3.87,5.5
			c-9.54,15.22-18.91,30.4-28.33,45.68c-0.67,1.12-1.36,1.97-0.4,3.72c0.4,0.71-1.44,2.46-2.88,3.35c0.28-0.91,0.68-1.77,0.68-1.77
			c-0.42-1.63-1.29-2.93-0.87-3.52c3.8-6.31,7.79-12.39,11.67-18.54c6.33-10.2,12.72-20.51,18.94-30.77
			c-0.19-0.22-0.34-0.54-0.41-0.71c-29.04,14.26-58.04,28.41-87.48,42.88c2.41,1.77,4.27,3.15,6.24,4.58
			c8.65,6.35,17.35,12.59,25.88,18.88c1.86,1.38,3.15,1.45,4.73,0.24c1.93-1.32,3.94-2.47,6.6-4.1c-0.31,1.29-0.31,1.94-0.58,2.2
			c-4.4,2.52-7.93,6.35-13.76,6.9c-4.73,0.41-9.19,1.47-13.9,2.15c-0.93,0.09-2.28-0.15-2.96-0.59
			c-10.24-7.34-20.43-14.8-31.06-22.58c2.39-1.36,4.44-2.63,6.69-3.67c33.09-16.03,66.13-31.95,99.1-48.03
			c2.86-1.41,5.26-4.07,7.2-6.68c15.2-20.15,29.6-40.8,45.28-60.73c22.93-28.93,49.02-55.49,77.24-80.01
			c15.67-13.56,31.96-26.57,48.63-39.14C610.03,248.54,625.18,242.42,641.57,237.13z M570.07,388.09c0.39-0.21,0.9-0.36,1.29-0.57
			c-0.48-0.87-0.86-1.96-1.6-2.56c-20.15-14.79-40.39-29.36-60.53-44.15c-1.74-1.32-2.78-1.29-3.53,0.97
			c6.17,4.42,12.29,8.94,18.41,13.47c-0.2,0.43-0.3,0.64-0.35,0.75c-3.83,6.68-4.46,6.78-11.38,1.76c-4.38-3.2-8.65-6.35-13.15-9.6
			c-17.86,18.92-33.78,38.74-49.08,59.1c22.61,16.45,44.73,32.67,67.14,48.9c0.76-0.69,1.25-1.11,1.67-1.7
			c14.74-18.54,29.54-37.18,44.4-55.67c1.43-1.81,0.49-2.64-1.18-3.8c-9.63-7.06-19.39-14.18-29.03-21.25
			c-1.11-0.77-2.17-1.65-3.28-2.43c2.02-2.45,3.71-4.53,5.45-6.71c0.25,0.11,0.44,0.33,0.68,0.44c-1.43,1.81-2.97,3.57-4.45,5.49
			c11.5,8.44,22.73,16.51,34.1,24.89c1.45-2.19,2.81-4.16,4.31-6.46c-11.18-8.17-22.17-16.12-33.11-24.17
			c0.1-0.21,0.32-0.37,0.42-0.59C548.26,372.14,559.13,380.03,570.07,388.09z M627.18,289.13c-10.87-7.89-21.31-15.46-31.69-23.13
			c-2.53-1.82-3.82-1.9-6.12-0.1c-25.36,19.61-49.37,40.75-71.78,63.16c-3.01,3.03-5.96,6.22-9.07,9.46
			c21.62,15.73,42.87,31.29,64.29,46.81C593.5,354.58,611.53,322.6,627.18,289.13z M486.02,494.21c-0.24-0.11-0.6-0.28-0.85-0.39
			c-0.27,0.27-0.61,0.37-0.88,0.63c-12.59,11.99-25.06,24.04-37.77,35.97c-2.28,2.07-3.96,4.41-4.4,7.59
			c-0.15,0.97-0.87,2.2-1.72,2.45c-3.92,1.18-5.02,4.18-5.97,7.51c-0.96,3.33-2.03,6.6-3.4,9.87c-0.67,1.77-0.37,2.69,1.37,4.02
			c7.28,5.19,14.45,10.6,21.73,15.79c3.4,2.48,6.8,4.97,10.51,7.73C471.83,554.63,478.9,524.48,486.02,494.21z M464.22,442.75
			c-8.65-6.35-17.11-12.47-26-18.93c-4.16,6.14-8.35,12.01-12.46,18.04c4.39,3.2,8.34,6.07,12.41,9c4.08,2.93,8.1,5.96,12.29,8.94
			C455.06,453.99,459.68,448.45,464.22,442.75z M522.77,355.91c-6.25-4.58-12.17-8.89-18.41-13.47c-1.5,1.65-2.9,3.08-4.3,4.52
			c6.37,4.64,12.29,8.94,18.34,13.3C519.97,358.78,521.37,357.34,522.77,355.91z M628.05,286.93c-0.49-2.44-30.7-24.62-34.1-24.89
			C605.57,270.54,616.8,278.6,628.05,286.93z M474.04,441.19c2.53,1.82,4.94,3.59,7.35,5.35c1.11-1.44,2.11-2.66,3.12-3.89
			c-2.53-1.82-4.94-3.59-7.35-5.35C476.06,438.74,475.05,439.96,474.04,441.19z M469.57,429.62c2.53,1.82,4.7,3.48,7.23,5.3
			c0.93-1.39,1.89-2.51,2.78-3.79c-2.53-1.82-4.82-3.53-7.23-5.3C471.34,427.06,470.63,428.29,469.57,429.62z M460.97,425.38
			c-1.11,1.44-2.11,2.66-3.17,3.99c2.1,1.49,3.95,2.87,5.93,4.31c1.1-1.44,2.11-2.66,3.17-4
			C464.8,428.19,463.07,426.87,460.97,425.38z M496.74,443.5c-2.29-1.71-4.39-3.2-6.49-4.69c-1.05,1.33-2.01,2.45-2.85,3.62
			c2.29,1.71,4.39,3.2,6.48,4.69C494.94,445.79,495.9,444.67,496.74,443.5z M494.44,449.72c-1.1,1.44-2.16,2.77-3.34,4.05
			c1.98,1.43,3.71,2.76,5.62,4.03c1.1-1.44,2.16-2.77,3.34-4.05C498.15,452.48,496.54,451.21,494.44,449.72z M463.38,419.21
			c-2.09-1.49-4.07-2.93-6.04-4.36c-3.78,3.72-3.21,5.02,3.24,7.88C461.42,421.56,462.38,420.44,463.38,419.21z M510.88,453.82
			c-1.73-1.32-3.4-2.48-4.94-3.59c-4.01,3.6-3.76,4.63,2.14,7.1C509.04,456.22,509.87,455.05,510.88,453.82z M448.37,422.8
			c1.28-1.49,2.29-2.71,3.35-4.05c-1.55-1.11-2.73-2.04-4.15-3.09c-1.11,1.44-2.16,2.77-3.34,4.05
			C445.65,420.76,446.95,421.75,448.37,422.8z M508.59,460.04c-4.24,3.76-4.22,4.03-0.31,6.36c1.06-1.33,2.16-2.77,3.34-4.05
			C510.56,461.48,509.58,460.76,508.59,460.04z M449.97,593.94c0.29,0.01,0.53,0.12,0.82,0.12c0.52-5.23,0.91-10.51,1.42-15.73
			c-0.29,0-0.7-0.07-0.95-0.18C450.87,583.43,450.48,588.72,449.97,593.94z M449.44,576.4c-0.29-0.01-0.59-0.01-0.83-0.12
			c-0.32,5.45-0.71,10.73-1.03,16.17c0.29,0.01,0.7,0.07,1,0.07C448.9,587.07,449.17,581.73,449.44,576.4z M456.55,593.35
			c0.24,0.11,0.53,0.12,0.66,0.17c0.61-3.23,1.27-6.56,2.01-9.73c-0.29-0.01-0.66-0.17-0.95-0.18
			C457.66,586.84,457.05,590.06,456.55,593.35z"/>
		<path fill="#00FF8D" d="M474.9,356.64c39.37-54.62,94.35-92.9,154.91-125.48C570.33,264.89,515.99,304,474.9,356.64z"/>
		<path fill="#FFB800" d="M212.27,667.56c7.06-9.22,13.75-18.61,21.36-27.44c21-24.75,42.47-49.28,63.47-74.03
			c8.08-9.53,15.72-19.39,23.61-29.13c0.64-0.74,1.27-1.49,1.79-2.29c0.24,0.11,0.56,0.39,0.8,0.5c-1.36,1.98-2.4,4.23-3.99,6.09
			c-13.91,16.72-27.69,33.49-41.66,50.05c-20.55,24.43-41.3,48.65-61.97,73.03c-1.01,1.22-1.97,2.34-2.86,3.62
			C212.58,667.84,212.46,667.78,212.27,667.56z"/>
		<path fill="#FFB800" d="M382.03,658.62c-40.72,51.52-77.37,105.96-119.76,156.32C302.44,763.03,339.84,709.19,382.03,658.62z"/>
		<path fill="#FFB800" d="M338.09,761.46c0.61-1.02,1.23-2.03,1.97-2.99c11.23-14.44,22.34-28.94,33.77-43.16
			c24.4-30.2,49.03-60.29,73.55-90.43c1.38-1.7,2.7-3.3,4.08-5.01c0.31,0.28,0.75,0.61,1.06,0.88
			c-38.01,46.92-76.06,93.95-114.19,140.82C338.33,761.57,338.21,761.51,338.09,761.46z"/>
		<path fill="#FFB800" d="M219.58,630.23c-4.18,5.22-8.33,10.71-12.82,15.66c-14.33,15.74-28.85,31.26-43.3,46.94
			c-14.5,15.79-29,31.58-43.67,47.42c-0.64,0.74-1.28,1.49-2.35,1.9c0.64-0.74,1.16-1.55,1.75-2.18
			c15.48-17.29,30.53-34.9,46.45-51.86c17.36-18.5,35.16-36.66,50.79-56.48c0.64-0.74,1.23-1.38,1.87-2.13
			C218.78,629.73,219.14,629.9,219.58,630.23z"/>
		<path fill="#00FF8D" d="M594.32,377.85c26.77-42.63,50.53-86.65,67.11-133.87c-0.06,0.76-0.07,2.05-0.32,3.23
			c-1.86,10.98-6.59,20.88-11.08,30.9c-9.88,21.96-19.95,43.71-32.55,64.28c-7.01,11.33-14.44,22.32-21.69,33.54
			C595.32,376.62,594.78,377.16,594.32,377.85z"/>
		<path fill="#00FF8D" d="M613.29,385.98c-32.85,40.86-65.63,81.87-102.06,120.94c34.14-40.78,67.79-81.14,101.38-121.39
			C612.73,385.6,613.05,385.87,613.29,385.98z"/>
		<path fill="#FFB800" d="M224.98,604.63c24.66-30.46,49.28-60.82,73.95-91.29c0.31,0.27,0.74,0.6,1.11,0.77
			C276.91,545.69,250.2,574.56,224.98,604.63z"/>
		<path fill="#00FF8D" d="M396.22,425.19c16.89-19.37,33.7-38.9,50.59-58.27c0.19,0.22,0.44,0.33,0.63,0.55
			c-15.4,20.58-34.02,38.62-50.48,58.32C396.77,425.58,396.53,425.46,396.22,425.19z"/>
		<path d="M412.29,515.62c0.5-1.07,0.88-2.2,1.56-3.05c4.5-5.59,8.95-11.08,13.66-16.83c1.98,1.43,3.64,2.6,5.81,4.25
			c-5.13,6.34-10.17,12.46-15.13,18.75c-0.79-1.79-0.21-3.35,1.06-4.84c3.71-4.53,7.47-9.16,11.23-13.79
			c-1.37-1.8-2.43-2.04-3.76-0.44c-3.27,4.21-6.66,8.36-10.12,12.35C415.32,513.51,413.71,514.46,412.29,515.62z"/>
		<path fill="#FFB800" d="M268.27,852.06c12.17-16.48,24.28-33.12,36.45-49.59c0.37,0.17,0.56,0.39,0.92,0.55
			C294.96,820.71,280.52,835.74,268.27,852.06z"/>
		<path d="M445.22,523.71c-2.21,2.88-4.66,2.78-7.5,0.69c-3.28-2.43-6.66-4.64-10.05-7.13c-1.43-1.05-2.8-2.2-1.25-3.96
			c1.32-1.6,2.8-1.3,4.34-0.2C435.53,516.76,440.4,520.18,445.22,523.71z M442.23,524.8c0.15-0.32,0.37-0.48,0.51-0.8
			c-0.5-0.49-1.03-1.26-1.58-1.65c-3.64-2.59-7.4-5.25-11.09-7.73c-0.55-0.39-1.36-0.24-2.18-0.36c0.28,0.65,0.42,1.63,0.97,2.01
			c3.64,2.6,7.45,5.14,11.14,7.63C440.68,524.34,441.45,524.57,442.23,524.8z"/>
		<path fill="#FFB800" d="M174.4,819.39c3.06-5.99,6.13-11.99,12.02-16.16c2.42-1.74,3.54-3.83,3.76-6.85
			c0.14-1.89,0.84-4.03,2-5.58c2.92-4.11,6.34-7.99,9.63-11.93c0.36,0.17,0.67,0.44,1.04,0.61c-0.25,0.54-0.33,1.02-0.7,1.5
			c-2.28,2.71-4.81,5.32-7.09,8.03c-2.24,2.61-3.63,5.61-3.81,9.17c-0.11,1.51-1,3.44-2.32,4.39c-5.55,4.06-9.31,9.35-12.33,15.23
			c-0.35,0.75-0.94,1.39-1.41,2.08C174.83,819.72,174.64,819.5,174.4,819.39z"/>
		<path fill="#00FF8D" d="M486.76,564.54c4.75-11.2,13.4-20.07,20.22-30.05C501.99,545.57,493.82,554.67,486.76,564.54z"/>
		<path d="M413.25,507.22c-5.6-3.11-11.25-6.12-15.08-11.15c-0.53-0.76-0.25-2.32,0.15-3.18c0.37-0.48,2.17-0.56,2.84-0.12
			c4.54,2.88,8.92,6.08,13.36,9.18c1.66,1.16,1.99,2.35,0.4,3.57C414.26,505.99,413.84,506.58,413.25,507.22z M412.72,506.45
			c0.77-1.34,1.22-2.3,1.41-2.73c-5.06-3.64-9.63-7.06-14.38-10.43c-0.34,0.1-0.73,0.31-1.07,0.41c0.25,1.03,0.07,2.38,0.7,2.93
			C403.59,499.88,408.03,502.98,412.72,506.45z"/>
		<path d="M485.74,477.69c-4.5-3.26-8.65-6.35-13.03-9.55c1.69-2.08,3.34-4.05,5.13-6.34c3.96,2.87,7.84,5.58,11.5,8.44
			c0.55,0.39,0.61,1.85,0.31,2.49C488.57,474.45,487.17,475.88,485.74,477.69z M488.72,471.27c-3.64-2.6-7.04-5.08-10.63-7.78
			c-1.27,1.49-2.33,2.82-3.49,4.37c3.64,2.6,7.23,5.3,10.99,7.95C486.63,474.2,487.69,472.87,488.72,471.27z"/>
		<path fill="#00FF8D" d="M369.15,443.74c-7.15,8.79-16.23,16.03-24.44,23.94c-0.19-0.22-0.43-0.33-0.62-0.55
			c8.13-8.07,16.1-16.09,24.24-24.16C368.64,443.25,368.83,443.47,369.15,443.74z"/>
		<path fill="#FFB800" d="M423.57,607.87c-6.46,7.94-12.92,15.87-19.43,23.91c-0.24-0.11-0.31-0.27-0.56-0.39
			c6.47-7.94,12.93-15.87,19.39-23.81C423.21,607.7,423.45,607.81,423.57,607.87z"/>
		<path fill="#00FF8D" d="M427.44,587.15c7.63,6.01,15.22,12.12,22.97,18.18c-0.05,0.11-0.22,0.16-0.27,0.26
			c-7.9-5.74-15.8-11.48-23.71-17.22C426.8,587.9,427.12,587.53,427.44,587.15z"/>
		<path d="M379.66,778.75c2.26-0.13,4.06-0.85,5.27-0.29c1.21,0.56,2.65,2.53,0.86,3.52c-1.34,0.68-3.45,0.48-5.15,0.35
			C380.52,782.27,380.2,780.43,379.66,778.75z"/>
		<path fill="#FFB800" d="M211.52,775.96c-3.49,4.37-6.88,8.52-10.27,12.68c-0.64,0.74-1.78,1-2.92,1.25
			C203.66,785.98,204.14,778.27,211.52,775.96z"/>
		<path d="M487.29,658.44c2.17-0.56,3.82-0.96,5.36-1.42c0.23,1.41,0.98,3.58,0.54,3.89c-1.22,0.74-3.09,0.65-4.79,0.52
			C488.11,661.42,487.69,659.8,487.29,658.44z"/>
		<path fill="#00FF8D" d="M442.95,609.42c-5.38-3.92-10.63-7.78-16-11.7c0.27-0.26,0.37-0.48,0.64-0.74
			c5.15,4.08,10.3,8.15,15.46,12.23C443,609.31,443,609.31,442.95,609.42z"/>
		<path d="M273.31,632.99c0.11,1.35,0.22,2.05,0.04,2.75c-0.25,1.18-0.36,2.69-1.14,3.11c-1,0.58-2.85,0.76-4.16,0.42
			c-1.91-0.62-2.04-2.24-0.55-3.25C269.33,634.93,271.36,634.04,273.31,632.99z M271.91,634.43c-1.59,1.22-2.74,2.11-4.21,3.39
			C271.58,638.96,272.73,638.06,271.91,634.43z"/>
		<path fill="#00FF8D" d="M336.24,521.78c-8.89-6.46-17.78-12.92-26.67-19.38c0.05-0.11,0.27-0.27,0.32-0.37
			c8.89,6.46,17.78,12.92,26.67,19.38C336.34,521.56,336.29,521.67,336.24,521.78z"/>
		<path d="M526.35,250.26c-0.54,1.18-1.14,2.46-1.68,3.64c1.01,0.34,2.41,1.12,2.85,0.8c1.1-0.79,1.82-2.02,2.82-3.25
			c-0.05,0.76,0.39,2.65-0.17,2.91c-1.51,0.73-3.53,0.97-5.4,0.88c-0.58-0.01-2.02-1.98-1.87-2.3c0.77-1.34,2.09-2.29,3.17-3.35
			C526.16,250.04,526.28,250.09,526.35,250.26z"/>
		<path fill="#00FF8D" d="M320.67,520.55c-5.13-3.81-10.31-7.51-15.44-11.31c0.05-0.11,0.27-0.27,0.32-0.37
			c5.13,3.81,10.31,7.51,15.44,11.31C320.94,520.29,320.72,520.45,320.67,520.55z"/>
		<path d="M684.13,310.29c-0.88,0.63-1.81,1.37-2.69,2.01c0.14,0.33,0.16,0.6,0.3,0.92c1.27-0.2,3.16,0.16,3.79-0.59
			c0.69-0.85,0.44-2.53,0.6-4.15c0.65,0.82,2.26,2.09,2.04,2.89c-0.21,1.08-1.51,2.3-2.77,2.49c-1.48,0.35-3.22-0.32-4.75-0.51
			c0-0.65-0.25-1.68,0.19-1.99c0.81-0.8,2-1.15,3-1.73C683.86,309.91,683.93,310.07,684.13,310.29z"/>
		<path d="M335.47,672.05c-1,2.79-2.99,2.65-4.85,1.92c-1.01-0.34-2.55-2.09-2.33-2.25c0.94-1.39,2.31-2.45,3.55-3.56
			c0.2,0.22,0.39,0.44,0.63,0.55c-1.03,0.96-1.94,1.97-3.02,3.03C331.37,673.93,333.17,673.85,335.47,672.05z"/>
		<path d="M540.81,520.36c-1.15,0.9-2.18,1.85-3.28,2.65c0.19,0.22,0.5,0.49,0.7,0.71c0.66-0.48,1.27-0.84,1.81-1.37
			c0.19,0.22,0.43,0.33,0.62,0.55c-0.59,0.64-1.08,1.71-1.94,1.97c-0.68,0.2-1.72-0.41-2.54-0.53c0.28-0.91,0.24-2.1,0.95-2.68
			c0.81-0.8,2.17-1.21,3.34-1.83C540.62,520.14,540.69,520.3,540.81,520.36z"/>
		<path d="M351.73,713.92c-0.22,0.81-0.5,1.72-0.73,2.52c0.83,0.12,1.65,0.24,2.35,0.31c0.09-1.13,0.1-2.43,0.24-4.31
			c0.71,1.63,1.74,2.89,1.66,4.02c-0.01,0.65-1.98,1.42-2.92,1.25c-1-0.07-2.03-1.33-3.07-1.94c0.64-0.74,1.28-1.49,1.97-2.34
			C351.42,713.65,351.61,713.86,351.73,713.92z"/>
		<path fill="#FFB800" d="M394.35,504.32c-2.21,7.3-2.43,7.46-5.14,6.34C390.74,508.63,392.33,506.77,394.35,504.32z"/>
		<path fill="#FFB800" d="M182.57,815.37c1.72-2.45,3.56-4.85,5.29-7.31c0.24,0.11,0.43,0.33,0.79,0.5
			c-1.72,2.45-3.44,4.91-5.17,7.36C183.12,815.76,182.76,815.59,182.57,815.37z"/>
		<path fill="#FFFFFF" d="M486.02,494.21c-7.07,30.16-14.07,60.48-21.21,91.12c-3.83-2.81-7.11-5.24-10.51-7.73
			c-7.23-5.3-14.45-10.6-21.73-15.79c-1.79-1.22-2.04-2.25-1.37-4.02c1.2-3.22,2.44-6.54,3.4-9.87c0.95-3.33,2.05-6.33,5.97-7.51
			c0.85-0.26,1.57-1.49,1.72-2.45c0.44-3.18,2.19-5.36,4.4-7.59c12.59-11.99,25.18-23.98,37.77-35.97c0.27-0.26,0.66-0.47,0.88-0.63
			C485.42,493.93,485.66,494.04,486.02,494.21z"/>
		<path fill="#FFFFFF" d="M464.22,442.75c-4.55,5.7-9.16,11.24-13.81,17.15c-4.14-3.09-8.21-6.02-12.29-8.94
			c-3.95-2.87-8.02-5.8-12.41-9c4.16-6.14,8.3-11.9,12.46-18.04C447.11,430.28,455.57,436.41,464.22,442.75z"/>
		<path fill="#00FF8D" d="M612.24,278.31c-3.6,8.09-10.13,22.5-17.95,35.92c6.17,9.49,6.48,22.12-0.26,30.97
			c-9.1,12.05-28.02,13.95-42.54,4.11c-4.92-3.32-8.83-7.86-11.25-12.76c-6.23-3.66-12.45-7.97-18.14-12.17
			c-1.56,1.49-3.18,3.08-4.63,4.62c-3.01,3.03-5.96,6.22-9.07,9.46c21.61,15.73,42.87,31.3,64.29,46.81
			c20.98-30.74,38.96-62.61,54.61-96.08C622.12,285.49,617.18,281.9,612.24,278.31z"/>
		<path fill="#FFFFFF" d="M522.77,355.91c-1.4,1.43-2.8,2.87-4.42,4.46c-6.05-4.36-11.97-8.67-18.34-13.3
			c1.45-1.54,2.8-2.87,4.3-4.52C510.6,347.02,516.52,351.33,522.77,355.91z"/>
		<path fill="#FFFFFF" d="M628.05,286.93c-11.42-8.28-22.49-16.39-34.1-24.89C597.39,262.2,627.68,284.55,628.05,286.93z"/>
		<path fill="#FFFFFF" d="M474.04,441.19c1.01-1.23,2.02-2.45,3.12-3.89c2.41,1.77,4.82,3.53,7.35,5.35c-1,1.22-2.01,2.45-3.12,3.89
			C478.86,444.72,476.57,443.01,474.04,441.19z"/>
		<path fill="#FFFFFF" d="M469.57,429.62c0.93-1.39,1.77-2.56,2.66-3.84c2.53,1.82,4.82,3.53,7.23,5.3
			c-0.89,1.28-1.73,2.46-2.78,3.79C474.44,433.04,472.1,431.44,469.57,429.62z"/>
		<path fill="#FFFFFF" d="M460.97,425.38c2.1,1.49,3.83,2.81,5.93,4.3c-1.06,1.33-2.07,2.56-3.17,4c-1.86-1.38-3.83-2.82-5.93-4.31
			C458.86,428.04,459.86,426.82,460.97,425.38z"/>
		<path fill="#FFFFFF" d="M496.74,443.5c-0.96,1.12-1.8,2.29-2.86,3.62c-2.21-1.55-4.26-3.15-6.48-4.69
			c0.96-1.12,1.8-2.29,2.85-3.62C492.47,440.35,494.57,441.84,496.74,443.5z"/>
		<path fill="#FFFFFF" d="M494.44,449.72c1.98,1.44,3.71,2.76,5.62,4.03c-1.11,1.44-2.12,2.66-3.34,4.05
			c-1.86-1.38-3.71-2.76-5.62-4.03C492.28,452.49,493.29,451.27,494.44,449.72z"/>
		<path fill="#FFFFFF" d="M463.38,419.21c-1,1.22-1.96,2.34-2.75,3.41c-6.45-2.86-7.02-4.16-3.25-7.88
			C459.31,416.29,461.29,417.72,463.38,419.21z"/>
		<path fill="#FFFFFF" d="M510.88,453.82c-1.06,1.33-1.96,2.34-2.8,3.52c-5.9-2.47-6.16-3.5-2.14-7.1
			C507.6,451.39,509.15,452.5,510.88,453.82z"/>
		<path fill="#FFFFFF" d="M448.37,422.8c-1.54-1.1-2.72-2.04-4.14-3.09c1.11-1.44,2.11-2.66,3.34-4.05
			c1.42,1.05,2.72,2.04,4.14,3.09C450.71,419.98,449.65,421.31,448.37,422.8z"/>
		<path fill="#FFFFFF" d="M508.59,460.04c0.99,0.72,1.97,1.44,3.08,2.21c-1.05,1.33-2.28,2.71-3.34,4.05
			C504.37,464.08,504.35,463.81,508.59,460.04z"/>
		<path fill="#FFFFFF" d="M449.97,593.94c0.39-5.28,0.9-10.51,1.29-15.79c0.3,0,0.71,0.07,0.95,0.18
			c-0.51,5.23-0.91,10.51-1.42,15.73C450.55,593.95,450.26,593.95,449.97,593.94z"/>
		<path fill="#FFFFFF" d="M449.44,576.4c-0.27,5.34-0.59,10.78-0.87,16.12c-0.29-0.01-0.7-0.07-0.99-0.07
			c0.32-5.45,0.71-10.73,1.03-16.17C448.9,576.28,449.2,576.28,449.44,576.4z"/>
		<path fill="#FFFFFF" d="M456.55,593.35c0.61-3.23,1.16-6.62,1.77-9.85c0.29,0.01,0.66,0.17,0.95,0.18
			c-0.62,3.23-1.28,6.56-2.02,9.73C456.96,593.41,456.79,593.46,456.55,593.35z"/>
		<path fill="#FFFFFF" d="M442.23,524.8c-0.73-0.34-1.55-0.46-2.11-0.84c-3.81-2.54-7.5-5.03-11.13-7.63
			c-0.56-0.39-0.7-1.36-0.98-2.01c0.7,0.07,1.63-0.03,2.18,0.36c3.81,2.54,7.45,5.14,11.09,7.74c0.67,0.44,1.13,1.04,1.58,1.64
			C442.59,524.32,442.37,524.48,442.23,524.8z"/>
		<path fill="#FFFFFF" d="M412.72,506.46c-4.69-3.48-9.01-6.51-13.35-9.82c-0.62-0.55-0.44-1.9-0.69-2.93
			c0.34-0.1,0.73-0.31,1.07-0.41c4.7,3.48,9.32,6.79,14.38,10.43C413.89,504.26,413.49,505.12,412.72,506.46z"/>
		<path fill="#FFFFFF" d="M488.72,471.27c-1.03,1.6-2.09,2.93-3.13,4.54c-3.71-2.76-7.35-5.35-10.99-7.95
			c1.11-1.44,2.34-2.82,3.49-4.37C481.68,466.19,485.08,468.67,488.72,471.27z"/>
		<path fill="#FFFFFF" d="M271.91,634.43c0.7,3.57-0.28,4.42-4.21,3.39C269.12,636.65,270.27,635.75,271.91,634.43z"/>
		<path fill="#FFB800" d="M551.61,349.36c-13.28-9.01-18.71-26.75-10.92-36.93c12.1-15.99,28.4-17.29,45.11-6.82
			c13.78,8.59,17.45,27.59,8.4,39.53C585.05,357.3,566.01,359.15,551.61,349.36z M544.33,310.61c-8.96,10.16-5.87,26.29,7.04,36.43
			c12.84,9.98,29.85,9.66,39.03-0.66c10.04-11.22,7.86-29.01-4.91-38.83C571.31,296.69,555.45,297.68,544.33,310.61z"/>
		<path fill="#FFB800" d="M591.7,276.09c-1.45,1.54-3.14,0.76-4.05-0.44c-0.65-0.82-0.43-2.54-0.11-3.56
			c0.23-0.81,1.33-1.6,2.25-1.69c1.48-0.35,3.16-0.49,4.69-0.3c0.53,0.12,1.48,1.86,1.24,2.4c-0.65,1.39-1.73,2.45-2.85,3.62
			c-0.27,0.27-0.93,0.09-1.56,0.19c0.96-1.12,2.11-2.02,2.7-3.3c0.25-0.54-0.66-1.74-1.02-2.55c-1.61,0.95-3.87,1.72-4.52,3.11
			C587.58,275.48,590.32,275.58,591.7,276.09z"/>
		<path fill="#FFFFFF" d="M544.33,310.61c11.12-12.93,26.98-13.92,41.16-3.05c12.82,9.71,14.95,27.6,4.91,38.83
			c-9.18,10.32-26.19,10.64-39.03,0.66C538.58,336.96,535.37,320.77,544.33,310.61z M545.57,312.35c-8.21,10.12-4.9,24.53,7.82,33.8
			c12.41,9,28.78,7.86,37.31-2.63c8.3-10.33,5.69-26.24-5.54-34.3C571.02,298.9,555.3,300.21,545.57,312.35z"/>
		<path fill="#FFFFFF" d="M591.7,276.09c-1.5-0.56-4.07-0.71-3.01-2.69c0.7-1.5,3.03-2.11,4.52-3.11c0.36,0.82,1.27,2.02,1.02,2.55
			c-0.59,1.29-1.74,2.18-2.7,3.3L591.7,276.09z"/>
		<path fill="#FFFFFF" d="M541.04,326.26c0.51,7.13,4.64,14.38,12.23,19.84c12.41,9,28.78,7.86,37.31-2.63
			c4.44-5.49,5.73-12.7,4.26-19.36"/>
		<path fill="#FFB800" d="M463.99,596.92c7.05-31.08,14.11-62.15,21.16-93.23l-1.97,2.34c-6.15,26.29-12.31,52.57-18.49,79.24
			c-3.83-2.82-7.11-5.24-10.51-7.73c-7.23-5.3-14.46-10.6-21.73-15.79c-1.79-1.22-2.05-2.25-1.37-4.02c1.19-3.22,2.44-6.54,3.4-9.87
			c0.3-1.29,0.67-2.42,1.29-3.43l-1.3-0.99c-4.38,10.72-8.68,21.61-5.07,34.08c0.07,0.16,0.1,0.43,0.05,0.54
			c-0.46,2.26,0.93,3.68,2.84,4.96c9.01,6.51,17.97,13.14,26.98,19.65c0.8,0.5,1.6,1,2.76,1.66
			C462.63,601.76,463.43,599.39,463.99,596.92z M447.58,592.45c0.32-5.45,0.71-10.73,1.03-16.17c0.29,0.01,0.59,0.01,0.83,0.12
			c-0.27,5.34-0.59,10.78-0.87,16.12C448.16,592.46,447.87,592.45,447.58,592.45z M449.97,593.94c0.39-5.28,0.9-10.51,1.29-15.79
			c0.3,0.01,0.71,0.07,0.95,0.18c-0.51,5.23-0.91,10.51-1.42,15.73C450.55,593.95,450.26,593.95,449.97,593.94z M456.55,593.35
			c0.62-3.23,1.16-6.62,1.77-9.85c0.29,0.01,0.66,0.17,0.95,0.18c-0.62,3.23-1.28,6.56-2.02,9.73
			C456.96,593.41,456.79,593.46,456.55,593.35z"/>
		<path fill="#FFB800" d="M517.47,329c22.45-22.51,46.42-43.55,71.78-63.15c2.25-1.69,3.59-1.72,6.12,0.1
			c10.33,7.78,20.94,15.29,31.69,23.13c-15.4,32.94-33.11,64.54-53.67,94.69l1.54,1.1c14.41-21.3,27.41-43.37,39.38-66.06
			c8.02-15.41,16.2-30.87,21.32-47.63c3.31-10.95,4.85-22.21,5.87-34.23c-16.34,5.18-31.54,11.41-44.21,21.03
			c-16.65,12.84-32.9,25.74-48.61,39.41c-14.25,12.4-27.94,25.18-40.94,38.67l1.74,1.32C512.15,334.48,514.78,331.66,517.47,329z
			 M628.05,286.93c-11.43-8.28-22.49-16.39-34.1-24.89C597.39,262.2,627.68,284.55,628.05,286.93z"/>
		<path fill="#FFB800" d="M319.9,492.75c-2.24,1.04-4.29,2.3-6.68,3.67c10.62,7.78,20.82,15.23,31.06,22.58
			c0.8,0.5,2.03,0.68,2.96,0.59c4.71-0.68,9.16-1.74,13.9-2.15c5.83-0.55,9.36-4.38,13.76-6.9c0.39-0.21,0.32-1.02,0.58-2.2
			c-2.67,1.63-4.79,2.73-6.6,4.1c-1.59,1.21-2.87,1.14-4.73-0.24c-8.65-6.35-17.3-12.69-25.88-18.88c-1.85-1.38-3.83-2.82-6.24-4.58
			c9.68-4.75,19.31-9.4,28.88-14.21l2.33-2.82C348.85,478.7,334.29,485.75,319.9,492.75z"/>
		<path fill="#FFFFFF" d="M508.13,457.23c0.91-1.01,1.74-2.18,2.8-3.52c-1.73-1.32-3.4-2.48-4.94-3.59
			C501.92,453.84,502.23,454.76,508.13,457.23z"/>
		<path fill="#FFFFFF" d="M508.28,466.4c1.06-1.33,2.16-2.77,3.34-4.05c-1.11-0.77-1.97-1.44-3.08-2.21
			C504.35,463.8,504.37,464.07,508.28,466.4z"/>
		<path fill="#FFFFFF" d="M491.22,453.82c1.98,1.43,3.71,2.76,5.62,4.03c1.1-1.44,2.16-2.77,3.34-4.05
			c-1.86-1.38-3.64-2.59-5.62-4.03C493.29,451.27,492.28,452.49,491.22,453.82z"/>
		<path fill="#FFFFFF" d="M508.4,338.46c21.61,15.73,42.87,31.29,64.29,46.81c0.37-0.48,0.57-0.91,0.94-1.39l-63.93-46.64
			C509.09,337.61,508.72,338.09,508.4,338.46z"/>
		<path fill="#FFFFFF" d="M487.45,442.32c2.29,1.71,4.39,3.2,6.48,4.69c1.06-1.33,2.02-2.45,2.86-3.62
			c-2.29-1.71-4.39-3.2-6.49-4.69C489.25,440.03,488.24,441.26,487.45,442.32z"/>
		<path fill="#FFFFFF" d="M472.28,425.67c-0.94,1.39-1.73,2.45-2.66,3.84c2.53,1.82,4.7,3.48,7.23,5.3
			c0.93-1.39,1.89-2.51,2.78-3.79C477.1,429.2,474.81,427.49,472.28,425.67z"/>
		<path fill="#FFFFFF" d="M460.58,422.73c0.91-1.01,1.75-2.18,2.75-3.41c-2.09-1.49-4.07-2.93-6.04-4.36
			C453.56,418.57,454.13,419.87,460.58,422.73z"/>
		<path fill="#FFFFFF" d="M457.68,429.32c2.1,1.49,3.95,2.87,5.93,4.3c1.1-1.44,2.11-2.66,3.17-3.99c-1.98-1.44-3.83-2.82-5.93-4.31
			C459.86,426.82,458.86,428.04,457.68,429.32z"/>
		<path fill="#FFFFFF" d="M474.04,441.19c2.53,1.82,4.94,3.59,7.35,5.35c1.11-1.44,2.12-2.66,3.12-3.89
			c-2.53-1.82-4.94-3.59-7.35-5.35C476.06,438.74,475.05,439.96,474.04,441.19z"/>
		<path fill="#FFFFFF" d="M522.77,355.91c-6.25-4.58-12.17-8.89-18.42-13.47c-1.49,1.65-2.89,3.08-4.29,4.52
			c6.37,4.64,12.29,8.94,18.34,13.3C519.97,358.78,521.37,357.34,522.77,355.91z"/>
		<path fill="#00FF8D" d="M438.17,450.86c4.07,2.93,8.1,5.96,12.29,8.94c4.72-5.75,9.26-11.45,13.81-17.15
			c-8.65-6.35-17.11-12.47-26-18.93c-4.16,6.14-8.35,12.01-12.46,18.04C430.15,445.06,434.1,447.93,438.17,450.86z"/>
		<path d="M401.14,477.29c6.39-10.31,12.78-20.62,19.16-30.93c-0.31-0.27-0.31-0.27-0.62-0.55"/>
		<path d="M434.42,543.56c0.43-1.88,2.53-3.25,4.24-4.41c2.15-1.48,2.57-2.06,1.46-5.05c-3.27,2-6.54,3.99-9.99,6.04
			c-0.88-0.93-1.7-1.7-2.47-2.58c4.92,1.11,6.42-3.4,10.43-4.15c-0.46-0.6-0.72-0.98-0.96-1.1c-0.31-0.28-0.68-0.44-0.99-0.72
			c0.03-0.38,0.13-0.59,0.16-0.97c0.94,0.18,2.06,0.3,2.73,0.75c1.59,1,3.66,0.65,4.84-0.62c13.01-12.58,26.26-25.04,39.08-37.84
			c8.41-8.34,16.43-17.11,24.52-25.72l-65.71-47.86l-2.65,3.19c8.89,6.46,17.78,12.92,26.99,19.65c-0.62,1.02-1.14,1.82-1.78,2.56
			c-3.49,4.37-6.98,8.74-10.64,13.16c-2.97,3.57-2.97,3.57-7.23,0.42c-6.17-4.42-12.17-8.89-18.34-13.3
			c-0.87-0.66-1.74-1.32-2.84-2.1c-1.36,1.98-2.73,3.68-3.87,5.49c-9.54,15.22-18.91,30.4-28.33,45.68
			c-0.67,1.12-1.36,1.98-0.41,3.72c0.41,0.71-1.43,2.46-2.87,3.35c0.28-0.91,0.67-1.77,0.67-1.77"/>
		<path fill="#FFFFFF" d="M444.23,419.71c1.42,1.05,2.72,2.04,4.14,3.09c1.28-1.49,2.29-2.71,3.34-4.05
			c-1.54-1.1-2.72-2.04-4.14-3.09C446.34,417.05,445.34,418.27,444.23,419.71z"/>
		<path fill="#FFB800" d="M392.58,521.45c0,0-12.73,1.52-14.28,12.77c-1.49,11.15-1.56,15.41-5.74,18.42
			c-4.18,3.01-6.99,7.82-5.75,14.64c1.25,6.82-8.88,12.54-8.88,12.54s-7.65,3.22-9.44,14.36c-1.78,11.14,0,0,0,0l-6.33,6.7
			c0,0-2.05,1.26-2.94,6.05c-0.9,4.79,0,0,0,0l-4.73,7.05c0,0,18.81-12.75,23.87-18.61c5.06-5.85,0.87-7.27,15.86-13.34
			c14.98-6.07,0,0,0,0s9.79-1.19,13.02-8.8c3.23-7.61,6.4-13.82,10.83-15.8c4.44-1.98,11.36-2.03,16.5-11.87
			c5.03-9.9,4.62-20.76,2.69-23.86C415.13,518.37,401.62,515.23,392.58,521.45z"/>
		<path fill="#FFB800" d="M216.05,772.21c-0.41-5.13,2.89-8.16,5.64-11.56c2.02-2.45,3.79-5.01,5.73-7.62
			c0.69-0.85,1.26-1.76,1.9-2.51c2.15-2.12,3.85-4.2,3.76-7.49c-0.14-3.19,2.57-4.92,5.21-6.17c3.36-1.56,4.89-4.24,6.57-7.23
			c3.98-7,8.63-13.57,16.51-17.59c2.85-1.41,5.66-3.36,7.22-5.76c2.53-3.9,5.84-6.92,9.89-9.34c2.83-1.68,5.01-3.53,4.83-7.26
			c-0.08-1.73,1.81-3.59,3.4-4.8c7.43-5.28,12.83-11.88,15.39-20.58c1.71-5.59,6.97-8.09,11.69-10.98c1-0.58,1.76-1.27,2.83-1.68
			c5.46-2.29,8.48-5.96,8.64-12c0.11-4.37,3.75-6.85,7.32-8.84c2.9-1.52,5.99-2.82,9.02-4.28c6.8-2.97,10.68-8.19,12.35-14.96
			c0.79-3.28,1.45-6.61,2.48-9.78c1.15-3.76,3.73-6.47,7.74-7.86c3.73-1.4,6.2-0.39,8,3.31c4.61-2.03,9.17-3.95,13.78-5.98
			c6.85-3.07,10.44-8.3,11.26-15.47c0.35-2.96,0.91-6.08,2.47-8.49c2.21-3.53,6.21-2.97,9.04,1.06
			c15.56-2.55,17.44-13.91,18.02-26.26c0.29,0.01,0.66,0.17,0.95,0.18c0.25,1.68,0.67,3.3,0.63,4.98
			c-0.07,7.12-2.71,13.45-8.16,17.95c-2.62,2.17-6.75,2.86-10.4,3.77c-0.98,0.2-2.79-0.64-3.73-1.46c-2.24-1.82-3.94-1.3-4.95,0.57
			c-1.07,1.98-1.41,4.29-1.86,6.55c-0.81,3.01-1.18,6.35-2.35,9.19c-2.31,5.3-7.41,7.76-12.7,9.99c-4.33,1.76-8.74,3.36-13.03,5.02
			c-2.91-5.12-5.55-5.43-9.77-1.4c-2.96,2.92-3.75,6.85-4.54,10.77c-0.9,4.79-1.9,9.79-5.64,13.13c-3.31,3.02-7.48,5.38-11.37,7.75
			c-2.05,1.26-4.65,2.14-6.7,3.4c-3.4,1.94-5.92,4.54-5.94,8.7c-0.07,4.91-2.65,8.27-7.07,10.52c-4.07,2.15-8.14,4.29-11.84,6.88
			c-1.93,1.32-3.55,3.56-4.25,5.71c-2.78,8.86-8.09,15.9-15.86,21.27c-1.98,1.42-3.29,3.29-3.29,6.15
			c-0.04,1.67-1.52,3.59-3.01,4.59c-4.98,3.16-8.8,6.98-12.27,11.62c-1.67,2.35-4.7,3.81-7.31,5.33
			c-7.45,4.36-13.09,10.2-16.49,17.86c-1.07,2.63-2.47,4.71-5.22,5.91c-3.88,1.72-6.48,4.16-6.23,8.7c0.14,0.97-0.53,2.1-1.17,2.84
			c-3.96,5.06-8.03,10.07-11.99,15.13c-1.53,2.03-2.62,4.38-3.95,6.63C217.13,771.14,216.59,771.67,216.05,772.21z"/>
		<path fill="#FFB800" d="M211.11,770.83c0.06-0.75-0.06-1.46,0.14-1.89c2.99-5.51,5.36-11.57,10.61-15.64
			c3.5-2.8,6.08-6.16,6.76-10.79c0.36-2.04,1.96-3.91,3.4-5.45c4.27-4.79,9.17-9.02,13.08-13.98c2.11-2.66,3.36-5.99,4.19-9.38
			c0.93-3.6,2.78-6,6.14-7.56c3.76-1.77,7.51-3.55,10.95-5.6c4.45-2.63,7.52-6.41,7.98-11.53c0.47-5.77,3.83-8.9,9.57-10.53
			c5.06-1.43,8.26-8.01,5.95-12.85c-3.92-8.32-3.58-10.64,4.83-17.41c3.23-2.54,5.83-5.63,9.28-8.32c-0.32,1.02-0.41,2.15-1,2.79
			c-2.52,2.6-5.05,5.21-7.84,7.43c-6.11,4.97-6.73,6.64-3.46,14.14c2.92,6.68-0.01,13.65-7.12,15.7c-4.77,1.43-7.42,3.98-7.73,8.78
			c-0.45,6.68-4.89,10.88-10.5,14.13c-3.18,1.78-6.68,3.02-9.61,4.92c-1.88,1.21-3.77,3.07-4.37,5
			c-2.78,8.86-7.97,15.95-15.12,21.88c-3.65,3.12-6.95,6.15-7.42,11.26c-0.14,1.89-1.49,3.86-2.96,5.13
			c-6.17,5.08-10.23,11.65-13.7,18.5c-0.2,0.43-0.52,0.8-0.84,1.17C212.03,770.74,211.79,770.62,211.11,770.83z"/>
		<path fill="#FFB800" d="M330.94,587.09c0.82-1.44,1.68-2.35,1.76-3.48c0.77-11.48,6.87-19.58,16.63-25.47
			c3.71-2.31,7.69-4.25,11.21-6.78c2.42-1.74,4.5-4.03,6.3-6.32c0.59-0.64,0.39-2.42-0.19-3.08c-0.77-0.88-2.25-1.17-3.94-1.95
			c-4.15-11.94,11.19-26.69,19.53-25.69c-1.47,0.62-2.25,1.04-3.03,1.46c-8.54,4.5-14.13,10.89-14.4,20.65
			c-0.03,1.02,0.85,2.6,1.84,3.32c3.08,2.21,3.99,4.06,1.87,6.72c-2.28,2.71-5.12,5.04-8.1,7.04c-5.01,3.53-10.35,6.52-15.29,10.22
			c-4.72,3.54-7.71,8.4-9.05,14.15c-0.61,2.58-1.51,5.16-2.28,7.79c0,0,0.07,0.16,0.19,0.22c8.76,2.62,7.63,6.65,3.04,11.16
			c-4.8,4.67-10.42,8.57-15.59,13.08c-5.16,4.5-9.63,9.72-11.54,16.38c-0.23,0.81-1.23,1.38-2.3,1.8
			c0.77-6.41,3.78-11.65,8.51-15.83c5.92-5.19,11.99-10.06,18.03-15.19c1.25-1.11,2.38-2.28,3.31-3.67
			c1.86-3.05,1.05-5.11-3.82-6.32C332.64,587.23,331.64,587.16,330.94,587.09z"/>
		<path d="M334.76,613.71c1.97-2.99,4.27-5.43,5.2-8.39c1.15-3.76,3.39-6.37,6.28-8.8c1.25-1.11,2.64-2.55,2.92-4.11
			c0.79-5.49,4.1-9.16,8.31-12.55c1.59-1.21,3.18-2.43,4.65-3.7c3.54-2.91,5.52-6.55,4.91-11.25c-0.79-5.57,1.5-9.58,5.78-12.8
			c4.23-3.11,4.38-7.86,4.93-12.55c0.44-3.18,0.87-6.62,2.09-9.57c1.49-3.86,5.01-6.39,9.27-7.67c1.02-0.31,2.19-0.29,3.91-0.53
			c-0.64,0.74-0.79,1.07-0.96,1.12c-8.02,1.49-11.44,6.67-12.27,13.83c-0.15,0.97-0.02,1.94-0.17,2.91
			c-0.37,5.55-1.42,10.66-6.48,14.3c-5.01,3.53-4.57,8.94-4.01,13.75c2.65-3.84,5.63-8.06,8.61-12.27c0.74-0.96,1.79-1.64,3.32-2.1
			c-0.59,0.64-1.18,1.28-1.64,1.97c-2.98,4.22-6.01,8.54-8.75,12.86c-2.88,4.65-6.56,8.8-11.18,12.12
			c-4.4,3.17-7.76,6.94-8.65,12.65c-0.31,1.94-2.26,3.63-3.95,5.06c-3.16,2.7-4.22,4.03-4.64,7.48c4.5-3.38,8.95-6.65,13.33-10.09
			c0.88-0.63,1.69-1.43,2.01-2.45c2.22-6.39,7.58-10.02,13.88-11.92c8.64-2.5,14.2-7.22,16.56-15.49c1.36-4.84,5.27-8.22,10.1-10.41
			c5.56-2.5,12.08-3.9,14.78-10.07c0.2,0.22,0.56,0.39,0.75,0.61c-0.13,0.59-0.01,1.29-0.33,1.67c-1.62,1.59-3.1,3.51-5.03,4.83
			c-2.44,1.47-5.19,2.67-7.9,3.76c-5.41,2.18-8.75,6.22-10.91,11.21c-0.64,1.39-1.16,2.84-1.69,4.29c-1.45,4.4-4.73,7.05-9.31,8.7
			c-3.55,1.35-7.16,2.8-10.57,4.47c-3.47,1.78-6.06,4.22-7.7,7.75c-0.99,2.14-2.71,3.95-4.62,5.54
			c-5.28,4.45-10.71,8.57-16.07,12.85C338.15,611.76,336.42,612.65,334.76,613.71z"/>
		<path d="M412.29,515.62c-0.37,1.13-0.55,2.47-1.24,3.33c-4.06,5.28-8.36,10.44-12.65,15.6c-1.11,1.44-1.56,2.4,1.08,3.36
			c1.86-2.13,3.85-4.2,5.77-6.44c0.31,0.27,0.62,0.55,0.93,0.83c-5.23,6.55-10.58,13.05-16.04,19.76c-0.36-0.17-1.01-0.34-1.57-0.73
			c-4.1-2.55-4.1-2.55-1.3-6.07c7.42-9.05,14.84-18.11,22.26-27.16C410.34,517.32,411.44,516.53,412.29,515.62z"/>
		<path d="M373.51,577.53c1.26-5.27,4.8-9.1,8.71-12.49c5.27-4.72,11.23-8.72,14.37-15.2c0.4-0.86,0.92-1.66,1.92-2.23
			c-0.92,1.66-1.47,3.48-2.69,4.87c-3.69,4.15-7.37,8.3-11.55,11.95C379.98,568.3,375.82,572.23,373.51,577.53z"/>
		<path d="M394.4,531.14c-5.96,4-12.06,7.68-14.05,14.83C382.38,538.72,387.36,534,394.4,531.14z"/>
		<path d="M396.16,524.8c-6.18,1.3-10.29,5.12-14.53,8.88C385.15,528.94,389.32,525.02,396.16,524.8z"/>
		<path d="M382.12,558.62c-3.03,3.67-5.93,7.4-8.95,11.08c-0.24-0.11-0.31-0.27-0.55-0.39c3.02-3.67,6.04-7.35,8.94-11.08
			C381.8,558.35,382,558.57,382.12,558.62z"/>
		<path d="M402.85,550.27c2.01-4.02,4.31-8.67,6.56-13.22C409.82,542.83,406.02,546.93,402.85,550.27z"/>
		<path fill="#FFB800" d="M308.61,631.52c-1.14,2.46-2.35,4.76-3.49,7.23c-0.36-0.17-0.85-0.39-1.21-0.56
			c1.14-2.46,2.28-4.93,3.42-7.39C307.65,631.07,308.13,631.3,308.61,631.52z"/>
		<path fill="#00FF8D" d="M537.27,364.19c10.87,7.89,21.81,15.95,32.68,23.84c0.39-0.21,0.9-0.36,1.29-0.57
			c-0.48-0.87-0.86-1.96-1.6-2.56c-20.15-14.79-40.39-29.37-60.54-44.16c-1.73-1.32-2.77-1.29-3.52,0.97
			c6.16,4.42,12.29,8.94,18.41,13.47c-0.2,0.43-0.3,0.64-0.35,0.75c-3.83,6.68-4.46,6.78-11.38,1.76c-4.38-3.2-8.65-6.35-13.15-9.6
			c-17.86,18.92-33.78,38.73-49.08,59.1c3.64,2.6,7.11,5.24,10.75,7.84c0,0,35.44-45.51,53.44-41.6
			c18.04,3.8,46.12,28.38,46.12,28.38l-43.17,54.28c0.76-0.69,1.25-1.11,1.67-1.7c14.74-18.54,29.53-37.19,44.4-55.67
			c1.42-1.81,0.49-2.64-1.18-3.8c-9.64-7.06-19.4-14.18-29.03-21.25c-1.11-0.77-2.17-1.66-3.28-2.43c2.01-2.45,3.71-4.53,5.45-6.71
			c0.24,0.11,0.44,0.33,0.68,0.44c-1.43,1.81-2.97,3.57-4.45,5.49c11.5,8.44,22.73,16.51,34.1,24.89c1.45-2.19,2.81-4.16,4.31-6.46
			c-11.18-8.17-22.17-16.12-33.11-24.18C537.07,364.61,537.17,364.4,537.27,364.19z"/>
		<path fill="#FFFFFF" d="M570.08,389l-33.61-24.67l-5.09,6.23l34.29,25.11L570.08,389z"/>
	</g>
</g>
</svg>
