<?xml version="1.0" encoding="utf-8"?>
<!-- Generator: Adobe Illustrator 24.2.1, SVG Export Plug-In . SVG Version: 6.00 Build 0)  -->
<svg version="1.1" id="Слой_1" xmlns="http://www.w3.org/2000/svg" xmlns:xlink="http://www.w3.org/1999/xlink" x="0px" y="0px"
	 width="177.02px" height="155.91px" viewBox="0 0 177.02 155.91" enable-background="new 0 0 177.02 155.91" xml:space="preserve">
<g>
	<path fill="#6FC378" d="M30.54,67.53c0.5-0.1,0.8-0.3,1-0.5c1.2-0.6-1,0.2-0.6-0.6c0.4-0.1,0.4-0.3,0.7-0.4c0.5,0.2,1.8,1,2.1,0.4
		c0.5-1.2,6.3-2.6,8.2-4.1c0.4,0.5,2.8,0.4,3.1-0.1c-0.3,0-1.3-0.5-0.6-0.6c0.8-0.5,1.7,0.3,1.8-0.5c-0.2,0.1-0.5-0.1-0.1-0.2
		c1.4-0.2,1.8,0.8,2.7,1.3c0.4,0.6-1.5,1.6-0.3,1.8c0.7-0.9,4.4-0.3,5.5,0.3c-1.4,0.5-2.3,2.1-4.2,1.8c-0.3,1.1-0.8,1.4-2.2,1.8
		c0.6-0.6-0.3-0.7-1-0.7c0.7,1,0.3,1.4-0.2,0.8c0.3,1.1-1.5,0.5-1.2,1.3c2,0,2-1.2,3.6-0.9c-1.6,1.4-4.5,1.4-4.9,3.5
		c-2.1,0.6-2.9,0.6-4.1,0.6c1.2,0.5-1.8,1-2,1.2c-0.1,1,1.3,0.4,1.2,1.4c0.8-0.3,1.8-1,2.2-0.3c-1.9,0.9-3.5,0.6-5,1.5
		c0.8,0.1-1.1,1.2-1.5,1.6c0.5-0.1,0.3,0.2,0.1,0.5c0.8-0.1,1.3,0.2,2,0.2c-1.4,0.7,0.5,0.4,0.7,1c-0.2,0.4-1.8,0.4-1.3,1.1
		c0.8,0,3,0.1,2.9-0.8c-1.9,0.4-0.7-1.5,0.1-2.2c1.3,0.9,4.2-1,5.3,0.6c0.3-0.4,0.4-0.8,0.8-1.2c1.8,0,3.1,0,2.3,1.4
		c0.9-0.3,1.2,0.1,1.6,0.3c-0.4,0.4-2.7,1-3,0.3c-0.9,0.3-1,0.7-1.8,0.5c-0.4,0.6-0.7,1.2-1.1,1.7c-2,0-1.7,0.8-3.3,0.8
		c0.2,0.5,0.3,1.1,0.5,1.6c1,0.1,1.3-1.1,1.8-0.5c-0.2,0.1-0.3,0.2-0.5,0.3c-0.7,0.2-1.4,0.4-2,0.4c0.2,0.4,0.8,0.4,1.4,0.3
		c0,0.1-0.1,0.2-0.1,0.3c-2,0.2-4.8,1-5.5,2.2h0.4c1.8-0.8,4.1-0.9,5.4-1.5c0.1,0,0.1,0.1,0.2,0.1c-0.5,0.4-0.8,0.5-1.5,0.4
		c0.2,0.1,0.5,0.2,0.6,0.4c-0.7,0.2-1.4,0.5-2.1,0.7h27.3l-0.5-2.4c-0.4-1.9-0.2-5.1,0.1-8.5c0.6-8.6,1.5-20.4-8.5-21.9
		c-4.3-0.5-7.9-0.7-10.9-0.7c-7.2,0-11.5,1.2-14.2,4c-2.4,2.4-3,5.7-3,9.7C29.74,66.93,30.34,67.03,30.54,67.53z"/>
	<path fill="#6FC378" d="M65.24,82.23c0.5,0,0.9,0.2,1,0.6c0.5-0.1,0.8-0.3,1-0.5c1.2-0.6-1,0.2-0.6-0.6c0.4-0.1,0.4-0.3,0.7-0.4
		c0.5,0.2,1.8,1,2.1,0.4c0.5-1.2,6.3-2.6,8.2-4.1c0.4,0.5,2.8,0.4,3.1-0.1c-0.3,0-1.3-0.5-0.6-0.6c0.8-0.5,1.7,0.3,1.8-0.5
		c-0.2,0.1-0.5-0.1-0.1-0.2c1.4-0.2,1.8,0.8,2.7,1.3c0.4,0.6-1.5,1.6-0.3,1.8c0.7-0.9,4.4-0.3,5.5,0.3c-1.4,0.5-2.3,2.1-4.2,1.8
		c-0.3,1.1-0.8,1.4-2.2,1.8c0.6-0.6-0.3-0.7-1-0.7c0.7,1,0.3,1.4-0.2,0.8c0.3,1.1-1.5,0.5-1.2,1.3c2,0,2-1.2,3.6-0.9
		c-1.5,1.4-4.2,1.4-4.8,3.2h22.2l-0.4-2.3c-0.3-1.8-0.1-4.5,0.1-7.3c0.5-7.4,1.2-17.6-8.4-19.3h-0.1h-0.1c-4.4-0.4-8-0.6-11-0.6
		c-7.3,0-11.4,1.1-14,3.7c-3.1,3.2-3,7.9-2.9,14.5C65.24,77.43,65.24,79.73,65.24,82.23z"/>
	<path fill="#6FC378" d="M172.74,29.73c-0.7,0.2-1.5,0.1-2-0.5c0.4-0.1,0.4,0.2,0.5,0.4c1.1-0.8-0.9-0.8-1.4-0.9
		c-0.7,1.1-2,1.4-3.4,1.9c-0.1-0.6,0.8-0.8,1.4-0.6c0.1-0.7,0.4-1-0.5-1.8c-0.6,1.2-1.2-0.1-2.5,0.9c0-0.3-0.2-0.4-0.5-0.4
		c0.5-1.2,0.4-2.2,1.6-2.6c-0.3-0.1-0.5-0.4-0.6-0.8c-0.7,0.1-0.7,0.5-1.4,0.6c-0.1-0.6-0.7-0.6-1.7-0.3c0.9-0.8,0.3-1.4-0.5-1.8
		c0.6,0.1,1,0,1.5-0.4c-1-0.4-0.5-1.5,0.6-2.1c-0.5-0.6-0.8,0.5-1.8,0.5c-0.2-0.5-0.3-1.1-0.5-1.6c1.6,0,1.3-0.8,3.3-0.8
		c0.3-0.6,0.6-1.2,1.1-1.7c0.8,0.3,0.9-0.2,1.8-0.5c0.3,0.7,2.6,0.1,3-0.3c-0.4-0.3-0.8-0.6-1.6-0.3c0.8-1.4-0.5-1.4-2.3-1.4
		c-0.4,0.3-0.5,0.8-0.8,1.2c-1.1-1.6-3.9,0.3-5.3-0.6c-0.8,0.7-2,2.6-0.1,2.2c0.1,0.8-2.1,0.8-2.9,0.8c-0.5-0.7,1.1-0.6,1.3-1.1
		c-0.2-0.6-2.1-0.3-0.7-1c-0.7,0-1.2-0.3-2-0.2c0.2-0.3,0.3-0.5-0.1-0.5c0.4-0.4,2.3-1.5,1.5-1.6c1.5-0.9,3.1-0.6,5-1.5
		c-0.4-0.7-1.5,0-2.2,0.3c0.1-1-1.3-0.4-1.2-1.4c0.2-0.3,3.2-0.7,2-1.2c1.3,0,2,0,4.1-0.6c0.3-1.9,2.9-2,4.5-3.2
		c-0.1-0.1-0.1-0.2-0.2-0.3c-1.2,0-1.4,1-3.1,1c-0.3-0.8,1.5-0.2,1.2-1.3c0.4,0.6,0.9,0.2,0.2-0.8c0.7,0,1.5,0.2,1,0.7
		c0.2,0,0.3-0.1,0.4-0.1c-0.2-0.2-0.3-0.4-0.5-0.6c-1.3-1.4-2.9-2.1-4.8-2.3c-1.9-0.6-3.8-1-5.5-1.3c-4.3,0.9-10.7,1.9-15.2,2.8
		c-0.8,0.6-1.5,1.2-2.2,2c-8.9,9.8-7,31.3-5.3,50.3c0,0.4,0.1,0.8,0.1,1.2c0.6,0.3,1.4,0.7,1.6,0.2c0.5-1.2,6.3-2.6,8.2-4.1
		c0.4,0.5,2.8,0.4,3.1-0.1c-0.3,0-1.3-0.5-0.6-0.6c0.8-0.5,1.7,0.3,1.8-0.5c-0.2,0.1-0.5-0.1-0.1-0.2c1.4-0.2,1.8,0.8,2.7,1.3
		c0.4,0.6-1.5,1.6-0.3,1.8c0.7-0.9,4.4-0.3,5.5,0.3c-1.4,0.5-2.3,2.1-4.2,1.8c-0.3,1.1-0.8,1.4-2.2,1.8c0.6-0.6-0.3-0.7-1-0.7
		c0.7,1,0.3,1.4-0.2,0.8c0.3,1.1-1.5,0.5-1.2,1.3c2,0,2-1.2,3.6-0.9c-1.6,1.4-4.5,1.4-4.9,3.5c-2.1,0.6-2.9,0.6-4.1,0.6
		c1.2,0.5-1.8,1-2,1.2c-0.1,1,1.3,0.4,1.2,1.4c0.8-0.3,1.8-1,2.2-0.3c-1.9,0.9-3.5,0.6-5,1.5c0.8,0.1-1.1,1.2-1.5,1.6
		c0.5-0.1,0.3,0.2,0.1,0.5c0.8-0.1,1.3,0.2,2,0.2c-1.4,0.7,0.5,0.4,0.7,1c-0.2,0.4-1.8,0.4-1.3,1.1c0.8,0,3,0.1,2.9-0.8
		c-1.9,0.4-0.7-1.5,0.1-2.2c1.3,0.9,4.2-1,5.3,0.6c0.3-0.4,0.4-0.8,0.8-1.2c1.8,0,3.1,0,2.3,1.4c0.9-0.3,1.2,0.1,1.6,0.3
		c-0.4,0.4-2.7,1-3,0.3c-0.9,0.3-1,0.7-1.8,0.5c-0.4,0.6-0.7,1.2-1.1,1.7c-2,0-1.7,0.8-3.3,0.8c0.2,0.5,0.3,1.1,0.5,1.6
		c1,0.1,1.3-1.1,1.8-0.5c-0.2,0.1-0.3,0.2-0.5,0.3c-0.7,0.2-1.4,0.4-2,0.4c0.2,0.4,0.8,0.4,1.4,0.3c0,0.1-0.1,0.2-0.1,0.3
		c-2.2,0.3-5.2,1.1-5.6,2.4c1.9-1,4.5-1,5.9-1.8c0.1,0,0.1,0.1,0.2,0.1c-0.5,0.4-0.8,0.5-1.5,0.4c0.2,0.1,0.5,0.2,0.6,0.4
		c-3.1,1-6.2,1.9-8.5,2.7c0,0.3-0.1,0.5-0.1,0.7c2.8,0.2,8-2.9,9.9-1.3c0.7-0.4,1.2-0.6,1.6-0.8c0.1,0.3,0.3,0.5,0.6,0.6
		c-1.2,0.5-1,1.4-1.6,2.6c0.3,0,0.5,0.1,0.5,0.4c1.2-1,1.9,0.3,2.5-0.9c0.2,0.2,0.4,0.3,0.5,0.5c-1.6,0.8-3.6,1.5-4.3,0.9
		c-0.7,0.3-1,0.8-1.6,1.2c0.3,0.2,0.9,0,0.9,0.5c-0.8-0.7-1.6,0.2-2.6,0.4c-2.2,0.5-4.8,1.1-7.6,1.7h36.9l-0.1-2.1
		c-0.7-14.8-0.3-28.8,0.2-41.1C172.44,38.63,172.64,34.03,172.74,29.73z"/>
	<path fill="#6FC378" d="M101.24,86.83v-2.6c-0.2-10-0.3-15.5,3-18.9c2.7-2.8,7.3-3.3,13.3-3.3c3.4,0,7.5,0.2,11.5,0.4h0.1h0.1
		c9.2,1.9,8.7,10.2,8.3,16.4c-0.1,2.1-0.3,4.1,0,5.7l0.3,2.3H101.24z"/>
	<path fill="#6FC378" d="M52.24,55.03c-6,0-11.4-0.5-16.1-1.5l-0.6-0.1l-0.4-0.4c-0.8-0.8-2.8-2.8-1.9-5c0.9-2.2,3.8-2.6,9.5-2.6
		c1.5,0,3.2,0,5.1,0.1c2.2,0,4.7,0.1,7.3,0.1c20.3,0,48.7-2.7,66.3-25.3c-1.3,0.3-2.3,0.5-3.1,0.5c-3,0-3.1-2.2-3.1-2.5
		c-0.1-4,13.5-11.2,18.6-11.4l1.3-0.1l0.6,1.2c2.1,4.5,1.3,17.5-0.7,20.7c-0.8,1.2-1.7,1.4-2.3,1.4c-1.8,0-2.8-1.4-3.6-5.5
		C114.94,44.43,80.04,55.03,52.24,55.03z"/>
	<path fill="none" stroke="#FFFFFF" stroke-miterlimit="10" d="M59.04,57.33h-19c-3.7,0-6.7,3-6.7,6.7v22.1h32.4v-22.1
		C65.74,60.33,62.64,57.33,59.04,57.33z M61.14,81.53h-23.3v-17.5c0-1.2,1-2.2,2.2-2.2h19c1.2,0,2.2,1,2.2,2.2v17.5H61.14z"/>
	<path fill="none" stroke="#FFFFFF" stroke-miterlimit="10" d="M95.04,61.13h-19c-3.7,0-6.7,3-6.7,6.7v18.2h32.4v-18.2
		C101.74,64.13,98.74,61.13,95.04,61.13z M97.24,81.53h-23.4v-13.7c0-1.2,1-2.2,2.2-2.2h19c1.2,0,2.2,1,2.2,2.2V81.53z"/>
	<path fill="none" stroke="#FFFFFF" stroke-miterlimit="10" d="M131.14,65.73h-19c-3.7,0-6.7,3-6.7,6.7v13.7h32.4v-13.7
		C137.74,68.73,134.74,65.73,131.14,65.73z M133.24,81.53h-23.3v-9.1c0-1.2,1-2.2,2.2-2.2h19c1.2,0,2.2,1,2.2,2.2v9.1H133.24z"/>
	<path fill="none" stroke="#FFFFFF" stroke-miterlimit="10" d="M165.64,6.33h-19c-3.7,0-6.7,3-6.7,6.7v73.3h32.4v-73.3
		C172.34,9.33,169.34,6.33,165.64,6.33z M167.84,81.73h-23.4v-68.7c0-1.2,1-2.2,2.2-2.2h19c1.2,0,2.2,1,2.2,2.2V81.73L167.84,81.73z
		"/>
	<path fill="none" stroke="#FFFFFF" stroke-miterlimit="10" d="M165.64,6.33h-19c-3.7,0-6.7,3-6.7,6.7v73.3h32.4v-73.3
		C172.34,9.33,169.34,6.33,165.64,6.33z M167.84,81.73h-23.4v-68.7c0-1.2,1-2.2,2.2-2.2h19c1.2,0,2.2,1,2.2,2.2V81.73L167.84,81.73z
		"/>
	<path fill="none" stroke="#FFFFFF" stroke-miterlimit="10" d="M38.74,52.93c0.5,0.1,7.3,1.1,17.3,1.1c5.9,0,13-0.4,20.5-1.5
		c25.8-3.9,45.1-15,56-32.5l0.7,7c0.2,1.1,1.1,2,2.3,2c0.1,0,0.1,0,0.2,0c1.2-0.2,2.2-1.2,2-2.5l-1.7-16.5l-16.7,6.6
		c-1.1,0.5-1.7,1.7-1.3,2.9c0.5,1.1,1.7,1.7,2.9,1.3l7.5-2.9c-10.4,16.3-28,26.4-52.6,30.1c-19.6,2.9-36.4,0.5-36.6,0.4
		c-1.2-0.2-2.4,0.7-2.6,1.9C36.74,51.53,37.54,52.73,38.74,52.93z"/>
	<path fill="none" stroke="#000000" stroke-miterlimit="10" d="M56.84,56.03h-19c-3.7,0-6.7,3-6.7,6.7v22h32.4v-22
		C63.54,59.03,60.44,56.03,56.84,56.03z M58.94,80.23h-23.3v-17.5c0-1.2,1-2.2,2.2-2.2h19c1.2,0,2.2,1,2.2,2.2v17.5H58.94z"/>
	<path fill="none" stroke="#000000" stroke-miterlimit="10" d="M92.84,59.83h-19c-3.7,0-6.7,3-6.7,6.7v18.2h32.4v-18.2
		C99.54,62.83,96.54,59.83,92.84,59.83z M95.04,80.23h-23.4v-13.7c0-1.2,1-2.2,2.2-2.2h19c1.2,0,2.2,1,2.2,2.2V80.23L95.04,80.23z"
		/>
	<path fill="none" stroke="#000000" stroke-miterlimit="10" d="M128.94,64.43h-19c-3.7,0-6.7,3-6.7,6.7v13.7h32.4v-13.7
		C135.54,67.43,132.54,64.43,128.94,64.43z M131.04,80.23h-23.3v-9.1c0-1.2,1-2.2,2.2-2.2h19c1.2,0,2.2,1,2.2,2.2v9.1H131.04z"/>
	<path fill="none" stroke="#000000" stroke-miterlimit="10" d="M163.44,5.03h-19c-3.7,0-6.7,3-6.7,6.7v73.3h32.4v-73.3
		C170.14,8.03,167.14,5.03,163.44,5.03z M165.64,80.43h-23.4v-68.7c0-1.2,1-2.2,2.2-2.2h19c1.2,0,2.2,1,2.2,2.2V80.43z"/>
	<path fill="none" stroke="#000000" stroke-miterlimit="10" d="M36.54,51.63c0.4,0,7.3,1.1,17.3,1.1c5.9,0,13-0.4,20.5-1.5
		c25.8-3.9,45.1-15,56-32.5l0.7,7c0.2,1.1,1.1,2,2.3,2c0.1,0,0.1,0,0.2,0c1.2-0.2,2.2-1.2,2-2.5l-1.6-16.5l-16.7,6.6
		c-1.1,0.5-1.7,1.7-1.3,2.9c0.5,1.1,1.7,1.7,2.9,1.3l7.5-2.9c-10.3,16.3-27.9,26.4-52.5,30.1c-19.6,3-36.4,0.5-36.6,0.4
		c-1.2-0.2-2.4,0.7-2.6,1.9C34.54,50.23,35.34,51.43,36.54,51.63z"/>
	<path fill="#F9B916" d="M20.67,115.25c-1.06,0.36-1.18,0.83-2.13,0.59c-0.47,0.71-0.83,1.42-1.3,2.02c-2.37,0-2.01,0.94-3.9,0.94
		c0.24,0.59,0.35,1.3,0.59,1.89c1.18,0.12,1.54-1.3,2.13-0.59c-0.24,0.12-0.35,0.24-0.59,0.36c-0.83,0.23-1.66,0.47-2.37,0.47
		c0.24,0.47,0.95,0.47,1.66,0.36c0,0.11-0.12,0.23-0.12,0.35c-2.01,0.24-4.61,0.83-5.91,1.89v0.59c2.13-0.82,4.85-0.94,6.27-1.77
		c0.12,0,0.12,0.12,0.24,0.12c-0.59,0.47-0.95,0.59-1.78,0.47c0.24,0.12,0.59,0.24,0.71,0.48c-1.89,0.59-3.78,1.18-5.56,1.77v1.42
		c2.84-0.83,5.68-1.78,7.22-0.59c0.83-0.48,1.42-0.71,1.89-0.95c0.12,0.36,0.35,0.59,0.71,0.71c-1.42,0.59-1.18,1.66-1.89,3.08
		c0.36,0,0.59,0.11,0.59,0.47c1.42-1.18,2.25,0.35,2.96-1.06c0.24,0.23,0.47,0.35,0.59,0.59c-1.89,0.94-4.26,1.77-5.09,1.06
		c-0.83,0.36-1.18,0.95-1.89,1.42c0.36,0.24,1.07,0,1.07,0.59c-0.95-0.83-1.89,0.24-3.08,0.48c-0.95,0.23-2.01,0.47-2.96,0.59v9.11
		c0,3.31,2.6,5.91,5.91,5.91h1.07c3.31,0,5.91-2.6,5.91-5.91v-26.62C21.26,115.61,20.78,115.49,20.67,115.25z"/>
	<path fill="#F9B916" d="M14.99,95.5c0.47,0.59,3.31,0.47,3.67-0.12c-0.35,0-1.54-0.59-0.71-0.71c0.95-0.59,2.01,0.35,2.13-0.59
		c-0.24,0.12-0.59-0.12-0.12-0.24h0.12c-1.07-1.18-2.6-2.01-4.38-2.01h-0.95c-2.13,0-5.68,1.42-6.74,3.08
		c-0.47,0.82-0.83,1.89-0.83,2.95c0,0-0.12,0.48-0.24,1.07C9.31,97.98,13.33,96.8,14.99,95.5z"/>
	<path fill="#F9B916" d="M144.63,137.85c-4.49-3.2-33.83-2.02-33.83-2.02s1.3-1.77,1.42-3.43c0.12-1.65-0.35-5.2-6.62-5.56
		c-6.27-0.23-16.21-5.44-24.01-8.63c-7.33-2.96-6.74-5.21-12.66-9.47c-5.91-4.25-10.41-8.51-16.44-12.06
		c-6.03-3.55-14.55-3.43-21.41-3.43c-3.31,0-6.27,0.83-8.52,1.65c0.24,0.24,0.47,0.36,0.71,0.6c0.47,0.71-1.78,1.89-0.36,2.13
		c0.83-1.07,5.21-0.36,6.51,0.35c-1.66,0.59-2.72,2.48-4.97,2.13c-0.35,1.3-0.95,1.66-2.6,2.13c0.71-0.71-0.36-0.83-1.18-0.83
		c0.83,1.18,0.36,1.66-0.24,0.95c0.35,1.3-1.78,0.59-1.42,1.53c2.37,0,2.37-1.41,4.26-1.06c-1.89,1.66-5.32,1.66-5.8,4.14
		c-2.48,0.71-3.43,0.71-4.85,0.71c1.42,0.59-2.13,1.18-2.37,1.42c-0.12,1.18,1.54,0.47,1.42,1.66c0.95-0.36,2.13-1.19,2.6-0.36
		c-2.13,1.07-4.02,0.83-5.68,1.66v0.35v2.49c0.12,0,0.35,0,0.59,0.11c-0.24,0.12-0.47,0.24-0.59,0.36v0.24
		c0.24,0.11,1.18,0.23,1.3,0.71c-0.12,0.35-0.95,0.47-1.3,0.71v0.59c0.95,0,3.43,0,3.31-0.95c-2.25,0.47-0.83-1.77,0.12-2.6
		c1.54,1.06,4.97-1.18,6.27,0.71c0.35-0.48,0.47-0.95,0.95-1.42c1.66,0,2.96,0,3.08,0.71c5.21,2.25,16.33,6.5,16.92,8.16
		c0.83,2.13,5.8,12.07,24.49,22.48c18.69,10.41,61.04,5.44,65.77,5.44c5.56-0.12,16.09,0.23,17.27-1.54
		C148.18,146.36,149.13,141.04,144.63,137.85z"/>
	<path fill="none" stroke="#FFFFFF" stroke-linecap="round" stroke-miterlimit="10" d="M10.25,106.97V96.32
		c0-1.07,0.83-1.89,1.89-1.89H19c1.07,0,1.89,0.82,1.89,1.89v46.73c0,1.06-0.83,1.89-1.89,1.89h-6.86c-1.07,0-1.89-0.83-1.89-1.89
		v-19.17"/>
	<path fill="none" stroke="#FFFFFF" stroke-linecap="round" stroke-miterlimit="10" d="M73.54,116.55
		c22.24,14.67,26.74,10.3,32.18,14.67c4.26,3.55,0.71,8.87-4.73,8.28c-10.76-1.42-26.26-9.58-28.98-12.3
		c-3.19-3.19-17.98-2.96-8.52,3.9c9.46,6.86,43.65,16.92,44.83,14.08c0.71-1.66,2.13-3.31,3.31-4.38c0.83-0.82,2.01-1.3,3.31-1.3
		h28.04c2.36,0,4.38,2.01,4.38,4.38c0,2.37-2.02,4.38-4.38,4.38h-2.6c0,0-37.27,0.35-47.68,1.53c-10.41,1.19-25.2-3.9-25.2-3.9
		s-23.66-6.51-30.99-5.68c-4.85,0.59-8.16-0.23-9.94-0.94c-0.83-0.36-1.42-1.07-1.42-1.9v-35.01c0-0.83,0.59-1.54,1.42-1.66
		c4.97-0.83,22.36-2.72,34.54,7.22"/>
	<path fill="none" stroke="#000000" stroke-width="2" stroke-linecap="round" stroke-miterlimit="10" d="M8.01,108.39V97.75
		c0-1.07,0.83-1.9,1.89-1.9h6.86c1.07,0,1.89,0.83,1.89,1.9v46.72c0,1.07-0.83,1.89-1.89,1.89H9.9c-1.06,0-1.89-0.82-1.89-1.89
		v-19.16"/>
	<path fill="none" stroke="#000000" stroke-width="2" stroke-linecap="round" stroke-miterlimit="10" d="M72.12,117.74
		c22.24,14.66,26.73,10.29,32.18,14.66c4.26,3.55,0.71,8.88-4.73,8.29c-10.76-1.42-26.26-9.59-28.98-12.31
		c-3.19-3.19-17.98-2.95-8.52,3.91c9.46,6.86,42.94,16.56,44.83,14.07c0.12-0.23,0.83-0.82,0.95-1.06c1.66-3.2,4.38-4.61,8.04-4.61
		h25.67c2.36,0,4.38,2.01,4.38,4.37c0,2.37-2.02,4.38-4.38,4.38h-2.6c0,0-37.27,0.35-47.68,1.54c-10.41,1.18-25.2-3.91-25.2-3.91
		s-23.66-6.5-30.99-5.68c-4.85,0.6-8.16-0.23-9.94-0.94c-0.83-0.36-1.42-1.07-1.42-1.89v-35.02c0-0.83,0.59-1.54,1.42-1.66
		c4.97-0.82,22.36-2.72,34.54,7.22"/>
</g>
</svg>
