<?xml version="1.0" encoding="utf-8"?>
<!-- Generator: Adobe Illustrator 24.2.1, SVG Export Plug-In . SVG Version: 6.00 Build 0)  -->
<svg version="1.1" id="Слой_1" xmlns="http://www.w3.org/2000/svg" xmlns:xlink="http://www.w3.org/1999/xlink" x="0px" y="0px"
	 width="184.17px" height="183.96px" viewBox="0 0 184.17 183.96" enable-background="new 0 0 184.17 183.96" xml:space="preserve">
<g>
	<path fill="none" stroke="#FFFFFF" stroke-miterlimit="10" d="M156.62,65.43c-2.11,0.92-3.95,1.71-5.67,2.77
		c-0.65,0.39-1.18,1.58-1.18,2.5c-0.13,5.67-0.13,11.34,0,17c0.13,2.77-1.19,4.62-3.69,5.93c-15.55,7.38-30.97,15.03-46.79,22.28
		c-4.48,1.98-9.62,1.98-14.1-0.13c-15.69-7.25-31.11-14.9-46.79-22.28c-2.51-1.18-3.69-2.9-3.56-5.67
		c0.13-5.53-0.13-11.2,0.13-16.73c0-1.85-0.53-2.77-2.24-3.56c-7.38-3.3-14.63-7.12-22.01-10.41c-3.03-1.32-3.95-3.56-3.95-6.59
		c0-3.17,1.18-5.14,4.08-6.59c26.1-12.39,52.19-24.91,78.16-37.44c2.37-1.05,4.22-1.05,6.59,0c26.1,12.66,52.32,25.18,78.42,37.57
		c2.9,1.32,3.95,3.29,3.95,6.32c0,3.17-0.92,5.41-3.95,6.59c-2.77,1.06-6.46,1.98-7.78,4.09c-1.45,2.37-0.52,6.06-0.66,9.23
		c-0.13,6.72-0.13,13.57,0.14,20.29c0,1.06,0.66,2.11,1.18,3.17c0.66,1.45,1.58,2.63,2.11,4.08c0.4,0.92,0.66,1.98,0.92,2.9
		c3.96,12.79,3.96,12.79-1.45,25.17c-1.58,3.56-4.61,5.8-7.9,5.54c-3.43-0.13-6.33-2.37-7.52-6.06c-0.13-0.27-0.13-0.53-0.26-0.79
		c-4.61-13.71-4.48-14.76,0.79-27.94c0.26-0.53,0.4-1.19,0.79-1.45c3.03-2.24,2.37-5.54,2.37-8.7c0-6.72,0-13.58,0-20.3
		C156.75,66.22,156.62,66.09,156.62,65.43z M18.1,50.67c0.66,0.39,1.06,0.66,1.45,0.79C43.28,62.79,67,74.13,90.72,85.33
		c0.93,0.4,2.51,0.26,3.56-0.26c10.55-4.88,21.09-10.02,31.5-15.03c13.44-6.46,26.89-12.78,40.73-19.37
		c-0.93-0.53-1.45-0.93-2.11-1.32c-23.33-11.2-46.79-22.41-70.12-33.48c-1.18-0.52-2.9-0.39-4.08,0.13
		C67,27.08,43.8,38.15,20.47,49.22C19.81,49.61,19.16,50.14,18.1,50.67z M140.67,73.21c-1.31,0.65-2.1,0.92-2.9,1.31
		c-13.83,6.59-27.54,13.18-41.25,19.77c-3.03,1.45-5.4,1.45-8.43-0.13C74.38,87.44,60.54,80.98,46.7,74.39
		c-0.79-0.39-1.58-0.79-2.9-1.32c0,3.96,0.13,7.52-0.13,11.07c-0.13,1.59,0.66,2.51,1.98,3.17c13.97,6.59,27.81,13.44,41.91,19.77
		c2.37,1.05,6.19,1.18,8.57,0.13c14.36-6.46,28.47-13.44,42.57-20.3c0.79-0.39,1.58-1.45,1.58-2.11
		C140.81,80.98,140.67,77.29,140.67,73.21z M160.97,120.13c4.22-5.28,2.9-10.81,0.13-16.35
		C158.2,109.32,157.54,114.85,160.97,120.13z"/>
	<path fill="#6FC378" d="M87.43,106.29c2.9-2.38,4.74-0.4,6.19-1.32c-1.71,0-3.42-0.27-4.61-0.92c-0.66-0.27-1.45-0.66-2.11-1.06
		c-0.26,0.66-0.53,1.32-0.79,2.11C86.77,105.23,87.43,105.49,87.43,106.29z"/>
	<path fill="#6FC378" d="M74.51,97.46c-1.58-0.66-3.03-1.45-4.61-2.11c-4.61,1.45-9.1,2.76-12.92,3.95
		c1.32,0.66,2.64,1.32,4.09,1.98C65.29,100.22,70.16,98.38,74.51,97.46z"/>
	<path fill="#6FC378" d="M65.68,93.24c-0.39,0.39-0.66,0.92-0.79,1.45c0.66-0.27,1.19-0.66,1.85-0.93
		C66.34,93.63,65.95,93.5,65.68,93.24z"/>
	<path fill="#6FC378" d="M10.98,53.43c-2.76-1.45-3.03-3.03-4.87-4.08c0.53,1.45,1.71,2.63,3.56,3.56c1.05,0.52,2.11,0.92,3.03,1.45
		c1.71-0.79,3.29-1.58,4.48-2.51C14.02,53.04,12.83,51.46,10.98,53.43z"/>
	<path fill="#6FC378" d="M177.58,39.46C150.3,21.14,106.28-1.79,86.11,2.82C39.06,28.66,7.29,33.27,5.71,47.5
		c34.8-6.98,74.86-23.98,84.88-24.64c-5.01-1.72,1.45-2.11,3.69-3.03c3.96-2.51,8.17,3.42,6.86,8.17
		c1.58-2.24,11.99-1.06,16.07,0.79c-6.19,3.16-11.07,6.19-18.45,10.54c1.58-1.71-0.92-1.97-2.9-2.11c1.98,2.77,0.79,3.96-0.52,2.24
		c-6.99,7.52,1.45,1.19,7.11,1.06c-8.83,3.95-16.21,13.18-26.09,11.73c1.32,4.35-11.34,0.79-2.38,7.77
		c2.25-0.92,5.28-3.03,6.59-0.92c-5.53,2.64-10.28,1.85-14.62,4.48c2.5,0.4-3.3,3.43-4.35,4.62c1.31-0.27,0.92,0.52,0.39,1.31
		c2.51-0.39,3.82,0.53,5.8,0.66c-4.61,1.72,6.06,2.64-0.66,4.35c-4.88,2.77,6.59,2.37,7.38-0.39c-10.54-4.09,11.47-9.49,15.69-4.75
		c0.39-4.35,11.99-5.01,9.22,0.53c2.64-0.79,3.56,0.13,4.75,0.92c-17.53,1.32-9.62,4.35-26.63,9.76c0.4,3.95,1.72,5.14,6.59,3.29
		c-1.45,1.05-2.63,1.45-5.8,1.98c0.8,0.13,0.14,0.52,2.77,1.05c15.16,13.97,45.34-12.65,62.08-17.4
		c5.53,20.7-33.87,27.02-47.58,35.59c0,0.13,0.13,0.13,0.13,0.26c-5.93,4.48-11.33,0.53-15.95,5.14
		c16.08,12.92,61.29-15.94,72.36-23.32c3.56-7.91-6.19-21.62,7.38-25.44c-0.13,7.77,1.06,19.24-0.52,28.99
		c-25.31,51.41,36.24,52.2,10.01-2.9C161.76,38.67,192.21,60.02,177.58,39.46z M164.27,117.62c-3.43-5.4-2.9-11.07,0.13-16.87
		C167.17,106.42,168.62,112.09,164.27,117.62z"/>
	<path fill="none" stroke="#000000" stroke-miterlimit="10" d="M157.94,61.47c-2.11,0.93-3.95,1.72-5.67,2.77
		c-0.66,0.4-1.18,1.58-1.18,2.51c-0.13,5.66-0.13,11.33,0,17c0.13,2.77-1.19,4.61-3.69,5.93c-15.56,7.38-30.98,15.03-46.79,22.27
		c-4.48,1.98-9.62,1.98-14.1-0.13c-15.69-7.25-31.11-14.89-46.79-22.27c-2.51-1.19-3.69-2.9-3.56-5.67
		c0.13-5.53-0.13-11.2,0.13-16.74c0-1.84-0.53-2.77-2.24-3.56c-7.38-3.29-14.63-7.11-22.01-10.41c-3.03-1.32-3.95-3.56-3.95-6.59
		c0-3.16,1.18-5.14,4.08-6.59C38.27,27.6,64.36,15.08,90.33,2.56c2.37-1.05,4.22-1.05,6.59,0c26.09,12.65,52.32,25.17,78.42,37.56
		c2.9,1.32,3.95,3.3,3.95,6.33c0,3.16-0.92,5.4-3.95,6.59c-2.77,1.05-6.46,1.98-7.78,4.09c-1.45,2.37-0.53,6.06-0.66,9.22
		c-0.13,6.72-0.13,13.58,0.13,20.3c0,1.05,0.66,2.11,1.19,3.16c0.66,1.45,1.58,2.64,2.11,4.09c0.4,0.92,0.66,1.97,0.92,2.9
		c3.96,12.78,3.96,12.78-1.45,25.17c-1.58,3.56-4.61,5.8-7.91,5.54c-3.42-0.14-6.32-2.38-7.51-6.07c-0.13-0.26-0.13-0.52-0.26-0.79
		c-4.61-13.7-4.48-14.76,0.79-27.94c0.26-0.53,0.39-1.18,0.79-1.45c3.03-2.24,2.37-5.53,2.37-8.7c0-6.72,0-13.57,0-20.29
		C158.07,62.27,157.94,62.13,157.94,61.47z M19.42,46.71c0.66,0.4,1.05,0.66,1.45,0.79c23.72,11.34,47.45,22.67,71.17,33.88
		c0.92,0.39,2.51,0.26,3.56-0.27c10.54-4.87,21.09-10.01,31.5-15.02c13.44-6.46,26.89-12.79,40.73-19.38
		c-0.93-0.52-1.45-0.92-2.11-1.31c-23.33-11.21-46.79-22.41-70.12-33.48c-1.19-0.53-2.9-0.4-4.09,0.13
		C68.32,23.12,45.12,34.19,21.79,45.26C21.13,45.66,20.47,46.19,19.42,46.71z M141.99,69.25c-1.32,0.66-2.11,0.92-2.9,1.32
		c-13.84,6.59-27.54,13.18-41.25,19.77c-3.03,1.45-5.4,1.45-8.43-0.13C75.7,83.49,61.86,77.03,48.02,70.44
		c-0.79-0.4-1.58-0.79-2.9-1.32c0,3.95,0.13,7.51-0.13,11.07c-0.13,1.58,0.66,2.5,1.98,3.16c13.97,6.59,27.81,13.45,41.91,19.77
		c2.37,1.06,6.19,1.19,8.56,0.14c14.37-6.46,28.47-13.45,42.58-20.3c0.79-0.4,1.58-1.45,1.58-2.11
		C142.12,77.03,141.99,73.34,141.99,69.25z M162.29,116.17c4.22-5.27,2.9-10.81,0.13-16.34
		C159.52,105.36,158.86,110.9,162.29,116.17z"/>
	<path fill="#F9B916" d="M17.33,145.68c-1.06,0.36-1.18,0.83-2.13,0.59c-0.47,0.71-0.83,1.42-1.3,2.02c-2.36,0-2.01,0.94-3.9,0.94
		c0.23,0.59,0.35,1.3,0.59,1.89c1.18,0.12,1.54-1.3,2.13-0.59c-0.24,0.12-0.36,0.24-0.59,0.36c-0.83,0.23-1.66,0.47-2.37,0.47
		c0.24,0.47,0.95,0.47,1.66,0.36c0,0.11-0.12,0.23-0.12,0.35c-2.01,0.24-4.61,0.83-5.92,1.89v0.6c2.13-0.83,4.85-0.95,6.27-1.78
		c0.12,0,0.12,0.12,0.24,0.12c-0.59,0.47-0.95,0.59-1.77,0.47c0.23,0.12,0.59,0.24,0.71,0.48c-1.9,0.59-3.79,1.18-5.56,1.77v1.42
		c2.84-0.83,5.67-1.78,7.21-0.59c0.83-0.48,1.42-0.71,1.89-0.95c0.12,0.36,0.36,0.59,0.71,0.71c-1.41,0.59-1.18,1.66-1.89,3.08
		c0.36,0,0.59,0.12,0.59,0.47c1.42-1.18,2.25,0.35,2.96-1.06c0.24,0.23,0.47,0.35,0.59,0.59c-1.89,0.94-4.26,1.77-5.08,1.06
		c-0.83,0.36-1.19,0.95-1.9,1.42c0.36,0.24,1.07,0,1.07,0.59c-0.95-0.83-1.9,0.24-3.08,0.48c-0.94,0.23-2.01,0.47-2.96,0.59v9.11
		c0,3.31,2.61,5.91,5.92,5.91h1.06c3.32,0,5.92-2.6,5.92-5.91v-26.62C17.92,146.04,17.45,145.92,17.33,145.68z"/>
	<path fill="#F9B916" d="M11.65,125.93c0.48,0.59,3.32,0.47,3.67-0.12c-0.35,0-1.54-0.59-0.71-0.71c0.95-0.59,2.01,0.35,2.13-0.59
		c-0.24,0.12-0.59-0.12-0.12-0.24h0.12c-1.06-1.18-2.6-2.01-4.38-2.01h-0.94c-2.13,0-5.68,1.42-6.75,3.08
		c-0.47,0.82-0.82,1.89-0.82,2.95c0,0-0.12,0.48-0.24,1.07C5.98,128.41,10,127.23,11.65,125.93z"/>
	<path fill="#F9B916" d="M141.3,168.28c-4.49-3.2-33.83-2.02-33.83-2.02s1.3-1.77,1.42-3.43c0.12-1.65-0.35-5.2-6.62-5.56
		c-6.27-0.23-16.21-5.44-24.02-8.63c-7.33-2.96-6.74-5.21-12.65-9.46c-5.92-4.26-10.41-8.52-16.45-12.07
		c-6.03-3.55-14.55-3.43-21.41-3.43c-3.31,0-6.27,0.83-8.52,1.65c0.24,0.24,0.48,0.36,0.71,0.6c0.48,0.71-1.77,1.89-0.35,2.13
		c0.83-1.07,5.2-0.36,6.51,0.35c-1.66,0.59-2.72,2.48-4.97,2.13c-0.36,1.3-0.95,1.66-2.6,2.13c0.7-0.71-0.36-0.83-1.19-0.83
		c0.83,1.18,0.36,1.66-0.23,0.95c0.35,1.3-1.78,0.59-1.42,1.54c2.36,0,2.36-1.42,4.25-1.07c-1.89,1.66-5.32,1.66-5.79,4.14
		c-2.49,0.71-3.43,0.71-4.85,0.71c1.42,0.59-2.13,1.18-2.37,1.42c-0.12,1.18,1.54,0.47,1.42,1.66c0.95-0.36,2.13-1.19,2.6-0.36
		c-2.12,1.07-4.02,0.83-5.67,1.66v0.35v2.49c0.11,0,0.35,0,0.59,0.11c-0.24,0.12-0.48,0.24-0.59,0.36v0.24
		c0.23,0.11,1.18,0.23,1.3,0.71c-0.12,0.35-0.95,0.47-1.3,0.71v0.59c0.94,0,3.43,0,3.31-0.95c-2.25,0.47-0.83-1.77,0.12-2.6
		c1.53,1.06,4.97-1.18,6.27,0.71c0.35-0.47,0.47-0.95,0.94-1.42c1.66,0,2.96,0,3.08,0.71c5.2,2.25,16.32,6.5,16.91,8.16
		c0.83,2.13,5.8,12.07,24.49,22.48c18.69,10.41,61.04,5.44,65.77,5.44c5.56-0.12,16.09,0.23,17.27-1.54
		C144.85,176.79,145.8,171.47,141.3,168.28z"/>
	<path fill="none" stroke="#FFFFFF" stroke-linecap="round" stroke-miterlimit="10" d="M6.92,137.4v-10.65
		c0-1.07,0.82-1.89,1.89-1.89h6.86c1.06,0,1.89,0.82,1.89,1.89v46.73c0,1.06-0.83,1.89-1.89,1.89H8.81c-1.07,0-1.89-0.83-1.89-1.89
		v-19.17"/>
	<path fill="none" stroke="#FFFFFF" stroke-linecap="round" stroke-miterlimit="10" d="M70.21,146.98
		c22.24,14.67,26.73,10.3,32.18,14.67c4.25,3.55,0.71,8.87-4.74,8.28c-10.76-1.42-26.26-9.58-28.98-12.3
		c-3.19-3.19-17.98-2.96-8.51,3.9c9.46,6.86,43.65,16.92,44.83,14.08c0.71-1.66,2.13-3.31,3.31-4.38c0.83-0.82,2.01-1.3,3.31-1.3
		h28.04c2.36,0,4.38,2.01,4.38,4.38s-2.02,4.38-4.38,4.38h-2.6c0,0-37.27,0.35-47.68,1.53c-10.41,1.19-25.19-3.9-25.19-3.9
		s-23.66-6.51-31-5.68c-4.85,0.59-8.16-0.23-9.93-0.94c-0.83-0.36-1.42-1.07-1.42-1.9v-35.01c0-0.83,0.59-1.54,1.42-1.66
		c4.97-0.83,22.35-2.72,34.54,7.22"/>
	<path fill="none" stroke="#000000" stroke-width="2" stroke-linecap="round" stroke-miterlimit="10" d="M4.67,138.82v-10.64
		c0-1.07,0.83-1.9,1.9-1.9h6.86c1.06,0,1.89,0.83,1.89,1.9v46.72c0,1.07-0.83,1.89-1.89,1.89H6.57c-1.07,0-1.9-0.82-1.9-1.89v-19.16
		"/>
	<path fill="none" stroke="#000000" stroke-width="2" stroke-linecap="round" stroke-miterlimit="10" d="M68.79,148.17
		c22.24,14.66,26.73,10.29,32.18,14.66c4.25,3.55,0.71,8.88-4.74,8.29c-10.76-1.42-26.26-9.59-28.98-12.31
		c-3.19-3.19-17.98-2.95-8.51,3.91c9.46,6.86,42.94,16.56,44.83,14.07c0.12-0.23,0.83-0.82,0.95-1.06c1.65-3.2,4.37-4.61,8.04-4.61
		h25.67c2.36,0,4.38,2.01,4.38,4.37c0,2.37-2.02,4.38-4.38,4.38h-2.6c0,0-37.27,0.35-47.68,1.54c-10.41,1.18-25.19-3.91-25.19-3.91
		s-23.66-6.5-31-5.67c-4.85,0.59-8.16-0.24-9.93-0.95c-0.83-0.36-1.42-1.07-1.42-1.89v-35.02c0-0.83,0.59-1.54,1.42-1.66
		c4.97-0.82,22.35-2.72,34.54,7.22"/>
</g>
</svg>
