<?xml version="1.0" encoding="utf-8"?>
<!-- Generator: Adobe Illustrator 24.2.1, SVG Export Plug-In . SVG Version: 6.00 Build 0)  -->
<svg version="1.1" id="Слой_1" xmlns="http://www.w3.org/2000/svg" xmlns:xlink="http://www.w3.org/1999/xlink" x="0px" y="0px"
	 width="200.68px" height="118.98px" viewBox="0 0 200.68 118.98" enable-background="new 0 0 200.68 118.98" xml:space="preserve">
<g>
	<path fill="#F9B916" d="M18.53,72.48c-1.24,0.42-1.38,0.97-2.48,0.69c-0.55,0.83-0.97,1.66-1.52,2.35c-2.76,0-2.35,1.11-4.56,1.11
		c0.28,0.69,0.42,1.51,0.69,2.2c1.39,0.14,1.8-1.51,2.49-0.69c-0.28,0.14-0.41,0.28-0.69,0.42c-0.97,0.27-1.93,0.55-2.76,0.55
		c0.27,0.55,1.1,0.55,1.93,0.41c0,0.14-0.14,0.28-0.14,0.42c-2.34,0.27-5.38,0.96-6.9,2.21v0.69c2.49-0.97,5.66-1.11,7.32-2.07
		c0.14,0,0.14,0.13,0.27,0.13c-0.69,0.56-1.1,0.69-2.07,0.56c0.28,0.13,0.69,0.27,0.83,0.55c-2.21,0.69-4.42,1.38-6.49,2.07v1.66
		c3.32-0.97,6.63-2.07,8.42-0.69c0.97-0.56,1.66-0.83,2.21-1.11c0.14,0.42,0.42,0.69,0.83,0.83c-1.66,0.69-1.38,1.93-2.21,3.59
		c0.42,0,0.69,0.14,0.69,0.55c1.66-1.38,2.62,0.42,3.45-1.24c0.28,0.27,0.56,0.41,0.69,0.69c-2.21,1.1-4.97,2.07-5.93,1.24
		c-0.97,0.42-1.38,1.11-2.21,1.66c0.41,0.27,1.24,0,1.24,0.69c-1.1-0.97-2.21,0.27-3.59,0.55c-1.1,0.28-2.34,0.55-3.45,0.69v10.63
		c0,3.86,3.04,6.9,6.9,6.9h1.25c3.86,0,6.9-3.04,6.9-6.9V72.76C19.22,72.9,18.67,72.76,18.53,72.48z"/>
	<path fill="#F9B916" d="M11.91,49.43c0.55,0.69,3.86,0.55,4.28-0.14c-0.42,0-1.8-0.69-0.83-0.83c1.1-0.69,2.34,0.42,2.48-0.69
		c-0.27,0.14-0.69-0.14-0.14-0.27h0.14c-1.24-1.38-3.03-2.35-5.1-2.35h-1.11c-2.48,0-6.63,1.66-7.87,3.59
		c-0.55,0.97-0.96,2.21-0.96,3.45c0,0-0.14,0.55-0.28,1.24C5.28,52.33,9.97,50.95,11.91,49.43z"/>
	<path fill="#F9B916" d="M163.2,98.85c-5.24-3.73-39.48-2.35-39.48-2.35s1.52-2.07,1.66-4c0.14-1.93-0.41-6.08-7.73-6.49
		c-7.32-0.28-18.91-6.35-28.02-10.08c-8.56-3.45-7.87-6.07-14.77-11.04c-6.91-4.97-12.15-9.94-19.19-14.08
		c-7.04-4.14-16.98-4-24.99-4c-3.86,0-7.32,0.96-9.94,1.93c0.28,0.27,0.55,0.41,0.83,0.69c0.55,0.83-2.07,2.21-0.41,2.48
		c0.96-1.24,6.07-0.41,7.59,0.42c-1.93,0.69-3.18,2.9-5.8,2.48c-0.41,1.52-1.1,1.93-3.04,2.49c0.83-0.83-0.41-0.97-1.38-0.97
		c0.97,1.38,0.42,1.93-0.27,1.1c0.41,1.52-2.07,0.7-1.66,1.8c2.76,0,2.76-1.66,4.97-1.24c-2.21,1.93-6.21,1.93-6.76,4.83
		c-2.9,0.83-4.01,0.83-5.66,0.83c1.65,0.69-2.49,1.38-2.76,1.65c-0.14,1.38,1.79,0.56,1.65,1.94c1.11-0.42,2.49-1.38,3.04-0.42
		c-2.49,1.24-4.69,0.97-6.63,1.93v0.42v2.9c0.14,0,0.42,0,0.69,0.14c-0.27,0.13-0.55,0.27-0.69,0.41v0.28
		c0.28,0.13,1.38,0.27,1.52,0.82c-0.14,0.42-1.1,0.56-1.52,0.83v0.69c1.11,0,4.01,0,3.87-1.1c-2.62,0.55-0.97-2.07,0.14-3.04
		c1.79,1.24,5.79-1.38,7.31,0.83c0.42-0.55,0.55-1.1,1.11-1.66c1.93,0,3.45,0,3.59,0.83c6.07,2.62,19.05,7.59,19.74,9.53
		c0.96,2.48,6.76,14.08,28.57,26.22c21.81,12.15,71.23,6.35,76.75,6.35c6.49-0.13,18.78,0.28,20.16-1.79
		C167.34,108.79,168.45,102.58,163.2,98.85z"/>
	<path fill="none" stroke="#FFFFFF" stroke-linecap="round" stroke-miterlimit="10" d="M6.38,62.81V50.39
		c0-1.24,0.96-2.21,2.21-2.21h8c1.25,0,2.21,0.97,2.21,2.21v54.53c0,1.24-0.96,2.2-2.21,2.2h-8c-1.25,0-2.21-0.96-2.21-2.2V82.55"/>
	<path fill="none" stroke="#FFFFFF" stroke-linecap="round" stroke-miterlimit="10" d="M80.24,74
		c25.95,17.12,31.2,12.01,37.55,17.12c4.97,4.14,0.83,10.35-5.52,9.66C99.7,99.13,81.62,89.6,78.44,86.43
		c-3.72-3.73-20.98-3.46-9.93,4.55c11.04,8.01,50.93,19.74,52.31,16.43c0.83-1.93,2.49-3.87,3.87-5.11
		c0.97-0.97,2.35-1.52,3.86-1.52h32.72c2.76,0,5.11,2.35,5.11,5.11s-2.35,5.11-5.11,5.11h-3.04c0,0-43.48,0.41-55.63,1.79
		c-12.15,1.38-29.4-4.55-29.4-4.55s-27.61-7.6-36.17-6.63c-5.66,0.69-9.52-0.28-11.59-1.1c-0.97-0.42-1.66-1.25-1.66-2.21V57.44
		c0-0.97,0.69-1.8,1.66-1.94c5.79-0.96,26.09-3.17,40.3,8.42"/>
	<path fill="none" stroke="#000000" stroke-width="2" stroke-linecap="round" stroke-miterlimit="10" d="M3.76,64.48V52.05
		c0-1.24,0.97-2.21,2.21-2.21h8.01c1.24,0,2.21,0.97,2.21,2.21v54.53c0,1.24-0.97,2.21-2.21,2.21H5.97c-1.24,0-2.21-0.97-2.21-2.21
		V84.22"/>
	<path fill="none" stroke="#000000" stroke-width="2" stroke-linecap="round" stroke-miterlimit="10" d="M78.58,75.38
		c25.95,17.12,31.2,12.01,37.55,17.12c4.97,4.14,0.83,10.35-5.52,9.66c-12.56-1.65-30.65-11.18-33.82-14.36
		c-3.73-3.72-20.98-3.45-9.94,4.56c11.04,8.01,50.11,19.33,52.32,16.43c0.14-0.28,0.96-0.97,1.1-1.24c1.93-3.73,5.11-5.39,9.39-5.39
		h29.95c2.77,0,5.11,2.35,5.11,5.11c0,2.76-2.34,5.11-5.11,5.11h-3.03c0,0-43.49,0.41-55.63,1.79c-12.15,1.38-29.41-4.55-29.41-4.55
		s-27.61-7.6-36.17-6.63c-5.66,0.69-9.52-0.28-11.59-1.1c-0.97-0.42-1.66-1.25-1.66-2.21V58.82c0-0.97,0.69-1.8,1.66-1.94
		c5.8-0.96,26.09-3.17,40.31,8.42"/>
	<path fill="#00FF8D" d="M182.06,45.5c1.24-0.43,1.36-0.99,2.47-0.73c0.54-0.84,0.94-1.67,1.48-2.37c2.76-0.05,2.33-1.14,4.54-1.18
		c-0.29-0.69-0.44-1.51-0.73-2.2c-1.38-0.11-1.77,1.55-2.47,0.73c0.27-0.14,0.41-0.28,0.68-0.42c0.97-0.29,1.93-0.59,2.75-0.6
		c-0.28-0.55-1.11-0.53-1.93-0.38c-0.01-0.14,0.13-0.28,0.13-0.42c2.34-0.31,5.36-1.05,6.86-2.32l-0.01-0.69
		c-2.47,1.01-5.64,1.2-7.28,2.19c-0.14,0-0.14-0.13-0.28-0.13c0.68-0.57,1.09-0.71,2.06-0.59c-0.28-0.13-0.69-0.26-0.83-0.54
		c2.19-0.72,4.39-1.45,6.45-2.17l-0.03-1.66c-3.3,1.02-6.59,2.18-8.41,0.83c-0.95,0.57-1.64,0.85-2.19,1.14
		c-0.14-0.41-0.42-0.68-0.84-0.82c1.65-0.71,1.35-1.95,2.15-3.62c-0.41,0.01-0.69-0.13-0.7-0.54c-1.63,1.41-2.63-0.37-3.43,1.3
		c-0.28-0.27-0.56-0.41-0.7-0.68c2.19-1.14,4.93-2.15,5.91-1.34c0.96-0.43,1.37-1.13,2.19-1.69c-0.42-0.27-1.25,0.02-1.26-0.67
		c1.12,0.94,2.21-0.32,3.58-0.61c1.1-0.3,2.34-0.6,3.44-0.75l-0.17-10.63c-0.07-3.86-3.15-6.85-7.02-6.79l-1.24,0.02
		c-3.87,0.07-6.85,3.15-6.79,7.02l0.51,31.05C181.36,45.1,181.92,45.23,182.06,45.5z"/>
	<path fill="#00FF8D" d="M189.06,68.44c-0.56-0.68-3.87-0.49-4.27,0.21c0.41-0.01,1.8,0.66,0.84,0.82c-1.09,0.7-2.35-0.38-2.47,0.73
		c0.27-0.15,0.69,0.12,0.14,0.27h-0.14c1.27,1.36,3.08,2.3,5.15,2.27l1.1-0.02c2.48-0.04,6.6-1.77,7.81-3.72
		c0.54-0.98,0.93-2.22,0.91-3.47c0,0,0.13-0.55,0.25-1.24C195.64,65.44,190.97,66.89,189.06,68.44z"/>
	<path fill="#00FF8D" d="M36.98,21.52c5.3,3.64,39.51,1.69,39.51,1.69s-1.48,2.1-1.59,4.03c-0.11,1.94,0.51,6.07,7.84,6.36
		c7.32,0.16,19.01,6.04,28.18,9.62c8.61,3.31,7.97,5.94,14.95,10.8c6.98,4.85,12.31,9.74,19.42,13.76
		c7.1,4.03,17.04,3.73,25.05,3.59c3.86-0.06,7.3-1.08,9.9-2.09c-0.28-0.27-0.56-0.41-0.84-0.68c-0.56-0.82,2.04-2.24,0.38-2.49
		c-0.95,1.26-6.07,0.52-7.6-0.29c1.92-0.72,3.12-2.95,5.75-2.58c0.39-1.52,1.08-1.95,3-2.53c-0.82,0.84,0.43,0.96,1.4,0.94
		c-0.99-1.36-0.45-1.92,0.25-1.11c-0.44-1.51,2.06-0.72,1.63-1.82c-2.76,0.05-2.73,1.7-4.95,1.33c2.18-1.97,6.18-2.04,6.69-4.95
		c2.88-0.87,3.98-0.89,5.64-0.92c-1.67-0.66,2.46-1.42,2.73-1.7c0.12-1.38-1.8-0.52-1.68-1.9c-1.1,0.43-2.47,1.42-3.03,0.46
		c2.46-1.28,4.67-1.04,6.59-2.04l-0.01-0.42l-0.04-2.89c-0.14,0-0.42,0-0.7-0.13c0.28-0.14,0.55-0.29,0.69-0.43l-0.01-0.27
		c-0.28-0.14-1.38-0.26-1.53-0.81c0.13-0.41,1.1-0.57,1.5-0.85l-0.01-0.69c-1.1,0.02-4,0.07-3.84,1.17c2.61-0.6,1,2.05-0.09,3.04
		c-1.82-1.22-5.78,1.47-7.33-0.71c-0.41,0.56-0.53,1.11-1.08,1.67c-1.93,0.04-3.45,0.06-3.6-0.77c-6.12-2.52-19.17-7.27-19.89-9.19
		c-1.01-2.47-7-13.97-29.01-25.76c-22-11.79-71.32-5.18-76.84-5.09C47.92,7.12,35.63,6.9,34.29,9
		C32.67,11.65,31.67,17.88,36.98,21.52z"/>
	<path fill="none" stroke="#FFFFFF" stroke-linecap="round" stroke-miterlimit="10" d="M194.37,54.97l0.21,12.42
		c0.02,1.25-0.93,2.23-2.18,2.25l-8,0.13c-1.24,0.02-2.23-0.93-2.25-2.17l-0.89-54.52c-0.02-1.24,0.93-2.23,2.17-2.25l8.01-0.13
		c1.24-0.02,2.22,0.93,2.24,2.17l0.37,22.36"/>
	<path fill="none" stroke="#FFFFFF" stroke-linecap="round" stroke-miterlimit="10" d="M120.34,45
		C94.11,28.31,88.95,33.5,82.51,28.5c-5.03-4.06-0.99-10.34,5.37-9.75c12.58,1.45,30.82,10.67,34.05,13.8
		c3.79,3.66,21.03,3.1,9.86-4.72C120.62,20,80.54,8.93,79.21,12.26c-0.8,1.95-2.42,3.91-3.78,5.17c-0.95,0.98-2.32,1.56-3.84,1.58
		l-32.71,0.54c-2.76,0.05-5.15-2.26-5.19-5.02c-0.05-2.76,2.26-5.15,5.02-5.19l3.04-0.05c0,0,43.47-1.13,55.59-2.71
		s29.47,4.07,29.47,4.07s27.73,7.14,36.28,6.03c5.64-0.78,9.52,0.12,11.61,0.92c0.97,0.4,1.68,1.21,1.69,2.18l0.67,40.85
		c0.02,0.97-0.66,1.81-1.62,1.96c-5.78,1.06-26.04,3.61-40.44-7.75"/>
	<path fill="none" stroke="#000000" stroke-width="2" stroke-linecap="round" stroke-miterlimit="10" d="M196.96,53.26l0.2,12.43
		c0.02,1.24-0.93,2.22-2.17,2.24l-8,0.13c-1.25,0.02-2.23-0.93-2.25-2.17l-0.89-54.52c-0.02-1.24,0.93-2.22,2.17-2.25l8-0.13
		c1.25-0.02,2.23,0.93,2.25,2.18l0.37,22.36"/>
	<path fill="none" stroke="#000000" stroke-width="2" stroke-linecap="round" stroke-miterlimit="10" d="M121.97,43.59
		c-26.23-16.69-31.39-11.5-37.82-16.5c-5.04-4.06-1-10.34,5.36-9.75c12.59,1.45,30.83,10.68,34.05,13.8
		c3.79,3.66,21.04,3.1,9.86-4.72C122.25,18.6,83,7.92,80.84,10.85c-0.13,0.28-0.95,0.99-1.08,1.27c-1.87,3.75-5.02,5.46-9.3,5.53
		l-29.95,0.49c-2.76,0.05-5.14-2.26-5.19-5.02c-0.05-2.76,2.26-5.14,5.02-5.19l3.04-0.05c0,0,43.47-1.13,55.59-2.71
		c12.13-1.58,29.48,4.07,29.48,4.07s27.73,7.14,36.27,6.04c5.65-0.79,9.53,0.12,11.61,0.91c0.98,0.4,1.68,1.21,1.69,2.18l0.68,40.86
		c0.01,0.96-0.66,1.8-1.63,1.96c-5.78,1.06-26.03,3.6-40.44-7.76"/>
</g>
</svg>
