<?xml version="1.0" encoding="utf-8"?>
<!-- Generator: Adobe Illustrator 24.2.1, SVG Export Plug-In . SVG Version: 6.00 Build 0)  -->
<svg version="1.1" id="Слой_1" xmlns="http://www.w3.org/2000/svg" xmlns:xlink="http://www.w3.org/1999/xlink" x="0px" y="0px"
	 width="169.53px" height="187.58px" viewBox="0 0 169.53 187.58" enable-background="new 0 0 169.53 187.58" xml:space="preserve">
<g>
	<path fill="#6FC378" d="M13.2,93.91c-2.47,0-4.51-1.83-4.83-4.4c-0.21-2.69,1.72-5.05,4.29-5.26l10.73-1.08
		c2.68-0.32,5.04,1.72,5.26,4.3c0.21,2.68-1.72,5.04-4.29,5.26L13.63,93.8C13.52,93.91,13.41,93.91,13.2,93.91z"/>
	<path fill="#6FC378" d="M26.94,66.21c-0.32,0-0.75,0-1.07-0.11l-10.52-2.46c-2.58-0.65-4.19-3.22-3.65-5.8
		c0.64-2.58,3.22-4.19,5.8-3.65l10.52,2.47c2.58,0.64,4.19,3.22,3.65,5.8C31.13,64.71,29.19,66.21,26.94,66.21z"/>
	<path fill="#6FC378" d="M161.87,93.91c-0.11,0-0.32,0-0.43,0l-11.81-1.08c-2.68-0.21-4.62-2.57-4.4-5.26
		c0.21-2.68,2.58-4.61,5.26-4.4l11.81,1.08c2.68,0.21,4.62,2.57,4.4,5.26C166.38,91.97,164.34,93.91,161.87,93.91z"/>
	<path fill="#6FC378" d="M110.88,27.68c-0.75,0-1.61-0.22-2.25-0.54c-2.36-1.29-3.22-4.19-1.93-6.55l5.26-9.66
		c1.29-2.36,4.19-3.22,6.55-1.93c2.36,1.29,3.22,4.19,1.93,6.55l-5.26,9.66C114.31,26.82,112.6,27.68,110.88,27.68z"/>
	<path fill="#6FC378" d="M87.26,23.06c-2.58,0-3.22-4.08-3.22-6.65L82.11,7.6c-0.11-2.68,2.04-4.93,4.72-4.93
		c2.68,0,4.94,2.04,4.94,4.72l0.32,10.73c0.11,2.69-2.04,4.94-4.72,4.94C87.37,23.06,87.37,23.06,87.26,23.06z"/>
	<path fill="#6FC378" d="M49.7,122.57c0-1.61-0.11-3.12-0.11-4.73c-0.75,0.22-1.39,0.33-2.04,0.43c0.21,0.43,0.86,0.43,1.5,0.33
		c0,0.1-0.11,0.21-0.11,0.32c-2.36,0.32-5.58,1.18-6.01,2.57c2.04-1.07,4.83-1.07,6.33-1.93c0.11,0,0.11,0.11,0.21,0.11
		c-0.54,0.43-0.86,0.54-1.61,0.43c0.21,0.11,0.54,0.21,0.64,0.43c-2.25,0.75-4.4,1.39-6.44,2.04c0,0.43,0,0.86,0.11,1.18
		C44.97,123.1,47.98,121.82,49.7,122.57z"/>
	<path fill="#6FC378" d="M42.18,111.4c0,0.33-2.36,3.33,0,0.86c0.75,0,1.18,0.22,1.93,0.22c-1.5,0.75,0.54,0.43,0.75,1.07
		c-0.21,0.43-1.93,0.43-1.4,1.18c0.86,0,3.22,0.11,3.11-0.86c-2.04,0.43-0.75-1.61,0.11-2.36c0.64,0.43,1.72,0.22,2.79,0.11
		c0-1.93,0-3.87,0-5.91c-0.86,0.11-1.39,0.11-2.25,0.11c1.29,0.54-1.93,1.08-2.15,1.29c-0.11,1.07,1.4,0.43,1.29,1.5
		c0.86-0.32,1.93-1.07,2.36-0.32c-2.04,0.97-3.76,0.65-5.37,1.61C44.11,110.12,42.93,110.87,42.18,111.4z"/>
	<path fill="#6FC378" d="M48.19,117.95c0.64,0,1.07-0.43,1.4-0.64c0-0.54,0-1.18,0-1.72c-0.54,0.21-0.86,0.54-1.83,0.54
		C47.87,116.88,48.09,117.41,48.19,117.95z"/>
	<path fill="#6FC378" d="M133.42,73.3c-0.11-6.01-5.15-13.85-11.16-14.17c-2.68-0.11-5.47,0-8.05,0
		c-2.47-12.02-5.9-10.74-16.32-16.1c-6.76-3.55-14.28,2.36-21.36,2.36c-11.49-0.11-13.95,1.93-16.1,13.63
		c-2.79,0-5.37-0.11-7.84,0.11c-6.33,0.32-10.3,4.29-10.41,10.62c0,7.41-1.72,17.29-2.36,25.77c-0.21,2.79,3.01,4.5,5.26,2.79
		c1.83-1.4,3.54-2.79,4.19-3.22c0.11,0.1,0.21,0.1,0.32,0.21c0-2.04,0-4.08,0-6.22c8.8,4.72,12.67,8.58,20.72,13.09
		c0.97,0.54,5.69,2.69,5.9,3.97c0.97,5.16,3.11,6.98,8.27,7.09c2.15,0.11,4.19,0.11,6.33,0c4.4-0.11,6.66-2.47,7.51-6.87
		c0.32-1.5,1.18-3.44,2.36-4.19c7.73-4.4,15.24-5.15,24.37-13.31c0,11.7,0.11,22.44-0.21,33.38c-0.11,1.29-2.58,3.44-3.97,3.44
		c-22.43,0.21-44.87,0.21-67.3,0c-1.5,0.64-3.01,1.07-3.65,0.43c-0.75,0.32-1.07,0.86-1.72,1.29c0.32,0.21,0.97,0,0.97,0.53
		c-0.86-0.75-1.72,0.22-2.79,0.43c-0.64,0.11-1.39,0.33-2.25,0.43c1.72,2.58,4.62,4.08,8.37,4.08c23.19,0.11,46.48,0.11,69.66,0
		c6.01,0,13.42-2.25,13.42-8.37C135.78,107,133.53,91.01,133.42,73.3z M73.53,52.69c9.12,0.1,18.35,0.1,27.48,0
		c4.08,0,5.69,1.71,4.83,6.01c-12.34,0-24.69,0-37.35,0C67.84,54.3,69.55,52.69,73.53,52.69z M90.59,105.71c-2.25,0-4.29,0-6.66,0
		c0-2.25,0-4.4,0-7.08c2.25,0,4.29,0,6.66,0C90.59,101.1,90.59,103.25,90.59,105.71z M118.61,84.25
		c-6.98,3.11-13.74,7.29-20.4,10.84c-6.23-5.69-15.67-5.69-21.79,0.1c-8.27-4.4-16.75-8.69-24.8-13.63c-1.5-0.96-1.93-4.72-1.93-7.3
		c-0.32-7.73-0.21-7.73,7.19-7.73c20.61,0,34.28,6.34,55,6.34c6.01,0,12.73-6.12,13.27,0C125.69,78.66,123.76,81.88,118.61,84.25z"
		/>
	<path fill="#6FC378" d="M51.31,125.89c0.32-0.21,0.64-0.32,0.86-0.42c-0.43-0.22-0.75-0.43-1.07-0.76
		c-0.11,0.22-0.21,0.54-0.32,0.76C51.09,125.47,51.31,125.57,51.31,125.89z"/>
	<path fill="#6FC378" d="M131.27,35.3c0.43-0.11,0.86-0.22,0.97-0.32c-0.11,0-0.32,0-0.54-0.11
		C131.6,34.87,131.49,35.08,131.27,35.3z"/>
	<path fill="#6FC378" d="M148.77,29.29c-1.5-2.26-4.4-2.9-6.65-1.4l-9.45,6.12l-0.11,0.11c0.54,0,1.07,0.21,1.07-0.32
		c-0.21,0.1-0.54-0.11-0.11-0.22c1.5-0.21,1.93,0.86,2.9,1.4c0.43,0.64-1.61,1.71-0.32,1.93c0.75-0.97,4.72-0.32,5.9,0.32
		c-1.5,0.54-2.47,2.25-4.51,1.93c-0.32,1.18-0.86,1.51-2.36,1.93c0.64-0.64-0.32-0.75-1.07-0.75c0.75,1.08,0.32,1.51-0.21,0.86
		c0.32,0.97-1.18,0.65-1.29,1.18c0.11,0.11,0.21,0.11,0.43,0.22c1.72-0.11,1.93-1.18,3.54-0.97c-0.64,0.65-1.61,0.97-2.47,1.4
		c0.32,0.1,0.64,0.1,1.07,0.1c0.86,0,1.82-0.21,2.58-0.75l9.45-6.12C149.52,34.55,150.17,31.54,148.77,29.29z"/>
	<path fill="#6FC378" d="M162.62,60.74c0-0.32,0.21-0.43,0.43-0.54c0.11-0.54,0.22-1.07,0.11-1.5c-0.54,0.43-1.18-0.43-2.36,0.53
		c0-0.32-0.22-0.42-0.54-0.42c0.54-1.29,0.43-2.37,1.72-2.8c-0.32-0.1-0.43-0.32-0.54-0.64c-0.11-0.11-0.22-0.11-0.22-0.21
		c-0.54,0.21-0.64,0.43-1.29,0.64c-0.11-0.64-0.75-0.64-1.82-0.32c0.54-0.43,0.54-0.86,0.43-1.18c-0.43,0-0.75,0-1.18,0.1
		l-11.16,2.47c-2.58,0.54-4.29,3.12-3.65,5.8c0.54,2.25,2.47,3.76,4.72,3.76c0.32,0,0.64,0,1.07-0.11l11.16-2.47
		c1.61-0.32,2.9-1.5,3.43-3C162.83,60.74,162.73,60.74,162.62,60.74z"/>
	<path fill="#6FC378" d="M41,34.12L32.09,28c-1.18-0.75-2.47-0.97-3.76-0.75c1.93,1.18,3.76,2.36,3.76,3.75
		c0.75,0.33,1.4,0.54,1.83,0.65c-0.11,0.32-0.21,0.64-0.11,0.86c-1.18-0.54-1.93,0.21-3.22,0.64c0.21,0.22,0.32,0.43,0.11,0.65
		c1.72,0.21,1.18,1.71,2.47,1.28c0,0.33,0,0.54,0,0.75c-1.82-0.64-3.76-1.71-3.76-2.68c-0.75-0.32-1.39-0.21-2.04-0.43
		c0.11,0.32,0.64,0.75,0.32,1.08c0-1.19-1.4-1.08-2.25-1.72c-0.21-0.22-0.54-0.43-0.86-0.54c-0.11,1.61,0.54,3.33,2.04,4.29
		l8.91,6.12c0.86,0.54,1.83,0.86,2.68,0.86c1.5,0,3.01-0.75,3.97-2.04C43.68,38.63,43.15,35.62,41,34.12z"/>
	<path fill="#6FC378" d="M65.37,20.7l-4.94-9.66c-1.18-2.36-4.08-3.33-6.55-2.15c-1.07,0.54-1.83,1.5-2.25,2.47
		c0.21,0.75,1.82,2.26,2.25,2.26c-0.21-0.22-0.64-1.4,0-0.86c0.97,0.21,1.07,1.5,1.72,1.07c-0.21-0.11-0.32-0.43,0.11-0.21
		c1.18,0.96,0.75,2.03,0.97,3c-0.22,0.75-2.36,0-1.61,1.07c1.18-0.21,3.43,3.22,3.87,4.51c-1.5-0.75-3.33-0.21-4.51-1.93
		c-0.11,0-0.11,0.11-0.21,0.11l2.36,4.51c0.86,1.71,2.58,2.68,4.29,2.68c0.75,0,1.5-0.22,2.15-0.54
		C65.69,25.96,66.55,23.06,65.37,20.7z"/>
	<path fill="#F9B916" d="M14.17,151.98c-0.97,0.32-1.07,0.75-1.93,0.53c-0.43,0.65-0.75,1.29-1.18,1.83c-2.15,0-1.82,0.86-3.54,0.86
		c0.21,0.53,0.32,1.18,0.54,1.72c1.07,0.1,1.4-1.19,1.93-0.54c-0.21,0.11-0.32,0.21-0.54,0.32c-0.75,0.22-1.5,0.43-2.15,0.43
		c0.21,0.43,0.86,0.43,1.5,0.32c0,0.11-0.11,0.22-0.11,0.32c-1.82,0.22-4.19,0.76-5.37,1.72v0.54c1.93-0.75,4.4-0.86,5.69-1.61
		c0.11,0,0.11,0.11,0.21,0.11c-0.54,0.42-0.86,0.53-1.61,0.42c0.21,0.11,0.54,0.22,0.64,0.43c-1.72,0.54-3.43,1.08-5.05,1.61v1.29
		c2.58-0.75,5.15-1.61,6.55-0.53c0.75-0.43,1.29-0.65,1.72-0.86c0.11,0.32,0.32,0.53,0.64,0.64c-1.29,0.54-1.07,1.5-1.72,2.79
		c0.32,0,0.54,0.11,0.54,0.43c1.29-1.07,2.04,0.32,2.68-0.97c0.21,0.22,0.43,0.33,0.54,0.54c-1.72,0.86-3.86,1.61-4.62,0.97
		c-0.75,0.32-1.07,0.86-1.72,1.29c0.32,0.21,0.97,0,0.97,0.53c-0.86-0.75-1.72,0.22-2.79,0.43c-0.86,0.22-1.83,0.43-2.68,0.54v8.26
		c0,3.01,2.36,5.37,5.37,5.37h0.97c3.01,0,5.37-2.36,5.37-5.37v-24.15C14.7,152.3,14.27,152.19,14.17,151.98z"/>
	<path fill="#F9B916" d="M9.01,134.05c0.43,0.54,3.01,0.43,3.33-0.11c-0.32,0-1.4-0.53-0.64-0.64c0.86-0.54,1.83,0.32,1.93-0.54
		c-0.21,0.11-0.54-0.1-0.11-0.21h0.11c-0.97-1.08-2.36-1.83-3.97-1.83H8.8c-1.93,0-5.15,1.29-6.12,2.79
		c-0.43,0.76-0.75,1.72-0.75,2.69c0,0-0.11,0.43-0.21,0.96C3.86,136.31,7.51,135.23,9.01,134.05z"/>
	<path fill="#F9B916" d="M126.66,172.48c-4.08-2.9-30.7-1.83-30.7-1.83s1.18-1.61,1.29-3.11c0.11-1.5-0.32-4.72-6.01-5.04
		c-5.69-0.22-14.71-4.94-21.79-7.84c-6.66-2.68-6.12-4.72-11.48-8.59c-5.37-3.86-9.45-7.73-14.92-10.95
		c-5.47-3.22-13.2-3.11-19.43-3.11c-3.01,0-5.69,0.75-7.73,1.5c0.21,0.22,0.43,0.33,0.64,0.54c0.43,0.64-1.61,1.72-0.32,1.93
		c0.75-0.96,4.72-0.32,5.9,0.32c-1.5,0.54-2.47,2.26-4.51,1.94c-0.32,1.18-0.86,1.5-2.36,1.93c0.64-0.65-0.32-0.75-1.07-0.75
		c0.75,1.07,0.32,1.5-0.21,0.86c0.32,1.18-1.61,0.53-1.29,1.39c2.15,0,2.15-1.29,3.86-0.96c-1.72,1.5-4.83,1.5-5.26,3.75
		c-2.25,0.65-3.11,0.65-4.4,0.65c1.29,0.53-1.93,1.07-2.15,1.28c-0.11,1.08,1.39,0.43,1.29,1.51c0.86-0.32,1.93-1.08,2.36-0.32
		c-1.93,0.96-3.65,0.75-5.15,1.5v0.32v2.25c0.11,0,0.32,0,0.54,0.11c-0.21,0.11-0.43,0.22-0.54,0.32v0.22
		c0.21,0.11,1.07,0.21,1.18,0.64c-0.11,0.32-0.86,0.43-1.18,0.65v0.53c0.86,0,3.11,0,3.01-0.86c-2.04,0.43-0.75-1.61,0.11-2.36
		c1.39,0.97,4.51-1.07,5.69,0.65c0.32-0.43,0.43-0.86,0.86-1.29c1.5,0,2.68,0,2.79,0.64c4.72,2.04,14.81,5.91,15.35,7.41
		c0.75,1.93,5.26,10.95,22.22,20.39c16.96,9.45,55.39,4.94,59.68,4.94c5.04-0.11,14.6,0.22,15.67-1.39
		C129.88,180.21,130.74,175.38,126.66,172.48z"/>
	<path fill="none" stroke="#FFFFFF" stroke-linecap="round" stroke-miterlimit="10" d="M4.71,144.46v-9.66
		c0-0.97,0.75-1.72,1.72-1.72h6.23c0.97,0,1.72,0.75,1.72,1.72v42.4c0,0.96-0.75,1.71-1.72,1.71H6.43c-0.97,0-1.72-0.75-1.72-1.71
		v-17.39"/>
	<path fill="none" stroke="#FFFFFF" stroke-linecap="round" stroke-miterlimit="10" d="M62.15,153.16
		c20.18,13.31,24.26,9.34,29.2,13.31c3.86,3.22,0.64,8.05-4.29,7.51c-9.77-1.29-23.83-8.69-26.3-11.16
		c-2.9-2.9-16.32-2.69-7.73,3.54c8.59,6.23,39.61,15.35,40.68,12.77c0.64-1.5,1.93-3,3.01-3.97c0.75-0.75,1.83-1.18,3.01-1.18h25.44
		c2.15,0,3.97,1.83,3.97,3.97c0,2.15-1.83,3.98-3.97,3.98h-2.36c0,0-33.81,0.32-43.26,1.39c-9.45,1.07-22.86-3.54-22.86-3.54
		s-21.47-5.91-28.12-5.15c-4.4,0.53-7.41-0.22-9.02-0.86c-0.75-0.32-1.29-0.97-1.29-1.72v-31.77c0-0.75,0.54-1.4,1.29-1.51
		c4.51-0.75,20.29-2.46,31.34,6.55"/>
	<path fill="none" stroke="#000000" stroke-width="2" stroke-linecap="round" stroke-miterlimit="10" d="M2.68,145.75v-9.66
		c0-0.96,0.75-1.72,1.72-1.72h6.23c0.97,0,1.72,0.76,1.72,1.72v42.4c0,0.97-0.75,1.72-1.72,1.72H4.4c-0.97,0-1.72-0.75-1.72-1.72
		V161.1"/>
	<path fill="none" stroke="#000000" stroke-width="2" stroke-linecap="round" stroke-miterlimit="10" d="M60.86,154.23
		c20.18,13.31,24.26,9.34,29.2,13.31c3.86,3.22,0.64,8.05-4.29,7.52c-9.77-1.29-23.83-8.7-26.3-11.17c-2.9-2.9-16.32-2.68-7.73,3.54
		c8.59,6.23,38.97,15.03,40.68,12.78c0.11-0.22,0.75-0.75,0.86-0.97c1.5-2.9,3.97-4.18,7.3-4.18h23.29c2.15,0,3.97,1.82,3.97,3.97
		c0,2.14-1.82,3.97-3.97,3.97h-2.36c0,0-33.81,0.32-43.26,1.39c-9.45,1.08-22.86-3.54-22.86-3.54s-21.47-5.9-28.12-5.15
		c-4.4,0.54-7.41-0.22-9.02-0.86c-0.75-0.32-1.29-0.97-1.29-1.72v-31.77c0-0.75,0.54-1.4,1.29-1.5c4.51-0.75,20.29-2.47,31.34,6.55"
		/>
	<path fill="none" stroke="#FFFFFF" stroke-miterlimit="10" d="M60.43,59.02c2.15-11.7,4.61-13.85,15.99-13.85
		c7.08,0,14.17,0,21.36,0c11.7,0,13.96,1.83,16.32,13.85c2.58,0,5.37-0.11,8.05,0c6.01,0.43,9.98,4.4,9.98,10.41
		c0.11,17.71,0.11,35.53,0,53.35c-0.11,6.23-3.97,10.41-9.98,10.41c-23.19,0.11-46.48,0.11-69.67,0c-6.23,0-10.2-4.18-10.3-10.62
		c-0.11-17.5-0.21-35.1-0.11-52.71c0.11-6.33,4.08-10.41,10.41-10.62C55.17,58.91,57.64,59.02,60.43,59.02z M124.94,89.08
		c-8.8,4.72-16.64,8.8-24.37,13.31c-1.18,0.64-2.04,2.68-2.36,4.18c-0.86,4.4-3.11,6.77-7.51,6.87c-2.15,0.11-4.19,0.11-6.33,0
		c-5.15-0.1-7.3-2.04-8.27-7.08c-0.22-1.29-0.75-3.11-1.72-3.65c-7.94-4.51-16.1-8.8-24.9-13.42c0,11.7-0.11,22.65,0.21,33.71
		c0,1.18,2.47,3.11,3.86,3.11c22.43,0.21,44.87,0.21,67.3,0c1.4,0,3.86-2.26,3.97-3.44C125.05,111.51,124.94,100.78,124.94,89.08z
		 M98.11,95.09c6.76-3.65,13.42-7.73,20.39-10.84c5.15-2.37,7.09-5.59,6.55-11.27c-0.54-6.12-0.32-6.34-6.33-6.34
		c-20.61,0-41.22,0-61.94,0c-7.41,0-7.51,0-7.3,7.62c0.11,2.58,0.43,6.34,1.93,7.3c8.05,4.94,16.53,9.23,24.8,13.63
		C82.43,89.4,91.99,89.4,98.11,95.09z M68.48,58.7c12.67,0,25.01,0,37.35,0c0.86-4.4-0.86-6.01-4.83-6.01
		c-9.12,0.1-18.36,0.1-27.48,0C69.55,52.69,67.84,54.3,68.48,58.7z M83.94,98.63c0,2.68,0,4.83,0,7.08c2.36,0,4.4,0,6.66,0
		c0-2.46,0-4.72,0-7.08C88.34,98.63,86.3,98.63,83.94,98.63z"/>
	<path fill="none" stroke="#FFFFFF" stroke-miterlimit="10" d="M13.2,96.27c-2.47,0-4.51-1.83-4.83-4.4
		c-0.21-2.69,1.72-5.05,4.29-5.26l10.73-1.08c2.68-0.32,5.04,1.72,5.26,4.3c0.21,2.68-1.72,5.04-4.29,5.26l-10.73,1.07
		C13.52,96.16,13.31,96.27,13.2,96.27z"/>
	<path fill="none" stroke="#FFFFFF" stroke-miterlimit="10" d="M26.83,68.57c-0.32,0-0.75,0-1.07-0.1L15.24,66
		c-2.58-0.65-4.19-3.22-3.65-5.8c0.64-2.57,3.22-4.18,5.8-3.65l10.52,2.47c2.58,0.64,4.19,3.22,3.65,5.8
		C31.02,67.07,29.09,68.57,26.83,68.57z"/>
	<path fill="none" stroke="#FFFFFF" stroke-miterlimit="10" d="M38.1,45.17c-0.97,0-1.93-0.32-2.68-0.85l-8.91-6.12
		c-2.15-1.51-2.79-4.51-1.29-6.77c1.5-2.14,4.51-2.79,6.76-1.28l8.91,6.12c2.15,1.5,2.79,4.5,1.29,6.76
		C41.22,44.42,39.71,45.17,38.1,45.17z"/>
	<path fill="none" stroke="#FFFFFF" stroke-miterlimit="10" d="M60.97,30.04c-1.72,0-3.43-0.97-4.29-2.68l-4.94-9.67
		c-1.18-2.36-0.32-5.25,2.15-6.54c2.47-1.29,5.26-0.22,6.55,2.14l4.94,9.66c1.18,2.37,0.32,5.26-2.15,6.55
		C62.47,29.82,61.72,30.04,60.97,30.04z"/>
	<path fill="none" stroke="#FFFFFF" stroke-miterlimit="10" d="M161.76,96.27c-0.11,0-0.32,0-0.43,0l-11.81-1.08
		c-2.68-0.21-4.62-2.57-4.4-5.26c0.21-2.68,2.58-4.61,5.26-4.4l11.81,1.08c2.68,0.21,4.61,2.57,4.4,5.26
		C166.38,94.34,164.23,96.27,161.76,96.27z"/>
	<path fill="none" stroke="#FFFFFF" stroke-miterlimit="10" d="M147.16,68.57c-2.25,0-4.19-1.5-4.72-3.75
		c-0.54-2.58,1.07-5.16,3.65-5.8l11.16-2.47c2.58-0.53,5.15,1.08,5.8,3.65c0.54,2.58-1.07,5.15-3.65,5.8l-11.16,2.47
		C147.81,68.47,147.48,68.57,147.16,68.57z"/>
	<path fill="none" stroke="#FFFFFF" stroke-miterlimit="10" d="M135.14,45.17c-1.61,0-3.11-0.75-4.08-2.25
		c-1.5-2.25-0.86-5.26,1.4-6.66l9.45-6.11c2.25-1.4,5.26-0.86,6.66,1.39c1.5,2.26,0.86,5.26-1.4,6.66l-9.45,6.11
		C136.96,44.96,136.1,45.17,135.14,45.17z"/>
	<path fill="none" stroke="#FFFFFF" stroke-miterlimit="10" d="M110.88,30.04c-0.75,0-1.61-0.22-2.25-0.54
		c-2.36-1.29-3.22-4.18-1.93-6.55l5.26-9.66c1.29-2.36,4.19-3.22,6.55-1.93c2.36,1.29,3.22,4.19,1.93,6.55l-5.26,9.66
		C114.21,29.07,112.6,30.04,110.88,30.04z"/>
	<path fill="none" stroke="#FFFFFF" stroke-miterlimit="10" d="M87.26,25.42c-2.58,0-4.72-2.04-4.83-4.72L82.11,9.97
		c-0.11-2.69,2.04-4.94,4.72-4.94c2.68,0,4.94,2.04,4.94,4.72l0.32,10.74c0.11,2.68-2.04,4.93-4.72,4.93H87.26z"/>
	<path fill="none" stroke="#000000" stroke-miterlimit="10" d="M60.54,56.77c2.15-11.7,4.62-13.85,15.99-13.85
		c7.08,0,14.17,0,21.36,0c11.7,0,13.95,1.82,16.32,13.85c2.58,0,5.37-0.11,8.05,0c6.01,0.43,9.98,4.4,9.98,10.41
		c0.11,17.71,0.11,35.53,0,53.35c-0.11,6.22-3.97,10.41-9.98,10.41c-23.18,0.11-46.48,0.11-69.66,0c-6.23,0-10.2-4.19-10.3-10.63
		c-0.11-17.49-0.22-35.1-0.11-52.7c0.11-6.34,4.08-10.41,10.41-10.63C55.28,56.66,57.75,56.77,60.54,56.77z M125.05,86.71
		c-8.8,4.73-16.64,8.81-24.37,13.31c-1.18,0.65-2.04,2.69-2.36,4.19c-0.86,4.4-3.11,6.76-7.51,6.87c-2.15,0.11-4.19,0.11-6.33,0
		c-5.15-0.11-7.3-2.04-8.27-7.08c-0.21-1.29-0.75-3.12-1.72-3.65c-7.94-4.51-16.1-8.81-24.9-13.42c0,11.7-0.11,22.65,0.21,33.7
		c0,1.19,2.47,3.12,3.86,3.12c22.44,0.21,44.87,0.21,67.3,0c1.4,0,3.86-2.26,3.97-3.44C125.16,109.26,125.05,98.41,125.05,86.71z
		 M98.21,92.73c6.76-3.65,13.42-7.73,20.4-10.85c5.15-2.36,7.08-5.58,6.55-11.27c-0.54-6.12-0.32-6.33-6.33-6.33
		c-20.61,0-41.22,0-61.94,0c-7.41,0-7.51,0-7.3,7.62c0.11,2.58,0.43,6.33,1.93,7.3c8.05,4.94,16.53,9.23,24.8,13.63
		C82.54,87.04,91.99,87.04,98.21,92.73z M68.59,56.44c12.67,0,25.01,0,37.35,0c0.86-4.4-0.86-6.01-4.83-6.01
		c-9.12,0-18.35,0-27.48-0.1C69.66,50.33,67.84,52.04,68.59,56.44z M84.04,96.38c0,2.68,0,4.83,0,7.08c2.36,0,4.4,0,6.66,0
		c0-2.47,0-4.72,0-7.08C88.34,96.38,86.3,96.38,84.04,96.38z"/>
	<path fill="none" stroke="#000000" stroke-miterlimit="10" d="M13.2,93.91c-2.47,0-4.51-1.83-4.83-4.4
		c-0.21-2.69,1.72-5.05,4.29-5.26l10.73-1.08c2.68-0.32,5.04,1.72,5.26,4.3c0.21,2.68-1.72,5.04-4.29,5.26L13.63,93.8
		C13.52,93.91,13.41,93.91,13.2,93.91z"/>
	<path fill="none" stroke="#000000" stroke-miterlimit="10" d="M26.94,66.21c-0.32,0-0.75,0-1.07-0.11l-10.52-2.46
		c-2.58-0.65-4.19-3.22-3.65-5.8c0.64-2.58,3.22-4.19,5.8-3.65l10.52,2.47c2.58,0.64,4.19,3.22,3.65,5.8
		C31.13,64.71,29.19,66.21,26.94,66.21z"/>
	<path fill="none" stroke="#000000" stroke-miterlimit="10" d="M38.21,42.92c-0.97,0-1.93-0.32-2.68-0.86l-8.91-6.12
		c-2.15-1.5-2.79-4.51-1.29-6.76c1.5-2.15,4.51-2.79,6.76-1.29L41,34.01c2.15,1.5,2.79,4.51,1.29,6.76
		C41.22,42.17,39.71,42.92,38.21,42.92z"/>
	<path fill="none" stroke="#000000" stroke-miterlimit="10" d="M61.07,27.68c-1.72,0-3.43-0.97-4.29-2.69l-4.94-9.66
		c-1.18-2.36-0.32-5.26,2.15-6.55c2.47-1.28,5.26-0.21,6.55,2.15l4.94,9.66c1.18,2.36,0.32,5.26-2.15,6.55
		C62.58,27.57,61.82,27.68,61.07,27.68z"/>
	<path fill="none" stroke="#000000" stroke-miterlimit="10" d="M161.87,93.91c-0.11,0-0.32,0-0.43,0l-11.81-1.08
		c-2.68-0.21-4.61-2.57-4.4-5.26c0.21-2.68,2.58-4.61,5.26-4.4l11.81,1.08c2.68,0.21,4.61,2.57,4.4,5.26
		C166.38,91.97,164.34,93.91,161.87,93.91z"/>
	<path fill="none" stroke="#000000" stroke-miterlimit="10" d="M147.27,66.21c-2.26,0-4.19-1.5-4.72-3.75
		c-0.54-2.58,1.07-5.16,3.65-5.8l11.16-2.47c2.58-0.54,5.15,1.07,5.8,3.65c0.54,2.58-1.07,5.15-3.65,5.8l-11.16,2.46
		C147.91,66.21,147.59,66.21,147.27,66.21z"/>
	<path fill="none" stroke="#000000" stroke-miterlimit="10" d="M135.25,42.92c-1.61,0-3.11-0.75-4.08-2.25
		c-1.5-2.26-0.86-5.26,1.4-6.66l9.45-6.12c2.25-1.39,5.26-0.86,6.66,1.4c1.5,2.25,0.86,5.26-1.4,6.65l-9.45,6.12
		C137.07,42.6,136.1,42.92,135.25,42.92z"/>
	<path fill="none" stroke="#000000" stroke-miterlimit="10" d="M110.88,27.68c-0.75,0-1.61-0.22-2.25-0.54
		c-2.36-1.29-3.22-4.19-1.93-6.55l5.26-9.66c1.29-2.36,4.19-3.22,6.55-1.93c2.36,1.29,3.22,4.19,1.93,6.55l-5.26,9.66
		C114.31,26.82,112.6,27.68,110.88,27.68z"/>
	<path fill="none" stroke="#000000" stroke-miterlimit="10" d="M87.26,23.06c-2.58,0-4.72-2.04-4.83-4.72L82.11,7.6
		c-0.11-2.68,2.04-4.93,4.72-4.93c2.68,0,4.94,2.04,4.94,4.72l0.32,10.73c0.11,2.69-2.04,4.94-4.72,4.94
		C87.37,23.06,87.37,23.06,87.26,23.06z"/>
</g>
</svg>
