<?xml version="1.0" encoding="utf-8"?>
<!-- Generator: Adobe Illustrator 24.2.1, SVG Export Plug-In . SVG Version: 6.00 Build 0)  -->
<svg version="1.1" id="Слой_1" xmlns="http://www.w3.org/2000/svg" xmlns:xlink="http://www.w3.org/1999/xlink" x="0px" y="0px"
	 width="161.36px" height="177.75px" viewBox="0 0 161.36 177.75" enable-background="new 0 0 161.36 177.75" xml:space="preserve">
<g>
	<path fill="#6FC378" d="M112.56,29.4c-8.13-8.12-16.26-16.25-24.13-24.13c-8,8.13-16.13,16.26-24.01,24.13
		C80.18,29.4,96.43,29.4,112.56,29.4z"/>
	<path fill="#6FC378" d="M131.57,0.27H89.68c10.25,10.25,38.89,2.38,30.89,30.88c4.75-8.12,9.5-16.38,14.5-24.88
		C136.57,3.65,134.57,0.27,131.57,0.27z"/>
	<path fill="#6FC378" d="M152.58,38.66c-0.88,0.25-1.25,1-1.5,1.75C151.83,39.53,152.58,39.53,152.58,38.66z"/>
	<path fill="#6FC378" d="M154.33,35.41c-0.38,1.12,0.37,0.37,1,0.62c-0.38,0.13-2.13,1-1.63,1.63c0.5-0.25,1.88-0.88,2-1.63
		c-0.5,0.5-0.5-0.37-0.12-0.62c0.25,0,0.75-0.25,1.12-0.5c-0.37,0-0.62,0-1,0c-0.25,0.12-0.5,0.25-0.62,0.37
		c0-0.12,0.12-0.25,0.12-0.37c-0.62,0-1.25,0-1.75,0c-0.62,0.62-1.25,1.37-1.87,2.12C152.45,37.91,153.2,35.91,154.33,35.41z"/>
	<path fill="#6FC378" d="M151.08,43.91c-1.5,2.5-3.13-1.25-6.63,2.62c0.37-0.5,0.75-5.37-0.13-2.25c-0.5-1.37-0.87,1.63,0.63-0.12
		c-0.75,2.37-0.63-1.88-2.75,0.75c-0.13-0.5,0.5-1.63,1.12-1.75c-0.25,0.12-0.5-0.25-0.75,0c0.25-1.13,1.13-0.63,2.25-1.75
		c-0.37,0-0.62,0.12-1,0.25c0-0.88,1.63-1.38,1.38-0.63c-0.5-0.12,1.63-1.12,0-1.62c0.75-0.25,0.75-0.13,1.38-0.63
		c0.5,0.25,2.75,1.5,2.5-1c0.12,1.25,0.87,0.88-0.75,2.63c0.62-0.13,2.87-1.75,1.62-2.5c0.88-0.75,1.63-1.75,2.63-2.88
		c-1.38,0.63-3.75-1.38-7.63,0.88c-4.5-1.01-17.88-2.51-24.26,0.62c-8,26.26-17.38,53.39-25.01,80.4
		C113.06,93.8,133.32,68.04,151.08,43.91z"/>
	<path fill="#6FC378" d="M130.7,18.9c0.87-0.87,1.75-1.25,2.5-1.88c0.25-0.5,0.25-1-0.13-1.5c-0.5,1.38-1.25,1.88-2.12,1.88
		c-0.25,0.5-0.63,1-0.88,1.5C130.32,18.9,130.45,18.9,130.7,18.9z"/>
	<path fill="#6FC378" d="M133.57,13.65c1.88-0.13,1.5,1.25,3.25,1.12c0.5-0.75,0.63-1.5,0.38-2.12c-0.38,0.12-1,1-1.38,0.62
		c0.25-0.75,1.38-1,1-1.87c-0.87,0.12-0.87,0.62-1.37,1.5c-0.75,0.12-1-0.38-1-1.13C133.45,12.65,134.57,12.9,133.57,13.65z"/>
	<path fill="#6FC378" d="M154.45,29.4c0.25,0,0.38,0,0.63,0c0.25-0.25,0.37-0.5,0.5-0.75C155.2,28.4,154.83,28.9,154.45,29.4z"/>
	<path fill="#6FC378" d="M138.95,13.77c0.75-0.87,1.12-0.5,1.5,0c1-0.37,1.87-1.25,2.5-2c-0.63-0.75-1.13-1.37-1.75-2.12
		c-0.38,0.62-1.38,1.12-1.63,2.37c-0.62,0.25-1.12,0-1.75,0.5C138.32,13.02,138.82,12.9,138.95,13.77z"/>
	<path fill="#6FC378" d="M145.07,28.9c1.13-1,2.26-1.87,3.13-1.62c0.13-0.63,0-1.25,1.13-2.25c0-0.63-1.13,0-0.63-0.75
		c-0.62,0.12-1.12,0.37-2.25,1.25c0.75-1.38-0.5-0.5-1-1.63c-0.5,1.5-1.25,1.63-2.63,3c0.25-1.25,2.25-1.87,1.88-3
		c0.5-0.12,1.25-1.12,1.88-1.75c0.87-3.87-3.88,0.63-5.63,0.25c-0.13,0.25-0.25,0.63-0.63,1c-0.12-0.25-0.25-0.25-0.5-0.12
		c-0.62-0.25,0.5-0.75-0.12-1c-0.63,0.5-0.63,0.12-1.25-0.13c-1.25,2-2.75,3.38-4.13,3c-0.12,0.25-0.25,0.63-0.62,1
		c-0.5-0.62-1.25,0.25-1.88,0.13c-1.37-1.5,0-3.63-0.62-5.38c-2.26,1.38-2.13,3-4.26,5c0.75,0.25,1.5,0.13,2,0.13
		c-0.25,0.5-1,0.25-0.75,0.87c-1,0-2.12,0.38-3.5,2c-0.12,0-0.25,0-0.25,0c-0.12,0.13-0.12,0.25-0.12,0.38c7.13,0,14.13,0,21.25,0
		C145.32,29.28,145.2,29.15,145.07,28.9z"/>
	<path fill="#6FC378" d="M153.7,29.4c0.25-0.5,0.5-1,0.25-1.5c-0.12-0.12-0.37,0.13-0.5-0.12c-0.25,0.5-0.5,1.12-0.87,1.62
		C153.08,29.4,153.45,29.4,153.7,29.4z"/>
	<path fill="#6FC378" d="M28.91,17.9c-2.25,1.75-0.75,2.88,1.13,1.88c0.25,1-0.38,1.87-0.75,3.25c-1.75,0-0.88-1.13-1.5-1.88
		c-2.63,1.38,0.25,3.63,1,2.38c0,0.75-0.75,1.12-1.63,1.62c0.75,0.38-0.75,1-0.25,1.5c0.63-0.62,1.13-0.87,1.5-0.5
		c-0.25,0.5-1,1-1.25,1.5c1,0.63,1.38,1.13,1.75,1.88c7.88,0,15.76,0,23.63,0c-4.63-8-9.25-15.88-13.88-23.88
		c-3.38,4.12-6.75,8.12-10.13,12.13C28.66,17.78,28.79,17.78,28.91,17.9z"/>
	<path fill="#6FC378" d="M32.04,35.91c0.25,1.5-2.88,5.62,1.13,4.37c-0.38,0.38-0.38,0.75-1,1.13c1.13,0.5,1,0.87,2.13,0.75
		c-0.38,0.37-0.25,0.75-0.63,1.12c-0.75,0.88-1,0.38-1.63,1c-0.38,2.38,3.5,3.75,5.25,0.25c0.5,0.5,0.5,1.13,0,1.75
		c-1.25,0.63-2.38,1-3.75,2c-3.75,0-7.38-0.87-5.63-4.87c0.63-1.5,2.13-1.75,1.75-3.25c-1.38,1.12-1.63,1.62-2.88,1.87
		c0.88,0.63-0.13,1.38-1.25,2.25c2,2.63,4.13,5.38,6.13,8.01c0.5-0.5,1.25-0.88,2.13-1.38c0.38,1.13-0.13,2.38-0.38,3.63
		c0.75,1,1.5,1.87,2.13,2.87c0.38,0,0.75,0,0.88,0.38c0.5-0.38,0.88-0.75,1-1.13c2,0.63,4.13-1,6.25-3.25
		c0.88,0.38,0.75,0.88,1.63,0.25c0.88,0.25-0.88,0.88,0,1.25c0.25-0.12,0.5-0.12,0.63,0.13c0.5-0.38,0.88-0.75,1-1.13
		c2.38,0.75,9.5-4.38,7.75,0.38c-1,0.75-2.13,1.87-2.88,1.87c0.5,1.5-2.5,2-3,3.5c2.13-1.62,3.25-1.62,4.13-3.5
		c0.63,1.5,2.5,0.5,1.25,2.13c1.63-1,2.38-1.25,3.38-1.38c-0.75,0.88,0.75,0.13,0.75,0.88c-1.75,1-1.63,1.75-1.75,2.62
		c-1.25-0.25-2.88,0.63-4.5,1.75c0.13,0.25,0.5,0.5,0.13,0.75c-1,0.13-2.13,0.38-3.5,1.75c1,0.75,0.5,1.88,1.75,2
		c-2,2.26,1,2.26,0.63,3.76c1.13-1.25,3.25-1.75,3.38-3.26c1.13,0.13,2.13,0.25,3.38-0.12c-1.13-1.63,3.13-3.38,4.25-2.63
		c0.63-0.75,1.13-1.5,1.75-2.25c-2.75-8.75-5.5-17.38-8.25-26.13c-0.25-0.62-0.25-1.37-1.25-1.37c-7,0-13.88,0-21.01,0
		C33.16,35.41,32.54,35.91,32.04,35.91z"/>
	<path fill="#6FC378" d="M64.55,64.41c-0.13-0.25-0.13-0.5-0.25-0.75c-0.25,0.25-0.5,0.5-0.75,0.75
		C64.05,64.04,64.3,64.16,64.55,64.41z"/>
	<path fill="#6FC378" d="M31.16,36.03c0.5-0.25,0.88-0.62,1.13-1c-0.38,0-0.75,0-1.13,0c-0.13,0-0.25,0.13-0.38,0.13
		C31.16,35.28,30.79,35.66,31.16,36.03z"/>
	<path fill="#6FC378" d="M80.55,115.18c-5-16.01-10.13-32.14-15.25-48.27c0,0,0,0,0-0.12c-0.25,0.12-0.5,0.37-0.75,0.5
		c0,0.75,0.63,0.5,0.38,1c-3.25,2.13-4.88,4-7,5.38c1.38-0.75,0.75,1-0.13,1.62c-0.88-0.5-1.38,1.38-2.38,1.25c0.38-1,0.75-1,2-1.87
		c0-0.88-0.75-0.5-0.63-1.38c-1.38,0.63,0.63,0.88-0.25,1.5c-0.5,0.38-1,0.88-1.38,0.75c-0.25-0.37,0.63-0.75,0.13-1
		c-1.5,1.13-1.88,0.75-2.13-0.12c-0.88,0.62-0.88,0.37-2,0.62c0.25,0.38,0.63,0.13,0.88,0.5c-0.25,0.5-1,1-1.25,1.5
		c0.25-0.37-0.13-0.5-0.5-0.37c1.63,2,3.13,4.12,4.63,6.12c0.13,0,0.13,0,0.25,0c0,0.13-0.13,0.13-0.13,0.25
		c0.25,0.25,0.38,0.63,0.63,0.88c0-0.25,0.13-0.38,0.5-0.63c-0.13-0.12-0.25-0.37-0.5-0.5c1-0.25,2-0.75,2.88-1.25l-1,5.01
		c7.75,10.12,15.5,20.25,23.13,30.38C80.8,116.18,80.68,115.68,80.55,115.18z"/>
	<path fill="#6FC378" d="M60.67,35.03c4.13,13.13,8.25,26.26,12.38,39.26c1.25-0.87,2.25-1.87,2.88-2.62c0.63,0.5,3.5-0.5,3.75-1.13
		c-0.38,0.13-1.75-0.12-0.88-0.5c0.75-0.87,2.13-0.25,2-1.12c-0.25,0.12-0.63,0.12-0.13-0.25c1.63-0.63,2.5,0.37,3.63,0.62
		c0.63,0.63-1.25,2.38,0.25,2.25c0.5-1.37,5.25-1.75,6.75-1.5c-1.63,1.13-2,3.25-4.38,3.63c0,1.5-0.5,1.87-2,2.87
		c0.5-0.87-0.63-0.75-1.38-0.5c1.13,0.88,0.75,1.5,0.13,1c0.75,1.13-1.63,1.13-1,2c2.38-0.62,2-2.12,4-2.37
		c-1.38,2.25-5,3.25-4.63,5.75c-2.38,1.37-3.25,1.62-4.75,2.12c0.88,0.13,0.25,0.63-0.5,1.13c0.25,0.75,0.5,1.38,0.63,2.13
		c0.75-0.63,1.75-1.63,2.38-1c-0.75,0.62-1.5,1.12-2.25,1.5c0.25,1,0.63,1.87,0.88,2.87c0,0,0-0.12,0.13-0.12
		c1.88,0.62,4.75-2.5,6.5-1c0.25-0.63,0.25-1.13,0.63-1.75c2.25-0.63,3.75-1.13,3.25,0.87c1-0.62,1.5-0.37,2.13-0.25
		c-0.38,0.5-3,2.13-3.5,1.38c-1,0.62-1,1.25-2,1.12c-0.38,0.88-0.5,1.63-0.63,2.5c-2.38,0.63-1.75,1.63-3.63,2.13
		c0.38,0.62,0.75,1.12,1.13,1.75c1.25-0.25,1.25-1.75,2-1.13c-0.13,0.13-0.38,0.38-0.5,0.63c-0.75,0.5-1.5,0.87-2.25,1.12
		c0.38,0.38,1.13,0.25,1.75-0.12c0,0.12,0,0.25,0,0.37c-0.75,0.25-1.5,0.63-2.25,1.13c0.13,0.37,0.25,0.75,0.38,1.12
		c1-0.5,1.88-1,2.5-1.62c0.13,0,0.13,0,0.25,0c-0.38,0.62-0.88,0.87-1.63,1c0.38,0,0.63,0.12,0.88,0.25c-0.63,0.12-1.25,0.62-1.88,1
		c0.13,0.5,0.38,1,0.5,1.5c1.38-0.62,2.63-1,3.63-0.62c0.75-0.63,1.25-1.13,1.63-1.51c0.25,0.38,0.5,0.5,0.88,0.5
		c-1.25,1.01-0.75,2.13-1,3.63c0.38-0.12,0.63-0.12,0.75,0.25c1.13-1.62,2.38-0.25,2.63-1.87c0.38,0.12,0.5,0.25,0.75,0.37
		c-1.63,1.5-3.75,3-4.88,2.5c-0.75,0.63-1,1.25-1.5,2c0.38,0.13,1.13-0.25,1.25,0.25c-0.88-0.5-1.5,0.25-2.13,0.88
		c1.25,4.12,2.63,8.25,3.88,12.38c0.13,0,0.25,0,0.38,0c9.13-28.89,18.26-57.77,27.38-86.78C97.31,35.03,79.18,35.03,60.67,35.03z"
		/>
	<path fill="none" stroke="#FFFFFF" stroke-width="0.75" stroke-miterlimit="10" d="M15.17,32.15c6.14-7.53,12.28-14.94,18.42-22.47
		c1.63-2.01,3.38-4.15,5.01-6.15c0.75-0.88,1.5-1.26,2.76-1.26c29.2,0,58.4,0,87.59,0c1.13,0,2.01,0.38,2.76,1.26
		c7.52,9.16,15.16,18.45,22.68,27.62c1,1.25,1.13,2.26,0,3.76c-8.4,11.05-16.67,22.1-25.06,33.15
		c-13.91,18.58-27.82,37.03-41.86,55.61c-1.63,2.14-3.13,2.14-4.76,0.13C60.41,93.92,37.98,64.16,15.67,34.41
		c-0.13-0.13-0.25-0.25-0.38-0.25C15.17,33.53,15.17,32.78,15.17,32.15z M60.41,35.54c8.27,26.37,16.42,52.73,24.56,78.97
		c0.13,0,0.25,0,0.38,0c8.15-26.24,16.42-52.48,24.56-78.84C93.37,35.54,77.08,35.54,60.41,35.54z M22.44,35.54
		c18.8,24.98,37.47,49.72,56.02,74.45c0.13-0.5,0-1-0.13-1.38c-4.51-14.69-9.15-29.25-13.66-43.82c-2.88-9.29-5.77-18.58-8.77-27.87
		c-0.13-0.63-0.25-1.25-1.13-1.25C44.12,35.54,33.47,35.54,22.44,35.54z M147.88,35.54c-10.77,0-21.3,0-31.7,0
		c-1,0-1.5,0.38-1.75,1.26c-6.39,20.71-12.91,41.43-19.3,62.02c-1.13,3.64-2.26,7.28-3.38,10.92c0.13,0,0.13,0.12,0.25,0.12
		C110.54,85.13,129.21,60.4,147.88,35.54z M85.35,8.55c-7.27,7.28-14.54,14.69-21.68,21.97c14.29,0,28.82,0,43.23,0
		C99.63,23.11,92.37,15.7,85.35,8.55z M45,7.17c4.26,7.4,8.52,14.69,12.53,21.72c7.14-7.29,14.29-14.57,21.43-21.72
		C67.8,7.17,56.53,7.17,45,7.17z M125.33,7.17c-11.53,0-22.81,0-33.84,0c7.14,7.15,14.29,14.43,21.43,21.72
		C116.93,21.73,121.07,14.57,125.33,7.17z M40.61,8.8c-6.02,7.28-11.78,14.44-17.92,21.72c10.28,0,20.18,0,30.33,0
		C48.88,23.11,44.75,16.08,40.61,8.8z M117.31,30.52c10.15,0,20.05,0,30.32,0c-6.01-7.28-11.9-14.44-17.79-21.72
		C125.58,16.08,121.57,23.11,117.31,30.52z"/>
	<path fill="none" stroke="#000000" stroke-miterlimit="10" d="M18.17,34.69c6.14-7.36,12.28-14.71,18.42-22.06
		c1.63-2,3.38-3.99,5.01-6.11c0.75-0.88,1.5-1.25,2.76-1.25c29.2,0,58.4,0,87.59,0c1.13,0,2.01,0.37,2.76,1.25
		c7.52,9.1,15.16,18.2,22.68,27.17c1,1.25,1.13,2.25,0,3.62c-8.4,10.84-16.67,21.81-25.06,32.65
		c-13.91,18.33-27.82,36.53-41.86,54.73c-1.63,2.12-3.13,2.12-4.76,0.12C63.29,95.52,40.98,66.23,18.55,37.06
		c-0.13-0.13-0.25-0.25-0.38-0.25C18.17,35.94,18.17,35.31,18.17,34.69z M63.41,38.05c8.27,25.93,16.42,51.86,24.56,77.66
		c0.13,0,0.25,0,0.38,0c8.27-25.93,16.42-51.73,24.56-77.66C96.37,38.05,80.08,38.05,63.41,38.05z M25.44,37.93
		c18.8,24.56,37.47,48.86,56.02,73.17c0.13-0.5,0-1-0.13-1.37c-4.64-14.34-9.15-28.8-13.78-43.13c-2.88-9.22-5.77-18.32-8.77-27.42
		c-0.13-0.63-0.25-1.25-1.13-1.25C47.12,38.05,36.47,37.93,25.44,37.93z M150.88,37.93c-10.77,0-21.3,0-31.7,0
		c-1,0-1.5,0.37-1.75,1.25c-6.4,20.31-12.91,40.63-19.3,61.08c-1.13,3.61-2.26,7.1-3.38,10.72c0.13,0,0.13,0.12,0.25,0.12
		C113.54,86.79,132.21,62.49,150.88,37.93z M88.35,11.5c-7.27,7.23-14.54,14.46-21.68,21.57c14.29,0,28.82,0,43.23,0
		C102.63,25.84,95.37,18.48,88.35,11.5z M48,10.01c4.26,7.35,8.52,14.46,12.53,21.31c7.14-7.1,14.29-14.21,21.3-21.31
		C70.8,10.01,59.53,10.01,48,10.01z M128.33,10.13c-11.53,0-22.81,0-33.84,0c7.14,7.11,14.29,14.21,21.43,21.32
		C119.93,24.47,124.07,17.36,128.33,10.13z M43.61,11.75c-6.02,7.11-11.78,14.21-17.92,21.32c10.28,0,20.17,0,30.33,0
		C51.88,25.84,47.75,18.86,43.61,11.75z M120.31,33.07c10.15,0,20.05,0,30.32,0c-6.01-7.23-11.9-14.21-17.79-21.32
		C128.58,18.86,124.57,25.84,120.31,33.07z"/>
	<path fill="#F9B916" d="M15.58,140.18c-1.06,0.36-1.18,0.83-2.13,0.59c-0.47,0.71-0.83,1.42-1.3,2.02c-2.37,0-2.01,0.94-3.9,0.94
		c0.24,0.59,0.35,1.3,0.59,1.89c1.18,0.12,1.54-1.3,2.13-0.59c-0.24,0.12-0.35,0.24-0.59,0.36c-0.83,0.23-1.66,0.47-2.37,0.47
		c0.24,0.47,0.95,0.47,1.66,0.36c0,0.11-0.12,0.23-0.12,0.35c-2.01,0.24-4.61,0.83-5.91,1.89v0.6c2.13-0.83,4.85-0.95,6.27-1.78
		c0.12,0,0.12,0.12,0.24,0.12c-0.59,0.47-0.95,0.59-1.78,0.47c0.24,0.12,0.59,0.24,0.71,0.48c-1.89,0.59-3.78,1.18-5.56,1.77v1.42
		c2.84-0.83,5.68-1.78,7.22-0.59c0.83-0.48,1.42-0.71,1.89-0.95c0.12,0.36,0.35,0.59,0.71,0.71c-1.42,0.59-1.18,1.66-1.89,3.08
		c0.36,0,0.59,0.12,0.59,0.47c1.42-1.18,2.25,0.35,2.96-1.06c0.24,0.23,0.47,0.35,0.59,0.59c-1.89,0.94-4.26,1.77-5.09,1.06
		c-0.83,0.36-1.18,0.95-1.89,1.42c0.36,0.24,1.07,0,1.07,0.59c-0.95-0.83-1.89,0.24-3.08,0.48c-0.95,0.23-2.01,0.47-2.96,0.59v9.11
		c0,3.31,2.6,5.91,5.91,5.91h1.07c3.31,0,5.91-2.6,5.91-5.91v-26.62C16.17,140.54,15.7,140.42,15.58,140.18z"/>
	<path fill="#F9B916" d="M9.9,120.43c0.47,0.59,3.31,0.47,3.67-0.12c-0.35,0-1.54-0.59-0.71-0.71c0.95-0.59,2.01,0.35,2.13-0.59
		c-0.24,0.12-0.59-0.12-0.12-0.24h0.12c-1.07-1.18-2.6-2.01-4.38-2.01H9.66c-2.13,0-5.68,1.42-6.74,3.08
		c-0.47,0.82-0.83,1.89-0.83,2.95c0,0-0.12,0.48-0.24,1.07C4.22,122.91,8.24,121.73,9.9,120.43z"/>
	<path fill="#F9B916" d="M139.55,162.78c-4.49-3.2-33.83-2.02-33.83-2.02s1.3-1.77,1.42-3.43c0.12-1.65-0.35-5.2-6.62-5.56
		c-6.27-0.23-16.21-5.44-24.01-8.63c-7.33-2.96-6.74-5.21-12.66-9.46c-5.91-4.26-10.41-8.52-16.44-12.07
		c-6.03-3.55-14.55-3.43-21.41-3.43c-3.31,0-6.27,0.83-8.52,1.65c0.24,0.24,0.47,0.36,0.71,0.6c0.47,0.71-1.78,1.89-0.36,2.13
		c0.83-1.07,5.21-0.36,6.51,0.35c-1.66,0.59-2.72,2.48-4.97,2.13c-0.35,1.3-0.95,1.66-2.6,2.13c0.71-0.71-0.36-0.83-1.18-0.83
		c0.83,1.18,0.36,1.66-0.24,0.95c0.35,1.3-1.78,0.59-1.42,1.54c2.37,0,2.37-1.42,4.26-1.07c-1.89,1.66-5.32,1.66-5.8,4.14
		c-2.48,0.71-3.43,0.71-4.85,0.71c1.42,0.59-2.13,1.18-2.37,1.42c-0.12,1.18,1.54,0.47,1.42,1.66c0.95-0.36,2.13-1.19,2.6-0.36
		c-2.13,1.07-4.02,0.83-5.68,1.66v0.35v2.49c0.12,0,0.35,0,0.59,0.11c-0.24,0.12-0.47,0.24-0.59,0.36v0.24
		c0.24,0.11,1.18,0.23,1.3,0.71c-0.12,0.35-0.95,0.47-1.3,0.71v0.59c0.95,0,3.43,0,3.31-0.95c-2.25,0.47-0.83-1.77,0.12-2.6
		c1.54,1.06,4.97-1.18,6.27,0.71c0.35-0.47,0.47-0.95,0.95-1.42c1.66,0,2.96,0,3.08,0.71c5.21,2.25,16.33,6.5,16.92,8.16
		c0.83,2.13,5.8,12.07,24.49,22.48c18.69,10.41,61.04,5.44,65.77,5.44c5.56-0.12,16.09,0.23,17.27-1.54
		C143.1,171.29,144.05,165.97,139.55,162.78z"/>
	<path fill="none" stroke="#FFFFFF" stroke-linecap="round" stroke-miterlimit="10" d="M5.16,131.9v-10.65
		c0-1.07,0.83-1.89,1.89-1.89h6.86c1.07,0,1.89,0.82,1.89,1.89v46.73c0,1.06-0.83,1.89-1.89,1.89H7.06c-1.07,0-1.89-0.83-1.89-1.89
		v-19.17"/>
	<path fill="none" stroke="#FFFFFF" stroke-linecap="round" stroke-miterlimit="10" d="M68.46,141.48
		c22.24,14.67,26.74,10.3,32.18,14.67c4.26,3.55,0.71,8.87-4.73,8.28c-10.76-1.42-26.26-9.58-28.98-12.3
		c-3.19-3.19-17.98-2.96-8.52,3.9c9.46,6.86,43.65,16.92,44.83,14.08c0.71-1.66,2.13-3.31,3.31-4.38c0.83-0.82,2.01-1.3,3.31-1.3
		h28.04c2.36,0,4.38,2.01,4.38,4.38s-2.02,4.38-4.38,4.38h-2.6c0,0-37.27,0.35-47.68,1.53c-10.41,1.19-25.2-3.9-25.2-3.9
		s-23.66-6.51-30.99-5.68c-4.85,0.59-8.16-0.23-9.94-0.94c-0.83-0.36-1.42-1.07-1.42-1.9v-35.01c0-0.83,0.59-1.54,1.42-1.66
		c4.97-0.83,22.36-2.72,34.54,7.22"/>
	<path fill="none" stroke="#000000" stroke-width="2" stroke-linecap="round" stroke-miterlimit="10" d="M2.92,133.32v-10.64
		c0-1.07,0.83-1.9,1.89-1.9h6.86c1.07,0,1.89,0.83,1.89,1.9v46.72c0,1.07-0.83,1.89-1.89,1.89H4.81c-1.06,0-1.89-0.82-1.89-1.89
		v-19.16"/>
	<path fill="none" stroke="#000000" stroke-width="2" stroke-linecap="round" stroke-miterlimit="10" d="M67.04,142.67
		c22.24,14.66,26.73,10.29,32.18,14.66c4.26,3.55,0.71,8.88-4.73,8.29c-10.76-1.42-26.26-9.59-28.98-12.31
		c-3.19-3.19-17.98-2.95-8.52,3.91c9.46,6.86,42.94,16.56,44.83,14.07c0.12-0.23,0.83-0.82,0.95-1.06c1.66-3.2,4.38-4.61,8.04-4.61
		h25.67c2.36,0,4.38,2.01,4.38,4.37c0,2.37-2.02,4.38-4.38,4.38h-2.6c0,0-37.27,0.35-47.68,1.54C75.79,177.09,61,172,61,172
		s-23.66-6.5-30.99-5.67c-4.85,0.59-8.16-0.24-9.94-0.95c-0.83-0.36-1.42-1.07-1.42-1.89v-35.02c0-0.83,0.59-1.54,1.42-1.66
		c4.97-0.82,22.36-2.72,34.54,7.22"/>
</g>
</svg>
