<?xml version="1.0" encoding="utf-8"?>
<!-- Generator: Adobe Illustrator 24.2.1, SVG Export Plug-In . SVG Version: 6.00 Build 0)  -->
<svg version="1.1" id="Слой_1" xmlns="http://www.w3.org/2000/svg" xmlns:xlink="http://www.w3.org/1999/xlink" x="0px" y="0px"
	 width="153.19px" height="171.7px" viewBox="0 0 153.19 171.7" enable-background="new 0 0 153.19 171.7" xml:space="preserve">
<g>
	<path fill="#6FC378" d="M143.21,52.55c-7.74-1.17-19.24,11.13-18.89-1.41c9.15,2.23,11.38-5.04,10.09-10.89
		c14.67-17.46-21.7-21.56-7.16,3.51h-3.05c0.7-5.27-3.29-6.44-6.1-5.97c-0.94-12.54,10.68-18.17-3.76-22.27
		c-4.81,1.41-6.69,3.28-7.04,5.51c-3.4-46.17-83.3,6.68-35.2,70.42c4.81,6.8,6.8,12.31,7.39,16.88c0.24,0,0.35,0,0.35-0.24
		c0.47-1.17,5.98-2.46,7.74-3.87c0.35,0.47,2.58,0.36,2.93-0.11c-0.24,0-1.29-0.47-0.59-0.59c0.47-0.23,0.82-0.12,1.17-0.12
		c-19.01-12.3-53.5-83.31,7.63-92.57c1.29,5.28-1.64,12.89-3.52,15.47c-7.63-6.56-15.37,5.27-12.55,7.27
		c-9.39-2.35-11.15,11.48-7.28,12.53c-7.86,0.47-5.16,15.71-0.12,14.65c-6.22,6.8,4.69,15.82,7.39,12.54
		c-2.7,7.73,11.61,12.19,12.55,7.26c4.93,6.57,3.52,11.6,3.64,23.91c-1.29,0.94-2.82,0.94-4.69,0.35c-0.35,0.47-0.7,0.82,0,0.94
		c0.59-0.94,4.22-0.24,5.28,0.23c-1.41,0.47-2.11,1.99-3.87,1.76c-0.23,1.05-0.7,1.29-2.11,1.64c0.47-0.59-0.23-0.59-0.94-0.7
		c0.7,0.93,0.23,1.29-0.12,0.7c0.24,1.05-1.41,0.47-1.17,1.17c1.88,0,1.88-1.17,3.4-0.94c-1.52,1.41-4.34,1.41-4.58,3.28
		c-1.99,0.83-2.7,0.83-3.87,0.83c1.17,0.46-1.64,0.93-1.88,1.17c-0.12,0.93,1.17,0.35,1.17,1.29c0.7-0.24,1.76-0.94,2.11-0.36
		c-1.76,0.82-3.4,0.59-4.69,1.41c0.82,0.12-1.06,1.06-1.41,1.52c0.47-0.11,0.23,0.24,0.12,0.47c0.82-0.11,1.17,0.24,1.88,0.24
		c-1.41,0.7,0.47,0.47,0.7,0.93c-0.12,0.36-1.64,0.36-1.17,1.06c0.7,0,2.82,0.12,2.7-0.7c-1.76,0.35-0.7-1.41,0.12-2.11
		c1.29,0.82,3.99-0.94,4.93,0.58c0.24-0.35,0.35-0.82,0.82-1.17c1.76,0,2.93,0,2.23,1.29c0.82-0.23,1.17,0,1.53,0.23
		c8.57-0.23,17.83-0.58,24.99,0.47c-0.47,0.59-20.41,1.17-29.8,0.71c-0.24,0.35-0.47,0.82-0.7,1.17c-1.88,0-1.64,0.82-3.05,0.82
		c0.12,0.47,0.23,1.05,0.47,1.52c0.94,0.12,1.29-1.05,1.76-0.47c-0.12,0.12-0.35,0.24-0.47,0.35c-0.7,0.24-1.29,0.36-1.88,0.36
		c0.23,0.35,0.7,0.35,1.29,0.23c0,0.12-0.12,0.23-0.12,0.35c-1.76,0.24-4.11,0.82-4.93,1.76c0.23,0,0.47,0.12,0.59,0.12
		c1.64-0.59,3.52-0.71,4.69-1.29c0,0,0.12,0.11,0.23,0.11c-0.47,0.36-0.82,0.47-1.41,0.36c0.23,0.11,0.47,0.23,0.59,0.35
		c-0.7,0.23-1.53,0.47-2.23,0.7c5.98,0.7,16.54,0.7,34.73,0.7c13.26-4.92,10.44-29.06-13.61-23.2V69.42h0.94
		c-0.82,6.92,2.58,8.79,7.74,8.09c-14.43,28.24,32.62,6.33-0.59-7.15v-0.94c8.92,0.47,9.86-0.7,9.97-6.21
		C129.6,63.45,161.4,72.59,143.21,52.55z M130.31,33.33C131.95,31.69,131.01,34.86,130.31,33.33L130.31,33.33z M89.71,74.7
		c2.58-5.86-5.4-10.43-8.45-8.21c1.88-5.86,1.88-10.78-3.64-12.3c6.92-5.27,4.93-8.44,3.52-13.24c19.36-3.63-1.64-8.79,17.6-7.62
		c-20.06,8.44-22.53,30.82,0.12,40.55C88.54,71.06,92.41,76.69,89.71,74.7z M98.86,65.67c-12.32-3.98-10.21-21.67,0-24.14V65.67z
		 M118.46,83.48c0.47-0.23,0.47-0.11,0.59,0C119.4,84.54,117.75,84.07,118.46,83.48z M114.7,22.79c0.47,0.11,0.35,0.47,0.35,0.58
		C114.12,24.66,114.23,22.44,114.7,22.79z M107.55,23.61c0.94,4.22,4.93,9.25,3.52,14.29h-5.04
		C107.19,32.39,107.66,27.71,107.55,23.61z M117.17,61.92h-11.03V45.05h11.03V61.92z M140.87,59.11
		C140.75,60.87,140.28,58.99,140.87,59.11L140.87,59.11z"/>
	<path fill="#6FC378" d="M86.31,114.42c-14.67-7.38,31.8-3.99,32.27-4.69C133.83,116.76,86.66,113.95,86.31,114.42z"/>
	<path fill="#6FC378" d="M141.45,51.14v-6.79h7.04v7.38L141.45,51.14z"/>
	<path fill="#6FC378" d="M137.46,30.05l6.45-3.16l2.93,6.91C137.7,38.6,139.81,33.92,137.46,30.05z"/>
	<path fill="#6FC378" d="M106.61,10.83l0.94-7.03l7.27,1.29C114.23,15.05,111.18,10.95,106.61,10.83z"/>
	<path fill="#6FC378" d="M117.99,102.23l3.4-6.91C131.72,98.37,125.62,107.86,117.99,102.23z"/>
	<path fill="#6FC378" d="M140.28,36.96l6.92-1.64l1.17,7.5C138.64,45.28,141.69,41.18,140.28,36.96z"/>
	<path fill="#6FC378" d="M114.23,12.12l2.11-6.68l7.04,2.46C120.69,17.98,118.58,13.06,114.23,12.12z"/>
	<path fill="#6FC378" d="M131.13,80.79c3.17-9.73,5.16-4.45,9.5-3.16l-3.28,6.56L131.13,80.79z"/>
	<path fill="#6FC378" d="M122.1,94.26l3.99-5.97C136.29,92.39,128.55,101.65,122.1,94.26z"/>
	<path fill="#6FC378" d="M121.27,14.82l3.4-6.33l6.45,3.87C126.55,21.73,125.38,16.58,121.27,14.82z"/>
	<path fill="#6FC378" d="M133.24,23.96l5.63-4.45l4.34,6.21C135.35,32.28,136.29,27.24,133.24,23.96z"/>
	<path fill="#6FC378" d="M134.65,73.76c2.35-9.96,4.69-5.04,9.27-3.99l-2.7,6.8L134.65,73.76z"/>
	<path fill="#6FC378" d="M126.91,87.35c4.34-9.26,5.75-3.75,9.86-2.11l-4.11,6.21L126.91,87.35z"/>
	<path fill="#6FC378" d="M127.73,18.8l4.57-5.5l5.4,4.92C131.72,26.42,131.6,21.5,127.73,18.8z"/>
	<path fill="none" stroke="#FFFFFF" stroke-miterlimit="10" d="M84.2,121.33c-1.06,0-1.52,0.24-1.76,0.94
		c-0.23,0.47-0.12,0.94,0,1.29c0.35,0.47,1.06,0.7,1.88,0.7c4.93,0,9.86,0,14.78,0h18.77c0.12,0,0.35,0,0.47,0
		c0.82-0.23,1.29-0.7,1.17-1.52c0-0.59-0.23-1.41-1.88-1.41c-2.46,0-5.05,0-7.51,0H92.29C89.6,121.33,86.9,121.33,84.2,121.33z
		 M84.2,121.33v-0.58V121.33z M117.05,85.01c-0.35,0-0.7,0.11-0.94,0.35c-0.23,0.23-0.47,0.7-0.47,1.05c0,0.71,0.59,1.41,1.29,1.41
		c0.82,0,1.41-0.59,1.41-1.41c0-0.35-0.12-0.7-0.47-1.05C117.75,85.24,117.4,85.01,117.05,85.01z M117.05,85.01v-0.59V85.01z
		 M129.25,34.5c-0.7,0-1.41,0.71-1.41,1.41c0,0.35,0.12,0.7,0.47,0.94c0.23,0.23,0.7,0.47,1.06,0.47c0.7,0,1.41-0.59,1.41-1.41
		c0-0.35-0.12-0.7-0.35-1.05C129.84,34.74,129.49,34.5,129.25,34.5z M129.25,34.5v-0.46V34.5z M113.06,24.43
		c-0.7,0-1.41,0.7-1.41,1.4c0,0.36,0.12,0.71,0.47,1.06c0.24,0.23,0.59,0.47,0.94,0.47c0.7,0,1.29-0.59,1.29-1.29
		c0-0.35-0.12-0.82-0.35-1.06C113.77,24.66,113.41,24.43,113.06,24.43z M113.06,24.43v-0.59V24.43z M100.62,129.53
		c-5.75,0-11.38,0-17.13,0c-2.58,0-4.58-1.28-5.75-3.74c-1.17-2.35-0.94-4.69,0.59-6.92c0.35-0.47,0.35-0.58,0.12-0.94
		c-1.53-2.69-1.17-5.62,1.06-7.96c0.12-0.24,0.35-0.71,0.24-1.18c-0.35-2.46-1.41-4.8-3.05-7.38c-1.17-1.76-2.46-3.63-3.64-5.39
		c-1.76-2.58-3.52-5.27-5.16-7.97c-5.28-8.67-8.92-18.16-10.91-28.24c-1.17-5.62-1.41-10.78-0.94-15.35
		c0.7-5.97,2.46-11.36,5.4-16.17C68.12,17.4,78.45,10.48,92.06,7.91c1.99-0.36,3.99-0.47,5.98-0.59c0.59,0,1.29,0,1.88-0.12
		c0.23,0,0.35,0,0.59,0c2.7,0,2.93,1.88,2.93,3.4c0,7.38,0,14.77,0,22.03v8.79h6.92v-5.04c0-0.23,0-0.47,0-0.7c0-0.47,0-1.06,0-1.53
		c0.12-1.4,0-2.34-1.41-3.16c-2.35-1.41-3.29-4.57-2.23-7.5c0.94-2.58,3.52-4.22,6.1-4.22c0.12,0,0.23,0,0.35,0
		c2.93,0.12,5.4,2.23,6.22,5.04c0.7,2.93-0.59,5.86-3.17,7.27c-0.59,0.23-0.7,0.46-0.7,1.17c0,2.11,0,4.1,0,6.21
		c0,0.82,0,1.64,0,2.58c0.12,0,1.29,0,1.64,0c0.47,0,0.94,0,1.41,0c1.99,0,3.05,1.05,3.05,3.04c0,0.82,0,1.53,0,2.35v0.58h4.93
		v-0.82c0-1.4,0-2.93,0-4.33c0,0-0.23-0.24-0.47-0.36c-2.46-1.4-3.87-3.98-3.52-6.67c0.35-2.82,2.35-5.04,5.16-5.63
		c0.47-0.12,1.06-0.12,1.53-0.12c2.7,0,5.16,1.64,6.1,4.1c1.29,3.05,0,6.68-2.82,8.21c-0.59,0.23-0.7,0.47-0.7,1.17
		c0,1.52,0,3.16,0,4.8v1.41c0,2.58-0.94,3.51-3.52,3.51h-6.69c0,2,0,3.99,0,5.98v0.82c0.12,0,0.24,0,0.35,0h5.16
		c1.76,0,3.64,0,5.4,0c0.35,0,0.59,0,0.82-0.47c1.17-2.22,3.4-3.51,5.75-3.51c0.7,0,1.29,0.11,1.99,0.35
		c2.93,0.94,4.93,3.86,4.69,6.68c-0.24,3.28-2.7,5.74-5.87,6.21c-0.23,0-0.47,0-0.7,0c-2.35,0-4.81-1.41-5.75-3.52
		c-0.23-0.47-0.47-0.58-1.05-0.58c-1.76,0-3.64,0-5.4,0h-5.4v0.58c0,0.82,0,1.64,0,2.46c0,1.99-1.06,3.05-3.05,3.05
		c-1.64,0-3.28,0-4.93,0c-0.7,0-1.29,0-1.99,0v2.81h2.7c0.7,0,1.41,0,2.11,0c2.11,0,3.05,0.94,3.17,3.05c0,0.47,0,1.05,0,1.52
		c-0.12,1.29,0,1.99,1.29,2.81c2.35,1.41,3.4,4.57,2.46,7.39c-0.94,2.69-3.52,4.57-6.33,4.57h-0.12c-2.82,0-5.4-2-6.22-4.69
		c-0.94-2.81,0.12-5.74,2.58-7.38c1.17-0.82,1.29-0.94,1.17-2.11h-2.7c-0.7,0-1.29,0-1.99,0c-2.35,0-3.28-0.94-3.28-3.28
		c0-1.29,0-2.46,0-3.64v-1.17h-2.82v37.26c0.24,0,0.47,0,0.7,0h3.4c1.41,0,2.93,0,4.34,0c1.76,0,3.64,0,5.4,0h0.12
		c2.7,0,4.69,1.18,5.87,3.29c1.29,2.22,1.17,4.45-0.24,6.79c1.88,2.46,2.23,5.16,0.82,7.85c-1.17,2.23-3.17,3.4-5.63,3.4
		C112.36,129.53,106.49,129.53,100.62,129.53z M84.2,113.36c-1.06,0-1.29,0.59-1.29,1.06c-0.12,0.82,0.23,1.29,0.94,1.52
		c0.35,0.12,0.59,0.12,0.94,0.12c5.98,0,12.08,0,18.07,0c4.81,0,9.5,0,14.31,0c0.7,0,1.17-0.12,1.52-0.47
		c0.23-0.23,0.35-0.59,0.35-1.05c0-0.71-0.23-1.29-1.88-1.29H84.2V113.36z M98.16,108.09V86.88c-2.58-0.23-2.93-0.82-3.52-3.63
		v-0.12c0-0.11,0-0.23,0-0.23l-0.12-0.12c-0.12-0.12-0.35-0.47-0.47-0.58c-0.23,0-0.59,0.11-0.82,0.35
		c-0.23,0.23-0.47,0.47-0.82,0.82c-0.12,0.11-0.23,0.35-0.47,0.47c-0.59,0.7-1.29,1.05-1.99,1.05c-0.47,0-0.94-0.12-1.29-0.35
		l-0.7-0.35c-1.17-0.59-2.46-1.29-3.52-1.99c-3.17-2.11-3.29-2.35-2.23-5.98V76.1c0-0.23,0-0.7-0.12-0.82c0,0-0.35-0.12-0.7-0.12
		c0,0-0.12,0-0.23,0c-0.35,0-0.82,0.12-1.17,0.36c-0.12,0-0.35,0.11-0.59,0.11c-0.35,0.12-0.7,0.12-1.06,0.12
		c-0.94,0-1.64-0.47-2.23-1.29c-0.12-0.23-0.35-0.58-0.59-0.82c-0.7-1.05-1.41-2.11-2-3.16c-0.12-0.35-0.35-0.71-0.47-0.94
		c-1.29-2.46-1.29-3.05,1.64-5.62c0.12-0.12,0.23-0.59,0.12-0.71c0-0.11-0.35-0.35-0.7-0.47c-0.24-0.11-0.7-0.11-1.06-0.23
		c-0.24,0-0.47-0.12-0.82-0.12c-1.76-0.47-2.35-1.29-2.35-2.93c0-1.17,0-2.22,0-3.39v-0.94c0-0.35,0-0.71,0-0.94
		c0-3.05,0.23-3.75,4.34-4.34c0.12,0,0.47-0.35,0.47-0.58c0-0.12-0.12-0.47-0.24-0.7c-0.23-0.36-0.59-0.59-0.94-0.94
		c-0.12-0.12-0.35-0.24-0.47-0.47c-1.06-1.05-1.29-2.11-0.59-3.4c0.23-0.35,0.35-0.82,0.59-1.17c0.47-0.94,1.06-1.99,1.64-2.93
		c0.23-0.35,0.47-0.7,0.59-1.05c0.7-1.18,1.29-2.11,2.7-2.11c0.7,0,1.64,0.23,3.05,0.82c0.23,0,0.47-0.12,0.59-0.24
		c0.12-0.11,0.24-0.47,0.12-0.7c0-0.35-0.12-0.7-0.35-1.05c-0.12-0.24-0.12-0.47-0.23-0.71c-0.47-1.4,0-2.69,1.29-3.4
		c0.35-0.23,0.82-0.46,1.29-0.82c0.82-0.58,1.64-1.17,2.58-1.52c0.24-0.12,0.59-0.23,0.82-0.47c1.06-0.58,1.76-0.94,2.46-0.94
		c1.17,0,1.99,0.82,3.4,2.58c0,0,0.35,0.12,0.47,0.12c0.23,0,0.47-0.35,0.59-0.7c0.23-0.47,0.23-0.94,0.35-1.53
		c0.23-1.52,1.17-2.34,2.7-2.57c0.12,0,0.35,0,0.59,0V12.48c-9.62,0.58-17.72,3.86-24.52,9.84c-9.15,8.2-13.26,18.63-11.97,31.05
		c0.7,7.15,2.82,14.65,6.57,23.32c2.7,6.09,6.22,11.48,10.33,17.46c2.82,4.22,5.75,8.67,6.8,14.06L98.16,108.09z M82.32,69.31
		c0.7,0,1.41,0.23,1.99,0.93c0.35,0.36,0.59,0.59,0.94,0.94c0.47,0.47,1.06,1.06,1.53,1.52c0.82,0.71,1.06,1.64,0.82,2.82
		c0,0.23-0.12,0.58-0.23,0.93c-0.12,0.47-0.35,1.06-0.23,1.29c0.12,0.24,0.7,0.59,1.17,0.82c0.23,0.12,0.59,0.24,0.82,0.47
		c0-0.12,0.12-0.12,0.23-0.23c0.35-0.47,0.82-0.94,1.29-1.29c0.7-0.59,1.29-0.94,1.76-0.94c0.12,0,0.12,0,0.24,0
		c0.47,0.12,0.94,0.12,1.41,0.24c1.41,0.23,2.82,0.46,3.99,1.4c0-1.05,0-2.11,0-3.05c0-0.35,0-0.35-0.35-0.46
		c-9.03-1.53-15.72-9.26-15.84-18.28c-0.12-9.26,6.69-17.23,15.72-18.63c0.12,0,0.35,0,0.47-0.12c0,0,0,0,0-0.24
		c0-1.05,0-1.99,0-2.93c-0.82,0.59-1.76,0.71-2.58,0.94c-0.59,0.12-1.17,0.12-1.52,0.35c-0.47,0.24-0.94,0.36-1.41,0.36
		c-1.29,0-2.11-0.94-2.7-1.76c-0.23-0.35-0.47-0.59-0.82-0.82c-0.12,0.11-0.35,0.11-0.47,0.23c-0.82,0.47-1.41,0.82-1.52,1.06
		c-0.12,0.23,0.12,0.93,0.35,1.75c0.47,1.29,0.12,2.46-0.82,3.4c-0.59,0.47-1.17,1.06-1.64,1.64c-0.23,0.24-0.47,0.47-0.7,0.71
		c-0.7,0.7-1.29,0.93-2.11,0.93c-0.35,0-0.7,0-1.06-0.23c-0.47-0.12-1.06-0.35-1.64-0.47c-0.12,0-0.23,0-0.35-0.12l-1.29,2.23
		c2.23,1.29,2.82,3.16,2.11,6.09c-0.7,3.17-2.7,3.99-4.93,4.22v2.58c2.7,0.23,4.11,1.52,4.93,4.22c0.7,2.69,0.12,4.57-2.11,6.21
		l1.29,2.22c0.12,0,0.23,0,0.35-0.11c0.59-0.12,1.17-0.36,1.64-0.47C81.62,69.31,82.09,69.31,82.32,69.31z M98.16,42.94
		c-5.98,0.82-11.03,7.15-10.79,13.48c0.23,6.32,5.4,12.42,10.79,12.89V42.94z M116.35,65.56V46.81h-12.91v18.75H116.35z
		 M139.23,60.87c-0.7,0-1.29,0.59-1.29,1.29c0,0.35,0.12,0.7,0.47,0.94c0.23,0.23,0.7,0.46,0.94,0.46c0.35,0,0.7-0.11,0.94-0.35
		c0.23-0.23,0.47-0.7,0.47-1.05C140.63,61.34,140.05,60.87,139.23,60.87z"/>
	<path fill="none" stroke="#FFFFFF" stroke-miterlimit="10" d="M140.75,52.9v-5.04h5.16v5.39L140.75,52.9z"/>
	<path fill="none" stroke="#FFFFFF" stroke-miterlimit="10" d="M137,33.1l4.69-2.34l2.23,5.15l-4.93,1.76L137,33.1z"/>
	<path fill="none" stroke="#FFFFFF" stroke-miterlimit="10" d="M106.02,12.71l0.7-5.16l5.4,0.94l-1.17,5.04L106.02,12.71z"/>
	<path fill="none" stroke="#FFFFFF" stroke-miterlimit="10" d="M117.64,104.34l2.46-5.04l4.58,2.46l-2.11,4.46L117.64,104.34z"/>
	<path fill="none" stroke="#FFFFFF" stroke-miterlimit="10" d="M139.69,40.25l5.16-1.18l0.94,5.51l-5.16,0.59L139.69,40.25z"/>
	<path fill="none" stroke="#FFFFFF" stroke-miterlimit="10" d="M113.65,14.23l1.53-4.92l5.28,1.88l-2.11,4.8L113.65,14.23z"/>
	<path fill="none" stroke="#FFFFFF" stroke-miterlimit="10" d="M130.66,83.02l2.35-4.57l4.69,2.22l-2.46,4.81L130.66,83.02z"/>
	<path fill="none" stroke="#FFFFFF" stroke-miterlimit="10" d="M121.74,96.61l2.93-4.45l4.22,2.93l-2.93,4.33L121.74,96.61z"/>
	<path fill="none" stroke="#FFFFFF" stroke-miterlimit="10" d="M120.92,17.16l2.46-4.57l4.69,2.81l-2.93,4.34L120.92,17.16z"/>
	<path fill="none" stroke="#FFFFFF" stroke-miterlimit="10" d="M132.77,26.77l4.11-3.28l3.17,4.57l-4.34,2.81L132.77,26.77z"/>
	<path fill="none" stroke="#FFFFFF" stroke-miterlimit="10" d="M134.18,75.87l1.88-4.81l4.93,1.88l-1.99,5.04L134.18,75.87z"/>
	<path fill="none" stroke="#FFFFFF" stroke-miterlimit="10" d="M126.55,89.69l2.82-4.21l4.46,2.69l-2.93,4.45L126.55,89.69z"/>
	<path fill="none" stroke="#FFFFFF" stroke-miterlimit="10" d="M127.37,21.38l3.29-3.98l3.99,3.63l-3.64,3.75L127.37,21.38z"/>
	<path fill="none" stroke="#000000" stroke-miterlimit="10" d="M85.84,118.75c-1.06,0-1.53,0.24-1.76,0.94
		c-0.24,0.47-0.12,0.94,0,1.29c0.35,0.47,1.06,0.7,1.88,0.7c4.93,0,9.86,0,14.78,0h18.77c0.12,0,0.35,0,0.47,0
		c0.82-0.23,1.29-0.7,1.17-1.52c0-0.59-0.23-1.41-1.88-1.41c-2.46,0-5.05,0-7.51,0H93.94C91.24,118.75,88.54,118.75,85.84,118.75z
		 M85.84,118.75v-0.58V118.75z M118.69,82.43c-0.35,0-0.7,0.12-0.94,0.35c-0.23,0.24-0.47,0.7-0.47,1.06c0,0.7,0.59,1.4,1.29,1.4
		c0.82,0,1.41-0.58,1.41-1.4c0-0.36-0.12-0.71-0.47-1.06C119.4,82.55,119.04,82.43,118.69,82.43z M118.69,82.43v-0.59V82.43z
		 M130.89,31.93c-0.7,0-1.41,0.7-1.41,1.4c0,0.35,0.12,0.71,0.47,0.94c0.23,0.23,0.7,0.47,1.06,0.47c0.7,0,1.41-0.59,1.41-1.41
		c0-0.35-0.12-0.7-0.35-1.05C131.6,32.04,131.25,31.93,130.89,31.93z M130.89,31.93v-0.59V31.93z M114.7,21.85
		c-0.7,0-1.41,0.7-1.41,1.41c0,0.35,0.12,0.7,0.47,1.05c0.23,0.23,0.59,0.47,0.94,0.47c0.7,0,1.29-0.59,1.29-1.29
		c0-0.35-0.12-0.82-0.35-1.05C115.41,21.97,115.06,21.85,114.7,21.85z M114.7,21.85v-0.59V21.85z M102.27,126.96
		c-5.75,0-11.38,0-17.13,0c-2.58,0-4.58-1.29-5.75-3.75c-1.17-2.35-0.94-4.69,0.59-6.92c0.35-0.47,0.35-0.58,0.12-0.93
		c-1.53-2.7-1.17-5.63,1.06-7.97c0.12-0.24,0.35-0.7,0.23-1.17c-0.35-2.46-1.41-4.81-3.05-7.39c-1.17-1.75-2.46-3.63-3.64-5.39
		c-1.76-2.57-3.52-5.27-5.16-7.96c-5.28-8.67-8.92-18.17-10.91-28.24c-1.17-5.63-1.41-10.78-0.94-15.35
		c0.7-5.98,2.46-11.37,5.4-16.17c6.8-10.9,17.13-17.81,30.62-20.39c1.99-0.35,3.99-0.47,5.98-0.59c0.59,0,1.29,0,1.88-0.12
		c0.23,0,0.35,0,0.59,0c2.7,0,2.93,1.88,2.93,3.4c0,7.38,0,14.77,0,22.03v8.79h6.92v-5.16c0-0.23,0-0.46,0-0.7c0-0.47,0-1.05,0-1.52
		c0.12-1.41,0-2.35-1.41-3.17c-2.35-1.4-3.29-4.57-2.23-7.5c0.94-2.57,3.52-4.21,6.1-4.21c0.12,0,0.23,0,0.35,0
		c2.93,0.11,5.4,2.22,6.22,5.04c0.7,2.92-0.59,5.85-3.17,7.26c-0.59,0.23-0.7,0.47-0.7,1.17c0,2.11,0,4.1,0,6.21
		c0,0.82,0,1.64,0,2.58c0.12,0,1.29,0,1.64,0c0.47,0,0.94,0,1.41,0c1.99,0,3.05,1.05,3.05,3.05c0,0.82,0,1.52,0,2.34v0.59h4.93V44
		c0-1.41,0-2.93,0-4.34c0,0-0.24-0.23-0.47-0.35c-2.46-1.41-3.87-3.99-3.52-6.68c0.35-2.81,2.35-5.04,5.16-5.62
		c0.47-0.12,1.06-0.12,1.53-0.12c2.7,0,5.16,1.64,6.1,4.1c1.29,3.05,0,6.68-2.82,8.2c-0.59,0.24-0.7,0.47-0.7,1.17
		c0,1.53,0,3.17,0,4.81v1.64c0,2.58-0.94,3.51-3.52,3.51h-6.69c0,2,0,3.99,0,5.98v0.82c0.12,0,0.24,0,0.35,0h5.16
		c1.76,0,3.64,0,5.4,0c0.35,0,0.59,0,0.82-0.47c1.17-2.23,3.4-3.51,5.75-3.51c0.7,0,1.29,0.11,1.99,0.35
		c2.93,0.93,4.93,3.86,4.69,6.68c-0.23,3.28-2.7,5.74-5.87,6.21c-0.24,0-0.47,0-0.7,0c-2.35,0-4.81-1.41-5.75-3.52
		c-0.23-0.47-0.47-0.58-1.06-0.58c-1.76,0-3.64,0-5.4,0h-5.4v0.58c0,0.82,0,1.64,0,2.46c0,1.99-1.06,3.05-3.05,3.05
		c-1.64,0-3.29,0-4.93,0c-0.7,0-1.29,0-1.99,0v2.81h2.7c0.7,0,1.41,0,2.11,0c2.11,0,3.05,0.94,3.17,3.05c0,0.47,0,1.05,0,1.52
		c-0.12,1.29,0,1.99,1.29,2.81c2.35,1.41,3.4,4.57,2.46,7.38c-0.94,2.7-3.52,4.57-6.34,4.57h-0.12c-2.82,0-5.4-1.99-6.22-4.68
		c-0.94-2.81,0.12-5.74,2.58-7.38c1.17-0.82,1.29-0.94,1.17-2.11h-2.7c-0.7,0-1.29,0-1.99,0c-2.35,0-3.28-0.94-3.28-3.28
		c0-1.29,0-2.47,0-3.64v-1.17h-2.82v37.26c0.23,0,0.47,0,0.7,0h3.4c1.41,0,2.93,0,4.34,0c1.76,0,3.64,0,5.4,0h0.12
		c2.7,0,4.69,1.18,5.87,3.28c1.29,2.23,1.17,4.46-0.23,6.8c1.88,2.46,2.23,5.16,0.82,7.85c-1.17,2.23-3.17,3.4-5.63,3.4
		C114,126.96,108.13,126.96,102.27,126.96z M85.84,110.79c-1.06,0-1.29,0.58-1.29,1.05c-0.12,0.82,0.23,1.29,0.94,1.52
		c0.35,0.12,0.59,0.12,0.94,0.12c5.98,0,12.09,0,18.07,0c4.81,0,9.5,0,14.31,0c0.7,0,1.17-0.12,1.53-0.47
		c0.23-0.23,0.35-0.58,0.35-1.05c0-0.71-0.23-1.29-1.88-1.29H85.84V110.79z M99.8,105.51V84.3c-2.58-0.23-2.93-0.82-3.52-3.63v-0.12
		c0-0.11,0-0.23,0-0.23l-0.12-0.12c-0.12-0.11-0.35-0.47-0.47-0.58c-0.24,0-0.59,0.11-0.82,0.35c-0.23,0.23-0.47,0.47-0.82,0.82
		c-0.12,0.12-0.23,0.35-0.47,0.47c-0.59,0.7-1.29,1.05-1.99,1.05c-0.47,0-0.94-0.11-1.29-0.35l-0.7-0.35
		c-1.17-0.59-2.46-1.29-3.52-1.99c-3.17-2.11-3.28-2.35-2.23-5.98v-0.12c0-0.23,0-0.7-0.12-0.82c0,0-0.35-0.11-0.7-0.11
		c0,0-0.12,0-0.23,0c-0.35,0-0.82,0.11-1.17,0.35c-0.12,0-0.35,0.12-0.59,0.12c-0.35,0.11-0.7,0.11-1.06,0.11
		c-0.94,0-1.64-0.47-2.23-1.29c-0.12-0.23-0.35-0.58-0.59-0.82c-0.7-1.05-1.41-2.11-1.99-3.16c-0.12-0.35-0.35-0.7-0.47-0.94
		c-1.29-2.46-1.29-3.04,1.64-5.62c0.12-0.12,0.23-0.59,0.12-0.71c0-0.11-0.35-0.35-0.7-0.46c-0.23-0.12-0.7-0.12-1.06-0.24
		c-0.24,0-0.47-0.12-0.82-0.12c-1.76-0.46-2.35-1.28-2.35-2.92c0-1.18,0-2.23,0-3.4v-0.94c0-0.35,0-0.7,0-0.94
		c0-3.04,0.23-3.75,4.34-4.33c0.12,0,0.47-0.35,0.47-0.59c0-0.12-0.12-0.47-0.23-0.7c-0.23-0.35-0.59-0.59-0.94-0.94
		c-0.12-0.12-0.35-0.23-0.47-0.47c-1.06-1.05-1.29-2.11-0.59-3.4c0.23-0.35,0.35-0.82,0.59-1.17c0.47-0.94,1.06-1.99,1.64-2.93
		c0.23-0.35,0.47-0.7,0.59-1.05c0.7-1.17,1.29-2.11,2.7-2.11c0.7,0,1.64,0.23,3.05,0.82c0.23,0,0.47-0.12,0.59-0.24
		c0.12-0.11,0.23-0.46,0.12-0.7c0-0.35-0.12-0.7-0.35-1.05c-0.12-0.24-0.12-0.47-0.23-0.71c-0.47-1.4,0-2.69,1.29-3.39
		c0.35-0.24,0.82-0.47,1.29-0.82c0.82-0.59,1.64-1.18,2.58-1.53c0.23-0.11,0.59-0.23,0.82-0.47c1.06-0.58,1.76-0.93,2.46-0.93
		c1.17,0,1.99,0.82,3.4,2.57c0,0,0.35,0.12,0.47,0.12c0.23,0,0.47-0.35,0.59-0.7c0.23-0.47,0.23-0.94,0.35-1.53
		c0.23-1.52,1.17-2.34,2.7-2.57c0.12,0,0.35,0,0.59,0V9.9c-9.85,0.7-17.95,3.86-24.76,9.84c-9.15,8.2-13.26,18.63-11.97,31.05
		c0.7,7.15,2.82,14.65,6.57,23.32c2.7,6.09,6.22,11.48,10.32,17.46c2.82,4.22,5.75,8.67,6.8,14.06L99.8,105.51z M83.96,66.61
		c0.7,0,1.41,0.24,1.99,0.94c0.35,0.35,0.59,0.58,0.94,0.94c0.47,0.46,1.06,1.05,1.52,1.52c0.82,0.7,1.06,1.64,0.82,2.81
		c0,0.24-0.12,0.59-0.23,0.94c-0.12,0.47-0.35,1.05-0.23,1.29c0.12,0.23,0.7,0.58,1.17,0.82c0.23,0.11,0.59,0.23,0.82,0.47
		c0-0.12,0.12-0.12,0.24-0.24c0.35-0.47,0.82-0.94,1.29-1.29c0.7-0.58,1.29-0.93,1.76-0.93c0.12,0,0.12,0,0.23,0
		c0.47,0.11,0.94,0.11,1.41,0.23c1.41,0.23,2.82,0.47,3.99,1.41c0-1.06,0-2.11,0-3.05c0-0.35,0-0.35-0.35-0.47
		c-9.03-1.52-15.72-9.26-15.84-18.28c-0.12-9.26,6.69-17.22,15.72-18.63c0.12,0,0.35,0,0.47-0.12c0,0,0,0,0-0.23
		c0-1.06,0-1.99,0-2.93c-0.82,0.59-1.76,0.7-2.58,0.94c-0.59,0.11-1.17,0.11-1.52,0.35c-0.47,0.23-0.94,0.35-1.41,0.35
		c-1.29,0-2.11-0.94-2.7-1.76c-0.23-0.35-0.47-0.58-0.82-0.82c-0.12,0.12-0.35,0.12-0.47,0.24c-0.82,0.47-1.41,0.82-1.52,1.05
		c-0.12,0.24,0.12,0.94,0.35,1.76c0.47,1.29,0.12,2.46-0.82,3.4c-0.59,0.47-1.17,1.05-1.64,1.64c-0.24,0.23-0.47,0.47-0.7,0.7
		c-0.7,0.7-1.29,0.94-2.11,0.94c-0.35,0-0.7,0-1.06-0.24c-0.47-0.11-1.06-0.35-1.64-0.47c-0.12,0-0.23,0-0.35-0.11L79.39,42
		c2.23,1.29,2.82,3.17,2.11,6.1c-0.7,3.16-2.7,3.98-4.93,4.22v2.57c2.7,0.24,4.11,1.53,4.93,4.22c0.7,2.7,0.12,4.57-2.11,6.21
		l1.29,2.23c0.12,0,0.23,0,0.35-0.12c0.59-0.12,1.17-0.35,1.64-0.47C83.38,66.61,83.73,66.61,83.96,66.61z M99.8,40.36
		c-5.98,0.82-11.03,7.15-10.79,13.48c0.23,6.33,5.4,12.42,10.79,12.89V40.36z M118.11,62.86V44.11H105.2v18.75H118.11z
		 M140.87,58.17c-0.7,0-1.29,0.59-1.29,1.29c0,0.35,0.12,0.71,0.47,0.94c0.23,0.23,0.7,0.47,0.94,0.47c0.35,0,0.7-0.12,0.94-0.35
		c0.23-0.24,0.47-0.71,0.47-1.06C142.39,58.76,141.69,58.17,140.87,58.17z"/>
	<path fill="none" stroke="#000000" stroke-miterlimit="10" d="M142.39,50.32v-5.04h5.16v5.39L142.39,50.32z"/>
	<path fill="none" stroke="#000000" stroke-miterlimit="10" d="M138.64,30.52l4.69-2.34l2.23,5.15l-4.93,1.76L138.64,30.52z"/>
	<path fill="none" stroke="#000000" stroke-miterlimit="10" d="M107.66,10.01l0.7-5.15l5.51,0.94l-1.17,5.04L107.66,10.01z"/>
	<path fill="none" stroke="#000000" stroke-miterlimit="10" d="M119.28,101.65l2.46-5.04l4.58,2.46l-2.11,4.45L119.28,101.65z"/>
	<path fill="none" stroke="#000000" stroke-miterlimit="10" d="M141.34,37.67l5.16-1.17l0.94,5.5l-5.16,0.59L141.34,37.67z"/>
	<path fill="none" stroke="#000000" stroke-miterlimit="10" d="M115.41,11.66l1.52-4.93l5.28,1.88l-2.11,4.8L115.41,11.66z"/>
	<path fill="none" stroke="#000000" stroke-miterlimit="10" d="M132.42,80.44l2.35-4.57l4.69,2.22L137,82.9L132.42,80.44z"/>
	<path fill="none" stroke="#000000" stroke-miterlimit="10" d="M123.5,93.91l2.93-4.45l4.22,2.93l-2.93,4.34L123.5,93.91z"/>
	<path fill="none" stroke="#000000" stroke-miterlimit="10" d="M122.56,14.47l2.46-4.57l4.69,2.81l-2.93,4.33L122.56,14.47z"/>
	<path fill="none" stroke="#000000" stroke-miterlimit="10" d="M134.53,24.08l4.11-3.29l3.17,4.57l-4.46,2.82L134.53,24.08z"/>
	<path fill="none" stroke="#000000" stroke-miterlimit="10" d="M135.82,73.29l1.88-4.8l4.93,1.87l-1.99,5.04L135.82,73.29z"/>
	<path fill="none" stroke="#000000" stroke-miterlimit="10" d="M128.2,87.12l2.82-4.22l4.46,2.69l-2.93,4.46L128.2,87.12z"/>
	<path fill="none" stroke="#000000" stroke-miterlimit="10" d="M129.02,18.69l3.28-3.99l3.99,3.63l-3.64,3.75L129.02,18.69z"/>
	<path fill="#F9B916" d="M16.45,130.99c-1.06,0.36-1.18,0.83-2.13,0.59c-0.47,0.71-0.83,1.42-1.3,2.02c-2.37,0-2.01,0.94-3.9,0.94
		c0.24,0.59,0.36,1.3,0.59,1.89c1.18,0.12,1.54-1.3,2.13-0.59c-0.24,0.12-0.36,0.24-0.59,0.36c-0.83,0.23-1.66,0.47-2.37,0.47
		c0.24,0.47,0.95,0.47,1.66,0.36c0,0.11-0.12,0.23-0.12,0.35c-2.01,0.24-4.61,0.83-5.91,1.89v0.59c2.13-0.82,4.85-0.94,6.27-1.77
		c0.12,0,0.12,0.12,0.24,0.12c-0.59,0.47-0.95,0.59-1.77,0.47c0.24,0.12,0.59,0.24,0.71,0.48c-1.89,0.59-3.79,1.18-5.56,1.77v1.42
		c2.84-0.83,5.68-1.78,7.22-0.59c0.83-0.48,1.42-0.71,1.89-0.95c0.12,0.36,0.35,0.59,0.71,0.71c-1.42,0.59-1.18,1.66-1.89,3.08
		c0.36,0,0.59,0.11,0.59,0.47c1.42-1.18,2.25,0.35,2.96-1.06c0.24,0.23,0.47,0.35,0.59,0.59c-1.89,0.94-4.26,1.77-5.09,1.06
		c-0.83,0.36-1.18,0.95-1.89,1.42c0.35,0.24,1.07,0,1.07,0.59c-0.95-0.83-1.89,0.24-3.08,0.48c-0.95,0.23-2.01,0.47-2.96,0.59v9.11
		c0,3.31,2.6,5.91,5.91,5.91h1.07c3.31,0,5.92-2.6,5.92-5.91v-26.62C17.04,131.35,16.57,131.23,16.45,130.99z"/>
	<path fill="#F9B916" d="M10.77,111.24c0.47,0.59,3.31,0.47,3.67-0.12c-0.36,0-1.54-0.59-0.71-0.71c0.95-0.59,2.01,0.35,2.13-0.59
		c-0.24,0.12-0.59-0.12-0.12-0.24h0.12c-1.07-1.18-2.6-2.01-4.38-2.01h-0.95c-2.13,0-5.68,1.42-6.74,3.08
		c-0.47,0.82-0.83,1.89-0.83,2.95c0,0-0.12,0.48-0.24,1.07C5.09,113.72,9.12,112.54,10.77,111.24z"/>
	<path fill="#F9B916" d="M140.42,153.59c-4.5-3.2-33.83-2.02-33.83-2.02s1.3-1.77,1.42-3.43c0.12-1.65-0.35-5.2-6.62-5.56
		c-6.27-0.23-16.21-5.44-24.01-8.63c-7.33-2.96-6.74-5.21-12.66-9.47c-5.91-4.25-10.41-8.51-16.44-12.06
		c-6.03-3.55-14.55-3.43-21.41-3.43c-3.31,0-6.27,0.83-8.52,1.65c0.24,0.24,0.47,0.36,0.71,0.6c0.47,0.71-1.78,1.89-0.36,2.13
		c0.83-1.07,5.2-0.36,6.51,0.35c-1.66,0.59-2.72,2.48-4.97,2.13c-0.35,1.3-0.95,1.66-2.6,2.13c0.71-0.71-0.36-0.83-1.18-0.83
		c0.83,1.18,0.36,1.66-0.24,0.95c0.36,1.3-1.77,0.59-1.42,1.53c2.37,0,2.37-1.41,4.26-1.06c-1.89,1.66-5.32,1.66-5.8,4.14
		c-2.48,0.71-3.43,0.71-4.85,0.71c1.42,0.59-2.13,1.18-2.37,1.42c-0.12,1.18,1.54,0.47,1.42,1.66c0.95-0.36,2.13-1.19,2.6-0.36
		c-2.13,1.07-4.02,0.83-5.68,1.66v0.35v2.49c0.12,0,0.35,0,0.59,0.11c-0.24,0.12-0.47,0.24-0.59,0.36v0.24
		c0.24,0.11,1.18,0.23,1.3,0.71c-0.12,0.35-0.95,0.47-1.3,0.71v0.59c0.95,0,3.43,0,3.31-0.95c-2.25,0.47-0.83-1.77,0.12-2.6
		c1.54,1.06,4.97-1.18,6.27,0.71c0.36-0.48,0.47-0.95,0.95-1.42c1.66,0,2.96,0,3.07,0.71c5.21,2.25,16.33,6.5,16.92,8.16
		c0.83,2.13,5.8,12.07,24.49,22.48c18.69,10.41,61.04,5.44,65.77,5.44c5.56-0.12,16.09,0.23,17.27-1.54
		C143.97,162.1,144.92,156.78,140.42,153.59z"/>
	<path fill="none" stroke="#FFFFFF" stroke-linecap="round" stroke-miterlimit="10" d="M6.03,122.71v-10.65
		c0-1.07,0.83-1.89,1.89-1.89h6.86c1.07,0,1.89,0.82,1.89,1.89v46.73c0,1.06-0.83,1.89-1.89,1.89H7.93c-1.07,0-1.89-0.83-1.89-1.89
		v-19.17"/>
	<path fill="none" stroke="#FFFFFF" stroke-linecap="round" stroke-miterlimit="10" d="M69.33,132.29
		c22.24,14.67,26.74,10.3,32.18,14.67c4.26,3.55,0.71,8.87-4.73,8.28c-10.76-1.42-26.26-9.58-28.98-12.3
		c-3.19-3.19-17.98-2.96-8.52,3.9c9.46,6.86,43.65,16.92,44.83,14.08c0.71-1.66,2.13-3.31,3.31-4.38c0.83-0.82,2.01-1.3,3.31-1.3
		h28.04c2.37,0,4.38,2.01,4.38,4.38c0,2.37-2.01,4.38-4.38,4.38h-2.6c0,0-37.26,0.35-47.67,1.53c-10.41,1.19-25.2-3.9-25.2-3.9
		s-23.66-6.51-30.99-5.68c-4.85,0.59-8.16-0.23-9.94-0.94c-0.83-0.36-1.42-1.07-1.42-1.9V118.1c0-0.83,0.59-1.54,1.42-1.66
		c4.97-0.83,22.36-2.72,34.54,7.22"/>
	<path fill="none" stroke="#000000" stroke-width="2" stroke-linecap="round" stroke-miterlimit="10" d="M3.79,124.13v-10.64
		c0-1.07,0.83-1.9,1.89-1.9h6.86c1.07,0,1.89,0.83,1.89,1.9v46.72c0,1.07-0.83,1.89-1.89,1.89H5.69c-1.06,0-1.89-0.82-1.89-1.89
		v-19.16"/>
	<path fill="none" stroke="#000000" stroke-width="2" stroke-linecap="round" stroke-miterlimit="10" d="M67.91,133.48
		c22.24,14.66,26.73,10.29,32.18,14.66c4.26,3.55,0.71,8.88-4.73,8.29c-10.76-1.42-26.26-9.59-28.98-12.31
		c-3.19-3.19-17.98-2.95-8.52,3.91c9.46,6.86,42.94,16.56,44.83,14.07c0.12-0.23,0.83-0.82,0.95-1.06c1.66-3.2,4.38-4.61,8.04-4.61
		h25.67c2.37,0,4.38,2.01,4.38,4.37c0,2.37-2.01,4.38-4.38,4.38h-2.6c0,0-37.26,0.35-47.67,1.54c-10.41,1.18-25.2-3.91-25.2-3.91
		s-23.66-6.5-30.99-5.68c-4.85,0.6-8.16-0.23-9.94-0.94c-0.83-0.36-1.42-1.07-1.42-1.89v-35.02c0-0.83,0.59-1.54,1.42-1.66
		c4.97-0.82,22.36-2.72,34.54,7.22"/>
</g>
</svg>
