<?xml version="1.0" encoding="utf-8"?>
<!-- Generator: Adobe Illustrator 24.2.1, SVG Export Plug-In . SVG Version: 6.00 Build 0)  -->
<svg version="1.1" id="Слой_1" xmlns="http://www.w3.org/2000/svg" xmlns:xlink="http://www.w3.org/1999/xlink" x="0px" y="0px"
	 width="80.3px" height="80.3px" viewBox="0 0 80.3 80.3" style="enable-background:new 0 0 80.3 80.3;" xml:space="preserve">
<style type="text/css">
	.st0{fill:#FFFFFF;}
</style>
<g>
	<circle cx="40.4" cy="40.3" r="38"/>
	<path class="st0" d="M56.4,60.8c0-2.7,0-5.3,0-8c0-3.5,0-7,0-10.5c0-1.1-0.2-2.3-0.6-3.4c-0.9-2.6-3-3.3-5.4-3
		c-2.2,0.2-3.5,1.5-4.4,3.5c-0.4,1-0.5,2-0.5,3c0,5.9,0,11.8,0,17.8c0,0.5-0.2,0.7-0.7,0.7c-3,0-6.1,0-9.1,0c-0.2,0-0.4,0-0.7,0
		c0-10.7,0-21.4,0-32.1c2.8,0,5.8,0,8.9,0c0.2,1.4,0.4,2.8,0.7,4.4c0.2-0.3,0.3-0.4,0.4-0.5c2-3,5-4.5,8.7-4.7
		c2.2-0.1,4.3,0,6.2,0.8c3.6,1.5,5.6,4.3,6.6,7.9c0.4,1.7,0.6,3.3,0.6,5c0,6.2,0,12.3,0,18.5c0,0.2,0,0.4,0,0.7
		C63.4,60.8,59.9,60.8,56.4,60.8z"/>
	<path class="st0" d="M30,61.9c-3.6,0-7.1,0-10.7,0c0-11.6,0-23.2,0-34.9c3.5,0,7.1,0,10.7,0C30,38.7,30,50.3,30,61.9z"/>
	<path class="st0" d="M24.7,22.5c-1.3-0.1-2.5-0.2-3.6-0.8c-1.9-1.2-2.3-3.1-2.1-5.1c0.3-2.7,2.5-4.7,5.2-4.8c0.9,0,1.9,0,2.8,0.2
		c2,0.4,3.2,1.8,3.5,3.8c0.1,1.1,0.1,2.2-0.1,3.3c-0.4,2-2,3.1-4.3,3.4C25.5,22.5,25,22.5,24.7,22.5z"/>
</g>
</svg>
