<?xml version="1.0" encoding="utf-8"?>
<!-- Generator: Adobe Illustrator 24.2.1, SVG Export Plug-In . SVG Version: 6.00 Build 0)  -->
<svg version="1.1" id="Слой_1" xmlns="http://www.w3.org/2000/svg" xmlns:xlink="http://www.w3.org/1999/xlink" x="0px" y="0px"
	 width="104px" height="37.12px" viewBox="0 0 104 37.12" enable-background="new 0 0 104 37.12" xml:space="preserve">
<g>
	<path fill="#FFB800" d="M32.96,18.6c-0.38,0-0.75,0-1.13-0.08c-0.75-0.15-1.51-0.38-2.26-0.53c0-0.08,0-0.15,0.08-0.3
		c0.38,0,0.68-0.08,1.05-0.08c0-0.07,0-0.23,0-0.3c-0.9,0-1.88,0-2.78,0c0-0.07,0-0.15,0-0.23c0.45-0.15,0.83-0.3,1.35-0.45
		c-0.45-0.15-0.83-0.23-1.13-0.38c0-0.08,0-0.15,0.08-0.23c0.53,0.07,1.05,0.07,1.58,0.15v-0.08c-0.45-0.15-0.98-0.3-1.43-0.53
		c-0.3-0.15-0.45-0.53-0.68-0.68c-0.23-0.15-0.53-0.3-0.75-0.23c-1.05,0.3-2.03,0.38-2.71-0.68c-0.15-0.23-0.45-0.23-0.68-0.38
		c-2.78-1.36-5.49-2.63-8.2-3.99c-1.43-0.75-2.26-3.39-1.5-4.82C14.07,4.38,14.67,4,15.2,3.85c0.83-0.53,1.81-0.9,2.86-1.2
		c1.58-0.38,3.16-0.6,4.74-0.9c2.56-0.45,5.12-0.98,7.75-1.2c3.24-0.23,6.47-0.23,9.71-0.3c1.96,0,3.91,0,5.79,0.07
		c2.33,0.07,4.67,0.15,7,0.23c3.39,0.07,6.7,0.15,10.08,0.23c1.13,0,2.18,0.07,3.31,0.15c1.05,0.07,2.18,0.07,3.24,0.15
		c2.48,0.15,4.97,0.3,7.45,0.53c2.41,0.23,4.74,0.45,7.15,0.68c1.58,0.15,3.16,0.45,4.74,0.6c2.78,0.3,5.57,0.6,8.43,0.9
		c0.23,0,0.53,0,0.83-0.08c1.81-0.3,3.61,0.08,5.34,0.53c0.23,0.08,0.53,0.3,0.53,0.45c-0.08,0.98-0.15,1.96-0.38,2.93
		c-0.07,0.22-0.53,0.3-0.9,0.53c0-0.07,0,0.08,0,0.08c1.28,0.98,0.45,2.26,0.45,3.39c0,0.15-0.45,0.53-0.53,0.53
		c-0.3-0.23-0.53-0.45-0.75-0.75c-0.23,0.23-0.45,0.53-0.75,0.83c-0.45,0.53-0.9,0.6-1.66,0.3c-0.98-0.38-2.18-0.3-3.31-0.45
		c-2.03-0.15-4.06-0.3-6.02-0.45c-0.3,0-0.68,0.08-1.05,0.08c0,0.08,0,0.23,0,0.3c0.9,0.08,1.88,0.15,2.79,0.15
		c0.45,0,0.9-0.15,1.35-0.07c0.3,0.07,0.68,0.3,1.2,0.53c-0.38,0.15-0.53,0.23-0.6,0.23c-0.83-0.6-1.73-0.23-2.63-0.23
		c-1.05,0-2.18-0.23-3.24-0.38c-0.75-0.15-1.58-0.23-2.26,0.23c-0.07,0-0.15,0.07-0.15,0c-0.68-0.53-1.36,0.15-2.11,0
		c-0.83-0.15-1.73-0.15-2.56-0.23c0,0-0.07-0.07-0.3-0.3c1.13,0.07,2.11,0.15,3.01,0.23c0-0.07,0-0.07,0-0.15
		c-1.13-0.15-2.18-0.45-3.31-0.53c-1.58-0.15-3.16-0.08-4.74-0.15c-0.23,0-0.38-0.23-0.6-0.15c-0.83-0.08-1.58-0.23-2.41-0.3
		c-1.96-0.15-3.84-0.23-5.8-0.38c-1.05-0.07-2.03-0.3-3.08-0.38c-1.13-0.08-2.26-0.15-3.39-0.08c-1.35,0.15-2.63,0.15-3.99,0
		c-0.9-0.08-1.88,0.08-2.78-0.08c-1.5-0.3-3.01,0.15-4.44,0.15c-1.58,0-3.16,0.15-4.74,0.23c-0.45,0-0.83,0.15-1.28,0.45
		c1.43,0,2.86,0,4.22,0c1.35,0,2.71,0.15,3.99,0.23c1.35,0.07,2.71,0,3.99,0.15c1.28,0.15,2.63-0.23,3.84,0.53
		c0.08,0.08,0.23,0.08,0.23,0.08c1.13-0.45,2.33,0,3.46-0.15c0.9-0.07,1.73,0,2.63,0c1.05,0,2.11-0.07,3.08-0.07
		c0,0,0.07,0.07,0.23,0.38c0.45,0.15,1.28,0.6,1.58,0.38c0.68-0.45,1.36-0.15,1.96-0.22c1.65-0.08,3.39-0.23,5.04-0.23
		c0.83,0,1.73,0.07,2.56,0.15c0.15,0,0.3,0.15,0.45,0.38c-0.75,0-1.51,0-2.26,0v0.07c4.21,0.6,8.35,1.13,12.57,1.73
		c0,0.07,0,0.15,0,0.15c-1.66,0-3.31,0-5.04,0c0.15,0.08,0.22,0.15,0.3,0.15c0.83,0.23,1.88-0.23,2.48,0.68
		c0.07,0.15,0.45,0.07,0.68,0.07c0.45,0,1.05-0.23,1.2,0.53c0,0.15,0.45,0.15,0.6,0.23c0.38,0.15,0.68,0.3,0.98,0.53
		c-1.2-0.08-2.33-0.15-3.16-0.15c-0.6,0.45-1.05,0.68-1.5,1.05c0.23,0.08,0.53,0.15,0.83,0.15c0,0.07,0,0.15,0,0.15
		c-1.2-0.23-2.33-0.45-3.54-0.68c0-0.15,0-0.3,0-0.53c-0.15,0.08-0.23,0.15-0.3,0.23c-0.68,0-1.28,0.08-1.96,0.08
		c-3.08-0.08-6.25-0.3-9.33-0.23c-5.04,0.15-10.16,0.38-15.2,0.68c-3.01,0.23-5.94,0.68-8.96,0.98c-1.81,0.23-3.69,0.3-5.57,0.38
		c0.6-0.23,1.13-0.53,1.73-0.75c0-0.07,0-0.15,0-0.23c-0.98,0.15-1.88,0.23-2.86,0.38c-0.83,0.15-1.66,0.6-2.48,0.68
		c-0.83,0.07-1.66-0.15-2.56-0.3c1.2-0.08,2.33-0.23,3.54-0.3c-0.15-0.68-0.08-0.53-0.6-0.45c-1.05,0.23-2.18,0.45-3.24,0.38
		c-1.2-0.15-2.03,0.3-2.94,0.83C33.56,18.83,33.26,18.75,32.96,18.6c0.6-0.3,1.13-0.53,1.73-0.75c0-0.07,0-0.07-0.08-0.15
		c-0.6,0-1.2,0-1.81,0c0,0.07,0,0.15,0,0.15c0.23,0,0.53,0.07,0.75,0.07C33.34,18.15,33.19,18.38,32.96,18.6z M58.17,14.99
		c0.3-0.83-0.23-0.75-0.68-0.6c-1.05,0.3-2.03,0.68-3.09,0.75c-1.35,0.07-2.63,0.45-3.99,0.75c0.08,0.08,0.15,0.23,0.23,0.3
		c0.15-0.08,0.3-0.23,0.45-0.23c0.45,0,0.83,0.15,1.28,0.07c0.6-0.07,1.13-0.3,1.73-0.53c0,0,0.07,0,0.15,0.07
		c-0.08,0.08-0.15,0.08-0.23,0.08c0,0,0,0.07,0,0.15c1.13-0.07,2.18-0.15,3.31-0.3c0.3,0,0.6-0.3,0.9-0.38
		c0.23,0.15,0.45,0.3,0.68,0.38c0.23,0,0.53-0.15,0.75-0.15c1.05-0.08,2.11-0.08,3.39-0.15c-0.45,0.38-0.68,0.75-0.98,0.75
		c-1.43,0-2.86,0-4.29-0.08c-0.38,0-1.5,0.45-1.81,0.98c2.11-0.23,4.14-0.38,6.17-0.6c0.23,0,0.38,0.08,0.6,0.08
		c0.53,0,1.13,0,1.66,0c0.53-0.08,1.05-0.53,1.65,0c0.08,0.07,0.6-0.08,0.6-0.15c0.15-0.83,0.75-0.53,1.21-0.53
		c0.83-0.08,1.58,0,2.41,0c1.28,0,2.56,0,3.84,0v0.07c-0.3,0.07-0.6,0.07-0.9,0.15c0,0.08,0,0.15,0,0.23
		c2.18,0.15,4.36,0.3,6.7,0.45c-0.23-0.3-0.38-0.38-0.45-0.53c0.9,0,1.73,0,2.56,0v-0.07c-0.83-0.15-1.65-0.3-2.48-0.45
		c0-0.07,0-0.15,0.07-0.23c0.53,0.08,1.05,0.08,1.73,0.15c-0.15-0.3-0.3-0.53-0.45-0.68c1.35,0,2.71,0,4.29,0
		c-0.23-0.15-0.38-0.23-0.53-0.23c-1.58-0.08-3.24-0.08-4.82-0.38c-1.58-0.3-3.24,0.53-4.89-0.38c-0.6-0.38-1.5-0.23-2.26-0.38
		c-0.38-0.07-0.83-0.3-0.83,0.45c0,0.15-1.05,0.53-1.13,0.38c-0.38-0.53-0.83-0.23-1.2-0.15c-0.83,0.15-1.58,0.15-2.41,0.3
		c-1.58,0.3-3.24-0.38-4.82,0.3c-0.07,0-0.15,0-0.3,0C60.58,14.69,59.38,14.84,58.17,14.99z M76.83,5.28
		c-0.08,0.08-0.15,0.15-0.3,0.23c0.83,0,1.58,0,2.56,0c-0.38,0.23-0.6,0.38-0.98,0.6c1.35,0.07,2.48,0.15,3.61,0.23
		c0-0.07,0-0.07,0-0.15c-0.68-0.15-1.28-0.23-1.96-0.38c0-0.15,0-0.23,0-0.38c0.53-0.15,1.05-0.3,1.58-0.3c0.6,0,1.2,0.15,1.81,0.23
		c-0.15-0.98-0.6-1.2-1.28-1.13c-0.38,0.08-0.83-0.07-1.13,0.08c-0.75,0.23-1.35,0.38-1.88-0.38c-0.23,0.23-0.38,0.53-0.53,0.53
		c-1.2,0-2.41,0.15-3.46-0.23c-1.05-0.3-1.96,0.3-2.93,0.15c0.38,0.15,0.75,0.23,1.13,0.23c0.3,0.08,0.68,0.15,0.98,0.23
		c-1.05,0.3-2.33-0.3-2.93,1.28C73,5.28,74.95,5.28,76.83,5.28z M46.43,15.37c0.08,0.08,0.08,0.15,0.15,0.15
		c0.9-0.15,1.81-0.3,2.71-0.45c0.68-0.08,1.43-0.08,2.11-0.23c0.38-0.07,0.68-0.45,1.05-0.53c3.01-0.3,6.09-0.53,9.1-0.75
		c1.05-0.08,2.11,0.15,3.09,0.08c1.05,0,2.11-0.15,3.16-0.3c0-0.07,0-0.15,0-0.23c-0.15,0-0.3-0.07-0.45-0.07
		c-1.28,0.07-2.63,0.38-3.91,0.3c-1.35-0.07-2.71-0.23-4.06-0.07c-1.28,0.07-2.48,0.15-3.76,0.3c-0.45,0.08-0.9,0.45-1.28,0.38
		c-1.2-0.23-2.18,0.15-3.16,0.6c-0.38,0.23-0.98,0.15-1.43,0.07c-0.22,0-0.38-0.38-0.6-0.53c-0.07,0.08-0.15,0.08-0.15,0.15
		c0.08,0.15,0.08,0.23,0.15,0.3C48.31,14.99,47.11,14.54,46.43,15.37z M75.78,9.2c0,0.07,0,0.15,0,0.23
		c2.41,0.45,3.24,0.45,3.99-0.23C78.41,9.2,77.13,9.2,75.78,9.2z M62.69,5.96c1.28,0,2.41,0,3.69,0c-0.23-0.3-0.45-0.45-0.45-0.53
		c0.15-0.68-0.3-0.45-0.6-0.38C64.49,5.36,63.66,5.66,62.69,5.96z M69.46,8.9c0,0.08,0,0.15,0,0.23c1.51,0.75,3.09,0.08,4.67,0.3
		c0-0.08,0-0.15,0-0.23C72.54,9.05,71.04,8.97,69.46,8.9z M63.66,4.91c0.68-0.15,1.13-0.3,1.81-0.53C64.42,3.93,64.04,4,63.66,4.91z
		"/>
	<path fill="#FFB800" d="M64.04,23.5c-1.21,0.15-2.48,0.38-3.69,0.53c0-0.07,0-0.23-0.07-0.3c0.9-0.15,1.88-0.23,3.09-0.38
		c-0.68-0.23-1.13-0.38-1.73-0.53c-0.38,0.07-1.05,0.23-1.66,0.38c0-0.07-0.07-0.15-0.07-0.23c0.45-0.15,0.83-0.23,1.28-0.38v-0.07
		c-2.18,0-4.44,0-6.62,0c0,0.07,0,0.15,0,0.23c0.22,0.08,0.38,0.15,0.68,0.23c-0.23,0.23-0.38,0.45-0.68,0.83
		c0.53-0.07,0.83-0.15,1.2-0.15c0,0.08,0.07,0.23,0.07,0.3c-0.45,0.07-0.98,0.22-1.43,0.22c-0.6-0.07-0.6-0.07-0.75,0.53
		c0.22,0,0.45,0.07,0.68,0.07c0,0.08,0,0.15,0,0.23c-1.73-0.45-3.54,0.45-5.34-0.07c-0.07-0.15-0.07-0.3-0.15-0.38
		c-0.53,0.53-0.98,1.05-1.58,1.73c-0.08,0-0.83,0.45-0.53-0.53c-3.24,0.3-3.24,0.3-3.08,0.9c-0.38,0.07-0.68,0.15-1.05,0.3
		c0,0.07,0,0.07,0,0.15c0.38,0,0.75,0.08,1.2,0.08c-0.3,0.23-0.6,0.38-0.9,0.68c0.3,0.15,0.45,0.23,0.68,0.3
		c-0.08,0.08-0.15,0.15-0.15,0.15c-1.05-0.75-2.41-0.07-3.76-0.45c-0.83,0.83-2.26,0.68-3.61,0.98c-0.22,0.07-0.53,0-0.68,0.07
		c-0.45,0.15-0.75,0.38-1.35,0c-0.38-0.3-1.28,0.08-1.88,0.3c0.53,0.08,0.98,0.08,1.51,0.15c0,0.07,0,0.23,0,0.3
		c-0.38,0.15-0.75,0.38-1.13,0.45c-1.05,0.3-2.11,0.53-3.09,0.83c-0.3,0.07-0.53,0.3-0.9,0.53c1.05,0.38,1.66-1.05,2.78-0.07
		c-1.2,0.68-2.33,1.2-3.39,1.81c-0.08-0.07-0.15-0.23-0.23-0.3c0.3-0.23,0.53-0.45,0.9-0.68c-0.45,0.08-0.75,0.08-1.13,0.15
		c0.15-0.15,0.3-0.38,0.38-0.53c0-0.08-0.08-0.15-0.08-0.15c-0.3,0.07-0.6,0.07-0.83,0.23c-1.28,0.9-2.48,1.81-3.69,2.79
		c-0.3,0.23-0.53,0.75-0.6,1.13c-0.08,0.6-0.3,0.83-0.83,0.98c-0.6,0.15-1.28,0.38-1.88,0.6c-0.9,0.3-1.35,0.15-1.88-0.68
		c-0.15-0.23-0.38-0.38-0.53-0.53c-0.9-0.83-2.03-1.5-2.78-2.48c-1.05-1.43-2.11-2.18-3.99-2.03C8.88,31.85,7,32.15,5.19,32.53
		c-1.05,0.23-2.18,0.3-3.24,0.45c-0.45-0.3-0.9-0.15-1.35-0.07c0-0.23-0.08-0.45-0.08-0.83c-0.15-0.23-0.3-0.53-0.53-0.9
		c0.08-0.07,0.15-0.15,0.15-0.23c0.38,0.07,0.83,0.15,1.28,0.23c-0.38-1.05-0.38-1.05,0.75-1.43c0.15-0.07,0.3-0.15,0.38-0.23
		c0.3-0.6,0.83-0.6,1.43-0.6c0.53,0,1.05,0,1.58,0c0.53,0,1.05-0.15,1.58-0.22c0,0.15-0.08,0.38-0.08,0.6
		c1.73,0.22,3.39,0.38,5.27,0.6c-0.3-0.75-0.53-1.28-0.83-1.88c0.3,0.15,0.6,0.23,0.83,0.3c0-0.53,0-0.53-1.13-0.75
		c1.28,0.38,1.35-0.98,2.11-1.36c0.15-0.07,0.3-0.3,0.53-0.3c1.73-0.23,3.39-0.45,5.12-0.68c0.15,0,0.45-0.07,0.53,0
		c0.83,0.75,1.51,0.15,2.18-0.3c0.23-0.15,0.6-0.23,0.9-0.3c1.51-0.23,3.09-0.53,4.59-0.68c2.03-0.23,4.06-0.3,6.1-0.53
		c0.68-0.07,1.28-0.3,1.96-0.53c0,0.07,0.07,0.23,0.07,0.3c-0.6,0.23-1.28,0.38-1.88,0.6c0.83,0.75,1.51,0.83,3.54,0.45
		c0.83-0.15,1.66-0.23,2.41-0.3c-0.22,0.38-0.45,0.68-0.68,1.05c-1.13-0.6-0.45,0.98-0.9,0.9c0.98,0,2.11,0,3.46,0
		c-0.38-0.15-0.6-0.23-0.83-0.3c0.23-0.15,0.53-0.3,0.75-0.53c0.6-0.38,1.2-0.83,1.88-1.2c-0.07-0.15-0.23-0.3-0.45-0.53
		c0.23-0.15,0.45-0.38,0.53-0.3c0.68,0.38,1.28,0.07,1.96,0c0.15,0,0.38-0.15,0.53-0.15c-0.07-0.15-0.07-0.23-0.15-0.38
		c-1.36,0.15-2.63,0.3-4.14,0.53c0.3,0.3,0.45,0.45,0.6,0.53c-1.35,0-2.71,0-4.14,0c-0.07-0.23-0.15-0.45-0.23-0.68
		c-2.78,0-5.49,0-8.2,0v-0.07c0.6-0.08,1.13-0.15,1.73-0.23c1.73-0.15,3.54-0.23,5.27-0.3c3.01-0.15,6.02-0.3,9.03-0.38
		c3.39-0.15,6.85-0.3,10.23-0.45c2.71-0.07,5.34-0.3,8.05-0.22c1.81,0.07,3.54,0,5.34-0.08c2.93-0.15,5.87,0.15,8.73,0.15
		c2.63,0,5.19-0.15,7.83-0.23c0.75,0,1.43-0.07,2.18-0.15c0-0.07,0-0.15,0-0.23c-0.3-0.15-0.53-0.3-0.9-0.53c0.83,0,1.51,0,2.18,0
		c-0.08,0.38-0.15,0.75-0.15,1.13c0.08,0.07,0.15,0.07,0.15,0.15c0.53-1.35,1.73-1.13,2.71-1.28c0.98-0.23,1.96-0.3,2.94-0.38
		c0-0.08,0-0.23,0.07-0.3c-1.13-0.23-2.18-0.45-3.31-0.75c0,0.07-0.08,0.15-0.08,0.23c-0.15-0.23-0.3-0.53-0.6-0.9
		c0.9,0.15,1.66,0.3,2.41,0.45c0.75,0.15,1.58,0.3,2.33,0.45c0.15,0,0.45-0.15,0.45-0.3c0-0.15-0.15-0.45-0.3-0.53
		c-0.68-0.38-1.28-0.68-2.03-1.05c0.15-0.3,0.23-0.53,0.83-0.3c0.68,0.3,1.51,0.45,2.26,0.6c0.08-0.15,0.08-0.23,0.15-0.38
		c-0.53-0.3-1.05-0.6-1.66-0.98c1.35,0.07,2.63,0.23,3.61,1.35c-0.53-0.3-1.13-0.6-1.66-0.9c0,0.08-0.07,0.08-0.07,0.15
		c0.3,0.23,0.68,0.45,0.98,0.68c-0.07,0.23-0.23,0.45-0.3,0.68c0.23,0,0.45,0,0.75,0c0.07,0.3-0.98,0.75,0.15,0.98
		c0.15,0,0.15,0.83,0.23,1.05c0.53,0.38,1.2,0.68,1.2,0.9c-0.08,0.53-0.08,1.28-0.9,1.43c-0.08,0-0.08,0.3-0.15,0.45
		c-0.23,0.3-0.45,0.75-0.68,0.75c-1.51,0.15-2.93,0.23-4.44,0.3c-0.45,0-0.9,0-1.35,0c0,0.3,0,0.6,0,0.9c-0.3,0-0.6,0-0.98,0
		c0,0.08-0.07,0.08-0.07,0.15c0.45,0.23,0.9,0.45,1.36,0.6c1.65,0.6,3.39,1.05,4.97,1.73c0.6,0.23,1.05,0.98,1.58,1.43
		c-0.68,0.38-1.28,0.75-1.96,1.13c0,0-0.07,0-0.15-0.07c0.53-1.88,0.38-2.26-1.58-2.86c-1.96-0.6-3.99-1.13-6.1-1.28
		c-0.83-0.07-1.58,0-2.26,0.3c-0.45,0.23-0.83,0.68-1.28,0.98c-0.45,0.3-0.9,0.68-1.43,0.75c-0.83,0.15-1.73,0-2.63-0.07
		c0.53-0.07,1.05-0.15,1.66-0.23c0-0.08,0-0.23-0.08-0.3c-1.35,0.15-2.71,0.3-4.06,0.45v-0.08c1.88-0.45,3.76-0.9,5.72-1.35
		c0-0.08,0-0.15,0-0.3c-0.75-0.15-1.5-0.38-2.26-0.53c0-0.07,0-0.15,0-0.15c0.45,0,0.83-0.07,1.28-0.07c0-0.07,0-0.07,0-0.15
		c-0.6-0.08-1.28-0.23-1.88-0.15c-0.68,0-1.28,0-1.96-0.3c-0.68-0.3-1.51-0.23-2.18-0.38c-0.53-0.07-1.05-0.3-1.51-0.38
		c-0.53-0.08-1.05,0-1.58,0.15c0.23,0.07,0.53,0.07,0.75,0.15c0,0,0,0,0,0.07c-1.13-0.07-2.18-0.15-3.31-0.23c-0.98,0-2.03,0-3.01,0
		c-0.6,0-1.2,0-1.81,0.07c-1.28,0.15-2.56,0.38-3.91,0.38c0.15-0.08,0.3-0.23,0.45-0.3C64.27,23.87,64.19,23.72,64.04,23.5
		c0.68,0.08,1.43,0.15,2.11,0.15c0-0.15,0-0.3,0-0.45C65.47,23.57,64.72,22.67,64.04,23.5z M35.14,25.3c0-0.07-0.07-0.23-0.07-0.3
		c-1.13,0.23-2.18,0.38-3.31,0.68c-1.05,0.23-2.03,0.6-3.01,0.9c0,0.15,0.08,0.23,0.08,0.38C30.93,26.36,33.04,25.83,35.14,25.3z
		 M73.75,23.27c0-0.07,0-0.07,0-0.15c-1.05-0.07-2.11-0.15-3.16-0.23c0,0.15,0,0.23,0,0.38C71.64,23.27,72.7,23.27,73.75,23.27z
		 M46.06,22.97c0,0.08,0,0.15,0,0.3c0.9-0.07,1.81-0.15,2.78-0.22c0-0.15,0-0.23,0-0.38C47.86,22.74,46.96,22.82,46.06,22.97z
		 M46.96,23.72c0-0.08,0-0.15,0-0.23c-0.75,0-1.5,0-2.26,0c0,0.08,0,0.23,0,0.3C45.45,23.8,46.21,23.8,46.96,23.72z M51.32,23.35
		c-0.53,0.38-0.9,0.6-1.28,0.83c0,0.08,0,0.15,0.08,0.15c0.45,0,0.9-0.07,1.35-0.07C51.4,23.95,51.4,23.72,51.32,23.35z"/>
	<path fill="#FFB800" d="M95.27,13.11c1.81-0.3,3.69-0.6,5.64,0.53C98.96,13.41,97.08,13.26,95.27,13.11z"/>
	<path fill="#FFB800" d="M93.16,24.62c0.75,0.07,1.2,0.15,1.66,0.15c0,0.08,0,0.08,0,0.15c-0.68,0-1.28,0-1.96,0
		c0.08-0.9,0.15-0.98,1.58-0.6C94.14,24.47,93.76,24.47,93.16,24.62z"/>
	<path fill="#FFB800" d="M47.64,30.87c0-0.98,0.53-0.75,0.9-0.83c0.38-0.08,0.68-0.23,1.2-0.45c0,0,0.08,0.15,0.15,0.3
		C49.22,30.27,48.46,30.57,47.64,30.87z"/>
	<path fill="#FFB800" d="M69.31,26.96c-0.9,0.15-1.81,0.3-2.71,0.53c0-0.08,0-0.23-0.07-0.3c0.9-0.15,1.81-0.23,2.71-0.38
		C69.31,26.81,69.31,26.88,69.31,26.96z"/>
	<path fill="#FFB800" d="M67.65,11c0.83,0.07,1.65,0.15,2.56,0.23c-0.9,0.23-1.73,0.15-2.63,0.07C67.65,11.23,67.65,11.08,67.65,11z
		"/>
	<path fill="#FFB800" d="M40.49,25.6c-0.15-0.15-0.3-0.3-0.53-0.53c-0.07,0.07-0.3,0.15-0.53,0.22c0.22-0.75,0.6-0.9,1.43-0.45
		C40.71,25.15,40.64,25.38,40.49,25.6z"/>
</g>
</svg>
