<svg width="758" height="301" viewBox="0 0 758 301" fill="none" xmlns="http://www.w3.org/2000/svg">
<path d="M467.66 161.253C471.753 163.504 480.599 164.96 479.411 167.741C479.015 168.667 480.467 169.197 484.296 169.594C489.578 170.256 493.274 171.712 497.367 172.904C499.48 173.566 501.196 174.228 503.045 175.022C491.558 176.346 475.318 175.552 467.924 172.639C457.89 168.8 457.229 164.431 467.66 161.253Z" fill="#ABABAB"/>
<path d="M575.003 164.298C572.626 164.828 570.25 165.357 568.401 165.887C561.667 168.005 560.347 168.005 552.161 166.019C550.709 165.622 549.256 165.357 547.54 164.96C552.557 164.695 557.046 164.431 563.912 164.033C552.821 162.445 543.447 161.386 534.865 159.929C531.3 159.4 528.791 158.341 526.811 157.414C524.83 156.487 523.906 155.428 523.378 154.369C523.114 153.972 524.83 153.442 525.622 153.045C526.811 153.31 528.923 153.574 529.319 153.972C531.036 155.825 533.148 157.679 540.014 158.738C550.841 160.856 562.592 162.577 575.003 164.298Z" fill="#ABABAB"/>
<path d="M502.12 151.324C503.837 152.648 505.289 153.707 507.27 155.163C503.573 155.031 501.196 154.899 497.895 154.634C498.027 155.296 497.895 155.958 498.424 156.487C500.404 158.606 503.309 160.724 504.893 162.974C505.949 164.431 507.402 165.49 514.4 165.755C515.588 165.755 516.512 166.284 517.7 166.417C512.815 167.608 499.876 166.814 498.688 165.358C495.651 161.518 493.01 157.811 490.898 154.237C490.634 153.839 493.01 153.177 494.727 152.78C496.707 152.251 499.48 151.854 502.12 151.324Z" fill="#ABABAB"/>
<path d="M615.801 138.747C624.251 138.085 632.173 138.879 641.415 140.865C648.413 142.454 650.657 143.778 644.848 146.425C643.264 146.028 641.679 145.631 640.755 145.366C635.606 143.248 628.476 141.527 620.29 140.071C618.441 139.806 617.385 139.276 615.801 138.747Z" fill="#ABABAB"/>
<path d="M540.806 163.504C524.83 163.636 519.285 162.312 517.04 159.135C515.324 156.752 512.287 154.501 510.306 152.251C508.326 149.868 509.91 149.206 520.341 147.749C521.133 148.279 521.793 148.808 522.718 149.338C523.51 149.868 524.698 150.265 525.886 150.927C521.265 150.794 517.7 150.662 512.551 150.397C514.003 151.589 515.06 152.383 516.116 153.31C518.625 155.428 520.473 157.546 523.906 159.665C525.358 160.591 530.375 161.121 533.676 161.783C536.185 162.445 538.561 162.974 540.806 163.504Z" fill="#ABABAB"/>
<path d="M520.473 168.932C527.867 168.8 533.676 168.8 541.202 168.667C535.789 167.741 531.3 166.946 526.679 166.152C521.926 165.357 516.776 164.828 512.155 164.034C510.307 163.769 508.722 163.107 508.194 162.577C507.138 161.386 506.742 160.062 506.478 158.87C506.346 158.473 507.798 158.076 508.458 157.679C509.118 157.679 509.778 157.679 510.439 157.811C511.231 158.341 512.947 158.87 512.683 159.4C510.571 162.71 519.285 164.166 530.112 165.622C538.43 166.681 546.088 168.138 554.274 169.594C545.955 172.507 540.938 172.639 530.772 170.521C528.131 169.726 524.83 169.462 520.473 168.932Z" fill="#ABABAB"/>
<path d="M611.708 148.014C609.463 148.279 607.615 148.544 605.106 148.941C603.786 146.293 592.695 145.764 585.565 144.44C582.925 143.91 580.284 143.513 576.851 142.851C583.453 142.057 589.13 141.395 594.808 140.733C598.108 141.395 601.277 141.924 605.634 142.719C599.561 142.983 594.543 143.116 588.734 143.381C597.052 144.837 609.463 145.234 611.708 148.014Z" fill="#ABABAB"/>
<path d="M545.031 150.794C545.691 150.927 546.615 151.059 546.748 151.192C548.728 153.839 557.838 155.296 566.949 156.62C573.022 157.546 579.888 158.208 587.942 159.268C584.773 160.459 581.868 161.518 578.303 162.71C573.418 162.048 568.665 161.386 563.912 160.724C564.176 160.591 564.44 160.327 564.704 160.194C568.929 159.929 573.022 159.665 577.247 159.4C577.379 159.268 577.379 159.135 577.511 159.003C569.721 158.076 561.931 157.149 554.273 156.223C550.576 155.825 548.2 155.428 547.672 154.237C547.144 153.045 544.371 151.986 542.522 150.927C543.315 150.927 544.107 150.794 545.031 150.794Z" fill="#ABABAB"/>
<path d="M544.767 148.544C540.806 148.279 537.373 148.014 532.62 147.617C535.789 149.735 538.562 151.589 541.334 153.575C542.127 154.104 541.731 154.899 543.051 155.296C545.163 156.09 548.332 156.62 550.973 157.282C552.425 157.679 553.481 158.076 554.67 158.473C552.821 158.473 550.841 158.473 549.124 158.341C541.995 157.811 538.958 156.752 537.77 155.031C536.317 152.78 533.148 150.794 530.508 148.676C529.187 147.617 527.735 146.69 534.865 146.426C543.315 146.426 543.579 146.426 544.767 148.544Z" fill="#ABABAB"/>
<path d="M616.329 153.177C614.084 152.251 612.104 151.324 609.199 150.132C614.349 150.397 618.177 150.53 623.327 150.927C617.913 148.676 617.385 146.293 607.219 144.704C608.935 144.44 610.652 144.042 611.708 144.175C613.82 144.307 616.461 144.704 617.385 145.101C621.214 146.823 624.647 148.676 627.948 150.53C628.476 150.794 627.684 151.324 626.628 151.589C623.591 151.986 620.158 152.515 616.329 153.177Z" fill="#ABABAB"/>
<path d="M553.217 147.22C555.198 147.882 558.499 148.411 558.895 149.073C560.347 151.456 565.232 153.177 575.795 154.236C577.907 154.501 579.36 155.031 580.68 155.56C560.479 154.501 556.782 153.442 551.237 147.352C551.897 147.485 552.557 147.352 553.217 147.22Z" fill="#ABABAB"/>
<path d="M499.084 170.521C513.343 169.065 520.605 171.845 531.564 172.771C514.268 175.419 508.722 175.022 499.084 170.521Z" fill="#ABABAB"/>
<path d="M481.788 163.239C478.355 161.915 474.79 160.724 472.413 159.532C471.753 159.135 473.866 158.473 475.186 157.943C477.034 157.149 479.279 156.487 482.184 155.825C482.448 158.076 492.482 160.327 481.788 163.239Z" fill="#ABABAB"/>
<path d="M599.165 139.938C604.446 139.938 608.143 138.482 612.764 139.938C613.292 140.071 612.764 140.468 612.764 140.865C617.781 141.792 624.251 142.851 631.513 144.175C628.344 144.572 626.363 144.704 626.099 144.704C616.593 142.983 608.407 141.527 599.165 139.938Z" fill="#ABABAB"/>
<path d="M564.572 147.617C566.157 148.147 568.269 148.544 568.137 148.808C566.949 151.059 574.607 151.986 581.737 153.045C583.453 153.31 584.641 153.707 585.698 154.104C567.477 152.913 561.667 151.192 564.572 147.617Z" fill="#ABABAB"/>
<path d="M634.285 150C627.42 146.161 627.156 146.558 633.757 145.763C635.078 146.028 636.53 146.293 637.85 146.558C639.303 146.823 640.623 147.087 642.604 147.617C640.095 148.279 637.454 149.073 634.285 150Z" fill="#ABABAB"/>
<path d="M39.0819 260.018C36.4412 264.122 42.7788 267.034 32.0841 271.8C30.3677 272.595 28.7833 274.184 29.9716 274.448C39.2139 275.905 33.6685 280.141 36.5732 282.921C37.7615 284.113 36.8373 285.569 36.9693 287.158C15.316 288.217 4.09317 285.304 3.8291 279.479C3.8291 271.8 16.6363 264.784 39.0819 260.018Z" fill="#ABABAB"/>
<path d="M154.61 274.581C148.801 275.905 143.52 277.493 137.446 278.42C134.013 278.95 128.336 278.685 126.091 278.023C122.659 276.964 121.338 275.243 118.962 273.522C125.695 273.522 131.505 273.389 137.446 273.389C138.106 273.125 138.634 272.86 139.163 272.595C131.109 269.682 122.791 266.902 116.453 263.989C113.68 262.666 113.284 260.812 113.284 259.223C113.284 257.767 114.737 256.178 116.453 254.722C117.113 254.06 120.018 253.531 121.866 253.001C122.526 253.531 124.375 254.06 123.847 254.59C121.338 257.37 119.754 260.283 124.903 262.666C133.353 266.505 143.784 270.344 154.61 274.581Z" fill="#ABABAB"/>
<path d="M102.062 247.705C100.081 250.353 98.7608 251.942 97.1764 254.06C93.8755 253.531 91.631 253.266 88.4622 252.736C86.8778 253.928 85.1614 255.119 83.9731 256.178C81.8606 258.164 80.0121 260.283 77.6355 262.533C73.6745 266.373 67.337 270.609 81.3324 272.595C71.0339 274.448 57.9626 272.198 60.9994 269.418C67.9971 262.798 75.1269 256.84 81.8606 251.545C82.5207 251.015 87.1419 250.486 89.9146 249.956C93.4795 249.294 97.0443 248.632 102.062 247.705Z" fill="#ABABAB"/>
<path d="M247.958 239.232C261.953 238.967 272.648 240.953 280.306 245.057C284.795 247.44 282.55 250.221 272.912 251.942C270.535 249.824 268.423 247.838 266.31 245.984C265.782 245.587 265.122 245.057 264.066 244.66C258.652 242.807 253.503 241.086 247.958 239.232Z" fill="#ABABAB"/>
<path d="M115.397 269.947C97.3085 269.418 92.9514 265.843 98.1007 261.077C102.326 257.238 104.306 253.663 107.607 250.221C110.644 247.043 115.661 245.852 128.072 244.925C127.808 246.381 127.544 247.838 127.28 249.559C122.923 249.029 119.226 248.632 114.209 247.97C112.624 250.618 111.04 252.869 109.588 255.384C108.663 256.973 109.852 258.826 107.079 260.283C101.137 263.328 107.475 264.651 110.776 266.505C112.492 267.696 113.813 268.888 115.397 269.947Z" fill="#ABABAB"/>
<path d="M78.2954 277.626C86.2174 278.023 93.3471 278.42 100.609 278.817C101.269 278.685 101.929 278.553 102.457 278.288C97.4402 276.302 91.2346 274.713 87.9338 272.463C83.4447 269.55 73.0141 267.299 84.1049 262.666C86.2174 261.739 85.6892 260.547 87.2736 259.621C88.3299 258.959 90.8385 258.297 92.687 257.635L95.7237 257.9C93.7432 259.356 91.6307 260.812 89.6502 262.268C84.1049 266.24 89.3862 268.888 95.4597 271.668C102.325 274.846 109.587 278.023 117.377 281.465C98.1003 285.967 91.6307 285.702 84.765 280.671C83.4447 279.612 80.804 278.817 78.2954 277.626Z" fill="#ABABAB"/>
<path d="M211.517 243.469C219.307 246.116 233.038 247.308 231.454 251.545C228.813 251.809 226.04 252.074 222.079 252.471C224.72 248.5 212.573 246.911 206.5 244.66C204.255 243.866 202.143 243.071 199.238 242.012C208.084 241.35 215.478 240.821 222.872 240.291C225.644 241.35 228.417 242.41 231.982 243.733C224.588 243.733 218.647 243.601 211.517 243.469Z" fill="#ABABAB"/>
<path d="M151.574 266.77C157.383 266.637 163.325 266.637 172.171 266.505C162.268 263.592 154.61 261.474 147.349 259.223C142.331 257.767 143.256 252.471 149.857 250.088C149.989 251.942 149.989 253.531 150.385 255.119C150.517 255.781 150.781 256.708 152.234 257.238C159.1 259.753 166.625 262.268 174.415 264.916C176.132 265.578 178.508 265.975 182.601 267.035C176.396 268.623 170.454 270.212 163.325 272.065C158.703 270.477 154.214 269.02 149.725 267.564C150.385 267.299 150.914 267.035 151.574 266.77Z" fill="#ABABAB"/>
<path d="M153.026 247.705C149.197 247.043 146.028 246.381 141.671 245.587C140.747 248.632 139.823 251.544 138.767 254.722C138.503 255.516 136.39 256.443 136.918 257.237C137.71 258.561 140.087 259.753 141.539 261.209C142.331 261.871 142.596 262.798 143.124 263.592C141.011 263.327 138.767 263.195 137.05 262.93C129.92 261.606 128.6 259.753 131.241 256.973C134.542 253.663 135.07 250.485 136.918 247.44C138.635 244.66 139.559 244.528 150.782 244.66C155.535 244.528 155.799 244.925 153.026 247.705Z" fill="#ABABAB"/>
<path d="M228.945 259.753C227.756 257.899 226.7 256.443 225.38 254.457C231.189 255.251 235.546 255.781 242.412 256.708C239.375 252.736 236.867 249.426 234.226 245.984C237.659 245.322 242.148 245.719 243.204 247.44C244.921 250.221 246.505 253.001 247.825 256.046C248.09 256.575 246.109 257.37 244.261 257.767C239.903 258.561 234.886 259.091 228.945 259.753Z" fill="#ABABAB"/>
<path d="M181.809 261.209C153.158 258.297 158.571 252.074 162.4 246.646C163.192 246.514 163.985 246.514 164.777 246.381C165.833 247.308 168.606 248.367 167.814 249.426C164.777 253.001 166.625 255.914 177.188 258.297C179.432 258.826 179.961 260.018 181.809 261.209Z" fill="#ABABAB"/>
<path d="M46.8718 278.023C67.7329 276.964 69.0533 282.392 78.9557 285.702C49.5124 288.35 44.3631 287.026 46.8718 278.023Z" fill="#ABABAB"/>
<path d="M48.3243 264.387C48.3243 261.871 45.8157 259.621 49.2486 257.635C52.0212 256.046 61.6596 254.457 68.9214 253.133C62.8479 256.575 68.5253 260.68 48.3243 264.387Z" fill="#ABABAB"/>
<path d="M229.869 239.762C242.28 238.967 242.28 238.967 245.713 241.218C244.393 241.218 243.204 241.218 242.28 241.35C247.958 243.204 253.899 245.057 260.897 247.308C256.54 247.573 254.163 247.705 253.635 247.838C244.789 244.925 237.263 242.277 229.869 239.762Z" fill="#ABABAB"/>
<path d="M177.98 248.103C178.376 248.632 179.565 249.162 178.905 249.559C173.227 252.604 180.357 254.457 186.298 256.708C188.015 257.37 189.071 258.164 189.335 258.959C169.53 254.06 168.078 252.471 177.98 248.103Z" fill="#ABABAB"/>
<path d="M270.139 253.398C265.386 254.457 261.425 255.252 257.2 256.178C252.051 251.28 252.579 250.75 261.161 250.088C264.198 251.148 267.234 252.339 270.139 253.398Z" fill="#ABABAB"/>
<path d="M574.078 273.257C586.753 269.947 618.705 274.713 630.192 281.333C601.673 288.482 573.682 289.011 548.728 282.524C529.451 277.493 522.057 269.947 527.999 259.488C550.312 260.15 560.611 267.167 574.078 273.257Z" fill="#ABABAB"/>
<path d="M584.377 246.381C591.11 249.426 594.939 252.339 601.409 253.663C607.747 254.854 616.725 254.457 624.779 254.59C641.415 254.854 658.315 255.119 677.724 255.384C674.819 253.001 672.443 251.015 669.67 248.632C681.157 249.162 691.323 249.559 701.622 249.956C698.585 259.488 692.776 260.68 667.821 259.753C648.545 258.959 629.268 259.223 610.255 259.488C593.091 259.621 582.396 256.84 580.548 250.618C580.02 249.559 582.396 248.367 584.377 246.381Z" fill="#ABABAB"/>
<path d="M678.912 234.863C675.743 235.525 672.443 236.717 669.274 236.717C658.579 236.849 648.149 236.319 637.718 236.452C622.798 236.584 621.61 231.553 615.008 228.905C608.275 226.125 602.069 223.213 594.411 219.903C593.619 223.61 592.959 226.522 592.167 230.494C584.509 227.449 578.963 225.331 573.418 223.08C579.888 220.3 586.093 217.785 593.619 214.607C602.069 218.447 610.651 222.154 619.365 226.125C629.796 231.024 643.923 233.804 663.2 233.539C668.217 233.539 673.103 233.672 678.12 233.804C678.252 234.069 678.516 234.466 678.912 234.863Z" fill="#ABABAB"/>
<path d="M601.937 230.759C609.463 233.804 614.084 237.114 621.742 238.57C630.192 240.159 641.415 240.291 651.846 240.821C666.369 241.483 681.421 241.748 696.605 242.145C698.717 242.145 700.962 242.012 705.187 241.88C702.414 239.364 699.906 237.114 696.737 234.069C706.771 234.466 715.749 234.863 726.312 235.26C721.823 238.835 717.862 242.145 714.165 245.057C684.062 244.925 655.807 244.793 628.212 244.528C620.686 244.528 597.316 237.114 597.184 234.731C597.184 233.672 599.693 232.613 601.937 230.759Z" fill="#ABABAB"/>
<path d="M758 175.022C746.909 173.963 732.122 175.287 726.444 171.315C725.784 170.918 721.163 170.918 718.258 170.786C709.412 170.521 700.566 170.388 690.795 170.256C698.849 167.079 714.165 165.093 724.86 165.887C740.968 167.211 753.511 169.859 758 175.022Z" fill="#ABABAB"/>
<path d="M733.706 191.439C732.782 188.394 731.99 186.011 731.33 183.628C752.983 185.481 752.983 185.481 741.232 196.734C721.955 194.219 712.845 187.202 688.815 188.129C690.663 184.819 700.962 183.628 709.808 185.614C717.202 187.202 724.2 189.056 733.706 191.439Z" fill="#ABABAB"/>
<path d="M600.353 212.357C608.671 209.709 614.745 207.855 622.006 205.605C632.701 209.576 643.132 214.21 656.335 218.182C662.54 220.035 673.367 220.3 682.345 221.227C685.91 221.624 689.475 222.021 696.209 222.683C690.663 223.61 688.023 224.404 686.57 224.14C673.235 222.154 655.279 224.537 646.168 219.241C639.963 215.667 631.513 212.621 623.459 209.047C622.006 212.224 620.686 215.005 619.102 218.314C612.5 216.328 606.691 214.475 600.353 212.357Z" fill="#ABABAB"/>
<path d="M652.374 248.235C631.116 253.398 603.521 251.015 593.355 244.792C586.225 240.424 577.907 236.584 568.929 233.274L570.117 243.733C569.325 243.866 568.665 243.998 567.873 244.131C562.459 241.35 557.046 238.702 551.104 235.79C554.933 233.539 559.423 231.024 565.232 227.582C568.929 229.435 571.306 230.891 574.342 232.083C584.905 236.584 595.996 241.218 607.747 245.984C608.935 246.514 610.915 246.911 612.632 246.911C624.911 247.308 637.454 247.705 652.374 248.235Z" fill="#ABABAB"/>
<path d="M728.556 230.229C701.226 229.7 676.007 229.303 651.713 228.508C646.96 228.376 642.603 227.052 638.51 225.993C635.077 225.199 632.437 224.007 627.155 222.286C632.437 222.286 636.133 221.889 637.586 222.418C653.826 227.714 676.536 226.125 697.661 226.92C703.734 227.184 710.072 227.052 718.522 227.052C715.485 224.934 712.844 223.213 710.072 221.227C715.353 221.227 720.37 221.359 727.5 221.359C727.632 224.139 728.028 226.92 728.556 230.229Z" fill="#ABABAB"/>
<path d="M671.783 181.642C673.631 184.025 674.82 185.349 676.272 187.202C669.274 187.07 663.597 186.937 657.919 186.937C657.919 186.275 657.391 186.011 657.919 185.746C669.934 178.199 661.748 180.185 692.776 179.523C699.114 179.391 705.451 179.656 711.921 179.656C721.559 179.788 723.408 180.98 719.182 182.966C703.074 182.568 688.419 182.039 671.783 181.642Z" fill="#ABABAB"/>
<path d="M715.089 216.99C686.306 216.858 655.279 218.976 644.32 207.591C648.677 206.134 653.034 206.399 656.731 208.12C657.919 208.65 659.107 209.312 660.164 209.974C669.142 215.534 686.834 212.489 700.962 213.548C706.507 213.945 711.656 214.872 716.938 215.534C716.278 216.064 715.749 216.461 715.089 216.99Z" fill="#ABABAB"/>
<path d="M545.427 241.218C550.313 247.043 571.174 249.956 559.951 260.283C551.897 257.767 540.806 256.178 537.638 253.001C534.733 249.956 539.618 245.322 541.07 241.615C542.523 241.483 543.975 241.35 545.427 241.218Z" fill="#ABABAB"/>
<path d="M613.952 269.682C632.701 260.812 653.034 267.432 673.763 266.108C657.655 277.096 651.581 277.361 613.952 269.682Z" fill="#ABABAB"/>
<path d="M710.204 172.904C723.275 175.022 734.498 176.876 745.853 178.861C745.589 178.597 745.193 178.067 744.664 177.273C748.757 177.538 752.454 177.935 757.34 178.332C756.679 180.053 756.019 181.774 755.359 183.628C739.251 180.847 724.86 178.332 709.676 175.684C709.676 175.684 709.808 174.757 710.204 172.904Z" fill="#ABABAB"/>
<path d="M655.542 203.089C660.824 204.148 666.897 205.075 671.65 206.531C678.78 208.517 686.834 208.914 696.472 208.517C699.509 208.385 702.678 209.179 705.451 209.841C680.496 213.151 664.521 210.106 653.694 204.016L655.542 203.089Z" fill="#ABABAB"/>
<path d="M685.91 171.448C690.795 172.242 695.02 172.904 699.113 173.566C695.548 177.008 692.776 177.405 673.499 177.008C673.895 176.743 673.895 176.346 674.555 176.214C677.988 174.625 681.553 173.169 685.91 171.448Z" fill="#ABABAB"/>
<path d="M153.686 21.8444C146.82 31.1119 142.067 41.8356 136.258 51.8974C127.676 66.5929 116.717 79.6997 107.475 93.998C93.7433 115.181 91.6307 142.321 79.2197 164.166C66.8086 186.01 43.5708 203.221 21.9174 216.196C15.0517 220.3 6.99773 224.139 3.69691 231.553C1.84845 235.79 1.84845 240.423 1.98048 245.057C2.37658 256.178 3.69691 267.431 6.0735 278.288C6.73366 281.333 7.52586 284.51 9.11025 287.158C12.015 291.527 17.0322 293.91 22.0495 295.366C39.4778 300.529 58.0944 297.087 75.9188 293.513C87.2737 291.262 98.6285 289.011 110.115 286.893C121.074 284.775 132.165 282.524 142.727 278.685C154.346 274.448 165.305 268.226 176.528 263.062C190.391 256.708 205.047 252.074 219.438 246.911C253.899 234.466 287.039 218.844 320.179 203.221C333.383 196.999 346.586 190.776 359.789 184.554C367.051 181.112 375.237 176.611 376.557 168.667C378.142 159.929 370.484 152.515 366.391 144.572C362.166 136.496 361.506 126.964 357.413 118.888C352.66 109.62 343.945 103.001 338.136 94.2628C333.911 88.0404 331.402 81.0236 328.762 74.0069C325.065 63.9451 321.368 53.8833 317.671 43.8215C314.37 34.8189 310.937 25.6838 304.864 18.2699C298.79 10.8559 289.548 5.42786 280.042 6.48699C268.159 7.81091 257.464 18.7994 246.109 15.3572C243.204 14.5629 240.828 12.8418 238.187 11.3855C212.573 -2.91283 172.039 -3.17762 153.686 21.8444Z" fill="black"/>
<path d="M174.679 87.6434C174.943 90.9532 170.982 93.2038 167.813 92.5419C164.645 91.8799 162.136 89.4969 159.759 87.2462C158.043 85.5251 155.666 83.804 153.422 84.466C152.894 84.5984 152.366 84.9956 151.969 85.3927C148.008 88.8349 150.253 95.5869 153.818 99.4263C155.402 101.015 157.119 102.604 157.647 104.722C158.175 106.84 156.195 109.62 154.082 108.958C153.29 108.694 152.762 108.032 152.101 107.37C149.857 104.987 146.952 102.868 143.783 102.868C140.483 102.736 137.182 105.252 137.182 108.561C137.182 114.254 146.028 115.975 147.612 121.536C147.876 122.462 147.876 123.389 147.48 124.184C146.16 126.302 143.123 125.11 140.879 123.919C137.71 122.198 134.013 120.874 130.448 121.933C127.015 122.992 124.375 127.096 126.091 130.274C127.543 132.921 130.844 133.583 133.881 133.981C150.121 135.966 166.625 136.761 182.997 136.364C188.411 136.231 195.012 135.04 196.597 129.876C197.125 128.155 196.993 126.302 196.729 124.581C196.332 121.006 195.936 117.564 195.54 113.989C194.616 106.046 193.692 97.8376 189.203 91.3504C186.298 87.2462 182.205 84.2012 177.716 81.9505C174.943 80.4942 167.021 75.9929 163.852 77.052C156.591 79.3027 174.283 83.4068 174.679 87.6434Z" fill="#00FF8D"/>
<path d="M85.8211 249.559C84.6328 246.646 85.293 243.336 86.2172 240.291C90.8384 224.934 102.325 212.356 115.661 203.619C128.996 194.881 144.312 189.453 159.495 184.687C173.491 180.185 188.014 175.949 199.897 167.343C205.443 163.371 210.196 158.473 214.949 153.707C240.828 127.626 261.293 99.8234 282.814 69.9028C288.095 62.4889 300.242 52.5595 309.353 52.8243C312.521 52.9567 315.69 57.0608 318.463 58.7819C327.837 64.4748 334.703 76.5224 339.06 86.5842C342.097 93.601 343.153 99.2938 346.322 106.311C346.85 107.502 347.378 108.958 346.982 110.282C346.454 111.871 344.737 112.665 343.153 113.327C323.216 121.271 301.299 126.964 286.115 142.189C280.569 147.882 276.08 154.501 270.799 160.459C265.254 166.681 258.916 171.845 252.314 176.875C212.705 207.458 167.549 230.759 119.754 245.587C113.284 247.705 89.518 258.826 85.8211 249.559Z" fill="#1D1D1F"/>
<path d="M12.543 255.119C17.4282 249.559 25.4822 246.646 32.612 249.029C40.534 251.677 45.2871 259.753 52.0208 264.519C60.867 271.006 72.75 271.403 83.7087 270.079C94.5354 268.623 105.23 265.446 116.189 265.446C118.169 265.446 120.282 265.71 121.47 267.167C123.186 269.285 121.866 272.595 119.49 273.919C117.113 275.243 114.34 274.978 111.7 274.448C109.059 273.919 106.418 273.257 103.778 273.919C100.081 274.713 97.4401 277.89 94.4033 279.876C91.2345 281.995 86.3493 282.656 84.3688 279.611C83.8407 278.817 83.5766 278.023 82.7844 277.626C82.1243 277.361 81.4641 277.493 80.804 277.626C77.8992 278.552 75.7867 280.803 73.2781 282.392C70.7695 284.113 67.4686 285.172 64.828 283.848C64.0358 283.451 63.2436 282.789 62.4514 282.392C59.4146 281.068 56.2459 283.451 53.0771 284.378C47.0036 285.966 39.6097 281.995 34.8566 286.099C34.3284 286.628 33.8003 287.158 33.6683 287.952C33.2722 290.07 35.7808 291.394 37.8933 291.659C40.798 291.924 43.7027 291.527 46.3434 292.851C48.852 294.175 50.3044 298.146 47.7958 299.735C46.4754 300.529 44.759 300.265 43.1746 299.867C34.3284 297.484 25.3502 295.101 16.504 292.851C0.396004 288.217 3.43276 265.181 12.543 255.119Z" fill="#FFB800"/>
<path d="M269.743 113.063C269.743 117.961 273.968 121.668 277.797 124.713C279.513 126.037 281.626 127.493 283.738 127.096C284.926 126.831 285.983 126.037 287.039 125.243C294.169 119.55 301.166 113.724 307.9 107.502C317.803 98.2346 302.355 88.7024 292.848 90.0263C284.794 91.2179 269.743 104.722 269.743 113.063Z" fill="#00FF8D"/>
<path d="M209.932 56.3989C213.497 54.1483 216.269 50.8385 218.91 47.5287C224.852 40.1147 230.661 32.3036 236.074 24.4925C236.734 23.5657 237.395 22.2418 236.602 21.3151C236.206 20.7855 235.414 20.6531 234.754 20.5207C224.852 19.3292 214.289 18.2701 205.575 23.0362C206.631 24.8896 208.744 25.8164 210.46 27.2727C212.176 28.5966 213.365 31.2445 212.044 32.9656C210.856 34.5543 208.612 34.4219 206.763 33.8923C203.858 33.0979 201.086 31.774 198.049 31.774C195.012 31.6416 191.711 33.2303 190.919 36.143C194.22 37.5993 196.993 39.7175 199.369 42.4978C201.218 44.616 202.274 48.4554 199.897 49.9117C198.049 50.9708 195.672 49.5145 194.352 47.7934C193.032 46.0723 191.843 43.9541 189.863 43.1597C186.826 41.9682 183.657 44.4836 181.809 47.1315C180.621 48.8526 175.471 54.2806 176.131 56.3989C176.924 58.782 184.846 59.3115 186.958 59.5763C194.484 60.6355 202.934 60.9002 209.932 56.3989Z" fill="#00FF8D"/>
<path d="M208.876 113.724C210.064 119.947 212.573 125.904 216.138 130.935C218.778 134.775 222.739 138.349 227.361 138.085C230.397 137.82 233.038 135.834 235.283 133.716C237.659 131.2 239.772 128.42 241.752 125.64C248.09 117.034 254.427 108.296 260.633 99.6909C261.953 97.9698 263.141 96.1163 263.273 93.998C258.916 96.6459 254.691 99.1613 250.334 101.809C245.581 104.722 240.828 107.634 235.679 109.753C232.774 110.944 229.605 112.003 226.568 111.209C225.116 110.944 223.928 110.282 222.607 109.488C220.231 108.032 218.25 106.178 216.534 104.06C215.082 102.339 214.025 98.2346 211.517 99.5585C207.556 101.544 208.216 110.15 208.876 113.724Z" fill="black"/>
<path d="M218.118 105.913C220.759 108.561 224.324 109.885 227.889 110.679C230.133 111.209 232.378 111.474 234.622 111.209C236.999 110.944 239.244 110.017 241.356 108.958C250.07 104.722 257.992 98.7642 265.386 92.5417C266.046 91.8798 266.838 91.0854 266.706 90.1587C260.501 91.7474 254.559 94.1304 249.146 97.4402C245.581 99.5585 242.28 101.942 238.583 103.795C234.886 105.516 230.529 106.575 226.568 105.516C224.588 104.987 222.739 104.06 221.155 102.736C219.703 101.544 218.778 99.1613 217.326 98.2346C212.969 95.5868 216.798 104.457 218.118 105.913Z" fill="#00FF8D"/>
<path d="M224.72 104.325C227.492 105.913 230.925 105.913 234.094 105.119C237.131 104.325 240.036 102.736 242.808 101.147C251.39 96.3811 259.972 91.615 268.555 86.8489C257.464 90.6882 247.825 98.1022 236.735 101.412C233.962 102.206 230.793 102.868 228.153 101.677C225.908 100.75 224.456 98.8965 223.267 96.9107C222.475 95.5867 221.683 91.615 220.231 93.4685C217.59 96.6459 222.211 103.001 224.72 104.325Z" fill="#F4952F"/>
<path d="M223.003 95.1898C223.663 97.0432 225.248 98.4996 226.832 99.6911C227.888 100.485 229.077 101.412 230.397 101.677C231.585 101.942 232.774 101.677 233.83 101.28C238.055 100.088 242.148 98.2348 246.109 96.3813C253.899 92.8067 261.689 89.2321 269.479 85.6575C271.195 84.8632 273.308 83.6717 273.308 81.6858C261.689 85.128 251.522 92.1447 240.695 97.308C237.659 98.7643 234.226 100.088 231.189 98.8967C228.152 97.8376 226.832 95.0574 225.512 92.4095C223.399 88.5702 221.947 92.5419 223.003 95.1898Z" fill="#E7CD49"/>
<path d="M228.02 94.7926C229.209 97.0432 231.585 98.4996 234.094 98.7643C236.867 99.0291 239.507 97.7052 242.148 96.5137C253.371 90.9532 264.461 85.3928 275.684 79.8323C273.968 79.4351 272.119 80.0971 270.535 80.7591C264.593 83.1421 258.916 85.9223 253.371 89.2321C247.165 92.8067 240.563 97.0432 233.434 96.6461C232.509 96.6461 231.585 96.3813 230.925 95.9841C229.077 94.6602 229.209 90.8208 227.096 90.2913C226.7 91.6152 227.228 93.4687 228.02 94.7926Z" fill="#617F4C"/>
<path d="M230.529 91.0854C230.925 92.6741 231.717 94.3952 233.17 95.0572C234.754 95.7191 236.603 95.1896 238.319 94.5276C240.96 93.6009 243.6 92.5417 246.109 91.615C253.635 88.8347 261.029 85.9221 268.158 82.2151C271.459 80.4941 274.76 78.5082 278.061 76.5223C278.721 76.1251 279.381 75.7279 279.909 75.1984C280.569 74.5364 280.966 73.4773 280.833 72.5505C280.305 72.8153 279.777 72.9477 279.249 73.2125C270.139 76.9195 261.953 82.7447 252.975 86.9813C249.806 88.4376 246.505 89.7615 243.336 90.953C242.544 91.2178 241.62 91.615 240.828 91.7474C238.715 92.1445 236.47 91.615 234.754 90.1587C233.83 89.4967 233.17 88.57 232.774 87.5108C232.51 86.9813 232.245 84.7306 231.453 84.9954C230.793 85.1278 230.529 87.3784 230.397 87.908C230.265 88.8347 230.397 89.8939 230.529 91.0854Z" fill="#93F4CB"/>
<path d="M235.414 87.3784C235.942 88.9671 236.999 90.4235 238.583 90.8206C239.639 91.0854 240.828 90.8206 242.016 90.5559C249.806 88.57 256.671 83.8039 264.065 80.4941C269.743 77.9786 275.684 76.1251 280.966 72.9477C283.078 71.6238 285.323 69.7703 285.587 67.2549C272.251 72.2858 260.764 81.6856 247.429 86.3193C246.241 86.7165 245.053 87.1137 243.732 87.1137C242.016 87.1137 240.299 86.3193 239.111 85.1278C238.319 84.4658 236.735 80.7589 235.678 81.4208C234.622 82.3476 235.15 86.3193 235.414 87.3784Z" fill="#4F97ED"/>
<path d="M238.715 83.8039C238.847 84.3335 238.979 84.7307 239.111 85.1279C239.771 86.3194 241.224 86.7166 242.544 86.849C245.977 87.1137 249.146 85.6574 252.182 84.0687C262.877 78.7731 273.44 73.4774 284.134 68.3141C287.171 66.8578 290.34 65.0043 291.264 61.8269C276.608 69.5056 262.085 77.3167 247.297 84.7307C246.901 84.8631 246.505 85.1279 246.109 85.1279C245.845 85.1279 245.449 84.9955 245.185 84.9955C243.336 84.3335 241.752 83.142 240.696 81.5533C240.167 80.6265 239.903 79.6998 239.111 81.0237C238.715 81.8181 238.583 82.8772 238.715 83.8039Z" fill="#B56EDB"/>
<path d="M306.58 38.1287C308.56 40.909 310.673 43.5568 312.918 46.2046C314.634 48.1905 316.35 50.3088 318.331 52.0299C320.575 54.0158 323.084 55.6045 325.197 57.5903C324.008 54.8101 322.16 52.2947 320.443 49.7792C314.898 41.3061 311.597 31.3768 305.656 23.1685C304.335 21.4474 303.015 19.7263 301.431 18.1376C300.506 17.0784 298.79 14.2982 297.206 14.4306C296.678 18.0052 299.054 23.4332 300.374 26.743C302.091 30.7148 304.203 34.5542 306.58 38.1287Z" fill="#00FF8D"/>
<path d="M371.276 168.535C370.088 163.371 364.675 160.724 360.45 157.546C352.263 151.191 347.642 140.335 348.831 129.876C349.227 126.037 350.151 121.403 347.246 118.755C345.266 116.902 342.097 117.034 339.456 117.431C321.896 120.079 306.58 130.803 292.981 142.321C289.416 145.366 285.851 148.544 283.078 152.383C279.249 157.811 277.269 164.431 275.288 170.785C273.968 175.287 272.648 179.788 271.195 184.289C269.611 189.585 268.027 194.881 267.234 200.309C266.178 207.458 265.518 217.123 268.291 224.007C271.327 231.421 278.853 225.198 283.738 221.756C293.245 214.872 303.939 210.106 314.634 205.34C329.29 198.72 343.813 191.968 358.205 184.951C361.638 183.23 365.071 181.509 367.711 178.861C370.352 176.081 372.2 172.109 371.276 168.535ZM345.926 162.842C345.53 165.093 343.681 166.814 341.965 168.27C330.214 178.067 316.219 185.216 301.299 188.791C298.658 189.453 295.753 189.85 293.509 188.658C290.076 186.805 289.548 181.774 291.396 178.332C293.245 174.89 296.678 172.639 300.111 170.653C306.448 166.946 313.05 163.636 319.783 160.856C325.725 158.341 333.515 153.972 340.116 155.56C343.417 156.222 346.586 159.4 345.926 162.842Z" fill="#FFB800"/>
<path d="M6.07354 260.415C15.4479 248.235 36.177 247.308 46.6076 258.561C48.8521 260.944 50.7006 263.857 53.7374 265.181C56.7741 266.505 60.207 265.843 63.3758 265.049C69.8454 263.46 76.1829 261.474 82.3885 258.959C83.7088 258.429 85.0291 257.899 86.0854 256.84C87.4057 255.384 87.9338 253.266 88.3299 251.412C91.3667 237.643 97.1761 224.404 106.55 213.813C122.79 195.543 147.481 187.996 170.454 179.921C193.428 171.845 217.722 160.989 229.473 139.541C220.363 136.231 212.969 128.42 210.196 119.153C208.876 114.651 208.612 109.753 210.856 105.649C212.309 102.736 214.817 100.618 217.326 98.4995C224.192 92.5419 231.057 86.5843 237.923 80.6266C240.036 84.7308 245.317 86.3195 249.938 85.5251C254.427 84.7308 258.388 82.083 262.217 79.4351C257.464 80.6266 252.447 77.0521 250.466 72.5507C248.486 68.0494 248.75 62.8861 249.014 57.8552C249.542 48.4554 250.07 39.188 250.598 29.7882C250.598 28.729 250.73 27.6699 250.466 26.6108C249.278 21.7123 242.148 20.9179 238.187 23.6981C234.094 26.6108 232.246 31.5093 230.001 36.0106C221.419 52.8243 201.482 65.2692 183.526 59.1792C181.413 58.5172 179.433 57.5905 177.32 57.5905C175.208 57.7228 172.831 59.1792 172.831 61.4298C176.792 62.7537 179.961 66.1959 181.149 70.3001C177.32 71.8888 172.435 69.5057 171.379 65.534C167.682 68.0494 163.853 70.5649 160.156 73.2127C165.701 78.2436 171.247 83.1421 176.792 88.173C182.073 92.9391 187.487 97.8376 191.051 103.928C199.105 117.696 196.861 135.04 194.088 150.794C193.692 153.442 193.032 156.222 191.315 158.341C189.863 159.929 187.883 160.724 186.034 161.518C178.112 164.828 170.322 168.005 162.4 171.183C135.202 182.039 107.607 191.968 79.6158 200.574C65.2242 205.075 50.8326 209.179 36.309 213.019C26.8027 215.534 16.108 216.328 9.77046 224.669C1.98053 234.731 -0.924196 248.897 6.07354 260.415Z" fill="white"/>
<path d="M231.057 243.998C231.585 244.131 232.114 243.866 232.642 243.733C236.207 242.277 239.639 240.953 243.204 239.497C243.6 239.364 244.129 239.1 244.393 238.57C244.657 237.776 243.864 236.717 244.393 236.055C244.525 235.922 244.789 235.79 245.053 235.657C247.693 234.598 250.334 233.539 253.107 232.48C253.107 233.142 253.635 233.672 254.295 233.672C254.955 233.804 255.483 233.539 256.144 233.274C259.18 232.083 262.085 230.891 265.122 229.7C265.518 229.567 266.046 229.303 266.31 229.038C266.97 228.376 267.234 227.714 266.706 227.052L267.102 226.787C274.628 223.345 282.154 219.77 289.548 216.063C291.792 216.461 294.301 215.666 295.753 213.813C296.017 213.548 296.149 213.151 296.281 212.754C298.394 211.695 300.507 210.635 302.619 209.576C305.788 210.106 309.221 209.311 311.597 207.061C311.333 206.531 311.201 205.869 311.333 205.207C313.182 204.281 315.03 203.354 316.879 202.427C317.539 202.824 318.067 203.486 318.331 204.281C320.443 203.354 322.688 202.559 324.801 201.633C324.008 200.574 324.272 199.25 325.197 198.191C326.385 197.661 327.441 196.999 328.629 196.469C330.742 196.337 332.723 196.867 334.835 196.867C339.324 196.734 343.549 193.027 344.077 188.394C345.794 187.732 347.51 186.937 349.227 186.275C357.677 186.672 366.127 181.906 370.22 174.36C371.672 173.566 373.125 172.639 374.049 171.447C377.614 166.946 374.577 160.459 371.672 155.56C369.692 152.251 367.843 148.941 365.731 145.763C363.882 142.851 363.09 139.541 361.902 136.231C359.393 128.685 356.885 121.138 354.376 113.592C353.848 112.003 353.188 110.15 351.735 109.223C350.943 108.561 349.887 108.296 349.095 107.767C347.906 106.973 347.378 105.516 346.718 104.192C344.209 98.3671 341.965 92.277 339.06 86.5842C337.74 84.0687 335.891 81.9505 334.439 79.5674C332.987 77.052 332.194 73.8746 331.138 71.0943C326.253 58.7819 320.179 47.1314 313.974 35.4809C308.825 25.8163 302.223 15.4897 292.585 9.66451C279.777 1.85339 267.762 12.7095 255.615 15.0926C253.239 15.6221 250.73 15.8869 248.354 15.4897C245.977 15.225 243.864 14.2982 241.62 13.3715C233.038 9.66451 225.38 3.97166 216.138 2.38295C201.614 -0.132492 186.166 -0.66206 172.567 4.8984C153.026 12.9743 150.781 30.9796 139.691 46.3371C125.563 66.0635 111.964 86.3194 101.665 108.296C98.2323 115.71 95.0635 123.389 92.0268 130.935C84.3689 149.47 75.6547 169.064 61.5272 183.76C58.4905 186.937 54.7936 189.32 51.0966 191.836C37.3652 200.971 24.294 210.9 11.6188 221.624C9.11022 223.742 6.73363 225.86 4.88517 228.376C-0.660203 236.187 0.396059 245.852 1.32029 254.854C1.98045 261.606 4.09298 268.358 6.6016 274.448C9.37429 281.068 10.8266 287.952 17.1642 292.189C21.6533 295.101 26.9346 296.425 32.216 297.22C35.6488 297.749 39.2137 298.014 42.6465 298.279C44.0989 298.411 45.9474 298.808 47.3997 298.544C48.8521 298.146 49.7763 296.69 50.8326 295.763C52.1529 294.439 53.7373 293.513 55.5857 293.116C55.8498 293.645 55.9818 294.175 56.2459 294.704C58.8866 294.307 61.6593 294.042 64.4319 294.175C65.0921 294.175 66.0163 294.175 66.4124 293.645C66.8085 293.116 66.6765 292.189 67.2046 291.792C67.4687 291.527 67.8648 291.527 68.2609 291.527C72.3539 291.792 76.4469 291.262 80.5399 290.865C84.633 290.468 89.6502 290.335 93.4792 288.879C93.7432 288.879 94.0073 288.747 94.2714 288.614C95.1956 288.085 95.1956 286.893 95.1956 285.834C96.78 285.172 98.4964 284.775 100.213 284.775C100.609 285.437 100.873 286.099 101.269 286.761C101.401 286.893 101.533 287.158 101.665 287.29C101.929 287.423 102.193 287.29 102.457 287.29C106.022 286.231 109.587 285.966 112.888 284.642C114.076 284.113 115.793 283.583 116.717 282.657C117.245 282.127 117.641 281.465 117.509 280.671C119.094 280.406 120.81 280.009 122.394 279.744C122.658 279.744 122.79 279.612 123.054 279.744C123.319 279.876 123.451 280.141 123.583 280.406C123.979 281.068 124.771 281.2 125.563 281.2C126.355 281.068 127.015 280.803 127.676 280.538C133.089 278.155 138.766 276.567 144.444 274.978C145.236 274.713 146.16 274.448 146.82 273.919C147.481 273.257 147.877 272.33 147.349 271.536C148.801 271.138 150.253 270.609 151.838 270.212C151.97 270.212 152.234 270.079 152.366 270.212C152.63 270.212 152.762 270.476 152.762 270.609C153.158 271.271 153.554 271.933 154.082 272.595C154.346 272.992 160.156 270.477 160.816 270.212C165.965 268.093 171.114 266.108 176.264 264.122C177.056 263.857 178.244 263.195 179.168 263.327C179.829 263.327 180.357 263.857 181.017 263.725C186.694 261.871 192.108 259.356 197.653 257.237C199.105 256.708 214.421 251.147 214.421 250.75C214.289 250.485 214.289 250.088 214.157 249.823C219.57 247.573 224.852 245.454 230.265 243.071L231.057 243.998Z" stroke="#FFB800" stroke-width="0.907" stroke-miterlimit="10" stroke-linejoin="round"/>
<path d="M142.859 41.5708C154.61 37.0695 167.285 35.0836 179.829 36.0104C186.826 36.5399 194.484 38.261 198.841 43.6891C199.633 44.6159 200.162 45.5426 200.426 46.7341C200.558 47.9256 200.162 49.1172 199.237 49.7791C197.521 50.8383 195.54 49.5143 193.824 48.4552C185.506 42.8948 174.679 42.7624 164.777 43.4243C162.4 43.5567 159.892 43.6891 157.515 43.9539C149.725 44.6159 141.143 45.9398 135.994 51.765" stroke="#FFB800" stroke-width="0.907" stroke-miterlimit="10" stroke-linejoin="round"/>
<path d="M163.324 36.4076C174.415 26.0811 190.127 19.8587 204.915 22.9037C207.555 23.4332 210.46 24.4924 211.912 26.8754C213.365 29.2585 212.44 33.0978 209.8 33.495C208.743 33.6274 207.687 33.3626 206.763 33.0978C203.066 32.0387 199.237 31.6415 195.408 31.3768C191.975 30.9796 188.542 30.7148 185.11 31.2444C181.677 31.7739 178.244 33.0978 176.131 35.7457" stroke="#FFB800" stroke-width="0.907" stroke-miterlimit="10" stroke-linejoin="round"/>
<path d="M158.439 43.5569C149.065 47.5286 140.219 53.2215 132.825 60.2383C130.976 61.9594 128.996 63.9452 126.619 64.872" stroke="#FFB800" stroke-width="0.907" stroke-miterlimit="10" stroke-linejoin="round"/>
<path d="M130.976 75.9927C129.92 73.7421 130.184 71.0942 131.109 68.8436C132.033 66.5929 133.485 64.4747 134.937 62.6212C136.126 61.0325 137.446 59.5762 138.898 58.2522C141.275 56.2664 144.18 54.9424 147.084 53.8833C147.349 54.81 146.952 55.7368 146.424 56.5311C143.124 61.9592 140.747 68.1816 141.275 74.5364" stroke="#FFB800" stroke-width="0.907" stroke-miterlimit="10" stroke-linejoin="round"/>
<path d="M138.37 74.0069C145.896 73.3449 153.29 75.3308 160.552 77.5815C165.569 79.1702 171.114 81.2885 173.623 86.0546C174.283 87.3785 174.679 88.9672 174.019 90.2911C173.227 91.8798 171.114 92.277 169.398 92.0122C167.681 91.615 166.229 90.5559 164.777 89.6291C158.571 85.6574 151.309 83.8039 144.048 83.4067C136.786 83.0095 129.392 83.8039 122.262 85.1278C122.922 84.9954 124.903 81.1561 125.431 80.3617C126.223 79.1702 127.147 77.5815 128.336 76.7871C130.844 74.9336 135.201 74.2717 138.37 74.0069Z" stroke="#FFB800" stroke-width="0.907" stroke-miterlimit="10" stroke-linejoin="round"/>
<path d="M141.539 66.0633C151.706 59.9733 165.701 61.4296 174.547 69.2407C175.736 70.2999 176.924 71.4914 178.508 71.2266C180.357 70.9618 181.413 68.7112 180.885 66.8577C180.357 65.0042 178.904 63.6803 177.452 62.3564C172.831 58.2522 167.417 54.5453 161.212 54.1481C155.931 53.7509 150.781 56.0016 145.632 56.9283" stroke="#FFB800" stroke-width="0.907" stroke-miterlimit="10" stroke-linejoin="round"/>
<path d="M130.052 73.345C124.771 75.3308 119.886 78.1111 115.529 81.818" stroke="#FFB800" stroke-width="0.907" stroke-miterlimit="10" stroke-linejoin="round"/>
<path d="M133.089 64.4749C129.656 65.6664 126.487 67.3875 123.583 69.5057" stroke="#FFB800" stroke-width="0.907" stroke-miterlimit="10" stroke-linejoin="round"/>
<path d="M121.866 85.3926C121.074 85.525 120.282 85.9221 119.49 86.3193C116.057 88.57 113.02 91.615 109.059 93.0713" stroke="#FFB800" stroke-width="0.907" stroke-miterlimit="10" stroke-linejoin="round"/>
<path d="M102.722 106.178C114.076 97.5727 126.091 89.894 138.635 83.2744" stroke="#FFB800" stroke-width="0.907" stroke-miterlimit="10" stroke-linejoin="round"/>
<path d="M120.942 95.8516C122.262 95.4544 123.714 95.322 125.035 95.1896C127.94 95.0572 130.844 94.9248 133.749 94.7925C139.822 94.6601 146.16 94.7924 151.573 97.5727C154.478 99.1614 157.119 101.412 158.835 104.325C159.231 104.987 159.759 105.913 159.627 106.708C159.495 108.429 157.383 109.356 155.798 109.091C154.082 108.826 152.762 107.767 151.177 106.973C148.141 105.384 144.708 104.987 141.275 104.457C136.522 103.795 131.636 103.266 126.883 102.868C122.13 102.471 117.245 103.133 112.492 102.868C113.02 100.485 118.565 96.6459 120.942 95.8516Z" stroke="#FFB800" stroke-width="0.907" stroke-miterlimit="10" stroke-linejoin="round"/>
<path d="M113.284 103.398C111.172 103.663 109.587 105.251 107.871 106.575C105.626 108.429 103.118 110.018 100.477 111.209C100.213 111.341 99.9488 111.739 100.213 111.871" stroke="#FFB800" stroke-width="0.907" stroke-miterlimit="10" stroke-linejoin="round"/>
<path d="M96.7798 121.536C101.665 118.093 106.55 114.784 111.435 111.341C116.057 108.164 120.678 104.987 125.827 103.001" stroke="#FFB800" stroke-width="0.907" stroke-miterlimit="10" stroke-linejoin="round"/>
<path d="M109.587 113.592C110.776 112.93 112.228 112.665 113.548 112.401C121.47 110.679 129.92 108.958 137.314 112.003C141.275 113.592 144.708 116.505 147.877 119.417C149.197 120.609 150.517 122.595 149.461 124.051C148.405 125.243 146.556 124.713 145.104 124.051C130.845 117.961 116.453 118.491 102.061 123.257C101.797 121.271 103.382 120.476 104.438 119.153C106.154 117.034 107.211 114.916 109.587 113.592Z" stroke="#FFB800" stroke-width="0.907" stroke-miterlimit="10" stroke-linejoin="round"/>
<path d="M102.061 123.521C98.7604 125.375 95.5916 127.493 92.4229 129.612" stroke="#FFB800" stroke-width="0.907" stroke-miterlimit="10" stroke-linejoin="round"/>
<path d="M89.3862 138.482C98.2324 131.2 107.871 124.845 118.037 119.814" stroke="#FFB800" stroke-width="0.907" stroke-miterlimit="10" stroke-linejoin="round"/>
<path d="M82.9165 149.867C90.7065 146.558 98.4964 143.248 106.286 139.938C109.983 138.349 113.944 136.761 117.905 137.29C121.998 137.82 125.563 140.468 128.732 142.983C129.392 143.513 130.184 144.439 129.92 145.234C129.788 145.763 129.26 146.028 128.864 146.16C125.959 147.484 122.658 145.763 119.49 145.234C115.925 144.704 112.36 145.763 108.927 146.69C98.4964 149.735 87.9338 152.912 78.9556 159.002" stroke="#FFB800" stroke-width="0.907" stroke-miterlimit="10" stroke-linejoin="round"/>
<path d="M87.8018 141.527C91.6307 140.997 95.5917 141.527 99.1566 143.115" stroke="#FFB800" stroke-width="0.907" stroke-miterlimit="10" stroke-linejoin="round"/>
<path d="M95.1958 134.775C96.2521 134.245 97.5724 134.378 98.7607 134.642C101.665 135.172 104.702 135.701 107.607 136.231C109.455 136.628 111.436 136.893 113.152 137.82" stroke="#FFB800" stroke-width="0.907" stroke-miterlimit="10" stroke-linejoin="round"/>
<path d="M77.8994 161.253C85.6893 156.884 94.0074 153.574 102.722 151.589C107.079 150.529 112.096 149.47 114.208 145.499" stroke="#FFB800" stroke-width="0.907" stroke-miterlimit="10" stroke-linejoin="round"/>
<path d="M120.018 137.687C121.734 135.304 123.582 132.921 125.299 130.538" stroke="#FFB800" stroke-width="0.907" stroke-miterlimit="10" stroke-linejoin="round"/>
<path d="M130.316 119.814C128.336 121.8 126.619 124.183 125.035 126.566C124.771 127.096 124.375 127.493 124.375 128.155C124.243 129.347 125.035 130.406 126.091 131.068C129.92 133.848 184.714 135.172 194.484 134.907" stroke="#FFB800" stroke-width="0.907" stroke-miterlimit="10" stroke-linejoin="round"/>
<path d="M136.125 110.812C137.182 108.694 138.37 106.708 139.426 104.59" stroke="#FFB800" stroke-width="0.907" stroke-miterlimit="10" stroke-linejoin="round"/>
<path d="M145.632 95.5868C148.405 92.0122 151.045 88.4376 153.554 84.863" stroke="#FFB800" stroke-width="0.907" stroke-miterlimit="10" stroke-linejoin="round"/>
<path d="M158.043 76.1252C158.043 75.9928 157.779 76.2576 157.911 76.2576C158.043 76.2576 158.175 76.1252 158.307 75.9928C158.571 75.5956 158.703 75.3309 158.967 74.9337C157.779 74.4041 156.723 73.7422 155.667 72.9478C157.383 69.7704 159.231 66.593 160.948 63.2832" stroke="#FFB800" stroke-width="0.907" stroke-miterlimit="10" stroke-linejoin="round"/>
<path d="M166.097 55.0748C168.738 51.5003 170.982 47.6609 173.095 43.8215" stroke="#FFB800" stroke-width="0.907" stroke-miterlimit="10" stroke-linejoin="round"/>
<path d="M178.508 35.8781C179.961 34.2894 181.545 32.8331 183.394 31.7739" stroke="#FFB800" stroke-width="0.907" stroke-miterlimit="10" stroke-linejoin="round"/>
<path d="M191.58 22.9037C196.729 17.8729 203.463 14.8278 210.46 13.2391C217.458 11.6504 224.72 11.518 231.85 11.7828C234.49 11.9152 237.131 12.0476 239.639 12.842C242.94 13.9011 245.845 16.0194 248.618 18.1376C252.711 21.315 256.672 24.6248 260.369 28.1994C265.518 33.0979 270.535 38.2612 276.081 42.7625C278.061 44.3512 280.174 45.8075 282.55 46.6019C284.927 47.3962 287.831 47.1315 289.812 45.6751C292.453 43.6893 293.113 39.9823 293.509 36.6725C294.037 31.774 294.697 26.7431 294.169 21.8446C293.773 16.9461 292.189 11.9152 289.02 8.20825" stroke="#FFB800" stroke-width="0.907" stroke-miterlimit="10" stroke-linejoin="round"/>
<path d="M272.516 10.1941C278.193 19.9911 279.381 32.3035 275.948 43.0273" stroke="#FFB800" stroke-width="0.907" stroke-miterlimit="10" stroke-linejoin="round"/>
<path d="M296.281 11.9153C299.054 25.2869 305.524 37.7317 314.634 47.7935C319.123 52.692 324.404 57.1933 328.101 62.7538" stroke="#FFB800" stroke-width="0.907" stroke-miterlimit="10" stroke-linejoin="round"/>
<path d="M157.911 74.8014C157.779 74.9338 157.911 75.1986 158.043 75.3309C158.571 75.7281 159.496 75.7281 160.024 75.4633C160.684 75.1986 161.212 74.669 161.608 74.1394C163.985 71.624 166.361 68.9761 168.738 66.4607" stroke="#FFB800" stroke-width="0.907" stroke-miterlimit="10" stroke-linejoin="round"/>
<path d="M172.963 58.9142C175.736 53.7509 179.036 48.8524 182.733 44.3511" stroke="#FFB800" stroke-width="0.907" stroke-miterlimit="10" stroke-linejoin="round"/>
<path d="M188.543 37.5993C190.523 35.481 192.636 33.3627 194.616 31.1121" stroke="#FFB800" stroke-width="0.907" stroke-miterlimit="10" stroke-linejoin="round"/>
<path d="M203.727 22.7713C209.932 19.7263 216.93 18.6671 223.796 18.9319C230.661 19.1967 237.527 20.7854 244.129 22.5065C246.901 23.3008 249.674 24.0952 252.315 25.1543C258.124 27.6698 263.141 31.9063 268.027 36.1428" stroke="#FFB800" stroke-width="0.907" stroke-miterlimit="10" stroke-linejoin="round"/>
<path d="M173.623 57.7227C179.036 57.8551 184.45 58.7819 189.599 60.3706C191.712 61.0325 193.824 61.8269 196.069 62.0917C202.274 62.7536 208.084 58.7819 212.705 54.5453C222.871 45.0131 230.001 32.7007 237.131 20.7854" stroke="#FFB800" stroke-width="0.907" stroke-miterlimit="10" stroke-linejoin="round"/>
<path d="M178.904 65.0042C187.09 63.9451 195.408 67.652 203.462 66.3281C210.592 65.1366 216.534 60.2381 221.419 54.9424C230.133 45.2778 236.603 33.7597 242.94 22.374" stroke="#FFB800" stroke-width="0.907" stroke-miterlimit="10" stroke-linejoin="round"/>
<path d="M159.231 75.5956C161.74 75.1985 164.248 75.9928 166.625 76.7872C174.547 79.6998 181.677 84.4659 187.354 90.6883C189.203 92.6742 190.919 94.9248 191.843 97.4403C192.371 98.7642 192.636 100.088 192.768 101.544C195.144 115.578 195.672 129.744 196.2 143.91C196.332 148.676 196.332 153.839 193.296 157.414C191.183 159.797 188.146 160.988 185.242 162.048C179.96 164.033 174.547 166.019 169.266 168.005C152.498 175.287 40.5338 215.401 13.5991 220.697" stroke="#FFB800" stroke-width="0.907" stroke-miterlimit="10" stroke-linejoin="round"/>
<path d="M165.305 70.5647C174.811 75.3308 186.43 77.8463 193.428 85.7898C200.558 93.9981 203.33 139.673 201.614 150.397C200.822 155.428 199.766 160.724 196.333 164.431C193.296 167.74 188.807 169.197 184.45 170.653C141.143 184.554 44.8911 218.844 7.52588 225.331" stroke="#FFB800" stroke-width="0.907" stroke-miterlimit="10" stroke-linejoin="round"/>
<path d="M86.2171 257.502C82.5202 238.835 92.5547 219.373 107.21 207.325C121.866 195.145 140.483 189.055 158.835 184.157C169.926 181.244 181.149 178.729 191.315 173.83C200.69 169.197 208.876 162.709 216.269 155.428C248.485 123.786 266.574 77.8462 304.731 53.6185C305.656 53.089 306.712 52.427 307.768 52.427C309.088 52.427 310.145 53.3537 311.201 54.1481C317.406 59.3114 323.612 64.4747 329.95 69.6379" stroke="#FFB800" stroke-width="0.907" stroke-miterlimit="10" stroke-linejoin="round"/>
<path d="M283.606 97.1755C280.042 101.015 276.609 104.722 273.044 108.561C271.327 110.415 269.479 112.533 269.875 115.048C270.139 116.769 271.195 118.093 272.384 119.285C274.628 121.668 277.137 123.919 279.909 125.905C280.834 126.566 281.758 127.228 282.814 127.361C284.663 127.626 286.247 126.434 287.699 125.375C294.301 120.476 300.771 115.71 307.372 110.812C310.409 108.561 313.578 106.178 315.162 102.736C315.822 101.28 316.219 99.4261 315.426 97.8374C314.634 96.3811 313.05 95.5868 311.597 94.9248C306.976 92.8065 300.507 88.57 295.489 88.1728C291 87.7756 286.379 94.1305 283.606 97.1755Z" stroke="#FFB800" stroke-width="0.907" stroke-miterlimit="10" stroke-linejoin="round"/>
<path d="M233.566 136.363C226.7 136.231 219.174 134.775 214.553 129.611C212.441 127.228 211.12 124.051 210.064 121.006C209.404 118.888 208.876 116.769 208.612 114.519C207.952 108.561 209.8 102.339 213.497 97.5726C214.289 104.325 221.287 109.62 228.021 110.282C234.754 110.812 241.356 108.032 247.033 104.589C252.843 101.147 258.124 96.9107 264.33 93.998" stroke="#FFB800" stroke-width="0.907" stroke-miterlimit="10" stroke-linejoin="round"/>
<path d="M214.025 101.147C214.949 99.1615 216.005 97.0433 216.93 95.0574C218.778 101.28 225.908 104.722 232.377 104.457C238.847 104.06 244.789 100.883 250.334 97.4404C255.879 93.9982 261.425 90.2913 267.762 88.835" stroke="#FFB800" stroke-width="0.907" stroke-miterlimit="10" stroke-linejoin="round"/>
<path d="M218.25 98.6318C218.91 96.7783 219.702 94.9248 220.759 93.2037C223.399 97.0431 226.568 101.015 231.189 101.942C235.282 102.736 239.375 100.75 243.072 98.8966C252.314 94.2629 261.557 89.4968 270.799 84.863" stroke="#FFB800" stroke-width="0.907" stroke-miterlimit="10" stroke-linejoin="round"/>
<path d="M222.211 96.5136C222.475 94.1306 223.267 91.8799 224.588 89.894C225.908 93.4686 227.624 97.4404 231.057 99.0291C234.886 100.618 239.243 98.7643 242.94 96.7784C253.503 91.3503 263.933 85.7899 274.496 80.3618" stroke="#FFB800" stroke-width="0.907" stroke-miterlimit="10" stroke-linejoin="round"/>
<path d="M226.304 94.263C226.172 91.7475 226.964 89.2321 228.417 87.2462C229.209 91.0856 230.529 95.4545 234.226 96.5136C236.603 97.1756 239.111 96.1164 241.356 94.9249C252.975 89.2321 264.462 83.6716 276.081 77.9788" stroke="#FFB800" stroke-width="0.907" stroke-miterlimit="10" stroke-linejoin="round"/>
<path d="M229.341 91.8799C229.605 89.0997 230.397 86.3194 231.849 83.804C232.774 86.3194 233.83 88.9673 236.075 90.4236C239.639 92.6742 244.261 90.8207 247.957 88.9673C259.048 83.4068 270.271 77.8463 281.362 72.2859" stroke="#FFB800" stroke-width="0.907" stroke-miterlimit="10" stroke-linejoin="round"/>
<path d="M234.226 88.1729C234.49 85.3927 235.15 82.7449 236.471 80.3618C237.263 82.4801 238.451 84.466 239.771 86.3195C240.3 86.9814 240.828 87.6434 241.62 88.0406C243.204 88.7025 244.921 88.0406 246.505 87.3786C260.369 80.8914 274.1 73.8746 287.567 66.4607" stroke="#FFB800" stroke-width="0.907" stroke-miterlimit="10" stroke-linejoin="round"/>
<path d="M237.791 85.2604C237.527 82.8773 238.451 80.4942 240.168 78.9055C240.564 81.6858 241.752 85.2603 244.525 85.3927C245.449 85.3927 246.373 84.9956 247.298 84.466C262.481 76.6549 277.797 68.9762 292.981 61.165" stroke="#FFB800" stroke-width="0.907" stroke-miterlimit="10" stroke-linejoin="round"/>
<path d="M6.46955 276.434C9.24223 273.389 6.33751 268.623 5.94142 264.386C5.41328 259.488 8.7141 254.854 12.8071 252.206C17.0322 249.559 21.9174 248.632 26.8026 247.705C29.1792 247.308 31.6878 246.778 34.0644 247.573C38.5535 249.029 40.534 254.192 43.3067 258.164C47.7958 264.784 55.7178 268.358 63.5077 269.682C71.4297 270.874 79.3516 269.947 87.2736 268.888C114.208 265.181 141.011 260.15 167.549 253.928C171.907 252.868 176.66 251.544 179.036 247.837C180.093 246.249 180.753 244.131 182.469 243.336C185.506 241.747 188.807 245.19 192.24 245.719C193.956 245.984 195.672 245.454 197.389 244.925C209.668 240.953 221.947 236.981 234.358 233.01C238.187 231.818 242.544 230.097 243.864 226.258C244.393 224.801 244.393 223.345 244.921 222.021C245.581 220.697 247.165 219.506 248.486 220.168C249.674 220.697 249.938 222.286 250.73 223.345C252.314 225.066 255.087 224.272 257.2 223.345C261.161 221.624 265.122 219.903 269.083 218.049" stroke="#FFB800" stroke-width="0.907" stroke-miterlimit="10" stroke-linejoin="round"/>
<path d="M268.29 225.86C269.479 222.418 269.215 218.446 267.366 215.269C266.97 214.475 266.442 213.68 266.178 212.886C265.914 212.092 266.046 211.165 266.178 210.238C267.366 201.5 269.743 192.762 270.403 184.025C270.799 178.861 270.535 173.698 272.119 168.799C273.704 163.769 277.137 159.532 280.569 155.56C285.851 149.47 291.396 143.645 296.941 137.952C301.167 133.583 305.392 129.082 310.541 125.905C314.238 123.521 318.331 121.8 322.292 120.344C325.989 119.02 329.686 117.696 333.383 116.637C336.023 115.843 338.796 115.181 341.569 115.578C345.926 116.24 349.491 119.682 351.207 123.786C352.923 127.89 352.923 132.392 352.263 136.761C351.867 139.408 351.207 142.189 351.735 144.837C352.791 150.265 358.205 153.574 362.562 156.884C367.183 160.459 371.144 164.96 374.313 169.859" stroke="#FFB800" stroke-width="0.907" stroke-miterlimit="10" stroke-linejoin="round"/>
<path d="M301.167 170.521C297.734 172.109 294.169 173.963 291.924 177.14C289.68 180.318 289.548 185.216 292.585 187.599C296.017 190.379 301.035 188.526 304.996 186.54C315.822 181.244 326.649 175.949 337.608 170.653C340.644 169.197 343.945 167.476 345.266 164.298C346.718 160.856 345.134 156.62 342.493 154.104C338.928 150.794 334.967 154.766 331.27 156.487C321.368 161.65 311.069 165.887 301.167 170.521Z" stroke="#FFB800" stroke-width="0.907" stroke-miterlimit="10" stroke-linejoin="round"/>
<path d="M342.625 115.048C342.361 115.181 342.097 115.313 341.833 115.181C342.229 113.46 342.625 111.739 343.417 110.282C344.342 108.826 345.794 107.502 347.51 107.37C347.774 107.37 348.171 107.502 348.171 107.767" stroke="#FFB800" stroke-width="0.907" stroke-miterlimit="10" stroke-linejoin="round"/>
<path d="M51.0967 265.843C91.1026 254.722 131.241 243.204 169.53 227.052C207.82 210.9 244.525 189.982 275.024 161.65" stroke="#FFB800" stroke-width="0.907" stroke-miterlimit="10" stroke-linejoin="round"/>
<path d="M5.54541 264.651C16.7682 261.077 27.8589 257.502 39.0817 253.927" stroke="#FFB800" stroke-width="0.907" stroke-miterlimit="10" stroke-linejoin="round"/>
<path d="M7.39355 273.521C20.0687 269.417 32.6118 264.916 45.0229 260.282" stroke="#FFB800" stroke-width="0.907" stroke-miterlimit="10" stroke-linejoin="round"/>
<path d="M8.4502 281.2C23.3699 278.287 37.8935 273.257 51.3608 266.107" stroke="#FFB800" stroke-width="0.907" stroke-miterlimit="10" stroke-linejoin="round"/>
<path d="M12.0151 287.423C29.0474 284.245 45.6835 278.155 60.7352 269.55" stroke="#FFB800" stroke-width="0.907" stroke-miterlimit="10" stroke-linejoin="round"/>
<path d="M50.7004 295.763C51.7567 294.837 51.3606 292.851 50.3043 291.924C49.248 290.997 47.7957 290.6 46.3433 290.335C41.5901 289.409 36.969 288.482 32.2158 287.555C34.8565 284.113 39.8737 282.657 43.9667 284.245C44.7589 284.51 45.4191 284.907 46.2113 285.04C46.8715 285.04 47.5316 284.907 48.1918 284.775C52.0207 283.716 55.7176 282.657 59.5466 281.597C60.4708 281.333 61.5271 281.068 62.5834 281.333C63.5076 281.597 64.2998 282.657 63.9037 283.583C69.9772 284.51 75.2585 279.479 81.2 277.89C82.1242 277.626 83.1805 277.493 83.9727 277.89C84.7648 278.288 85.293 279.479 84.6328 280.274C89.7821 280.141 95.1954 279.876 99.4205 276.964C100.477 276.169 101.401 275.375 102.457 274.581C103.513 273.919 104.702 273.389 106.022 272.992C106.946 272.727 108.003 272.462 109.059 272.86C109.983 273.257 110.775 274.316 110.379 275.243C115.661 274.184 120.942 272.86 126.091 271.271C125.299 268.755 125.167 265.975 125.695 263.327" stroke="#FFB800" stroke-width="0.907" stroke-miterlimit="10" stroke-linejoin="round"/>
<path d="M43.3066 283.848C51.7567 280.406 59.8107 276.037 67.4686 271.006" stroke="#FFB800" stroke-width="0.907" stroke-miterlimit="10" stroke-linejoin="round"/>
<path d="M63.3755 282.921C68.9209 279.479 74.2022 275.243 78.8233 270.609" stroke="#FFB800" stroke-width="0.907" stroke-miterlimit="10" stroke-linejoin="round"/>
<path d="M83.1807 278.685C86.8776 275.905 90.0464 272.462 92.423 268.491" stroke="#FFB800" stroke-width="0.907" stroke-miterlimit="10" stroke-linejoin="round"/>
<path d="M102.325 274.713C105.362 273.257 107.342 269.682 106.814 266.24" stroke="#FFB800" stroke-width="0.907" stroke-miterlimit="10" stroke-linejoin="round"/>
<path d="M18.6167 293.777C23.898 292.586 29.0473 290.997 33.9325 288.879" stroke="#FFB800" stroke-width="0.907" stroke-miterlimit="10" stroke-linejoin="round"/>
<path d="M28.2549 296.69C33.4042 295.234 38.1573 292.983 42.6465 290.071" stroke="#FFB800" stroke-width="0.907" stroke-miterlimit="10" stroke-linejoin="round"/>
<path d="M39.7417 297.882C43.4386 296.425 46.8715 294.439 49.9082 292.056" stroke="#FFB800" stroke-width="0.907" stroke-miterlimit="10" stroke-linejoin="round"/>
<path d="M253.239 26.3459C252.182 33.8923 250.994 41.4386 248.485 48.4554C247.429 51.2356 246.109 54.0158 245.713 57.0609C245.317 59.5763 245.713 62.2241 246.241 64.7396C247.033 68.0494 248.353 71.2268 250.598 73.6098C252.842 76.1253 256.011 77.8464 259.312 77.8464" stroke="#FFB800" stroke-width="0.907" stroke-miterlimit="10" stroke-linejoin="round"/>
<path d="M67.7329 177.405C73.5424 172.242 81.7284 171.183 89.3863 169.726C117.509 164.298 143.52 150.794 167.154 134.51" stroke="#FFB800" stroke-width="0.907" stroke-miterlimit="10" stroke-linejoin="round"/>
<path d="M215.609 42.8949C214.685 42.3653 213.497 42.2329 212.705 42.2329C210.46 42.3653 210.064 44.7484 211.384 46.2047C212.441 47.3962 214.289 47.661 215.741 46.8666C216.269 46.6018 216.798 46.2047 216.93 45.5427C217.458 44.3512 216.666 43.4244 215.609 42.8949Z" stroke="#FFB800" stroke-width="0.907" stroke-miterlimit="10" stroke-linejoin="round"/>
<path d="M181.281 104.457C180.356 103.928 179.168 103.795 178.376 103.795C176.131 103.928 175.735 106.311 177.056 107.767C178.112 108.958 179.96 109.223 181.413 108.429C181.941 108.164 182.469 107.767 182.601 107.105C183.129 105.913 182.469 104.987 181.281 104.457Z" stroke="#FFB800" stroke-width="0.907" stroke-miterlimit="10" stroke-linejoin="round"/>
<path d="M170.19 118.491C169.266 117.961 168.078 117.829 167.286 117.829C165.041 117.961 164.645 120.344 165.965 121.8C167.022 122.992 168.87 123.257 170.322 122.462C170.851 122.198 171.379 121.8 171.511 121.138C172.039 120.079 171.379 119.153 170.19 118.491Z" stroke="#FFB800" stroke-width="0.907" stroke-miterlimit="10" stroke-linejoin="round"/>
<path d="M326.253 33.3628C315.955 40.9091 307.637 50.7061 298.262 59.3116C284.531 72.0212 268.687 82.2154 254.295 94.263C233.038 112.004 221.947 139.806 201.878 158.738C181.809 177.67 151.706 188.129 124.903 194.748C116.321 196.867 106.683 198.191 100.741 204.943C97.4405 208.782 95.8561 213.68 94.6678 218.579C91.499 230.494 89.2544 242.674 88.1982 254.854C87.9341 258.297 87.67 261.871 88.5943 265.181C90.1787 270.741 94.6678 274.846 99.553 278.023C116.189 289.144 136.918 291.527 156.855 293.645C169.53 294.969 182.206 296.425 194.881 297.749C207.16 299.073 219.571 300.397 231.85 299.868C245.449 299.206 258.917 296.161 272.516 294.44C289.152 292.321 306.052 292.189 322.82 291.395C363.09 289.541 402.964 283.981 442.838 278.42C458.814 276.169 474.658 273.919 490.634 271.801C499.348 270.609 509.383 268.491 513.476 260.68C517.965 251.942 512.287 241.748 510.571 232.083C508.723 222.286 511.099 211.959 509.383 202.03C507.402 190.644 500.404 180.847 496.972 169.859C494.595 162.048 494.067 153.707 493.671 145.499C493.011 133.716 492.35 121.933 491.69 110.15C491.162 99.5587 490.502 88.835 486.541 79.038C482.58 69.241 474.526 60.5031 464.227 58.5172C451.288 56.1342 436.501 64.2101 425.674 56.7961C422.901 54.9426 420.921 52.2948 418.676 49.9117C396.231 26.346 353.716 12.9744 326.253 33.3628Z" fill="black"/>
<path d="M327.045 109.356C326.253 112.93 321.368 113.989 318.199 112.268C315.03 110.547 313.182 107.237 311.466 104.06C310.145 101.677 308.297 99.0291 305.656 99.1615C304.996 99.1615 304.468 99.2939 303.808 99.5587C298.526 101.942 298.658 109.753 301.167 114.916C302.223 117.167 303.676 119.285 303.412 121.8C303.28 124.184 300.375 126.567 298.394 125.11C297.602 124.581 297.206 123.654 296.81 122.86C295.358 119.682 292.849 116.505 289.548 115.446C286.115 114.254 281.758 115.843 280.702 119.285C278.854 125.375 287.7 130.009 287.568 136.364C287.568 137.423 287.304 138.482 286.511 139.144C284.531 140.865 281.626 138.747 279.646 136.761C276.873 133.981 273.308 131.333 269.347 131.333C265.386 131.333 261.293 134.775 261.953 138.747C262.613 141.924 265.914 143.778 268.951 145.101C285.455 152.515 302.487 158.605 319.784 163.504C325.461 165.093 332.855 166.019 336.288 161.121C337.344 159.532 337.74 157.414 338.136 155.56C338.928 151.721 339.589 147.882 340.381 144.042C342.097 135.437 343.682 126.434 341.041 118.094C339.324 112.798 336.024 108.297 332.063 104.457C329.554 101.942 322.82 94.7926 318.991 94.7926C310.805 94.6602 327.97 104.722 327.045 109.356Z" fill="#00FF8D"/>
<path d="M181.017 250.618C180.753 247.176 182.47 243.866 184.45 240.953C194.22 226.39 210.328 216.858 227.229 211.959C244.129 207.061 261.953 206.399 279.514 206.266C295.754 206.134 312.258 206.399 327.706 201.236C334.703 198.853 341.437 195.278 348.039 191.836C383.82 172.904 414.187 150.265 446.535 125.905C454.589 119.815 470.433 113.327 479.939 116.637C483.24 117.696 485.221 123.257 487.597 125.772C495.519 134.907 498.952 149.735 500.272 161.783C501.197 170.123 500.536 176.478 501.461 184.819C501.593 186.275 501.725 187.996 500.933 189.188C499.876 190.777 497.764 191.041 495.915 191.174C472.414 193.16 447.459 191.836 426.598 202.957C418.94 207.061 412.075 212.754 404.549 217.255C396.759 221.889 388.309 225.331 379.859 228.508C328.366 247.705 273.308 257.635 218.25 257.502C210.593 257.635 181.941 261.606 181.017 250.618Z" fill="#1D1D1F"/>
<path d="M148.933 262.93C145.764 260.812 142.992 258.296 140.615 255.251C135.07 247.838 132.693 237.908 125.299 232.612C118.698 227.979 109.191 228.376 102.193 232.48C91.3668 238.967 82.1245 256.311 88.5941 267.431C98.6286 269.285 121.338 271.536 148.933 262.93Z" fill="#FFB800"/>
<path d="M418.676 166.946C417.092 172.109 420.261 177.405 423.297 181.774C424.75 183.76 426.334 186.011 428.843 186.275C430.163 186.408 431.615 186.011 432.936 185.481C442.31 181.907 451.552 177.935 460.531 173.566C473.998 167.079 460.795 151.986 450.364 150.265C441.65 148.941 421.449 158.341 418.676 166.946Z" fill="#00FF8D"/>
<path d="M374.181 88.0405C378.67 86.849 382.631 84.2012 386.46 81.6857C395.174 75.7281 403.756 69.5057 411.942 63.0185C412.867 62.2241 414.055 61.0326 413.527 59.9735C413.263 59.1791 412.471 58.9143 411.81 58.5171C401.776 54.0158 390.949 49.3821 380.255 51.6328C380.783 54.0158 382.763 55.6045 383.952 57.7228C385.272 59.7087 385.8 62.7537 383.82 64.21C382.103 65.4015 379.726 64.6072 377.878 63.4157C375.105 61.6946 372.597 59.3115 369.428 58.2524C366.259 57.1932 362.298 57.5904 360.582 60.503C363.486 63.0185 365.863 66.3283 367.315 69.9028C368.504 72.8155 368.504 77.1844 365.467 77.8464C363.09 78.3759 361.11 75.9929 360.318 73.7422C359.525 71.4916 358.997 68.8437 357.149 67.3874C354.376 65.1367 350.283 66.7254 347.51 68.8437C345.662 70.1676 338.532 74.4042 338.532 76.7872C338.532 79.4351 346.718 82.6125 348.831 83.6716C356.621 87.3786 365.467 90.4236 374.181 88.0405Z" fill="#00FF8D"/>
<path d="M354.508 147.882C353.716 154.766 354.508 161.783 356.62 168.402C358.205 173.301 361.109 178.332 366.127 179.523C369.428 180.318 372.86 178.994 375.897 177.405C379.198 175.552 382.235 173.301 385.271 171.05C394.778 164.034 404.152 156.884 413.659 149.868C415.507 148.411 417.487 146.955 418.28 144.704C412.866 146.028 407.585 147.352 402.172 148.676C396.23 150.132 390.289 151.589 384.215 152.251C380.782 152.515 377.085 152.515 374.049 150.794C372.728 150 371.54 148.941 370.484 147.749C368.503 145.499 366.919 142.851 365.863 140.071C364.938 137.82 365.071 133.054 362.034 133.716C357.017 134.643 355.036 143.91 354.508 147.882Z" fill="black"/>
<path d="M366.787 142.718C368.636 146.293 372.068 148.941 375.501 151.059C377.614 152.251 379.99 153.31 382.367 153.707C385.008 154.104 387.648 153.972 390.157 153.575C400.72 151.986 410.886 148.279 420.656 144.042C421.581 143.645 422.637 142.983 422.769 142.057C415.771 141.659 408.774 142.321 401.908 144.042C397.551 145.102 393.194 146.558 388.705 147.22C384.215 147.882 379.462 147.485 375.501 145.102C373.521 143.91 371.936 142.321 370.748 140.335C369.692 138.614 369.296 135.834 368.107 134.378C364.807 130.141 365.863 140.733 366.787 142.718Z" fill="#00FF8D"/>
<path d="M374.181 143.116C376.69 145.631 380.254 146.823 383.687 146.955C387.252 147.087 390.685 146.426 394.118 145.631C404.681 143.38 415.243 141.13 425.806 139.012C412.999 139.409 400.455 144.042 387.516 144.042C384.348 144.042 380.915 143.645 378.406 141.527C376.426 139.806 375.369 137.423 374.709 134.907C374.313 133.319 374.709 128.817 372.597 130.274C369.164 132.789 372.068 140.865 374.181 143.116Z" fill="#F4952F"/>
<path d="M375.369 133.054C375.501 135.304 376.69 137.29 377.878 139.011C378.67 140.203 379.726 141.527 381.047 142.189C382.235 142.718 383.555 142.851 384.744 142.983C389.629 143.248 394.514 142.586 399.267 141.924C408.642 140.732 418.016 139.409 427.39 138.217C429.503 137.952 432.011 137.423 432.672 135.304C419.336 135.172 406.397 139.144 393.326 141.13C389.761 141.659 385.668 141.924 382.763 139.673C379.99 137.555 379.462 134.245 378.934 131.068C378.01 126.302 375.237 129.744 375.369 133.054Z" fill="#E7CD49"/>
<path d="M380.65 134.245C381.179 137.026 383.291 139.276 385.8 140.335C388.704 141.527 391.873 140.997 394.91 140.468C408.509 138.217 421.977 136.099 435.576 133.848C433.86 132.789 431.747 132.922 429.899 133.186C422.901 133.848 416.035 134.907 409.17 136.496C401.512 138.217 393.194 140.6 385.8 137.688C384.876 137.29 383.951 136.893 383.423 136.099C381.839 134.113 383.291 130.141 381.311 128.817C380.518 130.406 380.386 132.524 380.65 134.245Z" fill="#617F4C"/>
<path d="M384.743 131.068C384.611 132.921 384.875 134.907 386.328 136.099C387.78 137.423 389.893 137.29 391.873 137.158C394.91 137.026 397.947 136.761 401.115 136.628C409.83 136.099 418.676 135.569 427.258 133.981C431.351 133.186 435.444 132.259 439.537 131.2C440.329 130.935 441.121 130.803 441.914 130.406C442.838 129.876 443.498 128.95 443.762 127.89C443.102 127.89 442.574 128.023 441.914 128.023C431.087 128.95 420.656 132.392 409.83 133.848C406.001 134.378 402.172 134.642 398.343 134.907C397.419 134.907 396.362 135.04 395.438 134.907C393.061 134.642 390.949 133.319 389.629 131.333C388.968 130.274 388.572 129.214 388.308 127.89C388.176 127.361 388.572 124.845 387.78 124.713C387.12 124.581 385.932 126.964 385.8 127.361C385.14 128.685 384.743 129.876 384.743 131.068Z" fill="#93F4CB"/>
<path d="M390.949 128.817C390.949 130.671 391.741 132.524 393.194 133.451C394.25 134.113 395.57 134.245 396.891 134.378C405.737 134.775 414.451 132.127 423.297 131.068C430.031 130.274 436.897 130.274 443.498 128.685C446.139 128.023 449.044 126.831 450.1 124.184C434.388 125.11 419.468 131.2 403.756 131.862C402.304 131.862 400.984 131.862 399.663 131.465C397.815 130.803 396.363 129.479 395.438 127.758C394.91 126.699 394.25 122.463 393.062 122.86C391.741 123.257 390.949 127.626 390.949 128.817Z" fill="#4F97ED"/>
<path d="M395.57 126.169C395.438 126.699 395.438 127.229 395.57 127.758C395.966 129.214 397.287 130.141 398.607 130.803C402.04 132.26 406.001 131.598 409.566 131.068C422.505 128.95 435.312 126.964 448.251 124.846C451.816 124.316 455.909 123.389 457.89 120.344C440.065 123.654 422.109 127.096 404.284 130.009C403.756 130.141 403.36 130.141 402.832 130.009C402.436 129.876 402.172 129.744 401.908 129.479C400.191 128.288 398.871 126.434 398.343 124.316C398.079 123.124 398.079 122.065 396.891 123.257C396.23 124.051 395.702 125.11 395.57 126.169Z" fill="#B56EDB"/>
<path d="M481.788 100.221C482.976 103.795 484.428 107.237 485.881 110.812C487.069 113.46 488.125 116.24 489.71 118.755C491.426 121.536 493.539 124.051 495.123 126.831C494.859 123.522 493.671 120.344 492.747 117.034C489.578 106.311 489.446 94.7926 485.881 84.2012C485.089 81.9506 484.164 79.6999 483.108 77.4492C482.448 76.1253 481.524 72.5507 479.939 72.1536C478.223 75.7281 479.015 82.2153 479.279 86.1871C479.543 90.9532 480.335 95.7193 481.788 100.221Z" fill="#00FF8D"/>
<path d="M507.534 258.297C507.93 252.471 503.045 247.97 499.744 243.204C493.142 233.804 491.822 220.83 496.443 210.371C498.16 206.399 500.668 201.898 498.424 198.191C496.839 195.675 493.539 194.749 490.634 194.219C471.225 191.306 451.816 197.661 433.728 205.207C428.975 207.193 424.089 209.444 419.996 212.621C414.187 217.123 409.962 223.345 405.869 229.435C402.964 233.672 400.059 238.041 397.287 242.277C393.854 247.308 390.553 252.339 387.912 257.899C384.48 265.049 380.651 274.978 381.311 283.186C382.103 292.057 392.005 287.952 398.211 285.834C410.358 281.73 423.297 280.274 435.972 278.685C453.533 276.567 470.961 274.184 488.389 271.403C492.482 270.741 496.707 270.079 500.404 268.094C504.101 266.108 507.27 262.533 507.534 258.297ZM482.712 244.131C481.524 246.381 479.147 247.573 476.77 248.5C461.191 254.987 444.158 257.899 427.258 256.84C424.353 256.708 421.053 256.178 419.072 254.06C416.167 250.883 417.224 245.455 420.26 242.41C423.297 239.365 427.654 238.173 431.879 237.246C439.801 235.393 447.723 234.201 455.777 233.407C462.907 232.745 472.413 230.627 478.883 234.466C482.184 236.452 484.428 240.821 482.712 244.131Z" fill="#FFB800"/>
<path d="M93.7436 235.922C107.607 226.125 129.657 231.818 137.05 247.176C138.635 250.485 139.691 254.06 142.464 256.443C145.236 258.826 149.065 259.223 152.63 259.488C159.892 259.885 167.286 259.885 174.68 259.356C176.264 259.223 177.848 259.091 179.301 258.296C181.281 257.237 182.338 255.251 183.394 253.266C191.052 239.762 201.482 227.714 214.686 219.638C237.659 205.737 266.046 205.869 292.849 204.943C319.652 203.883 348.699 200.441 367.976 181.642C359.393 175.287 354.244 164.563 354.376 153.839C354.508 148.808 355.829 143.38 359.393 139.806C361.902 137.29 365.203 135.834 368.504 134.378C377.614 130.406 386.856 126.302 395.967 122.33C396.891 127.361 401.908 130.803 406.925 131.333C411.943 131.995 416.96 130.406 421.845 128.95C416.432 128.685 412.339 123.257 411.81 117.829C411.282 112.401 413.131 107.105 414.979 101.942C418.544 92.277 422.109 82.6124 425.674 72.9478C426.07 71.8887 426.466 70.6972 426.598 69.5056C426.994 64.0776 419.732 60.7678 414.583 62.4889C409.434 64.21 405.869 68.8437 402.04 72.8154C387.516 87.7757 362.562 94.2629 345.662 82.0829C343.682 80.6266 341.833 79.0379 339.589 78.3759C337.344 77.7139 334.307 78.6407 333.647 80.8913C337.344 83.6716 339.589 88.3053 339.589 92.939C335.099 93.4686 330.742 89.232 330.874 84.7307C326.121 86.187 321.368 87.6433 316.615 89.0996C320.84 96.1164 325.065 103.133 329.158 110.15C333.251 116.902 337.212 123.786 339.06 131.465C343.021 148.544 335.099 166.019 327.177 181.774C325.857 184.422 324.405 187.202 321.764 188.658C319.784 189.85 317.407 190.115 315.163 190.247C305.788 191.174 296.546 191.968 287.172 192.762C255.088 195.41 222.74 196.734 190.524 196.734C174.02 196.734 157.383 196.469 140.879 195.675C130.053 195.278 118.566 192.498 109.191 199.25C97.7046 207.723 90.1787 221.624 93.7436 235.922Z" fill="white"/>
<path d="M335.627 292.056C336.155 292.321 336.816 292.321 337.344 292.189C341.569 291.792 345.662 291.527 349.887 291.13C350.415 291.13 351.075 290.997 351.339 290.6C351.999 289.806 351.339 288.482 352.131 287.952C352.395 287.82 352.66 287.82 352.924 287.688C356.092 287.423 359.261 287.158 362.43 287.026C362.166 287.688 362.694 288.482 363.354 288.747C364.014 289.011 364.675 289.011 365.467 288.879C369.032 288.614 372.464 288.349 376.029 287.952C376.557 287.952 377.086 287.82 377.482 287.688C378.406 287.29 378.934 286.628 378.538 285.702L379.066 285.569C388.044 284.378 397.155 283.054 406.133 281.597C408.377 282.789 411.282 282.789 413.263 281.2C413.659 280.936 413.923 280.671 414.055 280.274C416.695 279.876 419.204 279.479 421.845 279.082C425.014 280.671 428.842 280.936 432.011 279.347C431.879 278.685 432.011 278.023 432.275 277.361C434.52 276.964 436.764 276.567 439.009 276.169C439.537 276.831 439.933 277.626 440.065 278.552C442.574 278.288 445.215 278.155 447.723 277.891C447.195 276.567 447.987 275.243 449.176 274.316C450.496 274.051 451.948 273.786 453.268 273.522C455.513 274.051 457.494 275.375 459.738 276.037C464.491 277.361 470.169 274.713 472.149 270.212C474.262 270.079 476.242 269.815 478.355 269.682C487.069 272.86 497.632 270.609 504.233 264.122C505.95 263.725 507.798 263.327 509.25 262.268C514.4 258.694 513.343 250.883 511.891 244.793C510.967 240.688 509.911 236.584 508.854 232.48C507.798 228.906 508.062 225.066 507.93 221.227C507.666 212.489 507.534 203.751 507.27 194.881C507.27 193.027 507.138 190.909 505.95 189.453C505.289 188.526 504.233 187.996 503.573 187.07C502.649 185.746 502.385 184.157 502.253 182.568C501.46 175.552 501.196 168.535 499.876 161.518C499.348 158.473 498.028 155.56 497.367 152.648C496.575 149.603 496.839 145.896 496.575 142.718C495.519 128.155 492.878 113.857 490.106 99.6911C487.861 87.7758 484.164 74.8014 475.978 65.6664C465.019 53.3539 448.911 60.7679 435.312 59.3116C432.671 59.0468 429.899 58.5172 427.522 57.3257C425.146 56.2666 423.165 54.5455 421.185 52.8244C413.395 46.0724 407.189 37.5993 397.947 32.9656C383.423 25.684 367.447 19.9912 351.339 21.4475C328.233 23.5658 319.915 41.8358 303.411 54.2807C282.418 70.5649 261.425 87.511 243.6 107.237C237.527 113.989 231.85 120.874 226.04 127.891C212.045 144.837 196.465 162.577 176.792 173.566C172.567 175.949 167.814 177.273 163.192 178.597C145.896 183.76 128.732 189.982 112.096 196.999C108.795 198.323 105.626 199.779 102.854 201.898C94.5354 208.252 92.4229 218.844 90.4424 228.508C88.9901 235.79 88.9901 243.469 89.6502 250.883C90.4424 258.694 89.6502 266.505 95.0636 272.992C98.7605 277.493 104.042 280.538 109.323 283.186C112.756 284.907 116.321 286.364 119.886 287.82C121.338 288.349 123.187 289.541 124.903 289.673C126.619 289.806 128.072 288.614 129.392 287.82C131.241 286.893 133.089 286.364 135.202 286.628C135.202 287.29 135.334 287.82 135.334 288.482C138.37 288.879 141.275 289.541 144.048 290.6C144.84 290.865 145.632 291.13 146.292 290.6C146.952 290.203 146.952 289.144 147.745 288.879C148.141 288.747 148.537 288.879 148.933 289.011C153.158 290.6 157.647 291.394 162.004 292.454C166.493 293.38 171.775 294.969 176.264 294.704C176.528 294.704 176.924 294.704 177.188 294.704C178.376 294.44 178.772 293.116 179.036 292.056C180.885 291.792 182.733 292.056 184.582 292.586C184.714 293.38 184.846 294.175 184.978 295.101C184.978 295.366 185.11 295.631 185.242 295.763C185.506 296.028 185.77 296.028 186.034 296.028C190.127 296.028 193.956 296.955 197.917 296.69C199.369 296.558 201.35 296.558 202.538 295.896C203.33 295.499 203.859 294.837 203.991 294.042C205.839 294.307 207.556 294.44 209.404 294.704C209.668 294.704 209.932 294.704 210.064 294.969C210.328 295.234 210.328 295.631 210.46 295.896C210.724 296.69 211.516 297.22 212.309 297.352C213.101 297.485 213.893 297.352 214.817 297.352C221.287 296.558 227.757 296.823 234.226 296.955C235.15 296.955 236.207 296.955 237.131 296.558C238.055 296.161 238.715 295.234 238.451 294.175C240.168 294.175 241.884 294.175 243.6 294.175C243.865 294.175 243.997 294.175 244.129 294.307C244.393 294.44 244.393 294.704 244.525 294.969C244.789 295.763 244.921 296.69 245.185 297.485C245.317 297.882 252.315 297.22 252.975 297.087C259.048 296.558 265.122 296.161 271.195 295.763C272.12 295.631 273.572 295.499 274.496 295.763C275.156 296.028 275.552 296.823 276.345 296.823C282.946 296.69 289.416 295.896 295.885 295.366C297.602 295.234 315.558 294.44 315.558 294.042C315.558 293.645 315.558 293.38 315.69 292.983C322.028 292.454 328.366 291.792 334.703 291.13L335.627 292.056Z" stroke="#FFB800" stroke-width="0.907" stroke-miterlimit="10" stroke-linejoin="round"/>
<path d="M308.428 50.4412C322.16 49.5145 336.155 51.6328 349.095 56.5313C356.356 59.3115 363.75 63.548 366.655 70.8296C367.183 72.0211 367.447 73.345 367.315 74.5366C367.183 75.8605 366.259 77.052 365.07 77.3168C362.958 77.8464 361.242 75.7281 359.921 74.1394C352.923 65.5339 341.701 61.9593 331.006 59.3115C328.365 58.6495 325.725 57.9876 323.216 57.458C314.766 55.6045 305.392 54.1482 298.13 58.7819" stroke="#FFB800" stroke-width="0.907" stroke-miterlimit="10" stroke-linejoin="round"/>
<path d="M331.667 51.7652C346.718 44.4836 365.203 43.0273 379.858 51.2356C382.499 52.6919 385.14 54.6778 385.932 57.5904C386.724 60.5031 384.48 64.3424 381.443 63.9452C380.255 63.8128 379.33 63.1509 378.406 62.4889C374.841 60.2383 370.88 58.5172 367.051 56.9285C363.618 55.4722 360.054 54.0158 356.225 53.3539C352.528 52.8243 348.435 53.0891 345.266 55.2074" stroke="#FFB800" stroke-width="0.907" stroke-miterlimit="10" stroke-linejoin="round"/>
<path d="M324.273 57.7229C313.05 58.782 302.091 61.9594 291.925 66.9903C289.416 68.3143 286.775 69.6382 283.871 69.7706" stroke="#FFB800" stroke-width="0.907" stroke-miterlimit="10" stroke-linejoin="round"/>
<path d="M284.795 82.7449C284.531 80.097 285.587 77.3168 287.171 75.1985C288.888 73.0803 291 71.4916 293.245 69.9029C294.961 68.7113 296.81 67.5198 298.79 66.5931C301.959 65.2691 305.392 64.872 308.825 64.6072C308.825 65.6663 308.033 66.4607 307.24 67.1226C302.091 71.7563 297.47 77.5816 296.018 84.3336" stroke="#FFB800" stroke-width="0.907" stroke-miterlimit="10" stroke-linejoin="round"/>
<path d="M293.245 83.1421C301.299 84.8632 308.56 89.3645 315.426 94.1306C320.311 97.4404 325.329 101.412 326.385 107.237C326.649 108.826 326.517 110.68 325.461 111.739C324.14 113.063 321.764 112.93 320.047 112.004C318.331 111.077 317.143 109.488 315.954 108.032C310.673 101.942 303.675 97.5728 296.149 94.6602C288.623 91.7476 280.701 90.4237 272.647 89.3645C273.44 89.4969 276.608 86.0547 277.401 85.3928C278.721 84.466 280.041 83.0097 281.626 82.6125C285.059 81.5534 289.812 82.3477 293.245 83.1421Z" stroke="#FFB800" stroke-width="0.907" stroke-miterlimit="10" stroke-linejoin="round"/>
<path d="M299.186 75.8605C311.861 72.8154 326.121 78.7731 332.854 89.894C333.779 91.3503 334.703 92.939 336.287 93.3362C338.268 93.7334 340.116 91.6151 340.248 89.4968C340.38 87.3786 339.192 85.5251 338.136 83.6716C334.571 77.8463 330.082 72.1535 323.744 69.7704C318.331 67.6522 312.257 68.3141 306.448 67.5198" stroke="#FFB800" stroke-width="0.907" stroke-miterlimit="10" stroke-linejoin="round"/>
<path d="M284.795 79.8323C278.589 80.2295 272.516 81.5534 266.838 83.9364" stroke="#FFB800" stroke-width="0.907" stroke-miterlimit="10" stroke-linejoin="round"/>
<path d="M290.868 71.3591C286.907 71.4915 282.946 72.2859 279.117 73.6098" stroke="#FFB800" stroke-width="0.907" stroke-miterlimit="10" stroke-linejoin="round"/>
<path d="M272.252 89.6292C271.327 89.3644 270.403 89.6292 269.479 89.894C265.122 91.2179 260.897 93.3362 256.408 93.601" stroke="#FFB800" stroke-width="0.907" stroke-miterlimit="10" stroke-linejoin="round"/>
<path d="M245.317 105.251C259.973 99.8234 275.156 95.7193 290.472 92.8066" stroke="#FFB800" stroke-width="0.907" stroke-miterlimit="10" stroke-linejoin="round"/>
<path d="M267.895 100.353C269.479 100.353 270.931 100.618 272.516 101.015C275.684 101.809 278.721 102.604 281.89 103.53C288.36 105.384 294.961 107.502 299.714 112.268C302.355 114.916 304.204 118.094 305.128 121.668C305.392 122.595 305.524 123.522 305.26 124.448C304.6 126.169 302.091 126.434 300.507 125.64C298.79 124.846 297.734 123.257 296.414 121.933C293.773 119.285 290.208 117.696 286.775 116.108C281.89 113.857 277.137 111.739 272.12 109.753C267.234 107.899 261.953 106.973 257.068 105.119C258.124 102.604 265.122 100.485 267.895 100.353Z" stroke="#FFB800" stroke-width="0.907" stroke-miterlimit="10" stroke-linejoin="round"/>
<path d="M257.332 105.781C255.087 105.384 252.843 106.575 250.598 107.37C247.693 108.561 244.525 109.356 241.356 109.753C240.96 109.753 240.564 110.15 240.828 110.282" stroke="#FFB800" stroke-width="0.907" stroke-miterlimit="10" stroke-linejoin="round"/>
<path d="M234.226 119.55C240.432 117.564 246.769 115.578 252.975 113.592C258.784 111.739 264.726 109.885 270.799 109.488" stroke="#FFB800" stroke-width="0.907" stroke-miterlimit="10" stroke-linejoin="round"/>
<path d="M250.202 115.313C251.654 115.048 253.239 115.181 254.823 115.313C263.669 116.108 273.176 117.034 280.041 122.595C283.738 125.64 286.379 129.744 288.623 133.848C289.548 135.569 290.34 138.085 288.755 139.144C287.303 140.071 285.455 138.879 284.134 137.688C271.195 126.699 255.879 122.462 239.243 122.86C239.507 120.741 241.488 120.344 243.072 119.285C245.317 117.829 247.165 115.843 250.202 115.313Z" stroke="#FFB800" stroke-width="0.907" stroke-miterlimit="10" stroke-linejoin="round"/>
<path d="M238.979 123.257C234.886 124.184 230.925 125.243 226.964 126.567" stroke="#FFB800" stroke-width="0.907" stroke-miterlimit="10" stroke-linejoin="round"/>
<path d="M220.891 135.04C232.51 130.274 244.657 126.831 257.068 124.713" stroke="#FFB800" stroke-width="0.907" stroke-miterlimit="10" stroke-linejoin="round"/>
<path d="M210.328 144.837C219.57 143.91 228.813 142.983 238.187 142.057C242.544 141.659 247.165 141.262 251.258 142.983C255.351 144.837 258.256 148.809 260.765 152.516C261.293 153.31 261.953 154.501 261.293 155.296C261.029 155.693 260.369 155.958 259.84 155.958C256.276 156.355 253.371 153.442 250.202 151.854C246.637 150.133 242.544 150 238.583 150C226.7 149.868 214.553 149.735 203.066 153.178" stroke="#FFB800" stroke-width="0.907" stroke-miterlimit="10" stroke-linejoin="round"/>
<path d="M218.25 137.688C222.475 138.482 226.436 140.335 229.605 142.983" stroke="#FFB800" stroke-width="0.907" stroke-miterlimit="10" stroke-linejoin="round"/>
<path d="M228.285 132.921C229.605 132.657 230.925 133.319 231.982 133.848C234.886 135.304 237.923 136.893 240.828 138.349C242.676 139.276 244.657 140.335 246.109 141.792" stroke="#FFB800" stroke-width="0.907" stroke-miterlimit="10" stroke-linejoin="round"/>
<path d="M201.35 155.163C210.988 153.045 220.759 152.383 230.529 153.045C235.415 153.442 241.092 153.972 244.657 150.397" stroke="#FFB800" stroke-width="0.907" stroke-miterlimit="10" stroke-linejoin="round"/>
<path d="M253.371 144.042C256.011 142.189 258.652 140.203 261.293 138.35" stroke="#FFB800" stroke-width="0.907" stroke-miterlimit="10" stroke-linejoin="round"/>
<path d="M270.007 128.685C267.234 130.141 264.726 131.995 262.349 133.98C261.821 134.378 261.425 134.775 261.161 135.437C260.633 136.628 261.161 137.952 261.953 139.011C265.122 143.116 322.292 162.445 332.591 165.357" stroke="#FFB800" stroke-width="0.907" stroke-miterlimit="10" stroke-linejoin="round"/>
<path d="M278.985 121.006C280.834 119.153 282.682 117.432 284.531 115.578" stroke="#FFB800" stroke-width="0.907" stroke-miterlimit="10" stroke-linejoin="round"/>
<path d="M293.905 108.164C297.866 105.384 301.827 102.471 305.788 99.4263" stroke="#FFB800" stroke-width="0.907" stroke-miterlimit="10" stroke-linejoin="round"/>
<path d="M313.314 91.7476C313.314 91.6152 313.05 91.7476 313.182 91.88C313.314 92.0124 313.446 91.88 313.578 91.7476C313.974 91.4829 314.238 91.2181 314.634 90.8209C313.578 89.8941 312.654 88.835 311.729 87.6435C314.634 84.8633 317.539 82.083 320.444 79.1704" stroke="#FFB800" stroke-width="0.907" stroke-miterlimit="10" stroke-linejoin="round"/>
<path d="M328.629 72.286C332.59 69.3733 336.155 66.1959 339.588 62.6213" stroke="#FFB800" stroke-width="0.907" stroke-miterlimit="10" stroke-linejoin="round"/>
<path d="M347.774 56.1342C349.755 54.9427 351.999 54.016 354.244 53.354" stroke="#FFB800" stroke-width="0.907" stroke-miterlimit="10" stroke-linejoin="round"/>
<path d="M365.863 46.7343C372.861 43.1597 381.047 42.1006 388.836 42.7626C396.758 43.4245 404.416 45.5428 411.81 48.1906C414.583 49.1174 417.223 50.1765 419.6 51.8976C422.769 54.1483 425.145 57.1933 427.258 60.3707C430.559 65.0044 433.596 69.9029 436.368 74.8014C440.197 81.6858 443.762 88.7025 448.119 95.3221C449.704 97.7052 451.42 99.9558 453.665 101.545C456.041 103.133 458.946 103.928 461.587 102.868C465.019 101.677 466.868 97.97 468.32 94.5278C470.565 89.4969 472.809 84.466 473.866 79.1703C475.054 73.8746 475.054 68.0494 472.809 63.0185" stroke="#FFB800" stroke-width="0.907" stroke-miterlimit="10" stroke-linejoin="round"/>
<path d="M454.985 59.8411C457.758 72.0211 455.117 85.2603 447.987 95.4545" stroke="#FFB800" stroke-width="0.907" stroke-miterlimit="10" stroke-linejoin="round"/>
<path d="M479.411 69.3733C477.959 84.3336 480.731 99.5586 487.069 113.063C490.238 119.815 494.331 126.037 496.311 133.186" stroke="#FFB800" stroke-width="0.907" stroke-miterlimit="10" stroke-linejoin="round"/>
<path d="M313.578 90.4235C313.314 90.5559 313.446 90.8207 313.578 91.0855C313.974 91.7475 314.898 92.0122 315.69 91.8799C316.482 91.7475 317.143 91.3503 317.803 90.9531C321.104 89.0996 324.404 87.1137 327.705 85.2603" stroke="#FFB800" stroke-width="0.907" stroke-miterlimit="10" stroke-linejoin="round"/>
<path d="M334.571 78.5084C339.192 74.0071 344.209 69.903 349.622 66.3284" stroke="#FFB800" stroke-width="0.907" stroke-miterlimit="10" stroke-linejoin="round"/>
<path d="M357.809 61.165C360.581 59.5763 363.486 57.9876 366.259 56.3989" stroke="#FFB800" stroke-width="0.907" stroke-miterlimit="10" stroke-linejoin="round"/>
<path d="M378.67 50.5738C386.196 49.3823 393.854 50.5738 401.116 53.0893C408.245 55.6047 414.979 59.4441 421.317 63.5482C423.957 65.2693 426.598 66.9904 429.106 69.1087C434.388 73.7424 438.349 79.8324 442.046 85.7901" stroke="#FFB800" stroke-width="0.907" stroke-miterlimit="10" stroke-linejoin="round"/>
<path d="M335.627 77.4492C341.305 79.4351 346.586 82.0829 351.471 85.5251C353.452 86.9814 355.432 88.4377 357.809 89.4969C364.147 92.1447 371.54 90.0264 377.746 86.9814C391.477 80.2294 402.964 69.7705 414.319 59.3115" stroke="#FFB800" stroke-width="0.907" stroke-miterlimit="10" stroke-linejoin="round"/>
<path d="M338.796 86.8492C347.774 88.3055 355.168 95.0575 364.146 96.249C372.068 97.3081 379.858 94.1307 386.724 90.159C399.135 82.8774 409.565 72.8156 419.864 62.8862" stroke="#FFB800" stroke-width="0.907" stroke-miterlimit="10" stroke-linejoin="round"/>
<path d="M314.634 91.6152C317.407 92.0124 319.783 93.6011 322.028 95.3222C329.422 100.883 335.363 108.297 339.324 116.77C340.645 119.55 341.701 122.33 341.833 125.375C341.965 126.964 341.701 128.42 341.569 130.009C339.588 145.499 335.495 160.591 331.402 175.684C330.082 180.715 328.366 186.143 324.008 188.923C321.104 190.777 317.539 191.042 314.106 191.174C307.9 191.571 301.563 191.836 295.357 192.233C275.288 194.484 144.708 200.044 114.604 196.867" stroke="#FFB800" stroke-width="0.907" stroke-miterlimit="10" stroke-linejoin="round"/>
<path d="M322.688 88.3054C331.138 96.3813 342.625 102.736 347.378 113.46C352.264 124.316 340.249 173.433 335.099 184.157C332.591 189.188 329.818 194.484 325.065 197.264C320.84 199.779 315.558 199.779 310.673 199.912C260.501 200.441 148.141 205.075 106.683 199.647" stroke="#FFB800" stroke-width="0.907" stroke-miterlimit="10" stroke-linejoin="round"/>
<path d="M179.037 258.959C181.281 238.041 198.049 220.962 217.326 213.019C236.603 204.943 258.256 204.546 279.117 205.605C291.661 206.134 304.204 207.193 316.615 205.207C327.838 203.486 338.664 199.25 348.831 193.954C392.93 171.183 426.862 128.817 474.79 115.843C475.978 115.578 477.167 115.181 478.355 115.578C479.675 115.975 480.599 117.299 481.392 118.491C486.277 125.905 491.162 133.451 496.047 140.865" stroke="#FFB800" stroke-width="0.907" stroke-miterlimit="10" stroke-linejoin="round"/>
<path d="M438.481 154.766C433.595 157.546 428.71 160.459 423.693 163.239C421.316 164.563 418.676 166.284 418.28 169.064C417.884 170.918 418.676 172.771 419.468 174.36C421.052 177.67 423.033 180.847 425.145 183.76C425.938 184.687 426.73 185.746 427.786 186.275C429.634 187.07 431.747 186.408 433.595 185.746C442.046 182.833 450.496 179.788 458.946 176.875C462.907 175.552 467 173.963 469.772 170.918C470.961 169.594 472.017 167.74 471.621 165.887C471.357 164.166 469.904 162.71 468.584 161.518C464.491 157.811 458.946 151.324 453.796 149.206C449.307 147.352 442.442 152.515 438.481 154.766Z" stroke="#FFB800" stroke-width="0.907" stroke-miterlimit="10" stroke-linejoin="round"/>
<path d="M373.125 179.656C365.863 177.273 358.469 173.301 355.3 166.417C353.848 163.107 353.452 159.532 353.32 155.958C353.32 153.442 353.452 151.059 353.848 148.676C355.168 142.189 358.997 136.231 364.411 132.392C363.09 139.673 368.636 147.617 375.501 150.397C382.367 153.177 390.157 152.383 397.419 150.662C404.681 148.941 411.678 146.161 418.94 145.234" stroke="#FFB800" stroke-width="0.907" stroke-miterlimit="10" stroke-linejoin="round"/>
<path d="M364.014 136.364C365.731 134.51 367.315 132.789 369.031 130.936C368.899 138.085 375.369 144.042 382.235 145.896C389.1 147.617 396.494 146.161 403.36 144.307C410.226 142.454 417.355 140.335 424.485 140.865" stroke="#FFB800" stroke-width="0.907" stroke-miterlimit="10" stroke-linejoin="round"/>
<path d="M369.295 135.04C370.616 133.186 372.068 131.598 373.652 130.141C375.237 135.04 377.217 140.336 381.706 142.719C385.8 144.837 390.685 144.175 395.174 143.381C406.397 141.527 417.619 139.541 428.842 137.688" stroke="#FFB800" stroke-width="0.907" stroke-miterlimit="10" stroke-linejoin="round"/>
<path d="M374.181 134.113C375.237 131.73 376.821 129.612 378.802 128.023C379.066 132.259 379.462 137.026 382.631 139.673C386.064 142.718 391.345 142.056 395.834 141.13C408.641 138.747 421.58 136.496 434.388 134.113" stroke="#FFB800" stroke-width="0.907" stroke-miterlimit="10" stroke-linejoin="round"/>
<path d="M379.198 133.054C379.858 130.406 381.443 127.891 383.819 126.434C383.291 130.671 383.291 135.834 386.856 138.085C389.233 139.541 392.137 139.144 394.91 138.747C408.906 136.629 422.901 134.378 436.897 132.26" stroke="#FFB800" stroke-width="0.907" stroke-miterlimit="10" stroke-linejoin="round"/>
<path d="M383.027 131.597C384.215 128.685 386.064 126.037 388.308 123.919C388.44 126.831 388.704 130.009 390.685 132.259C393.721 135.834 399.135 135.304 403.756 134.642C417.223 132.392 430.823 130.274 444.29 128.023" stroke="#FFB800" stroke-width="0.907" stroke-miterlimit="10" stroke-linejoin="round"/>
<path d="M389.365 129.215C390.421 126.434 392.137 123.786 394.25 121.668C394.382 124.184 394.91 126.567 395.834 128.95C396.098 129.877 396.495 130.803 397.287 131.465C398.607 132.789 400.72 132.524 402.568 132.26C419.336 129.877 435.972 126.964 452.476 123.654" stroke="#FFB800" stroke-width="0.907" stroke-miterlimit="10" stroke-linejoin="round"/>
<path d="M394.118 127.361C394.646 124.845 396.362 122.595 398.739 121.536C398.211 124.581 398.343 128.817 401.247 129.744C402.304 130.141 403.36 129.876 404.416 129.744C422.901 126.567 441.517 123.389 460.002 120.079" stroke="#FFB800" stroke-width="0.907" stroke-miterlimit="10" stroke-linejoin="round"/>
<path d="M380.519 285.172C382.895 281.995 383.819 277.626 383.027 273.786C382.763 272.86 382.499 271.801 382.631 270.874C382.631 269.947 383.027 269.02 383.423 268.094C387.516 259.223 392.798 251.015 396.362 241.88C398.475 236.584 399.927 231.024 403.228 226.39C406.529 221.624 411.546 218.314 416.431 215.269C423.957 210.636 431.747 206.399 439.405 202.03C445.215 198.853 451.156 195.543 457.626 193.689C462.247 192.365 467.132 191.968 471.885 191.571C476.11 191.306 480.467 191.174 484.692 191.306C487.729 191.306 490.898 191.439 493.539 192.763C497.896 194.881 500.536 199.647 500.932 204.413C501.328 209.179 499.876 214.078 497.764 218.447C496.443 221.095 494.859 223.875 494.595 226.787C493.935 232.877 498.556 238.041 501.989 243.072C505.686 248.367 508.458 254.325 510.175 260.547" stroke="#FFB800" stroke-width="0.907" stroke-miterlimit="10" stroke-linejoin="round"/>
<path d="M433.067 237.643C428.842 238.305 424.485 238.967 421.184 241.615C417.884 244.263 416.035 249.294 418.412 252.869C421.052 256.84 426.994 256.575 431.747 255.781C444.818 253.795 458.022 251.677 471.093 249.691C474.79 249.162 478.751 248.367 481.259 245.587C484.032 242.41 483.636 237.511 481.656 234.069C478.883 229.435 473.601 232.215 469.112 233.01C457.229 234.996 445.082 235.922 433.067 237.643Z" stroke="#FFB800" stroke-width="0.907" stroke-miterlimit="10" stroke-linejoin="round"/>
<path d="M494.727 192.763C494.463 192.895 494.067 192.895 493.803 192.63C494.727 190.909 495.651 189.32 497.104 187.997C498.556 186.673 500.404 185.878 502.385 186.275C502.649 186.275 503.045 186.54 502.913 186.805" stroke="#FFB800" stroke-width="0.907" stroke-miterlimit="10" stroke-linejoin="round"/>
<path d="M139.427 256.443C185.11 257.767 231.057 258.694 276.477 254.192C321.896 249.691 367.315 239.629 408.642 219.903" stroke="#FFB800" stroke-width="0.907" stroke-miterlimit="10" stroke-linejoin="round"/>
<path d="M91.7627 240.291C104.702 240.159 117.641 240.026 130.58 239.894" stroke="#FFB800" stroke-width="0.907" stroke-miterlimit="10" stroke-linejoin="round"/>
<path d="M90.8384 250.221C105.494 249.956 120.15 249.426 134.673 248.632" stroke="#FFB800" stroke-width="0.907" stroke-miterlimit="10" stroke-linejoin="round"/>
<path d="M89.6504 258.561C106.287 260.415 123.187 259.753 139.559 256.708" stroke="#FFB800" stroke-width="0.907" stroke-miterlimit="10" stroke-linejoin="round"/>
<path d="M91.2349 266.373C110.248 268.623 129.524 267.564 148.273 263.46" stroke="#FFB800" stroke-width="0.907" stroke-miterlimit="10" stroke-linejoin="round"/>
<path d="M429.502 70.4324C425.938 77.9787 422.373 85.525 417.223 92.1446C415.243 94.7925 412.998 97.3079 411.546 100.353C410.358 102.868 409.83 105.781 409.698 108.561C409.433 112.268 409.83 115.975 411.414 119.417C412.998 122.727 415.771 125.64 419.204 126.699" stroke="#FFB800" stroke-width="0.907" stroke-miterlimit="10" stroke-linejoin="round"/>
<path d="M185.506 168.8C193.296 165.225 202.274 166.814 210.856 167.74C242.148 171.183 273.968 165.49 304.071 155.958" stroke="#FFB800" stroke-width="0.907" stroke-miterlimit="10" stroke-linejoin="round"/>
<path d="M384.611 75.5958C383.819 74.8015 382.631 74.1395 381.707 74.0071C379.198 73.3452 378.142 75.7282 379.066 77.8465C379.726 79.4352 381.707 80.3619 383.423 79.9648C384.083 79.8324 384.743 79.5676 385.139 79.038C386.064 77.7141 385.535 76.5226 384.611 75.5958Z" stroke="#FFB800" stroke-width="0.907" stroke-miterlimit="10" stroke-linejoin="round"/>
<path d="M328.629 129.082C327.837 128.288 326.649 127.626 325.725 127.493C323.216 126.832 322.16 129.215 323.084 131.333C323.744 132.922 325.725 133.848 327.441 133.451C328.101 133.319 328.761 133.054 329.157 132.524C330.082 131.333 329.554 130.009 328.629 129.082Z" stroke="#FFB800" stroke-width="0.907" stroke-miterlimit="10" stroke-linejoin="round"/>
<path d="M312.39 140.335C311.597 139.541 310.409 138.879 309.485 138.747C306.976 138.085 305.92 140.468 306.844 142.586C307.504 144.175 309.485 145.101 311.201 144.704C311.861 144.572 312.522 144.307 312.918 143.778C313.842 142.454 313.314 141.262 312.39 140.335Z" stroke="#FFB800" stroke-width="0.907" stroke-miterlimit="10" stroke-linejoin="round"/>
</svg>
